<svg width="347" height="197" viewBox="0 0 347 197" fill="none" xmlns="http://www.w3.org/2000/svg">
<mask id="mask0_327_2671" style="mask-type:alpha" maskUnits="userSpaceOnUse" x="0" y="0" width="347" height="197">
<rect width="347" height="197" rx="8" fill="#F8F9FA"/>
</mask>
<g mask="url(#mask0_327_2671)">
<rect x="-72.8992" y="-45.146" width="447.115" height="267.592" fill="#F8F9FA"/>
<mask id="mask1_327_2671" style="mask-type:luminance" maskUnits="userSpaceOnUse" x="-12" y="-365" width="577" height="928">
<path d="M565 -365H-12V562.321H565V-365Z" fill="white"/>
</mask>
<g mask="url(#mask1_327_2671)">
<path d="M14 17.5134V7H15.8867L19.1001 15.6812L22.3576 7H24.2365V17.5134H22.8293V9.01341L19.7407 17.5134H18.4663L15.4003 9.09394V17.5134H14ZM29.8955 17.6588C29.188 17.6588 28.5632 17.5067 28.0235 17.2002C27.4827 16.8949 27.0598 16.4564 26.7559 15.8848C26.4509 15.3132 26.2989 14.6264 26.2989 13.8266C26.2989 13.0369 26.4361 12.3434 26.7117 11.7472C26.9861 11.151 27.384 10.6857 27.9056 10.3512C28.4306 10.0168 29.0622 9.85009 29.7992 9.85009C30.5169 9.85009 31.1235 10.0022 31.6201 10.3076C32.1156 10.613 32.4921 11.0447 32.7472 11.6018C33.008 12.1544 33.1383 12.8121 33.1383 13.5727V14.0671H27.6766C27.6766 14.5425 27.756 14.9731 27.9124 15.3613C28.0746 15.7438 28.3183 16.0492 28.6426 16.2774C28.9669 16.5056 29.3774 16.6186 29.8729 16.6186C30.3593 16.6186 30.7777 16.5078 31.1258 16.2841C31.4795 16.0615 31.7063 15.7394 31.8038 15.3177H33.0862C32.9978 15.8266 32.7914 16.255 32.4671 16.6051C32.1485 16.953 31.7618 17.2181 31.3106 17.3971C30.8627 17.5716 30.391 17.6588 29.8955 17.6588ZM27.6845 13.1577H31.8265C31.8265 12.7271 31.7528 12.3389 31.6054 11.9944C31.458 11.6454 31.2312 11.3725 30.9274 11.1734C30.6269 10.9698 30.2493 10.868 29.7923 10.868C29.315 10.868 28.9204 10.9821 28.6052 11.2092C28.2911 11.4329 28.0575 11.7215 27.9056 12.0749C27.7525 12.4239 27.6788 12.7852 27.6845 13.1577ZM35.024 17.5134V9.99551H36.3427V11.0861C36.4651 10.8781 36.6352 10.6812 36.8517 10.4966C37.0728 10.3132 37.3382 10.1655 37.6477 10.0537C37.9618 9.94182 38.3223 9.8859 38.7305 9.8859C39.2124 9.8859 39.6547 9.98097 40.0572 10.17C40.4654 10.359 40.7896 10.6544 41.03 11.057C41.2761 11.4541 41.3985 11.9687 41.3985 12.5984V17.5134H40.0356V12.7293C40.0356 12.1432 39.878 11.7092 39.564 11.4273C39.2544 11.142 38.8507 10.9989 38.3552 10.9989C38.0105 10.9989 37.6885 11.0548 37.3892 11.1656C37.0899 11.2729 36.8461 11.4374 36.6601 11.6599C36.473 11.8781 36.38 12.1544 36.38 12.4888V17.5134H35.024ZM46.2004 17.6588C45.6697 17.6588 45.1766 17.5794 44.7196 17.4184C44.2672 17.2539 43.8908 17 43.5914 16.6555C43.2921 16.3065 43.105 15.8624 43.0313 15.3244H44.2694C44.3329 15.6208 44.4565 15.868 44.6379 16.066C44.8194 16.2606 45.0438 16.4083 45.3092 16.5101C45.579 16.6074 45.8739 16.6555 46.1936 16.6555C46.7095 16.6555 47.1245 16.5604 47.4385 16.3714C47.7526 16.1823 47.9102 15.8915 47.9102 15.4989C47.9102 15.2226 47.8263 15.0022 47.6596 14.8378C47.4975 14.6678 47.2424 14.5447 46.8932 14.4664L45.316 14.0817C44.7015 13.9362 44.2105 13.7081 43.8419 13.3982C43.478 13.0884 43.2943 12.6544 43.2898 12.0962C43.2898 11.6555 43.3975 11.2673 43.6141 10.9329C43.8295 10.5984 44.1515 10.3344 44.579 10.1409C45.011 9.94741 45.5496 9.85009 46.1936 9.85009C47.0236 9.85009 47.6914 10.0347 48.1983 10.4027C48.704 10.7662 48.9693 11.302 48.9942 12.009H47.7855C47.7356 11.651 47.5735 11.3669 47.2991 11.1588C47.0236 10.9452 46.6506 10.8389 46.1789 10.8389C45.697 10.8389 45.3013 10.9362 44.9917 11.1297C44.6867 11.3188 44.5348 11.6141 44.5348 12.0168C44.5348 12.283 44.6425 12.4944 44.8591 12.6488C45.0802 12.7998 45.3999 12.9251 45.8171 13.0269L47.3502 13.406C47.6994 13.4978 47.9885 13.6186 48.2198 13.7685C48.4511 13.9195 48.6325 14.0861 48.7652 14.2707C48.8979 14.4553 48.9909 14.6488 49.0453 14.8524C49.1042 15.0515 49.1337 15.2427 49.1337 15.4262C49.1337 15.887 49.018 16.2841 48.7878 16.6186C48.5565 16.9486 48.2221 17.2058 47.7855 17.3893C47.3479 17.5694 46.8195 17.6588 46.2004 17.6588ZM53.0818 17.6588C52.5852 17.6588 52.1475 17.5738 51.7699 17.4038C51.3957 17.2293 51.1009 16.9799 50.8855 16.6555C50.6735 16.3311 50.568 15.9385 50.568 15.4776C50.568 14.6443 50.8628 14.0235 51.4524 13.6163C52.042 13.2092 52.9877 12.991 54.2905 12.962L55.6465 12.9251V12.3367C55.6465 11.8758 55.506 11.5123 55.2259 11.2461C54.9459 10.9743 54.5138 10.8389 53.9287 10.8389C53.4911 10.8434 53.1056 10.9452 52.7722 11.1443C52.4378 11.3434 52.2234 11.6678 52.1304 12.1186H50.9297C50.9592 11.6286 51.0964 11.217 51.3425 10.8825C51.5931 10.5436 51.9434 10.2863 52.3958 10.1118C52.8482 9.93735 53.3811 9.85009 53.9957 9.85009C54.659 9.85009 55.2089 9.94182 55.6465 10.1264C56.0888 10.3109 56.4176 10.5816 56.6342 10.9407C56.8553 11.2998 56.9652 11.7405 56.9652 12.264V17.5134H55.8007L55.6976 16.1029C55.4074 16.6891 55.0343 17.0962 54.5773 17.3244C54.1249 17.547 53.6272 17.6588 53.0818 17.6588ZM53.4866 16.6913C53.7474 16.6913 54.0024 16.6454 54.253 16.5537C54.5081 16.462 54.7395 16.3378 54.9458 16.1823C55.1567 16.0224 55.3268 15.8456 55.4549 15.6521C55.5819 15.453 55.6465 15.2495 55.6465 15.0414V13.7539L54.5184 13.7763C53.9333 13.7863 53.4469 13.8445 53.0591 13.9508C52.6713 14.057 52.3788 14.2248 52.1826 14.4519C51.9853 14.6801 51.8878 14.9787 51.8878 15.3467C51.8878 15.7684 52.0375 16.0984 52.3368 16.3356C52.6361 16.5727 53.0194 16.6913 53.4866 16.6913ZM62.3125 20C61.1186 20 60.1866 19.8277 59.5187 19.4843C58.8509 19.1443 58.5163 18.6577 58.5163 18.0224C58.5163 17.7505 58.5798 17.5213 58.708 17.3311C58.8361 17.1376 58.9881 16.9776 59.1649 16.8512C59.3418 16.7259 59.5062 16.6264 59.6593 16.5537C59.8112 16.4765 59.9121 16.4206 59.9609 16.3859C59.8724 16.3378 59.767 16.2774 59.6445 16.2047C59.5209 16.132 59.411 16.0347 59.3123 15.9139C59.2194 15.7931 59.1728 15.6354 59.1728 15.4407C59.1728 15.2036 59.2851 14.9855 59.5119 14.7864C59.7375 14.5884 60.0743 14.4407 60.521 14.3434C60.0743 14.1208 59.7251 13.8244 59.4745 13.4564C59.2239 13.0883 59.0992 12.6879 59.0992 12.2561C59.0992 11.7718 59.2318 11.3501 59.4971 10.9911C59.7624 10.6331 60.1423 10.359 60.6389 10.17C61.1356 9.9765 61.7275 9.87917 62.4157 9.87917C62.9112 9.87917 63.3262 9.93734 63.6606 10.0537C63.9997 10.1655 64.3138 10.3255 64.604 10.5336C64.6823 10.5 64.8081 10.4485 64.9805 10.3803C65.1517 10.3076 65.3388 10.2304 65.5406 10.1477C65.747 10.066 65.9386 9.98769 66.1155 9.91498C66.2969 9.8378 66.442 9.77963 66.5497 9.74048L66.5429 10.9843L65.2084 11.2315C65.2866 11.387 65.349 11.5559 65.3932 11.7405C65.4374 11.925 65.4589 12.0962 65.4589 12.2561C65.4589 12.698 65.3411 13.0973 65.1052 13.4564C64.8739 13.8154 64.5235 14.1007 64.0519 14.3143C63.5802 14.528 62.9906 14.6342 62.283 14.6342C62.2241 14.6342 62.1469 14.6342 62.054 14.6342C61.9655 14.6297 61.8896 14.6242 61.8261 14.6197C61.3045 14.6342 60.9462 14.6924 60.7501 14.7942C60.5585 14.8915 60.462 15 60.462 15.1208C60.462 15.2617 60.5732 15.3591 60.7943 15.4116C61.0154 15.4653 61.3884 15.5112 61.9145 15.5503C62.1061 15.5604 62.342 15.5716 62.6221 15.5861C62.9067 15.6007 63.223 15.6208 63.5722 15.6454C64.3682 15.6935 64.9827 15.8948 65.4147 16.2483C65.8467 16.6018 66.0633 17.0794 66.0633 17.6812C66.0633 18.3647 65.7538 18.9217 65.1347 19.3535C64.5202 19.7841 63.5802 20 62.3125 20ZM62.5552 19.1354C63.2581 19.1354 63.7956 19.0302 64.1698 18.8222C64.5474 18.6141 64.7367 18.2987 64.7367 17.877C64.7367 17.5761 64.6211 17.3311 64.3909 17.1421C64.1596 16.9485 63.8103 16.8367 63.3443 16.8076L61.207 16.67C61.0153 16.66 60.8158 16.7092 60.6095 16.8154C60.4031 16.9172 60.2285 17.0604 60.0867 17.2439C59.9439 17.4284 59.8724 17.6376 59.8724 17.8703C59.8724 18.2673 60.0913 18.5772 60.529 18.8009C60.9655 19.0235 61.6413 19.1354 62.5552 19.1354ZM62.3273 13.7685C62.8726 13.7685 63.3114 13.6432 63.6459 13.3904C63.9849 13.1387 64.155 12.7651 64.155 12.2707C64.155 11.7617 63.9849 11.3747 63.6459 11.1074C63.3114 10.8412 62.8726 10.708 62.3273 10.708C61.7671 10.708 61.3147 10.8434 60.9712 11.1152C60.6322 11.3814 60.462 11.7673 60.462 12.2707C60.462 12.7461 60.6242 13.1141 60.9485 13.3758C61.2773 13.6376 61.7377 13.7685 62.3273 13.7685ZM71.2507 17.6588C70.5432 17.6588 69.9196 17.5067 69.3787 17.2002C68.839 16.8949 68.4161 16.4564 68.1111 15.8848C67.8072 15.3132 67.6541 14.6264 67.6541 13.8266C67.6541 13.0369 67.7925 12.3434 68.0669 11.7472C68.3424 11.151 68.7403 10.6857 69.2608 10.3512C69.7869 10.0168 70.4185 9.85009 71.1555 9.85009C71.8732 9.85009 72.4798 10.0022 72.9753 10.3076C73.4719 10.613 73.8484 11.0447 74.1035 11.6018C74.3643 12.1544 74.4935 12.8121 74.4935 13.5727V14.0671H69.0329C69.0329 14.5425 69.1111 14.9731 69.2687 15.3613C69.4309 15.7438 69.6735 16.0492 69.9978 16.2774C70.3221 16.5056 70.7326 16.6186 71.2292 16.6186C71.7156 16.6186 72.1329 16.5078 72.4821 16.2841C72.8358 16.0615 73.0615 15.7394 73.1602 15.3177H74.4425C74.3541 15.8266 74.1477 16.255 73.8234 16.6051C73.5037 16.953 73.1182 17.2181 72.6658 17.3971C72.219 17.5716 71.7473 17.6588 71.2507 17.6588ZM69.0397 13.1577H73.1817C73.1817 12.7271 73.108 12.3389 72.9606 11.9944C72.8132 11.6454 72.5875 11.3725 72.2825 11.1734C71.9832 10.9698 71.6045 10.868 71.1475 10.868C70.6713 10.868 70.2756 10.9821 69.9615 11.2092C69.6474 11.4329 69.4139 11.7215 69.2608 12.0749C69.1089 12.4239 69.0351 12.7852 69.0397 13.1577ZM76.3792 17.5134V9.99551H77.691V11.0861C77.903 10.7561 78.1922 10.4676 78.5607 10.2204C78.9292 9.97316 79.4088 9.85009 79.9984 9.85009C80.2728 9.85009 80.5529 9.89597 80.8386 9.98769C81.1277 10.0805 81.3931 10.2181 81.6346 10.4027C81.875 10.5872 82.062 10.8121 82.1947 11.0783C82.4305 10.7103 82.7492 10.415 83.1528 10.1913C83.5553 9.96421 84.01 9.85009 84.5157 9.85009C84.781 9.85009 85.0588 9.89149 85.3491 9.97315C85.6382 10.0514 85.9069 10.1913 86.1518 10.3948C86.4024 10.5939 86.6065 10.8725 86.7642 11.2315C86.9206 11.585 87 12.0414 87 12.5984V17.5134H85.6291V12.7293C85.6291 12.274 85.5554 11.9217 85.408 11.6745C85.2606 11.4228 85.0667 11.2461 84.8252 11.1443C84.5894 11.0425 84.3365 10.9911 84.0667 10.9911C83.8308 10.9911 83.5803 11.038 83.315 11.1297C83.0496 11.2215 82.8228 11.377 82.6369 11.5951C82.4498 11.8132 82.3568 12.1107 82.3568 12.4888V17.5134H81.0007V12.3367C81.0007 12.0414 80.9191 11.7942 80.7569 11.5951C80.6005 11.396 80.4009 11.2461 80.1605 11.1443C79.9247 11.0425 79.6889 10.9911 79.453 10.9911C79.1923 10.9911 78.9292 11.0425 78.6638 11.1443C78.4042 11.2461 78.1831 11.4083 78.0006 11.6309C77.8237 11.849 77.7352 12.1353 77.7352 12.4888V17.5134H76.3792Z" fill="#555555"/>
<path d="M331.227 27H16.7734C14.6894 27 13 29.5604 13 32.7188V143.281C13 146.44 14.6894 149 16.7734 149H331.227C333.311 149 335 146.44 335 143.281V32.7188C335 29.5604 333.311 27 331.227 27Z" fill="white" stroke="#DADADA" stroke-linecap="round"/>
<path d="M26.5693 50.2338V39.0596H27.9985V50.2338H26.5693ZM30.6527 50.2338V42.2434H32.0354V43.4025C32.1642 43.181 32.3424 42.9718 32.5691 42.7761C32.8009 42.5803 33.0791 42.4237 33.4037 42.3052C33.7334 42.1867 34.1116 42.1269 34.5392 42.1269C35.0441 42.1269 35.5077 42.2279 35.9302 42.4288C36.3578 42.6297 36.6978 42.944 36.9502 43.3716C37.2078 43.7941 37.3366 44.3401 37.3366 45.0099V50.2338H35.9075V45.149C35.9075 44.5256 35.7426 44.064 35.4129 43.7652C35.0883 43.4612 34.6659 43.3098 34.1456 43.3098C33.785 43.3098 33.447 43.3685 33.1327 43.487C32.8184 43.6004 32.5639 43.7755 32.3682 44.0125C32.1724 44.2443 32.0746 44.538 32.0746 44.8934V50.2338H30.6527ZM42.372 50.3883C41.8156 50.3883 41.2973 50.3039 40.8182 50.1328C40.3442 49.9577 39.9506 49.6877 39.6363 49.3219C39.3221 48.951 39.1263 48.4791 39.049 47.9073H40.3473C40.4143 48.2215 40.543 48.4842 40.7337 48.6955C40.9243 48.9015 41.1582 49.0592 41.4364 49.1674C41.7197 49.2704 42.0289 49.3219 42.3637 49.3219C42.9047 49.3219 43.3405 49.2209 43.6702 49.02C43.9999 48.8191 44.1648 48.51 44.1648 48.0927C44.1648 47.7991 44.0772 47.5652 43.902 47.39C43.732 47.2097 43.4641 47.0778 43.0983 46.9954L41.4446 46.5863C40.8006 46.4318 40.2855 46.1896 39.8991 45.8599C39.5178 45.5302 39.3242 45.0686 39.319 44.4761C39.319 44.0073 39.4324 43.5952 39.659 43.2397C39.8857 42.8843 40.2236 42.604 40.6718 42.3979C41.1252 42.1918 41.6888 42.0888 42.3637 42.0888C43.2344 42.0888 43.935 42.2846 44.4656 42.6761C44.9963 43.0625 45.2745 43.6313 45.3002 44.3834H44.0329C43.9814 44.0022 43.8114 43.7013 43.5229 43.4798C43.2344 43.2531 42.8428 43.1398 42.3483 43.1398C41.8434 43.1398 41.4291 43.2428 41.1046 43.4489C40.7852 43.6498 40.6255 43.9641 40.6255 44.3917C40.6255 44.675 40.7389 44.8986 40.9655 45.0635C41.1974 45.2232 41.5322 45.3571 41.9701 45.4653L43.5775 45.8682C43.9432 45.965 44.2472 46.0938 44.4893 46.2535C44.7315 46.4132 44.9221 46.5915 45.0612 46.7872C45.2003 46.983 45.2981 47.1891 45.3548 47.4055C45.4166 47.6167 45.4476 47.8197 45.4476 48.0154C45.4476 48.5048 45.326 48.9273 45.0838 49.2828C44.8417 49.6331 44.4914 49.9062 44.0329 50.1019C43.5744 50.2936 43.0211 50.3883 42.372 50.3883ZM47.3537 50.2338V42.2434H48.7365V50.2338H47.3537ZM47.3146 40.5505V39.0668H48.7756V40.5505H47.3146ZM51.2238 50.2338V42.2434H52.5838V43.7807C52.7178 43.3994 52.9063 43.0852 53.1484 42.8379C53.3906 42.5854 53.6657 42.3979 53.9748 42.2743C54.2891 42.1506 54.6136 42.0888 54.9485 42.0888C55.067 42.0888 55.1834 42.096 55.2968 42.1125C55.4101 42.127 55.4976 42.1527 55.5594 42.1888V43.5725C55.4822 43.5365 55.3812 43.5128 55.2576 43.5025C55.1391 43.487 55.0392 43.4798 54.9567 43.4798C54.6373 43.4592 54.3385 43.4798 54.0603 43.5416C53.7821 43.5983 53.5369 43.6982 53.3257 43.8425C53.1144 43.9867 52.9475 44.1773 52.8239 44.4143C52.7054 44.6462 52.6457 44.9295 52.6457 45.2644V50.2338H51.2238ZM59.2152 50.3883C58.6949 50.3883 58.2363 50.2987 57.8396 50.1174C57.4481 49.9319 57.139 49.6671 56.9124 49.3219C56.6908 48.9767 56.5806 48.5595 56.5806 48.07C56.5806 47.1839 56.8897 46.5245 57.5079 46.0918C58.1261 45.659 59.1173 45.4272 60.4825 45.3963L61.9044 45.3571V44.7317C61.9044 44.2423 61.7581 43.8559 61.4644 43.5725C61.1708 43.284 60.7174 43.1398 60.1044 43.1398C59.6459 43.1449 59.2409 43.2531 58.8906 43.4643C58.5403 43.6756 58.3167 44.0207 58.2189 44.4999H56.9587C56.9896 43.9795 57.1339 43.5416 57.3914 43.1862C57.6542 42.8255 58.023 42.5525 58.497 42.367C58.971 42.1815 59.5294 42.0888 60.1734 42.0888C60.8689 42.0888 61.4459 42.1867 61.9044 42.3825C62.3681 42.5782 62.7132 42.8667 62.9399 43.248C63.1718 43.6292 63.2882 44.098 63.2882 44.6544V50.2338H62.0672L61.9591 48.7346C61.6551 49.358 61.2636 49.7907 60.7844 50.0329C60.3105 50.2698 59.787 50.3883 59.2152 50.3883ZM59.6408 49.3601C59.9138 49.3601 60.1817 49.3116 60.4444 49.2138C60.7123 49.1159 60.9544 48.984 61.1708 48.8191C61.3923 48.6491 61.5695 48.4616 61.7035 48.2555C61.8374 48.0443 61.9044 47.8279 61.9044 47.6064V46.2381L60.7226 46.2618C60.1096 46.2721 59.5995 46.3339 59.1925 46.4472C58.7855 46.5606 58.4785 46.7378 58.2724 46.9799C58.0664 47.2221 57.9633 47.5394 57.9633 47.931C57.9633 48.3792 58.1209 48.7295 58.4352 48.9819C58.7495 49.2344 59.1513 49.3601 59.6408 49.3601ZM71.5167 50.3883C70.9963 50.3883 70.5378 50.2987 70.1411 50.1174C69.7496 49.9319 69.4404 49.6671 69.2138 49.3219C68.9922 48.9767 68.881 48.5595 68.881 48.07C68.881 47.1839 69.1901 46.5245 69.8083 46.0918C70.4265 45.659 71.4187 45.4272 72.784 45.3963L74.2059 45.3571V44.7317C74.2059 44.2423 74.0585 43.8559 73.7648 43.5725C73.4712 43.284 73.0179 43.1398 72.4048 43.1398C71.9463 43.1449 71.5424 43.2531 71.1921 43.4643C70.8418 43.6756 70.6171 44.0207 70.5192 44.4999H69.2602C69.2911 43.9795 69.4353 43.5416 69.6929 43.1862C69.9556 42.8255 70.3234 42.5525 70.7974 42.367C71.2714 42.1815 71.8309 42.0888 72.4749 42.0888C73.1704 42.0888 73.7474 42.1867 74.2059 42.3825C74.6695 42.5782 75.0147 42.8667 75.2414 43.248C75.4732 43.6292 75.5886 44.098 75.5886 44.6544V50.2338H74.3676L74.2595 48.7346C73.9555 49.358 73.5639 49.7907 73.0848 50.0329C72.6109 50.2698 72.0885 50.3883 71.5167 50.3883ZM71.9411 49.3601C72.2142 49.3601 72.4821 49.3116 72.7448 49.2138C73.0127 49.1159 73.2548 48.984 73.4712 48.8191C73.6927 48.6491 73.871 48.4616 74.0049 48.2555C74.1389 48.0443 74.2059 47.8279 74.2059 47.6064V46.2381L73.023 46.2618C72.4099 46.2721 71.8999 46.3339 71.4929 46.4472C71.086 46.5606 70.7799 46.7378 70.5738 46.9799C70.3678 47.2221 70.2647 47.5394 70.2647 47.931C70.2647 48.3792 70.4213 48.7295 70.7356 48.9819C71.0498 49.2344 71.4517 49.3601 71.9411 49.3601ZM81.576 50.2338V42.2434H82.9515V43.4025C83.173 43.0522 83.477 42.7451 83.8634 42.4824C84.2498 42.2197 84.7526 42.0888 85.3708 42.0888C85.6593 42.0888 85.9529 42.1372 86.2518 42.2351C86.5557 42.333 86.8339 42.4804 87.0863 42.6761C87.3388 42.8719 87.5346 43.1109 87.6737 43.3943C87.9209 43.0027 88.2558 42.6885 88.6782 42.4515C89.1007 42.2094 89.5767 42.0888 90.1074 42.0888C90.3856 42.0888 90.6772 42.1321 90.9811 42.2197C91.2851 42.3021 91.5653 42.4515 91.8229 42.6679C92.0856 42.8791 92.3 43.1758 92.4648 43.5571C92.6297 43.9331 92.7121 44.4174 92.7121 45.0099V50.2338H91.2747V45.149C91.2747 44.6647 91.1975 44.2907 91.0429 44.0279C90.8884 43.7601 90.6844 43.5725 90.4319 43.4643C90.1846 43.3562 89.9199 43.3016 89.6365 43.3016C89.3892 43.3016 89.1265 43.351 88.8483 43.4489C88.5701 43.5468 88.3331 43.7116 88.1373 43.9435C87.9416 44.1753 87.8436 44.4916 87.8436 44.8934V50.2338H86.4217V44.7317C86.4217 44.4174 86.3362 44.1547 86.1662 43.9435C86.0014 43.7322 85.7932 43.5725 85.5408 43.4643C85.2935 43.3562 85.0463 43.3016 84.799 43.3016C84.5259 43.3016 84.2498 43.3562 83.9716 43.4643C83.6985 43.5725 83.4667 43.7446 83.2761 43.9816C83.0906 44.2134 82.9979 44.5174 82.9979 44.8934V50.2338H81.576ZM98.3255 50.3883C97.5836 50.3883 96.9293 50.2266 96.3626 49.901C95.7959 49.5764 95.3529 49.1107 95.0335 48.5028C94.7141 47.8949 94.5544 47.1654 94.5544 46.3153C94.5544 45.4756 94.6986 44.7389 94.9871 44.1052C95.2756 43.4716 95.6929 42.977 96.239 42.6215C96.7902 42.266 97.4528 42.0888 98.2256 42.0888C98.9777 42.0888 99.6134 42.2506 100.134 42.5751C100.654 42.8997 101.049 43.3582 101.317 43.9507C101.59 44.538 101.726 45.2366 101.726 46.0454V46.5709H96C96 47.0758 96.0824 47.5343 96.2472 47.9464C96.4172 48.3534 96.6717 48.678 97.0118 48.9201C97.3518 49.1622 97.7825 49.2828 98.3028 49.2828C98.8128 49.2828 99.2507 49.1643 99.6165 48.9273C99.9875 48.6903 100.224 48.3482 100.327 47.9H101.672C101.579 48.441 101.363 48.8964 101.023 49.2673C100.688 49.6383 100.283 49.9195 99.8092 50.1102C99.3404 50.2956 98.8458 50.3883 98.3255 50.3883ZM96.0072 45.6044H100.35C100.35 45.1459 100.273 44.7338 100.118 44.368C99.9638 43.997 99.7268 43.7065 99.4074 43.4953C99.0931 43.2789 98.6964 43.1707 98.2173 43.1707C97.7175 43.1707 97.3034 43.2913 96.9737 43.5334C96.6439 43.7704 96.3987 44.0774 96.239 44.4535C96.0793 44.8244 96.002 45.2077 96.0072 45.6044ZM103.703 50.2338V42.2434H105.086V43.4025C105.214 43.181 105.393 42.9718 105.619 42.7761C105.851 42.5803 106.129 42.4237 106.454 42.3052C106.784 42.1867 107.162 42.1269 107.589 42.1269C108.094 42.1269 108.558 42.2279 108.98 42.4288C109.408 42.6297 109.748 42.944 110 43.3716C110.258 43.7941 110.387 44.3401 110.387 45.0099V50.2338H108.958V45.149C108.958 44.5256 108.793 44.064 108.463 43.7652C108.139 43.4612 107.716 43.3098 107.196 43.3098C106.835 43.3098 106.497 43.3685 106.183 43.487C105.869 43.6004 105.614 43.7755 105.418 44.0125C105.223 44.2443 105.125 44.538 105.125 44.8934V50.2338H103.703ZM115.424 50.3883C114.868 50.3883 114.353 50.3039 113.868 50.1328C113.394 49.9577 113.003 49.6877 112.684 49.3219C112.374 48.951 112.179 48.4791 112.096 47.9073H113.394C113.467 48.2215 113.59 48.4842 113.786 48.6955C113.971 48.9015 114.208 49.0592 114.487 49.1674C114.775 49.2704 115.084 49.3219 115.414 49.3219C115.96 49.3219 116.393 49.2209 116.723 49.02C117.052 48.8191 117.217 48.51 117.217 48.0927C117.217 47.7991 117.124 47.5652 116.949 47.39C116.784 47.2097 116.516 47.0778 116.146 46.9954L114.497 46.5863C113.848 46.4318 113.333 46.1896 112.951 45.8599C112.57 45.5302 112.374 45.0686 112.374 44.4761C112.374 44.0073 112.488 43.5952 112.714 43.2397C112.941 42.8843 113.271 42.604 113.724 42.3979C114.178 42.1918 114.744 42.0888 115.414 42.0888C116.29 42.0888 116.99 42.2846 117.516 42.6761C118.052 43.0625 118.33 43.6313 118.35 44.3834H117.083C117.032 44.0022 116.867 43.7013 116.578 43.4798C116.29 43.2531 115.898 43.1398 115.404 43.1398C114.899 43.1398 114.476 43.2428 114.157 43.4489C113.838 43.6498 113.673 43.9641 113.673 44.3917C113.673 44.675 113.786 44.8986 114.013 45.0635C114.25 45.2232 114.579 45.3571 115.022 45.4653L116.63 45.8682C116.99 45.965 117.299 46.0938 117.536 46.2535C117.784 46.4132 117.969 46.5915 118.114 46.7872C118.247 46.983 118.35 47.1891 118.402 47.4055C118.464 47.6167 118.495 47.8197 118.495 48.0154C118.495 48.5048 118.381 48.9273 118.134 49.2828C117.897 49.6331 117.547 49.9062 117.083 50.1019C116.63 50.2936 116.073 50.3883 115.424 50.3883ZM122.637 50.3883C122.122 50.3883 121.658 50.2987 121.266 50.1174C120.875 49.9319 120.566 49.6671 120.339 49.3219C120.112 48.9767 119.999 48.5595 119.999 48.07C119.999 47.1839 120.308 46.5245 120.926 46.0918C121.545 45.659 122.544 45.4272 123.904 45.3963L125.326 45.3571V44.7317C125.326 44.2423 125.182 43.8559 124.883 43.5725C124.594 43.284 124.141 43.1398 123.523 43.1398C123.07 43.1449 122.668 43.2531 122.317 43.4643C121.967 43.6756 121.74 44.0207 121.637 44.4999H120.38C120.411 43.9795 120.555 43.5416 120.813 43.1862C121.081 42.8255 121.442 42.5525 121.915 42.367C122.389 42.1815 122.956 42.0888 123.595 42.0888C124.296 42.0888 124.873 42.1867 125.326 42.3825C125.79 42.5782 126.14 42.8667 126.367 43.248C126.593 43.6292 126.707 44.098 126.707 44.6544V50.2338H125.491L125.378 48.7346C125.079 49.358 124.687 49.7907 124.203 50.0329C123.729 50.2698 123.214 50.3883 122.637 50.3883ZM123.059 49.3601C123.337 49.3601 123.605 49.3116 123.863 49.2138C124.131 49.1159 124.378 48.984 124.594 48.8191C124.811 48.6491 124.996 48.4616 125.13 48.2555C125.264 48.0443 125.326 47.8279 125.326 47.6064V46.2381L124.141 46.2618C123.533 46.2721 123.018 46.3339 122.616 46.4472C122.204 46.5606 121.905 46.7378 121.699 46.9799C121.493 47.2221 121.39 47.5394 121.39 47.931C121.39 48.3792 121.545 48.7295 121.854 48.9819C122.173 49.2344 122.575 49.3601 123.059 49.3601ZM132.312 52.8767C131.065 52.8767 130.086 52.6943 129.386 52.3285C128.685 51.9679 128.335 51.4496 128.335 50.7747C128.335 50.4862 128.407 50.242 128.541 50.0401C128.675 49.834 128.829 49.664 129.015 49.53C129.2 49.3961 129.375 49.291 129.53 49.2138C129.695 49.1313 129.798 49.0716 129.849 49.0355C129.757 48.984 129.643 48.9201 129.52 48.8428C129.386 48.7655 129.272 48.6625 129.169 48.5337C129.077 48.4049 129.025 48.237 129.025 48.0309C129.025 47.7785 129.138 47.5466 129.375 47.3354C129.612 47.1242 129.973 46.9676 130.437 46.8645C129.973 46.6276 129.602 46.3133 129.344 45.9218C129.076 45.5302 128.943 45.1047 128.943 44.6462C128.943 44.131 129.087 43.6828 129.365 43.3016C129.643 42.9203 130.045 42.6297 130.56 42.4288C131.086 42.2228 131.704 42.1197 132.425 42.1197C132.94 42.1197 133.383 42.1815 133.734 42.3052C134.084 42.4237 134.414 42.5937 134.723 42.8152C134.805 42.7791 134.929 42.7246 135.114 42.6524C135.29 42.5751 135.485 42.4927 135.702 42.4051C135.918 42.3176 136.114 42.2351 136.299 42.1578C136.495 42.0754 136.65 42.0136 136.763 41.9724L136.753 43.2944L135.351 43.5571C135.434 43.7219 135.496 43.9023 135.547 44.098C135.588 44.2938 135.619 44.4762 135.619 44.6462C135.619 45.115 135.496 45.5405 135.248 45.9218C135.001 46.303 134.63 46.607 134.136 46.8336C133.641 47.0603 133.023 47.1736 132.281 47.1736C132.219 47.1736 132.147 47.1736 132.044 47.1736C131.951 47.1685 131.869 47.1633 131.807 47.1582C131.261 47.1736 130.88 47.2355 130.674 47.3437C130.478 47.4467 130.375 47.5621 130.375 47.6909C130.375 47.8403 130.488 47.9433 130.725 48C130.952 48.0567 131.343 48.1061 131.9 48.1473C132.095 48.1576 132.343 48.17 132.642 48.1854C132.94 48.2009 133.27 48.2215 133.641 48.2483C134.476 48.2988 135.114 48.5131 135.568 48.8892C136.021 49.2653 136.248 49.7722 136.248 50.4121C136.248 51.1385 135.928 51.7309 135.279 52.1894C134.63 52.6479 133.641 52.8767 132.312 52.8767ZM132.569 51.9576C133.311 51.9576 133.868 51.8463 134.259 51.6248C134.661 51.4033 134.857 51.0684 134.857 50.6202C134.857 50.3008 134.733 50.0401 134.496 49.8392C134.249 49.6331 133.888 49.5146 133.394 49.4837L131.158 49.3374C130.952 49.3271 130.746 49.3786 130.529 49.4919C130.313 49.6001 130.127 49.7516 129.983 49.9473C129.829 50.1431 129.757 50.3657 129.757 50.613C129.757 51.0354 129.983 51.3651 130.447 51.6021C130.9 51.8391 131.611 51.9576 132.569 51.9576ZM132.332 46.2535C132.899 46.2535 133.363 46.1196 133.713 45.8517C134.074 45.5838 134.249 45.1871 134.249 44.6616C134.249 44.1207 134.074 43.7085 133.713 43.4252C133.363 43.1418 132.899 43.0007 132.332 43.0007C131.745 43.0007 131.271 43.1449 130.911 43.4334C130.55 43.7168 130.375 44.1258 130.375 44.6616C130.375 45.1665 130.55 45.558 130.89 45.8362C131.23 46.1144 131.714 46.2535 132.332 46.2535ZM141.688 50.3883C140.946 50.3883 140.297 50.2266 139.73 49.901C139.164 49.5764 138.721 49.1107 138.401 48.5028C138.082 47.8949 137.917 47.1654 137.917 46.3153C137.917 45.4756 138.061 44.7389 138.35 44.1052C138.638 43.4716 139.061 42.977 139.607 42.6215C140.153 42.266 140.812 42.0888 141.585 42.0888C142.337 42.0888 142.976 42.2506 143.502 42.5751C144.017 42.8997 144.408 43.3582 144.676 43.9507C144.954 44.538 145.088 45.2366 145.088 46.0454V46.5709H139.359C139.359 47.0758 139.442 47.5343 139.607 47.9464C139.782 48.3534 140.04 48.678 140.38 48.9201C140.72 49.1622 141.142 49.2828 141.667 49.2828C142.172 49.2828 142.615 49.1643 142.976 48.9273C143.347 48.6903 143.584 48.3482 143.687 47.9H145.037C144.944 48.441 144.728 48.8964 144.388 49.2673C144.048 49.6383 143.646 49.9195 143.172 50.1102C142.708 50.2956 142.214 50.3883 141.688 50.3883ZM139.37 45.6044H143.718C143.718 45.1459 143.635 44.7338 143.481 44.368C143.326 43.997 143.089 43.7065 142.77 43.4953C142.461 43.2789 142.059 43.1707 141.585 43.1707C141.08 43.1707 140.668 43.2913 140.338 43.5334C140.009 43.7704 139.761 44.0774 139.607 44.4535C139.442 44.8244 139.37 45.2077 139.37 45.6044ZM147.067 50.2338V42.2434H148.437V43.4025C148.664 43.0522 148.962 42.7451 149.354 42.4824C149.735 42.2197 150.24 42.0888 150.858 42.0888C151.147 42.0888 151.446 42.1372 151.744 42.2351C152.043 42.333 152.321 42.4804 152.579 42.6761C152.826 42.8719 153.022 43.1109 153.166 43.3943C153.414 43.0027 153.743 42.6885 154.166 42.4515C154.588 42.2094 155.062 42.0888 155.598 42.0888C155.876 42.0888 156.165 42.1321 156.474 42.2197C156.773 42.3021 157.051 42.4515 157.308 42.6679C157.576 42.8791 157.792 43.1758 157.957 43.5571C158.122 43.9331 158.205 44.4174 158.205 45.0099V50.2338H156.762V45.149C156.762 44.6647 156.69 44.2907 156.535 44.0279C156.381 43.7601 156.175 43.5725 155.917 43.4643C155.67 43.3562 155.412 43.3016 155.124 43.3016C154.877 43.3016 154.619 43.351 154.341 43.4489C154.063 43.5468 153.826 43.7116 153.63 43.9435C153.434 44.1753 153.331 44.4916 153.331 44.8934V50.2338H151.909V44.7317C151.909 44.4174 151.827 44.1547 151.652 43.9435C151.487 43.7322 151.281 43.5725 151.033 43.4643C150.786 43.3562 150.539 43.3016 150.292 43.3016C150.013 43.3016 149.735 43.3562 149.457 43.4643C149.189 43.5725 148.952 43.7446 148.767 43.9816C148.581 44.2134 148.488 44.5174 148.488 44.8934V50.2338H147.067ZM166.437 50.3883C165.912 50.3883 165.458 50.2987 165.057 50.1174C164.665 49.9319 164.356 49.6671 164.129 49.3219C163.913 48.9767 163.8 48.5595 163.8 48.07C163.8 47.1839 164.109 46.5245 164.727 46.0918C165.345 45.659 166.334 45.4272 167.705 45.3963L169.127 45.3571V44.7317C169.127 44.2423 168.982 43.8559 168.683 43.5725C168.395 43.284 167.942 43.1398 167.323 43.1398C166.87 43.1449 166.458 43.2531 166.108 43.4643C165.757 43.6756 165.541 44.0207 165.438 44.4999H164.181C164.212 43.9795 164.356 43.5416 164.614 43.1862C164.871 42.8255 165.242 42.5525 165.716 42.367C166.19 42.1815 166.746 42.0888 167.395 42.0888C168.086 42.0888 168.663 42.1867 169.127 42.3825C169.59 42.5782 169.93 42.8667 170.157 43.248C170.394 43.6292 170.507 44.098 170.507 44.6544V50.2338H169.291L169.178 48.7346C168.879 49.358 168.488 49.7907 168.003 50.0329C167.529 50.2698 167.004 50.3883 166.437 50.3883ZM166.86 49.3601C167.138 49.3601 167.406 49.3116 167.663 49.2138C167.931 49.1159 168.178 48.984 168.395 48.8191C168.611 48.6491 168.786 48.4616 168.92 48.2555C169.054 48.0443 169.127 47.8279 169.127 47.6064V46.2381L167.942 46.2618C167.334 46.2721 166.819 46.3339 166.417 46.4472C166.005 46.5606 165.695 46.7378 165.489 46.9799C165.283 47.2221 165.18 47.5394 165.18 47.931C165.18 48.3792 165.345 48.7295 165.654 48.9819C165.974 49.2344 166.375 49.3601 166.86 49.3601ZM178.142 52.7221V48.7882C178.06 48.9582 177.946 49.1365 177.812 49.3219C177.668 49.5074 177.493 49.6826 177.287 49.8474C177.091 50.0071 176.854 50.1359 176.576 50.2338C176.298 50.3368 175.989 50.3883 175.628 50.3883C174.989 50.3883 174.412 50.242 173.907 49.9473C173.403 49.6485 173.001 49.1849 172.712 48.5564C172.424 47.9279 172.279 47.119 172.279 46.1299C172.279 45.2798 172.403 44.5534 172.65 43.9507C172.898 43.3479 173.269 42.8873 173.742 42.5679C174.227 42.2485 174.814 42.0888 175.515 42.0888C175.875 42.0888 176.205 42.1372 176.483 42.2351C176.772 42.333 177.029 42.4598 177.235 42.6143C177.452 42.7689 177.637 42.9358 177.781 43.1161C177.926 43.2964 178.049 43.4695 178.142 43.6344L178.152 42.2434H179.585V52.7221H178.142ZM175.896 49.2756C176.39 49.2756 176.813 49.1365 177.143 48.8583C177.483 48.5801 177.73 48.206 177.905 47.7372C178.07 47.2684 178.152 46.7481 178.152 46.1763C178.152 45.2902 177.967 44.574 177.586 44.0279C177.204 43.4767 176.648 43.2016 175.896 43.2016C175.247 43.2016 174.711 43.4458 174.289 43.9352C173.866 44.4246 173.66 45.1717 173.66 46.1763C173.66 47.1396 173.845 47.8969 174.227 48.4482C174.618 48.9994 175.175 49.2756 175.896 49.2756ZM184.881 50.3883C184.468 50.3832 184.067 50.3245 183.696 50.2101C183.335 50.0916 183.005 49.9195 182.727 49.6929C182.439 49.4662 182.222 49.1849 182.057 48.85C181.893 48.51 181.81 48.1164 181.81 47.6682V42.2434H183.242V47.5209C183.242 48.0412 183.407 48.4636 183.727 48.7882C184.046 49.1128 184.53 49.2756 185.179 49.2756C185.767 49.2756 186.241 49.1231 186.601 48.8191C186.962 48.51 187.137 48.0515 187.137 47.4436V42.2434H188.559V50.2338H187.426L187.281 48.7037C187.178 49.1056 187.014 49.4301 186.777 49.6774C186.54 49.9247 186.261 50.1071 185.932 50.2256C185.612 50.3399 185.262 50.3935 184.881 50.3883ZM191.042 50.2338V42.2434H192.423V50.2338H191.042ZM191.001 40.5505V39.0668H192.464V40.5505H191.001Z" fill="#555555"/>
<path d="M57.5645 166.664C57.5643 164.664 55.9423 163.042 53.9424 163.042H16.8496C14.8498 163.043 13.2287 164.664 13.2285 166.664V187.271C13.2285 189.271 14.8497 190.892 16.8496 190.892H53.9424C55.9424 190.892 57.5645 189.271 57.5645 187.271V166.664ZM58.5645 187.271C58.5645 189.823 56.4947 191.892 53.9424 191.892H16.8496C14.2974 191.892 12.2285 189.823 12.2285 187.271V166.664C12.2287 164.111 14.2975 162.043 16.8496 162.042H53.9424C56.4946 162.042 58.5643 164.111 58.5645 166.664V187.271Z" fill="#EB4699"/>
<path d="M36.0208 176.968C36.0208 176.623 35.7411 176.344 35.3967 176.344C35.0522 176.344 34.7727 176.623 34.7727 176.968C34.7728 177.312 35.0523 177.592 35.3967 177.592C35.7411 177.592 36.0206 177.312 36.0208 176.968ZM37.5208 176.968C37.5206 178.141 36.5695 179.092 35.3967 179.092C34.2239 179.092 33.2728 178.141 33.2727 176.968C33.2727 175.795 34.2238 174.844 35.3967 174.844C36.5696 174.844 37.5208 175.795 37.5208 176.968Z" fill="#555555"/>
<path d="M35.3961 171.409C38.5031 171.409 41.0024 173.248 42.9157 176.596C43.0474 176.826 43.0474 177.109 42.9157 177.34C41.0024 180.687 38.5032 182.526 35.3961 182.526C32.2882 182.526 29.7888 180.687 27.8756 177.34C27.744 177.109 27.7439 176.826 27.8756 176.596C29.7888 173.248 32.2882 171.409 35.3961 171.409ZM35.3961 172.909C33.1077 172.909 31.105 174.167 29.401 176.968C31.105 179.769 33.1077 181.026 35.3961 181.026C37.6835 181.026 39.6862 179.769 41.3903 176.968C39.6862 174.167 37.6835 172.909 35.3961 172.909Z" fill="#555555"/>
<path d="M119.386 166.664C119.386 164.664 117.764 163.042 115.764 163.042H78.6711C76.6713 163.043 75.0502 164.664 75.05 166.664V187.271C75.05 189.271 76.6712 190.892 78.6711 190.892H115.764C117.764 190.892 119.386 189.271 119.386 187.271V166.664ZM120.386 187.271C120.386 189.823 118.316 191.892 115.764 191.892H78.6711C76.119 191.892 74.05 189.823 74.05 187.271V166.664C74.0502 164.111 76.1191 162.043 78.6711 162.042H115.764C118.316 162.042 120.386 164.111 120.386 166.664V187.271Z" fill="#EB4699"/>
<path d="M90.8901 181.089V174.907C90.8902 174.322 91.1214 173.76 91.5376 173.345C91.9516 172.932 92.5125 172.701 93.0962 172.701H93.7837C94.2439 172.701 94.6177 173.073 94.6177 173.534C94.6176 173.994 94.2439 174.367 93.7837 174.367H93.0962C92.9532 174.367 92.8162 174.424 92.7153 174.525L92.7144 174.526C92.6137 174.626 92.5562 174.762 92.5562 174.907V181.089C92.5562 181.198 92.5884 181.302 92.647 181.389L92.7144 181.47L92.7153 181.471C92.8162 181.572 92.9532 181.629 93.0962 181.629H99.2788C99.4233 181.629 99.5599 181.572 99.6606 181.471C99.7625 181.369 99.8198 181.232 99.8198 181.089V180.402C99.8199 179.942 100.193 179.569 100.653 179.569C101.113 179.569 101.487 179.942 101.487 180.402V181.089C101.487 181.676 101.253 182.237 100.839 182.65C100.425 183.064 99.8637 183.296 99.2788 183.296H93.0962C92.5121 183.296 91.9507 183.064 91.5366 182.65L91.5376 182.649C91.122 182.234 90.8902 181.674 90.8901 181.089ZM102.567 172.228C102.567 172.066 102.503 171.912 102.388 171.797C102.274 171.684 102.119 171.619 101.958 171.619C101.797 171.619 101.642 171.683 101.526 171.798L101.154 172.168L102.016 173.031L102.389 172.658C102.502 172.545 102.567 172.391 102.567 172.228ZM95.9907 177.313V178.195H96.8716L100.839 174.211L99.9731 173.345L95.9907 177.313ZM104.234 172.228C104.234 172.829 103.995 173.408 103.567 173.835L103.568 173.836L102.708 174.7C102.68 174.738 102.65 174.775 102.616 174.809C102.583 174.841 102.548 174.869 102.512 174.895L97.8081 179.617C97.6518 179.773 97.4397 179.862 97.2183 179.862H95.1577C94.6976 179.862 94.3239 179.489 94.3237 179.029V176.968C94.3237 176.747 94.412 176.534 94.5688 176.377L99.2915 171.67C99.317 171.635 99.3449 171.601 99.3765 171.57C99.4095 171.537 99.4451 171.507 99.4819 171.481L100.349 170.618C100.775 170.193 101.353 169.953 101.958 169.953C102.562 169.953 103.141 170.193 103.567 170.619C103.994 171.046 104.234 171.625 104.234 172.228Z" fill="#555555"/>
</g>
</g>
</svg>
