<svg width="347" height="197" viewBox="0 0 347 197" fill="none" xmlns="http://www.w3.org/2000/svg">
<mask id="mask0_325_2591" style="mask-type:alpha" maskUnits="userSpaceOnUse" x="0" y="0" width="347" height="197">
<rect width="347" height="197" rx="8" fill="#F8F9FA"/>
</mask>
<g mask="url(#mask0_325_2591)">
<rect x="-72.8992" y="-45.146" width="447.115" height="267.592" fill="#F8F9FA"/>
<path d="M45.6327 26.4077V36.5895H44.1462V26.4077H45.6327Z" fill="#555555"/>
<path d="M40.6599 36.5895V28.9531H42.1464V36.5895H40.6599ZM41.4106 27.7749C41.1521 27.7749 40.93 27.6887 40.7444 27.5163C40.5621 27.3407 40.4709 27.1319 40.4709 26.8899C40.4709 26.6446 40.5621 26.4358 40.7444 26.2635C40.93 26.0878 41.1521 26 41.4106 26C41.6691 26 41.8895 26.0878 42.0718 26.2635C42.2574 26.4358 42.3502 26.6446 42.3502 26.8899C42.3502 27.1319 42.2574 27.3407 42.0718 27.5163C41.8895 27.6887 41.6691 27.7749 41.4106 27.7749Z" fill="#555555"/>
<path d="M34.9116 36.7583C34.4277 36.7583 33.9902 36.6689 33.5991 36.4899C33.208 36.3076 32.8981 36.0441 32.6694 35.6994C32.444 35.3547 32.3313 34.9321 32.3313 34.4316C32.3313 34.0008 32.4142 33.6461 32.5799 33.3677C32.7456 33.0893 32.9693 32.8689 33.251 32.7065C33.5328 32.5441 33.8476 32.4215 34.1956 32.3386C34.5437 32.2557 34.8983 32.1928 35.2596 32.1497C35.717 32.0967 36.0882 32.0536 36.3732 32.0204C36.6582 31.984 36.8654 31.926 36.9947 31.8464C37.1239 31.7669 37.1885 31.6376 37.1885 31.4586V31.4238C37.1885 30.9896 37.0659 30.6532 36.8206 30.4146C36.5787 30.176 36.2174 30.0566 35.7368 30.0566C35.2364 30.0566 34.842 30.1677 34.5536 30.3897C34.2686 30.6085 34.0714 30.8521 33.962 31.1206L32.565 30.8024C32.7307 30.3384 32.9726 29.9638 33.2908 29.6788C33.6123 29.3904 33.9819 29.1816 34.3995 29.0524C34.8171 28.9198 35.2563 28.8535 35.717 28.8535C36.0219 28.8535 36.345 28.89 36.6864 28.9629C37.0311 29.0325 37.3526 29.1618 37.6509 29.3507C37.9525 29.5396 38.1994 29.8097 38.3917 30.161C38.5839 30.5091 38.68 30.9615 38.68 31.5183V36.5893H37.2283V35.5453H37.1687C37.0725 35.7375 36.9284 35.9264 36.7361 36.112C36.5439 36.2976 36.297 36.4518 35.9954 36.5744C35.6938 36.697 35.3325 36.7583 34.9116 36.7583ZM35.2347 35.5652C35.6457 35.5652 35.997 35.484 36.2887 35.3216C36.5837 35.1592 36.8074 34.947 36.9599 34.6852C37.1156 34.42 37.1935 34.1367 37.1935 33.8351V32.8507C37.1405 32.9037 37.0377 32.9534 36.8853 32.9998C36.7361 33.0429 36.5654 33.081 36.3732 33.1142C36.181 33.144 35.9937 33.1722 35.8114 33.1987C35.6291 33.2219 35.4767 33.2418 35.354 33.2583C35.0657 33.2948 34.8022 33.3561 34.5635 33.4423C34.3282 33.5285 34.1393 33.6528 33.9968 33.8152C33.8576 33.9743 33.788 34.1864 33.788 34.4515C33.788 34.8194 33.9239 35.0978 34.1956 35.2868C34.4674 35.4724 34.8138 35.5652 35.2347 35.5652Z" fill="#555555"/>
<path d="M20.3162 36.5893V28.9529H21.743V30.1958H21.8375C21.9966 29.7749 22.2567 29.4468 22.618 29.2115C22.9793 28.9728 23.4118 28.8535 23.9156 28.8535C24.426 28.8535 24.8536 28.9728 25.1983 29.2115C25.5463 29.4501 25.8031 29.7782 25.9689 30.1958H26.0484C26.2307 29.7882 26.5207 29.4634 26.9184 29.2214C27.3162 28.9761 27.7901 28.8535 28.3403 28.8535C29.033 28.8535 29.5981 29.0706 30.0356 29.5048C30.4764 29.939 30.6968 30.5936 30.6968 31.4686V36.5893H29.2103V31.6078C29.2103 31.0907 29.0695 30.7162 28.7878 30.4842C28.506 30.2522 28.1696 30.1362 27.7785 30.1362C27.2946 30.1362 26.9184 30.2853 26.65 30.5836C26.3815 30.8786 26.2473 31.2581 26.2473 31.7221V36.5893H24.7657V31.5133C24.7657 31.099 24.6365 30.7659 24.378 30.514C24.1194 30.2621 23.783 30.1362 23.3687 30.1362C23.087 30.1362 22.8268 30.2108 22.5882 30.3599C22.3529 30.5057 22.1623 30.7096 22.0164 30.9714C21.8739 31.2333 21.8027 31.5365 21.8027 31.8812V36.5893H20.3162Z" fill="#555555"/>
<path d="M12 36.5895V26.4077H18.3835V27.7302H13.5362V30.8324H18.0504V32.1499H13.5362V35.2671H18.4432V36.5895H12Z" fill="#555555"/>
<path d="M20 43.2583H326.7C330.842 43.2583 334.2 46.6162 334.2 50.7583V70.2124C334.2 74.3545 330.842 77.7124 326.7 77.7124H20C15.8579 77.7124 12.5 74.3545 12.5 70.2124V50.7583C12.5 46.6162 15.8579 43.2583 20 43.2583Z" fill="white"/>
<path d="M20 43.2583H326.7C330.842 43.2583 334.2 46.6162 334.2 50.7583V70.2124C334.2 74.3545 330.842 77.7124 326.7 77.7124H20C15.8579 77.7124 12.5 74.3545 12.5 70.2124V50.7583C12.5 46.6162 15.8579 43.2583 20 43.2583Z" stroke="#DADADA"/>
<path d="M193.8 53.3037V64.9401H192.459V53.3037H193.8Z" fill="#555555"/>
<path d="M186.011 65.1446C185.458 65.1446 184.956 65.0404 184.506 64.8321C184.055 64.62 183.697 64.315 183.432 63.9173C183.167 63.5158 183.034 63.0309 183.034 62.4628C183.034 61.9628 183.132 61.5575 183.329 61.2468C183.526 60.9325 183.79 60.6862 184.119 60.5082C184.449 60.3302 184.812 60.1976 185.21 60.1105C185.612 60.0196 186.015 59.9476 186.42 59.8946C186.951 59.8264 187.381 59.7753 187.71 59.7412C188.043 59.7033 188.286 59.6408 188.437 59.5537C188.593 59.4665 188.67 59.315 188.67 59.0991V59.0537C188.67 58.4931 188.517 58.0575 188.21 57.7468C187.907 57.4362 187.447 57.2809 186.829 57.2809C186.189 57.2809 185.687 57.4211 185.324 57.7014C184.96 57.9817 184.704 58.2809 184.557 58.5991L183.284 58.1446C183.511 57.6143 183.814 57.2014 184.193 56.9059C184.576 56.6067 184.992 56.3984 185.443 56.2809C185.898 56.1597 186.345 56.0991 186.784 56.0991C187.064 56.0991 187.386 56.1332 187.75 56.2014C188.117 56.2658 188.471 56.4003 188.812 56.6048C189.157 56.8093 189.443 57.1181 189.67 57.5309C189.898 57.9438 190.011 58.4968 190.011 59.19V64.94H188.67V63.7582H188.602C188.511 63.9476 188.36 64.1503 188.148 64.3662C187.935 64.5821 187.653 64.7658 187.301 64.9173C186.949 65.0688 186.519 65.1446 186.011 65.1446ZM186.216 63.94C186.746 63.94 187.193 63.8359 187.557 63.6275C187.924 63.4192 188.201 63.1503 188.386 62.8207C188.576 62.4912 188.67 62.1446 188.67 61.7809V60.5537C188.613 60.6218 188.488 60.6843 188.295 60.7412C188.106 60.7942 187.886 60.8415 187.636 60.8832C187.39 60.9211 187.149 60.9552 186.915 60.9855C186.684 61.012 186.496 61.0347 186.352 61.0537C186.004 61.0991 185.678 61.173 185.375 61.2753C185.076 61.3737 184.833 61.5234 184.648 61.7241C184.466 61.9211 184.375 62.19 184.375 62.5309C184.375 62.9968 184.547 63.3491 184.892 63.5878C185.24 63.8226 185.682 63.94 186.216 63.94Z" fill="#555555"/>
<path d="M181.426 56.2125V57.3489H176.903V56.2125H181.426ZM178.221 54.1216H179.562V62.4398C179.562 62.8186 179.617 63.1026 179.727 63.292C179.841 63.4776 179.985 63.6026 180.159 63.667C180.337 63.7276 180.525 63.7579 180.721 63.7579C180.869 63.7579 180.99 63.7504 181.085 63.7352C181.18 63.7163 181.256 63.7011 181.312 63.6898L181.585 64.8943C181.494 64.9284 181.367 64.9625 181.204 64.9966C181.042 65.0345 180.835 65.0534 180.585 65.0534C180.206 65.0534 179.835 64.972 179.471 64.8091C179.112 64.6462 178.812 64.3981 178.574 64.0648C178.339 63.7314 178.221 63.311 178.221 62.8034V54.1216Z" fill="#555555"/>
<path d="M173.834 64.9399V56.2127H175.175V64.9399H173.834ZM174.516 54.7581C174.254 54.7581 174.029 54.6691 173.839 54.4911C173.654 54.313 173.561 54.099 173.561 53.849C173.561 53.599 173.654 53.385 173.839 53.207C174.029 53.029 174.254 52.9399 174.516 52.9399C174.777 52.9399 175 53.029 175.186 53.207C175.375 53.385 175.47 53.599 175.47 53.849C175.47 54.099 175.375 54.313 175.186 54.4911C175 54.6691 174.777 54.7581 174.516 54.7581Z" fill="#555555"/>
<path d="M164.084 68.2128V56.2128H165.379V57.5991H165.538C165.637 57.4476 165.773 57.2544 165.947 57.0196C166.125 56.7809 166.379 56.5688 166.709 56.3832C167.042 56.1938 167.493 56.0991 168.061 56.0991C168.796 56.0991 169.444 56.2828 170.004 56.6503C170.565 57.0177 171.002 57.5385 171.317 58.2128C171.631 58.887 171.788 59.6825 171.788 60.5991C171.788 61.5234 171.631 62.3245 171.317 63.0025C171.002 63.6768 170.567 64.1995 170.01 64.5707C169.453 64.9381 168.811 65.1218 168.084 65.1218C167.523 65.1218 167.074 65.029 166.737 64.8434C166.4 64.654 166.141 64.44 165.959 64.2014C165.777 63.959 165.637 63.7582 165.538 63.5991H165.425V68.2128H164.084ZM165.402 60.5764C165.402 61.2355 165.498 61.8169 165.692 62.3207C165.885 62.8207 166.167 63.2128 166.538 63.4968C166.909 63.7772 167.364 63.9173 167.902 63.9173C168.463 63.9173 168.93 63.7696 169.305 63.4741C169.684 63.1749 169.968 62.7734 170.158 62.2696C170.351 61.762 170.447 61.1976 170.447 60.5764C170.447 59.9628 170.353 59.4097 170.163 58.9173C169.978 58.4211 169.695 58.029 169.317 57.7412C168.942 57.4495 168.47 57.3037 167.902 57.3037C167.356 57.3037 166.898 57.4419 166.527 57.7184C166.156 57.9912 165.875 58.3737 165.686 58.8662C165.497 59.3548 165.402 59.9249 165.402 60.5764Z" fill="#555555"/>
<path d="M157.636 65.1446C157.083 65.1446 156.581 65.0404 156.131 64.8321C155.68 64.62 155.322 64.315 155.057 63.9173C154.792 63.5158 154.659 63.0309 154.659 62.4628C154.659 61.9628 154.757 61.5575 154.954 61.2468C155.151 60.9325 155.415 60.6862 155.744 60.5082C156.074 60.3302 156.437 60.1976 156.835 60.1105C157.237 60.0196 157.64 59.9476 158.045 59.8946C158.576 59.8264 159.006 59.7753 159.335 59.7412C159.668 59.7033 159.911 59.6408 160.062 59.5537C160.218 59.4665 160.295 59.315 160.295 59.0991V59.0537C160.295 58.4931 160.142 58.0575 159.835 57.7468C159.532 57.4362 159.072 57.2809 158.454 57.2809C157.814 57.2809 157.312 57.4211 156.949 57.7014C156.585 57.9817 156.329 58.2809 156.182 58.5991L154.909 58.1446C155.136 57.6143 155.439 57.2014 155.818 56.9059C156.201 56.6067 156.617 56.3984 157.068 56.2809C157.523 56.1597 157.97 56.0991 158.409 56.0991C158.689 56.0991 159.011 56.1332 159.375 56.2014C159.742 56.2658 160.096 56.4003 160.437 56.6048C160.782 56.8093 161.068 57.1181 161.295 57.5309C161.523 57.9438 161.636 58.4968 161.636 59.19V64.94H160.295V63.7582H160.227C160.136 63.9476 159.985 64.1503 159.773 64.3662C159.56 64.5821 159.278 64.7658 158.926 64.9173C158.574 65.0688 158.144 65.1446 157.636 65.1446ZM157.841 63.94C158.371 63.94 158.818 63.8359 159.182 63.6275C159.549 63.4192 159.826 63.1503 160.011 62.8207C160.201 62.4912 160.295 62.1446 160.295 61.7809V60.5537C160.238 60.6218 160.113 60.6843 159.92 60.7412C159.731 60.7942 159.511 60.8415 159.261 60.8832C159.015 60.9211 158.774 60.9552 158.54 60.9855C158.309 61.012 158.121 61.0347 157.977 61.0537C157.629 61.0991 157.303 61.173 157 61.2753C156.701 61.3737 156.458 61.5234 156.273 61.7241C156.091 61.9211 156 62.19 156 62.5309C156 62.9968 156.172 63.3491 156.517 63.5878C156.865 63.8226 157.307 63.94 157.841 63.94Z" fill="#555555"/>
<path d="M149.676 65.1218C148.858 65.1218 148.153 64.9287 147.562 64.5423C146.971 64.1559 146.517 63.6237 146.199 62.9457C145.881 62.2677 145.721 61.4931 145.721 60.6218C145.721 59.7355 145.884 58.9533 146.21 58.2753C146.54 57.5934 146.998 57.0612 147.585 56.6787C148.176 56.2923 148.865 56.0991 149.653 56.0991C150.267 56.0991 150.82 56.2128 151.312 56.44C151.805 56.6673 152.208 56.9855 152.523 57.3946C152.837 57.8037 153.032 58.2809 153.108 58.8264H151.767C151.665 58.4287 151.437 58.0764 151.085 57.7696C150.737 57.459 150.267 57.3037 149.676 57.3037C149.153 57.3037 148.695 57.44 148.301 57.7128C147.911 57.9817 147.606 58.3624 147.386 58.8548C147.17 59.3434 147.062 59.9173 147.062 60.5764C147.062 61.2506 147.168 61.8378 147.381 62.3378C147.596 62.8378 147.899 63.226 148.29 63.5025C148.684 63.779 149.146 63.9173 149.676 63.9173C150.024 63.9173 150.341 63.8567 150.625 63.7355C150.909 63.6143 151.149 63.44 151.346 63.2128C151.543 62.9855 151.684 62.7128 151.767 62.3946H153.108C153.032 62.9097 152.845 63.3737 152.545 63.7866C152.25 64.1957 151.858 64.5215 151.369 64.7639C150.884 65.0025 150.32 65.1218 149.676 65.1218Z" fill="#555555"/>
<path d="M142.702 65.0308C142.421 65.0308 142.181 64.9304 141.98 64.7297C141.779 64.5289 141.679 64.2884 141.679 64.0081C141.679 63.7278 141.779 63.4872 141.98 63.2865C142.181 63.0857 142.421 62.9854 142.702 62.9854C142.982 62.9854 143.223 63.0857 143.423 63.2865C143.624 63.4872 143.724 63.7278 143.724 64.0081C143.724 64.1937 143.677 64.3641 143.582 64.5194C143.491 64.6747 143.368 64.7997 143.213 64.8944C143.062 64.9854 142.891 65.0308 142.702 65.0308Z" fill="#555555"/>
<path d="M139.547 58.1673L138.342 58.5082C138.266 58.3075 138.155 58.1124 138.007 57.923C137.863 57.7298 137.666 57.5707 137.416 57.4457C137.166 57.3207 136.846 57.2582 136.456 57.2582C135.922 57.2582 135.477 57.3813 135.121 57.6275C134.768 57.87 134.592 58.1787 134.592 58.5537C134.592 58.887 134.713 59.1503 134.956 59.3434C135.198 59.5366 135.577 59.6976 136.092 59.8264L137.388 60.1446C138.168 60.334 138.749 60.6237 139.132 61.0139C139.514 61.4003 139.706 61.8984 139.706 62.5082C139.706 63.0082 139.562 63.4552 139.274 63.8491C138.99 64.2431 138.592 64.5537 138.081 64.7809C137.569 65.0082 136.975 65.1218 136.297 65.1218C135.407 65.1218 134.67 64.9287 134.086 64.5423C133.503 64.1559 133.134 63.5915 132.979 62.8491L134.251 62.5309C134.372 63.0006 134.602 63.3529 134.939 63.5878C135.28 63.8226 135.725 63.94 136.274 63.94C136.899 63.94 137.395 63.8075 137.763 63.5423C138.134 63.2734 138.319 62.9514 138.319 62.5764C138.319 62.2734 138.213 62.0196 138.001 61.815C137.789 61.6067 137.463 61.4514 137.024 61.3491L135.569 61.0082C134.77 60.8188 134.183 60.5253 133.808 60.1275C133.437 59.726 133.251 59.2241 133.251 58.6218C133.251 58.1294 133.39 57.6938 133.666 57.315C133.946 56.9362 134.327 56.6389 134.808 56.423C135.293 56.2071 135.842 56.0991 136.456 56.0991C137.319 56.0991 137.997 56.2885 138.49 56.6673C138.986 57.0461 139.338 57.5461 139.547 58.1673Z" fill="#555555"/>
<path d="M127.363 65.1218C126.576 65.1218 125.884 64.9343 125.29 64.5593C124.699 64.1843 124.237 63.6597 123.903 62.9855C123.574 62.3112 123.409 61.5234 123.409 60.6218C123.409 59.7128 123.574 58.9192 123.903 58.2412C124.237 57.5631 124.699 57.0366 125.29 56.6616C125.884 56.2866 126.576 56.0991 127.363 56.0991C128.151 56.0991 128.841 56.2866 129.432 56.6616C130.026 57.0366 130.488 57.5631 130.818 58.2412C131.151 58.9192 131.318 59.7128 131.318 60.6218C131.318 61.5234 131.151 62.3112 130.818 62.9855C130.488 63.6597 130.026 64.1843 129.432 64.5593C128.841 64.9343 128.151 65.1218 127.363 65.1218ZM127.363 63.9173C127.962 63.9173 128.454 63.7639 128.841 63.4571C129.227 63.1503 129.513 62.7468 129.699 62.2468C129.884 61.7468 129.977 61.2052 129.977 60.6218C129.977 60.0385 129.884 59.495 129.699 58.9912C129.513 58.4874 129.227 58.0802 128.841 57.7696C128.454 57.459 127.962 57.3037 127.363 57.3037C126.765 57.3037 126.273 57.459 125.886 57.7696C125.5 58.0802 125.214 58.4874 125.028 58.9912C124.843 59.495 124.75 60.0385 124.75 60.6218C124.75 61.2052 124.843 61.7468 125.028 62.2468C125.214 62.7468 125.5 63.1503 125.886 63.4571C126.273 63.7639 126.765 63.9173 127.363 63.9173Z" fill="#555555"/>
<path d="M122.361 56.2129L119.133 64.9402H117.77L114.542 56.2129H115.997L118.406 63.1674H118.497L120.906 56.2129H122.361Z" fill="#555555"/>
<path d="M111.428 64.9399V56.2127H112.768V64.9399H111.428ZM112.109 54.7581C111.848 54.7581 111.623 54.6691 111.433 54.4911C111.248 54.313 111.155 54.099 111.155 53.849C111.155 53.599 111.248 53.385 111.433 53.207C111.623 53.029 111.848 52.9399 112.109 52.9399C112.371 52.9399 112.594 53.029 112.78 53.207C112.969 53.385 113.064 53.599 113.064 53.849C113.064 54.099 112.969 54.313 112.78 54.4911C112.594 54.6691 112.371 54.7581 112.109 54.7581Z" fill="#555555"/>
<path d="M109.41 56.2125V57.3489H104.888V56.2125H109.41ZM106.206 54.1216H107.547V62.4398C107.547 62.8186 107.602 63.1026 107.712 63.292C107.825 63.4776 107.969 63.6026 108.143 63.667C108.321 63.7276 108.509 63.7579 108.706 63.7579C108.854 63.7579 108.975 63.7504 109.07 63.7352C109.164 63.7163 109.24 63.7011 109.297 63.6898L109.57 64.8943C109.479 64.9284 109.352 64.9625 109.189 64.9966C109.026 65.0345 108.82 65.0534 108.57 65.0534C108.191 65.0534 107.82 64.972 107.456 64.8091C107.096 64.6462 106.797 64.3981 106.558 64.0648C106.323 63.7314 106.206 63.311 106.206 62.8034V54.1216Z" fill="#555555"/>
<path d="M99.1675 65.1446C98.6144 65.1446 98.1125 65.0404 97.6618 64.8321C97.211 64.62 96.8531 64.315 96.5879 63.9173C96.3228 63.5158 96.1902 63.0309 96.1902 62.4628C96.1902 61.9628 96.2887 61.5575 96.4856 61.2468C96.6826 60.9325 96.9459 60.6862 97.2754 60.5082C97.605 60.3302 97.9686 60.1976 98.3663 60.1105C98.7678 60.0196 99.1712 59.9476 99.5765 59.8946C100.107 59.8264 100.537 59.7753 100.866 59.7412C101.2 59.7033 101.442 59.6408 101.594 59.5537C101.749 59.4665 101.827 59.315 101.827 59.0991V59.0537C101.827 58.4931 101.673 58.0575 101.366 57.7468C101.063 57.4362 100.603 57.2809 99.9856 57.2809C99.3455 57.2809 98.8436 57.4211 98.48 57.7014C98.1163 57.9817 97.8606 58.2809 97.7129 58.5991L96.4402 58.1446C96.6675 57.6143 96.9705 57.2014 97.3493 56.9059C97.7318 56.6067 98.1485 56.3984 98.5993 56.2809C99.0538 56.1597 99.5008 56.0991 99.9402 56.0991C100.22 56.0991 100.542 56.1332 100.906 56.2014C101.274 56.2658 101.628 56.4003 101.969 56.6048C102.313 56.8093 102.599 57.1181 102.827 57.5309C103.054 57.9438 103.167 58.4968 103.167 59.19V64.94H101.827V63.7582H101.758C101.667 63.9476 101.516 64.1503 101.304 64.3662C101.092 64.5821 100.81 64.7658 100.457 64.9173C100.105 65.0688 99.675 65.1446 99.1675 65.1446ZM99.372 63.94C99.9023 63.94 100.349 63.8359 100.713 63.6275C101.08 63.4192 101.357 63.1503 101.542 62.8207C101.732 62.4912 101.827 62.1446 101.827 61.7809V60.5537C101.77 60.6218 101.645 60.6843 101.452 60.7412C101.262 60.7942 101.042 60.8415 100.792 60.8832C100.546 60.9211 100.306 60.9552 100.071 60.9855C99.8398 61.012 99.6523 61.0347 99.5084 61.0537C99.1599 61.0991 98.8341 61.173 98.5311 61.2753C98.2318 61.3737 97.9894 61.5234 97.8038 61.7241C97.622 61.9211 97.5311 62.19 97.5311 62.5309C97.5311 62.9968 97.7034 63.3491 98.0481 63.5878C98.3966 63.8226 98.8379 63.94 99.372 63.94Z" fill="#555555"/>
<path d="M88.3195 68.0081C87.1604 68.0081 86.1358 67.849 85.2456 67.5308C84.3555 67.2164 83.6074 66.7524 83.0013 66.1388C82.3952 65.5251 81.9369 64.7732 81.6263 63.8831C81.3157 62.9929 81.1604 61.974 81.1604 60.8263C81.1604 59.7164 81.3176 58.724 81.632 57.849C81.9502 56.974 82.4104 56.2316 83.0127 55.6217C83.6187 55.0081 84.3536 54.5403 85.2172 54.2183C86.0846 53.8963 87.0657 53.7354 88.1604 53.7354C89.2248 53.7354 90.1566 53.9096 90.9559 54.2581C91.7589 54.6028 92.4293 55.0706 92.9672 55.6615C93.5089 56.2486 93.9142 56.9096 94.1831 57.6444C94.4559 58.3793 94.5922 59.1369 94.5922 59.9172C94.5922 60.4664 94.5657 61.0232 94.5127 61.5876C94.4596 62.152 94.3479 62.671 94.1774 63.1444C94.007 63.6141 93.7437 63.9929 93.3877 64.2808C93.0354 64.5687 92.5581 64.7126 91.9559 64.7126C91.6907 64.7126 91.399 64.671 91.0809 64.5876C90.7627 64.5043 90.4805 64.366 90.2343 64.1729C89.988 63.9797 89.8422 63.7202 89.7968 63.3944H89.7286C89.6377 63.6141 89.4975 63.8225 89.3081 64.0194C89.1225 64.2164 88.8782 64.3736 88.5752 64.491C88.2759 64.6085 87.9104 64.6596 87.4786 64.6444C86.9862 64.6255 86.5524 64.5157 86.1774 64.3149C85.8024 64.1104 85.4881 63.8338 85.2343 63.4854C84.9843 63.1331 84.7949 62.7259 84.6661 62.2638C84.5411 61.7979 84.4786 61.296 84.4786 60.7581C84.4786 60.2467 84.5543 59.7789 84.7059 59.3547C84.8574 58.9304 85.0676 58.5592 85.3365 58.241C85.6093 57.9229 85.9274 57.6691 86.2911 57.4797C86.6585 57.2865 87.0543 57.1672 87.4786 57.1217C87.8574 57.0838 88.2021 57.1009 88.5127 57.1729C88.8233 57.241 89.079 57.3452 89.2797 57.4854C89.4805 57.6217 89.6074 57.7732 89.6604 57.9399H89.7286V57.3035H90.9331V62.4399C90.9331 62.7581 91.0221 63.0384 91.2002 63.2808C91.3782 63.5232 91.6377 63.6444 91.9786 63.6444C92.3649 63.6444 92.6604 63.5119 92.8649 63.2467C93.0733 62.9816 93.2153 62.5725 93.2911 62.0194C93.3706 61.4664 93.4104 60.7581 93.4104 59.8944C93.4104 59.3869 93.3403 58.8869 93.2002 58.3944C93.0638 57.8982 92.8555 57.4342 92.5752 57.0024C92.2987 56.5706 91.9483 56.1899 91.524 55.8604C91.0998 55.5308 90.6017 55.2732 90.0297 55.0876C89.4615 54.8982 88.8157 54.8035 88.0922 54.8035C87.2021 54.8035 86.4047 54.9418 85.7002 55.2183C84.9994 55.491 84.4028 55.8907 83.9104 56.4172C83.4218 56.9399 83.0487 57.5763 82.7911 58.3263C82.5373 59.0725 82.4104 59.921 82.4104 60.8717C82.4104 61.8376 82.5373 62.6956 82.7911 63.4456C83.0487 64.1956 83.4274 64.8282 83.9274 65.3433C84.4312 65.8585 85.0543 66.2486 85.7968 66.5138C86.5392 66.7827 87.3952 66.9172 88.3649 66.9172C88.7816 66.9172 89.1926 66.8774 89.5979 66.7979C90.0032 66.7183 90.3612 66.6312 90.6718 66.5365C90.9824 66.4418 91.2059 66.3717 91.3422 66.3263L91.6604 67.3717C91.4256 67.4702 91.1187 67.5687 90.7399 67.6672C90.3649 67.7657 89.9634 67.8471 89.5354 67.9115C89.1112 67.9759 88.7059 68.0081 88.3195 68.0081ZM87.6604 63.4854C88.168 63.4854 88.579 63.3831 88.8934 63.1785C89.2078 62.974 89.4369 62.6653 89.5809 62.2524C89.7248 61.8395 89.7968 61.3187 89.7968 60.6899C89.7968 60.0535 89.7172 59.5573 89.5581 59.2013C89.399 58.8452 89.1642 58.5952 88.8536 58.4513C88.543 58.3073 88.1604 58.2354 87.7059 58.2354C87.274 58.2354 86.9047 58.349 86.5979 58.5763C86.2949 58.7997 86.0619 59.099 85.899 59.474C85.7399 59.8452 85.6604 60.2505 85.6604 60.6899C85.6604 61.1747 85.7248 61.6312 85.8536 62.0592C85.9824 62.4835 86.1926 62.8282 86.4843 63.0933C86.7759 63.3547 87.168 63.4854 87.6604 63.4854Z" fill="#555555"/>
<path d="M75.1675 65.1446C74.6144 65.1446 74.1125 65.0404 73.6618 64.8321C73.211 64.62 72.8531 64.315 72.5879 63.9173C72.3228 63.5158 72.1902 63.0309 72.1902 62.4628C72.1902 61.9628 72.2887 61.5575 72.4856 61.2468C72.6826 60.9325 72.9459 60.6862 73.2754 60.5082C73.605 60.3302 73.9686 60.1976 74.3663 60.1105C74.7678 60.0196 75.1712 59.9476 75.5765 59.8946C76.1069 59.8264 76.5368 59.7753 76.8663 59.7412C77.1997 59.7033 77.4421 59.6408 77.5936 59.5537C77.7489 59.4665 77.8265 59.315 77.8265 59.0991V59.0537C77.8265 58.4931 77.6731 58.0575 77.3663 57.7468C77.0633 57.4362 76.6031 57.2809 75.9856 57.2809C75.3455 57.2809 74.8436 57.4211 74.48 57.7014C74.1163 57.9817 73.8606 58.2809 73.7129 58.5991L72.4402 58.1446C72.6675 57.6143 72.9705 57.2014 73.3493 56.9059C73.7319 56.6067 74.1485 56.3984 74.5993 56.2809C75.0538 56.1597 75.5008 56.0991 75.9402 56.0991C76.2205 56.0991 76.5425 56.1332 76.9061 56.2014C77.2735 56.2658 77.6277 56.4003 77.9686 56.6048C78.3133 56.8093 78.5993 57.1181 78.8265 57.5309C79.0538 57.9438 79.1675 58.4968 79.1675 59.19V64.94H77.8265V63.7582H77.7584C77.6675 63.9476 77.5159 64.1503 77.3038 64.3662C77.0917 64.5821 76.8095 64.7658 76.4572 64.9173C76.105 65.0688 75.675 65.1446 75.1675 65.1446ZM75.372 63.94C75.9023 63.94 76.3493 63.8359 76.7129 63.6275C77.0803 63.4192 77.3569 63.1503 77.5425 62.8207C77.7319 62.4912 77.8265 62.1446 77.8265 61.7809V60.5537C77.7697 60.6218 77.6447 60.6843 77.4515 60.7412C77.2622 60.7942 77.0425 60.8415 76.7925 60.8832C76.5462 60.9211 76.3057 60.9552 76.0709 60.9855C75.8398 61.012 75.6523 61.0347 75.5084 61.0537C75.1599 61.0991 74.8341 61.173 74.5311 61.2753C74.2319 61.3737 73.9894 61.5234 73.8038 61.7241C73.622 61.9211 73.5311 62.19 73.5311 62.5309C73.5311 62.9968 73.7034 63.3491 74.0481 63.5878C74.3966 63.8226 74.8379 63.94 75.372 63.94Z" fill="#555555"/>
<path d="M69.1704 65.0308C68.8901 65.0308 68.6496 64.9304 68.4488 64.7297C68.2481 64.5289 68.1477 64.2884 68.1477 64.0081C68.1477 63.7278 68.2481 63.4872 68.4488 63.2865C68.6496 63.0857 68.8901 62.9854 69.1704 62.9854C69.4507 62.9854 69.6913 63.0857 69.892 63.2865C70.0928 63.4872 70.1932 63.7278 70.1932 64.0081C70.1932 64.1937 70.1458 64.3641 70.0511 64.5194C69.9602 64.6747 69.8371 64.7997 69.6818 64.8944C69.5303 64.9854 69.3598 65.0308 69.1704 65.0308Z" fill="#555555"/>
<path d="M62.5396 65.1218C61.6987 65.1218 60.9733 64.9362 60.3635 64.565C59.7574 64.19 59.2896 63.6673 58.9601 62.9968C58.6343 62.3226 58.4714 61.5385 58.4714 60.6446C58.4714 59.7506 58.6343 58.9628 58.9601 58.2809C59.2896 57.5953 59.748 57.0612 60.3351 56.6787C60.926 56.2923 61.6154 56.0991 62.4033 56.0991C62.8578 56.0991 63.3067 56.1749 63.7498 56.3264C64.193 56.4779 64.5964 56.7241 64.9601 57.065C65.3237 57.4022 65.6135 57.8491 65.8294 58.4059C66.0453 58.9628 66.1533 59.6484 66.1533 60.4628V61.0309H59.426V59.8718H64.7896C64.7896 59.3794 64.6911 58.94 64.4942 58.5537C64.301 58.1673 64.0245 57.8624 63.6646 57.6389C63.3086 57.4154 62.8881 57.3037 62.4033 57.3037C61.8692 57.3037 61.407 57.4362 61.0169 57.7014C60.6305 57.9628 60.3332 58.3037 60.1248 58.7241C59.9165 59.1446 59.8123 59.5953 59.8123 60.0764V60.8491C59.8123 61.5082 59.926 62.0669 60.1533 62.5253C60.3843 62.9798 60.7044 63.3264 61.1135 63.565C61.5226 63.7999 61.998 63.9173 62.5396 63.9173C62.8919 63.9173 63.2101 63.8681 63.4942 63.7696C63.782 63.6673 64.0302 63.5158 64.2385 63.315C64.4468 63.1105 64.6078 62.8567 64.7214 62.5537L66.0169 62.9173C65.8805 63.3567 65.6514 63.7431 65.3294 64.0764C65.0074 64.4059 64.6097 64.6635 64.1362 64.8491C63.6627 65.0309 63.1305 65.1218 62.5396 65.1218Z" fill="#555555"/>
<path d="M49.1306 68.2128V56.2128H50.4261V57.5991H50.5852C50.6836 57.4476 50.82 57.2544 50.9943 57.0196C51.1723 56.7809 51.4261 56.5688 51.7556 56.3832C52.0889 56.1938 52.5397 56.0991 53.1079 56.0991C53.8427 56.0991 54.4905 56.2828 55.0511 56.6503C55.6117 57.0177 56.0492 57.5385 56.3636 58.2128C56.678 58.887 56.8352 59.6825 56.8352 60.5991C56.8352 61.5234 56.678 62.3245 56.3636 63.0025C56.0492 63.6768 55.6136 64.1995 55.0568 64.5707C54.4999 64.9381 53.8579 65.1218 53.1306 65.1218C52.57 65.1218 52.1211 65.029 51.784 64.8434C51.4469 64.654 51.1874 64.44 51.0056 64.2014C50.8238 63.959 50.6836 63.7582 50.5852 63.5991H50.4715V68.2128H49.1306ZM50.4488 60.5764C50.4488 61.2355 50.5454 61.8169 50.7386 62.3207C50.9318 62.8207 51.2139 63.2128 51.5852 63.4968C51.9564 63.7772 52.4109 63.9173 52.9488 63.9173C53.5094 63.9173 53.9772 63.7696 54.3522 63.4741C54.731 63.1749 55.0151 62.7734 55.2045 62.2696C55.3977 61.762 55.4943 61.1976 55.4943 60.5764C55.4943 59.9628 55.3996 59.4097 55.2102 58.9173C55.0246 58.4211 54.7424 58.029 54.3636 57.7412C53.9886 57.4495 53.517 57.3037 52.9488 57.3037C52.4033 57.3037 51.945 57.4419 51.5738 57.7184C51.2026 57.9912 50.9223 58.3737 50.7329 58.8662C50.5435 59.3548 50.4488 59.9249 50.4488 60.5764Z" fill="#555555"/>
<path d="M45.3338 64.9399V56.2127H46.6747V64.9399H45.3338ZM46.0156 54.7581C45.7542 54.7581 45.5288 54.6691 45.3394 54.4911C45.1538 54.313 45.061 54.099 45.061 53.849C45.061 53.599 45.1538 53.385 45.3394 53.207C45.5288 53.029 45.7542 52.9399 46.0156 52.9399C46.2769 52.9399 46.5004 53.029 46.686 53.207C46.8754 53.385 46.9701 53.599 46.9701 53.849C46.9701 54.099 46.8754 54.313 46.686 54.4911C46.5004 54.6691 46.2769 54.7581 46.0156 54.7581Z" fill="#555555"/>
<path d="M42.8778 53.3037V64.9401H41.5369V53.3037H42.8778Z" fill="#555555"/>
<path d="M35.8834 65.1218C35.0425 65.1218 34.3171 64.9362 33.7072 64.565C33.1012 64.19 32.6334 63.6673 32.3038 62.9968C31.9781 62.3226 31.8152 61.5385 31.8152 60.6446C31.8152 59.7506 31.9781 58.9628 32.3038 58.2809C32.6334 57.5953 33.0917 57.0612 33.6788 56.6787C34.2697 56.2923 34.9591 56.0991 35.747 56.0991C36.2015 56.0991 36.6504 56.1749 37.0936 56.3264C37.5368 56.4779 37.9402 56.7241 38.3038 57.065C38.6675 57.4022 38.9572 57.8491 39.1731 58.4059C39.389 58.9628 39.497 59.6484 39.497 60.4628V61.0309H32.7697V59.8718H38.1334C38.1334 59.3794 38.0349 58.94 37.8379 58.5537C37.6447 58.1673 37.3682 57.8624 37.0084 57.6389C36.6523 57.4154 36.2319 57.3037 35.747 57.3037C35.2129 57.3037 34.7508 57.4362 34.3606 57.7014C33.9743 57.9628 33.6769 58.3037 33.4686 58.7241C33.2603 59.1446 33.1561 59.5953 33.1561 60.0764V60.8491C33.1561 61.5082 33.2697 62.0669 33.497 62.5253C33.7281 62.9798 34.0481 63.3264 34.4572 63.565C34.8663 63.7999 35.3417 63.9173 35.8834 63.9173C36.2356 63.9173 36.5538 63.8681 36.8379 63.7696C37.1258 63.6673 37.3739 63.5158 37.5822 63.315C37.7906 63.1105 37.9515 62.8567 38.0652 62.5537L39.3606 62.9173C39.2243 63.3567 38.9951 63.7431 38.6731 64.0764C38.3512 64.4059 37.9534 64.6635 37.48 64.8491C37.0065 65.0309 36.4743 65.1218 35.8834 65.1218Z" fill="#555555"/>
<path d="M30.7045 56.2128V57.3492H26V56.2128H30.7045ZM27.4091 64.9401V55.0083C27.4091 54.5083 27.5265 54.0916 27.7614 53.7583C27.9962 53.425 28.3011 53.175 28.6761 53.0083C29.0511 52.8416 29.447 52.7583 29.8636 52.7583C30.1932 52.7583 30.4621 52.7848 30.6705 52.8378C30.8788 52.8909 31.0341 52.9401 31.1364 52.9856L30.75 54.1447C30.6818 54.1219 30.5871 54.0935 30.4659 54.0594C30.3485 54.0253 30.1932 54.0083 30 54.0083C29.5568 54.0083 29.2367 54.12 29.0398 54.3435C28.8466 54.567 28.75 54.8947 28.75 55.3265V64.9401H27.4091Z" fill="#555555"/>
<path d="M48.5214 108.703C48.0375 108.703 47.6 108.613 47.2089 108.434C46.8178 108.252 46.5079 107.988 46.2792 107.644C46.0539 107.299 45.9412 106.876 45.9412 106.376C45.9412 105.945 46.024 105.59 46.1897 105.312C46.3555 105.034 46.5792 104.813 46.8609 104.651C47.1426 104.488 47.4575 104.366 47.8055 104.283C48.1535 104.2 48.5082 104.137 48.8694 104.094C49.3268 104.041 49.698 103.998 49.9831 103.965C50.2681 103.928 50.4753 103.87 50.6045 103.791C50.7338 103.711 50.7984 103.582 50.7984 103.403V103.368C50.7984 102.934 50.6758 102.598 50.4305 102.359C50.1886 102.12 49.8273 102.001 49.3467 102.001C48.8462 102.001 48.4518 102.112 48.1635 102.334C47.8784 102.553 47.6812 102.796 47.5718 103.065L46.1748 102.747C46.3405 102.283 46.5825 101.908 46.9007 101.623C47.2222 101.335 47.5917 101.126 48.0093 100.997C48.427 100.864 48.8661 100.798 49.3268 100.798C49.6317 100.798 49.9549 100.834 50.2963 100.907C50.641 100.977 50.9625 101.106 51.2608 101.295C51.5624 101.484 51.8093 101.754 52.0015 102.105C52.1938 102.453 52.2899 102.906 52.2899 103.463V108.534H50.8382V107.49H50.7785C50.6824 107.682 50.5382 107.871 50.346 108.056C50.1538 108.242 49.9068 108.396 49.6052 108.519C49.3036 108.641 48.9423 108.703 48.5214 108.703ZM48.8446 107.509C49.2556 107.509 49.6069 107.428 49.8985 107.266C50.1935 107.103 50.4173 106.891 50.5697 106.63C50.7255 106.364 50.8034 106.081 50.8034 105.779V104.795C50.7503 104.848 50.6476 104.898 50.4951 104.944C50.346 104.987 50.1753 105.025 49.9831 105.059C49.7908 105.088 49.6036 105.117 49.4213 105.143C49.239 105.166 49.0865 105.186 48.9639 105.203C48.6755 105.239 48.412 105.3 48.1734 105.387C47.9381 105.473 47.7492 105.597 47.6066 105.759C47.4674 105.919 47.3978 106.131 47.3978 106.396C47.3978 106.764 47.5337 107.042 47.8055 107.231C48.0773 107.417 48.4236 107.509 48.8446 107.509Z" fill="#555555"/>
<path d="M39.3637 104V108.534H37.8772V98.3521H39.3438V102.14H39.4383C39.6173 101.729 39.8907 101.403 40.2586 101.161C40.6265 100.919 41.1071 100.798 41.7003 100.798C42.224 100.798 42.6814 100.906 43.0725 101.121C43.4669 101.337 43.7718 101.658 43.9873 102.086C44.206 102.51 44.3154 103.04 44.3154 103.677V108.534H42.8289V103.856C42.8289 103.295 42.6847 102.861 42.3964 102.553C42.108 102.241 41.707 102.086 41.1932 102.086C40.8419 102.086 40.5271 102.16 40.2486 102.309C39.9736 102.459 39.7565 102.677 39.5974 102.966C39.4416 103.251 39.3637 103.595 39.3637 104Z" fill="#555555"/>
<path d="M30.9965 104V108.534H29.51V100.897H30.9369V102.14H31.0313C31.207 101.736 31.4821 101.411 31.8566 101.166C32.2344 100.92 32.7101 100.798 33.2834 100.798C33.8038 100.798 34.2595 100.907 34.6506 101.126C35.0417 101.341 35.345 101.663 35.5604 102.09C35.7759 102.518 35.8836 103.047 35.8836 103.676V108.534H34.3971V103.855C34.3971 103.302 34.2529 102.869 33.9646 102.558C33.6762 102.243 33.2801 102.085 32.7763 102.085C32.4316 102.085 32.1251 102.16 31.8566 102.309C31.5914 102.458 31.381 102.677 31.2252 102.965C31.0727 103.251 30.9965 103.595 30.9965 104Z" fill="#555555"/>
<path d="M24.5844 108.688C23.8321 108.688 23.1841 108.527 22.6405 108.206C22.1003 107.881 21.6827 107.425 21.3877 106.838C21.096 106.248 20.9502 105.557 20.9502 104.765C20.9502 103.983 21.096 103.294 21.3877 102.697C21.6827 102.1 22.0937 101.635 22.6207 101.3C23.151 100.965 23.7707 100.798 24.48 100.798C24.9109 100.798 25.3285 100.869 25.7329 101.012C26.1372 101.154 26.5001 101.378 26.8216 101.683C27.1431 101.988 27.3967 102.384 27.5823 102.871C27.7679 103.355 27.8607 103.943 27.8607 104.636V105.163H21.7904V104.049H26.404C26.404 103.658 26.3245 103.312 26.1654 103.01C26.0063 102.705 25.7826 102.465 25.4942 102.289C25.2092 102.114 24.8744 102.026 24.49 102.026C24.0724 102.026 23.7078 102.129 23.3962 102.334C23.088 102.536 22.8493 102.801 22.6803 103.13C22.5146 103.454 22.4317 103.807 22.4317 104.188V105.059C22.4317 105.569 22.5212 106.003 22.7002 106.361C22.8825 106.719 23.136 106.992 23.4608 107.181C23.7857 107.367 24.1652 107.46 24.5993 107.46C24.8811 107.46 25.1379 107.42 25.3699 107.34C25.6019 107.258 25.8025 107.135 25.9715 106.973C26.1405 106.81 26.2698 106.61 26.3593 106.371L27.7662 106.625C27.6536 107.039 27.4514 107.402 27.1597 107.713C26.8714 108.022 26.5084 108.262 26.0709 108.434C25.6367 108.603 25.1412 108.688 24.5844 108.688Z" fill="#555555"/>
<path d="M17.956 101.027C17.9029 100.556 17.6842 100.192 17.2997 99.9331C16.9152 99.6712 16.4313 99.5403 15.848 99.5403C15.4304 99.5403 15.0691 99.6066 14.7642 99.7392C14.4593 99.8684 14.2223 100.047 14.0533 100.276C13.8875 100.501 13.8047 100.758 13.8047 101.047C13.8047 101.289 13.861 101.497 13.9737 101.673C14.0897 101.849 14.2405 101.996 14.4261 102.116C14.6151 102.232 14.8172 102.329 15.0327 102.409C15.2481 102.485 15.4553 102.548 15.6541 102.598L16.6484 102.856C16.9732 102.936 17.3063 103.044 17.6477 103.18C17.9891 103.315 18.3056 103.494 18.5973 103.716C18.889 103.939 19.1243 104.214 19.3033 104.542C19.4856 104.87 19.5767 105.263 19.5767 105.72C19.5767 106.297 19.4276 106.809 19.1293 107.256C18.8343 107.704 18.4051 108.057 17.8416 108.315C17.2815 108.574 16.6037 108.703 15.8082 108.703C15.0459 108.703 14.3864 108.582 13.8295 108.34C13.2727 108.098 12.8369 107.755 12.522 107.311C12.2071 106.863 12.0331 106.333 12 105.72H13.5412C13.571 106.088 13.6903 106.394 13.8991 106.64C14.1113 106.882 14.3814 107.062 14.7095 107.182C15.041 107.298 15.4039 107.356 15.7983 107.356C16.2325 107.356 16.6186 107.288 16.9567 107.152C17.2981 107.013 17.5665 106.82 17.7621 106.575C17.9576 106.327 18.0554 106.037 18.0554 105.705C18.0554 105.403 17.9692 105.157 17.7969 104.964C17.6278 104.772 17.3975 104.613 17.1058 104.487C16.8175 104.361 16.491 104.25 16.1264 104.154L14.9233 103.826C14.108 103.604 13.4616 103.277 12.9844 102.846C12.5104 102.416 12.2734 101.845 12.2734 101.136C12.2734 100.55 12.4325 100.037 12.7507 99.6C13.0689 99.1625 13.4998 98.8227 14.0433 98.5808C14.5869 98.3355 15.2 98.2129 15.8828 98.2129C16.5722 98.2129 17.1804 98.3339 17.7074 98.5758C18.2377 98.8178 18.6553 99.1509 18.9602 99.5751C19.2652 99.996 19.4242 100.48 19.4375 101.027H17.956Z" fill="#555555"/>
<path d="M20 115.203H326.7C330.842 115.203 334.2 118.561 334.2 122.703V141.703C334.2 145.845 330.842 149.203 326.7 149.203H20C15.8579 149.203 12.5 145.845 12.5 141.703V122.703C12.5 118.561 15.8579 115.203 20 115.203Z" fill="white"/>
<path d="M20 115.203H326.7C330.842 115.203 334.2 118.561 334.2 122.703V141.703C334.2 145.845 330.842 149.203 326.7 149.203H20C15.8579 149.203 12.5 145.845 12.5 141.703V122.703C12.5 118.561 15.8579 115.203 20 115.203Z" stroke="#DADADA"/>
<path d="M163.5 134.852C163.042 134.852 162.623 134.74 162.244 134.516C161.866 134.289 161.562 133.986 161.335 133.607C161.112 133.228 161 132.81 161 132.352C161 131.889 161.112 131.471 161.335 131.096C161.562 130.717 161.866 130.416 162.244 130.192C162.623 129.965 163.042 129.852 163.5 129.852C163.962 129.852 164.381 129.965 164.756 130.192C165.134 130.416 165.436 130.717 165.659 131.096C165.886 131.471 166 131.889 166 132.352C166 132.81 165.886 133.228 165.659 133.607C165.436 133.986 165.134 134.289 164.756 134.516C164.381 134.74 163.962 134.852 163.5 134.852Z" fill="#555555"/>
<path d="M154.5 134.555C154.042 134.555 153.623 134.443 153.244 134.219C152.866 133.992 152.562 133.689 152.335 133.31C152.112 132.932 152 132.513 152 132.055C152 131.593 152.112 131.174 152.335 130.799C152.562 130.42 152.866 130.119 153.244 129.896C153.623 129.668 154.042 129.555 154.5 129.555C154.962 129.555 155.381 129.668 155.756 129.896C156.134 130.119 156.436 130.42 156.659 130.799C156.886 131.174 157 131.593 157 132.055C157 132.513 156.886 132.932 156.659 133.31C156.436 133.689 156.134 133.992 155.756 134.219C155.381 134.443 154.962 134.555 154.5 134.555Z" fill="#555555"/>
<path d="M145.5 134.555C145.042 134.555 144.623 134.443 144.244 134.219C143.866 133.992 143.563 133.689 143.335 133.31C143.112 132.932 143 132.513 143 132.055C143 131.593 143.112 131.174 143.335 130.799C143.563 130.42 143.866 130.119 144.244 129.896C144.623 129.668 145.042 129.555 145.5 129.555C145.962 129.555 146.381 129.668 146.756 129.896C147.134 130.119 147.436 130.42 147.659 130.799C147.886 131.174 148 131.593 148 132.055C148 132.513 147.886 132.932 147.659 133.31C147.436 133.689 147.134 133.992 146.756 134.219C146.381 134.443 145.962 134.555 145.5 134.555Z" fill="#555555"/>
<path d="M136.5 134.555C136.042 134.555 135.623 134.443 135.244 134.219C134.866 133.992 134.563 133.689 134.335 133.31C134.112 132.932 134 132.513 134 132.055C134 131.593 134.112 131.174 134.335 130.799C134.563 130.42 134.866 130.119 135.244 129.896C135.623 129.668 136.042 129.555 136.5 129.555C136.962 129.555 137.381 129.668 137.756 129.896C138.134 130.119 138.436 130.42 138.659 130.799C138.886 131.174 139 131.593 139 132.055C139 132.513 138.886 132.932 138.659 133.31C138.436 133.689 138.134 133.992 137.756 134.219C137.381 134.443 136.962 134.555 136.5 134.555Z" fill="#555555"/>
<path d="M127.5 134.555C127.042 134.555 126.623 134.443 126.244 134.219C125.866 133.992 125.563 133.689 125.335 133.31C125.112 132.932 125 132.513 125 132.055C125 131.593 125.112 131.174 125.335 130.799C125.563 130.42 125.866 130.119 126.244 129.896C126.623 129.668 127.042 129.555 127.5 129.555C127.962 129.555 128.381 129.668 128.756 129.896C129.134 130.119 129.436 130.42 129.659 130.799C129.886 131.174 130 131.593 130 132.055C130 132.513 129.886 132.932 129.659 133.31C129.436 133.689 129.134 133.992 128.756 134.219C128.381 134.443 127.962 134.555 127.5 134.555Z" fill="#555555"/>
<path d="M118.5 134.555C118.042 134.555 117.623 134.443 117.244 134.219C116.866 133.992 116.563 133.689 116.335 133.31C116.112 132.932 116 132.513 116 132.055C116 131.593 116.112 131.174 116.335 130.799C116.563 130.42 116.866 130.119 117.244 129.896C117.623 129.668 118.042 129.555 118.5 129.555C118.962 129.555 119.381 129.668 119.756 129.896C120.134 130.119 120.436 130.42 120.659 130.799C120.886 131.174 121 131.593 121 132.055C121 132.513 120.886 132.932 120.659 133.31C120.436 133.689 120.134 133.992 119.756 134.219C119.381 134.443 118.962 134.555 118.5 134.555Z" fill="#555555"/>
<path d="M109.5 134.555C109.042 134.555 108.623 134.443 108.244 134.219C107.866 133.992 107.563 133.689 107.335 133.31C107.112 132.932 107 132.513 107 132.055C107 131.593 107.112 131.174 107.335 130.799C107.563 130.42 107.866 130.119 108.244 129.896C108.623 129.668 109.042 129.555 109.5 129.555C109.962 129.555 110.381 129.668 110.756 129.896C111.134 130.119 111.436 130.42 111.659 130.799C111.886 131.174 112 131.593 112 132.055C112 132.513 111.886 132.932 111.659 133.31C111.436 133.689 111.134 133.992 110.756 134.219C110.381 134.443 109.962 134.555 109.5 134.555Z" fill="#555555"/>
<path d="M100.5 134.555C100.042 134.555 99.6231 134.443 99.2443 134.219C98.8655 133.992 98.5625 133.689 98.3352 133.31C98.1117 132.932 98 132.513 98 132.055C98 131.593 98.1117 131.174 98.3352 130.799C98.5625 130.42 98.8655 130.119 99.2443 129.896C99.6231 129.668 100.042 129.555 100.5 129.555C100.962 129.555 101.381 129.668 101.756 129.896C102.134 130.119 102.436 130.42 102.659 130.799C102.886 131.174 103 131.593 103 132.055C103 132.513 102.886 132.932 102.659 133.31C102.436 133.689 102.134 133.992 101.756 134.219C101.381 134.443 100.962 134.555 100.5 134.555Z" fill="#555555"/>
<path d="M91.5 134.555C91.0417 134.555 90.6231 134.443 90.2443 134.219C89.8655 133.992 89.5625 133.689 89.3352 133.31C89.1117 132.932 89 132.513 89 132.055C89 131.593 89.1117 131.174 89.3352 130.799C89.5625 130.42 89.8655 130.119 90.2443 129.896C90.6231 129.668 91.0417 129.555 91.5 129.555C91.9621 129.555 92.3807 129.668 92.7557 129.896C93.1345 130.119 93.4356 130.42 93.6591 130.799C93.8864 131.174 94 131.593 94 132.055C94 132.513 93.8864 132.932 93.6591 133.31C93.4356 133.689 93.1345 133.992 92.7557 134.219C92.3807 134.443 91.9621 134.555 91.5 134.555Z" fill="#555555"/>
<path d="M82.5 134.555C82.0417 134.555 81.6231 134.443 81.2443 134.219C80.8655 133.992 80.5625 133.689 80.3352 133.31C80.1117 132.932 80 132.513 80 132.055C80 131.593 80.1117 131.174 80.3352 130.799C80.5625 130.42 80.8655 130.119 81.2443 129.896C81.6231 129.668 82.0417 129.555 82.5 129.555C82.9621 129.555 83.3807 129.668 83.7557 129.896C84.1345 130.119 84.4356 130.42 84.6591 130.799C84.8864 131.174 85 131.593 85 132.055C85 132.513 84.8864 132.932 84.6591 133.31C84.4356 133.689 84.1345 133.992 83.7557 134.219C83.3807 134.443 82.9621 134.555 82.5 134.555Z" fill="#555555"/>
<path d="M73.5 134.555C73.0417 134.555 72.6231 134.443 72.2443 134.219C71.8655 133.992 71.5625 133.689 71.3352 133.31C71.1117 132.932 71 132.513 71 132.055C71 131.593 71.1117 131.174 71.3352 130.799C71.5625 130.42 71.8655 130.119 72.2443 129.896C72.6231 129.668 73.0417 129.555 73.5 129.555C73.9621 129.555 74.3807 129.668 74.7557 129.896C75.1345 130.119 75.4356 130.42 75.6591 130.799C75.8864 131.174 76 131.593 76 132.055C76 132.513 75.8864 132.932 75.6591 133.31C75.4356 133.689 75.1345 133.992 74.7557 134.219C74.3807 134.443 73.9621 134.555 73.5 134.555Z" fill="#555555"/>
<path d="M64.5 134.555C64.0417 134.555 63.6231 134.443 63.2443 134.219C62.8655 133.992 62.5625 133.689 62.3352 133.31C62.1117 132.932 62 132.513 62 132.055C62 131.593 62.1117 131.174 62.3352 130.799C62.5625 130.42 62.8655 130.119 63.2443 129.896C63.6231 129.668 64.0417 129.555 64.5 129.555C64.9621 129.555 65.3807 129.668 65.7557 129.896C66.1345 130.119 66.4356 130.42 66.6591 130.799C66.8864 131.174 67 131.593 67 132.055C67 132.513 66.8864 132.932 66.6591 133.31C66.4356 133.689 66.1345 133.992 65.7557 134.219C65.3807 134.443 64.9621 134.555 64.5 134.555Z" fill="#555555"/>
<path d="M55.5 134.555C55.0417 134.555 54.6231 134.443 54.2443 134.219C53.8655 133.992 53.5625 133.689 53.3352 133.31C53.1117 132.932 53 132.513 53 132.055C53 131.593 53.1117 131.174 53.3352 130.799C53.5625 130.42 53.8655 130.119 54.2443 129.896C54.6231 129.668 55.0417 129.555 55.5 129.555C55.9621 129.555 56.3807 129.668 56.7557 129.896C57.1345 130.119 57.4356 130.42 57.6591 130.799C57.8864 131.174 58 131.593 58 132.055C58 132.513 57.8864 132.932 57.6591 133.31C57.4356 133.689 57.1345 133.992 56.7557 134.219C56.3807 134.443 55.9621 134.555 55.5 134.555Z" fill="#555555"/>
<path d="M46.5 134.555C46.0417 134.555 45.6231 134.443 45.2443 134.219C44.8655 133.992 44.5625 133.689 44.3352 133.31C44.1117 132.932 44 132.513 44 132.055C44 131.593 44.1117 131.174 44.3352 130.799C44.5625 130.42 44.8655 130.119 45.2443 129.896C45.6231 129.668 46.0417 129.555 46.5 129.555C46.9621 129.555 47.3807 129.668 47.7557 129.896C48.1345 130.119 48.4356 130.42 48.6591 130.799C48.8864 131.174 49 131.593 49 132.055C49 132.513 48.8864 132.932 48.6591 133.31C48.4356 133.689 48.1345 133.992 47.7557 134.219C47.3807 134.443 46.9621 134.555 46.5 134.555Z" fill="#555555"/>
<path d="M37.5 134.555C37.0417 134.555 36.6231 134.443 36.2443 134.219C35.8655 133.992 35.5625 133.689 35.3352 133.31C35.1117 132.932 35 132.513 35 132.055C35 131.593 35.1117 131.174 35.3352 130.799C35.5625 130.42 35.8655 130.119 36.2443 129.896C36.6231 129.668 37.0417 129.555 37.5 129.555C37.9621 129.555 38.3807 129.668 38.7557 129.896C39.1345 130.119 39.4356 130.42 39.6591 130.799C39.8864 131.174 40 131.593 40 132.055C40 132.513 39.8864 132.932 39.6591 133.31C39.4356 133.689 39.1345 133.992 38.7557 134.219C38.3807 134.443 37.9621 134.555 37.5 134.555Z" fill="#555555"/>
<path d="M28.5 134.555C28.0417 134.555 27.6231 134.443 27.2443 134.219C26.8655 133.992 26.5625 133.689 26.3352 133.31C26.1117 132.932 26 132.513 26 132.055C26 131.593 26.1117 131.174 26.3352 130.799C26.5625 130.42 26.8655 130.119 27.2443 129.896C27.6231 129.668 28.0417 129.555 28.5 129.555C28.9621 129.555 29.3807 129.668 29.7557 129.896C30.1345 130.119 30.4356 130.42 30.6591 130.799C30.8864 131.174 31 131.593 31 132.055C31 132.513 30.8864 132.932 30.6591 133.31C30.4356 133.689 30.1345 133.992 29.7557 134.219C29.3807 134.443 28.9621 134.555 28.5 134.555Z" fill="#555555"/>
<path d="M12 179.703C12 177.493 13.7909 175.703 16 175.703H24C26.2091 175.703 28 177.493 28 179.703V187.703C28 189.912 26.2091 191.703 24 191.703H16C13.7909 191.703 12 189.912 12 187.703V179.703Z" fill="#EB4699"/>
<path d="M24 180.703L18.5 186.203L16 183.703" stroke="white" stroke-width="1.6666" stroke-linecap="round" stroke-linejoin="round"/>
<path d="M169.353 180.793L168.006 181.032C167.949 180.86 167.86 180.696 167.737 180.54C167.618 180.384 167.455 180.256 167.25 180.157C167.044 180.058 166.788 180.008 166.479 180.008C166.058 180.008 165.707 180.102 165.425 180.291C165.144 180.477 165.003 180.717 165.003 181.012C165.003 181.267 165.097 181.473 165.286 181.629C165.475 181.784 165.78 181.912 166.201 182.011L167.414 182.29C168.117 182.452 168.64 182.702 168.985 183.041C169.33 183.379 169.502 183.818 169.502 184.358C169.502 184.815 169.369 185.223 169.104 185.581C168.842 185.936 168.476 186.214 168.006 186.416C167.538 186.618 166.996 186.72 166.38 186.72C165.525 186.72 164.827 186.537 164.287 186.173C163.747 185.805 163.415 185.283 163.292 184.607L164.729 184.388C164.819 184.762 165.003 185.046 165.281 185.238C165.56 185.427 165.922 185.521 166.37 185.521C166.857 185.521 167.247 185.42 167.538 185.218C167.83 185.013 167.976 184.762 167.976 184.467C167.976 184.229 167.886 184.028 167.707 183.866C167.532 183.703 167.261 183.581 166.897 183.498L165.604 183.215C164.892 183.052 164.365 182.794 164.023 182.439C163.685 182.084 163.516 181.635 163.516 181.092C163.516 180.641 163.642 180.246 163.894 179.908C164.146 179.57 164.494 179.307 164.938 179.118C165.382 178.926 165.891 178.83 166.464 178.83C167.29 178.83 167.939 179.009 168.413 179.367C168.887 179.721 169.2 180.197 169.353 180.793Z" fill="#555555"/>
<path d="M157.882 186.734C157.398 186.734 156.961 186.645 156.57 186.466C156.179 186.284 155.869 186.02 155.64 185.675C155.415 185.331 155.302 184.908 155.302 184.408C155.302 183.977 155.385 183.622 155.551 183.344C155.716 183.065 155.94 182.845 156.222 182.683C156.503 182.52 156.818 182.398 157.166 182.315C157.514 182.232 157.869 182.169 158.23 182.126C158.688 182.073 159.059 182.03 159.344 181.996C159.629 181.96 159.836 181.902 159.965 181.822C160.095 181.743 160.159 181.614 160.159 181.435V181.4C160.159 180.966 160.037 180.629 159.791 180.391C159.549 180.152 159.188 180.033 158.708 180.033C158.207 180.033 157.813 180.144 157.524 180.366C157.239 180.585 157.042 180.828 156.933 181.097L155.536 180.778C155.701 180.314 155.943 179.94 156.262 179.655C156.583 179.367 156.953 179.158 157.37 179.028C157.788 178.896 158.227 178.83 158.688 178.83C158.993 178.83 159.316 178.866 159.657 178.939C160.002 179.009 160.323 179.138 160.622 179.327C160.923 179.516 161.17 179.786 161.362 180.137C161.555 180.485 161.651 180.938 161.651 181.494V186.565H160.199V185.521H160.139C160.043 185.714 159.899 185.903 159.707 186.088C159.515 186.274 159.268 186.428 158.966 186.55C158.664 186.673 158.303 186.734 157.882 186.734ZM158.205 185.541C158.616 185.541 158.968 185.46 159.259 185.298C159.554 185.135 159.778 184.923 159.931 184.661C160.086 184.396 160.164 184.113 160.164 183.811V182.827C160.111 182.88 160.008 182.929 159.856 182.976C159.707 183.019 159.536 183.057 159.344 183.09C159.152 183.12 158.964 183.148 158.782 183.175C158.6 183.198 158.447 183.218 158.325 183.234C158.036 183.271 157.773 183.332 157.534 183.418C157.299 183.505 157.11 183.629 156.967 183.791C156.828 183.95 156.759 184.162 156.759 184.428C156.759 184.795 156.895 185.074 157.166 185.263C157.438 185.448 157.784 185.541 158.205 185.541Z" fill="#555555"/>
<path d="M152.174 186.566V178.929H153.66V186.566H152.174ZM152.924 177.751C152.666 177.751 152.444 177.665 152.258 177.492C152.076 177.317 151.985 177.108 151.985 176.866C151.985 176.621 152.076 176.412 152.258 176.24C152.444 176.064 152.666 175.976 152.924 175.976C153.183 175.976 153.403 176.064 153.585 176.24C153.771 176.412 153.864 176.621 153.864 176.866C153.864 177.108 153.771 177.317 153.585 177.492C153.403 177.665 153.183 177.751 152.924 177.751Z" fill="#555555"/>
<path d="M146.269 186.715C145.652 186.715 145.102 186.557 144.618 186.242C144.138 185.924 143.76 185.472 143.485 184.885C143.213 184.295 143.077 183.588 143.077 182.762C143.077 181.937 143.214 181.231 143.49 180.644C143.768 180.058 144.149 179.609 144.633 179.297C145.117 178.986 145.665 178.83 146.279 178.83C146.753 178.83 147.134 178.909 147.422 179.068C147.714 179.224 147.939 179.407 148.098 179.615C148.261 179.824 148.387 180.008 148.476 180.167H148.566V176.384H150.052V186.566H148.6V185.377H148.476C148.387 185.54 148.257 185.725 148.088 185.934C147.923 186.143 147.694 186.325 147.402 186.481C147.111 186.637 146.733 186.715 146.269 186.715ZM146.597 185.447C147.024 185.447 147.386 185.334 147.681 185.109C147.979 184.88 148.204 184.564 148.357 184.159C148.513 183.755 148.59 183.284 148.59 182.747C148.59 182.217 148.514 181.753 148.362 181.355C148.209 180.958 147.986 180.648 147.691 180.426C147.396 180.204 147.031 180.093 146.597 180.093C146.149 180.093 145.776 180.209 145.478 180.441C145.18 180.673 144.955 180.989 144.802 181.39C144.653 181.791 144.578 182.244 144.578 182.747C144.578 183.258 144.655 183.717 144.807 184.125C144.959 184.532 145.185 184.855 145.483 185.094C145.785 185.329 146.156 185.447 146.597 185.447Z" fill="#555555"/>
<path d="M134.193 186.735C133.407 186.731 132.736 186.524 132.179 186.113C131.622 185.702 131.196 185.104 130.901 184.318C130.606 183.533 130.459 182.587 130.459 181.48C130.459 180.376 130.606 179.433 130.901 178.651C131.2 177.869 131.627 177.272 132.184 176.861C132.744 176.45 133.414 176.245 134.193 176.245C134.972 176.245 135.639 176.452 136.196 176.866C136.753 177.277 137.179 177.874 137.474 178.656C137.772 179.435 137.921 180.376 137.921 181.48C137.921 182.59 137.774 183.538 137.479 184.323C137.184 185.106 136.758 185.704 136.201 186.118C135.644 186.529 134.975 186.735 134.193 186.735ZM134.193 185.407C134.882 185.407 135.421 185.071 135.808 184.398C136.2 183.725 136.395 182.752 136.395 181.48C136.395 180.635 136.306 179.92 136.127 179.337C135.951 178.75 135.697 178.306 135.366 178.005C135.038 177.7 134.647 177.547 134.193 177.547C133.507 177.547 132.968 177.885 132.577 178.561C132.186 179.238 131.989 180.21 131.985 181.48C131.985 182.328 132.073 183.046 132.249 183.632C132.428 184.216 132.681 184.658 133.009 184.96C133.338 185.258 133.732 185.407 134.193 185.407Z" fill="#555555"/>
<path d="M125.169 186.705C124.486 186.705 123.877 186.587 123.34 186.352C122.806 186.117 122.383 185.79 122.072 185.372C121.764 184.952 121.598 184.464 121.575 183.911H123.136C123.156 184.212 123.257 184.474 123.439 184.696C123.625 184.915 123.867 185.084 124.165 185.203C124.463 185.323 124.795 185.382 125.159 185.382C125.56 185.382 125.915 185.313 126.223 185.174C126.535 185.034 126.778 184.841 126.954 184.592C127.13 184.34 127.217 184.05 127.217 183.722C127.217 183.381 127.13 183.081 126.954 182.822C126.782 182.56 126.528 182.355 126.193 182.206C125.862 182.056 125.461 181.982 124.99 181.982H124.13V180.729H124.99C125.368 180.729 125.699 180.661 125.985 180.525C126.273 180.389 126.498 180.2 126.661 179.958C126.823 179.713 126.904 179.426 126.904 179.098C126.904 178.783 126.833 178.51 126.69 178.278C126.551 178.043 126.352 177.859 126.094 177.726C125.839 177.594 125.537 177.527 125.189 177.527C124.858 177.527 124.548 177.589 124.259 177.711C123.974 177.831 123.742 178.003 123.563 178.228C123.384 178.45 123.288 178.717 123.275 179.029H121.788C121.805 178.479 121.967 177.995 122.276 177.577C122.587 177.159 122.998 176.833 123.509 176.598C124.019 176.362 124.586 176.245 125.209 176.245C125.862 176.245 126.425 176.372 126.899 176.627C127.377 176.879 127.744 177.216 128.003 177.637C128.265 178.058 128.394 178.518 128.391 179.019C128.394 179.589 128.235 180.073 127.913 180.47C127.595 180.868 127.171 181.135 126.641 181.271V181.35C127.317 181.453 127.841 181.722 128.212 182.156C128.586 182.59 128.772 183.129 128.769 183.772C128.772 184.332 128.616 184.834 128.301 185.278C127.99 185.722 127.564 186.072 127.024 186.327C126.483 186.579 125.865 186.705 125.169 186.705Z" fill="#555555"/>
<path d="M112.566 186.566V178.929H114.003V180.142H114.082C114.222 179.731 114.467 179.408 114.818 179.173C115.173 178.934 115.574 178.815 116.021 178.815C116.114 178.815 116.224 178.818 116.35 178.825C116.479 178.832 116.58 178.84 116.653 178.85V180.272C116.593 180.255 116.487 180.237 116.335 180.217C116.182 180.194 116.03 180.182 115.877 180.182C115.526 180.182 115.213 180.257 114.938 180.406C114.666 180.552 114.45 180.756 114.291 181.017C114.132 181.276 114.053 181.571 114.053 181.902V186.566H112.566Z" fill="#555555"/>
<path d="M107.347 186.72C106.631 186.72 106.007 186.555 105.473 186.227C104.939 185.899 104.525 185.44 104.23 184.85C103.935 184.26 103.788 183.571 103.788 182.782C103.788 181.99 103.935 181.297 104.23 180.704C104.525 180.111 104.939 179.65 105.473 179.322C106.007 178.994 106.631 178.83 107.347 178.83C108.063 178.83 108.688 178.994 109.222 179.322C109.755 179.65 110.169 180.111 110.464 180.704C110.759 181.297 110.907 181.99 110.907 182.782C110.907 183.571 110.759 184.26 110.464 184.85C110.169 185.44 109.755 185.899 109.222 186.227C108.688 186.555 108.063 186.72 107.347 186.72ZM107.352 185.472C107.816 185.472 108.201 185.349 108.506 185.104C108.811 184.858 109.036 184.532 109.182 184.124C109.331 183.717 109.405 183.268 109.405 182.777C109.405 182.29 109.331 181.842 109.182 181.435C109.036 181.024 108.811 180.694 108.506 180.445C108.201 180.197 107.816 180.072 107.352 180.072C106.885 180.072 106.497 180.197 106.189 180.445C105.884 180.694 105.657 181.024 105.508 181.435C105.362 181.842 105.289 182.29 105.289 182.777C105.289 183.268 105.362 183.717 105.508 184.124C105.657 184.532 105.884 184.858 106.189 185.104C106.497 185.349 106.885 185.472 107.352 185.472Z" fill="#555555"/>
<path d="M95.49 189.429V178.929H96.9417V180.167H97.066C97.1522 180.008 97.2764 179.824 97.4389 179.615C97.6013 179.406 97.8266 179.224 98.115 179.068C98.4033 178.909 98.7845 178.83 99.2585 178.83C99.8749 178.83 100.425 178.985 100.909 179.297C101.393 179.608 101.772 180.058 102.048 180.644C102.326 181.231 102.465 181.937 102.465 182.762C102.465 183.587 102.328 184.295 102.052 184.885C101.777 185.472 101.4 185.924 100.919 186.242C100.438 186.557 99.8898 186.715 99.2734 186.715C98.8094 186.715 98.4299 186.637 98.1349 186.481C97.8432 186.325 97.6145 186.143 97.4488 185.934C97.2831 185.725 97.1555 185.54 97.066 185.377H96.9765V189.429H95.49ZM96.9467 182.747C96.9467 183.284 97.0246 183.755 97.1803 184.159C97.3361 184.563 97.5615 184.88 97.8565 185.109C98.1514 185.334 98.5127 185.447 98.9403 185.447C99.3844 185.447 99.7556 185.329 100.054 185.094C100.352 184.855 100.578 184.532 100.73 184.124C100.886 183.717 100.964 183.258 100.964 182.747C100.964 182.243 100.887 181.791 100.735 181.39C100.586 180.989 100.36 180.672 100.059 180.44C99.7606 180.208 99.3877 180.092 98.9403 180.092C98.5094 180.092 98.1448 180.203 97.8465 180.425C97.5515 180.648 97.3278 180.957 97.1754 181.355C97.0229 181.753 96.9467 182.217 96.9467 182.747Z" fill="#555555"/>
<path d="M86.4119 186.566V178.929H87.8487V180.142H87.9282C88.0674 179.731 88.3127 179.408 88.664 179.173C89.0186 178.934 89.4197 178.815 89.8671 178.815C89.9599 178.815 90.0693 178.818 90.1952 178.825C90.3245 178.832 90.4256 178.84 90.4985 178.85V180.272C90.4389 180.255 90.3328 180.237 90.1803 180.217C90.0279 180.194 89.8754 180.182 89.7229 180.182C89.3716 180.182 89.0584 180.257 88.7833 180.406C88.5115 180.552 88.2961 180.756 88.137 181.017C87.9779 181.276 87.8984 181.571 87.8984 181.902V186.566H86.4119Z" fill="#555555"/>
<path d="M80.6635 186.734C80.1796 186.734 79.7421 186.645 79.351 186.466C78.9599 186.284 78.65 186.02 78.4213 185.675C78.1959 185.331 78.0833 184.908 78.0833 184.408C78.0833 183.977 78.1661 183.622 78.3318 183.344C78.4976 183.065 78.7213 182.845 79.003 182.683C79.2847 182.52 79.5996 182.398 79.9476 182.315C80.2956 182.232 80.6503 182.169 81.0115 182.126C81.4689 182.073 81.8401 182.03 82.1252 181.996C82.4102 181.96 82.6173 181.902 82.7466 181.822C82.8759 181.743 82.9405 181.614 82.9405 181.435V181.4C82.9405 180.966 82.8179 180.629 82.5726 180.391C82.3306 180.152 81.9694 180.033 81.4888 180.033C80.9883 180.033 80.5939 180.144 80.3056 180.366C80.0205 180.585 79.8233 180.828 79.7139 181.097L78.3169 180.778C78.4826 180.314 78.7246 179.94 79.0428 179.655C79.3643 179.367 79.7338 179.158 80.1514 179.028C80.569 178.896 81.0082 178.83 81.4689 178.83C81.7738 178.83 82.097 178.866 82.4384 178.939C82.7831 179.009 83.1046 179.138 83.4029 179.327C83.7045 179.516 83.9514 179.786 84.1436 180.137C84.3359 180.485 84.432 180.938 84.432 181.494V186.565H82.9803V185.521H82.9206C82.8245 185.714 82.6803 185.903 82.4881 186.088C82.2958 186.274 82.0489 186.428 81.7473 186.55C81.4457 186.673 81.0844 186.734 80.6635 186.734ZM80.9867 185.541C81.3976 185.541 81.749 185.46 82.0406 185.298C82.3356 185.135 82.5593 184.923 82.7118 184.661C82.8676 184.396 82.9455 184.113 82.9455 183.811V182.827C82.8924 182.88 82.7897 182.929 82.6372 182.976C82.4881 183.019 82.3174 183.057 82.1252 183.09C81.9329 183.12 81.7457 183.148 81.5634 183.175C81.3811 183.198 81.2286 183.218 81.106 183.234C80.8176 183.271 80.5541 183.332 80.3155 183.418C80.0802 183.505 79.8913 183.629 79.7487 183.791C79.6095 183.95 79.5399 184.162 79.5399 184.428C79.5399 184.795 79.6758 185.074 79.9476 185.263C80.2194 185.448 80.5657 185.541 80.9867 185.541Z" fill="#555555"/>
<path d="M73.1365 186.566V178.929H74.5733V180.142H74.6528C74.792 179.731 75.0373 179.408 75.3886 179.173C75.7432 178.934 76.1443 178.815 76.5917 178.815C76.6845 178.815 76.7939 178.818 76.9199 178.825C77.0491 178.832 77.1502 178.84 77.2231 178.85V180.272C77.1635 180.255 77.0574 180.237 76.9049 180.217C76.7525 180.194 76.6 180.182 76.4476 180.182C76.0962 180.182 75.783 180.257 75.5079 180.406C75.2361 180.552 75.0207 180.756 74.8616 181.017C74.7025 181.276 74.623 181.571 74.623 181.902V186.566H73.1365Z" fill="#555555"/>
<path d="M64.4922 186.566V176.384H65.9787V180.167H66.0682C66.1544 180.008 66.2786 179.824 66.4411 179.615C66.6035 179.407 66.8288 179.224 67.1172 179.068C67.4055 178.909 67.7867 178.83 68.2607 178.83C68.8771 178.83 69.4273 178.986 69.9112 179.297C70.3951 179.609 70.7746 180.058 71.0497 180.644C71.3281 181.231 71.4673 181.937 71.4673 182.762C71.4673 183.588 71.3298 184.295 71.0547 184.885C70.7796 185.472 70.4018 185.924 69.9212 186.242C69.4406 186.557 68.892 186.715 68.2756 186.715C67.8116 186.715 67.4321 186.637 67.1371 186.481C66.8454 186.325 66.6167 186.143 66.451 185.934C66.2853 185.725 66.1577 185.54 66.0682 185.377H65.9439V186.566H64.4922ZM65.9489 182.747C65.9489 183.284 66.0268 183.755 66.1825 184.159C66.3383 184.564 66.5637 184.88 66.8587 185.109C67.1536 185.334 67.5149 185.447 67.9425 185.447C68.3866 185.447 68.7578 185.329 69.0561 185.094C69.3544 184.855 69.5798 184.532 69.7322 184.125C69.888 183.717 69.9659 183.258 69.9659 182.747C69.9659 182.244 69.8897 181.791 69.7372 181.39C69.5881 180.989 69.3627 180.673 69.0611 180.441C68.7628 180.209 68.3899 180.093 67.9425 180.093C67.5116 180.093 67.147 180.204 66.8487 180.426C66.5537 180.648 66.33 180.958 66.1776 181.355C66.0251 181.753 65.9489 182.217 65.9489 182.747Z" fill="#555555"/>
<path d="M51.9998 186.565V178.929H53.4266V180.172H53.5211C53.6802 179.751 53.9403 179.423 54.3016 179.188C54.6629 178.949 55.0954 178.83 55.5992 178.83C56.1096 178.83 56.5372 178.949 56.8819 179.188C57.2299 179.426 57.4867 179.754 57.6525 180.172H57.732C57.9143 179.764 58.2043 179.439 58.602 179.197C58.9998 178.952 59.4737 178.83 60.0239 178.83C60.7166 178.83 61.2817 179.047 61.7192 179.481C62.16 179.915 62.3804 180.57 62.3804 181.445V186.565H60.8939V181.584C60.8939 181.067 60.7531 180.692 60.4713 180.46C60.1896 180.228 59.8532 180.112 59.4621 180.112C58.9782 180.112 58.602 180.261 58.3336 180.56C58.0651 180.855 57.9309 181.234 57.9309 181.698V186.565H56.4493V181.489C56.4493 181.075 56.3201 180.742 56.0615 180.49C55.803 180.238 55.4666 180.112 55.0523 180.112C54.7706 180.112 54.5104 180.187 54.2718 180.336C54.0365 180.482 53.8459 180.686 53.7 180.947C53.5575 181.209 53.4863 181.513 53.4863 181.857V186.565H51.9998Z" fill="#555555"/>
<path d="M47.0742 186.72C46.3218 186.72 45.6738 186.559 45.1303 186.237C44.59 185.912 44.1724 185.457 43.8774 184.87C43.5858 184.28 43.4399 183.589 43.4399 182.797C43.4399 182.015 43.5858 181.325 43.8774 180.729C44.1724 180.132 44.5834 179.666 45.1104 179.332C45.6407 178.997 46.2605 178.83 46.9698 178.83C47.4006 178.83 47.8183 178.901 48.2226 179.043C48.627 179.186 48.9899 179.41 49.3114 179.715C49.6329 180.019 49.8864 180.416 50.072 180.903C50.2577 181.387 50.3505 181.975 50.3505 182.668V183.195H44.2801V182.081H48.8938C48.8938 181.69 48.8142 181.344 48.6551 181.042C48.496 180.737 48.2723 180.497 47.984 180.321C47.6989 180.145 47.3642 180.058 46.9797 180.058C46.5621 180.058 46.1975 180.16 45.886 180.366C45.5777 180.568 45.3391 180.833 45.1701 181.161C45.0043 181.486 44.9215 181.839 44.9215 182.22V183.09C44.9215 183.601 45.011 184.035 45.1899 184.393C45.3722 184.751 45.6258 185.024 45.9506 185.213C46.2754 185.399 46.6549 185.492 47.0891 185.492C47.3708 185.492 47.6277 185.452 47.8597 185.372C48.0917 185.289 48.2922 185.167 48.4612 185.004C48.6303 184.842 48.7595 184.641 48.849 184.403L50.256 184.656C50.1433 185.071 49.9411 185.434 49.6495 185.745C49.3611 186.053 48.9982 186.294 48.5607 186.466C48.1265 186.635 47.631 186.72 47.0742 186.72Z" fill="#555555"/>
<path d="M36 186.566V176.384H37.5362V185.243H42.1499V186.566H36Z" fill="#555555"/>
<g clip-path="url(#clip0_325_2591)">
<path d="M330.395 183.438V183.309C330.398 182.709 330.455 182.232 330.564 181.877C330.677 181.523 330.836 181.238 331.041 181.022C331.247 180.804 331.497 180.603 331.792 180.421C331.994 180.295 332.175 180.157 332.334 180.008C332.496 179.856 332.624 179.687 332.717 179.501C332.81 179.312 332.856 179.102 332.856 178.87C332.856 178.608 332.795 178.381 332.672 178.188C332.549 177.996 332.384 177.847 332.175 177.741C331.969 177.635 331.739 177.582 331.484 177.582C331.248 177.582 331.025 177.633 330.813 177.736C330.604 177.835 330.43 177.988 330.291 178.193C330.155 178.396 330.078 178.652 330.062 178.964H328.292C328.309 178.334 328.461 177.807 328.749 177.383C329.041 176.959 329.426 176.641 329.903 176.429C330.383 176.216 330.914 176.11 331.494 176.11C332.127 176.11 332.684 176.221 333.164 176.443C333.648 176.666 334.024 176.982 334.293 177.393C334.564 177.801 334.7 178.285 334.7 178.845C334.7 179.223 334.639 179.561 334.516 179.859C334.397 180.157 334.226 180.422 334.004 180.654C333.782 180.886 333.519 181.094 333.214 181.276C332.945 181.442 332.725 181.614 332.553 181.793C332.384 181.972 332.258 182.182 332.175 182.424C332.095 182.663 332.054 182.958 332.051 183.309V183.438H330.395ZM331.26 186.541C330.962 186.541 330.705 186.435 330.489 186.223C330.274 186.01 330.166 185.752 330.166 185.447C330.166 185.149 330.274 184.893 330.489 184.681C330.705 184.469 330.962 184.363 331.26 184.363C331.555 184.363 331.81 184.469 332.026 184.681C332.244 184.893 332.354 185.149 332.354 185.447C332.354 185.649 332.302 185.833 332.2 185.999C332.1 186.165 331.968 186.297 331.802 186.397C331.64 186.493 331.459 186.541 331.26 186.541Z" fill="#EB4699"/>
<path d="M322.833 186.585C322.349 186.585 321.913 186.499 321.525 186.327C321.141 186.151 320.836 185.893 320.611 185.551C320.389 185.21 320.278 184.789 320.278 184.288C320.278 183.857 320.357 183.501 320.516 183.219C320.675 182.938 320.892 182.712 321.167 182.543C321.443 182.374 321.752 182.247 322.097 182.161C322.445 182.071 322.805 182.006 323.176 181.967C323.623 181.92 323.986 181.879 324.265 181.842C324.543 181.803 324.745 181.743 324.871 181.663C325.001 181.58 325.065 181.453 325.065 181.281V181.251C325.065 180.876 324.954 180.586 324.732 180.381C324.51 180.175 324.19 180.072 323.773 180.072C323.332 180.072 322.982 180.169 322.724 180.361C322.468 180.553 322.296 180.78 322.207 181.042L320.526 180.803C320.659 180.339 320.877 179.951 321.182 179.64C321.487 179.325 321.86 179.09 322.301 178.934C322.742 178.775 323.229 178.695 323.763 178.695C324.131 178.695 324.497 178.738 324.861 178.825C325.226 178.911 325.559 179.053 325.861 179.252C326.162 179.448 326.404 179.714 326.587 180.053C326.772 180.391 326.865 180.813 326.865 181.32V186.431H325.135V185.382H325.075C324.966 185.594 324.812 185.793 324.613 185.979C324.417 186.161 324.17 186.308 323.872 186.421C323.577 186.531 323.231 186.585 322.833 186.585ZM323.3 185.263C323.662 185.263 323.975 185.192 324.24 185.049C324.505 184.903 324.709 184.711 324.851 184.472C324.997 184.234 325.07 183.973 325.07 183.692V182.792C325.014 182.838 324.918 182.881 324.782 182.921C324.649 182.961 324.5 182.996 324.334 183.026C324.169 183.055 324.005 183.082 323.842 183.105C323.68 183.128 323.539 183.148 323.42 183.165C323.151 183.201 322.911 183.261 322.699 183.344C322.487 183.427 322.319 183.543 322.197 183.692C322.074 183.838 322.013 184.027 322.013 184.259C322.013 184.59 322.134 184.84 322.376 185.009C322.618 185.178 322.926 185.263 323.3 185.263Z" fill="#EB4699"/>
<path d="M313.85 181.957V186.431H312.05V176.25H313.81V180.093H313.899C314.078 179.662 314.355 179.322 314.729 179.073C315.107 178.821 315.588 178.696 316.171 178.696C316.702 178.696 317.164 178.807 317.558 179.029C317.953 179.251 318.258 179.576 318.473 180.003C318.692 180.431 318.801 180.953 318.801 181.569V186.431H317.002V181.848C317.002 181.334 316.869 180.934 316.604 180.649C316.342 180.361 315.974 180.217 315.5 180.217C315.182 180.217 314.897 180.286 314.645 180.426C314.396 180.562 314.201 180.759 314.058 181.017C313.919 181.276 313.85 181.589 313.85 181.957Z" fill="#EB4699"/>
<path d="M305.318 181.957V186.431H303.519V178.795H305.239V180.092H305.328C305.504 179.665 305.784 179.325 306.168 179.073C306.556 178.821 307.035 178.695 307.605 178.695C308.132 178.695 308.591 178.808 308.982 179.033C309.377 179.259 309.682 179.585 309.897 180.013C310.116 180.44 310.224 180.959 310.22 181.569V186.431H308.421V181.847C308.421 181.337 308.288 180.937 308.023 180.649C307.761 180.361 307.398 180.217 306.934 180.217C306.619 180.217 306.339 180.286 306.094 180.425C305.852 180.561 305.661 180.759 305.522 181.017C305.386 181.276 305.318 181.589 305.318 181.957Z" fill="#EB4699"/>
<path d="M298.6 186.58C297.835 186.58 297.174 186.421 296.617 186.103C296.063 185.781 295.637 185.327 295.339 184.741C295.041 184.151 294.892 183.456 294.892 182.658C294.892 181.872 295.041 181.183 295.339 180.589C295.641 179.993 296.062 179.529 296.602 179.197C297.142 178.863 297.777 178.695 298.506 178.695C298.977 178.695 299.421 178.772 299.838 178.924C300.259 179.073 300.63 179.305 300.952 179.62C301.277 179.935 301.532 180.336 301.718 180.823C301.903 181.307 301.996 181.884 301.996 182.553V183.105H295.737V181.892H300.271C300.268 181.547 300.193 181.241 300.047 180.972C299.901 180.701 299.697 180.487 299.436 180.331C299.177 180.175 298.876 180.097 298.531 180.097C298.163 180.097 297.84 180.187 297.561 180.366C297.283 180.541 297.066 180.773 296.91 181.062C296.758 181.347 296.68 181.66 296.676 182.001V183.06C296.676 183.504 296.758 183.886 296.92 184.204C297.082 184.519 297.309 184.761 297.601 184.93C297.893 185.095 298.234 185.178 298.625 185.178C298.887 185.178 299.124 185.142 299.336 185.069C299.548 184.993 299.732 184.882 299.888 184.736C300.044 184.59 300.161 184.409 300.241 184.194L301.921 184.383C301.815 184.827 301.613 185.215 301.315 185.546C301.02 185.874 300.642 186.129 300.181 186.312C299.721 186.491 299.194 186.58 298.6 186.58Z" fill="#EB4699"/>
<path d="M293.572 180.813L291.931 180.992C291.885 180.826 291.803 180.671 291.687 180.525C291.575 180.379 291.422 180.261 291.23 180.172C291.038 180.082 290.802 180.038 290.524 180.038C290.149 180.038 289.835 180.119 289.579 180.281C289.327 180.444 289.203 180.654 289.207 180.913C289.203 181.135 289.284 181.315 289.45 181.455C289.619 181.594 289.898 181.708 290.285 181.798L291.588 182.076C292.31 182.232 292.847 182.479 293.199 182.817C293.553 183.155 293.732 183.597 293.736 184.144C293.732 184.625 293.591 185.049 293.313 185.417C293.038 185.781 292.655 186.067 292.165 186.272C291.674 186.478 291.111 186.58 290.474 186.58C289.54 186.58 288.787 186.385 288.217 185.994C287.647 185.599 287.307 185.051 287.198 184.348L288.953 184.179C289.033 184.524 289.202 184.784 289.46 184.96C289.719 185.135 290.055 185.223 290.469 185.223C290.897 185.223 291.24 185.135 291.498 184.96C291.76 184.784 291.891 184.567 291.891 184.308C291.891 184.089 291.807 183.909 291.638 183.766C291.472 183.624 291.213 183.514 290.862 183.438L289.56 183.165C288.827 183.012 288.285 182.755 287.934 182.394C287.582 182.03 287.408 181.569 287.412 181.012C287.408 180.541 287.536 180.134 287.795 179.789C288.056 179.441 288.419 179.173 288.883 178.984C289.351 178.791 289.889 178.695 290.499 178.695C291.394 178.695 292.098 178.886 292.612 179.267C293.129 179.648 293.449 180.164 293.572 180.813Z" fill="#EB4699"/>
<path d="M278.222 186.585C277.738 186.585 277.302 186.499 276.914 186.327C276.53 186.151 276.225 185.893 275.999 185.551C275.777 185.21 275.666 184.789 275.666 184.288C275.666 183.857 275.746 183.501 275.905 183.219C276.064 182.938 276.281 182.712 276.556 182.543C276.831 182.374 277.141 182.247 277.486 182.161C277.834 182.071 278.193 182.006 278.565 181.967C279.012 181.92 279.375 181.879 279.653 181.842C279.932 181.803 280.134 181.743 280.26 181.663C280.389 181.58 280.454 181.453 280.454 181.281V181.251C280.454 180.876 280.343 180.586 280.121 180.381C279.899 180.175 279.579 180.072 279.161 180.072C278.72 180.072 278.371 180.169 278.112 180.361C277.857 180.553 277.685 180.78 277.595 181.042L275.915 180.803C276.047 180.339 276.266 179.951 276.571 179.64C276.876 179.325 277.249 179.09 277.69 178.934C278.131 178.775 278.618 178.695 279.151 178.695C279.519 178.695 279.885 178.738 280.25 178.825C280.615 178.911 280.948 179.053 281.249 179.252C281.551 179.448 281.793 179.714 281.975 180.053C282.161 180.391 282.254 180.813 282.254 181.32V186.431H280.523V185.382H280.464C280.354 185.594 280.2 185.793 280.001 185.979C279.806 186.161 279.559 186.308 279.261 186.421C278.966 186.531 278.619 186.585 278.222 186.585ZM278.689 185.263C279.05 185.263 279.363 185.192 279.629 185.049C279.894 184.903 280.098 184.711 280.24 184.472C280.386 184.234 280.459 183.973 280.459 183.692V182.792C280.403 182.838 280.306 182.881 280.171 182.921C280.038 182.961 279.889 182.996 279.723 183.026C279.557 183.055 279.393 183.082 279.231 183.105C279.068 183.128 278.928 183.148 278.808 183.165C278.54 183.201 278.3 183.261 278.087 183.344C277.875 183.427 277.708 183.543 277.585 183.692C277.463 183.838 277.401 184.027 277.401 184.259C277.401 184.59 277.522 184.84 277.764 185.009C278.006 185.178 278.314 185.263 278.689 185.263Z" fill="#EB4699"/>
<path d="M268.901 183.22V178.795H270.701V186.431H268.956V185.074H268.877C268.704 185.502 268.421 185.851 268.026 186.123C267.635 186.395 267.153 186.531 266.58 186.531C266.079 186.531 265.637 186.42 265.252 186.198C264.871 185.972 264.573 185.646 264.357 185.218C264.142 184.787 264.034 184.267 264.034 183.657V178.795H265.834V183.379C265.834 183.863 265.966 184.247 266.232 184.532C266.497 184.817 266.845 184.96 267.276 184.96C267.541 184.96 267.798 184.895 268.046 184.766C268.295 184.637 268.499 184.444 268.658 184.189C268.82 183.931 268.901 183.607 268.901 183.22Z" fill="#EB4699"/>
<path d="M259.116 186.58C258.35 186.58 257.689 186.421 257.132 186.103C256.579 185.781 256.153 185.327 255.855 184.741C255.556 184.151 255.407 183.456 255.407 182.658C255.407 181.872 255.556 181.183 255.855 180.589C256.156 179.993 256.577 179.529 257.117 179.197C257.658 178.863 258.292 178.695 259.022 178.695C259.492 178.695 259.936 178.772 260.354 178.924C260.775 179.073 261.146 179.305 261.468 179.62C261.792 179.935 262.048 180.336 262.233 180.823C262.419 181.307 262.512 181.884 262.512 182.553V183.105H256.252V181.892H260.786C260.783 181.547 260.709 181.241 260.563 180.972C260.417 180.701 260.213 180.487 259.951 180.331C259.693 180.175 259.391 180.097 259.046 180.097C258.679 180.097 258.355 180.187 258.077 180.366C257.799 180.541 257.581 180.773 257.426 181.062C257.273 181.347 257.195 181.66 257.192 182.001V183.06C257.192 183.504 257.273 183.886 257.436 184.204C257.598 184.519 257.825 184.761 258.117 184.93C258.408 185.095 258.75 185.178 259.141 185.178C259.403 185.178 259.64 185.142 259.852 185.069C260.064 184.993 260.248 184.882 260.404 184.736C260.559 184.59 260.677 184.409 260.757 184.194L262.437 184.383C262.331 184.827 262.129 185.215 261.831 185.546C261.536 185.874 261.158 186.129 260.697 186.312C260.236 186.491 259.709 186.58 259.116 186.58Z" fill="#EB4699"/>
<path d="M250.986 186.58C250.224 186.58 249.569 186.413 249.022 186.078C248.479 185.743 248.06 185.281 247.765 184.691C247.473 184.098 247.327 183.415 247.327 182.643C247.327 181.867 247.476 181.183 247.775 180.589C248.073 179.993 248.494 179.529 249.037 179.197C249.584 178.863 250.231 178.695 250.976 178.695C251.596 178.695 252.145 178.81 252.622 179.038C253.102 179.264 253.485 179.584 253.77 179.998C254.055 180.409 254.218 180.889 254.258 181.44H252.537C252.468 181.072 252.302 180.765 252.04 180.52C251.782 180.271 251.435 180.147 251.001 180.147C250.633 180.147 250.31 180.246 250.032 180.445C249.753 180.641 249.536 180.923 249.38 181.29C249.228 181.658 249.152 182.099 249.152 182.613C249.152 183.133 249.228 183.581 249.38 183.955C249.533 184.326 249.747 184.613 250.022 184.815C250.3 185.014 250.627 185.114 251.001 185.114C251.266 185.114 251.503 185.064 251.712 184.964C251.924 184.862 252.102 184.714 252.244 184.522C252.387 184.33 252.484 184.096 252.537 183.821H254.258C254.214 184.361 254.055 184.84 253.78 185.258C253.505 185.672 253.131 185.997 252.657 186.232C252.183 186.464 251.626 186.58 250.986 186.58Z" fill="#EB4699"/>
<path d="M242.737 186.58C241.972 186.58 241.31 186.421 240.753 186.103C240.2 185.781 239.774 185.327 239.476 184.741C239.177 184.151 239.028 183.456 239.028 182.658C239.028 181.872 239.177 181.183 239.476 180.589C239.777 179.993 240.198 179.529 240.739 179.197C241.279 178.863 241.913 178.695 242.643 178.695C243.113 178.695 243.557 178.772 243.975 178.924C244.396 179.073 244.767 179.305 245.089 179.62C245.413 179.935 245.669 180.336 245.854 180.823C246.04 181.307 246.133 181.884 246.133 182.553V183.105H239.873V181.892H244.408C244.404 181.547 244.33 181.241 244.184 180.972C244.038 180.701 243.834 180.487 243.572 180.331C243.314 180.175 243.012 180.097 242.668 180.097C242.3 180.097 241.976 180.187 241.698 180.366C241.42 180.541 241.203 180.773 241.047 181.062C240.894 181.347 240.816 181.66 240.813 182.001V183.06C240.813 183.504 240.894 183.886 241.057 184.204C241.219 184.519 241.446 184.761 241.738 184.93C242.03 185.095 242.371 185.178 242.762 185.178C243.024 185.178 243.261 185.142 243.473 185.069C243.685 184.993 243.869 184.882 244.025 184.736C244.181 184.59 244.298 184.409 244.378 184.194L246.058 184.383C245.952 184.827 245.75 185.215 245.452 185.546C245.157 185.874 244.779 186.129 244.318 186.312C243.857 186.491 243.33 186.58 242.737 186.58Z" fill="#EB4699"/>
<path d="M235.706 183.22V178.795H237.506V186.431H235.761V185.074H235.681C235.509 185.502 235.225 185.851 234.831 186.123C234.44 186.395 233.958 186.531 233.384 186.531C232.884 186.531 232.441 186.42 232.057 186.198C231.676 185.972 231.377 185.646 231.162 185.218C230.947 184.787 230.839 184.267 230.839 183.657V178.795H232.639V183.379C232.639 183.863 232.771 184.247 233.036 184.532C233.301 184.817 233.649 184.96 234.08 184.96C234.345 184.96 234.602 184.895 234.851 184.766C235.1 184.637 235.303 184.444 235.462 184.189C235.625 183.931 235.706 183.607 235.706 183.22Z" fill="#EB4699"/>
<path d="M227.185 189.295V185.228H227.11C227.017 185.414 226.883 185.611 226.707 185.82C226.532 186.025 226.3 186.201 226.011 186.347C225.723 186.492 225.36 186.565 224.923 186.565C224.323 186.565 223.786 186.411 223.312 186.103C222.838 185.795 222.463 185.347 222.188 184.761C221.913 184.174 221.776 183.461 221.776 182.623C221.776 181.774 221.915 181.058 222.193 180.475C222.475 179.888 222.854 179.446 223.332 179.148C223.809 178.846 224.341 178.695 224.928 178.695C225.375 178.695 225.743 178.772 226.031 178.924C226.32 179.073 226.548 179.254 226.717 179.466C226.886 179.675 227.017 179.872 227.11 180.058H227.22V178.795H228.989V189.295H227.185ZM225.425 185.089C225.806 185.089 226.131 184.986 226.399 184.781C226.668 184.572 226.872 184.282 227.011 183.911C227.15 183.539 227.22 183.107 227.22 182.613C227.22 182.119 227.15 181.69 227.011 181.325C226.875 180.961 226.673 180.677 226.404 180.475C226.139 180.273 225.813 180.172 225.425 180.172C225.024 180.172 224.689 180.276 224.421 180.485C224.152 180.694 223.95 180.982 223.814 181.35C223.678 181.718 223.61 182.139 223.61 182.613C223.61 183.09 223.678 183.516 223.814 183.891C223.953 184.262 224.157 184.555 224.425 184.771C224.697 184.983 225.03 185.089 225.425 185.089Z" fill="#EB4699"/>
<path d="M220.441 180.813L218.8 180.992C218.754 180.826 218.672 180.671 218.556 180.525C218.444 180.379 218.291 180.261 218.099 180.172C217.907 180.082 217.672 180.038 217.393 180.038C217.019 180.038 216.704 180.119 216.449 180.281C216.197 180.444 216.072 180.654 216.076 180.913C216.072 181.135 216.154 181.315 216.319 181.455C216.488 181.594 216.767 181.708 217.154 181.798L218.457 182.076C219.18 182.232 219.717 182.479 220.068 182.817C220.422 183.155 220.601 183.597 220.605 184.144C220.601 184.625 220.461 185.049 220.182 185.417C219.907 185.781 219.524 186.067 219.034 186.272C218.543 186.478 217.98 186.58 217.343 186.58C216.409 186.58 215.656 186.385 215.086 185.994C214.516 185.599 214.177 185.051 214.067 184.348L215.822 184.179C215.902 184.524 216.071 184.784 216.329 184.96C216.588 185.135 216.924 185.223 217.338 185.223C217.766 185.223 218.109 185.135 218.368 184.96C218.629 184.784 218.76 184.567 218.76 184.308C218.76 184.089 218.676 183.909 218.507 183.766C218.341 183.624 218.083 183.514 217.731 183.438L216.429 183.165C215.696 183.012 215.154 182.755 214.803 182.394C214.452 182.03 214.278 181.569 214.281 181.012C214.278 180.541 214.405 180.134 214.664 179.789C214.926 179.441 215.288 179.173 215.753 178.984C216.22 178.791 216.758 178.695 217.368 178.695C218.263 178.695 218.967 178.886 219.481 179.267C219.998 179.648 220.318 180.164 220.441 180.813Z" fill="#EB4699"/>
<path d="M205.981 186.431V176.25H212.603V177.796H207.825V180.56H212.26V182.106H207.825V184.885H212.643V186.431H205.981Z" fill="#EB4699"/>
</g>
</g>
<defs>
<clipPath id="clip0_325_2591">
<rect width="128.72" height="18" fill="white" transform="translate(205.981 173.703)"/>
</clipPath>
</defs>
</svg>
