<svg width="379" height="214" viewBox="0 0 379 214" fill="none" xmlns="http://www.w3.org/2000/svg">
<mask id="mask0_336_7934" style="mask-type:alpha" maskUnits="userSpaceOnUse" x="0" y="0" width="379" height="214">
<rect width="379" height="214" fill="#D9D9D9"/>
</mask>
<g mask="url(#mask0_336_7934)">
<path d="M39 24.5H378.5V263.5H39C34.8579 263.5 31.5 260.142 31.5 256V32C31.5 27.8579 34.8579 24.5 39 24.5Z" fill="white" stroke="#DADADA"/>
<mask id="mask1_336_7934" style="mask-type:alpha" maskUnits="userSpaceOnUse" x="31" y="24" width="348" height="240">
<path d="M31 32C31 27.5817 34.5817 24 39 24H379V264H39C34.5817 264 31 260.418 31 256V32Z" fill="white"/>
</mask>
<g mask="url(#mask1_336_7934)">
<path d="M50.6396 55V44.8182H57.0231V46.1406H52.1758V49.2429H56.69V50.5604H52.1758V53.6776H57.0828V55H50.6396ZM58.9558 55V47.3636H60.3827V48.6065H60.4772C60.6362 48.1856 60.8964 47.8575 61.2577 47.6222C61.619 47.3835 62.0515 47.2642 62.5553 47.2642C63.0657 47.2642 63.4933 47.3835 63.8379 47.6222C64.186 47.8608 64.4428 48.1889 64.6085 48.6065H64.6881C64.8704 48.1989 65.1604 47.8741 65.5581 47.6321C65.9558 47.3868 66.4298 47.2642 66.98 47.2642C67.6727 47.2642 68.2378 47.4813 68.6753 47.9155C69.1161 48.3497 69.3365 49.0043 69.3365 49.8793V55H67.85V50.0185C67.85 49.5014 67.7092 49.1269 67.4274 48.8949C67.1457 48.6629 66.8093 48.5469 66.4182 48.5469C65.9343 48.5469 65.5581 48.696 65.2897 48.9943C65.0212 49.2893 64.887 49.6688 64.887 50.1328V55H63.4054V49.924C63.4054 49.5097 63.2762 49.1766 63.0176 48.9247C62.7591 48.6728 62.4227 48.5469 62.0084 48.5469C61.7267 48.5469 61.4665 48.6214 61.2279 48.7706C60.9925 48.9164 60.802 49.1203 60.6561 49.3821C60.5136 49.6439 60.4424 49.9472 60.4424 50.2919V55H58.9558ZM73.5512 55.169C73.0673 55.169 72.6298 55.0795 72.2387 54.9006C71.8476 54.7183 71.5377 54.4548 71.309 54.1101C71.0836 53.7654 70.9709 53.3428 70.9709 52.8423C70.9709 52.4115 71.0538 52.0568 71.2195 51.7784C71.3852 51.5 71.609 51.2796 71.8907 51.1172C72.1724 50.9548 72.4873 50.8321 72.8353 50.7493C73.1833 50.6664 73.5379 50.6035 73.8992 50.5604C74.3566 50.5073 74.7278 50.4643 75.0128 50.4311C75.2979 50.3946 75.505 50.3366 75.6343 50.2571C75.7636 50.1776 75.8282 50.0483 75.8282 49.8693V49.8345C75.8282 49.4003 75.7056 49.0639 75.4603 48.8253C75.2183 48.5866 74.8571 48.4673 74.3765 48.4673C73.876 48.4673 73.4816 48.5784 73.1932 48.8004C72.9082 49.0192 72.711 49.2628 72.6016 49.5312L71.2046 49.2131C71.3703 48.7491 71.6123 48.3745 71.9305 48.0895C72.252 47.8011 72.6215 47.5923 73.0391 47.4631C73.4567 47.3305 73.8959 47.2642 74.3566 47.2642C74.6615 47.2642 74.9847 47.3007 75.3261 47.3736C75.6707 47.4432 75.9922 47.5724 76.2905 47.7614C76.5922 47.9503 76.8391 48.2204 77.0313 48.5717C77.2235 48.9197 77.3197 49.3722 77.3197 49.929V55H75.868V53.956H75.8083C75.7122 54.1482 75.568 54.3371 75.3758 54.5227C75.1835 54.7083 74.9366 54.8625 74.635 54.9851C74.3334 55.1077 73.9721 55.169 73.5512 55.169ZM73.8743 53.9759C74.2853 53.9759 74.6367 53.8946 74.9283 53.7322C75.2233 53.5698 75.447 53.3577 75.5995 53.0959C75.7553 52.8307 75.8332 52.5473 75.8332 52.2457V51.2614C75.7801 51.3144 75.6774 51.3641 75.5249 51.4105C75.3758 51.4536 75.2051 51.4917 75.0128 51.5249C74.8206 51.5547 74.6333 51.5829 74.4511 51.6094C74.2688 51.6326 74.1163 51.6525 73.9937 51.669C73.7053 51.7055 73.4418 51.7668 73.2032 51.853C72.9679 51.9392 72.7789 52.0634 72.6364 52.2259C72.4972 52.3849 72.4276 52.5971 72.4276 52.8622C72.4276 53.2301 72.5635 53.5085 72.8353 53.6974C73.1071 53.883 73.4534 53.9759 73.8743 53.9759ZM79.2996 55V47.3636H80.7861V55H79.2996ZM80.0503 46.1854C79.7918 46.1854 79.5697 46.0992 79.3841 45.9268C79.2018 45.7512 79.1107 45.5424 79.1107 45.3004C79.1107 45.0552 79.2018 44.8464 79.3841 44.674C79.5697 44.4983 79.7918 44.4105 80.0503 44.4105C80.3088 44.4105 80.5292 44.4983 80.7115 44.674C80.8971 44.8464 80.9899 45.0552 80.9899 45.3004C80.9899 45.5424 80.8971 45.7512 80.7115 45.9268C80.5292 46.0992 80.3088 46.1854 80.0503 46.1854ZM84.2724 44.8182V55H82.7859V44.8182H84.2724Z" fill="#414651"/>
<g filter="url(#filter0_d_336_7934)">
<path d="M49.521 74C49.521 69.5817 53.1027 66 57.521 66H365.151C369.57 66 373.151 69.5817 373.151 74V102C373.151 106.418 369.57 110 365.151 110H57.521C53.1027 110 49.521 106.418 49.521 102V74Z" fill="white"/>
<path d="M57.521 66.5H365.151C369.293 66.5 372.651 69.8579 372.651 74V102C372.651 106.142 369.293 109.5 365.151 109.5H57.521C53.3789 109.5 50.021 106.142 50.021 102V74C50.021 69.8579 53.3789 66.5 57.521 66.5Z" stroke="#D5D7DA"/>
<path d="M68.6346 85.2727V86.4091H63.9301V85.2727H68.6346ZM65.3392 94V84.0682C65.3392 83.5682 65.4566 83.1515 65.6915 82.8182C65.9263 82.4848 66.2312 82.2348 66.6062 82.0682C66.9812 81.9015 67.3771 81.8182 67.7937 81.8182C68.1233 81.8182 68.3922 81.8447 68.6006 81.8977C68.8089 81.9508 68.9642 82 69.0665 82.0455L68.6801 83.2045C68.6119 83.1818 68.5172 83.1534 68.396 83.1193C68.2786 83.0852 68.1233 83.0682 67.9301 83.0682C67.4869 83.0682 67.1668 83.1799 66.9699 83.4034C66.7767 83.6269 66.6801 83.9545 66.6801 84.3864V94H65.3392ZM73.8136 94.1818C72.9727 94.1818 72.2473 93.9962 71.6375 93.625C71.0314 93.25 70.5636 92.7273 70.2341 92.0568C69.9083 91.3826 69.7454 90.5985 69.7454 89.7045C69.7454 88.8106 69.9083 88.0227 70.2341 87.3409C70.5636 86.6553 71.022 86.1212 71.6091 85.7386C72.2 85.3523 72.8894 85.1591 73.6773 85.1591C74.1318 85.1591 74.5807 85.2348 75.0239 85.3864C75.467 85.5379 75.8704 85.7841 76.2341 86.125C76.5977 86.4621 76.8875 86.9091 77.1034 87.4659C77.3193 88.0227 77.4273 88.7083 77.4273 89.5227V90.0909H70.7V88.9318H76.0636C76.0636 88.4394 75.9651 88 75.7682 87.6136C75.575 87.2273 75.2985 86.9223 74.9386 86.6989C74.5826 86.4754 74.1621 86.3636 73.6773 86.3636C73.1432 86.3636 72.681 86.4962 72.2909 86.7614C71.9045 87.0227 71.6072 87.3636 71.3989 87.7841C71.1905 88.2045 71.0864 88.6553 71.0864 89.1364V89.9091C71.0864 90.5682 71.2 91.1269 71.4273 91.5852C71.6583 92.0398 71.9784 92.3864 72.3875 92.625C72.7966 92.8598 73.272 92.9773 73.8136 92.9773C74.1659 92.9773 74.4841 92.928 74.7682 92.8295C75.056 92.7273 75.3042 92.5758 75.5125 92.375C75.7208 92.1705 75.8818 91.9167 75.9954 91.6136L77.2909 91.9773C77.1545 92.4167 76.9254 92.803 76.6034 93.1364C76.2814 93.4659 75.8837 93.7235 75.4102 93.9091C74.9367 94.0909 74.4045 94.1818 73.8136 94.1818ZM80.8079 82.3636V94H79.467V82.3636H80.8079ZM83.2639 94V85.2727H84.6048V94H83.2639ZM83.9457 83.8182C83.6844 83.8182 83.459 83.7292 83.2696 83.5511C83.084 83.3731 82.9912 83.1591 82.9912 82.9091C82.9912 82.6591 83.084 82.4451 83.2696 82.267C83.459 82.089 83.6844 82 83.9457 82C84.2071 82 84.4306 82.089 84.6162 82.267C84.8056 82.4451 84.9003 82.6591 84.9003 82.9091C84.9003 83.1591 84.8056 83.3731 84.6162 83.5511C84.4306 83.7292 84.2071 83.8182 83.9457 83.8182ZM87.0608 97.2727V85.2727H88.3562V86.6591H88.5153C88.6138 86.5076 88.7502 86.3144 88.9244 86.0795C89.1025 85.8409 89.3562 85.6288 89.6858 85.4432C90.0191 85.2538 90.4699 85.1591 91.0381 85.1591C91.7729 85.1591 92.4206 85.3428 92.9812 85.7102C93.5418 86.0777 93.9793 86.5985 94.2937 87.2727C94.6081 87.947 94.7653 88.7424 94.7653 89.6591C94.7653 90.5833 94.6081 91.3845 94.2937 92.0625C93.9793 92.7367 93.5437 93.2595 92.9869 93.6307C92.4301 93.9981 91.7881 94.1818 91.0608 94.1818C90.5002 94.1818 90.0513 94.089 89.7142 93.9034C89.3771 93.714 89.1176 93.5 88.9358 93.2614C88.754 93.0189 88.6138 92.8182 88.5153 92.6591H88.4017V97.2727H87.0608ZM88.379 89.6364C88.379 90.2955 88.4756 90.8769 88.6687 91.3807C88.8619 91.8807 89.1441 92.2727 89.5153 92.5568C89.8865 92.8371 90.3411 92.9773 90.879 92.9773C91.4396 92.9773 91.9074 92.8295 92.2824 92.5341C92.6612 92.2348 92.9453 91.8333 93.1346 91.3295C93.3278 90.822 93.4244 90.2576 93.4244 89.6364C93.4244 89.0227 93.3297 88.4697 93.1403 87.9773C92.9547 87.4811 92.6725 87.089 92.2937 86.8011C91.9187 86.5095 91.4471 86.3636 90.879 86.3636C90.3335 86.3636 89.8752 86.5019 89.504 86.7784C89.1328 87.0511 88.8525 87.4337 88.6631 87.9261C88.4737 88.4148 88.379 88.9848 88.379 89.6364ZM100.47 94.1818C99.629 94.1818 98.9036 93.9962 98.2937 93.625C97.6877 93.25 97.2199 92.7273 96.8903 92.0568C96.5646 91.3826 96.4017 90.5985 96.4017 89.7045C96.4017 88.8106 96.5646 88.0227 96.8903 87.3409C97.2199 86.6553 97.6782 86.1212 98.2653 85.7386C98.8562 85.3523 99.5456 85.1591 100.334 85.1591C100.788 85.1591 101.237 85.2348 101.68 85.3864C102.123 85.5379 102.527 85.7841 102.89 86.125C103.254 86.4621 103.544 86.9091 103.76 87.4659C103.976 88.0227 104.084 88.7083 104.084 89.5227V90.0909H97.3562V88.9318H102.72C102.72 88.4394 102.621 88 102.424 87.6136C102.231 87.2273 101.955 86.9223 101.595 86.6989C101.239 86.4754 100.818 86.3636 100.334 86.3636C99.7994 86.3636 99.3373 86.4962 98.9471 86.7614C98.5608 87.0227 98.2634 87.3636 98.0551 87.7841C97.8468 88.2045 97.7426 88.6553 97.7426 89.1364V89.9091C97.7426 90.5682 97.8562 91.1269 98.0835 91.5852C98.3146 92.0398 98.6346 92.3864 99.0437 92.625C99.4528 92.8598 99.9282 92.9773 100.47 92.9773C100.822 92.9773 101.14 92.928 101.424 92.8295C101.712 92.7273 101.96 92.5758 102.169 92.375C102.377 92.1705 102.538 91.9167 102.652 91.6136L103.947 91.9773C103.811 92.4167 103.582 92.803 103.26 93.1364C102.938 93.4659 102.54 93.7235 102.066 93.9091C101.593 94.0909 101.061 94.1818 100.47 94.1818ZM107.101 94.0909C106.82 94.0909 106.58 93.9905 106.379 93.7898C106.178 93.589 106.078 93.3485 106.078 93.0682C106.078 92.7879 106.178 92.5473 106.379 92.3466C106.58 92.1458 106.82 92.0455 107.101 92.0455C107.381 92.0455 107.621 92.1458 107.822 92.3466C108.023 92.5473 108.123 92.7879 108.123 93.0682C108.123 93.2538 108.076 93.4242 107.981 93.5795C107.89 93.7348 107.767 93.8598 107.612 93.9545C107.46 94.0455 107.29 94.0909 107.101 94.0909ZM113.098 94.2045C112.545 94.2045 112.043 94.1004 111.592 93.892C111.141 93.6799 110.783 93.375 110.518 92.9773C110.253 92.5758 110.12 92.0909 110.12 91.5227C110.12 91.0227 110.219 90.6174 110.416 90.3068C110.613 89.9924 110.876 89.7462 111.206 89.5682C111.535 89.3902 111.899 89.2576 112.297 89.1705C112.698 89.0795 113.102 89.0076 113.507 88.9545C114.037 88.8864 114.467 88.8352 114.797 88.8011C115.13 88.7633 115.372 88.7008 115.524 88.6136C115.679 88.5265 115.757 88.375 115.757 88.1591V88.1136C115.757 87.553 115.603 87.1174 115.297 86.8068C114.994 86.4962 114.533 86.3409 113.916 86.3409C113.276 86.3409 112.774 86.4811 112.41 86.7614C112.047 87.0417 111.791 87.3409 111.643 87.6591L110.37 87.2045C110.598 86.6742 110.901 86.2614 111.28 85.9659C111.662 85.6667 112.079 85.4583 112.53 85.3409C112.984 85.2197 113.431 85.1591 113.87 85.1591C114.151 85.1591 114.473 85.1932 114.836 85.2614C115.204 85.3258 115.558 85.4602 115.899 85.6648C116.244 85.8693 116.53 86.178 116.757 86.5909C116.984 87.0038 117.098 87.5568 117.098 88.25V94H115.757V92.8182H115.689C115.598 93.0076 115.446 93.2102 115.234 93.4261C115.022 93.642 114.74 93.8258 114.387 93.9773C114.035 94.1288 113.605 94.2045 113.098 94.2045ZM113.302 93C113.833 93 114.28 92.8958 114.643 92.6875C115.011 92.4792 115.287 92.2102 115.473 91.8807C115.662 91.5511 115.757 91.2045 115.757 90.8409V89.6136C115.7 89.6818 115.575 89.7443 115.382 89.8011C115.192 89.8542 114.973 89.9015 114.723 89.9432C114.477 89.9811 114.236 90.0152 114.001 90.0455C113.77 90.072 113.583 90.0947 113.439 90.1136C113.09 90.1591 112.764 90.233 112.461 90.3352C112.162 90.4337 111.92 90.5833 111.734 90.7841C111.552 90.9811 111.461 91.25 111.461 91.5909C111.461 92.0568 111.634 92.4091 111.978 92.6477C112.327 92.8826 112.768 93 113.302 93ZM126.25 97.0682C125.091 97.0682 124.066 96.9091 123.176 96.5909C122.286 96.2765 121.538 95.8125 120.932 95.1989C120.325 94.5852 119.867 93.8333 119.557 92.9432C119.246 92.053 119.091 91.0341 119.091 89.8864C119.091 88.7765 119.248 87.7841 119.562 86.9091C119.88 86.0341 120.341 85.2917 120.943 84.6818C121.549 84.0682 122.284 83.6004 123.147 83.2784C124.015 82.9564 124.996 82.7955 126.091 82.7955C127.155 82.7955 128.087 82.9697 128.886 83.3182C129.689 83.6629 130.36 84.1307 130.897 84.7216C131.439 85.3087 131.844 85.9697 132.113 86.7045C132.386 87.4394 132.522 88.197 132.522 88.9773C132.522 89.5265 132.496 90.0833 132.443 90.6477C132.39 91.2121 132.278 91.7311 132.108 92.2045C131.937 92.6742 131.674 93.053 131.318 93.3409C130.966 93.6288 130.488 93.7727 129.886 93.7727C129.621 93.7727 129.329 93.7311 129.011 93.6477C128.693 93.5644 128.411 93.4261 128.164 93.233C127.918 93.0398 127.772 92.7803 127.727 92.4545H127.659C127.568 92.6742 127.428 92.8826 127.238 93.0795C127.053 93.2765 126.808 93.4337 126.505 93.5511C126.206 93.6686 125.841 93.7197 125.409 93.7045C124.916 93.6856 124.483 93.5758 124.108 93.375C123.733 93.1705 123.418 92.8939 123.164 92.5455C122.914 92.1932 122.725 91.786 122.596 91.3239C122.471 90.858 122.409 90.3561 122.409 89.8182C122.409 89.3068 122.485 88.839 122.636 88.4148C122.788 87.9905 122.998 87.6193 123.267 87.3011C123.539 86.983 123.858 86.7292 124.221 86.5398C124.589 86.3466 124.985 86.2273 125.409 86.1818C125.788 86.1439 126.132 86.161 126.443 86.233C126.753 86.3011 127.009 86.4053 127.21 86.5455C127.411 86.6818 127.538 86.8333 127.591 87H127.659V86.3636H128.863V91.5C128.863 91.8182 128.952 92.0985 129.13 92.3409C129.308 92.5833 129.568 92.7045 129.909 92.7045C130.295 92.7045 130.591 92.572 130.795 92.3068C131.003 92.0417 131.146 91.6326 131.221 91.0795C131.301 90.5265 131.341 89.8182 131.341 88.9545C131.341 88.447 131.271 87.947 131.13 87.4545C130.994 86.9583 130.786 86.4943 130.505 86.0625C130.229 85.6307 129.878 85.25 129.454 84.9205C129.03 84.5909 128.532 84.3333 127.96 84.1477C127.392 83.9583 126.746 83.8636 126.022 83.8636C125.132 83.8636 124.335 84.0019 123.63 84.2784C122.93 84.5511 122.333 84.9508 121.841 85.4773C121.352 86 120.979 86.6364 120.721 87.3864C120.468 88.1326 120.341 88.9811 120.341 89.9318C120.341 90.8977 120.468 91.7557 120.721 92.5057C120.979 93.2557 121.358 93.8883 121.858 94.4034C122.361 94.9186 122.985 95.3087 123.727 95.5739C124.469 95.8428 125.325 95.9773 126.295 95.9773C126.712 95.9773 127.123 95.9375 127.528 95.858C127.933 95.7784 128.291 95.6913 128.602 95.5966C128.913 95.5019 129.136 95.4318 129.272 95.3864L129.591 96.4318C129.356 96.5303 129.049 96.6288 128.67 96.7273C128.295 96.8258 127.894 96.9072 127.466 96.9716C127.041 97.036 126.636 97.0682 126.25 97.0682ZM125.591 92.5455C126.098 92.5455 126.509 92.4432 126.824 92.2386C127.138 92.0341 127.367 91.7254 127.511 91.3125C127.655 90.8996 127.727 90.3788 127.727 89.75C127.727 89.1136 127.647 88.6174 127.488 88.2614C127.329 87.9053 127.094 87.6553 126.784 87.5114C126.473 87.3674 126.091 87.2955 125.636 87.2955C125.204 87.2955 124.835 87.4091 124.528 87.6364C124.225 87.8598 123.992 88.1591 123.829 88.5341C123.67 88.9053 123.591 89.3106 123.591 89.75C123.591 90.2348 123.655 90.6913 123.784 91.1193C123.913 91.5436 124.123 91.8883 124.414 92.1534C124.706 92.4148 125.098 92.5455 125.591 92.5455ZM137.098 94.2045C136.545 94.2045 136.043 94.1004 135.592 93.892C135.141 93.6799 134.783 93.375 134.518 92.9773C134.253 92.5758 134.12 92.0909 134.12 91.5227C134.12 91.0227 134.219 90.6174 134.416 90.3068C134.613 89.9924 134.876 89.7462 135.206 89.5682C135.535 89.3902 135.899 89.2576 136.297 89.1705C136.698 89.0795 137.102 89.0076 137.507 88.9545C138.037 88.8864 138.467 88.8352 138.797 88.8011C139.13 88.7633 139.372 88.7008 139.524 88.6136C139.679 88.5265 139.757 88.375 139.757 88.1591V88.1136C139.757 87.553 139.603 87.1174 139.297 86.8068C138.994 86.4962 138.533 86.3409 137.916 86.3409C137.276 86.3409 136.774 86.4811 136.41 86.7614C136.047 87.0417 135.791 87.3409 135.643 87.6591L134.37 87.2045C134.598 86.6742 134.901 86.2614 135.28 85.9659C135.662 85.6667 136.079 85.4583 136.53 85.3409C136.984 85.2197 137.431 85.1591 137.87 85.1591C138.151 85.1591 138.473 85.1932 138.836 85.2614C139.204 85.3258 139.558 85.4602 139.899 85.6648C140.244 85.8693 140.53 86.178 140.757 86.5909C140.984 87.0038 141.098 87.5568 141.098 88.25V94H139.757V92.8182H139.689C139.598 93.0076 139.446 93.2102 139.234 93.4261C139.022 93.642 138.74 93.8258 138.387 93.9773C138.035 94.1288 137.605 94.2045 137.098 94.2045ZM137.302 93C137.833 93 138.28 92.8958 138.643 92.6875C139.011 92.4792 139.287 92.2102 139.473 91.8807C139.662 91.5511 139.757 91.2045 139.757 90.8409V89.6136C139.7 89.6818 139.575 89.7443 139.382 89.8011C139.192 89.8542 138.973 89.9015 138.723 89.9432C138.477 89.9811 138.236 90.0152 138.001 90.0455C137.77 90.072 137.583 90.0947 137.439 90.1136C137.09 90.1591 136.764 90.233 136.461 90.3352C136.162 90.4337 135.92 90.5833 135.734 90.7841C135.552 90.9811 135.461 91.25 135.461 91.5909C135.461 92.0568 135.634 92.4091 135.978 92.6477C136.327 92.8826 136.768 93 137.302 93ZM147.341 85.2727V86.4091H142.818V85.2727H147.341ZM144.136 83.1818H145.477V91.5C145.477 91.8788 145.532 92.1629 145.642 92.3523C145.755 92.5379 145.899 92.6629 146.074 92.7273C146.252 92.7879 146.439 92.8182 146.636 92.8182C146.784 92.8182 146.905 92.8106 147 92.7955C147.094 92.7765 147.17 92.7614 147.227 92.75L147.5 93.9545C147.409 93.9886 147.282 94.0227 147.119 94.0568C146.956 94.0947 146.75 94.1136 146.5 94.1136C146.121 94.1136 145.75 94.0322 145.386 93.8693C145.026 93.7064 144.727 93.4583 144.488 93.125C144.253 92.7917 144.136 92.3712 144.136 91.8636V83.1818ZM149.358 94V85.2727H150.699V94H149.358ZM150.039 83.8182C149.778 83.8182 149.553 83.7292 149.363 83.5511C149.178 83.3731 149.085 83.1591 149.085 82.9091C149.085 82.6591 149.178 82.4451 149.363 82.267C149.553 82.089 149.778 82 150.039 82C150.301 82 150.524 82.089 150.71 82.267C150.899 82.4451 150.994 82.6591 150.994 82.9091C150.994 83.1591 150.899 83.3731 150.71 83.5511C150.524 83.7292 150.301 83.8182 150.039 83.8182ZM160.291 85.2727L157.064 94H155.7L152.473 85.2727H153.927L156.336 92.2273H156.427L158.836 85.2727H160.291ZM165.294 94.1818C164.506 94.1818 163.815 93.9943 163.22 93.6193C162.629 93.2443 162.167 92.7197 161.834 92.0455C161.504 91.3712 161.339 90.5833 161.339 89.6818C161.339 88.7727 161.504 87.9792 161.834 87.3011C162.167 86.6231 162.629 86.0966 163.22 85.7216C163.815 85.3466 164.506 85.1591 165.294 85.1591C166.082 85.1591 166.771 85.3466 167.362 85.7216C167.957 86.0966 168.419 86.6231 168.748 87.3011C169.082 87.9792 169.248 88.7727 169.248 89.6818C169.248 90.5833 169.082 91.3712 168.748 92.0455C168.419 92.7197 167.957 93.2443 167.362 93.6193C166.771 93.9943 166.082 94.1818 165.294 94.1818ZM165.294 92.9773C165.892 92.9773 166.385 92.8239 166.771 92.517C167.157 92.2102 167.443 91.8068 167.629 91.3068C167.815 90.8068 167.907 90.2652 167.907 89.6818C167.907 89.0985 167.815 88.5549 167.629 88.0511C167.443 87.5473 167.157 87.1402 166.771 86.8295C166.385 86.5189 165.892 86.3636 165.294 86.3636C164.695 86.3636 164.203 86.5189 163.816 86.8295C163.43 87.1402 163.144 87.5473 162.959 88.0511C162.773 88.5549 162.68 89.0985 162.68 89.6818C162.68 90.2652 162.773 90.8068 162.959 91.3068C163.144 91.8068 163.43 92.2102 163.816 92.517C164.203 92.8239 164.695 92.9773 165.294 92.9773ZM177.477 87.2273L176.272 87.5682C176.197 87.3674 176.085 87.1723 175.937 86.983C175.793 86.7898 175.596 86.6307 175.346 86.5057C175.096 86.3807 174.776 86.3182 174.386 86.3182C173.852 86.3182 173.407 86.4413 173.051 86.6875C172.699 86.9299 172.522 87.2386 172.522 87.6136C172.522 87.947 172.644 88.2102 172.886 88.4034C173.128 88.5966 173.507 88.7576 174.022 88.8864L175.318 89.2045C176.098 89.3939 176.68 89.6837 177.062 90.0739C177.445 90.4602 177.636 90.9583 177.636 91.5682C177.636 92.0682 177.492 92.5152 177.204 92.9091C176.92 93.303 176.522 93.6136 176.011 93.8409C175.5 94.0682 174.905 94.1818 174.227 94.1818C173.337 94.1818 172.6 93.9886 172.017 93.6023C171.433 93.2159 171.064 92.6515 170.909 91.9091L172.182 91.5909C172.303 92.0606 172.532 92.4129 172.869 92.6477C173.21 92.8826 173.655 93 174.204 93C174.829 93 175.325 92.8674 175.693 92.6023C176.064 92.3333 176.25 92.0114 176.25 91.6364C176.25 91.3333 176.144 91.0795 175.932 90.875C175.719 90.6667 175.394 90.5114 174.954 90.4091L173.5 90.0682C172.7 89.8788 172.113 89.5852 171.738 89.1875C171.367 88.786 171.182 88.2841 171.182 87.6818C171.182 87.1894 171.32 86.7538 171.596 86.375C171.877 85.9962 172.257 85.6989 172.738 85.483C173.223 85.267 173.772 85.1591 174.386 85.1591C175.25 85.1591 175.928 85.3485 176.42 85.7273C176.916 86.1061 177.269 86.6061 177.477 87.2273ZM180.632 94.0909C180.352 94.0909 180.111 93.9905 179.91 93.7898C179.709 93.589 179.609 93.3485 179.609 93.0682C179.609 92.7879 179.709 92.5473 179.91 92.3466C180.111 92.1458 180.352 92.0455 180.632 92.0455C180.912 92.0455 181.153 92.1458 181.353 92.3466C181.554 92.5473 181.655 92.7879 181.655 93.0682C181.655 93.2538 181.607 93.4242 181.512 93.5795C181.422 93.7348 181.298 93.8598 181.143 93.9545C180.992 94.0455 180.821 94.0909 180.632 94.0909ZM187.606 94.1818C186.788 94.1818 186.084 93.9886 185.493 93.6023C184.902 93.2159 184.447 92.6837 184.129 92.0057C183.811 91.3277 183.652 90.553 183.652 89.6818C183.652 88.7955 183.815 88.0133 184.14 87.3352C184.47 86.6534 184.928 86.1212 185.515 85.7386C186.106 85.3523 186.796 85.1591 187.584 85.1591C188.197 85.1591 188.75 85.2727 189.243 85.5C189.735 85.7273 190.138 86.0455 190.453 86.4545C190.767 86.8636 190.962 87.3409 191.038 87.8864H189.697C189.595 87.4886 189.368 87.1364 189.015 86.8295C188.667 86.5189 188.197 86.3636 187.606 86.3636C187.084 86.3636 186.625 86.5 186.231 86.7727C185.841 87.0417 185.536 87.4223 185.316 87.9148C185.101 88.4034 184.993 88.9773 184.993 89.6364C184.993 90.3106 185.099 90.8977 185.311 91.3977C185.527 91.8977 185.83 92.286 186.22 92.5625C186.614 92.839 187.076 92.9773 187.606 92.9773C187.955 92.9773 188.271 92.9167 188.555 92.7955C188.839 92.6742 189.08 92.5 189.277 92.2727C189.474 92.0455 189.614 91.7727 189.697 91.4545H191.038C190.962 91.9697 190.775 92.4337 190.476 92.8466C190.18 93.2557 189.788 93.5814 189.299 93.8239C188.815 94.0625 188.25 94.1818 187.606 94.1818ZM195.566 94.2045C195.013 94.2045 194.512 94.1004 194.061 93.892C193.61 93.6799 193.252 93.375 192.987 92.9773C192.722 92.5758 192.589 92.0909 192.589 91.5227C192.589 91.0227 192.688 90.6174 192.885 90.3068C193.082 89.9924 193.345 89.7462 193.674 89.5682C194.004 89.3902 194.368 89.2576 194.765 89.1705C195.167 89.0795 195.57 89.0076 195.976 88.9545C196.506 88.8864 196.936 88.8352 197.265 88.8011C197.599 88.7633 197.841 88.7008 197.993 88.6136C198.148 88.5265 198.226 88.375 198.226 88.1591V88.1136C198.226 87.553 198.072 87.1174 197.765 86.8068C197.462 86.4962 197.002 86.3409 196.385 86.3409C195.744 86.3409 195.243 86.4811 194.879 86.7614C194.515 87.0417 194.26 87.3409 194.112 87.6591L192.839 87.2045C193.066 86.6742 193.369 86.2614 193.748 85.9659C194.131 85.6667 194.548 85.4583 194.998 85.3409C195.453 85.2197 195.9 85.1591 196.339 85.1591C196.619 85.1591 196.941 85.1932 197.305 85.2614C197.673 85.3258 198.027 85.4602 198.368 85.6648C198.712 85.8693 198.998 86.178 199.226 86.5909C199.453 87.0038 199.566 87.5568 199.566 88.25V94H198.226V92.8182H198.157C198.066 93.0076 197.915 93.2102 197.703 93.4261C197.491 93.642 197.209 93.8258 196.856 93.9773C196.504 94.1288 196.074 94.2045 195.566 94.2045ZM195.771 93C196.301 93 196.748 92.8958 197.112 92.6875C197.479 92.4792 197.756 92.2102 197.941 91.8807C198.131 91.5511 198.226 91.2045 198.226 90.8409V89.6136C198.169 89.6818 198.044 89.7443 197.851 89.8011C197.661 89.8542 197.441 89.9015 197.191 89.9432C196.945 89.9811 196.705 90.0152 196.47 90.0455C196.239 90.072 196.051 90.0947 195.907 90.1136C195.559 90.1591 195.233 90.233 194.93 90.3352C194.631 90.4337 194.388 90.5833 194.203 90.7841C194.021 90.9811 193.93 91.25 193.93 91.5909C193.93 92.0568 194.102 92.4091 194.447 92.6477C194.796 92.8826 195.237 93 195.771 93ZM202.014 97.2727V85.2727H203.309V86.6591H203.468C203.567 86.5076 203.703 86.3144 203.878 86.0795C204.056 85.8409 204.309 85.6288 204.639 85.4432C204.972 85.2538 205.423 85.1591 205.991 85.1591C206.726 85.1591 207.374 85.3428 207.934 85.7102C208.495 86.0777 208.932 86.5985 209.247 87.2727C209.561 87.947 209.718 88.7424 209.718 89.6591C209.718 90.5833 209.561 91.3845 209.247 92.0625C208.932 92.7367 208.497 93.2595 207.94 93.6307C207.383 93.9981 206.741 94.1818 206.014 94.1818C205.453 94.1818 205.004 94.089 204.667 93.9034C204.33 93.714 204.071 93.5 203.889 93.2614C203.707 93.0189 203.567 92.8182 203.468 92.6591H203.355V97.2727H202.014ZM203.332 89.6364C203.332 90.2955 203.429 90.8769 203.622 91.3807C203.815 91.8807 204.097 92.2727 204.468 92.5568C204.84 92.8371 205.294 92.9773 205.832 92.9773C206.393 92.9773 206.861 92.8295 207.236 92.5341C207.614 92.2348 207.898 91.8333 208.088 91.3295C208.281 90.822 208.378 90.2576 208.378 89.6364C208.378 89.0227 208.283 88.4697 208.093 87.9773C207.908 87.4811 207.626 87.089 207.247 86.8011C206.872 86.5095 206.4 86.3636 205.832 86.3636C205.287 86.3636 204.828 86.5019 204.457 86.7784C204.086 87.0511 203.806 87.4337 203.616 87.9261C203.427 88.4148 203.332 88.9848 203.332 89.6364ZM211.764 94V85.2727H213.105V94H211.764ZM212.446 83.8182C212.184 83.8182 211.959 83.7292 211.77 83.5511C211.584 83.3731 211.491 83.1591 211.491 82.9091C211.491 82.6591 211.584 82.4451 211.77 82.267C211.959 82.089 212.184 82 212.446 82C212.707 82 212.931 82.089 213.116 82.267C213.306 82.4451 213.4 82.6591 213.4 82.9091C213.4 83.1591 213.306 83.3731 213.116 83.5511C212.931 83.7292 212.707 83.8182 212.446 83.8182ZM219.356 85.2727V86.4091H214.834V85.2727H219.356ZM216.152 83.1818H217.493V91.5C217.493 91.8788 217.548 92.1629 217.657 92.3523C217.771 92.5379 217.915 92.6629 218.089 92.7273C218.267 92.7879 218.455 92.8182 218.652 92.8182C218.799 92.8182 218.921 92.8106 219.015 92.7955C219.11 92.7765 219.186 92.7614 219.243 92.75L219.515 93.9545C219.424 93.9886 219.298 94.0227 219.135 94.0568C218.972 94.0947 218.765 94.1136 218.515 94.1136C218.137 94.1136 217.765 94.0322 217.402 93.8693C217.042 93.7064 216.743 93.4583 216.504 93.125C216.269 92.7917 216.152 92.3712 216.152 91.8636V83.1818ZM223.941 94.2045C223.388 94.2045 222.887 94.1004 222.436 93.892C221.985 93.6799 221.627 93.375 221.362 92.9773C221.097 92.5758 220.964 92.0909 220.964 91.5227C220.964 91.0227 221.063 90.6174 221.26 90.3068C221.457 89.9924 221.72 89.7462 222.049 89.5682C222.379 89.3902 222.743 89.2576 223.14 89.1705C223.542 89.0795 223.945 89.0076 224.351 88.9545C224.881 88.8864 225.311 88.8352 225.64 88.8011C225.974 88.7633 226.216 88.7008 226.368 88.6136C226.523 88.5265 226.601 88.375 226.601 88.1591V88.1136C226.601 87.553 226.447 87.1174 226.14 86.8068C225.837 86.4962 225.377 86.3409 224.76 86.3409C224.119 86.3409 223.618 86.4811 223.254 86.7614C222.89 87.0417 222.635 87.3409 222.487 87.6591L221.214 87.2045C221.441 86.6742 221.744 86.2614 222.123 85.9659C222.506 85.6667 222.923 85.4583 223.373 85.3409C223.828 85.2197 224.275 85.1591 224.714 85.1591C224.994 85.1591 225.316 85.1932 225.68 85.2614C226.048 85.3258 226.402 85.4602 226.743 85.6648C227.087 85.8693 227.373 86.178 227.601 86.5909C227.828 87.0038 227.941 87.5568 227.941 88.25V94H226.601V92.8182H226.532C226.441 93.0076 226.29 93.2102 226.078 93.4261C225.866 93.642 225.584 93.8258 225.231 93.9773C224.879 94.1288 224.449 94.2045 223.941 94.2045ZM224.146 93C224.676 93 225.123 92.8958 225.487 92.6875C225.854 92.4792 226.131 92.2102 226.316 91.8807C226.506 91.5511 226.601 91.2045 226.601 90.8409V89.6136C226.544 89.6818 226.419 89.7443 226.226 89.8011C226.036 89.8542 225.816 89.9015 225.566 89.9432C225.32 89.9811 225.08 90.0152 224.845 90.0455C224.614 90.072 224.426 90.0947 224.282 90.1136C223.934 90.1591 223.608 90.233 223.305 90.3352C223.006 90.4337 222.763 90.5833 222.578 90.7841C222.396 90.9811 222.305 91.25 222.305 91.5909C222.305 92.0568 222.477 92.4091 222.822 92.6477C223.171 92.8826 223.612 93 224.146 93ZM231.73 82.3636V94H230.389V82.3636H231.73Z" fill="#181D27"/>
</g>
<path d="M56.1929 137.493C56.1399 137.022 55.9211 136.658 55.5366 136.399C55.1522 136.137 54.6683 136.006 54.0849 136.006C53.6673 136.006 53.306 136.073 53.0011 136.205C52.6962 136.335 52.4592 136.513 52.2902 136.742C52.1245 136.968 52.0416 137.224 52.0416 137.513C52.0416 137.755 52.098 137.964 52.2106 138.139C52.3266 138.315 52.4774 138.462 52.6631 138.582C52.852 138.698 53.0542 138.795 53.2696 138.875C53.485 138.951 53.6922 139.014 53.891 139.064L54.8854 139.322C55.2102 139.402 55.5433 139.51 55.8846 139.646C56.226 139.781 56.5426 139.96 56.8342 140.183C57.1259 140.405 57.3612 140.68 57.5402 141.008C57.7225 141.336 57.8136 141.729 57.8136 142.186C57.8136 142.763 57.6645 143.275 57.3662 143.722C57.0712 144.17 56.642 144.523 56.0785 144.781C55.5184 145.04 54.8406 145.169 54.0452 145.169C53.2828 145.169 52.6233 145.048 52.0665 144.806C51.5096 144.564 51.0738 144.221 50.7589 143.777C50.4441 143.33 50.2701 142.799 50.2369 142.186H51.7781C51.8079 142.554 51.9273 142.861 52.1361 143.106C52.3482 143.348 52.6183 143.528 52.9464 143.648C53.2779 143.764 53.6408 143.822 54.0352 143.822C54.4694 143.822 54.8555 143.754 55.1936 143.618C55.535 143.479 55.8034 143.286 55.999 143.041C56.1945 142.793 56.2923 142.503 56.2923 142.171C56.2923 141.87 56.2061 141.623 56.0338 141.43C55.8648 141.238 55.6344 141.079 55.3427 140.953C55.0544 140.827 54.7279 140.716 54.3633 140.62L53.1602 140.292C52.3449 140.07 51.6986 139.743 51.2213 139.312C50.7473 138.882 50.5104 138.312 50.5104 137.602C50.5104 137.016 50.6694 136.504 50.9876 136.066C51.3058 135.629 51.7367 135.289 52.2802 135.047C52.8238 134.802 53.437 134.679 54.1197 134.679C54.8091 134.679 55.4173 134.8 55.9443 135.042C56.4746 135.284 56.8922 135.617 57.1971 136.041C57.5021 136.462 57.6612 136.946 57.6744 137.493H56.1929ZM62.8213 145.154C62.0689 145.154 61.4209 144.993 60.8774 144.672C60.3371 144.347 59.9195 143.891 59.6245 143.305C59.3329 142.715 59.187 142.024 59.187 141.232C59.187 140.449 59.3329 139.76 59.6245 139.163C59.9195 138.567 60.3305 138.101 60.8575 137.766C61.3878 137.432 62.0076 137.264 62.7169 137.264C63.1477 137.264 63.5653 137.335 63.9697 137.478C64.3741 137.621 64.737 137.844 65.0585 138.149C65.38 138.454 65.6335 138.85 65.8191 139.337C66.0047 139.821 66.0975 140.41 66.0975 141.102V141.629H60.0272V140.516H64.6409C64.6409 140.125 64.5613 139.778 64.4022 139.477C64.2431 139.172 64.0194 138.931 63.7311 138.756C63.446 138.58 63.1113 138.492 62.7268 138.492C62.3092 138.492 61.9446 138.595 61.633 138.8C61.3248 139.003 61.0862 139.268 60.9171 139.596C60.7514 139.921 60.6686 140.274 60.6686 140.655V141.525C60.6686 142.035 60.758 142.469 60.937 142.827C61.1193 143.185 61.3729 143.459 61.6977 143.648C62.0225 143.833 62.402 143.926 62.8362 143.926C63.1179 143.926 63.3748 143.886 63.6068 143.807C63.8388 143.724 64.0393 143.601 64.2083 143.439C64.3774 143.277 64.5066 143.076 64.5961 142.837L66.0031 143.091C65.8904 143.505 65.6882 143.868 65.3965 144.18C65.1082 144.488 64.7453 144.728 64.3078 144.901C63.8736 145.07 63.3781 145.154 62.8213 145.154ZM69.2334 140.466V145H67.7469V137.364H69.1737V138.607H69.2682C69.4438 138.202 69.7189 137.877 70.0935 137.632C70.4713 137.387 70.9469 137.264 71.5203 137.264C72.0407 137.264 72.4964 137.374 72.8875 137.592C73.2786 137.808 73.5819 138.129 73.7973 138.557C74.0127 138.984 74.1204 139.513 74.1204 140.143V145H72.6339V140.322C72.6339 139.768 72.4898 139.336 72.2014 139.024C71.9131 138.709 71.517 138.552 71.0132 138.552C70.6685 138.552 70.3619 138.626 70.0935 138.776C69.8283 138.925 69.6178 139.143 69.4621 139.432C69.3096 139.717 69.2334 140.062 69.2334 140.466ZM77.6006 140.466V145H76.114V134.818H77.5807V138.607H77.6751C77.8541 138.196 78.1275 137.869 78.4954 137.627C78.8633 137.385 79.3439 137.264 79.9372 137.264C80.4609 137.264 80.9183 137.372 81.3094 137.587C81.7038 137.803 82.0087 138.124 82.2241 138.552C82.4429 138.976 82.5523 139.506 82.5523 140.143V145H81.0658V140.322C81.0658 139.762 80.9216 139.327 80.6332 139.019C80.3449 138.708 79.9438 138.552 79.4301 138.552C79.0788 138.552 78.7639 138.626 78.4855 138.776C78.2104 138.925 77.9933 139.143 77.8342 139.432C77.6784 139.717 77.6006 140.062 77.6006 140.466ZM86.7582 145.169C86.2743 145.169 85.8368 145.08 85.4457 144.901C85.0546 144.718 84.7447 144.455 84.516 144.11C84.2907 143.765 84.178 143.343 84.178 142.842C84.178 142.411 84.2608 142.057 84.4265 141.778C84.5923 141.5 84.816 141.28 85.0977 141.117C85.3794 140.955 85.6943 140.832 86.0423 140.749C86.3903 140.666 86.745 140.603 87.1062 140.56C87.5636 140.507 87.9348 140.464 88.2199 140.431C88.5049 140.395 88.7121 140.337 88.8413 140.257C88.9706 140.178 89.0352 140.048 89.0352 139.869V139.835C89.0352 139.4 88.9126 139.064 88.6673 138.825C88.4254 138.587 88.0641 138.467 87.5835 138.467C87.083 138.467 86.6886 138.578 86.4003 138.8C86.1152 139.019 85.918 139.263 85.8087 139.531L84.4116 139.213C84.5774 138.749 84.8193 138.375 85.1375 138.089C85.459 137.801 85.8285 137.592 86.2462 137.463C86.6638 137.33 87.1029 137.264 87.5636 137.264C87.8685 137.264 88.1917 137.301 88.5331 137.374C88.8778 137.443 89.1993 137.572 89.4976 137.761C89.7992 137.95 90.0461 138.22 90.2383 138.572C90.4306 138.92 90.5267 139.372 90.5267 139.929V145H89.075V143.956H89.0153C88.9192 144.148 88.775 144.337 88.5828 144.523C88.3906 144.708 88.1436 144.862 87.842 144.985C87.5404 145.108 87.1792 145.169 86.7582 145.169ZM87.0814 143.976C87.4924 143.976 87.8437 143.895 88.1354 143.732C88.4303 143.57 88.6541 143.358 88.8065 143.096C88.9623 142.831 89.0402 142.547 89.0402 142.246V141.261C88.9872 141.314 88.8844 141.364 88.7319 141.411C88.5828 141.454 88.4121 141.492 88.2199 141.525C88.0276 141.555 87.8404 141.583 87.6581 141.609C87.4758 141.633 87.3233 141.652 87.2007 141.669C86.9123 141.705 86.6489 141.767 86.4102 141.853C86.1749 141.939 85.986 142.063 85.8435 142.226C85.7042 142.385 85.6346 142.597 85.6346 142.862C85.6346 143.23 85.7705 143.509 86.0423 143.697C86.3141 143.883 86.6605 143.976 87.0814 143.976Z" fill="#414651"/>
<g filter="url(#filter1_d_336_7934)">
<path d="M49.521 164C49.521 159.582 53.1027 156 57.521 156H365.151C369.57 156 373.151 159.582 373.151 164V192C373.151 196.418 369.57 200 365.151 200H57.521C53.1027 200 49.521 196.418 49.521 192V164Z" fill="white"/>
<path d="M57.521 156.5H365.151C369.293 156.5 372.651 159.858 372.651 164V192C372.651 196.142 369.293 199.5 365.151 199.5H57.521C53.3789 199.5 50.021 196.142 50.021 192V164C50.021 159.858 53.3789 156.5 57.521 156.5Z" stroke="#D5D7DA"/>
<path d="M68.021 181.864C67.5627 181.864 67.1441 181.752 66.7653 181.528C66.3865 181.301 66.0835 180.998 65.8562 180.619C65.6328 180.241 65.521 179.822 65.521 179.364C65.521 178.902 65.6328 178.483 65.8562 178.108C66.0835 177.729 66.3865 177.428 66.7653 177.205C67.1441 176.977 67.5627 176.864 68.021 176.864C68.4831 176.864 68.9017 176.977 69.2767 177.205C69.6555 177.428 69.9566 177.729 70.1801 178.108C70.4074 178.483 70.521 178.902 70.521 179.364C70.521 179.822 70.4074 180.241 70.1801 180.619C69.9566 180.998 69.6555 181.301 69.2767 181.528C68.9017 181.752 68.4831 181.864 68.021 181.864ZM77.021 181.864C76.5627 181.864 76.1441 181.752 75.7653 181.528C75.3865 181.301 75.0835 180.998 74.8562 180.619C74.6328 180.241 74.521 179.822 74.521 179.364C74.521 178.902 74.6328 178.483 74.8562 178.108C75.0835 177.729 75.3865 177.428 75.7653 177.205C76.1441 176.977 76.5627 176.864 77.021 176.864C77.4831 176.864 77.9017 176.977 78.2767 177.205C78.6555 177.428 78.9566 177.729 79.1801 178.108C79.4074 178.483 79.521 178.902 79.521 179.364C79.521 179.822 79.4074 180.241 79.1801 180.619C78.9566 180.998 78.6555 181.301 78.2767 181.528C77.9017 181.752 77.4831 181.864 77.021 181.864ZM86.021 181.864C85.5627 181.864 85.1441 181.752 84.7653 181.528C84.3865 181.301 84.0835 180.998 83.8562 180.619C83.6328 180.241 83.521 179.822 83.521 179.364C83.521 178.902 83.6328 178.483 83.8562 178.108C84.0835 177.729 84.3865 177.428 84.7653 177.205C85.1441 176.977 85.5627 176.864 86.021 176.864C86.4831 176.864 86.9017 176.977 87.2767 177.205C87.6555 177.428 87.9566 177.729 88.1801 178.108C88.4074 178.483 88.521 178.902 88.521 179.364C88.521 179.822 88.4074 180.241 88.1801 180.619C87.9566 180.998 87.6555 181.301 87.2767 181.528C86.9017 181.752 86.4831 181.864 86.021 181.864ZM95.021 181.864C94.5627 181.864 94.1441 181.752 93.7653 181.528C93.3865 181.301 93.0835 180.998 92.8562 180.619C92.6328 180.241 92.521 179.822 92.521 179.364C92.521 178.902 92.6328 178.483 92.8562 178.108C93.0835 177.729 93.3865 177.428 93.7653 177.205C94.1441 176.977 94.5627 176.864 95.021 176.864C95.4831 176.864 95.9017 176.977 96.2767 177.205C96.6555 177.428 96.9566 177.729 97.1801 178.108C97.4074 178.483 97.521 178.902 97.521 179.364C97.521 179.822 97.4074 180.241 97.1801 180.619C96.9566 180.998 96.6555 181.301 96.2767 181.528C95.9017 181.752 95.4831 181.864 95.021 181.864ZM104.021 181.864C103.563 181.864 103.144 181.752 102.765 181.528C102.387 181.301 102.084 180.998 101.856 180.619C101.633 180.241 101.521 179.822 101.521 179.364C101.521 178.902 101.633 178.483 101.856 178.108C102.084 177.729 102.387 177.428 102.765 177.205C103.144 176.977 103.563 176.864 104.021 176.864C104.483 176.864 104.902 176.977 105.277 177.205C105.655 177.428 105.957 177.729 106.18 178.108C106.407 178.483 106.521 178.902 106.521 179.364C106.521 179.822 106.407 180.241 106.18 180.619C105.957 180.998 105.655 181.301 105.277 181.528C104.902 181.752 104.483 181.864 104.021 181.864ZM113.021 181.864C112.563 181.864 112.144 181.752 111.765 181.528C111.387 181.301 111.084 180.998 110.856 180.619C110.633 180.241 110.521 179.822 110.521 179.364C110.521 178.902 110.633 178.483 110.856 178.108C111.084 177.729 111.387 177.428 111.765 177.205C112.144 176.977 112.563 176.864 113.021 176.864C113.483 176.864 113.902 176.977 114.277 177.205C114.655 177.428 114.957 177.729 115.18 178.108C115.407 178.483 115.521 178.902 115.521 179.364C115.521 179.822 115.407 180.241 115.18 180.619C114.957 180.998 114.655 181.301 114.277 181.528C113.902 181.752 113.483 181.864 113.021 181.864ZM122.021 181.864C121.563 181.864 121.144 181.752 120.765 181.528C120.387 181.301 120.084 180.998 119.856 180.619C119.633 180.241 119.521 179.822 119.521 179.364C119.521 178.902 119.633 178.483 119.856 178.108C120.084 177.729 120.387 177.428 120.765 177.205C121.144 176.977 121.563 176.864 122.021 176.864C122.483 176.864 122.902 176.977 123.277 177.205C123.655 177.428 123.957 177.729 124.18 178.108C124.407 178.483 124.521 178.902 124.521 179.364C124.521 179.822 124.407 180.241 124.18 180.619C123.957 180.998 123.655 181.301 123.277 181.528C122.902 181.752 122.483 181.864 122.021 181.864ZM131.021 181.864C130.563 181.864 130.144 181.752 129.765 181.528C129.387 181.301 129.084 180.998 128.856 180.619C128.633 180.241 128.521 179.822 128.521 179.364C128.521 178.902 128.633 178.483 128.856 178.108C129.084 177.729 129.387 177.428 129.765 177.205C130.144 176.977 130.563 176.864 131.021 176.864C131.483 176.864 131.902 176.977 132.277 177.205C132.655 177.428 132.957 177.729 133.18 178.108C133.407 178.483 133.521 178.902 133.521 179.364C133.521 179.822 133.407 180.241 133.18 180.619C132.957 180.998 132.655 181.301 132.277 181.528C131.902 181.752 131.483 181.864 131.021 181.864ZM140.021 181.864C139.563 181.864 139.144 181.752 138.765 181.528C138.387 181.301 138.084 180.998 137.856 180.619C137.633 180.241 137.521 179.822 137.521 179.364C137.521 178.902 137.633 178.483 137.856 178.108C138.084 177.729 138.387 177.428 138.765 177.205C139.144 176.977 139.563 176.864 140.021 176.864C140.483 176.864 140.902 176.977 141.277 177.205C141.655 177.428 141.957 177.729 142.18 178.108C142.407 178.483 142.521 178.902 142.521 179.364C142.521 179.822 142.407 180.241 142.18 180.619C141.957 180.998 141.655 181.301 141.277 181.528C140.902 181.752 140.483 181.864 140.021 181.864ZM149.021 181.864C148.563 181.864 148.144 181.752 147.765 181.528C147.387 181.301 147.084 180.998 146.856 180.619C146.633 180.241 146.521 179.822 146.521 179.364C146.521 178.902 146.633 178.483 146.856 178.108C147.084 177.729 147.387 177.428 147.765 177.205C148.144 176.977 148.563 176.864 149.021 176.864C149.483 176.864 149.902 176.977 150.277 177.205C150.655 177.428 150.957 177.729 151.18 178.108C151.407 178.483 151.521 178.902 151.521 179.364C151.521 179.822 151.407 180.241 151.18 180.619C150.957 180.998 150.655 181.301 150.277 181.528C149.902 181.752 149.483 181.864 149.021 181.864ZM158.021 181.864C157.563 181.864 157.144 181.752 156.765 181.528C156.387 181.301 156.084 180.998 155.856 180.619C155.633 180.241 155.521 179.822 155.521 179.364C155.521 178.902 155.633 178.483 155.856 178.108C156.084 177.729 156.387 177.428 156.765 177.205C157.144 176.977 157.563 176.864 158.021 176.864C158.483 176.864 158.902 176.977 159.277 177.205C159.655 177.428 159.957 177.729 160.18 178.108C160.407 178.483 160.521 178.902 160.521 179.364C160.521 179.822 160.407 180.241 160.18 180.619C159.957 180.998 159.655 181.301 159.277 181.528C158.902 181.752 158.483 181.864 158.021 181.864ZM167.021 181.864C166.563 181.864 166.144 181.752 165.765 181.528C165.387 181.301 165.084 180.998 164.856 180.619C164.633 180.241 164.521 179.822 164.521 179.364C164.521 178.902 164.633 178.483 164.856 178.108C165.084 177.729 165.387 177.428 165.765 177.205C166.144 176.977 166.563 176.864 167.021 176.864C167.483 176.864 167.902 176.977 168.277 177.205C168.655 177.428 168.957 177.729 169.18 178.108C169.407 178.483 169.521 178.902 169.521 179.364C169.521 179.822 169.407 180.241 169.18 180.619C168.957 180.998 168.655 181.301 168.277 181.528C167.902 181.752 167.483 181.864 167.021 181.864ZM176.021 181.864C175.563 181.864 175.144 181.752 174.765 181.528C174.387 181.301 174.084 180.998 173.856 180.619C173.633 180.241 173.521 179.822 173.521 179.364C173.521 178.902 173.633 178.483 173.856 178.108C174.084 177.729 174.387 177.428 174.765 177.205C175.144 176.977 175.563 176.864 176.021 176.864C176.483 176.864 176.902 176.977 177.277 177.205C177.655 177.428 177.957 177.729 178.18 178.108C178.407 178.483 178.521 178.902 178.521 179.364C178.521 179.822 178.407 180.241 178.18 180.619C177.957 180.998 177.655 181.301 177.277 181.528C176.902 181.752 176.483 181.864 176.021 181.864ZM185.021 181.864C184.563 181.864 184.144 181.752 183.765 181.528C183.387 181.301 183.084 180.998 182.856 180.619C182.633 180.241 182.521 179.822 182.521 179.364C182.521 178.902 182.633 178.483 182.856 178.108C183.084 177.729 183.387 177.428 183.765 177.205C184.144 176.977 184.563 176.864 185.021 176.864C185.483 176.864 185.902 176.977 186.277 177.205C186.655 177.428 186.957 177.729 187.18 178.108C187.407 178.483 187.521 178.902 187.521 179.364C187.521 179.822 187.407 180.241 187.18 180.619C186.957 180.998 186.655 181.301 186.277 181.528C185.902 181.752 185.483 181.864 185.021 181.864ZM194.021 181.864C193.563 181.864 193.144 181.752 192.765 181.528C192.387 181.301 192.084 180.998 191.856 180.619C191.633 180.241 191.521 179.822 191.521 179.364C191.521 178.902 191.633 178.483 191.856 178.108C192.084 177.729 192.387 177.428 192.765 177.205C193.144 176.977 193.563 176.864 194.021 176.864C194.483 176.864 194.902 176.977 195.277 177.205C195.655 177.428 195.957 177.729 196.18 178.108C196.407 178.483 196.521 178.902 196.521 179.364C196.521 179.822 196.407 180.241 196.18 180.619C195.957 180.998 195.655 181.301 195.277 181.528C194.902 181.752 194.483 181.864 194.021 181.864ZM203.021 181.864C202.563 181.864 202.144 181.752 201.765 181.528C201.387 181.301 201.084 180.998 200.856 180.619C200.633 180.241 200.521 179.822 200.521 179.364C200.521 178.902 200.633 178.483 200.856 178.108C201.084 177.729 201.387 177.428 201.765 177.205C202.144 176.977 202.563 176.864 203.021 176.864C203.483 176.864 203.902 176.977 204.277 177.205C204.655 177.428 204.957 177.729 205.18 178.108C205.407 178.483 205.521 178.902 205.521 179.364C205.521 179.822 205.407 180.241 205.18 180.619C204.957 180.998 204.655 181.301 204.277 181.528C203.902 181.752 203.483 181.864 203.021 181.864Z" fill="#181D27"/>
</g>
</g>
</g>
<defs>
<filter id="filter0_d_336_7934" x="47.521" y="65" width="327.63" height="48" filterUnits="userSpaceOnUse" color-interpolation-filters="sRGB">
<feFlood flood-opacity="0" result="BackgroundImageFix"/>
<feColorMatrix in="SourceAlpha" type="matrix" values="0 0 0 0 0 0 0 0 0 0 0 0 0 0 0 0 0 0 127 0" result="hardAlpha"/>
<feOffset dy="1"/>
<feGaussianBlur stdDeviation="1"/>
<feColorMatrix type="matrix" values="0 0 0 0 0.0392157 0 0 0 0 0.0496732 0 0 0 0 0.0705882 0 0 0 0.05 0"/>
<feBlend mode="normal" in2="BackgroundImageFix" result="effect1_dropShadow_336_7934"/>
<feBlend mode="normal" in="SourceGraphic" in2="effect1_dropShadow_336_7934" result="shape"/>
</filter>
<filter id="filter1_d_336_7934" x="47.521" y="155" width="327.63" height="48" filterUnits="userSpaceOnUse" color-interpolation-filters="sRGB">
<feFlood flood-opacity="0" result="BackgroundImageFix"/>
<feColorMatrix in="SourceAlpha" type="matrix" values="0 0 0 0 0 0 0 0 0 0 0 0 0 0 0 0 0 0 127 0" result="hardAlpha"/>
<feOffset dy="1"/>
<feGaussianBlur stdDeviation="1"/>
<feColorMatrix type="matrix" values="0 0 0 0 0.0392157 0 0 0 0 0.0496732 0 0 0 0 0.0705882 0 0 0 0.05 0"/>
<feBlend mode="normal" in2="BackgroundImageFix" result="effect1_dropShadow_336_7934"/>
<feBlend mode="normal" in="SourceGraphic" in2="effect1_dropShadow_336_7934" result="shape"/>
</filter>
</defs>
</svg>
