<svg width="379" height="214" viewBox="0 0 379 214" fill="none" xmlns="http://www.w3.org/2000/svg">
<mask id="mask0_336_8846" style="mask-type:alpha" maskUnits="userSpaceOnUse" x="0" y="0" width="379" height="214">
<rect width="379" height="214" fill="#D9D9D9"/>
</mask>
<g mask="url(#mask0_336_8846)">
<path d="M24 24.5H378.5V245.5H24C19.8579 245.5 16.5 242.142 16.5 238V32C16.5 27.8579 19.8579 24.5 24 24.5Z" fill="white"/>
<path d="M24 24.5H378.5V245.5H24C19.8579 245.5 16.5 242.142 16.5 238V32C16.5 27.8579 19.8579 24.5 24 24.5Z" stroke="#DADADA"/>
<rect x="32.5" y="48.5" width="330" height="95" rx="7.5" fill="white"/>
<rect x="32.5" y="48.5" width="330" height="95" rx="7.5" stroke="#DADADA"/>
<path d="M63 84.5H56.5833C55.5708 84.5 54.75 83.6791 54.75 82.6666V73.5C54.75 72.4874 55.5708 71.6666 56.5833 71.6666H69.4167C70.4292 71.6666 71.25 72.4874 71.25 73.5V80.375" stroke="#555555" stroke-width="1.5" stroke-linecap="round" stroke-linejoin="round"/>
<path d="M54.75 73.5L63 79L71.25 73.5" stroke="#555555" stroke-width="1.5" stroke-linecap="round" stroke-linejoin="round"/>
<path d="M65.75 84.5H71.25" stroke="#555555" stroke-width="1.5" stroke-linecap="round" stroke-linejoin="round"/>
<path d="M68.5 81.75L71.25 84.5L68.5 87.25" stroke="#555555" stroke-width="1.5" stroke-linecap="round" stroke-linejoin="round"/>
<path d="M196.645 85.7229C196.093 85.7229 195.649 85.6509 195.313 85.5069C194.983 85.3629 194.731 85.1709 194.557 84.9309C194.383 84.6849 194.266 84.4089 194.206 84.1029C194.152 83.7909 194.125 83.4699 194.125 83.1399V72.2229H196.024V82.9419C196.024 83.3739 196.108 83.7039 196.276 83.9319C196.45 84.1599 196.714 84.2889 197.068 84.3189L197.554 84.3369V85.5609C197.404 85.6089 197.248 85.6479 197.086 85.6779C196.93 85.7079 196.783 85.7229 196.645 85.7229Z" fill="#555555"/>
<path d="M189.512 85.5969V76.2909H191.366V85.5969H189.512ZM189.467 74.4909V72.5919H191.402V74.4909H189.467Z" fill="#555555"/>
<path d="M182.102 85.777C181.502 85.777 180.968 85.669 180.5 85.453C180.038 85.237 179.675 84.925 179.411 84.517C179.147 84.109 179.015 83.617 179.015 83.041C179.015 82.009 179.378 81.238 180.104 80.728C180.836 80.218 182.006 79.948 183.614 79.918L185.144 79.873V79.198C185.144 78.664 184.985 78.244 184.667 77.938C184.349 77.632 183.857 77.482 183.191 77.488C182.699 77.488 182.258 77.602 181.868 77.83C181.478 78.058 181.223 78.433 181.103 78.955H179.438C179.474 78.337 179.651 77.818 179.969 77.398C180.293 76.972 180.737 76.651 181.301 76.435C181.865 76.219 182.525 76.111 183.281 76.111C184.133 76.111 184.832 76.228 185.378 76.462C185.924 76.69 186.329 77.026 186.593 77.47C186.863 77.914 186.998 78.454 186.998 79.09V85.597H185.36L185.216 83.887C184.868 84.601 184.427 85.096 183.893 85.372C183.359 85.642 182.762 85.777 182.102 85.777ZM182.705 84.436C182.999 84.436 183.29 84.385 183.578 84.283C183.866 84.175 184.127 84.031 184.361 83.851C184.595 83.665 184.781 83.458 184.919 83.23C185.063 83.002 185.138 82.768 185.144 82.528V80.989L183.884 81.016C183.242 81.022 182.696 81.088 182.246 81.214C181.802 81.34 181.46 81.535 181.22 81.799C180.986 82.063 180.869 82.414 180.869 82.852C180.869 83.35 181.04 83.74 181.382 84.022C181.73 84.298 182.171 84.436 182.705 84.436Z" fill="#555555"/>
<path d="M163.767 85.597V76.291H165.639V77.632C165.903 77.224 166.263 76.87 166.719 76.57C167.175 76.264 167.763 76.111 168.483 76.111C168.819 76.111 169.158 76.168 169.5 76.282C169.848 76.396 170.166 76.567 170.454 76.795C170.748 77.017 170.979 77.293 171.147 77.623C171.441 77.179 171.834 76.816 172.326 76.534C172.818 76.252 173.37 76.111 173.982 76.111C174.312 76.111 174.654 76.165 175.008 76.273C175.362 76.375 175.689 76.552 175.989 76.804C176.295 77.05 176.541 77.392 176.727 77.83C176.919 78.268 177.015 78.823 177.015 79.495V85.597H175.08V79.702C175.08 79.192 174.993 78.793 174.819 78.505C174.651 78.217 174.429 78.016 174.153 77.902C173.883 77.782 173.595 77.722 173.289 77.722C173.013 77.722 172.725 77.776 172.425 77.884C172.125 77.992 171.87 78.172 171.66 78.424C171.45 78.676 171.345 79.018 171.345 79.45V85.597H169.419V79.288C169.419 78.946 169.326 78.658 169.14 78.424C168.96 78.19 168.732 78.016 168.456 77.902C168.186 77.782 167.916 77.722 167.646 77.722C167.346 77.722 167.046 77.782 166.746 77.902C166.446 78.022 166.194 78.211 165.99 78.469C165.792 78.721 165.693 79.048 165.693 79.45V85.597H163.767Z" fill="#555555"/>
<path d="M156.696 81.7V80.224L161.358 80.215V81.682L156.696 81.7Z" fill="#555555"/>
<path d="M146.355 85.5969V72.5829H154.761L154.752 74.2569H148.29V78.2079H154.059V79.8549H148.281V83.8959L154.914 83.9049V85.5969H146.355Z" fill="#555555"/>
<path d="M134.588 85.597V76.291H136.433V78.199C136.589 77.743 136.805 77.362 137.081 77.056C137.363 76.744 137.69 76.51 138.062 76.354C138.434 76.192 138.827 76.111 139.241 76.111C139.367 76.111 139.487 76.12 139.601 76.138C139.715 76.15 139.805 76.174 139.871 76.21V78.064C139.793 78.028 139.691 78.004 139.565 77.992C139.445 77.98 139.34 77.971 139.25 77.965C138.842 77.935 138.47 77.956 138.134 78.028C137.798 78.1 137.507 78.22 137.261 78.388C137.021 78.556 136.835 78.775 136.703 79.045C136.577 79.315 136.514 79.633 136.514 79.999V85.597H134.588Z" fill="#555555"/>
<path d="M127.223 85.777C126.623 85.777 126.089 85.669 125.621 85.453C125.159 85.237 124.796 84.925 124.532 84.517C124.268 84.109 124.136 83.617 124.136 83.041C124.136 82.009 124.499 81.238 125.225 80.728C125.957 80.218 127.127 79.948 128.735 79.918L130.265 79.873V79.198C130.265 78.664 130.106 78.244 129.788 77.938C129.47 77.632 128.978 77.482 128.312 77.488C127.82 77.488 127.379 77.602 126.989 77.83C126.599 78.058 126.344 78.433 126.224 78.955H124.559C124.595 78.337 124.772 77.818 125.09 77.398C125.414 76.972 125.858 76.651 126.422 76.435C126.986 76.219 127.646 76.111 128.402 76.111C129.254 76.111 129.953 76.228 130.499 76.462C131.045 76.69 131.45 77.026 131.714 77.47C131.984 77.914 132.119 78.454 132.119 79.09V85.597H130.481L130.337 83.887C129.989 84.601 129.548 85.096 129.014 85.372C128.48 85.642 127.883 85.777 127.223 85.777ZM127.826 84.436C128.12 84.436 128.411 84.385 128.699 84.283C128.987 84.175 129.248 84.031 129.482 83.851C129.716 83.665 129.902 83.458 130.04 83.23C130.184 83.002 130.259 82.768 130.265 82.528V80.989L129.005 81.016C128.363 81.022 127.817 81.088 127.367 81.214C126.923 81.34 126.581 81.535 126.341 81.799C126.107 82.063 125.99 82.414 125.99 82.852C125.99 83.35 126.161 83.74 126.503 84.022C126.851 84.298 127.292 84.436 127.826 84.436Z" fill="#555555"/>
<path d="M120.06 85.5969V76.2909H121.914V85.5969H120.06ZM120.015 74.4909V72.5919H121.95V74.4909H120.015Z" fill="#555555"/>
<path d="M113.332 85.5969L109.93 76.2909H111.712L114.07 83.1579H114.196L116.554 76.2909H118.336L114.952 85.5969H113.332Z" fill="#555555"/>
<path d="M100.697 85.597V76.2909H102.578V77.632C102.728 77.38 102.929 77.1429 103.181 76.9209C103.439 76.6989 103.754 76.5189 104.126 76.3809C104.504 76.2429 104.939 76.174 105.431 76.174C106.013 76.174 106.55 76.2909 107.042 76.525C107.54 76.7529 107.939 77.113 108.239 77.6049C108.539 78.091 108.689 78.721 108.689 79.495V85.597H106.763V79.702C106.763 79.036 106.583 78.541 106.223 78.217C105.869 77.893 105.41 77.731 104.846 77.731C104.468 77.731 104.108 77.794 103.766 77.92C103.424 78.046 103.148 78.238 102.938 78.496C102.728 78.748 102.623 79.066 102.623 79.45V85.597H100.697Z" fill="#555555"/>
<path d="M90 85.5969V72.5829H98.406L98.397 74.2569H91.935V78.2079H97.704V79.8549H91.926V83.8959L98.559 83.9049V85.5969H90Z" fill="#555555"/>
<circle cx="332" cy="79" r="0.916667" stroke="#4B465C" stroke-width="1.5" stroke-linecap="round" stroke-linejoin="round"/>
<circle cx="332" cy="79" r="0.916667" stroke="white" stroke-opacity="0.2" stroke-width="1.5" stroke-linecap="round" stroke-linejoin="round"/>
<circle cx="332" cy="85.4167" r="0.916667" stroke="#4B465C" stroke-width="1.5" stroke-linecap="round" stroke-linejoin="round"/>
<circle cx="332" cy="85.4167" r="0.916667" stroke="white" stroke-opacity="0.2" stroke-width="1.5" stroke-linecap="round" stroke-linejoin="round"/>
<circle cx="332" cy="72.5833" r="0.916667" stroke="#4B465C" stroke-width="1.5" stroke-linecap="round" stroke-linejoin="round"/>
<circle cx="332" cy="72.5833" r="0.916667" stroke="white" stroke-opacity="0.2" stroke-width="1.5" stroke-linecap="round" stroke-linejoin="round"/>
<path d="M53.3725 112V101.155H57.6775C58.4825 101.155 59.15 101.28 59.68 101.53C60.21 101.775 60.605 102.125 60.865 102.58C61.125 103.035 61.255 103.572 61.255 104.192C61.255 104.777 61.155 105.265 60.955 105.655C60.76 106.045 60.505 106.362 60.19 106.607C59.88 106.852 59.5525 107.045 59.2075 107.185L61.3075 112H59.62L57.7 107.462H54.9775V112H53.3725ZM54.9775 106.165H57.2425C57.9975 106.165 58.5825 106.002 58.9975 105.677C59.4125 105.347 59.62 104.877 59.62 104.267C59.62 103.667 59.43 103.212 59.05 102.902C58.675 102.592 58.165 102.437 57.52 102.437H54.9775V106.165ZM66.4231 112.15C65.6881 112.15 65.0406 111.993 64.4806 111.677C63.9206 111.357 63.4831 110.902 63.1681 110.312C62.8581 109.722 62.7031 109.02 62.7031 108.205C62.7031 107.4 62.8456 106.69 63.1306 106.075C63.4156 105.455 63.8281 104.97 64.3681 104.62C64.9081 104.27 65.5581 104.095 66.3181 104.095C67.0631 104.095 67.6931 104.255 68.2081 104.575C68.7231 104.895 69.1131 105.345 69.3781 105.925C69.6431 106.5 69.7756 107.18 69.7756 107.965V108.497H64.3156C64.3106 108.962 64.3856 109.38 64.5406 109.75C64.6956 110.115 64.9256 110.405 65.2306 110.62C65.5406 110.83 65.9256 110.935 66.3856 110.935C66.8506 110.935 67.2506 110.83 67.5856 110.62C67.9256 110.41 68.1481 110.097 68.2531 109.682H69.7381C69.6481 110.212 69.4356 110.662 69.1006 111.032C68.7656 111.402 68.3631 111.682 67.8931 111.872C67.4231 112.058 66.9331 112.15 66.4231 112.15ZM64.3156 107.455H68.2456C68.2456 107.05 68.1756 106.682 68.0356 106.352C67.8956 106.017 67.6806 105.755 67.3906 105.565C67.1056 105.37 66.7456 105.272 66.3106 105.272C65.8656 105.272 65.4956 105.38 65.2006 105.595C64.9056 105.81 64.6831 106.085 64.5331 106.42C64.3881 106.755 64.3156 107.1 64.3156 107.455ZM74.7906 112.15C74.0906 112.15 73.4681 111.998 72.9231 111.692C72.3781 111.382 71.9506 110.93 71.6406 110.335C71.3306 109.735 71.1756 109.007 71.1756 108.152C71.1756 107.347 71.3181 106.64 71.6031 106.03C71.8931 105.42 72.3081 104.945 72.8481 104.605C73.3881 104.265 74.0356 104.095 74.7906 104.095C75.3756 104.095 75.8931 104.21 76.3431 104.44C76.7931 104.665 77.1581 104.98 77.4381 105.385C77.7231 105.79 77.8956 106.262 77.9556 106.802H76.5606C76.5206 106.547 76.4256 106.31 76.2756 106.09C76.1256 105.87 75.9281 105.695 75.6831 105.565C75.4381 105.43 75.1456 105.362 74.8056 105.362C74.1806 105.362 73.6731 105.59 73.2831 106.045C72.8931 106.5 72.6981 107.197 72.6981 108.137C72.6981 108.997 72.8806 109.682 73.2456 110.192C73.6106 110.702 74.1381 110.957 74.8281 110.957C75.1681 110.957 75.4606 110.887 75.7056 110.747C75.9506 110.607 76.1456 110.427 76.2906 110.207C76.4406 109.987 76.5356 109.76 76.5756 109.525H77.9406C77.8806 110.045 77.7081 110.502 77.4231 110.898C77.1431 111.292 76.7781 111.6 76.3281 111.82C75.8781 112.04 75.3656 112.15 74.7906 112.15ZM83.093 112.15C82.358 112.15 81.7105 111.993 81.1505 111.677C80.5905 111.357 80.153 110.902 79.838 110.312C79.528 109.722 79.373 109.02 79.373 108.205C79.373 107.4 79.5155 106.69 79.8005 106.075C80.0855 105.455 80.498 104.97 81.038 104.62C81.578 104.27 82.228 104.095 82.988 104.095C83.733 104.095 84.363 104.255 84.878 104.575C85.393 104.895 85.783 105.345 86.048 105.925C86.313 106.5 86.4455 107.18 86.4455 107.965V108.497H80.9855C80.9805 108.962 81.0555 109.38 81.2105 109.75C81.3655 110.115 81.5955 110.405 81.9005 110.62C82.2105 110.83 82.5955 110.935 83.0555 110.935C83.5205 110.935 83.9205 110.83 84.2555 110.62C84.5955 110.41 84.818 110.097 84.923 109.682H86.408C86.318 110.212 86.1055 110.662 85.7705 111.032C85.4355 111.402 85.033 111.682 84.563 111.872C84.093 112.058 83.603 112.15 83.093 112.15ZM80.9855 107.455H84.9155C84.9155 107.05 84.8455 106.682 84.7055 106.352C84.5655 106.017 84.3505 105.755 84.0605 105.565C83.7755 105.37 83.4155 105.272 82.9805 105.272C82.5355 105.272 82.1655 105.38 81.8705 105.595C81.5755 105.81 81.353 106.085 81.203 106.42C81.058 106.755 80.9855 107.1 80.9855 107.455ZM88.273 114.415V104.245H89.878L89.893 105.535C89.988 105.365 90.1105 105.197 90.2605 105.032C90.4105 104.862 90.588 104.707 90.793 104.567C91.003 104.422 91.2405 104.307 91.5055 104.222C91.7755 104.137 92.073 104.095 92.398 104.095C93.008 104.095 93.5455 104.237 94.0105 104.522C94.4805 104.802 94.8455 105.235 95.1055 105.82C95.3705 106.4 95.503 107.137 95.503 108.032C95.503 108.932 95.3705 109.687 95.1055 110.297C94.8455 110.907 94.473 111.37 93.988 111.685C93.503 111.995 92.928 112.15 92.263 112.15C91.943 112.15 91.6555 112.105 91.4005 112.015C91.1455 111.925 90.9205 111.807 90.7255 111.662C90.5305 111.512 90.363 111.352 90.223 111.182C90.088 111.007 89.9755 110.835 89.8855 110.665V114.415H88.273ZM91.9255 110.927C92.5205 110.927 93.008 110.697 93.388 110.237C93.773 109.772 93.9655 109.047 93.9655 108.062C93.9655 107.217 93.788 106.55 93.433 106.06C93.083 105.565 92.5805 105.317 91.9255 105.317C91.2505 105.317 90.7405 105.575 90.3955 106.09C90.0505 106.6 89.878 107.257 89.878 108.062C89.878 108.587 89.953 109.067 90.103 109.502C90.258 109.932 90.488 110.277 90.793 110.537C91.098 110.797 91.4755 110.927 91.9255 110.927ZM100.26 115.113C99.98 115.113 99.7125 115.083 99.4575 115.023C99.2075 114.963 98.9725 114.865 98.7525 114.73L99 114.108C99.14 114.203 99.2975 114.285 99.4725 114.355C99.6475 114.43 99.845 114.468 100.065 114.468C100.33 114.468 100.528 114.42 100.658 114.325C100.793 114.235 100.86 114.108 100.86 113.943C100.86 113.728 100.765 113.568 100.575 113.463C100.39 113.358 100.078 113.3 99.6375 113.29C99.5875 113.29 99.555 113.283 99.54 113.268C99.525 113.253 99.525 113.223 99.54 113.178L100.088 111.925H100.883L100.538 112.825C100.888 112.835 101.163 112.898 101.363 113.013C101.568 113.128 101.713 113.268 101.798 113.433C101.888 113.603 101.933 113.773 101.933 113.943C101.933 114.193 101.855 114.405 101.7 114.58C101.545 114.755 101.34 114.888 101.085 114.978C100.835 115.068 100.56 115.113 100.26 115.113ZM100.44 112.15C99.74 112.15 99.1175 111.998 98.5725 111.692C98.0275 111.382 97.6 110.93 97.29 110.335C96.98 109.735 96.825 109.007 96.825 108.152C96.825 107.347 96.9675 106.64 97.2525 106.03C97.5425 105.42 97.9575 104.945 98.4975 104.605C99.0375 104.265 99.685 104.095 100.44 104.095C101.025 104.095 101.543 104.21 101.993 104.44C102.443 104.665 102.808 104.98 103.088 105.385C103.373 105.79 103.545 106.262 103.605 106.802H102.21C102.17 106.547 102.075 106.31 101.925 106.09C101.775 105.87 101.578 105.695 101.333 105.565C101.088 105.43 100.795 105.362 100.455 105.362C99.83 105.362 99.3225 105.59 98.9325 106.045C98.5425 106.5 98.3475 107.197 98.3475 108.137C98.3475 108.997 98.53 109.682 98.895 110.192C99.26 110.702 99.7875 110.957 100.478 110.957C100.818 110.957 101.11 110.887 101.355 110.747C101.6 110.607 101.795 110.427 101.94 110.207C102.09 109.987 102.185 109.76 102.225 109.525H103.59C103.53 110.045 103.358 110.502 103.073 110.898C102.793 111.292 102.428 111.6 101.978 111.82C101.528 112.04 101.015 112.15 100.44 112.15ZM107.551 112.15C107.051 112.15 106.606 112.06 106.216 111.88C105.831 111.7 105.528 111.44 105.308 111.1C105.088 110.76 104.978 110.35 104.978 109.87C104.978 109.01 105.281 108.367 105.886 107.942C106.496 107.517 107.471 107.292 108.811 107.267L110.086 107.23V106.667C110.086 106.222 109.953 105.872 109.688 105.617C109.423 105.362 109.013 105.237 108.458 105.242C108.048 105.242 107.681 105.337 107.356 105.527C107.031 105.717 106.818 106.03 106.718 106.465H105.331C105.361 105.95 105.508 105.517 105.773 105.167C106.043 104.812 106.413 104.545 106.883 104.365C107.353 104.185 107.903 104.095 108.533 104.095C109.243 104.095 109.826 104.192 110.281 104.387C110.736 104.577 111.073 104.857 111.293 105.227C111.518 105.597 111.631 106.047 111.631 106.577V112H110.266L110.146 110.575C109.856 111.17 109.488 111.582 109.043 111.812C108.598 112.038 108.101 112.15 107.551 112.15ZM108.053 111.032C108.298 111.032 108.541 110.99 108.781 110.905C109.021 110.815 109.238 110.695 109.433 110.545C109.628 110.39 109.783 110.217 109.898 110.027C110.018 109.837 110.081 109.642 110.086 109.442V108.16L109.036 108.182C108.501 108.187 108.046 108.242 107.671 108.347C107.301 108.452 107.016 108.615 106.816 108.835C106.621 109.055 106.523 109.347 106.523 109.712C106.523 110.127 106.666 110.452 106.951 110.687C107.241 110.917 107.608 111.032 108.053 111.032ZM106.508 102.91L106.223 102.002C106.393 101.837 106.578 101.697 106.778 101.582C106.978 101.467 107.228 101.41 107.528 101.41C107.783 101.41 108.023 101.445 108.248 101.515C108.473 101.585 108.693 101.657 108.908 101.732C109.128 101.802 109.348 101.837 109.568 101.837C109.803 101.837 110.008 101.792 110.183 101.702C110.358 101.607 110.521 101.505 110.671 101.395L110.918 102.407C110.783 102.512 110.603 102.617 110.378 102.722C110.158 102.822 109.888 102.872 109.568 102.872C109.298 102.872 109.058 102.84 108.848 102.775C108.638 102.705 108.436 102.637 108.241 102.572C108.046 102.507 107.831 102.475 107.596 102.475C107.346 102.475 107.143 102.515 106.988 102.595C106.833 102.675 106.673 102.78 106.508 102.91ZM116.868 112.15C116.143 112.15 115.511 111.995 114.971 111.685C114.431 111.37 114.011 110.915 113.711 110.32C113.411 109.725 113.261 109.005 113.261 108.16C113.261 107.345 113.403 106.632 113.688 106.022C113.973 105.412 114.383 104.94 114.918 104.605C115.458 104.265 116.111 104.095 116.876 104.095C117.606 104.095 118.238 104.255 118.773 104.575C119.308 104.89 119.723 105.352 120.018 105.962C120.313 106.567 120.461 107.3 120.461 108.16C120.461 108.945 120.323 109.637 120.048 110.237C119.773 110.837 119.368 111.307 118.833 111.647C118.303 111.983 117.648 112.15 116.868 112.15ZM116.876 110.912C117.321 110.912 117.691 110.797 117.986 110.567C118.281 110.332 118.503 110.005 118.653 109.585C118.803 109.16 118.878 108.67 118.878 108.115C118.878 107.6 118.811 107.132 118.676 106.712C118.546 106.287 118.333 105.95 118.038 105.7C117.748 105.45 117.361 105.325 116.876 105.325C116.431 105.325 116.056 105.44 115.751 105.67C115.451 105.895 115.226 106.217 115.076 106.637C114.926 107.052 114.851 107.545 114.851 108.115C114.851 108.62 114.918 109.085 115.053 109.51C115.188 109.935 115.403 110.275 115.698 110.53C115.998 110.785 116.391 110.912 116.876 110.912ZM128.396 112.15C127.381 112.15 126.579 111.803 125.989 111.107C125.404 110.407 125.111 109.4 125.111 108.085C125.111 107.28 125.229 106.58 125.464 105.985C125.704 105.385 126.056 104.92 126.521 104.59C126.986 104.26 127.566 104.095 128.261 104.095C128.606 104.095 128.916 104.137 129.191 104.222C129.466 104.307 129.706 104.417 129.911 104.552C130.116 104.687 130.289 104.832 130.429 104.987C130.569 105.142 130.674 105.287 130.744 105.422V100.855H132.364V112H131.156L130.976 110.41C130.921 110.58 130.836 110.765 130.721 110.965C130.611 111.165 130.456 111.355 130.256 111.535C130.061 111.715 129.811 111.862 129.506 111.977C129.201 112.093 128.831 112.15 128.396 112.15ZM128.704 110.942C129.424 110.942 129.944 110.717 130.264 110.267C130.584 109.812 130.744 109.067 130.744 108.032C130.739 107.447 130.666 106.952 130.526 106.547C130.391 106.142 130.176 105.837 129.881 105.632C129.591 105.422 129.209 105.317 128.734 105.317C128.139 105.317 127.651 105.532 127.271 105.962C126.896 106.387 126.709 107.077 126.709 108.032C126.709 108.972 126.879 109.692 127.219 110.192C127.564 110.692 128.059 110.942 128.704 110.942ZM137.893 112.15C137.158 112.15 136.51 111.993 135.95 111.677C135.39 111.357 134.953 110.902 134.638 110.312C134.328 109.722 134.173 109.02 134.173 108.205C134.173 107.4 134.315 106.69 134.6 106.075C134.885 105.455 135.298 104.97 135.838 104.62C136.378 104.27 137.028 104.095 137.788 104.095C138.533 104.095 139.163 104.255 139.678 104.575C140.193 104.895 140.583 105.345 140.848 105.925C141.113 106.5 141.245 107.18 141.245 107.965V108.497H135.785C135.78 108.962 135.855 109.38 136.01 109.75C136.165 110.115 136.395 110.405 136.7 110.62C137.01 110.83 137.395 110.935 137.855 110.935C138.32 110.935 138.72 110.83 139.055 110.62C139.395 110.41 139.618 110.097 139.723 109.682H141.208C141.118 110.212 140.905 110.662 140.57 111.032C140.235 111.402 139.833 111.682 139.363 111.872C138.893 112.058 138.403 112.15 137.893 112.15ZM135.785 107.455H139.715C139.715 107.05 139.645 106.682 139.505 106.352C139.365 106.017 139.15 105.755 138.86 105.565C138.575 105.37 138.215 105.272 137.78 105.272C137.335 105.272 136.965 105.38 136.67 105.595C136.375 105.81 136.153 106.085 136.003 106.42C135.858 106.755 135.785 107.1 135.785 107.455ZM146.559 112V104.245H148.127V105.362C148.252 105.152 148.419 104.955 148.629 104.77C148.844 104.585 149.107 104.435 149.417 104.32C149.732 104.205 150.094 104.147 150.504 104.147C150.989 104.147 151.437 104.245 151.847 104.44C152.262 104.63 152.594 104.93 152.844 105.34C153.094 105.745 153.219 106.27 153.219 106.915V112H151.614V107.087C151.614 106.532 151.464 106.12 151.164 105.85C150.869 105.58 150.487 105.445 150.017 105.445C149.702 105.445 149.402 105.497 149.117 105.602C148.832 105.707 148.602 105.867 148.427 106.082C148.252 106.292 148.164 106.557 148.164 106.877V112H146.559ZM158.455 112.15C157.73 112.15 157.098 111.995 156.558 111.685C156.018 111.37 155.598 110.915 155.298 110.32C154.998 109.725 154.848 109.005 154.848 108.16C154.848 107.345 154.99 106.632 155.275 106.022C155.56 105.412 155.97 104.94 156.505 104.605C157.045 104.265 157.698 104.095 158.463 104.095C159.193 104.095 159.825 104.255 160.36 104.575C160.895 104.89 161.31 105.352 161.605 105.962C161.9 106.567 162.048 107.3 162.048 108.16C162.048 108.945 161.91 109.637 161.635 110.237C161.36 110.837 160.955 111.307 160.42 111.647C159.89 111.983 159.235 112.15 158.455 112.15ZM158.463 110.912C158.908 110.912 159.278 110.797 159.573 110.567C159.868 110.332 160.09 110.005 160.24 109.585C160.39 109.16 160.465 108.67 160.465 108.115C160.465 107.6 160.398 107.132 160.263 106.712C160.133 106.287 159.92 105.95 159.625 105.7C159.335 105.45 158.948 105.325 158.463 105.325C158.018 105.325 157.643 105.44 157.338 105.67C157.038 105.895 156.813 106.217 156.663 106.637C156.513 107.052 156.438 107.545 156.438 108.115C156.438 108.62 156.505 109.085 156.64 109.51C156.775 109.935 156.99 110.275 157.285 110.53C157.585 110.785 157.978 110.912 158.463 110.912ZM165.687 112L162.852 104.245H164.337L166.302 109.967H166.407L168.372 104.245H169.857L167.037 112H165.687ZM174.261 112.15C173.536 112.15 172.903 111.995 172.363 111.685C171.823 111.37 171.403 110.915 171.103 110.32C170.803 109.725 170.653 109.005 170.653 108.16C170.653 107.345 170.796 106.632 171.081 106.022C171.366 105.412 171.776 104.94 172.311 104.605C172.851 104.265 173.503 104.095 174.268 104.095C174.998 104.095 175.631 104.255 176.166 104.575C176.701 104.89 177.116 105.352 177.411 105.962C177.706 106.567 177.853 107.3 177.853 108.16C177.853 108.945 177.716 109.637 177.441 110.237C177.166 110.837 176.761 111.307 176.226 111.647C175.696 111.983 175.041 112.15 174.261 112.15ZM174.268 110.912C174.713 110.912 175.083 110.797 175.378 110.567C175.673 110.332 175.896 110.005 176.046 109.585C176.196 109.16 176.271 108.67 176.271 108.115C176.271 107.6 176.203 107.132 176.068 106.712C175.938 106.287 175.726 105.95 175.431 105.7C175.141 105.45 174.753 105.325 174.268 105.325C173.823 105.325 173.448 105.44 173.143 105.67C172.843 105.895 172.618 106.217 172.468 106.637C172.318 107.052 172.243 107.545 172.243 108.115C172.243 108.62 172.311 109.085 172.446 109.51C172.581 109.935 172.796 110.275 173.091 110.53C173.391 110.785 173.783 110.912 174.268 110.912ZM182.45 112.15C181.91 112.15 181.402 112.065 180.927 111.895C180.457 111.725 180.062 111.457 179.742 111.092C179.427 110.727 179.23 110.26 179.15 109.69H180.582C180.647 109.985 180.77 110.23 180.95 110.425C181.135 110.615 181.355 110.757 181.61 110.852C181.87 110.942 182.147 110.987 182.442 110.987C182.932 110.987 183.33 110.9 183.635 110.725C183.94 110.545 184.092 110.27 184.092 109.9C184.092 109.635 184.01 109.422 183.845 109.262C183.68 109.102 183.422 108.985 183.072 108.91L181.527 108.542C180.887 108.392 180.375 108.155 179.99 107.83C179.605 107.5 179.41 107.04 179.405 106.45C179.405 105.995 179.517 105.59 179.742 105.235C179.972 104.88 180.312 104.602 180.762 104.402C181.217 104.197 181.777 104.095 182.442 104.095C183.317 104.095 184.02 104.29 184.55 104.68C185.085 105.07 185.36 105.635 185.375 106.375H183.987C183.937 106.02 183.775 105.742 183.5 105.542C183.23 105.337 182.872 105.235 182.427 105.235C181.967 105.235 181.59 105.327 181.295 105.512C181 105.692 180.852 105.97 180.852 106.345C180.852 106.6 180.96 106.802 181.175 106.952C181.395 107.097 181.717 107.217 182.142 107.312L183.612 107.68C183.992 107.78 184.305 107.912 184.55 108.077C184.795 108.237 184.987 108.415 185.127 108.61C185.267 108.805 185.365 109.007 185.42 109.217C185.48 109.427 185.51 109.625 185.51 109.81C185.51 110.3 185.385 110.72 185.135 111.07C184.89 111.415 184.54 111.682 184.085 111.872C183.63 112.058 183.085 112.15 182.45 112.15ZM193.78 112.15C193.08 112.15 192.457 111.998 191.912 111.692C191.367 111.382 190.94 110.93 190.63 110.335C190.32 109.735 190.165 109.007 190.165 108.152C190.165 107.347 190.307 106.64 190.592 106.03C190.882 105.42 191.297 104.945 191.837 104.605C192.377 104.265 193.025 104.095 193.78 104.095C194.365 104.095 194.882 104.21 195.332 104.44C195.782 104.665 196.147 104.98 196.427 105.385C196.712 105.79 196.885 106.262 196.945 106.802H195.55C195.51 106.547 195.415 106.31 195.265 106.09C195.115 105.87 194.917 105.695 194.672 105.565C194.427 105.43 194.135 105.362 193.795 105.362C193.17 105.362 192.662 105.59 192.272 106.045C191.882 106.5 191.687 107.197 191.687 108.137C191.687 108.997 191.87 109.682 192.235 110.192C192.6 110.702 193.127 110.957 193.817 110.957C194.157 110.957 194.45 110.887 194.695 110.747C194.94 110.607 195.135 110.427 195.28 110.207C195.43 109.987 195.525 109.76 195.565 109.525H196.93C196.87 110.045 196.697 110.502 196.412 110.898C196.132 111.292 195.767 111.6 195.317 111.82C194.867 112.04 194.355 112.15 193.78 112.15ZM200.778 112.105C200.318 112.105 199.948 112.045 199.668 111.925C199.393 111.805 199.183 111.645 199.038 111.445C198.893 111.24 198.796 111.01 198.746 110.755C198.701 110.495 198.678 110.227 198.678 109.952V100.855H200.261V109.787C200.261 110.147 200.331 110.422 200.471 110.612C200.616 110.802 200.836 110.91 201.131 110.935L201.536 110.95V111.97C201.411 112.01 201.281 112.043 201.146 112.068C201.016 112.093 200.893 112.105 200.778 112.105ZM203.286 112V104.245H204.831V112H203.286ZM203.249 102.745V101.162H204.861V102.745H203.249ZM210.403 112.15C209.668 112.15 209.02 111.993 208.46 111.677C207.9 111.357 207.463 110.902 207.148 110.312C206.838 109.722 206.683 109.02 206.683 108.205C206.683 107.4 206.825 106.69 207.11 106.075C207.395 105.455 207.808 104.97 208.348 104.62C208.888 104.27 209.538 104.095 210.298 104.095C211.043 104.095 211.673 104.255 212.188 104.575C212.703 104.895 213.093 105.345 213.358 105.925C213.623 106.5 213.755 107.18 213.755 107.965V108.497H208.295C208.29 108.962 208.365 109.38 208.52 109.75C208.675 110.115 208.905 110.405 209.21 110.62C209.52 110.83 209.905 110.935 210.365 110.935C210.83 110.935 211.23 110.83 211.565 110.62C211.905 110.41 212.128 110.097 212.233 109.682H213.718C213.628 110.212 213.415 110.662 213.08 111.032C212.745 111.402 212.343 111.682 211.873 111.872C211.403 112.058 210.913 112.15 210.403 112.15ZM208.295 107.455H212.225C212.225 107.05 212.155 106.682 212.015 106.352C211.875 106.017 211.66 105.755 211.37 105.565C211.085 105.37 210.725 105.272 210.29 105.272C209.845 105.272 209.475 105.38 209.18 105.595C208.885 105.81 208.663 106.085 208.513 106.42C208.368 106.755 208.295 107.1 208.295 107.455ZM215.583 112V104.245H217.15V105.362C217.275 105.152 217.443 104.955 217.653 104.77C217.868 104.585 218.13 104.435 218.44 104.32C218.755 104.205 219.118 104.147 219.528 104.147C220.013 104.147 220.46 104.245 220.87 104.44C221.285 104.63 221.618 104.93 221.868 105.34C222.118 105.745 222.243 106.27 222.243 106.915V112H220.638V107.087C220.638 106.532 220.488 106.12 220.188 105.85C219.893 105.58 219.51 105.445 219.04 105.445C218.725 105.445 218.425 105.497 218.14 105.602C217.855 105.707 217.625 105.867 217.45 106.082C217.275 106.292 217.188 106.557 217.188 106.877V112H215.583ZM226.954 112.053C226.379 112.053 225.934 111.975 225.619 111.82C225.304 111.665 225.084 111.442 224.959 111.152C224.834 110.857 224.771 110.502 224.771 110.087V105.4H223.511V104.245H224.824L225.214 101.965H226.384V104.237H228.124V105.4H226.384L226.391 110.027C226.391 110.282 226.416 110.47 226.466 110.59C226.521 110.705 226.611 110.78 226.736 110.815C226.866 110.845 227.041 110.86 227.261 110.86H228.161V111.902C228.066 111.942 227.919 111.977 227.719 112.008C227.524 112.038 227.269 112.053 226.954 112.053ZM233.078 112.15C232.343 112.15 231.696 111.993 231.136 111.677C230.576 111.357 230.138 110.902 229.823 110.312C229.513 109.722 229.358 109.02 229.358 108.205C229.358 107.4 229.501 106.69 229.786 106.075C230.071 105.455 230.483 104.97 231.023 104.62C231.563 104.27 232.213 104.095 232.973 104.095C233.718 104.095 234.348 104.255 234.863 104.575C235.378 104.895 235.768 105.345 236.033 105.925C236.298 106.5 236.431 107.18 236.431 107.965V108.497H230.971C230.966 108.962 231.041 109.38 231.196 109.75C231.351 110.115 231.581 110.405 231.886 110.62C232.196 110.83 232.581 110.935 233.041 110.935C233.506 110.935 233.906 110.83 234.241 110.62C234.581 110.41 234.803 110.097 234.908 109.682H236.393C236.303 110.212 236.091 110.662 235.756 111.032C235.421 111.402 235.018 111.682 234.548 111.872C234.078 112.058 233.588 112.15 233.078 112.15ZM230.971 107.455H234.901C234.901 107.05 234.831 106.682 234.691 106.352C234.551 106.017 234.336 105.755 234.046 105.565C233.761 105.37 233.401 105.272 232.966 105.272C232.521 105.272 232.151 105.38 231.856 105.595C231.561 105.81 231.338 106.085 231.188 106.42C231.043 106.755 230.971 107.1 230.971 107.455ZM241.102 112.15C240.562 112.15 240.054 112.065 239.579 111.895C239.109 111.725 238.714 111.457 238.394 111.092C238.079 110.727 237.882 110.26 237.802 109.69H239.234C239.299 109.985 239.422 110.23 239.602 110.425C239.787 110.615 240.007 110.757 240.262 110.852C240.522 110.942 240.799 110.987 241.094 110.987C241.584 110.987 241.982 110.9 242.287 110.725C242.592 110.545 242.744 110.27 242.744 109.9C242.744 109.635 242.662 109.422 242.497 109.262C242.332 109.102 242.074 108.985 241.724 108.91L240.179 108.542C239.539 108.392 239.027 108.155 238.642 107.83C238.257 107.5 238.062 107.04 238.057 106.45C238.057 105.995 238.169 105.59 238.394 105.235C238.624 104.88 238.964 104.602 239.414 104.402C239.869 104.197 240.429 104.095 241.094 104.095C241.969 104.095 242.672 104.29 243.202 104.68C243.737 105.07 244.012 105.635 244.027 106.375H242.639C242.589 106.02 242.427 105.742 242.152 105.542C241.882 105.337 241.524 105.235 241.079 105.235C240.619 105.235 240.242 105.327 239.947 105.512C239.652 105.692 239.504 105.97 239.504 106.345C239.504 106.6 239.612 106.802 239.827 106.952C240.047 107.097 240.369 107.217 240.794 107.312L242.264 107.68C242.644 107.78 242.957 107.912 243.202 108.077C243.447 108.237 243.639 108.415 243.779 108.61C243.919 108.805 244.017 109.007 244.072 109.217C244.132 109.427 244.162 109.625 244.162 109.81C244.162 110.3 244.037 110.72 243.787 111.07C243.542 111.415 243.192 111.682 242.737 111.872C242.282 112.058 241.737 112.15 241.102 112.15Z" fill="#555555"/>
<g filter="url(#filter0_d_336_8846)">
<rect x="184.9" y="152" width="25.2" height="25.2" rx="4" fill="#EB4699" shape-rendering="crispEdges"/>
<circle cx="197.5" cy="164.6" r="6.75" stroke="white" stroke-width="1.5" stroke-linecap="round" stroke-linejoin="round"/>
<path d="M195.25 164.6H199.75" stroke="white" stroke-width="1.5" stroke-linecap="round" stroke-linejoin="round"/>
<path d="M197.5 162.35V166.85" stroke="white" stroke-width="1.5" stroke-linecap="round" stroke-linejoin="round"/>
</g>
</g>
<defs>
<filter id="filter0_d_336_8846" x="178.5" y="147.6" width="38" height="38" filterUnits="userSpaceOnUse" color-interpolation-filters="sRGB">
<feFlood flood-opacity="0" result="BackgroundImageFix"/>
<feColorMatrix in="SourceAlpha" type="matrix" values="0 0 0 0 0 0 0 0 0 0 0 0 0 0 0 0 0 0 127 0" result="hardAlpha"/>
<feOffset dy="2"/>
<feGaussianBlur stdDeviation="2"/>
<feComposite in2="hardAlpha" operator="out"/>
<feColorMatrix type="matrix" values="0 0 0 0 0.647059 0 0 0 0 0.639216 0 0 0 0 0.682353 0 0 0 0.3 0"/>
<feBlend mode="normal" in2="BackgroundImageFix" result="effect1_dropShadow_336_8846"/>
<feBlend mode="normal" in="SourceGraphic" in2="effect1_dropShadow_336_8846" result="shape"/>
</filter>
</defs>
</svg>
