<svg width="347" height="197" viewBox="0 0 347 197" fill="none" xmlns="http://www.w3.org/2000/svg">
<rect x="16.5" y="24.5" width="314" height="90" rx="7.5" fill="white"/>
<rect x="16.5" y="24.5" width="314" height="90" rx="7.5" stroke="#DADADA"/>
<path d="M47 60.4998H40.5833C39.5708 60.4998 38.75 59.679 38.75 58.6665V49.4998C38.75 48.4873 39.5708 47.6665 40.5833 47.6665H53.4167C54.4292 47.6665 55.25 48.4873 55.25 49.4998V56.3748" stroke="#555555" stroke-width="1.5" stroke-linecap="round" stroke-linejoin="round"/>
<path d="M38.75 49.5L47 55L55.25 49.5" stroke="#555555" stroke-width="1.5" stroke-linecap="round" stroke-linejoin="round"/>
<path d="M49.75 60.4998H55.25" stroke="#555555" stroke-width="1.5" stroke-linecap="round" stroke-linejoin="round"/>
<path d="M52.5 57.75L55.25 60.5L52.5 63.25" stroke="#555555" stroke-width="1.5" stroke-linecap="round" stroke-linejoin="round"/>
<path d="M180.645 61.7231C180.093 61.7231 179.649 61.6511 179.313 61.5071C178.983 61.3631 178.731 61.1711 178.557 60.9311C178.383 60.6851 178.266 60.4091 178.206 60.1031C178.152 59.7911 178.125 59.4701 178.125 59.1401V48.2231H180.024V58.9421C180.024 59.3741 180.108 59.7041 180.276 59.9321C180.45 60.1601 180.714 60.2891 181.068 60.3191L181.554 60.3371V61.5611C181.404 61.6091 181.248 61.6481 181.086 61.6781C180.93 61.7081 180.783 61.7231 180.645 61.7231Z" fill="#555555"/>
<path d="M173.512 61.5973V52.2913H175.366V61.5973H173.512ZM173.467 50.4913V48.5923H175.402V50.4913H173.467Z" fill="#555555"/>
<path d="M166.102 61.7773C165.502 61.7773 164.968 61.6693 164.5 61.4533C164.038 61.2373 163.675 60.9253 163.411 60.5173C163.147 60.1093 163.015 59.6173 163.015 59.0413C163.015 58.0093 163.378 57.2383 164.104 56.7283C164.836 56.2183 166.006 55.9483 167.614 55.9183L169.144 55.8733V55.1983C169.144 54.6643 168.985 54.2443 168.667 53.9383C168.349 53.6323 167.857 53.4823 167.191 53.4883C166.699 53.4883 166.258 53.6023 165.868 53.8303C165.478 54.0583 165.223 54.4333 165.103 54.9553H163.438C163.474 54.3373 163.651 53.8183 163.969 53.3983C164.293 52.9723 164.737 52.6513 165.301 52.4353C165.865 52.2193 166.525 52.1113 167.281 52.1113C168.133 52.1113 168.832 52.2283 169.378 52.4623C169.924 52.6903 170.329 53.0263 170.593 53.4703C170.863 53.9143 170.998 54.4543 170.998 55.0903V61.5973H169.36L169.216 59.8873C168.868 60.6013 168.427 61.0963 167.893 61.3723C167.359 61.6423 166.762 61.7773 166.102 61.7773ZM166.705 60.4363C166.999 60.4363 167.29 60.3853 167.578 60.2833C167.866 60.1753 168.127 60.0313 168.361 59.8513C168.595 59.6653 168.781 59.4583 168.919 59.2303C169.063 59.0023 169.138 58.7683 169.144 58.5283V56.9893L167.884 57.0163C167.242 57.0223 166.696 57.0883 166.246 57.2143C165.802 57.3403 165.46 57.5353 165.22 57.7993C164.986 58.0633 164.869 58.4143 164.869 58.8523C164.869 59.3503 165.04 59.7403 165.382 60.0223C165.73 60.2983 166.171 60.4363 166.705 60.4363Z" fill="#555555"/>
<path d="M147.767 61.5973V52.2913H149.639V53.6323C149.903 53.2243 150.263 52.8703 150.719 52.5703C151.175 52.2643 151.763 52.1113 152.483 52.1113C152.819 52.1113 153.158 52.1683 153.5 52.2823C153.848 52.3963 154.166 52.5673 154.454 52.7953C154.748 53.0173 154.979 53.2933 155.147 53.6233C155.441 53.1793 155.834 52.8163 156.326 52.5343C156.818 52.2523 157.37 52.1113 157.982 52.1113C158.312 52.1113 158.654 52.1653 159.008 52.2733C159.362 52.3753 159.689 52.5523 159.989 52.8043C160.295 53.0503 160.541 53.3923 160.727 53.8303C160.919 54.2683 161.015 54.8233 161.015 55.4953V61.5973H159.08V55.7023C159.08 55.1923 158.993 54.7933 158.819 54.5053C158.651 54.2173 158.429 54.0163 158.153 53.9023C157.883 53.7823 157.595 53.7223 157.289 53.7223C157.013 53.7223 156.725 53.7763 156.425 53.8843C156.125 53.9923 155.87 54.1723 155.66 54.4243C155.45 54.6763 155.345 55.0183 155.345 55.4503V61.5973H153.419V55.2883C153.419 54.9463 153.326 54.6583 153.14 54.4243C152.96 54.1903 152.732 54.0163 152.456 53.9023C152.186 53.7823 151.916 53.7223 151.646 53.7223C151.346 53.7223 151.046 53.7823 150.746 53.9023C150.446 54.0223 150.194 54.2113 149.99 54.4693C149.792 54.7213 149.693 55.0483 149.693 55.4503V61.5973H147.767Z" fill="#555555"/>
<path d="M140.696 57.7003V56.2243L145.358 56.2153V57.6823L140.696 57.7003Z" fill="#555555"/>
<path d="M130.355 61.597V48.583H138.761L138.752 50.257H132.29V54.208H138.059V55.855H132.281V59.896L138.914 59.905V61.597H130.355Z" fill="#555555"/>
<path d="M118.588 61.5973V52.2913H120.433V54.1993C120.589 53.7433 120.805 53.3623 121.081 53.0563C121.363 52.7443 121.69 52.5103 122.062 52.3543C122.434 52.1923 122.827 52.1113 123.241 52.1113C123.367 52.1113 123.487 52.1203 123.601 52.1383C123.715 52.1503 123.805 52.1743 123.871 52.2103V54.0643C123.793 54.0283 123.691 54.0043 123.565 53.9923C123.445 53.9803 123.34 53.9713 123.25 53.9653C122.842 53.9353 122.47 53.9563 122.134 54.0283C121.798 54.1003 121.507 54.2203 121.261 54.3883C121.021 54.5563 120.835 54.7753 120.703 55.0453C120.577 55.3153 120.514 55.6333 120.514 55.9993V61.5973H118.588Z" fill="#555555"/>
<path d="M111.223 61.7773C110.623 61.7773 110.089 61.6693 109.621 61.4533C109.159 61.2373 108.796 60.9253 108.532 60.5173C108.268 60.1093 108.136 59.6173 108.136 59.0413C108.136 58.0093 108.499 57.2383 109.225 56.7283C109.957 56.2183 111.127 55.9483 112.735 55.9183L114.265 55.8733V55.1983C114.265 54.6643 114.106 54.2443 113.788 53.9383C113.47 53.6323 112.978 53.4823 112.312 53.4883C111.82 53.4883 111.379 53.6023 110.989 53.8303C110.599 54.0583 110.344 54.4333 110.224 54.9553H108.559C108.595 54.3373 108.772 53.8183 109.09 53.3983C109.414 52.9723 109.858 52.6513 110.422 52.4353C110.986 52.2193 111.646 52.1113 112.402 52.1113C113.254 52.1113 113.953 52.2283 114.499 52.4623C115.045 52.6903 115.45 53.0263 115.714 53.4703C115.984 53.9143 116.119 54.4543 116.119 55.0903V61.5973H114.481L114.337 59.8873C113.989 60.6013 113.548 61.0963 113.014 61.3723C112.48 61.6423 111.883 61.7773 111.223 61.7773ZM111.826 60.4363C112.12 60.4363 112.411 60.3853 112.699 60.2833C112.987 60.1753 113.248 60.0313 113.482 59.8513C113.716 59.6653 113.902 59.4583 114.04 59.2303C114.184 59.0023 114.259 58.7683 114.265 58.5283V56.9893L113.005 57.0163C112.363 57.0223 111.817 57.0883 111.367 57.2143C110.923 57.3403 110.581 57.5353 110.341 57.7993C110.107 58.0633 109.99 58.4143 109.99 58.8523C109.99 59.3503 110.161 59.7403 110.503 60.0223C110.851 60.2983 111.292 60.4363 111.826 60.4363Z" fill="#555555"/>
<path d="M104.061 61.5973V52.2913H105.915V61.5973H104.061ZM104.016 50.4913V48.5923H105.951V50.4913H104.016Z" fill="#555555"/>
<path d="M97.3323 61.597L93.9303 52.291H95.7123L98.0703 59.158H98.1963L100.554 52.291H102.336L98.9523 61.597H97.3323Z" fill="#555555"/>
<path d="M84.6971 61.5973V52.2913H86.5781V53.6323C86.7281 53.3803 86.9291 53.1433 87.1811 52.9213C87.4391 52.6993 87.7541 52.5193 88.1261 52.3813C88.5041 52.2433 88.9391 52.1743 89.4311 52.1743C90.0131 52.1743 90.5501 52.2913 91.0421 52.5253C91.5401 52.7533 91.9391 53.1133 92.2391 53.6053C92.5391 54.0913 92.6891 54.7213 92.6891 55.4953V61.5973H90.7631V55.7023C90.7631 55.0363 90.5831 54.5413 90.2231 54.2173C89.8691 53.8933 89.4101 53.7313 88.8461 53.7313C88.4681 53.7313 88.1081 53.7943 87.7661 53.9203C87.4241 54.0463 87.1481 54.2383 86.9381 54.4963C86.7281 54.7483 86.6231 55.0663 86.6231 55.4503V61.5973H84.6971Z" fill="#555555"/>
<path d="M74 61.597V48.583H82.406L82.397 50.257H75.935V54.208H81.704V55.855H75.926V59.896L82.559 59.905V61.597H74Z" fill="#555555"/>
<circle cx="300" cy="55.0002" r="0.916667" stroke="#4B465C" stroke-width="1.5" stroke-linecap="round" stroke-linejoin="round"/>
<circle cx="300" cy="55.0002" r="0.916667" stroke="white" stroke-opacity="0.2" stroke-width="1.5" stroke-linecap="round" stroke-linejoin="round"/>
<circle cx="300" cy="61.4167" r="0.916667" stroke="#4B465C" stroke-width="1.5" stroke-linecap="round" stroke-linejoin="round"/>
<circle cx="300" cy="61.4167" r="0.916667" stroke="white" stroke-opacity="0.2" stroke-width="1.5" stroke-linecap="round" stroke-linejoin="round"/>
<circle cx="300" cy="48.5832" r="0.916667" stroke="#4B465C" stroke-width="1.5" stroke-linecap="round" stroke-linejoin="round"/>
<circle cx="300" cy="48.5832" r="0.916667" stroke="white" stroke-opacity="0.2" stroke-width="1.5" stroke-linecap="round" stroke-linejoin="round"/>
<path d="M37.3725 88V77.155H41.6775C42.4825 77.155 43.15 77.28 43.68 77.53C44.21 77.775 44.605 78.125 44.865 78.58C45.125 79.035 45.255 79.5725 45.255 80.1925C45.255 80.7775 45.155 81.265 44.955 81.655C44.76 82.045 44.505 82.3625 44.19 82.6075C43.88 82.8525 43.5525 83.045 43.2075 83.185L45.3075 88H43.62L41.7 83.4625H38.9775V88H37.3725ZM38.9775 82.165H41.2425C41.9975 82.165 42.5825 82.0025 42.9975 81.6775C43.4125 81.3475 43.62 80.8775 43.62 80.2675C43.62 79.6675 43.43 79.2125 43.05 78.9025C42.675 78.5925 42.165 78.4375 41.52 78.4375H38.9775V82.165ZM50.4231 88.15C49.6881 88.15 49.0406 87.9925 48.4806 87.6775C47.9206 87.3575 47.4831 86.9025 47.1681 86.3125C46.8581 85.7225 46.7031 85.02 46.7031 84.205C46.7031 83.4 46.8456 82.69 47.1306 82.075C47.4156 81.455 47.8281 80.97 48.3681 80.62C48.9081 80.27 49.5581 80.095 50.3181 80.095C51.0631 80.095 51.6931 80.255 52.2081 80.575C52.7231 80.895 53.1131 81.345 53.3781 81.925C53.6431 82.5 53.7756 83.18 53.7756 83.965V84.4975H48.3156C48.3106 84.9625 48.3856 85.38 48.5406 85.75C48.6956 86.115 48.9256 86.405 49.2306 86.62C49.5406 86.83 49.9256 86.935 50.3856 86.935C50.8506 86.935 51.2506 86.83 51.5856 86.62C51.9256 86.41 52.1481 86.0975 52.2531 85.6825H53.7381C53.6481 86.2125 53.4356 86.6625 53.1006 87.0325C52.7656 87.4025 52.3631 87.6825 51.8931 87.8725C51.4231 88.0575 50.9331 88.15 50.4231 88.15ZM48.3156 83.455H52.2456C52.2456 83.05 52.1756 82.6825 52.0356 82.3525C51.8956 82.0175 51.6806 81.755 51.3906 81.565C51.1056 81.37 50.7456 81.2725 50.3106 81.2725C49.8656 81.2725 49.4956 81.38 49.2006 81.595C48.9056 81.81 48.6831 82.085 48.5331 82.42C48.3881 82.755 48.3156 83.1 48.3156 83.455ZM58.7906 88.15C58.0906 88.15 57.4681 87.9975 56.9231 87.6925C56.3781 87.3825 55.9506 86.93 55.6406 86.335C55.3306 85.735 55.1756 85.0075 55.1756 84.1525C55.1756 83.3475 55.3181 82.64 55.6031 82.03C55.8931 81.42 56.3081 80.945 56.8481 80.605C57.3881 80.265 58.0356 80.095 58.7906 80.095C59.3756 80.095 59.8931 80.21 60.3431 80.44C60.7931 80.665 61.1581 80.98 61.4381 81.385C61.7231 81.79 61.8956 82.2625 61.9556 82.8025H60.5606C60.5206 82.5475 60.4256 82.31 60.2756 82.09C60.1256 81.87 59.9281 81.695 59.6831 81.565C59.4381 81.43 59.1456 81.3625 58.8056 81.3625C58.1806 81.3625 57.6731 81.59 57.2831 82.045C56.8931 82.5 56.6981 83.1975 56.6981 84.1375C56.6981 84.9975 56.8806 85.6825 57.2456 86.1925C57.6106 86.7025 58.1381 86.9575 58.8281 86.9575C59.1681 86.9575 59.4606 86.8875 59.7056 86.7475C59.9506 86.6075 60.1456 86.4275 60.2906 86.2075C60.4406 85.9875 60.5356 85.76 60.5756 85.525H61.9406C61.8806 86.045 61.7081 86.5025 61.4231 86.8975C61.1431 87.2925 60.7781 87.6 60.3281 87.82C59.8781 88.04 59.3656 88.15 58.7906 88.15ZM67.093 88.15C66.358 88.15 65.7105 87.9925 65.1505 87.6775C64.5905 87.3575 64.153 86.9025 63.838 86.3125C63.528 85.7225 63.373 85.02 63.373 84.205C63.373 83.4 63.5155 82.69 63.8005 82.075C64.0855 81.455 64.498 80.97 65.038 80.62C65.578 80.27 66.228 80.095 66.988 80.095C67.733 80.095 68.363 80.255 68.878 80.575C69.393 80.895 69.783 81.345 70.048 81.925C70.313 82.5 70.4455 83.18 70.4455 83.965V84.4975H64.9855C64.9805 84.9625 65.0555 85.38 65.2105 85.75C65.3655 86.115 65.5955 86.405 65.9005 86.62C66.2105 86.83 66.5955 86.935 67.0555 86.935C67.5205 86.935 67.9205 86.83 68.2555 86.62C68.5955 86.41 68.818 86.0975 68.923 85.6825H70.408C70.318 86.2125 70.1055 86.6625 69.7705 87.0325C69.4355 87.4025 69.033 87.6825 68.563 87.8725C68.093 88.0575 67.603 88.15 67.093 88.15ZM64.9855 83.455H68.9155C68.9155 83.05 68.8455 82.6825 68.7055 82.3525C68.5655 82.0175 68.3505 81.755 68.0605 81.565C67.7755 81.37 67.4155 81.2725 66.9805 81.2725C66.5355 81.2725 66.1655 81.38 65.8705 81.595C65.5755 81.81 65.353 82.085 65.203 82.42C65.058 82.755 64.9855 83.1 64.9855 83.455ZM72.273 90.415V80.245H73.878L73.893 81.535C73.988 81.365 74.1105 81.1975 74.2605 81.0325C74.4105 80.8625 74.588 80.7075 74.793 80.5675C75.003 80.4225 75.2405 80.3075 75.5055 80.2225C75.7755 80.1375 76.073 80.095 76.398 80.095C77.008 80.095 77.5455 80.2375 78.0105 80.5225C78.4805 80.8025 78.8455 81.235 79.1055 81.82C79.3705 82.4 79.503 83.1375 79.503 84.0325C79.503 84.9325 79.3705 85.6875 79.1055 86.2975C78.8455 86.9075 78.473 87.37 77.988 87.685C77.503 87.995 76.928 88.15 76.263 88.15C75.943 88.15 75.6555 88.105 75.4005 88.015C75.1455 87.925 74.9205 87.8075 74.7255 87.6625C74.5305 87.5125 74.363 87.3525 74.223 87.1825C74.088 87.0075 73.9755 86.835 73.8855 86.665V90.415H72.273ZM75.9255 86.9275C76.5205 86.9275 77.008 86.6975 77.388 86.2375C77.773 85.7725 77.9655 85.0475 77.9655 84.0625C77.9655 83.2175 77.788 82.55 77.433 82.06C77.083 81.565 76.5805 81.3175 75.9255 81.3175C75.2505 81.3175 74.7405 81.575 74.3955 82.09C74.0505 82.6 73.878 83.2575 73.878 84.0625C73.878 84.5875 73.953 85.0675 74.103 85.5025C74.258 85.9325 74.488 86.2775 74.793 86.5375C75.098 86.7975 75.4755 86.9275 75.9255 86.9275ZM84.26 91.1125C83.98 91.1125 83.7125 91.0825 83.4575 91.0225C83.2075 90.9625 82.9725 90.865 82.7525 90.73L83 90.1075C83.14 90.2025 83.2975 90.285 83.4725 90.355C83.6475 90.43 83.845 90.4675 84.065 90.4675C84.33 90.4675 84.5275 90.42 84.6575 90.325C84.7925 90.235 84.86 90.1075 84.86 89.9425C84.86 89.7275 84.765 89.5675 84.575 89.4625C84.39 89.3575 84.0775 89.3 83.6375 89.29C83.5875 89.29 83.555 89.2825 83.54 89.2675C83.525 89.2525 83.525 89.2225 83.54 89.1775L84.0875 87.925H84.8825L84.5375 88.825C84.8875 88.835 85.1625 88.8975 85.3625 89.0125C85.5675 89.1275 85.7125 89.2675 85.7975 89.4325C85.8875 89.6025 85.9325 89.7725 85.9325 89.9425C85.9325 90.1925 85.855 90.405 85.7 90.58C85.545 90.755 85.34 90.8875 85.085 90.9775C84.835 91.0675 84.56 91.1125 84.26 91.1125ZM84.44 88.15C83.74 88.15 83.1175 87.9975 82.5725 87.6925C82.0275 87.3825 81.6 86.93 81.29 86.335C80.98 85.735 80.825 85.0075 80.825 84.1525C80.825 83.3475 80.9675 82.64 81.2525 82.03C81.5425 81.42 81.9575 80.945 82.4975 80.605C83.0375 80.265 83.685 80.095 84.44 80.095C85.025 80.095 85.5425 80.21 85.9925 80.44C86.4425 80.665 86.8075 80.98 87.0875 81.385C87.3725 81.79 87.545 82.2625 87.605 82.8025H86.21C86.17 82.5475 86.075 82.31 85.925 82.09C85.775 81.87 85.5775 81.695 85.3325 81.565C85.0875 81.43 84.795 81.3625 84.455 81.3625C83.83 81.3625 83.3225 81.59 82.9325 82.045C82.5425 82.5 82.3475 83.1975 82.3475 84.1375C82.3475 84.9975 82.53 85.6825 82.895 86.1925C83.26 86.7025 83.7875 86.9575 84.4775 86.9575C84.8175 86.9575 85.11 86.8875 85.355 86.7475C85.6 86.6075 85.795 86.4275 85.94 86.2075C86.09 85.9875 86.185 85.76 86.225 85.525H87.59C87.53 86.045 87.3575 86.5025 87.0725 86.8975C86.7925 87.2925 86.4275 87.6 85.9775 87.82C85.5275 88.04 85.015 88.15 84.44 88.15ZM91.551 88.15C91.051 88.15 90.606 88.06 90.216 87.88C89.831 87.7 89.5285 87.44 89.3085 87.1C89.0885 86.76 88.9785 86.35 88.9785 85.87C88.9785 85.01 89.281 84.3675 89.886 83.9425C90.496 83.5175 91.471 83.2925 92.811 83.2675L94.086 83.23V82.6675C94.086 82.2225 93.9535 81.8725 93.6885 81.6175C93.4235 81.3625 93.0135 81.2375 92.4585 81.2425C92.0485 81.2425 91.681 81.3375 91.356 81.5275C91.031 81.7175 90.8185 82.03 90.7185 82.465H89.331C89.361 81.95 89.5085 81.5175 89.7735 81.1675C90.0435 80.8125 90.4135 80.545 90.8835 80.365C91.3535 80.185 91.9035 80.095 92.5335 80.095C93.2435 80.095 93.826 80.1925 94.281 80.3875C94.736 80.5775 95.0735 80.8575 95.2935 81.2275C95.5185 81.5975 95.631 82.0475 95.631 82.5775V88H94.266L94.146 86.575C93.856 87.17 93.4885 87.5825 93.0435 87.8125C92.5985 88.0375 92.101 88.15 91.551 88.15ZM92.0535 87.0325C92.2985 87.0325 92.541 86.99 92.781 86.905C93.021 86.815 93.2385 86.695 93.4335 86.545C93.6285 86.39 93.7835 86.2175 93.8985 86.0275C94.0185 85.8375 94.081 85.6425 94.086 85.4425V84.16L93.036 84.1825C92.501 84.1875 92.046 84.2425 91.671 84.3475C91.301 84.4525 91.016 84.615 90.816 84.835C90.621 85.055 90.5235 85.3475 90.5235 85.7125C90.5235 86.1275 90.666 86.4525 90.951 86.6875C91.241 86.9175 91.6085 87.0325 92.0535 87.0325ZM90.5085 78.91L90.2235 78.0025C90.3935 77.8375 90.5785 77.6975 90.7785 77.5825C90.9785 77.4675 91.2285 77.41 91.5285 77.41C91.7835 77.41 92.0235 77.445 92.2485 77.515C92.4735 77.585 92.6935 77.6575 92.9085 77.7325C93.1285 77.8025 93.3485 77.8375 93.5685 77.8375C93.8035 77.8375 94.0085 77.7925 94.1835 77.7025C94.3585 77.6075 94.521 77.505 94.671 77.395L94.9185 78.4075C94.7835 78.5125 94.6035 78.6175 94.3785 78.7225C94.1585 78.8225 93.8885 78.8725 93.5685 78.8725C93.2985 78.8725 93.0585 78.84 92.8485 78.775C92.6385 78.705 92.436 78.6375 92.241 78.5725C92.046 78.5075 91.831 78.475 91.596 78.475C91.346 78.475 91.1435 78.515 90.9885 78.595C90.8335 78.675 90.6735 78.78 90.5085 78.91ZM100.868 88.15C100.143 88.15 99.5106 87.995 98.9706 87.685C98.4306 87.37 98.0106 86.915 97.7106 86.32C97.4106 85.725 97.2606 85.005 97.2606 84.16C97.2606 83.345 97.4031 82.6325 97.6881 82.0225C97.9731 81.4125 98.3831 80.94 98.9181 80.605C99.4581 80.265 100.111 80.095 100.876 80.095C101.606 80.095 102.238 80.255 102.773 80.575C103.308 80.89 103.723 81.3525 104.018 81.9625C104.313 82.5675 104.461 83.3 104.461 84.16C104.461 84.945 104.323 85.6375 104.048 86.2375C103.773 86.8375 103.368 87.3075 102.833 87.6475C102.303 87.9825 101.648 88.15 100.868 88.15ZM100.876 86.9125C101.321 86.9125 101.691 86.7975 101.986 86.5675C102.281 86.3325 102.503 86.005 102.653 85.585C102.803 85.16 102.878 84.67 102.878 84.115C102.878 83.6 102.811 83.1325 102.676 82.7125C102.546 82.2875 102.333 81.95 102.038 81.7C101.748 81.45 101.361 81.325 100.876 81.325C100.431 81.325 100.056 81.44 99.7506 81.67C99.4506 81.895 99.2256 82.2175 99.0756 82.6375C98.9256 83.0525 98.8506 83.545 98.8506 84.115C98.8506 84.62 98.9181 85.085 99.0531 85.51C99.1881 85.935 99.4031 86.275 99.6981 86.53C99.9981 86.785 100.391 86.9125 100.876 86.9125ZM112.396 88.15C111.381 88.15 110.579 87.8025 109.989 87.1075C109.404 86.4075 109.111 85.4 109.111 84.085C109.111 83.28 109.229 82.58 109.464 81.985C109.704 81.385 110.056 80.92 110.521 80.59C110.986 80.26 111.566 80.095 112.261 80.095C112.606 80.095 112.916 80.1375 113.191 80.2225C113.466 80.3075 113.706 80.4175 113.911 80.5525C114.116 80.6875 114.289 80.8325 114.429 80.9875C114.569 81.1425 114.674 81.2875 114.744 81.4225V76.855H116.364V88H115.156L114.976 86.41C114.921 86.58 114.836 86.765 114.721 86.965C114.611 87.165 114.456 87.355 114.256 87.535C114.061 87.715 113.811 87.8625 113.506 87.9775C113.201 88.0925 112.831 88.15 112.396 88.15ZM112.704 86.9425C113.424 86.9425 113.944 86.7175 114.264 86.2675C114.584 85.8125 114.744 85.0675 114.744 84.0325C114.739 83.4475 114.666 82.9525 114.526 82.5475C114.391 82.1425 114.176 81.8375 113.881 81.6325C113.591 81.4225 113.209 81.3175 112.734 81.3175C112.139 81.3175 111.651 81.5325 111.271 81.9625C110.896 82.3875 110.709 83.0775 110.709 84.0325C110.709 84.9725 110.879 85.6925 111.219 86.1925C111.564 86.6925 112.059 86.9425 112.704 86.9425ZM121.893 88.15C121.158 88.15 120.51 87.9925 119.95 87.6775C119.39 87.3575 118.953 86.9025 118.638 86.3125C118.328 85.7225 118.173 85.02 118.173 84.205C118.173 83.4 118.315 82.69 118.6 82.075C118.885 81.455 119.298 80.97 119.838 80.62C120.378 80.27 121.028 80.095 121.788 80.095C122.533 80.095 123.163 80.255 123.678 80.575C124.193 80.895 124.583 81.345 124.848 81.925C125.113 82.5 125.245 83.18 125.245 83.965V84.4975H119.785C119.78 84.9625 119.855 85.38 120.01 85.75C120.165 86.115 120.395 86.405 120.7 86.62C121.01 86.83 121.395 86.935 121.855 86.935C122.32 86.935 122.72 86.83 123.055 86.62C123.395 86.41 123.618 86.0975 123.723 85.6825H125.208C125.118 86.2125 124.905 86.6625 124.57 87.0325C124.235 87.4025 123.833 87.6825 123.363 87.8725C122.893 88.0575 122.403 88.15 121.893 88.15ZM119.785 83.455H123.715C123.715 83.05 123.645 82.6825 123.505 82.3525C123.365 82.0175 123.15 81.755 122.86 81.565C122.575 81.37 122.215 81.2725 121.78 81.2725C121.335 81.2725 120.965 81.38 120.67 81.595C120.375 81.81 120.153 82.085 120.003 82.42C119.858 82.755 119.785 83.1 119.785 83.455ZM130.559 88V80.245H132.127V81.3625C132.252 81.1525 132.419 80.955 132.629 80.77C132.844 80.585 133.107 80.435 133.417 80.32C133.732 80.205 134.094 80.1475 134.504 80.1475C134.989 80.1475 135.437 80.245 135.847 80.44C136.262 80.63 136.594 80.93 136.844 81.34C137.094 81.745 137.219 82.27 137.219 82.915V88H135.614V83.0875C135.614 82.5325 135.464 82.12 135.164 81.85C134.869 81.58 134.487 81.445 134.017 81.445C133.702 81.445 133.402 81.4975 133.117 81.6025C132.832 81.7075 132.602 81.8675 132.427 82.0825C132.252 82.2925 132.164 82.5575 132.164 82.8775V88H130.559ZM142.455 88.15C141.73 88.15 141.098 87.995 140.558 87.685C140.018 87.37 139.598 86.915 139.298 86.32C138.998 85.725 138.848 85.005 138.848 84.16C138.848 83.345 138.99 82.6325 139.275 82.0225C139.56 81.4125 139.97 80.94 140.505 80.605C141.045 80.265 141.698 80.095 142.463 80.095C143.193 80.095 143.825 80.255 144.36 80.575C144.895 80.89 145.31 81.3525 145.605 81.9625C145.9 82.5675 146.048 83.3 146.048 84.16C146.048 84.945 145.91 85.6375 145.635 86.2375C145.36 86.8375 144.955 87.3075 144.42 87.6475C143.89 87.9825 143.235 88.15 142.455 88.15ZM142.463 86.9125C142.908 86.9125 143.278 86.7975 143.573 86.5675C143.868 86.3325 144.09 86.005 144.24 85.585C144.39 85.16 144.465 84.67 144.465 84.115C144.465 83.6 144.398 83.1325 144.263 82.7125C144.133 82.2875 143.92 81.95 143.625 81.7C143.335 81.45 142.948 81.325 142.463 81.325C142.018 81.325 141.643 81.44 141.338 81.67C141.038 81.895 140.813 82.2175 140.663 82.6375C140.513 83.0525 140.438 83.545 140.438 84.115C140.438 84.62 140.505 85.085 140.64 85.51C140.775 85.935 140.99 86.275 141.285 86.53C141.585 86.785 141.978 86.9125 142.463 86.9125ZM149.687 88L146.852 80.245H148.337L150.302 85.9675H150.407L152.372 80.245H153.857L151.037 88H149.687ZM158.261 88.15C157.536 88.15 156.903 87.995 156.363 87.685C155.823 87.37 155.403 86.915 155.103 86.32C154.803 85.725 154.653 85.005 154.653 84.16C154.653 83.345 154.796 82.6325 155.081 82.0225C155.366 81.4125 155.776 80.94 156.311 80.605C156.851 80.265 157.503 80.095 158.268 80.095C158.998 80.095 159.631 80.255 160.166 80.575C160.701 80.89 161.116 81.3525 161.411 81.9625C161.706 82.5675 161.853 83.3 161.853 84.16C161.853 84.945 161.716 85.6375 161.441 86.2375C161.166 86.8375 160.761 87.3075 160.226 87.6475C159.696 87.9825 159.041 88.15 158.261 88.15ZM158.268 86.9125C158.713 86.9125 159.083 86.7975 159.378 86.5675C159.673 86.3325 159.896 86.005 160.046 85.585C160.196 85.16 160.271 84.67 160.271 84.115C160.271 83.6 160.203 83.1325 160.068 82.7125C159.938 82.2875 159.726 81.95 159.431 81.7C159.141 81.45 158.753 81.325 158.268 81.325C157.823 81.325 157.448 81.44 157.143 81.67C156.843 81.895 156.618 82.2175 156.468 82.6375C156.318 83.0525 156.243 83.545 156.243 84.115C156.243 84.62 156.311 85.085 156.446 85.51C156.581 85.935 156.796 86.275 157.091 86.53C157.391 86.785 157.783 86.9125 158.268 86.9125ZM166.45 88.15C165.91 88.15 165.402 88.065 164.927 87.895C164.457 87.725 164.062 87.4575 163.742 87.0925C163.427 86.7275 163.23 86.26 163.15 85.69H164.582C164.647 85.985 164.77 86.23 164.95 86.425C165.135 86.615 165.355 86.7575 165.61 86.8525C165.87 86.9425 166.147 86.9875 166.442 86.9875C166.932 86.9875 167.33 86.9 167.635 86.725C167.94 86.545 168.092 86.27 168.092 85.9C168.092 85.635 168.01 85.4225 167.845 85.2625C167.68 85.1025 167.422 84.985 167.072 84.91L165.527 84.5425C164.887 84.3925 164.375 84.155 163.99 83.83C163.605 83.5 163.41 83.04 163.405 82.45C163.405 81.995 163.517 81.59 163.742 81.235C163.972 80.88 164.312 80.6025 164.762 80.4025C165.217 80.1975 165.777 80.095 166.442 80.095C167.317 80.095 168.02 80.29 168.55 80.68C169.085 81.07 169.36 81.635 169.375 82.375H167.987C167.937 82.02 167.775 81.7425 167.5 81.5425C167.23 81.3375 166.872 81.235 166.427 81.235C165.967 81.235 165.59 81.3275 165.295 81.5125C165 81.6925 164.852 81.97 164.852 82.345C164.852 82.6 164.96 82.8025 165.175 82.9525C165.395 83.0975 165.717 83.2175 166.142 83.3125L167.612 83.68C167.992 83.78 168.305 83.9125 168.55 84.0775C168.795 84.2375 168.987 84.415 169.127 84.61C169.267 84.805 169.365 85.0075 169.42 85.2175C169.48 85.4275 169.51 85.625 169.51 85.81C169.51 86.3 169.385 86.72 169.135 87.07C168.89 87.415 168.54 87.6825 168.085 87.8725C167.63 88.0575 167.085 88.15 166.45 88.15ZM177.78 88.15C177.08 88.15 176.457 87.9975 175.912 87.6925C175.367 87.3825 174.94 86.93 174.63 86.335C174.32 85.735 174.165 85.0075 174.165 84.1525C174.165 83.3475 174.307 82.64 174.592 82.03C174.882 81.42 175.297 80.945 175.837 80.605C176.377 80.265 177.025 80.095 177.78 80.095C178.365 80.095 178.882 80.21 179.332 80.44C179.782 80.665 180.147 80.98 180.427 81.385C180.712 81.79 180.885 82.2625 180.945 82.8025H179.55C179.51 82.5475 179.415 82.31 179.265 82.09C179.115 81.87 178.917 81.695 178.672 81.565C178.427 81.43 178.135 81.3625 177.795 81.3625C177.17 81.3625 176.662 81.59 176.272 82.045C175.882 82.5 175.687 83.1975 175.687 84.1375C175.687 84.9975 175.87 85.6825 176.235 86.1925C176.6 86.7025 177.127 86.9575 177.817 86.9575C178.157 86.9575 178.45 86.8875 178.695 86.7475C178.94 86.6075 179.135 86.4275 179.28 86.2075C179.43 85.9875 179.525 85.76 179.565 85.525H180.93C180.87 86.045 180.697 86.5025 180.412 86.8975C180.132 87.2925 179.767 87.6 179.317 87.82C178.867 88.04 178.355 88.15 177.78 88.15ZM184.778 88.105C184.318 88.105 183.948 88.045 183.668 87.925C183.393 87.805 183.183 87.645 183.038 87.445C182.893 87.24 182.796 87.01 182.746 86.755C182.701 86.495 182.678 86.2275 182.678 85.9525V76.855H184.261V85.7875C184.261 86.1475 184.331 86.4225 184.471 86.6125C184.616 86.8025 184.836 86.91 185.131 86.935L185.536 86.95V87.97C185.411 88.01 185.281 88.0425 185.146 88.0675C185.016 88.0925 184.893 88.105 184.778 88.105ZM187.286 88V80.245H188.831V88H187.286ZM187.249 78.745V77.1625H188.861V78.745H187.249ZM194.403 88.15C193.668 88.15 193.02 87.9925 192.46 87.6775C191.9 87.3575 191.463 86.9025 191.148 86.3125C190.838 85.7225 190.683 85.02 190.683 84.205C190.683 83.4 190.825 82.69 191.11 82.075C191.395 81.455 191.808 80.97 192.348 80.62C192.888 80.27 193.538 80.095 194.298 80.095C195.043 80.095 195.673 80.255 196.188 80.575C196.703 80.895 197.093 81.345 197.358 81.925C197.623 82.5 197.755 83.18 197.755 83.965V84.4975H192.295C192.29 84.9625 192.365 85.38 192.52 85.75C192.675 86.115 192.905 86.405 193.21 86.62C193.52 86.83 193.905 86.935 194.365 86.935C194.83 86.935 195.23 86.83 195.565 86.62C195.905 86.41 196.128 86.0975 196.233 85.6825H197.718C197.628 86.2125 197.415 86.6625 197.08 87.0325C196.745 87.4025 196.343 87.6825 195.873 87.8725C195.403 88.0575 194.913 88.15 194.403 88.15ZM192.295 83.455H196.225C196.225 83.05 196.155 82.6825 196.015 82.3525C195.875 82.0175 195.66 81.755 195.37 81.565C195.085 81.37 194.725 81.2725 194.29 81.2725C193.845 81.2725 193.475 81.38 193.18 81.595C192.885 81.81 192.663 82.085 192.513 82.42C192.368 82.755 192.295 83.1 192.295 83.455ZM199.583 88V80.245H201.15V81.3625C201.275 81.1525 201.443 80.955 201.653 80.77C201.868 80.585 202.13 80.435 202.44 80.32C202.755 80.205 203.118 80.1475 203.528 80.1475C204.013 80.1475 204.46 80.245 204.87 80.44C205.285 80.63 205.618 80.93 205.868 81.34C206.118 81.745 206.243 82.27 206.243 82.915V88H204.638V83.0875C204.638 82.5325 204.488 82.12 204.188 81.85C203.893 81.58 203.51 81.445 203.04 81.445C202.725 81.445 202.425 81.4975 202.14 81.6025C201.855 81.7075 201.625 81.8675 201.45 82.0825C201.275 82.2925 201.188 82.5575 201.188 82.8775V88H199.583ZM210.954 88.0525C210.379 88.0525 209.934 87.975 209.619 87.82C209.304 87.665 209.084 87.4425 208.959 87.1525C208.834 86.8575 208.771 86.5025 208.771 86.0875V81.4H207.511V80.245H208.824L209.214 77.965H210.384V80.2375H212.124V81.4H210.384L210.391 86.0275C210.391 86.2825 210.416 86.47 210.466 86.59C210.521 86.705 210.611 86.78 210.736 86.815C210.866 86.845 211.041 86.86 211.261 86.86H212.161V87.9025C212.066 87.9425 211.919 87.9775 211.719 88.0075C211.524 88.0375 211.269 88.0525 210.954 88.0525ZM217.078 88.15C216.343 88.15 215.696 87.9925 215.136 87.6775C214.576 87.3575 214.138 86.9025 213.823 86.3125C213.513 85.7225 213.358 85.02 213.358 84.205C213.358 83.4 213.501 82.69 213.786 82.075C214.071 81.455 214.483 80.97 215.023 80.62C215.563 80.27 216.213 80.095 216.973 80.095C217.718 80.095 218.348 80.255 218.863 80.575C219.378 80.895 219.768 81.345 220.033 81.925C220.298 82.5 220.431 83.18 220.431 83.965V84.4975H214.971C214.966 84.9625 215.041 85.38 215.196 85.75C215.351 86.115 215.581 86.405 215.886 86.62C216.196 86.83 216.581 86.935 217.041 86.935C217.506 86.935 217.906 86.83 218.241 86.62C218.581 86.41 218.803 86.0975 218.908 85.6825H220.393C220.303 86.2125 220.091 86.6625 219.756 87.0325C219.421 87.4025 219.018 87.6825 218.548 87.8725C218.078 88.0575 217.588 88.15 217.078 88.15ZM214.971 83.455H218.901C218.901 83.05 218.831 82.6825 218.691 82.3525C218.551 82.0175 218.336 81.755 218.046 81.565C217.761 81.37 217.401 81.2725 216.966 81.2725C216.521 81.2725 216.151 81.38 215.856 81.595C215.561 81.81 215.338 82.085 215.188 82.42C215.043 82.755 214.971 83.1 214.971 83.455ZM225.102 88.15C224.562 88.15 224.054 88.065 223.579 87.895C223.109 87.725 222.714 87.4575 222.394 87.0925C222.079 86.7275 221.882 86.26 221.802 85.69H223.234C223.299 85.985 223.422 86.23 223.602 86.425C223.787 86.615 224.007 86.7575 224.262 86.8525C224.522 86.9425 224.799 86.9875 225.094 86.9875C225.584 86.9875 225.982 86.9 226.287 86.725C226.592 86.545 226.744 86.27 226.744 85.9C226.744 85.635 226.662 85.4225 226.497 85.2625C226.332 85.1025 226.074 84.985 225.724 84.91L224.179 84.5425C223.539 84.3925 223.027 84.155 222.642 83.83C222.257 83.5 222.062 83.04 222.057 82.45C222.057 81.995 222.169 81.59 222.394 81.235C222.624 80.88 222.964 80.6025 223.414 80.4025C223.869 80.1975 224.429 80.095 225.094 80.095C225.969 80.095 226.672 80.29 227.202 80.68C227.737 81.07 228.012 81.635 228.027 82.375H226.639C226.589 82.02 226.427 81.7425 226.152 81.5425C225.882 81.3375 225.524 81.235 225.079 81.235C224.619 81.235 224.242 81.3275 223.947 81.5125C223.652 81.6925 223.504 81.97 223.504 82.345C223.504 82.6 223.612 82.8025 223.827 82.9525C224.047 83.0975 224.369 83.2175 224.794 83.3125L226.264 83.68C226.644 83.78 226.957 83.9125 227.202 84.0775C227.447 84.2375 227.639 84.415 227.779 84.61C227.919 84.805 228.017 85.0075 228.072 85.2175C228.132 85.4275 228.162 85.625 228.162 85.81C228.162 86.3 228.037 86.72 227.787 87.07C227.542 87.415 227.192 87.6825 226.737 87.8725C226.282 88.0575 225.737 88.15 225.102 88.15Z" fill="#555555"/>
<path d="M169.179 149.789C168.94 149.542 168.94 149.141 169.179 148.894C169.418 148.646 169.805 148.646 170.044 148.894L172.889 151.84L172.889 129.688C171.381 129.392 170.241 128.021 170.241 126.374C170.241 124.511 171.7 123 173.5 123C175.3 123 176.759 124.511 176.759 126.374C176.759 128.021 175.619 129.392 174.111 129.688L174.111 151.84L176.956 148.894C177.195 148.646 177.582 148.646 177.821 148.894C178.06 149.141 178.06 149.542 177.821 149.789L173.932 153.815C173.693 154.062 173.307 154.062 173.068 153.815L169.179 149.789Z" fill="#EB4699"/>
<g filter="url(#filter0_d_325_3236)">
<rect x="160.9" y="162" width="25.2" height="25.2" rx="4" fill="#EB4699" shape-rendering="crispEdges"/>
<circle cx="173.5" cy="174.6" r="6.75" stroke="white" stroke-width="1.5" stroke-linecap="round" stroke-linejoin="round"/>
<path d="M171.25 174.6H175.75" stroke="white" stroke-width="1.5" stroke-linecap="round" stroke-linejoin="round"/>
<path d="M173.5 172.35V176.85" stroke="white" stroke-width="1.5" stroke-linecap="round" stroke-linejoin="round"/>
</g>
<defs>
<filter id="filter0_d_325_3236" x="154.5" y="157.6" width="38" height="38" filterUnits="userSpaceOnUse" color-interpolation-filters="sRGB">
<feFlood flood-opacity="0" result="BackgroundImageFix"/>
<feColorMatrix in="SourceAlpha" type="matrix" values="0 0 0 0 0 0 0 0 0 0 0 0 0 0 0 0 0 0 127 0" result="hardAlpha"/>
<feOffset dy="2"/>
<feGaussianBlur stdDeviation="2"/>
<feComposite in2="hardAlpha" operator="out"/>
<feColorMatrix type="matrix" values="0 0 0 0 0.647059 0 0 0 0 0.639216 0 0 0 0 0.682353 0 0 0 0.3 0"/>
<feBlend mode="normal" in2="BackgroundImageFix" result="effect1_dropShadow_325_3236"/>
<feBlend mode="normal" in="SourceGraphic" in2="effect1_dropShadow_325_3236" result="shape"/>
</filter>
</defs>
</svg>
