<svg width="92" height="20" viewBox="0 0 92 20" fill="none" xmlns="http://www.w3.org/2000/svg">
<g clip-path="url(#clip0_1_20674)">
<path d="M15.6822 3.77859L10.9089 8.46354L8.74857 6.34392C7.88901 5.49143 6.73256 5.0021 5.51998 4.97782C4.30333 4.95268 3.12492 5.39306 2.23404 6.20678C1.78997 6.62304 1.43424 7.12384 1.18792 7.67954C0.942451 8.2342 0.811686 8.83078 0.804039 9.43497C0.796702 10.04 0.912461 10.6403 1.14433 11.1995C1.37604 11.7595 1.71939 12.2685 2.15451 12.6967L7.64204 18.0833C8.07104 18.5047 8.58033 18.8384 9.14086 19.0662C10.2742 19.5269 11.5435 19.5269 12.6769 19.0662C13.2374 18.8384 13.7467 18.5039 14.1757 18.0833L15.3518 16.9291L22.277 10.1313C22.711 9.70477 23.0545 9.19564 23.2872 8.6342C23.519 8.07495 23.6348 7.47468 23.6274 6.86963C23.6198 6.26544 23.4898 5.66811 23.2443 5.1142C22.9978 4.55844 22.6418 4.05763 22.1974 3.64144C21.3058 2.82849 20.1274 2.38811 18.9107 2.41325C17.6984 2.43713 16.542 2.92589 15.6822 3.77782V3.77859Z" fill="#1E1E1E"/>
<path d="M9.07428 14.0992L9.08652 14.1106C9.4314 14.4496 9.8994 14.6394 10.388 14.6394C10.8767 14.6394 11.3439 14.4489 11.6896 14.1106L12.0872 13.7205C12.2593 13.5516 12.463 13.418 12.6868 13.3274C12.9114 13.2363 13.1516 13.1897 13.3941 13.1902C13.7099 13.1894 14.0206 13.2694 14.2965 13.4226C14.4448 13.5026 14.5809 13.6024 14.7002 13.7197C15.0466 14.0603 15.2409 14.5213 15.2409 15.0028C15.2409 15.4843 15.0466 15.9453 14.7002 16.2851L13.5241 17.4394C12.8274 18.1229 11.8889 18.506 10.9111 18.506C9.93334 18.506 8.99479 18.1229 8.2981 17.4394L2.81057 12.0527C2.11775 11.3723 1.72852 10.4496 1.72852 9.48736C1.72852 8.52507 2.11775 7.6024 2.81057 6.92202C3.508 6.24016 4.44646 5.85871 5.42357 5.85993C6.40069 5.85871 7.33915 6.24016 8.03657 6.92202L10.9111 9.74336L9.07657 11.5437C8.90528 11.7114 8.76916 11.9102 8.67663 12.1296C8.5841 12.3491 8.53593 12.5837 8.53593 12.8215C8.53584 13.059 8.58342 13.2943 8.67587 13.5133C8.7684 13.7327 8.90375 13.9315 9.07505 14.0992H9.07428Z" fill="white"/>
<path d="M21.624 4.35821C22.3168 5.03859 22.7061 5.96125 22.7061 6.92354C22.7061 7.88583 22.3168 8.80849 21.624 9.48887L14.6996 16.2866C14.8708 16.1188 15.007 15.9189 15.1003 15.6984C15.1931 15.4787 15.2408 15.2427 15.2408 15.0043C15.2408 14.7659 15.1931 14.5299 15.1003 14.3102C15.007 14.0897 14.8708 13.8898 14.6996 13.722C14.5796 13.6047 14.4442 13.5049 14.2958 13.4249C14.02 13.2717 13.7093 13.1916 13.3935 13.1925C13.151 13.192 12.9107 13.2386 12.6861 13.3296C12.4624 13.4203 12.2587 13.5538 12.0866 13.7228L11.6897 14.1129C11.5182 14.281 11.3153 14.414 11.0925 14.5045C10.8692 14.5952 10.6298 14.6416 10.3882 14.6416C10.1467 14.6418 9.90755 14.5952 9.6839 14.5045C9.46107 14.414 9.25818 14.281 9.08667 14.1129L9.0752 14.1014C8.90463 13.9343 8.76896 13.7352 8.67602 13.5155C8.58369 13.2968 8.53613 13.0618 8.53613 12.8245C8.53613 12.5872 8.58369 12.3522 8.67602 12.1334C8.76896 11.9138 8.90463 11.7147 9.0752 11.5475L16.3973 4.35973C16.7406 4.02221 17.1474 3.75478 17.5963 3.57192C18.0452 3.38906 18.5254 3.29535 19.011 3.29535C19.4966 3.29535 19.9776 3.38906 20.4257 3.57192C20.8738 3.75478 21.2814 4.02221 21.6248 4.35897L21.624 4.35821Z" fill="white"/>
<path d="M26.5154 14.2272C26.4863 13.9069 26.5534 13.5852 26.7081 13.303C26.8642 13.0194 27.1003 12.7876 27.3872 12.6363C28.1845 12.2947 29.0501 12.1409 29.9168 12.1868H30.5561V11.924C30.5657 11.5247 30.4405 11.1338 30.2005 10.8139C30.0721 10.6548 29.9068 10.5293 29.7188 10.4481C29.5298 10.3667 29.3239 10.3317 29.1185 10.346C28.7392 10.3379 28.3634 10.4185 28.0211 10.5815C27.8555 10.6733 27.6829 10.752 27.505 10.8169C27.4232 10.8162 27.343 10.7942 27.2725 10.7529C27.2021 10.7119 27.1443 10.6526 27.105 10.5815C27.0039 10.4267 26.951 10.2457 26.9528 10.0611C26.9528 9.81347 27.1876 9.59938 27.6579 9.41881C28.1333 9.23734 28.6384 9.14537 29.1475 9.14757C29.5532 9.1147 29.9612 9.16847 30.3443 9.30528C30.726 9.44134 31.0739 9.65752 31.3644 9.93919C31.8497 10.4817 32.1073 11.1892 32.084 11.9156V15.4965C32.0809 15.5674 32.0603 15.636 32.0236 15.6969C31.9869 15.7579 31.9357 15.8089 31.8737 15.8455C31.7171 15.95 31.5314 16.0025 31.343 15.9956C31.1656 16.0009 30.992 15.9476 30.849 15.8455C30.7891 15.8079 30.7392 15.7564 30.7037 15.6954C30.6684 15.6346 30.6487 15.566 30.6464 15.4958V14.9967C30.3878 15.3326 30.057 15.6064 29.6782 15.7982C29.2974 15.9909 28.8785 16.097 28.4517 16.1091C27.9441 16.1287 27.448 15.9555 27.0637 15.6245C26.8758 15.4445 26.7294 15.2258 26.6347 14.9838C26.5407 14.7426 26.5008 14.4838 26.5177 14.2257L26.5154 14.2272ZM28.0555 14.042C28.0467 14.1692 28.0654 14.2967 28.1102 14.416C28.1551 14.5354 28.2251 14.6438 28.3155 14.7339C28.5047 14.8962 28.749 14.9805 28.9984 14.9693C29.3956 14.9576 29.773 14.7939 30.0522 14.5121C30.2006 14.3949 30.3223 14.2477 30.4093 14.0801C30.4956 13.9132 30.5449 13.7298 30.5538 13.5422V13.0142H30.1906C29.8335 13.0097 29.4764 13.0287 29.1223 13.0714C28.854 13.106 28.5989 13.2083 28.3813 13.3685C28.2759 13.446 28.1911 13.548 28.1343 13.6657C28.078 13.7826 28.0518 13.9117 28.0578 14.0413H28.0563L28.0555 14.042ZM33.2594 13.2718V11.988C33.2428 11.6128 33.3011 11.2381 33.4308 10.8856C33.5605 10.533 33.759 10.2095 34.0149 9.93386C34.315 9.65593 34.6696 9.44295 35.0564 9.30833C35.4445 9.17317 35.8562 9.11897 36.2662 9.14909C36.8122 9.13142 37.3548 9.24127 37.8507 9.46986C38.2766 9.68395 38.4899 9.92471 38.4899 10.1921C38.4845 10.3691 38.4208 10.5393 38.3087 10.6767C38.2628 10.7491 38.2001 10.8085 38.1252 10.8512C38.0502 10.8939 37.9661 10.9167 37.8797 10.9198C37.7002 10.8692 37.5272 10.7978 37.3643 10.7072C37.0579 10.5625 36.7222 10.4898 36.3832 10.4946C35.3172 10.4946 34.7842 10.9952 34.7842 11.9971V13.2718C34.7842 14.2737 35.3218 14.7742 36.3977 14.7742C36.7434 14.7796 37.0859 14.7011 37.3934 14.5457C37.5585 14.4459 37.7375 14.3689 37.9241 14.3171C38.0156 14.3154 38.1063 14.3352 38.1887 14.375C38.2706 14.4146 38.3419 14.4731 38.3967 14.5457C38.5121 14.682 38.5756 14.8535 38.5779 15.0302C38.5779 15.2969 38.3554 15.5438 37.9095 15.7716C37.4021 16.0137 36.8438 16.1312 36.2815 16.1144C35.8695 16.1456 35.4555 16.0927 35.0648 15.959C34.6756 15.8256 34.3179 15.614 34.0141 15.3373C33.7569 15.0592 33.5573 14.7332 33.4268 14.378C33.2975 14.0238 33.2405 13.6482 33.2594 13.2718ZM39.1897 13.2718V11.9567C39.1893 11.5856 39.268 11.2187 39.4206 10.8801C39.5741 10.5402 39.7977 10.2362 40.0767 9.98795C40.3562 9.71516 40.6874 9.50046 41.0509 9.35633C41.4157 9.2117 41.8055 9.14024 42.198 9.14605C42.9832 9.13864 43.7399 9.43848 44.3055 9.98109C44.5895 10.2278 44.8171 10.5323 44.9731 10.874C45.1282 11.2143 45.208 11.5838 45.2071 11.9575V13.2695C45.2038 13.6433 45.1215 14.0122 44.9655 14.3521C44.8095 14.6927 44.5816 14.9967 44.2979 15.2459C44.0218 15.5194 43.6944 15.736 43.3344 15.8836C42.6047 16.1829 41.7862 16.1842 41.0555 15.8874C40.6938 15.7403 40.3658 15.5247 40.0897 15.2535C39.8081 15.0039 39.5822 14.6981 39.4267 14.356C39.2718 14.0153 39.191 13.6458 39.1897 13.2718ZM40.716 13.268C40.7173 13.6589 40.8741 14.0334 41.1519 14.3095C41.2831 14.4545 41.4437 14.5703 41.6229 14.6493C41.8031 14.7286 41.9979 14.7696 42.1949 14.7696C42.3919 14.7696 42.5868 14.7286 42.7669 14.6493C42.9462 14.5703 43.1068 14.4545 43.238 14.3095C43.5202 14.0337 43.68 13.6588 43.6815 13.268V11.9643C43.6801 11.7737 43.64 11.5853 43.5638 11.4104C43.4873 11.235 43.3766 11.0765 43.238 10.9441C43.1056 10.8009 42.9446 10.6867 42.7654 10.6089C42.5855 10.5304 42.3913 10.4899 42.1949 10.4899C41.9986 10.4899 41.8044 10.5304 41.6245 10.6089C41.4453 10.6867 41.2843 10.8009 41.1519 10.9441C41.0152 11.0771 40.9063 11.2357 40.8314 11.4108C40.7566 11.5859 40.7174 11.774 40.716 11.9643V13.268ZM46.3985 15.4973V9.71671C46.3993 9.64529 46.4191 9.57536 46.4559 9.51405C46.4933 9.45248 46.5463 9.40177 46.6096 9.367C46.7687 9.27176 46.9529 9.22452 47.1395 9.23138C47.3147 9.22605 47.4875 9.27405 47.6335 9.36852C47.6955 9.40509 47.7467 9.4569 47.7827 9.51938C47.8186 9.58186 47.8369 9.65119 47.8369 9.72205V10.3567C48.0092 10.0119 48.2668 9.71664 48.5856 9.49881C48.9037 9.26871 49.2884 9.14528 49.6829 9.14528H50.1479C50.226 9.14619 50.303 9.16413 50.3735 9.19786C50.4437 9.23144 50.5056 9.28009 50.5547 9.34033C50.6701 9.46863 50.7322 9.6359 50.7283 9.80814C50.7313 9.98276 50.6695 10.1523 50.5547 10.2843C50.5073 10.346 50.4454 10.3963 50.375 10.4314C50.3047 10.4664 50.2267 10.4847 50.1479 10.4862H49.6837C49.4483 10.489 49.2163 10.5428 49.0039 10.644C48.7921 10.7453 48.6047 10.89 48.4564 11.0699C48.0916 11.4889 47.9019 12.0276 47.9257 12.5784V15.4958C47.9188 15.567 47.8941 15.6354 47.8538 15.6946C47.813 15.7541 47.7581 15.8025 47.6939 15.8356C47.5301 15.9423 47.3375 15.9968 47.1418 15.9918C46.9522 15.9986 46.7656 15.9438 46.6119 15.8348C46.5518 15.7993 46.5012 15.7499 46.4643 15.6908C46.4276 15.6321 46.4054 15.5651 46.4001 15.4965L46.3985 15.4973ZM51.0502 13.271V11.9582C51.0362 11.2234 51.3099 10.5121 51.8134 9.975C52.0398 9.71367 52.3219 9.50414 52.6393 9.3609C52.9574 9.21775 53.3027 9.14472 53.6518 9.14681C54.0528 9.13962 54.4471 9.24983 54.7858 9.46376C55.098 9.65759 55.3575 9.92502 55.5414 10.2424V5.70909C55.5423 5.63715 55.563 5.56682 55.601 5.50566C55.6392 5.44402 55.6934 5.39376 55.7578 5.36014C55.9253 5.26394 56.1167 5.21693 56.3099 5.22452C56.5011 5.21614 56.6907 5.26338 56.8544 5.35938C56.9174 5.39384 56.9701 5.4444 57.007 5.50585C57.044 5.56731 57.0639 5.63746 57.0647 5.70909V15.4988C57.0592 15.5685 57.0366 15.6357 56.9989 15.6946C56.9614 15.7533 56.9094 15.8036 56.8482 15.8386C56.6905 15.9469 56.5021 16.0019 56.3107 15.9956C56.1348 15.9986 55.9627 15.9422 55.8235 15.8371C55.7633 15.7998 55.7127 15.7489 55.6759 15.6885C55.6393 15.6285 55.6178 15.5605 55.6132 15.4904V14.9853C55.4328 15.319 55.1575 15.5948 54.821 15.7792C54.3401 16.0681 53.7702 16.1731 53.2174 16.0748C52.6645 15.9765 52.1667 15.6824 51.8203 15.2474C51.3217 14.7101 51.0465 14.0042 51.0502 13.2725V13.271ZM52.5766 13.2664C52.5779 13.6577 52.735 14.0326 53.0132 14.3087C53.142 14.454 53.3006 14.5702 53.4782 14.6493C53.6565 14.7286 53.8496 14.7696 54.0448 14.7697C54.4321 14.7653 54.8023 14.6103 55.0764 14.3377C55.3227 14.1593 55.4895 13.8922 55.5414 13.5933V11.9636C55.5482 11.7651 55.5116 11.5675 55.4343 11.3845C55.3563 11.2008 55.2394 11.0361 55.0917 10.9015C54.8157 10.6371 54.4448 10.49 54.0594 10.4908C53.8636 10.4905 53.6698 10.5307 53.4904 10.6089C53.3118 10.6866 53.1516 10.8008 53.0201 10.9441C52.8815 11.0765 52.7708 11.235 52.6944 11.4104C52.6181 11.5853 52.5781 11.7737 52.5766 11.9643V13.268V13.2664ZM58.2591 13.2718V11.9567C58.2585 11.5856 58.3372 11.2186 58.4901 10.8801C58.6434 10.5403 58.8666 10.2363 59.1454 9.98795C59.7121 9.44928 60.4699 9.14757 61.2583 9.14605C62.045 9.14404 62.8026 9.44262 63.375 9.98033C63.6586 10.2274 63.8862 10.5318 64.0426 10.8733C64.1981 11.2134 64.2777 11.583 64.2758 11.9567V13.2695C64.273 13.6433 64.1907 14.0123 64.0342 14.3521C63.8769 14.6933 63.6495 14.9978 63.3666 15.2459C63.0905 15.5194 62.7631 15.736 62.4031 15.8836C62.0418 16.0316 61.655 16.1082 61.2644 16.1091C60.8738 16.1097 60.4867 16.0344 60.125 15.8874C59.7644 15.741 59.4362 15.5254 59.1592 15.2527C58.8762 15.002 58.6507 14.6965 58.4954 14.356C58.3406 14.0153 58.26 13.6457 58.2591 13.2718ZM59.7855 13.2672C59.7868 13.6581 59.9435 14.0326 60.2214 14.3087C60.3525 14.454 60.5131 14.5701 60.6924 14.6493C60.8726 14.7286 61.0674 14.7696 61.2644 14.7696C61.4614 14.7696 61.6562 14.7286 61.8364 14.6493C62.0158 14.5701 62.1763 14.454 62.3075 14.3087C62.5897 14.0329 62.7495 13.658 62.751 13.2672V11.9636C62.7495 11.7729 62.7095 11.5845 62.6332 11.4097C62.5568 11.2342 62.4461 11.0757 62.3075 10.9434C62.175 10.8001 62.0141 10.686 61.8349 10.6081C61.6552 10.5304 61.4609 10.49 61.2644 10.49C61.0679 10.49 60.8737 10.5304 60.6939 10.6081C60.5148 10.686 60.3538 10.8001 60.2214 10.9434C60.0846 11.0763 59.9757 11.2349 59.9009 11.41C59.8261 11.5851 59.7869 11.7733 59.7855 11.9636V13.2672ZM65.338 13.3853V11.8584C65.3067 11.143 65.5628 10.4436 66.0499 9.911C66.3252 9.6489 66.6541 9.44624 67.015 9.31671C67.3761 9.18737 67.7602 9.13443 68.1429 9.16128C68.6475 9.14468 69.1487 9.25003 69.6035 9.46833C69.9958 9.67252 70.1924 9.87976 70.1924 10.0885C70.1886 10.2034 70.1423 10.3128 70.0624 10.3956C70.0287 10.4405 69.9851 10.4771 69.9347 10.503C69.8842 10.5291 69.8286 10.5437 69.7718 10.5457C69.6726 10.5283 69.5798 10.4852 69.5026 10.4207C69.3404 10.3172 69.1673 10.2316 68.9864 10.1655C68.7308 10.0716 68.4596 10.0269 68.1873 10.0337C67.9296 10.0155 67.6709 10.0489 67.4264 10.132C67.1827 10.2146 66.9582 10.3455 66.7665 10.5167C66.5977 10.6973 66.4674 10.9101 66.3834 11.1422C66.2997 11.3734 66.2643 11.6192 66.2794 11.8645V13.3822C66.2635 13.6297 66.2984 13.8778 66.3818 14.1114C66.4656 14.3458 66.5962 14.5609 66.7657 14.7438C66.9596 14.9152 67.1861 15.046 67.4318 15.1285C67.6781 15.2114 67.9386 15.2446 68.198 15.226C68.4824 15.2336 68.7657 15.1889 69.0338 15.0942C69.2185 15.0284 69.3942 14.9398 69.5569 14.8306C69.6369 14.7606 69.7353 14.7149 69.8406 14.6988C69.9002 14.6977 69.9592 14.7099 70.0134 14.7346C70.0675 14.7589 70.1151 14.7955 70.1526 14.8413C70.231 14.9273 70.2748 15.039 70.2757 15.1552C70.2757 15.3739 70.0723 15.5857 69.6655 15.7899C69.1936 16.0085 68.6752 16.1137 68.1536 16.0969C67.7692 16.1247 67.3831 16.0731 67.0196 15.9453C66.6574 15.8181 66.3259 15.617 66.0461 15.3548C65.8035 15.089 65.6159 14.778 65.4943 14.4398C65.3726 14.1015 65.3193 13.7426 65.3372 13.3838L65.338 13.3853ZM71.0779 13.3853V11.7876C71.0748 11.4409 71.1459 11.098 71.2859 10.7796C71.4266 10.4606 71.6329 10.1745 71.8915 9.93995C72.4092 9.447 73.0998 9.1689 73.8209 9.16281C74.542 9.15671 75.2379 9.42186 75.7648 9.90567C76.0263 10.1411 76.2335 10.4283 76.3727 10.7483C76.5119 11.068 76.5797 11.414 76.5715 11.7624C76.5791 11.98 76.547 12.1971 76.4767 12.4032C76.4247 12.5518 76.3146 12.6737 76.1716 12.743C76.05 12.8032 75.9208 12.8459 75.7869 12.8702C75.6278 12.8918 75.4673 12.9012 75.3067 12.8984H72.02V13.4264C72.0105 13.6829 72.0613 13.9381 72.1684 14.1716C72.2754 14.4055 72.436 14.612 72.6371 14.775C73.0908 15.1266 73.655 15.3062 74.2292 15.2817C74.5244 15.2878 74.8181 15.239 75.0949 15.1392C75.2952 15.0683 75.4856 14.9722 75.6615 14.8535C75.7497 14.7768 75.8584 14.7273 75.9743 14.711C76.0301 14.7127 76.0847 14.727 76.1341 14.7529C76.1834 14.7787 76.2259 14.8158 76.258 14.8611C76.3322 14.9412 76.3758 15.0448 76.3811 15.1537C76.3811 15.3533 76.1731 15.5605 75.7564 15.7746C75.2709 16.0034 74.7376 16.1134 74.2009 16.0954C73.3819 16.1289 72.579 15.8622 71.9497 15.3464C71.665 15.1053 71.4384 14.8035 71.2866 14.4634C71.1353 14.1249 71.0634 13.7564 71.0764 13.386L71.0779 13.3853ZM72.0223 12.215H74.9289C75.1273 12.2325 75.327 12.2008 75.5101 12.1228C75.5654 12.0751 75.6077 12.0143 75.6332 11.946C75.6585 11.8782 75.6661 11.8051 75.6554 11.7327C75.6565 11.501 75.6114 11.2714 75.5228 11.0572C75.4342 10.843 75.3038 10.6484 75.1392 10.4847C74.9735 10.3091 74.7723 10.1704 74.5489 10.0779C74.3248 9.9849 74.0832 9.93995 73.84 9.94605C73.6022 9.94089 73.3658 9.98342 73.1448 10.0711C72.9239 10.1588 72.7229 10.2899 72.5538 10.4565C72.3846 10.612 72.25 10.8009 72.1584 11.0112C72.0673 11.2208 72.0215 11.4472 72.0238 11.6756L72.0223 12.215ZM77.8509 15.6253V9.59024C77.8513 9.54228 77.8633 9.49512 77.8859 9.4528C77.9086 9.41048 77.9411 9.37424 77.9809 9.34719C78.078 9.27767 78.1956 9.24253 78.3151 9.24738C78.4301 9.24386 78.5429 9.27961 78.6347 9.34871C78.6744 9.37652 78.7069 9.41334 78.7295 9.45614C78.7517 9.49881 78.7647 9.54605 78.7647 9.59405V10.3041C78.949 9.97652 79.2144 9.69843 79.5355 9.49652C79.885 9.27176 80.2949 9.15595 80.7124 9.16433H81.2209C81.2714 9.16586 81.3204 9.17881 81.3655 9.20166C81.4106 9.22452 81.4496 9.25652 81.4809 9.29538C81.5559 9.37995 81.5972 9.48814 81.5972 9.60014C81.5972 9.71214 81.5559 9.82033 81.4809 9.9049C81.4496 9.94376 81.4106 9.97576 81.3655 9.99862C81.3204 10.0215 81.2714 10.0337 81.2209 10.0352H80.7124C80.4614 10.0359 80.2132 10.0875 79.9829 10.1868C79.7532 10.2856 79.5462 10.4303 79.3749 10.612C79.1799 10.8108 79.0278 11.0462 78.9276 11.3045C78.8277 11.5622 78.7821 11.8377 78.7938 12.1137V15.6291C78.7917 15.6791 78.7783 15.7281 78.7548 15.7723C78.7303 15.8165 78.6967 15.8546 78.6554 15.8843C78.5598 15.962 78.4382 16.0024 78.3143 15.9979C78.1953 16.0002 78.0795 15.9599 77.9878 15.8843C77.9464 15.8545 77.9124 15.8157 77.8884 15.7708C77.8647 15.7259 77.8516 15.6763 77.8509 15.626V15.6253ZM82.4873 13.9019V6.39405C82.4886 6.34477 82.5028 6.2967 82.5286 6.25462C82.5538 6.21195 82.5898 6.1769 82.6326 6.15176C82.7264 6.08607 82.8384 6.05118 82.953 6.05195C83.0723 6.05043 83.1893 6.08471 83.2872 6.15176C83.33 6.1769 83.3659 6.21195 83.3912 6.25386C83.4168 6.29571 83.431 6.34351 83.4325 6.39252V9.24738H85.3068C85.3533 9.24668 85.3994 9.25685 85.4414 9.27709C85.4834 9.29766 85.5194 9.32738 85.5476 9.36395C85.6088 9.44319 85.6417 9.54071 85.6417 9.64052C85.6415 9.74048 85.6085 9.83763 85.5476 9.91709C85.5196 9.95382 85.4832 9.98334 85.4414 10.0032C85.3994 10.0234 85.3533 10.0336 85.3068 10.0329H83.4325V13.8813C83.4134 14.0542 83.4302 14.2295 83.4814 14.3956C83.5327 14.5623 83.6172 14.717 83.7299 14.8504C84.0362 15.0662 84.4105 15.1642 84.7837 15.1262H85.1913C85.2494 15.1248 85.3072 15.1353 85.3611 15.1572C85.4149 15.1791 85.4636 15.2119 85.5041 15.2535C85.5437 15.2932 85.5752 15.3403 85.5966 15.3921C85.618 15.444 85.6279 15.4996 85.6272 15.5552C85.6284 15.6706 85.5842 15.7819 85.5041 15.8653C85.4644 15.908 85.4162 15.942 85.3626 15.9651C85.3085 15.988 85.2501 15.9992 85.1913 15.9979H84.7837C83.2528 15.9956 82.4873 15.2969 82.4873 13.9003V13.9019ZM86.281 13.3853V11.8295C86.2779 11.479 86.3491 11.1308 86.489 10.8085C86.6297 10.4851 86.8358 10.194 87.0946 9.95366C87.3463 9.69927 87.647 9.49816 87.9786 9.36243C88.3113 9.22605 88.6676 9.15824 89.0278 9.16205C89.3893 9.1589 89.7479 9.22673 90.0831 9.36166C90.4168 9.4958 90.7204 9.69471 90.9763 9.94681C91.2403 10.1856 91.4508 10.4772 91.5942 10.8024C91.7372 11.127 91.8083 11.4767 91.8045 11.8302V13.386C91.7953 14.0992 91.5009 14.7796 90.9839 15.2809C90.4643 15.7845 89.768 16.0662 89.0431 16.0662C88.3182 16.0662 87.6219 15.7845 87.1023 15.2809C86.847 15.0344 86.6432 14.7402 86.5024 14.415C86.3616 14.0898 86.2866 13.7402 86.2818 13.386L86.281 13.3853ZM87.2254 13.3807C87.225 13.862 87.4158 14.3238 87.7561 14.6653C87.9144 14.8428 88.1102 14.9845 88.3297 15.0813C88.5495 15.178 88.7875 15.2271 89.0278 15.2253C89.2713 15.2276 89.5126 15.1788 89.7359 15.082C89.9592 14.9853 90.1588 14.8436 90.3217 14.6653C90.4921 14.4972 90.6274 14.2972 90.7197 14.0767C90.812 13.8562 90.8594 13.6196 90.8593 13.3807V11.834C90.8578 11.6006 90.8086 11.3699 90.7148 11.156C90.6211 10.941 90.4848 10.7471 90.3141 10.586C90.1512 10.4108 89.9524 10.2714 89.7306 10.1761C89.5088 10.0806 89.2695 10.0321 89.0278 10.0337C88.7882 10.0318 88.5509 10.0801 88.3312 10.1754C88.1125 10.2706 87.9159 10.4108 87.7561 10.586C87.4181 10.9175 87.2277 11.3662 87.2254 11.8348V13.3807Z" fill="#1E1E1E"/>
</g>
<defs>
<clipPath id="clip0_1_20674">
<rect width="92" height="20" fill="white"/>
</clipPath>
</defs>
</svg>
