<svg width="90" height="18" viewBox="0 0 90 18" fill="none" xmlns="http://www.w3.org/2000/svg">
<path d="M15.3125 5.84056L9.2694 11.8858C8.85199 12.3029 8.28605 12.5372 7.69597 12.5372C7.10589 12.5372 6.53995 12.3029 6.12254 11.8858L0.0397455 5.79462L0.00842285 11.2238L3.3808 14.6171C4.523 15.7586 6.07175 16.3998 7.68657 16.3998C9.3014 16.3998 10.8501 15.7586 11.9924 14.6171L15.3042 11.3053L15.3125 5.84056Z" fill="#1E1E1E"/>
<path d="M11.9631 2.487C10.8201 1.34703 9.27162 0.706848 7.6573 0.706848C6.04298 0.706848 4.49454 1.34703 3.35152 2.487L0.0104675 5.83849L2.76683 8.53013L6.08491 5.2204C6.50232 4.8033 7.06826 4.569 7.65834 4.569C8.24842 4.569 8.81436 4.8033 9.23177 5.2204L15.3167 11.3053V5.83849L11.9631 2.487Z" fill="#1E1E1E"/>
<path d="M15.3126 11.3011V5.84058L12.5834 8.57189L15.3126 11.3011Z" fill="white"/>
<path d="M0 11.228L0.0375869 11.2676L2.77098 8.53424L0.0375869 5.80084L0 5.84052V11.228Z" fill="white"/>
<path d="M88.35 4.64203C88.6219 4.75823 88.8367 4.9775 88.9472 5.25177C89.0052 5.39142 89.035 5.54116 89.0349 5.69238C89.0355 5.84296 89.0056 5.99211 88.9472 6.13089C88.8912 6.26693 88.8097 6.39098 88.7071 6.49632C88.6018 6.60332 88.4764 6.68834 88.338 6.74641C88.1996 6.80449 88.0511 6.83447 87.901 6.8346C87.7487 6.835 87.5979 6.80371 87.4583 6.74272C87.3229 6.68563 87.2001 6.60239 87.0969 6.49776C86.9937 6.39313 86.9122 6.26917 86.857 6.13298C86.7982 5.99356 86.7683 5.84367 86.7692 5.69238C86.7688 5.54159 86.7993 5.39232 86.859 5.25386C86.9153 5.11859 86.9968 4.99528 87.0992 4.89052C87.2029 4.78529 87.3264 4.70156 87.4625 4.64412C87.6029 4.58308 87.7543 4.55157 87.9073 4.55157C88.0603 4.55157 88.2117 4.58308 88.3521 4.64412M88.2623 6.54643C88.3718 6.50022 88.4712 6.4328 88.5546 6.34806C88.637 6.26238 88.7022 6.16173 88.7467 6.05154C88.8156 5.88265 88.8344 5.69747 88.8007 5.5182C88.767 5.33893 88.6823 5.1732 88.5567 5.04087C88.4754 4.95194 88.3766 4.88083 88.2665 4.83206C88.1537 4.78337 88.0322 4.75848 87.9094 4.75897C87.7469 4.76017 87.5877 4.80475 87.4482 4.88808C87.3087 4.97141 87.194 5.09048 87.1159 5.23298C87.0362 5.37362 86.9951 5.53283 86.9969 5.69446C86.9948 5.81565 87.0172 5.93601 87.0628 6.04832C87.1083 6.16063 87.1761 6.26258 87.2621 6.34806C87.3907 6.47877 87.5559 6.56748 87.7359 6.60251C87.9159 6.63755 88.1024 6.61727 88.2706 6.54434M88.2894 5.70908C88.2394 5.77071 88.1704 5.81403 88.0931 5.83228L88.4147 6.29794H88.1871L87.8843 5.85316H87.7089V6.29794H87.5189V5.08055H87.9511C88.0061 5.07621 88.0613 5.08324 88.1134 5.1012C88.1655 5.11917 88.2133 5.14768 88.2539 5.18495C88.288 5.22203 88.3143 5.26547 88.3315 5.31277C88.3487 5.36007 88.3564 5.41031 88.3542 5.46059C88.3584 5.54476 88.3342 5.62792 88.2852 5.69655M87.7089 5.66523H87.9073C87.9569 5.66674 88.0063 5.65674 88.0514 5.636C88.0855 5.62082 88.114 5.59524 88.1328 5.56291C88.1494 5.53069 88.1573 5.49471 88.1558 5.4585C88.1571 5.43067 88.1522 5.4029 88.1413 5.37724C88.1305 5.35158 88.114 5.32868 88.0931 5.31024C88.0445 5.27196 87.9837 5.25266 87.9219 5.25595H87.7131L87.7089 5.66523Z" fill="#1E1E1E"/>
<path d="M29.4828 13.2765H27.1483V12.3034C26.8309 12.6967 26.4261 13.0105 25.966 13.2197C25.506 13.4288 25.0034 13.5277 24.4984 13.5083C22.0595 13.5083 20.2156 11.5078 20.2156 8.84962C20.2156 6.19139 22.0615 4.19094 24.4984 4.19094C25.0042 4.17222 25.5073 4.2722 25.9674 4.48288C26.4276 4.69355 26.832 5.00907 27.1483 5.40416V4.42899H29.4828V13.2765ZM22.6546 8.8517C22.6546 10.2027 23.54 11.2907 24.9369 11.2907C26.2984 11.2907 27.2193 10.2466 27.2193 8.8517C27.2193 7.45682 26.2963 6.41274 24.9369 6.41274C23.54 6.41274 22.6546 7.50067 22.6546 8.8517Z" fill="#1E1E1E"/>
<path d="M37.8562 5.41671V4.4311H40.195V12.5499C40.195 15.3897 38.3407 17.1083 35.4173 17.1083C34.0203 17.1083 32.5419 16.7429 31.5458 16.0392L32.3957 14.0951C33.2584 14.6808 34.2764 14.9956 35.3191 14.9993C36.7913 14.9993 37.8353 14.1765 37.8353 12.6501V12.0236C37.2319 12.7628 36.3381 13.2202 35.1207 13.2202C32.9658 13.2202 31.0468 11.4202 31.0468 8.70765C31.0468 5.99513 32.9616 4.19305 35.1207 4.19305C36.3548 4.19305 37.259 4.66707 37.8625 5.4188M33.4899 8.71391C33.4899 9.99187 34.3586 11.0339 35.718 11.0339C37.0418 11.0339 37.9377 10.0295 37.9377 8.71391C37.9377 7.39837 37.0439 6.38562 35.718 6.38562C34.3565 6.38562 33.4899 7.4297 33.4899 8.71391Z" fill="#1E1E1E"/>
<path d="M44.9788 1.53485C44.9759 1.8346 44.8844 2.12682 44.7159 2.37474C44.5474 2.62267 44.3094 2.81524 44.0317 2.92825C43.7541 3.04125 43.4492 3.06964 43.1554 3.00985C42.8617 2.95006 42.5922 2.80476 42.3808 2.59221C42.1694 2.37966 42.0256 2.10936 41.9674 1.81529C41.9092 1.52122 41.9393 1.21652 42.0538 0.939481C42.1683 0.662448 42.3622 0.425455 42.611 0.258303C42.8598 0.0911515 43.1526 0.00130225 43.4523 5.30543e-05C43.6539 -0.00163496 43.8539 0.036973 44.0404 0.113611C44.2269 0.190248 44.3962 0.303371 44.5384 0.44634C44.6806 0.589308 44.7928 0.759241 44.8684 0.946163C44.944 1.13308 44.9816 1.33323 44.9788 1.53485ZM44.6593 13.2766H42.2746V4.42903H44.6593V13.2766Z" fill="#1E1E1E"/>
<path d="M55.522 9.02505C55.522 11.5308 53.6426 13.383 51.1932 13.383C50.4567 13.3948 49.7308 13.2069 49.0925 12.8392C48.4543 12.4715 47.9275 11.9379 47.5682 11.2949V13.2765H46.9292V0.121155H47.5682V6.75105C47.9266 6.10731 48.4532 5.57302 49.0917 5.20524C49.7301 4.83746 50.4565 4.65001 51.1932 4.6629C53.6405 4.6629 55.522 6.52762 55.522 9.02923M47.5202 9.02923C47.5202 11.1675 49.0821 12.7879 51.1911 12.7879C53.3002 12.7879 54.8621 11.1529 54.8621 9.02923C54.8621 6.90558 53.3106 5.27055 51.1911 5.27055C49.0716 5.27055 47.5202 6.88678 47.5202 9.02923Z" fill="#1E1E1E"/>
<path d="M65.6976 13.2766H65.0712V11.2886C64.7109 11.9343 64.182 12.47 63.5409 12.8385C62.8999 13.207 62.1708 13.3945 61.4315 13.381C58.9842 13.381 57.1111 11.5267 57.1111 9.02298C57.1111 6.51928 58.9905 4.65665 61.4315 4.65665C62.1712 4.64354 62.9004 4.83216 63.5409 5.20227C64.1814 5.57237 64.709 6.10997 65.067 6.75733V4.75896H65.6935L65.6976 13.2766ZM57.7626 9.0188C57.7626 11.1383 59.3142 12.7775 61.4336 12.7775C63.5531 12.7775 65.1046 11.1613 65.1046 9.0188C65.1046 6.87636 63.5427 5.26012 61.4336 5.26012C59.3246 5.26012 57.7626 6.89515 57.7626 9.0188Z" fill="#1E1E1E"/>
<path d="M76.0235 8.28378V13.2766H75.3971V8.28378C75.3971 6.48379 74.3008 5.26013 72.2649 5.26013C70.4189 5.26013 69.1326 6.61117 69.1326 8.34852V13.2766H68.4937V4.75897H69.1201V6.38565C69.7236 5.35201 70.8366 4.65039 72.3066 4.65039C74.6036 4.65039 76.0152 6.05781 76.0152 8.27752" fill="#1E1E1E"/>
<path d="M79.3836 8.51353H80.9643L84.936 4.75902H85.7504L81.4571 8.78707L85.8402 13.2808H85.0279L80.956 9.09821H79.3836V13.2808H78.7446V0.129578H79.3836V8.51353Z" fill="#1E1E1E"/>
</svg>
