<svg width="80" height="23" viewBox="0 0 80 23" fill="none" xmlns="http://www.w3.org/2000/svg">
<g clip-path="url(#clip0_1_20769)">
<mask id="mask0_1_20769" style="mask-type:luminance" maskUnits="userSpaceOnUse" x="0" y="0" width="80" height="23">
<path d="M80 0.524109H0V22.7829H80V0.524109Z" fill="white"/>
</mask>
<g mask="url(#mask0_1_20769)">
<mask id="mask1_1_20769" style="mask-type:luminance" maskUnits="userSpaceOnUse" x="0" y="0" width="80" height="23">
<path d="M79.984 0.524109H0.0163574V22.7829H79.984V0.524109Z" fill="white"/>
</mask>
<g mask="url(#mask1_1_20769)">
<path d="M28.0941 1.08105H22.6669C21.4773 1.08105 20.5467 1.58612 19.9772 2.54099L17.455 6.76099L14.0581 1.08105H6.81946L13.6901 11.4996L6.87004 22.3357H14.0555L17.4629 16.6881L20.9182 22.3357H28.0452L21.2235 11.4996L28.0941 1.08105Z" fill="#1E1E1E"/>
<path d="M0.926812 1.96884C0.63492 2.2491 0.403882 2.58377 0.247456 2.95291C0.0910305 3.32206 0.0124213 3.71813 0.016312 4.11751V22.3358H6.19184V1.07859H3.13328C2.7232 1.07445 2.31646 1.15093 1.93736 1.30345C1.55826 1.45597 1.21457 1.6814 0.926812 1.96629" fill="#1E1E1E"/>
<path d="M38.8627 14.4272C38.6171 15.4262 38.2254 16.132 37.6984 16.5317C37.095 16.9882 36.3146 17.2119 35.3133 17.2119C33.903 17.2119 32.9132 16.7867 32.199 15.8854C31.4341 14.9152 31.046 13.5123 31.046 11.713C31.046 9.78629 31.4271 8.35439 32.1798 7.45562C32.9115 6.58327 33.9728 6.15812 35.4258 6.15812C36.5159 6.15812 37.3044 6.35539 37.7693 6.74651C38.0308 6.96672 38.2691 7.28388 38.4941 7.71416C39.0871 8.84842 40.0846 9.44789 41.379 9.44789H44.9887L44.8928 8.3272C44.6773 5.88942 43.7458 3.96692 42.1245 2.61412C40.4614 1.22645 38.2077 0.524109 35.4258 0.524109C32.062 0.524109 29.4134 1.5181 27.554 3.47886C25.7731 5.35544 24.8696 8.12568 24.8696 11.7105C24.8696 15.1967 25.7487 17.9227 27.486 19.8155C29.2895 21.7847 31.8466 22.7829 35.0873 22.7829C37.9245 22.7829 40.233 22.084 41.9432 20.704C43.6876 19.3001 44.68 17.2977 44.8962 14.752L44.9887 13.6407H39.0583L38.8627 14.4272Z" fill="#1E1E1E"/>
<path d="M76.7097 22.3928C75.7365 22.4462 74.7603 22.4326 73.7888 22.3519C72.7422 22.2737 72.2189 21.6215 72.2189 20.4013V8.69717H73.6896C73.8658 8.69729 74.0403 8.73267 74.2021 8.80108C74.3639 8.86955 74.5094 8.96957 74.6303 9.09513C74.7621 9.2185 74.8655 9.36682 74.9359 9.53089C75.0063 9.69496 75.0412 9.87135 75.0387 10.0491V11.8398H76.7109V12.3967C76.7169 12.579 76.6833 12.7603 76.6117 12.929C76.5413 13.0976 76.4342 13.2498 76.2989 13.3754C76.169 13.4981 76.0156 13.5946 75.8478 13.6594C75.68 13.7241 75.5001 13.756 75.3197 13.753H75.0339V19.6472C75.0339 20.0996 75.3052 20.3274 75.8496 20.3274H76.7067L76.7097 22.3928ZM66.8312 22.3928V11.4835C66.8312 10.5287 67.0881 9.8119 67.6084 9.33232C68.0956 8.88081 68.9004 8.65211 70.015 8.65211C70.2345 8.64851 70.4535 8.6622 70.6706 8.69292C70.9028 8.6895 71.1344 8.70206 71.3642 8.73031V10.9215H70.6297C70.2496 10.9215 69.9747 10.9759 69.8147 11.0814C69.6781 11.1868 69.6084 11.4011 69.6084 11.7165V12.4333H71.3654V13.0285C71.3702 13.2044 71.3389 13.3794 71.2739 13.5434C71.2084 13.7074 71.1103 13.857 70.9852 13.9836C70.8595 14.1102 70.7097 14.2112 70.5437 14.2806C70.3783 14.3501 70.1996 14.3866 70.0198 14.3881H69.6126V22.3928H66.8312ZM59.6039 14.4289C59.0322 15.04 58.7743 15.9492 58.8303 17.1567C58.8824 18.3632 59.1162 19.2059 59.5236 19.6846C59.6875 19.8988 59.9735 20.0757 60.3807 20.2211C60.7801 20.3671 61.2168 20.3814 61.6252 20.2619C62.0469 20.1437 62.4234 19.8444 62.7506 19.3657C63.0772 18.887 63.2523 18.1183 63.2806 17.0581C63.2806 16.1006 63.1236 15.3838 62.8096 14.9076C62.4956 14.4315 62.1371 14.1257 61.7341 13.9902C61.3371 13.8586 60.9082 13.8515 60.507 13.9698C60.1003 14.0923 59.8004 14.2453 59.6079 14.4289H59.6039ZM57.6457 21.4379C57.0737 20.9595 56.6647 20.3149 56.4187 19.5043C56.173 18.6835 56.05 17.8324 56.0534 16.9772C56.0537 16.2499 56.1568 15.5261 56.3594 14.826C56.5332 14.1652 56.8615 13.5525 57.3187 13.0362C58.0262 12.2426 58.9384 11.7713 60.0545 11.6221C61.1711 11.4731 62.1792 11.5581 63.0791 11.8772C64.0872 12.2541 64.9058 12.9967 65.3648 13.9494C65.8303 14.823 66.0625 15.8447 66.0625 17.0147C66.0625 17.865 65.9675 18.5942 65.7768 19.2024C65.6144 19.7547 65.3666 20.2795 65.0412 20.7585C64.3903 21.6317 63.559 22.1751 62.5497 22.3894C61.6643 22.6263 60.732 22.6473 59.8356 22.4506C58.9228 22.2499 58.1959 21.9112 57.6555 21.4345L57.6457 21.4379ZM45.8982 18.8836H48.675C48.6994 19.4133 48.9055 19.8189 49.2857 20.08C49.6963 20.3444 50.2398 20.4771 50.9199 20.4771C51.3587 20.4893 51.7938 20.3937 52.1845 20.199C52.5125 20.0119 52.6754 19.7603 52.6754 19.4405C52.6754 18.9653 52.1041 18.6056 50.9619 18.3675C50.5878 18.3132 50.2188 18.2324 49.8569 18.126C48.4144 17.7859 47.4477 17.375 46.9571 16.8931C46.4135 16.4135 46.1415 15.7784 46.1415 14.9799C46.132 14.5018 46.2336 14.0277 46.4386 13.5935C46.644 13.1591 46.9476 12.7758 47.3268 12.4724C48.1461 11.8608 49.2077 11.5549 50.5119 11.5549C51.93 11.5549 53.06 11.8597 53.9028 12.4691C54.6933 13.1351 55.1148 13.9981 55.1673 15.0582H53.4013C52.8855 15.0582 52.4918 14.8314 52.2204 14.3779C52.1086 14.2725 52.0005 14.167 51.8924 14.0582C51.5657 13.8213 51.1161 13.7025 50.5441 13.702C50.0006 13.702 49.5926 13.7802 49.3171 13.9392C49.1975 14.0177 49.1009 14.1252 49.0369 14.251C48.9729 14.3768 48.9434 14.5166 48.9515 14.6568C48.9515 15.0814 49.6587 15.4402 51.0734 15.7333C51.2374 15.7843 51.3804 15.8251 51.5024 15.8524C51.6169 15.8787 51.7338 15.8924 51.8514 15.8932C53.2389 16.2333 54.206 16.6372 54.7479 17.0836C55.267 17.5631 55.5258 18.2008 55.5248 18.9967C55.5248 20.1661 55.0887 21.0689 54.2166 21.7048C53.4026 22.2893 52.1784 22.5815 50.5441 22.5815C48.9898 22.5815 47.833 22.2757 47.073 21.664C46.2824 21.0552 45.8874 20.1661 45.8887 18.9967L45.8982 18.8836Z" fill="#1E1E1E"/>
<path d="M78.7687 8.76587C78.5287 8.76587 78.2941 8.83534 78.0938 8.9655C77.8941 9.09559 77.7383 9.2806 77.6469 9.49703C77.5548 9.71347 77.5308 9.95161 77.5777 10.1814C77.6246 10.4111 77.7401 10.6221 77.9097 10.7879C78.0799 10.9535 78.2965 11.0663 78.5323 11.112C78.7675 11.1577 79.0117 11.1342 79.2336 11.0446C79.4562 10.9549 79.6457 10.8031 79.7792 10.6083C79.9127 10.4136 79.9843 10.1846 79.9843 9.95031C79.9831 9.63633 79.855 9.33533 79.6276 9.11323C79.3996 8.89125 79.0911 8.76634 78.7687 8.76587ZM78.7687 10.8728C78.5816 10.8728 78.3987 10.8188 78.2436 10.7174C78.0878 10.616 77.9663 10.4719 77.8947 10.3033C77.8231 10.1348 77.8045 9.94931 77.8405 9.77032C77.8772 9.59133 77.9675 9.42697 78.0998 9.29799C78.2321 9.16896 78.4011 9.08109 78.5846 9.04547C78.7681 9.00985 78.9581 9.02813 79.1314 9.09795C79.304 9.16778 79.452 9.28602 79.5554 9.43776C79.6595 9.58945 79.7154 9.76784 79.7154 9.95031C79.7148 10.1948 79.615 10.4292 79.4375 10.6022C79.2601 10.7751 79.0201 10.8724 78.7687 10.8728Z" fill="#1E1E1E"/>
<path d="M79.3052 9.7821C79.3076 9.72956 79.2986 9.67719 79.2782 9.62848C79.2577 9.5797 79.227 9.53571 79.1879 9.49944C79.1488 9.46311 79.1025 9.43522 79.052 9.4177C79.0009 9.40019 78.9467 9.3934 78.8932 9.39777H78.3037V10.5524H78.6087V10.1647H78.7657L78.9648 10.5524H79.3136L79.0718 10.1273C79.144 10.1018 79.206 10.0544 79.2487 9.99217C79.2908 9.92989 79.3118 9.856 79.3082 9.78122L79.3052 9.7821ZM78.8505 9.90371H78.6081V9.65625H78.8505C78.8685 9.65372 78.8872 9.65501 78.9046 9.66003C78.9221 9.6651 78.9383 9.67377 78.9521 9.68551C78.9666 9.69724 78.9774 9.71175 78.9852 9.72803C78.993 9.7443 78.9966 9.76205 78.9966 9.77998C78.9966 9.79791 78.993 9.8156 78.9852 9.83188C78.9774 9.84816 78.9666 9.86272 78.9521 9.8744C78.9383 9.88619 78.9221 9.89486 78.9046 9.89994C78.8872 9.90495 78.8685 9.90625 78.8505 9.90371Z" fill="#1E1E1E"/>
</g>
</g>
</g>
<defs>
<clipPath id="clip0_1_20769">
<rect width="80" height="23" fill="white"/>
</clipPath>
</defs>
</svg>
