<svg width="91" height="28" viewBox="0 0 91 28" fill="none" xmlns="http://www.w3.org/2000/svg">
<g clip-path="url(#clip0_1_20692)">
<path d="M44.1891 16.4297L41.2555 22.1732C40.857 22.9425 40.4239 23.8043 40.1005 24.5677C39.8175 23.9431 39.4248 23.1507 38.9167 22.1732L35.9368 16.4297H34.574L33.598 27.7952H35.5037L35.9484 22.6648C35.983 22.2889 36.0408 21.67 36.087 21.0164C36.3757 21.6295 36.6645 22.2773 36.959 22.7978L39.5865 27.8819H40.4701L43.063 22.7978C43.346 22.2195 43.6751 21.5832 43.9581 20.9874C43.9581 21.4849 44.0332 22.0401 44.0794 22.659L44.5529 27.7952H46.5625L45.5519 16.4297H44.1891Z" fill="#1E1E1E"/>
<path d="M58.1296 22.098C58.1473 22.6209 58.0603 23.142 57.8736 23.6306C57.6869 24.1193 57.4043 24.5655 57.0426 24.9429C56.6808 25.3203 56.2472 25.6213 55.7674 25.8281C55.2875 26.0349 54.7712 26.1432 54.2489 26.1468C53.7244 26.1497 53.2048 26.0457 52.7217 25.8412C52.2386 25.6368 51.802 25.336 51.4385 24.9574C51.075 24.5787 50.7921 24.13 50.6072 23.6384C50.4222 23.1469 50.3389 22.6228 50.3624 22.098C50.3429 21.5758 50.4292 21.0552 50.616 20.5674C50.8029 20.0796 51.0864 19.6346 51.4496 19.2595C51.8128 18.8844 52.248 18.5869 52.7291 18.3849C53.2102 18.1828 53.7272 18.0805 54.2489 18.084C54.7682 18.0877 55.2816 18.1949 55.7591 18.3995C56.2366 18.6042 56.6686 18.902 57.0299 19.2757C57.3911 19.6494 57.6745 20.0914 57.8633 20.576C58.0521 21.0606 58.1426 21.578 58.1296 22.098ZM54.2489 16.1984C53.0885 16.2189 51.9601 16.5823 51.0052 17.2429C50.0503 17.9035 49.3115 18.8319 48.8816 19.9115C48.4516 20.9912 48.3497 22.174 48.5886 23.3115C48.8275 24.449 49.3965 25.4903 50.2243 26.305C51.0521 27.1197 52.1017 27.6714 53.2414 27.8907C54.381 28.1101 55.56 27.9873 56.6303 27.5379C57.7006 27.0885 58.6144 26.3324 59.2572 25.3646C59.9 24.3968 60.243 23.2603 60.2431 22.098C60.2441 21.3142 60.0889 20.5381 59.7866 19.8151C59.4844 19.0921 59.0412 18.4367 58.483 17.8873C57.9249 17.338 57.2629 16.9056 56.5358 16.6156C55.8088 16.3256 55.0313 16.1838 54.2489 16.1984Z" fill="#1E1E1E"/>
<path d="M84.0991 27.7952H91V25.9385H86.1953V16.4297H84.0991V27.7952Z" fill="#1E1E1E"/>
<path d="M64.0373 18.2748H65.2557C67.3231 18.2748 69.5291 19.2812 69.5291 22.1154C69.5291 24.9495 67.3231 25.9558 65.2557 25.9558H64.0546L64.0373 18.2748ZM65.5214 16.4297H61.9583V27.7952H65.5214C68.5647 27.7952 71.6485 25.8402 71.6485 22.1154C71.6485 18.3905 68.5647 16.4297 65.5214 16.4297Z" fill="#1E1E1E"/>
<path d="M78.9306 24.4115H75.4657C75.4657 24.4115 77.1115 20.4091 77.1981 20.1141C77.2905 20.386 78.9306 24.4115 78.9306 24.4115ZM76.8054 16.2736L71.9661 27.7952H74.0624L74.7554 26.1525H79.6871L80.3743 27.7952H82.5341L77.6948 16.2736H76.8054Z" fill="#1E1E1E"/>
<mask id="mask0_1_20692" style="mask-type:luminance" maskUnits="userSpaceOnUse" x="0" y="8" width="10" height="20">
<path d="M0 18.3037L9.54004 8.79492V18.2979L0 27.8067V18.3037Z" fill="white"/>
</mask>
<g mask="url(#mask0_1_20692)">
<path d="M9.54004 8.79492H0V27.8067H9.54004V8.79492Z" fill="#1E1E1E"/>
</g>
<mask id="mask1_1_20692" style="mask-type:luminance" maskUnits="userSpaceOnUse" x="9" y="4" width="15" height="24">
<path d="M9.54584 18.3037L23.2842 4.59576V14.0988L9.54584 27.8067V18.3037Z" fill="white"/>
</mask>
<g mask="url(#mask1_1_20692)">
<path d="M23.2842 4.59576H9.54584V27.8125H23.2842V4.59576Z" fill="#1E1E1E"/>
</g>
<mask id="mask2_1_20692" style="mask-type:luminance" maskUnits="userSpaceOnUse" x="19" y="0" width="19" height="28">
<path d="M19.0685 18.3037L37.3402 0.00335693V9.50635L19.0685 27.8067V18.3037Z" fill="white"/>
</mask>
<g mask="url(#mask2_1_20692)">
<path d="M37.3401 0.00335693H19.0685V27.8067H37.3401V0.00335693Z" fill="#1E1E1E"/>
</g>
</g>
<defs>
<clipPath id="clip0_1_20692">
<rect width="91" height="28" fill="white"/>
</clipPath>
</defs>
</svg>
