<svg width="87" height="21" viewBox="0 0 87 21" fill="none" xmlns="http://www.w3.org/2000/svg">
<g clip-path="url(#clip0_1_20763)">
<path fill-rule="evenodd" clip-rule="evenodd" d="M0 21H81.7535C84.6378 21 87 18.675 87 15.831V0H5.24651C2.35986 0 0 2.32498 0 5.16898V21Z" fill="#1E1E1E"/>
<path fill-rule="evenodd" clip-rule="evenodd" d="M12.2998 6.7988H10.0091C8.84587 6.7988 7.89478 7.73583 7.89478 8.88189C7.89478 10.0279 8.84587 10.965 10.0091 10.965H10.6575C11.2033 10.965 11.6539 11.4088 11.6539 11.9466C11.6539 12.4844 11.2033 12.9283 10.6575 12.9283H8.36675V14.0297H10.6575C11.8207 14.0297 12.7718 13.0927 12.7718 11.9466C12.7718 10.8006 11.8207 9.86355 10.6575 9.86355H10.0091C9.46325 9.86355 9.01273 9.41969 9.01273 8.88189C9.01273 8.34409 9.46325 7.90023 10.0091 7.90023H12.2998V6.7988ZM72.4308 6.7988C74.3068 6.7988 75.8586 8.15856 76.128 9.93165H79.1028V11.0331H76.128C75.8586 12.8062 74.3068 14.1659 72.4308 14.1659C70.3666 14.1659 68.6908 12.5173 68.6908 10.4812C68.6908 8.44507 70.3642 6.7988 72.4308 6.7988ZM74.9933 9.93165H73.6346V11.0331H74.9933C74.7383 12.1956 73.6871 13.0669 72.4308 13.0669C70.9839 13.0669 69.8088 11.9114 69.8088 10.4835C69.8088 9.05567 70.9816 7.90023 72.4308 7.90023C73.6871 7.90023 74.7359 8.77151 74.9933 9.934V9.93165ZM64.6052 7.89788V6.79645H59.137V7.89788H61.3133V14.1636H62.4313V7.89788H64.6076H64.6052ZM53.8238 7.89788V6.79645H49.0063V7.89788H49.874V14.1636H53.8238V13.0622H50.9919V11.0284H53.8238V9.92696H50.9919V7.89318H53.8238V7.89788ZM44.544 14.1636V13.0622H41.7122V6.79645H39.7266V7.89788H40.5943V14.1636H44.544ZM31.4647 6.79645C33.529 6.79645 35.2024 8.44507 35.2024 10.4788C35.2024 12.5126 33.529 14.1636 31.4647 14.1636C29.4004 14.1636 27.7247 12.515 27.7247 10.4788C27.7247 8.44272 29.3981 6.79645 31.4647 6.79645ZM31.4647 7.89788C32.9116 7.89788 34.0868 9.05333 34.0868 10.4812C34.0868 11.9091 32.914 13.0645 31.4647 13.0645C30.0154 13.0645 28.8427 11.9091 28.8427 10.4812C28.8427 9.05333 30.0154 7.89788 31.4647 7.89788ZM17.5869 6.79645H21.5772C22.7404 6.79645 23.6915 7.81803 23.6915 9.06742C23.6915 11.4135 21.3483 11.5685 19.6035 11.2397V14.1636H18.4855V7.99651H17.5869V6.79645ZM19.6035 10.035C20.6285 10.3238 22.5736 10.5164 22.5736 9.06742C22.5736 8.4803 22.123 7.99651 21.5772 7.99651H19.6035V10.035Z" fill="white"/>
<path fill-rule="evenodd" clip-rule="evenodd" d="M74.9934 9.93404C74.7383 8.77155 73.6871 7.90027 72.4309 7.90027C70.984 7.90027 69.8088 9.05571 69.8088 10.4836C69.8088 11.9115 70.9816 13.0669 72.4309 13.0669C73.6871 13.0669 74.7359 12.1956 74.9934 11.0331H73.6347V9.93169H74.9934V9.93404Z" fill="#1E1E1E"/>
</g>
<defs>
<clipPath id="clip0_1_20763">
<rect width="87" height="21" fill="white"/>
</clipPath>
</defs>
</svg>
