<svg width="357" height="240" viewBox="0 0 357 240" fill="none" xmlns="http://www.w3.org/2000/svg">
<g clip-path="url(#clip0_143_941)">
<path d="M10.0703 1.625V13H8.55469L2.82812 4.22656V13H1.32031V1.625H2.82812L8.57812 10.4219V1.625H10.0703ZM12.1406 8.86719V8.6875C12.1406 8.07812 12.2292 7.51302 12.4062 6.99219C12.5833 6.46615 12.8385 6.01042 13.1719 5.625C13.5052 5.23438 13.9089 4.93229 14.3828 4.71875C14.8568 4.5 15.388 4.39062 15.9766 4.39062C16.5703 4.39062 17.1042 4.5 17.5781 4.71875C18.0573 4.93229 18.4635 5.23438 18.7969 5.625C19.1354 6.01042 19.3932 6.46615 19.5703 6.99219C19.7474 7.51302 19.8359 8.07812 19.8359 8.6875V8.86719C19.8359 9.47656 19.7474 10.0417 19.5703 10.5625C19.3932 11.0833 19.1354 11.5391 18.7969 11.9297C18.4635 12.3151 18.0599 12.6172 17.5859 12.8359C17.1172 13.0495 16.5859 13.1562 15.9922 13.1562C15.3984 13.1562 14.8646 13.0495 14.3906 12.8359C13.9167 12.6172 13.5104 12.3151 13.1719 11.9297C12.8385 11.5391 12.5833 11.0833 12.4062 10.5625C12.2292 10.0417 12.1406 9.47656 12.1406 8.86719ZM13.5859 8.6875V8.86719C13.5859 9.28906 13.6354 9.6875 13.7344 10.0625C13.8333 10.4323 13.9818 10.7604 14.1797 11.0469C14.3828 11.3333 14.6354 11.5599 14.9375 11.7266C15.2396 11.888 15.5911 11.9688 15.9922 11.9688C16.388 11.9688 16.7344 11.888 17.0312 11.7266C17.3333 11.5599 17.5833 11.3333 17.7812 11.0469C17.9792 10.7604 18.1276 10.4323 18.2266 10.0625C18.3307 9.6875 18.3828 9.28906 18.3828 8.86719V8.6875C18.3828 8.27083 18.3307 7.8776 18.2266 7.50781C18.1276 7.13281 17.9766 6.80208 17.7734 6.51562C17.5755 6.22396 17.3255 5.99479 17.0234 5.82812C16.7266 5.66146 16.3776 5.57812 15.9766 5.57812C15.5807 5.57812 15.2318 5.66146 14.9297 5.82812C14.6328 5.99479 14.3828 6.22396 14.1797 6.51562C13.9818 6.80208 13.8333 7.13281 13.7344 7.50781C13.6354 7.8776 13.5859 8.27083 13.5859 8.6875ZM23.0859 6.22656V13H21.6328V4.54688H23.0078L23.0859 6.22656ZM22.7891 8.45312L22.1172 8.42969C22.1224 7.85156 22.1979 7.31771 22.3438 6.82812C22.4896 6.33333 22.7057 5.90365 22.9922 5.53906C23.2786 5.17448 23.6354 4.89323 24.0625 4.69531C24.4896 4.49219 24.9844 4.39062 25.5469 4.39062C25.9427 4.39062 26.3073 4.44792 26.6406 4.5625C26.974 4.67188 27.263 4.84635 27.5078 5.08594C27.7526 5.32552 27.9427 5.63281 28.0781 6.00781C28.2135 6.38281 28.2812 6.83594 28.2812 7.36719V13H26.8359V7.4375C26.8359 6.99479 26.7604 6.64062 26.6094 6.375C26.4635 6.10938 26.2552 5.91667 25.9844 5.79688C25.7135 5.67188 25.3958 5.60938 25.0312 5.60938C24.6042 5.60938 24.2474 5.6849 23.9609 5.83594C23.6745 5.98698 23.4453 6.19531 23.2734 6.46094C23.1016 6.72656 22.9766 7.03125 22.8984 7.375C22.8255 7.71354 22.7891 8.07292 22.7891 8.45312ZM28.2656 7.65625L27.2969 7.95312C27.3021 7.48958 27.3776 7.04427 27.5234 6.61719C27.6745 6.1901 27.8906 5.8099 28.1719 5.47656C28.4583 5.14323 28.8099 4.88021 29.2266 4.6875C29.6432 4.48958 30.1198 4.39062 30.6562 4.39062C31.1094 4.39062 31.5104 4.45052 31.8594 4.57031C32.2135 4.6901 32.5104 4.875 32.75 5.125C32.9948 5.36979 33.1797 5.6849 33.3047 6.07031C33.4297 6.45573 33.4922 6.91406 33.4922 7.44531V13H32.0391V7.42969C32.0391 6.95573 31.9635 6.58854 31.8125 6.32812C31.6667 6.0625 31.4583 5.8776 31.1875 5.77344C30.9219 5.66406 30.6042 5.60938 30.2344 5.60938C29.9167 5.60938 29.6354 5.66406 29.3906 5.77344C29.1458 5.88281 28.9401 6.03385 28.7734 6.22656C28.6068 6.41406 28.4792 6.63021 28.3906 6.875C28.3073 7.11979 28.2656 7.38021 28.2656 7.65625ZM39.1875 13.1562C38.599 13.1562 38.0651 13.0573 37.5859 12.8594C37.112 12.6562 36.7031 12.3724 36.3594 12.0078C36.0208 11.6432 35.7604 11.2109 35.5781 10.7109C35.3958 10.2109 35.3047 9.66406 35.3047 9.07031V8.74219C35.3047 8.05469 35.4062 7.44271 35.6094 6.90625C35.8125 6.36458 36.0885 5.90625 36.4375 5.53125C36.7865 5.15625 37.1823 4.8724 37.625 4.67969C38.0677 4.48698 38.526 4.39062 39 4.39062C39.6042 4.39062 40.125 4.49479 40.5625 4.70312C41.0052 4.91146 41.3672 5.20312 41.6484 5.57812C41.9297 5.94792 42.138 6.38542 42.2734 6.89062C42.4089 7.39062 42.4766 7.9375 42.4766 8.53125V9.17969H36.1641V8H41.0312V7.89062C41.0104 7.51562 40.9323 7.15104 40.7969 6.79688C40.6667 6.44271 40.4583 6.15104 40.1719 5.92188C39.8854 5.69271 39.4948 5.57812 39 5.57812C38.6719 5.57812 38.3698 5.64844 38.0938 5.78906C37.8177 5.92448 37.5807 6.1276 37.3828 6.39844C37.1849 6.66927 37.0312 7 36.9219 7.39062C36.8125 7.78125 36.7578 8.23177 36.7578 8.74219V9.07031C36.7578 9.47135 36.8125 9.84896 36.9219 10.2031C37.0365 10.5521 37.2005 10.8594 37.4141 11.125C37.6328 11.3906 37.8958 11.599 38.2031 11.75C38.5156 11.901 38.8698 11.9766 39.2656 11.9766C39.776 11.9766 40.2083 11.8724 40.5625 11.6641C40.9167 11.4557 41.2266 11.1771 41.4922 10.8281L42.3672 11.5234C42.1849 11.7995 41.9531 12.0625 41.6719 12.3125C41.3906 12.5625 41.0443 12.7656 40.6328 12.9219C40.2266 13.0781 39.7448 13.1562 39.1875 13.1562Z" fill="#4C5067"/>
<rect x="0.25" y="24.25" width="454.5" height="39.5" rx="3.75" fill="white" stroke="#D9D9D9" stroke-width="0.5"/>
<rect x="12" y="40" width="156" height="9" fill="#F5F5F5"/>
<path d="M8.54688 99.7734V101H2.52344V99.7734H8.54688ZM2.82812 89.625V101H1.32031V89.625H2.82812ZM7.75 94.5156V95.7422H2.52344V94.5156H7.75ZM8.46875 89.625V90.8594H2.52344V89.625H8.46875ZM13.2031 95.5703V96.7578H9.39062V95.5703H13.2031ZM16.0547 94.2266V101H14.6016V92.5469H15.9766L16.0547 94.2266ZM15.7578 96.4531L15.0859 96.4297C15.0911 95.8516 15.1667 95.3177 15.3125 94.8281C15.4583 94.3333 15.6745 93.9036 15.9609 93.5391C16.2474 93.1745 16.6042 92.8932 17.0312 92.6953C17.4583 92.4922 17.9531 92.3906 18.5156 92.3906C18.9115 92.3906 19.276 92.4479 19.6094 92.5625C19.9427 92.6719 20.2318 92.8464 20.4766 93.0859C20.7214 93.3255 20.9115 93.6328 21.0469 94.0078C21.1823 94.3828 21.25 94.8359 21.25 95.3672V101H19.8047V95.4375C19.8047 94.9948 19.7292 94.6406 19.5781 94.375C19.4323 94.1094 19.224 93.9167 18.9531 93.7969C18.6823 93.6719 18.3646 93.6094 18 93.6094C17.5729 93.6094 17.2161 93.6849 16.9297 93.8359C16.6432 93.987 16.4141 94.1953 16.2422 94.4609C16.0703 94.7266 15.9453 95.0312 15.8672 95.375C15.7943 95.7135 15.7578 96.0729 15.7578 96.4531ZM21.2344 95.6562L20.2656 95.9531C20.2708 95.4896 20.3464 95.0443 20.4922 94.6172C20.6432 94.1901 20.8594 93.8099 21.1406 93.4766C21.4271 93.1432 21.7786 92.8802 22.1953 92.6875C22.612 92.4896 23.0885 92.3906 23.625 92.3906C24.0781 92.3906 24.4792 92.4505 24.8281 92.5703C25.1823 92.6901 25.4792 92.875 25.7188 93.125C25.9635 93.3698 26.1484 93.6849 26.2734 94.0703C26.3984 94.4557 26.4609 94.9141 26.4609 95.4453V101H25.0078V95.4297C25.0078 94.9557 24.9323 94.5885 24.7812 94.3281C24.6354 94.0625 24.4271 93.8776 24.1562 93.7734C23.8906 93.6641 23.5729 93.6094 23.2031 93.6094C22.8854 93.6094 22.6042 93.6641 22.3594 93.7734C22.1146 93.8828 21.9089 94.0339 21.7422 94.2266C21.5755 94.4141 21.4479 94.6302 21.3594 94.875C21.276 95.1198 21.2344 95.3802 21.2344 95.6562ZM33.6328 99.5547V95.2031C33.6328 94.8698 33.5651 94.5807 33.4297 94.3359C33.2995 94.0859 33.1016 93.8932 32.8359 93.7578C32.5703 93.6224 32.2422 93.5547 31.8516 93.5547C31.487 93.5547 31.1667 93.6172 30.8906 93.7422C30.6198 93.8672 30.4062 94.0312 30.25 94.2344C30.099 94.4375 30.0234 94.6562 30.0234 94.8906H28.5781C28.5781 94.5885 28.6562 94.2891 28.8125 93.9922C28.9688 93.6953 29.1927 93.4271 29.4844 93.1875C29.7812 92.9427 30.1354 92.75 30.5469 92.6094C30.9635 92.4635 31.4271 92.3906 31.9375 92.3906C32.5521 92.3906 33.0938 92.4948 33.5625 92.7031C34.0365 92.9115 34.4062 93.2266 34.6719 93.6484C34.9427 94.0651 35.0781 94.5885 35.0781 95.2188V99.1562C35.0781 99.4375 35.1016 99.737 35.1484 100.055C35.2005 100.372 35.276 100.646 35.375 100.875V101H33.8672C33.7943 100.833 33.737 100.612 33.6953 100.336C33.6536 100.055 33.6328 99.7943 33.6328 99.5547ZM33.8828 95.875L33.8984 96.8906H32.4375C32.026 96.8906 31.6589 96.9245 31.3359 96.9922C31.013 97.0547 30.7422 97.151 30.5234 97.2812C30.3047 97.4115 30.138 97.5755 30.0234 97.7734C29.9089 97.9661 29.8516 98.1927 29.8516 98.4531C29.8516 98.7188 29.9115 98.9609 30.0312 99.1797C30.151 99.3984 30.3307 99.5729 30.5703 99.7031C30.8151 99.8281 31.1146 99.8906 31.4688 99.8906C31.9115 99.8906 32.3021 99.7969 32.6406 99.6094C32.9792 99.4219 33.2474 99.1927 33.4453 98.9219C33.6484 98.651 33.7578 98.388 33.7734 98.1328L34.3906 98.8281C34.3542 99.0469 34.2552 99.2891 34.0938 99.5547C33.9323 99.8203 33.7161 100.076 33.4453 100.32C33.1797 100.56 32.862 100.76 32.4922 100.922C32.1276 101.078 31.7161 101.156 31.2578 101.156C30.6849 101.156 30.1823 101.044 29.75 100.82C29.3229 100.596 28.9896 100.297 28.75 99.9219C28.5156 99.5417 28.3984 99.1172 28.3984 98.6484C28.3984 98.1953 28.487 97.7969 28.6641 97.4531C28.8411 97.1042 29.0964 96.8151 29.4297 96.5859C29.763 96.3516 30.1641 96.1745 30.6328 96.0547C31.1016 95.9349 31.625 95.875 32.2031 95.875H33.8828ZM38.9219 92.5469V101H37.4688V92.5469H38.9219ZM37.3594 90.3047C37.3594 90.0703 37.4297 89.8724 37.5703 89.7109C37.7161 89.5495 37.9297 89.4688 38.2109 89.4688C38.487 89.4688 38.6979 89.5495 38.8438 89.7109C38.9948 89.8724 39.0703 90.0703 39.0703 90.3047C39.0703 90.5286 38.9948 90.7214 38.8438 90.8828C38.6979 91.0391 38.487 91.1172 38.2109 91.1172C37.9297 91.1172 37.7161 91.0391 37.5703 90.8828C37.4297 90.7214 37.3594 90.5286 37.3594 90.3047ZM42.8125 89V101H41.3594V89H42.8125Z" fill="#4C5067"/>
<rect x="0.25" y="112.25" width="454.5" height="39.5" rx="3.75" fill="white" stroke="#D9D9D9" stroke-width="0.5"/>
<rect x="12" y="128" width="156" height="9" fill="#F5F5F5"/>
<path d="M2.9375 177.625V189H1.42969V177.625H2.9375ZM6.90625 182.352V189H5.46094V180.547H6.82812L6.90625 182.352ZM6.5625 184.453L5.96094 184.43C5.96615 183.852 6.05208 183.318 6.21875 182.828C6.38542 182.333 6.61979 181.904 6.92188 181.539C7.22396 181.174 7.58333 180.893 8 180.695C8.42188 180.492 8.88802 180.391 9.39844 180.391C9.8151 180.391 10.1901 180.448 10.5234 180.562C10.8568 180.672 11.1406 180.849 11.375 181.094C11.6146 181.339 11.7969 181.656 11.9219 182.047C12.0469 182.432 12.1094 182.904 12.1094 183.461V189H10.6562V183.445C10.6562 183.003 10.5911 182.648 10.4609 182.383C10.3307 182.112 10.1406 181.917 9.89062 181.797C9.64062 181.672 9.33333 181.609 8.96875 181.609C8.60938 181.609 8.28125 181.685 7.98438 181.836C7.69271 181.987 7.4401 182.195 7.22656 182.461C7.01823 182.727 6.85417 183.031 6.73438 183.375C6.61979 183.714 6.5625 184.073 6.5625 184.453ZM19.2266 186.758C19.2266 186.549 19.1797 186.357 19.0859 186.18C18.9974 185.997 18.8125 185.833 18.5312 185.688C18.2552 185.536 17.8385 185.406 17.2812 185.297C16.8125 185.198 16.388 185.081 16.0078 184.945C15.6328 184.81 15.3125 184.646 15.0469 184.453C14.7865 184.26 14.5859 184.034 14.4453 183.773C14.3047 183.513 14.2344 183.208 14.2344 182.859C14.2344 182.526 14.3073 182.211 14.4531 181.914C14.6042 181.617 14.8151 181.354 15.0859 181.125C15.362 180.896 15.6927 180.716 16.0781 180.586C16.4635 180.456 16.8932 180.391 17.3672 180.391C18.0443 180.391 18.6224 180.51 19.1016 180.75C19.5807 180.99 19.9479 181.31 20.2031 181.711C20.4583 182.107 20.5859 182.547 20.5859 183.031H19.1406C19.1406 182.797 19.0703 182.57 18.9297 182.352C18.7943 182.128 18.5938 181.943 18.3281 181.797C18.0677 181.651 17.7474 181.578 17.3672 181.578C16.9661 181.578 16.6406 181.641 16.3906 181.766C16.1458 181.885 15.9661 182.039 15.8516 182.227C15.7422 182.414 15.6875 182.612 15.6875 182.82C15.6875 182.977 15.7135 183.117 15.7656 183.242C15.8229 183.362 15.9219 183.474 16.0625 183.578C16.2031 183.677 16.401 183.771 16.6562 183.859C16.9115 183.948 17.237 184.036 17.6328 184.125C18.3255 184.281 18.8958 184.469 19.3438 184.688C19.7917 184.906 20.125 185.174 20.3438 185.492C20.5625 185.81 20.6719 186.195 20.6719 186.648C20.6719 187.018 20.5938 187.357 20.4375 187.664C20.2865 187.971 20.0651 188.237 19.7734 188.461C19.487 188.68 19.1432 188.852 18.7422 188.977C18.3464 189.096 17.901 189.156 17.4062 189.156C16.6615 189.156 16.0312 189.023 15.5156 188.758C15 188.492 14.6094 188.148 14.3438 187.727C14.0781 187.305 13.9453 186.859 13.9453 186.391H15.3984C15.4193 186.786 15.5339 187.102 15.7422 187.336C15.9505 187.565 16.2057 187.729 16.5078 187.828C16.8099 187.922 17.1094 187.969 17.4062 187.969C17.8021 187.969 18.1328 187.917 18.3984 187.812C18.6693 187.708 18.875 187.565 19.0156 187.383C19.1562 187.201 19.2266 186.992 19.2266 186.758ZM24.1406 180.547V189H22.6875V180.547H24.1406ZM22.5781 178.305C22.5781 178.07 22.6484 177.872 22.7891 177.711C22.9349 177.549 23.1484 177.469 23.4297 177.469C23.7057 177.469 23.9167 177.549 24.0625 177.711C24.2135 177.872 24.2891 178.07 24.2891 178.305C24.2891 178.529 24.2135 178.721 24.0625 178.883C23.9167 179.039 23.7057 179.117 23.4297 179.117C23.1484 179.117 22.9349 179.039 22.7891 178.883C22.6484 178.721 22.5781 178.529 22.5781 178.305ZM27.9062 181.875V189H26.4609V180.547H27.8672L27.9062 181.875ZM30.5469 180.5L30.5391 181.844C30.4193 181.818 30.3047 181.802 30.1953 181.797C30.0911 181.786 29.9714 181.781 29.8359 181.781C29.5026 181.781 29.2083 181.833 28.9531 181.938C28.6979 182.042 28.4818 182.188 28.3047 182.375C28.1276 182.562 27.987 182.786 27.8828 183.047C27.7839 183.302 27.7188 183.583 27.6875 183.891L27.2812 184.125C27.2812 183.615 27.3307 183.135 27.4297 182.688C27.5339 182.24 27.6927 181.844 27.9062 181.5C28.1198 181.151 28.3906 180.88 28.7188 180.688C29.0521 180.49 29.4479 180.391 29.9062 180.391C30.0104 180.391 30.1302 180.404 30.2656 180.43C30.401 180.451 30.4948 180.474 30.5469 180.5ZM36.5547 187.555V183.203C36.5547 182.87 36.487 182.581 36.3516 182.336C36.2214 182.086 36.0234 181.893 35.7578 181.758C35.4922 181.622 35.1641 181.555 34.7734 181.555C34.4089 181.555 34.0885 181.617 33.8125 181.742C33.5417 181.867 33.3281 182.031 33.1719 182.234C33.0208 182.438 32.9453 182.656 32.9453 182.891H31.5C31.5 182.589 31.5781 182.289 31.7344 181.992C31.8906 181.695 32.1146 181.427 32.4062 181.188C32.7031 180.943 33.0573 180.75 33.4688 180.609C33.8854 180.464 34.349 180.391 34.8594 180.391C35.474 180.391 36.0156 180.495 36.4844 180.703C36.9583 180.911 37.3281 181.227 37.5938 181.648C37.8646 182.065 38 182.589 38 183.219V187.156C38 187.438 38.0234 187.737 38.0703 188.055C38.1224 188.372 38.1979 188.646 38.2969 188.875V189H36.7891C36.7161 188.833 36.6589 188.612 36.6172 188.336C36.5755 188.055 36.5547 187.794 36.5547 187.555ZM36.8047 183.875L36.8203 184.891H35.3594C34.9479 184.891 34.5807 184.924 34.2578 184.992C33.9349 185.055 33.6641 185.151 33.4453 185.281C33.2266 185.411 33.0599 185.576 32.9453 185.773C32.8307 185.966 32.7734 186.193 32.7734 186.453C32.7734 186.719 32.8333 186.961 32.9531 187.18C33.0729 187.398 33.2526 187.573 33.4922 187.703C33.737 187.828 34.0365 187.891 34.3906 187.891C34.8333 187.891 35.224 187.797 35.5625 187.609C35.901 187.422 36.1693 187.193 36.3672 186.922C36.5703 186.651 36.6797 186.388 36.6953 186.133L37.3125 186.828C37.276 187.047 37.1771 187.289 37.0156 187.555C36.8542 187.82 36.638 188.076 36.3672 188.32C36.1016 188.56 35.7839 188.76 35.4141 188.922C35.0495 189.078 34.638 189.156 34.1797 189.156C33.6068 189.156 33.1042 189.044 32.6719 188.82C32.2448 188.596 31.9115 188.297 31.6719 187.922C31.4375 187.542 31.3203 187.117 31.3203 186.648C31.3203 186.195 31.4089 185.797 31.5859 185.453C31.763 185.104 32.0182 184.815 32.3516 184.586C32.6849 184.352 33.0859 184.174 33.5547 184.055C34.0234 183.935 34.5469 183.875 35.125 183.875H36.8047ZM49.1641 186.758C49.1641 186.549 49.1172 186.357 49.0234 186.18C48.9349 185.997 48.75 185.833 48.4688 185.688C48.1927 185.536 47.776 185.406 47.2188 185.297C46.75 185.198 46.3255 185.081 45.9453 184.945C45.5703 184.81 45.25 184.646 44.9844 184.453C44.724 184.26 44.5234 184.034 44.3828 183.773C44.2422 183.513 44.1719 183.208 44.1719 182.859C44.1719 182.526 44.2448 182.211 44.3906 181.914C44.5417 181.617 44.7526 181.354 45.0234 181.125C45.2995 180.896 45.6302 180.716 46.0156 180.586C46.401 180.456 46.8307 180.391 47.3047 180.391C47.9818 180.391 48.5599 180.51 49.0391 180.75C49.5182 180.99 49.8854 181.31 50.1406 181.711C50.3958 182.107 50.5234 182.547 50.5234 183.031H49.0781C49.0781 182.797 49.0078 182.57 48.8672 182.352C48.7318 182.128 48.5312 181.943 48.2656 181.797C48.0052 181.651 47.6849 181.578 47.3047 181.578C46.9036 181.578 46.5781 181.641 46.3281 181.766C46.0833 181.885 45.9036 182.039 45.7891 182.227C45.6797 182.414 45.625 182.612 45.625 182.82C45.625 182.977 45.651 183.117 45.7031 183.242C45.7604 183.362 45.8594 183.474 46 183.578C46.1406 183.677 46.3385 183.771 46.5938 183.859C46.849 183.948 47.1745 184.036 47.5703 184.125C48.263 184.281 48.8333 184.469 49.2812 184.688C49.7292 184.906 50.0625 185.174 50.2812 185.492C50.5 185.81 50.6094 186.195 50.6094 186.648C50.6094 187.018 50.5312 187.357 50.375 187.664C50.224 187.971 50.0026 188.237 49.7109 188.461C49.4245 188.68 49.0807 188.852 48.6797 188.977C48.2839 189.096 47.8385 189.156 47.3438 189.156C46.599 189.156 45.9688 189.023 45.4531 188.758C44.9375 188.492 44.5469 188.148 44.2812 187.727C44.0156 187.305 43.8828 186.859 43.8828 186.391H45.3359C45.3568 186.786 45.4714 187.102 45.6797 187.336C45.888 187.565 46.1432 187.729 46.4453 187.828C46.7474 187.922 47.0469 187.969 47.3438 187.969C47.7396 187.969 48.0703 187.917 48.3359 187.812C48.6068 187.708 48.8125 187.565 48.9531 187.383C49.0938 187.201 49.1641 186.992 49.1641 186.758ZM56.0156 189.156C55.4271 189.156 54.8932 189.057 54.4141 188.859C53.9401 188.656 53.5312 188.372 53.1875 188.008C52.849 187.643 52.5885 187.211 52.4062 186.711C52.224 186.211 52.1328 185.664 52.1328 185.07V184.742C52.1328 184.055 52.2344 183.443 52.4375 182.906C52.6406 182.365 52.9167 181.906 53.2656 181.531C53.6146 181.156 54.0104 180.872 54.4531 180.68C54.8958 180.487 55.3542 180.391 55.8281 180.391C56.4323 180.391 56.9531 180.495 57.3906 180.703C57.8333 180.911 58.1953 181.203 58.4766 181.578C58.7578 181.948 58.9661 182.385 59.1016 182.891C59.237 183.391 59.3047 183.938 59.3047 184.531V185.18H52.9922V184H57.8594V183.891C57.8385 183.516 57.7604 183.151 57.625 182.797C57.4948 182.443 57.2865 182.151 57 181.922C56.7135 181.693 56.3229 181.578 55.8281 181.578C55.5 181.578 55.1979 181.648 54.9219 181.789C54.6458 181.924 54.4089 182.128 54.2109 182.398C54.013 182.669 53.8594 183 53.75 183.391C53.6406 183.781 53.5859 184.232 53.5859 184.742V185.07C53.5859 185.471 53.6406 185.849 53.75 186.203C53.8646 186.552 54.0286 186.859 54.2422 187.125C54.4609 187.391 54.724 187.599 55.0312 187.75C55.3438 187.901 55.6979 187.977 56.0938 187.977C56.6042 187.977 57.0365 187.872 57.3906 187.664C57.7448 187.456 58.0547 187.177 58.3203 186.828L59.1953 187.523C59.013 187.799 58.7812 188.062 58.5 188.312C58.2188 188.562 57.8724 188.766 57.4609 188.922C57.0547 189.078 56.5729 189.156 56.0156 189.156ZM66.1641 187.047V180.547H67.6172V189H66.2344L66.1641 187.047ZM66.4375 185.266L67.0391 185.25C67.0391 185.812 66.9792 186.333 66.8594 186.812C66.7448 187.286 66.5573 187.698 66.2969 188.047C66.0365 188.396 65.6953 188.669 65.2734 188.867C64.8516 189.06 64.3385 189.156 63.7344 189.156C63.3229 189.156 62.9453 189.096 62.6016 188.977C62.263 188.857 61.9714 188.672 61.7266 188.422C61.4818 188.172 61.2917 187.846 61.1562 187.445C61.026 187.044 60.9609 186.562 60.9609 186V180.547H62.4062V186.016C62.4062 186.396 62.4479 186.711 62.5312 186.961C62.6198 187.206 62.737 187.401 62.8828 187.547C63.0339 187.688 63.2005 187.786 63.3828 187.844C63.5703 187.901 63.763 187.93 63.9609 187.93C64.5755 187.93 65.0625 187.812 65.4219 187.578C65.7812 187.339 66.0391 187.018 66.1953 186.617C66.3568 186.211 66.4375 185.76 66.4375 185.266ZM75.2344 182.352V189H73.7891V180.547H75.1562L75.2344 182.352ZM74.8906 184.453L74.2891 184.43C74.2943 183.852 74.3802 183.318 74.5469 182.828C74.7135 182.333 74.9479 181.904 75.25 181.539C75.5521 181.174 75.9115 180.893 76.3281 180.695C76.75 180.492 77.2161 180.391 77.7266 180.391C78.1432 180.391 78.5182 180.448 78.8516 180.562C79.1849 180.672 79.4688 180.849 79.7031 181.094C79.9427 181.339 80.125 181.656 80.25 182.047C80.375 182.432 80.4375 182.904 80.4375 183.461V189H78.9844V183.445C78.9844 183.003 78.9193 182.648 78.7891 182.383C78.6589 182.112 78.4688 181.917 78.2188 181.797C77.9688 181.672 77.6615 181.609 77.2969 181.609C76.9375 181.609 76.6094 181.685 76.3125 181.836C76.0208 181.987 75.7682 182.195 75.5547 182.461C75.3464 182.727 75.1823 183.031 75.0625 183.375C74.9479 183.714 74.8906 184.073 74.8906 184.453ZM87.8047 187.047V180.547H89.2578V189H87.875L87.8047 187.047ZM88.0781 185.266L88.6797 185.25C88.6797 185.812 88.6198 186.333 88.5 186.812C88.3854 187.286 88.1979 187.698 87.9375 188.047C87.6771 188.396 87.3359 188.669 86.9141 188.867C86.4922 189.06 85.9792 189.156 85.375 189.156C84.9635 189.156 84.5859 189.096 84.2422 188.977C83.9036 188.857 83.612 188.672 83.3672 188.422C83.1224 188.172 82.9323 187.846 82.7969 187.445C82.6667 187.044 82.6016 186.562 82.6016 186V180.547H84.0469V186.016C84.0469 186.396 84.0885 186.711 84.1719 186.961C84.2604 187.206 84.3776 187.401 84.5234 187.547C84.6745 187.688 84.8411 187.786 85.0234 187.844C85.2109 187.901 85.4036 187.93 85.6016 187.93C86.2161 187.93 86.7031 187.812 87.0625 187.578C87.4219 187.339 87.6797 187.018 87.8359 186.617C87.9974 186.211 88.0781 185.76 88.0781 185.266ZM85.1641 179.297L86.6797 177H88.4219L86.3281 179.297H85.1641ZM92.8984 182.227V189H91.4453V180.547H92.8203L92.8984 182.227ZM92.6016 184.453L91.9297 184.43C91.9349 183.852 92.0104 183.318 92.1562 182.828C92.3021 182.333 92.5182 181.904 92.8047 181.539C93.0911 181.174 93.4479 180.893 93.875 180.695C94.3021 180.492 94.7969 180.391 95.3594 180.391C95.7552 180.391 96.1198 180.448 96.4531 180.562C96.7865 180.672 97.0755 180.846 97.3203 181.086C97.5651 181.326 97.7552 181.633 97.8906 182.008C98.026 182.383 98.0938 182.836 98.0938 183.367V189H96.6484V183.438C96.6484 182.995 96.5729 182.641 96.4219 182.375C96.276 182.109 96.0677 181.917 95.7969 181.797C95.526 181.672 95.2083 181.609 94.8438 181.609C94.4167 181.609 94.0599 181.685 93.7734 181.836C93.487 181.987 93.2578 182.195 93.0859 182.461C92.9141 182.727 92.7891 183.031 92.7109 183.375C92.638 183.714 92.6016 184.073 92.6016 184.453ZM98.0781 183.656L97.1094 183.953C97.1146 183.49 97.1901 183.044 97.3359 182.617C97.487 182.19 97.7031 181.81 97.9844 181.477C98.2708 181.143 98.6224 180.88 99.0391 180.688C99.4557 180.49 99.9323 180.391 100.469 180.391C100.922 180.391 101.323 180.451 101.672 180.57C102.026 180.69 102.323 180.875 102.562 181.125C102.807 181.37 102.992 181.685 103.117 182.07C103.242 182.456 103.305 182.914 103.305 183.445V189H101.852V183.43C101.852 182.956 101.776 182.589 101.625 182.328C101.479 182.062 101.271 181.878 101 181.773C100.734 181.664 100.417 181.609 100.047 181.609C99.7292 181.609 99.4479 181.664 99.2031 181.773C98.9583 181.883 98.7526 182.034 98.5859 182.227C98.4193 182.414 98.2917 182.63 98.2031 182.875C98.1198 183.12 98.0781 183.38 98.0781 183.656ZM109 189.156C108.411 189.156 107.878 189.057 107.398 188.859C106.924 188.656 106.516 188.372 106.172 188.008C105.833 187.643 105.573 187.211 105.391 186.711C105.208 186.211 105.117 185.664 105.117 185.07V184.742C105.117 184.055 105.219 183.443 105.422 182.906C105.625 182.365 105.901 181.906 106.25 181.531C106.599 181.156 106.995 180.872 107.438 180.68C107.88 180.487 108.339 180.391 108.812 180.391C109.417 180.391 109.938 180.495 110.375 180.703C110.818 180.911 111.18 181.203 111.461 181.578C111.742 181.948 111.951 182.385 112.086 182.891C112.221 183.391 112.289 183.938 112.289 184.531V185.18H105.977V184H110.844V183.891C110.823 183.516 110.745 183.151 110.609 182.797C110.479 182.443 110.271 182.151 109.984 181.922C109.698 181.693 109.307 181.578 108.812 181.578C108.484 181.578 108.182 181.648 107.906 181.789C107.63 181.924 107.393 182.128 107.195 182.398C106.997 182.669 106.844 183 106.734 183.391C106.625 183.781 106.57 184.232 106.57 184.742V185.07C106.57 185.471 106.625 185.849 106.734 186.203C106.849 186.552 107.013 186.859 107.227 187.125C107.445 187.391 107.708 187.599 108.016 187.75C108.328 187.901 108.682 187.977 109.078 187.977C109.589 187.977 110.021 187.872 110.375 187.664C110.729 187.456 111.039 187.177 111.305 186.828L112.18 187.523C111.997 187.799 111.766 188.062 111.484 188.312C111.203 188.562 110.857 188.766 110.445 188.922C110.039 189.078 109.557 189.156 109 189.156ZM115.422 181.875V189H113.977V180.547H115.383L115.422 181.875ZM118.062 180.5L118.055 181.844C117.935 181.818 117.82 181.802 117.711 181.797C117.607 181.786 117.487 181.781 117.352 181.781C117.018 181.781 116.724 181.833 116.469 181.938C116.214 182.042 115.997 182.188 115.82 182.375C115.643 182.562 115.503 182.786 115.398 183.047C115.299 183.302 115.234 183.583 115.203 183.891L114.797 184.125C114.797 183.615 114.846 183.135 114.945 182.688C115.049 182.24 115.208 181.844 115.422 181.5C115.635 181.151 115.906 180.88 116.234 180.688C116.568 180.49 116.964 180.391 117.422 180.391C117.526 180.391 117.646 180.404 117.781 180.43C117.917 180.451 118.01 180.474 118.062 180.5ZM118.859 184.867V184.688C118.859 184.078 118.948 183.513 119.125 182.992C119.302 182.466 119.557 182.01 119.891 181.625C120.224 181.234 120.628 180.932 121.102 180.719C121.576 180.5 122.107 180.391 122.695 180.391C123.289 180.391 123.823 180.5 124.297 180.719C124.776 180.932 125.182 181.234 125.516 181.625C125.854 182.01 126.112 182.466 126.289 182.992C126.466 183.513 126.555 184.078 126.555 184.688V184.867C126.555 185.477 126.466 186.042 126.289 186.562C126.112 187.083 125.854 187.539 125.516 187.93C125.182 188.315 124.779 188.617 124.305 188.836C123.836 189.049 123.305 189.156 122.711 189.156C122.117 189.156 121.583 189.049 121.109 188.836C120.635 188.617 120.229 188.315 119.891 187.93C119.557 187.539 119.302 187.083 119.125 186.562C118.948 186.042 118.859 185.477 118.859 184.867ZM120.305 184.688V184.867C120.305 185.289 120.354 185.688 120.453 186.062C120.552 186.432 120.701 186.76 120.898 187.047C121.102 187.333 121.354 187.56 121.656 187.727C121.958 187.888 122.31 187.969 122.711 187.969C123.107 187.969 123.453 187.888 123.75 187.727C124.052 187.56 124.302 187.333 124.5 187.047C124.698 186.76 124.846 186.432 124.945 186.062C125.049 185.688 125.102 185.289 125.102 184.867V184.688C125.102 184.271 125.049 183.878 124.945 183.508C124.846 183.133 124.695 182.802 124.492 182.516C124.294 182.224 124.044 181.995 123.742 181.828C123.445 181.661 123.096 181.578 122.695 181.578C122.299 181.578 121.951 181.661 121.648 181.828C121.352 181.995 121.102 182.224 120.898 182.516C120.701 182.802 120.552 183.133 120.453 183.508C120.354 183.878 120.305 184.271 120.305 184.688ZM135.719 187.969C136.062 187.969 136.38 187.898 136.672 187.758C136.964 187.617 137.203 187.424 137.391 187.18C137.578 186.93 137.685 186.646 137.711 186.328H139.086C139.06 186.828 138.891 187.294 138.578 187.727C138.271 188.154 137.867 188.5 137.367 188.766C136.867 189.026 136.318 189.156 135.719 189.156C135.083 189.156 134.529 189.044 134.055 188.82C133.586 188.596 133.195 188.289 132.883 187.898C132.576 187.508 132.344 187.06 132.188 186.555C132.036 186.044 131.961 185.505 131.961 184.938V184.609C131.961 184.042 132.036 183.505 132.188 183C132.344 182.49 132.576 182.039 132.883 181.648C133.195 181.258 133.586 180.951 134.055 180.727C134.529 180.503 135.083 180.391 135.719 180.391C136.38 180.391 136.958 180.526 137.453 180.797C137.948 181.062 138.336 181.427 138.617 181.891C138.904 182.349 139.06 182.87 139.086 183.453H137.711C137.685 183.104 137.586 182.789 137.414 182.508C137.247 182.227 137.018 182.003 136.727 181.836C136.44 181.664 136.104 181.578 135.719 181.578C135.276 181.578 134.904 181.667 134.602 181.844C134.305 182.016 134.068 182.25 133.891 182.547C133.719 182.839 133.594 183.164 133.516 183.523C133.443 183.878 133.406 184.24 133.406 184.609V184.938C133.406 185.307 133.443 185.672 133.516 186.031C133.589 186.391 133.711 186.716 133.883 187.008C134.06 187.299 134.297 187.534 134.594 187.711C134.896 187.883 135.271 187.969 135.719 187.969ZM140.328 184.867V184.688C140.328 184.078 140.417 183.513 140.594 182.992C140.771 182.466 141.026 182.01 141.359 181.625C141.693 181.234 142.096 180.932 142.57 180.719C143.044 180.5 143.576 180.391 144.164 180.391C144.758 180.391 145.292 180.5 145.766 180.719C146.245 180.932 146.651 181.234 146.984 181.625C147.323 182.01 147.581 182.466 147.758 182.992C147.935 183.513 148.023 184.078 148.023 184.688V184.867C148.023 185.477 147.935 186.042 147.758 186.562C147.581 187.083 147.323 187.539 146.984 187.93C146.651 188.315 146.247 188.617 145.773 188.836C145.305 189.049 144.773 189.156 144.18 189.156C143.586 189.156 143.052 189.049 142.578 188.836C142.104 188.617 141.698 188.315 141.359 187.93C141.026 187.539 140.771 187.083 140.594 186.562C140.417 186.042 140.328 185.477 140.328 184.867ZM141.773 184.688V184.867C141.773 185.289 141.823 185.688 141.922 186.062C142.021 186.432 142.169 186.76 142.367 187.047C142.57 187.333 142.823 187.56 143.125 187.727C143.427 187.888 143.779 187.969 144.18 187.969C144.576 187.969 144.922 187.888 145.219 187.727C145.521 187.56 145.771 187.333 145.969 187.047C146.167 186.76 146.315 186.432 146.414 186.062C146.518 185.688 146.57 185.289 146.57 184.867V184.688C146.57 184.271 146.518 183.878 146.414 183.508C146.315 183.133 146.164 182.802 145.961 182.516C145.763 182.224 145.513 181.995 145.211 181.828C144.914 181.661 144.565 181.578 144.164 181.578C143.768 181.578 143.419 181.661 143.117 181.828C142.82 181.995 142.57 182.224 142.367 182.516C142.169 182.802 142.021 183.133 141.922 183.508C141.823 183.878 141.773 184.271 141.773 184.688ZM151.273 182.227V189H149.82V180.547H151.195L151.273 182.227ZM150.977 184.453L150.305 184.43C150.31 183.852 150.385 183.318 150.531 182.828C150.677 182.333 150.893 181.904 151.18 181.539C151.466 181.174 151.823 180.893 152.25 180.695C152.677 180.492 153.172 180.391 153.734 180.391C154.13 180.391 154.495 180.448 154.828 180.562C155.161 180.672 155.451 180.846 155.695 181.086C155.94 181.326 156.13 181.633 156.266 182.008C156.401 182.383 156.469 182.836 156.469 183.367V189H155.023V183.438C155.023 182.995 154.948 182.641 154.797 182.375C154.651 182.109 154.443 181.917 154.172 181.797C153.901 181.672 153.583 181.609 153.219 181.609C152.792 181.609 152.435 181.685 152.148 181.836C151.862 181.987 151.633 182.195 151.461 182.461C151.289 182.727 151.164 183.031 151.086 183.375C151.013 183.714 150.977 184.073 150.977 184.453ZM156.453 183.656L155.484 183.953C155.49 183.49 155.565 183.044 155.711 182.617C155.862 182.19 156.078 181.81 156.359 181.477C156.646 181.143 156.997 180.88 157.414 180.688C157.831 180.49 158.307 180.391 158.844 180.391C159.297 180.391 159.698 180.451 160.047 180.57C160.401 180.69 160.698 180.875 160.938 181.125C161.182 181.37 161.367 181.685 161.492 182.07C161.617 182.456 161.68 182.914 161.68 183.445V189H160.227V183.43C160.227 182.956 160.151 182.589 160 182.328C159.854 182.062 159.646 181.878 159.375 181.773C159.109 181.664 158.792 181.609 158.422 181.609C158.104 181.609 157.823 181.664 157.578 181.773C157.333 181.883 157.128 182.034 156.961 182.227C156.794 182.414 156.667 182.63 156.578 182.875C156.495 183.12 156.453 183.38 156.453 183.656ZM171.133 189H168.758L168.773 187.773H171.133C171.945 187.773 172.622 187.604 173.164 187.266C173.706 186.922 174.112 186.443 174.383 185.828C174.659 185.208 174.797 184.484 174.797 183.656V182.961C174.797 182.31 174.719 181.732 174.562 181.227C174.406 180.716 174.177 180.286 173.875 179.938C173.573 179.583 173.203 179.315 172.766 179.133C172.333 178.951 171.836 178.859 171.273 178.859H168.711V177.625H171.273C172.018 177.625 172.698 177.75 173.312 178C173.927 178.245 174.456 178.602 174.898 179.07C175.346 179.534 175.69 180.096 175.93 180.758C176.169 181.414 176.289 182.154 176.289 182.977V183.656C176.289 184.479 176.169 185.221 175.93 185.883C175.69 186.539 175.344 187.099 174.891 187.562C174.443 188.026 173.901 188.383 173.266 188.633C172.635 188.878 171.924 189 171.133 189ZM169.562 177.625V189H168.055V177.625H169.562ZM181.633 189H179.258L179.273 187.773H181.633C182.445 187.773 183.122 187.604 183.664 187.266C184.206 186.922 184.612 186.443 184.883 185.828C185.159 185.208 185.297 184.484 185.297 183.656V182.961C185.297 182.31 185.219 181.732 185.062 181.227C184.906 180.716 184.677 180.286 184.375 179.938C184.073 179.583 183.703 179.315 183.266 179.133C182.833 178.951 182.336 178.859 181.773 178.859H179.211V177.625H181.773C182.518 177.625 183.198 177.75 183.812 178C184.427 178.245 184.956 178.602 185.398 179.07C185.846 179.534 186.19 180.096 186.43 180.758C186.669 181.414 186.789 182.154 186.789 182.977V183.656C186.789 184.479 186.669 185.221 186.43 185.883C186.19 186.539 185.844 187.099 185.391 187.562C184.943 188.026 184.401 188.383 183.766 188.633C183.135 188.878 182.424 189 181.633 189ZM180.062 177.625V189H178.555V177.625H180.062ZM192.133 189H189.758L189.773 187.773H192.133C192.945 187.773 193.622 187.604 194.164 187.266C194.706 186.922 195.112 186.443 195.383 185.828C195.659 185.208 195.797 184.484 195.797 183.656V182.961C195.797 182.31 195.719 181.732 195.562 181.227C195.406 180.716 195.177 180.286 194.875 179.938C194.573 179.583 194.203 179.315 193.766 179.133C193.333 178.951 192.836 178.859 192.273 178.859H189.711V177.625H192.273C193.018 177.625 193.698 177.75 194.312 178C194.927 178.245 195.456 178.602 195.898 179.07C196.346 179.534 196.69 180.096 196.93 180.758C197.169 181.414 197.289 182.154 197.289 182.977V183.656C197.289 184.479 197.169 185.221 196.93 185.883C196.69 186.539 196.344 187.099 195.891 187.562C195.443 188.026 194.901 188.383 194.266 188.633C193.635 188.878 192.924 189 192.133 189ZM190.562 177.625V189H189.055V177.625H190.562Z" fill="#4C5067"/>
<rect x="0.25" y="200.25" width="454.5" height="39.5" rx="3.75" fill="white" stroke="#D9D9D9" stroke-width="0.5"/>
<mask id="path-10-inside-1_143_941" fill="white">
<path d="M14 208H94V232H14V208Z"/>
</mask>
<path d="M94 208H93V232H94H95V208H94Z" fill="#DADADA" mask="url(#path-10-inside-1_143_941)"/>
<g filter="url(#filter0_d_143_941)">
<g clip-path="url(#clip1_143_941)">
<path fill-rule="evenodd" clip-rule="evenodd" d="M14 211H38V229H14V211Z" fill="#229E45"/>
<path fill-rule="evenodd" clip-rule="evenodd" d="M26.0525 227.35L37.3587 220.011L25.985 212.65L14.6412 220.026L26.0525 227.35Z" fill="#F8E509"/>
<path fill-rule="evenodd" clip-rule="evenodd" d="M30.98 220C30.98 222.636 28.8388 224.774 26.1951 224.774C25.2503 224.772 24.3272 224.491 23.5425 223.965C22.7577 223.439 22.1465 222.692 21.7862 221.818C21.4259 220.945 21.3326 219.985 21.518 219.058C21.7035 218.132 22.1595 217.281 22.8283 216.614C23.4971 215.947 24.3488 215.493 25.2756 215.31C26.2023 215.126 27.1627 215.222 28.0351 215.584C28.9076 215.947 29.6531 216.56 30.1772 217.346C30.7014 218.132 30.9808 219.055 30.98 220V220Z" fill="#2B49A3"/>
<path fill-rule="evenodd" clip-rule="evenodd" d="M24.6237 222.861L24.4737 222.775L24.3237 222.85L24.3575 222.681L24.2375 222.554L24.4062 222.535L24.4887 222.385L24.56 222.542L24.725 222.572L24.6012 222.685M27.8262 223.671L27.68 223.585L27.53 223.66L27.56 223.491L27.4437 223.367L27.6125 223.349L27.6912 223.195L27.7662 223.352L27.9312 223.382L27.8037 223.499M26.4462 222.374L26.3187 222.299L26.1875 222.366L26.2175 222.22L26.1125 222.111L26.2625 222.096L26.33 221.961L26.39 222.1L26.5362 222.126L26.4237 222.227M29.6862 221.909L29.5587 221.834L29.4275 221.901L29.4575 221.755L29.3562 221.65L29.5025 221.635L29.57 221.504L29.63 221.639L29.7725 221.665L29.6637 221.762M26.39 220.937L26.24 220.855L26.09 220.93L26.12 220.757L26.0037 220.634L26.1725 220.615L26.2512 220.461L26.3262 220.619L26.4912 220.649L26.3637 220.769M22.4412 219.456L22.2912 219.374L22.1412 219.449L22.1787 219.276L22.055 219.152L22.2275 219.134L22.3025 218.98L22.3775 219.137L22.5425 219.167L22.4187 219.284M22.9175 221.429L22.7675 221.342L22.6175 221.417L22.6512 221.249L22.5312 221.125L22.7 221.102L22.7787 220.952L22.8537 221.11L23.0187 221.14L22.895 221.256M27.845 218.732L27.71 218.657L27.575 218.725L27.605 218.575L27.5 218.462L27.65 218.444L27.7212 218.309L27.785 218.451L27.935 218.477L27.8225 218.579M27.5712 220.015L27.47 219.955L27.3612 220.007L27.3837 219.887L27.3012 219.801L27.4212 219.786L27.4775 219.681L27.5262 219.794L27.6387 219.812L27.5562 219.895M22.2237 221.785L22.1225 221.729L22.0212 221.777L22.0437 221.665L21.965 221.582L22.0775 221.567L22.13 221.466L22.1787 221.571L22.2912 221.594L22.205 221.669M29.7125 222.242L29.63 222.201L29.5475 222.239L29.5662 222.152L29.5025 222.092L29.5925 222.081L29.6375 222.006L29.675 222.081L29.7687 222.1L29.6975 222.156" fill="#FFFFEF"/>
<path fill-rule="evenodd" clip-rule="evenodd" d="M22.2237 221.785L22.1225 221.729L22.0212 221.778L22.0437 221.665L21.965 221.583L22.0775 221.568L22.13 221.466L22.1787 221.571L22.2912 221.594L22.205 221.669" fill="#FFFFEF"/>
<path fill-rule="evenodd" clip-rule="evenodd" d="M22.2237 221.785L22.1225 221.729L22.0212 221.777L22.0437 221.665L21.965 221.582L22.0775 221.567L22.13 221.466L22.1787 221.571L22.2912 221.594L22.205 221.669M23.7912 221.781L23.6937 221.729L23.5925 221.777L23.615 221.665L23.5362 221.582L23.6487 221.567L23.7012 221.466L23.75 221.571L23.8625 221.59L23.7762 221.669M23.5962 222.306L23.4987 222.25L23.3975 222.302L23.42 222.19L23.3412 222.104L23.4537 222.089L23.5062 221.987L23.555 222.092L23.6675 222.115L23.5812 222.19M26.8587 221.357L26.7612 221.297L26.6562 221.35L26.6787 221.237L26.6037 221.151L26.7162 221.14L26.7687 221.039L26.8137 221.144L26.9262 221.162L26.8437 221.241M25.9025 221.354L25.8012 221.297L25.7 221.35L25.7225 221.237L25.6475 221.151L25.76 221.14L25.8125 221.035L25.8575 221.144L25.97 221.162L25.8875 221.241M23.3075 221.024L23.2437 220.986L23.18 221.016L23.195 220.945L23.1462 220.892L23.2175 220.885L23.2475 220.821L23.2775 220.889L23.3487 220.9L23.2962 220.949M29.5887 222.651L29.4912 222.595L29.39 222.647L29.4125 222.535L29.3337 222.449L29.4462 222.434L29.4987 222.332L29.5475 222.437L29.66 222.46L29.5737 222.535M28.7937 222.76L28.7112 222.707L28.625 222.752L28.6437 222.655L28.58 222.587L28.6737 222.576L28.7187 222.49L28.7562 222.58L28.85 222.595L28.7787 222.662M29.1687 222.749L29.0937 222.704L29.015 222.741L29.03 222.655L28.97 222.591L29.0562 222.58L29.0975 222.505L29.135 222.58L29.2212 222.599L29.1575 222.659M30.2487 221.804L30.1737 221.766L30.0987 221.804L30.1175 221.717L30.0575 221.654L30.1437 221.642L30.1812 221.567L30.2187 221.646L30.2975 221.661L30.2375 221.721M28.7825 223.289L28.6887 223.236L28.5875 223.281L28.61 223.176L28.535 223.101L28.6475 223.09L28.6962 222.996L28.7412 223.094L28.8537 223.112L28.7675 223.184M28.79 223.716L28.7 223.664L28.61 223.712L28.6325 223.607L28.5612 223.532L28.6625 223.517L28.7075 223.424L28.7487 223.521L28.85 223.54L28.775 223.615M28.0625 222.749L27.9912 222.704L27.9162 222.741L27.9312 222.659L27.875 222.595L27.9575 222.587L27.995 222.512L28.0325 222.587L28.115 222.602L28.055 222.662M27.3875 222.749L27.3125 222.704L27.2375 222.741L27.2562 222.659L27.1962 222.595L27.2825 222.587L27.32 222.512L27.3575 222.587L27.4362 222.602L27.3762 222.662M26.2362 221.74L26.1612 221.699L26.0862 221.736L26.105 221.65L26.045 221.59L26.1275 221.579L26.165 221.504L26.2025 221.579L26.285 221.597L26.225 221.654M26.3637 223.791L26.3037 223.757L26.2362 223.791L26.2512 223.716L26.2025 223.664L26.2737 223.656L26.3075 223.592L26.3375 223.66L26.4087 223.671L26.3562 223.72M24.6237 220.472L24.4737 220.386L24.3237 220.461L24.3575 220.292L24.2375 220.169L24.4062 220.146L24.4887 219.996L24.56 220.154L24.725 220.184L24.6012 220.3" fill="#FFFFEF"/>
<path fill-rule="evenodd" clip-rule="evenodd" d="M30.665 221.717C30.758 221.476 30.8307 221.228 30.8826 220.975C28.3401 218.744 25.5088 217.6 21.9313 217.836C21.8015 218.087 21.6949 218.35 21.6125 218.62C25.85 218.215 28.9625 220.09 30.665 221.717Z" fill="white"/>
<path d="M29.525 220.465L29.6112 220.514C29.5984 220.539 29.5944 220.568 29.6 220.596C29.6088 220.623 29.6275 220.646 29.6525 220.66C29.6787 220.679 29.705 220.69 29.7275 220.686C29.75 220.686 29.765 220.675 29.7762 220.66C29.7828 220.65 29.7855 220.638 29.7837 220.626C29.7807 220.612 29.7742 220.6 29.765 220.589C29.7575 220.578 29.7387 220.551 29.7087 220.521C29.6779 220.49 29.6548 220.451 29.6412 220.409C29.6319 220.377 29.6343 220.343 29.6481 220.312C29.6618 220.282 29.686 220.258 29.7162 220.244C29.7435 220.232 29.7737 220.23 29.8025 220.236C29.8377 220.244 29.8709 220.26 29.9 220.281C29.9525 220.319 29.9862 220.356 29.9975 220.401C30.0027 220.422 30.0034 220.444 29.9995 220.466C29.9956 220.487 29.9873 220.507 29.975 220.525L29.885 220.469C29.8962 220.446 29.9 220.424 29.8925 220.405C29.8887 220.386 29.8737 220.368 29.8475 220.353C29.8282 220.337 29.8047 220.328 29.78 220.326C29.7732 220.326 29.7665 220.328 29.7605 220.331C29.7546 220.334 29.7496 220.339 29.7462 220.345C29.7387 220.356 29.7387 220.368 29.7425 220.383C29.7462 220.398 29.765 220.428 29.8025 220.465C29.84 220.503 29.8625 220.536 29.8775 220.559C29.8909 220.583 29.8969 220.611 29.895 220.639C29.893 220.667 29.883 220.694 29.8662 220.716C29.8487 220.742 29.8239 220.761 29.795 220.773C29.7669 220.786 29.7354 220.789 29.705 220.784C29.6712 220.776 29.6375 220.761 29.6 220.735C29.5437 220.698 29.51 220.656 29.4987 220.611C29.4865 220.56 29.4946 220.507 29.5212 220.461L29.525 220.465ZM29.09 220.18L29.1837 220.229C29.1721 220.255 29.1695 220.284 29.1762 220.311C29.1858 220.337 29.2045 220.358 29.2287 220.371C29.2587 220.39 29.2812 220.398 29.3037 220.394C29.3262 220.394 29.3412 220.383 29.3525 220.364C29.3582 220.355 29.3608 220.344 29.36 220.334C29.36 220.323 29.3525 220.308 29.3412 220.296C29.322 220.273 29.302 220.251 29.2812 220.229C29.24 220.188 29.2137 220.154 29.2062 220.124C29.2001 220.105 29.1983 220.084 29.2009 220.064C29.2035 220.044 29.2104 220.025 29.2212 220.008C29.2355 219.984 29.2564 219.966 29.2812 219.955C29.307 219.943 29.3357 219.939 29.3637 219.944C29.3984 219.95 29.4316 219.962 29.4612 219.981C29.5175 220.019 29.5512 220.056 29.5625 220.098C29.5693 220.119 29.5715 220.141 29.5689 220.163C29.5663 220.185 29.559 220.206 29.5475 220.225L29.4537 220.173C29.465 220.146 29.4687 220.128 29.4612 220.109C29.4537 220.09 29.4387 220.071 29.4125 220.056C29.3917 220.041 29.3668 220.034 29.3412 220.034C29.3351 220.034 29.3291 220.036 29.3239 220.039C29.3187 220.043 29.3143 220.047 29.3112 220.053C29.3037 220.064 29.3037 220.075 29.3075 220.09C29.3112 220.105 29.3337 220.135 29.3712 220.173C29.4087 220.21 29.435 220.24 29.4462 220.263C29.4613 220.286 29.4693 220.313 29.4693 220.341C29.4693 220.369 29.4613 220.397 29.4462 220.42C29.4301 220.446 29.4066 220.467 29.3787 220.48C29.3506 220.493 29.3192 220.497 29.2887 220.491C29.2502 220.485 29.2132 220.471 29.18 220.45C29.1315 220.424 29.0942 220.382 29.075 220.33C29.0605 220.28 29.0659 220.226 29.09 220.18V220.18ZM28.5575 220.038L28.8312 219.588L29.1612 219.794L29.1162 219.869L28.8762 219.719L28.8162 219.82L29.0412 219.959L28.9925 220.034L28.7675 219.895L28.6925 220.019L28.9437 220.169L28.8987 220.244L28.5612 220.038H28.5575ZM27.7812 219.4L27.8225 219.325L28.025 219.426L27.9312 219.614C27.9012 219.621 27.8637 219.625 27.8187 219.621C27.7755 219.617 27.7336 219.604 27.695 219.584C27.6496 219.562 27.6108 219.528 27.5825 219.486C27.5567 219.448 27.5436 219.402 27.545 219.355C27.5469 219.307 27.5597 219.259 27.5825 219.216C27.605 219.171 27.6386 219.133 27.68 219.104C27.7196 219.076 27.7668 219.062 27.815 219.063C27.8525 219.063 27.89 219.074 27.935 219.1C27.995 219.126 28.0325 219.164 28.0512 219.205C28.0707 219.246 28.0747 219.293 28.0625 219.336L27.9612 219.306C27.9674 219.281 27.9648 219.255 27.9537 219.231C27.9425 219.209 27.9237 219.194 27.8937 219.179C27.8763 219.169 27.8569 219.163 27.8368 219.161C27.8168 219.159 27.7966 219.161 27.7775 219.168C27.74 219.179 27.7062 219.213 27.68 219.265C27.6537 219.318 27.6425 219.366 27.6537 219.408C27.6589 219.427 27.6683 219.445 27.6813 219.461C27.6942 219.476 27.7104 219.489 27.7287 219.498C27.7475 219.509 27.77 219.516 27.7925 219.516C27.8149 219.52 27.8376 219.52 27.86 219.516L27.89 219.456L27.7812 219.4V219.4ZM24.3987 218.564L24.4737 218.039L24.6312 218.065L24.6725 218.433L24.8187 218.095L24.9762 218.118L24.9012 218.635L24.8 218.62L24.8637 218.211L24.6987 218.605L24.5975 218.59L24.5562 218.166L24.4962 218.579L24.3987 218.564V218.564ZM23.87 218.5L23.9187 217.975L24.305 218.013L24.2975 218.103L24.0162 218.076L24.005 218.189L24.2675 218.215L24.2562 218.305L23.9937 218.279L23.9825 218.421L24.275 218.448L24.2675 218.538L23.87 218.5V218.5Z" fill="#309E3A"/>
<path d="M22.1187 218.174C22.1187 218.118 22.1299 218.076 22.1449 218.039C22.1581 218.012 22.1759 217.988 22.1974 217.968C22.2167 217.948 22.2396 217.933 22.2649 217.923C22.3024 217.911 22.3399 217.904 22.3774 217.904C22.4562 217.904 22.5162 217.934 22.5649 217.979C22.5881 218.007 22.6054 218.04 22.6157 218.076C22.626 218.111 22.6291 218.148 22.6249 218.185C22.6249 218.268 22.5987 218.335 22.5499 218.384C22.5249 218.407 22.4953 218.425 22.463 218.436C22.4307 218.447 22.3964 218.451 22.3624 218.448C22.3289 218.448 22.2957 218.441 22.2647 218.429C22.2338 218.416 22.2058 218.397 22.1824 218.373C22.1358 218.317 22.1129 218.246 22.1187 218.174V218.174Z" fill="#309E3A"/>
<path d="M22.2274 218.174C22.2274 218.23 22.2387 218.275 22.2649 218.309C22.2912 218.339 22.3249 218.357 22.3699 218.357C22.3894 218.359 22.4089 218.356 22.4271 218.349C22.4452 218.342 22.4616 218.33 22.4749 218.316C22.5012 218.286 22.5124 218.241 22.5162 218.177C22.5162 218.117 22.5087 218.072 22.4787 218.042C22.4665 218.027 22.451 218.015 22.4335 218.007C22.416 217.998 22.3969 217.994 22.3774 217.994C22.3577 217.993 22.3381 217.997 22.3199 218.005C22.3018 218.012 22.2856 218.024 22.2724 218.039C22.2424 218.069 22.2312 218.114 22.2274 218.174V218.174Z" fill="#F7FFFF"/>
<path d="M22.7375 218.444L22.745 217.919H22.97C23.0263 217.919 23.0638 217.926 23.09 217.938C23.1163 217.945 23.135 217.964 23.15 217.986C23.165 218.009 23.1725 218.039 23.1725 218.073C23.1728 218.109 23.1594 218.144 23.135 218.17C23.1073 218.196 23.0717 218.212 23.0338 218.215L23.09 218.26C23.105 218.275 23.1238 218.305 23.1463 218.346L23.21 218.451H23.0825L23.0075 218.331L22.955 218.256C22.946 218.246 22.9343 218.238 22.9213 218.234C22.9042 218.229 22.8866 218.226 22.8688 218.226H22.8463V218.444H22.7375V218.444Z" fill="#309E3A"/>
<path d="M22.8501 218.144H22.9251C22.9776 218.144 23.0113 218.144 23.0226 218.136C23.0338 218.136 23.0451 218.125 23.0526 218.118C23.0601 218.11 23.0638 218.091 23.0638 218.08C23.0638 218.058 23.0601 218.043 23.0488 218.035C23.0413 218.024 23.0263 218.016 23.0113 218.013H22.9363L22.8501 218.009V218.14V218.144Z" fill="white"/>
<path d="M23.3375 217.945L23.5325 217.956C23.5738 217.956 23.6075 217.96 23.63 217.967C23.6592 217.978 23.6851 217.996 23.705 218.02C23.7266 218.046 23.742 218.077 23.75 218.11C23.7613 218.144 23.765 218.185 23.7613 218.234C23.7612 218.272 23.7549 218.31 23.7425 218.346C23.7275 218.384 23.705 218.414 23.6788 218.436C23.6569 218.454 23.6313 218.467 23.6038 218.474C23.5813 218.481 23.5475 218.481 23.51 218.481L23.3113 218.47L23.3375 217.945V217.945Z" fill="#309E3A"/>
<path d="M23.4388 218.039L23.42 218.387H23.5625C23.5813 218.387 23.5963 218.38 23.6075 218.369C23.6188 218.357 23.63 218.342 23.6375 218.32C23.645 218.297 23.6525 218.264 23.6525 218.222L23.6488 218.129C23.6434 218.109 23.6331 218.091 23.6188 218.076C23.6063 218.064 23.5908 218.054 23.5738 218.05C23.5454 218.044 23.5166 218.04 23.4875 218.039H23.4388V218.039Z" fill="white"/>
<path d="M25.91 218.883L26.0338 218.373L26.1988 218.41L26.3188 218.448C26.345 218.463 26.3675 218.485 26.3788 218.519C26.3938 218.549 26.3938 218.583 26.3863 218.624C26.3788 218.654 26.3675 218.68 26.3488 218.699C26.335 218.715 26.3178 218.729 26.2984 218.738C26.2789 218.747 26.2577 218.751 26.2363 218.751C26.21 218.751 26.1725 218.744 26.1238 218.733L26.06 218.714L26.015 218.909L25.91 218.883V218.883Z" fill="#309E3A"/>
<path d="M26.1125 218.485L26.0825 218.627L26.1388 218.642C26.1763 218.65 26.2063 218.657 26.2213 218.654C26.2359 218.652 26.2495 218.645 26.2602 218.635C26.2709 218.625 26.2783 218.612 26.2813 218.597C26.2813 218.579 26.2813 218.564 26.2738 218.549C26.2655 218.533 26.2523 218.521 26.2363 218.515L26.165 218.496L26.1163 218.485H26.1125Z" fill="white"/>
<path d="M26.3975 219.029L26.5737 218.534L26.78 218.609C26.8362 218.627 26.87 218.646 26.8925 218.661C26.9112 218.68 26.9262 218.699 26.93 218.729C26.9337 218.759 26.9375 218.785 26.93 218.815C26.915 218.852 26.8925 218.879 26.8625 218.897C26.8325 218.912 26.795 218.916 26.75 218.909C26.765 218.927 26.78 218.946 26.7875 218.969L26.8175 219.07L26.84 219.186L26.7237 219.145L26.6862 219.01C26.6794 218.979 26.6706 218.949 26.66 218.92C26.655 218.908 26.6473 218.898 26.6375 218.89C26.63 218.879 26.615 218.871 26.5887 218.864L26.57 218.856L26.495 219.066L26.3975 219.029V219.029Z" fill="#309E3A"/>
<path d="M26.5999 218.778L26.6712 218.804C26.7199 218.823 26.7499 218.83 26.7649 218.83C26.7762 218.83 26.7874 218.83 26.7987 218.819C26.8099 218.811 26.8174 218.8 26.8212 218.785C26.8287 218.77 26.8287 218.755 26.8212 218.74C26.8156 218.726 26.805 218.714 26.7912 218.706L26.7162 218.68L26.6412 218.654L26.5962 218.778H26.5999Z" fill="white"/>
<path d="M27.0125 219.01C27.0254 218.966 27.0471 218.925 27.0762 218.89C27.0952 218.867 27.1181 218.848 27.1437 218.834C27.167 218.821 27.1924 218.812 27.2187 218.808C27.2562 218.808 27.2937 218.808 27.335 218.823C27.3685 218.831 27.3999 218.846 27.427 218.868C27.4542 218.889 27.4765 218.916 27.4925 218.946C27.5225 219.006 27.5225 219.078 27.5 219.16C27.4814 219.231 27.4356 219.292 27.3725 219.329C27.3162 219.363 27.2487 219.366 27.1775 219.344C27.1441 219.335 27.1128 219.32 27.0857 219.299C27.0585 219.277 27.0362 219.251 27.02 219.22C27.005 219.187 26.9966 219.152 26.9953 219.116C26.994 219.08 26.9998 219.044 27.0125 219.01V219.01Z" fill="#309E3A"/>
<path d="M27.1176 219.04C27.1026 219.096 27.0988 219.145 27.1176 219.183C27.1363 219.22 27.1626 219.243 27.2038 219.258C27.2413 219.269 27.2788 219.265 27.3163 219.243C27.3538 219.224 27.3763 219.183 27.3951 219.123C27.4138 219.066 27.4138 219.021 27.3951 218.984C27.3877 218.966 27.3764 218.95 27.3622 218.937C27.3479 218.924 27.331 218.914 27.3126 218.909C27.2941 218.902 27.2745 218.9 27.2551 218.902C27.2356 218.904 27.2169 218.91 27.2001 218.92C27.1626 218.943 27.1363 218.98 27.1176 219.04V219.04Z" fill="white"/>
<path d="M28.0363 219.741L28.2763 219.276L28.475 219.378C28.5125 219.396 28.5467 219.42 28.5763 219.449C28.595 219.468 28.6063 219.49 28.6063 219.52C28.6063 219.55 28.6063 219.576 28.5913 219.603C28.5768 219.636 28.55 219.663 28.5163 219.678C28.4788 219.685 28.4413 219.685 28.4 219.67C28.415 219.693 28.4225 219.715 28.43 219.734C28.4375 219.756 28.4413 219.79 28.445 219.839L28.4525 219.959L28.34 219.903L28.325 219.764C28.3232 219.732 28.3195 219.701 28.3138 219.67C28.3112 219.656 28.3047 219.643 28.295 219.633L28.25 219.606L28.2313 219.595L28.13 219.79L28.0363 219.741V219.741Z" fill="#309E3A"/>
<path d="M28.2688 219.52L28.34 219.557C28.385 219.58 28.415 219.595 28.4263 219.595C28.4375 219.595 28.4525 219.595 28.4638 219.587C28.475 219.584 28.4825 219.572 28.49 219.557C28.4975 219.542 28.5013 219.527 28.4975 219.512C28.4929 219.497 28.4837 219.484 28.4713 219.475C28.4494 219.461 28.4268 219.449 28.4038 219.437L28.3288 219.4L28.2688 219.52V219.52Z" fill="white"/>
<path d="M29.9788 220.701C30.0031 220.663 30.035 220.63 30.0725 220.604C30.0978 220.588 30.1257 220.576 30.155 220.57C30.1823 220.565 30.2103 220.565 30.2375 220.57C30.275 220.578 30.3088 220.593 30.3425 220.615C30.3717 220.633 30.3968 220.657 30.4162 220.686C30.4355 220.714 30.4488 220.746 30.455 220.78C30.4663 220.844 30.4475 220.915 30.4025 220.986C30.3649 221.048 30.3042 221.093 30.2338 221.11C30.2002 221.117 30.1655 221.117 30.1319 221.11C30.0983 221.103 30.0665 221.089 30.0388 221.069C30.0096 221.051 29.9845 221.027 29.9652 220.998C29.9458 220.97 29.9325 220.938 29.9263 220.904C29.915 220.836 29.9338 220.769 29.9788 220.701Z" fill="#309E3A"/>
<path d="M30.0725 220.762C30.035 220.81 30.0237 220.855 30.0312 220.897C30.034 220.916 30.0408 220.934 30.0511 220.95C30.0615 220.966 30.0752 220.98 30.0912 220.99C30.1287 221.017 30.1662 221.024 30.2037 221.013C30.2412 221.002 30.2787 220.975 30.3125 220.923C30.3462 220.87 30.3612 220.825 30.3537 220.788C30.35 220.75 30.3275 220.717 30.2937 220.69C30.26 220.664 30.2187 220.66 30.1812 220.672C30.1437 220.679 30.1062 220.709 30.0687 220.762H30.0725Z" fill="white"/>
<path d="M25.3175 218.669L25.4038 218.301L25.6738 218.365L25.6625 218.425L25.4638 218.38L25.445 218.463L25.6288 218.504L25.6138 218.568L25.43 218.523L25.4075 218.624L25.6138 218.673L25.5988 218.733L25.3175 218.669V218.669Z" fill="#309E3A"/>
</g>
</g>
<path d="M55.875 219.281H52.4375V215.812H50.8125V219.281H47.375V220.844H50.8125V224.312H52.4375V220.844H55.875V219.281ZM62.3438 218.062C61.4062 218.062 60.6562 218.312 60.0625 218.812L60.3125 215.844H65.5V214.125H58.8438L58.3125 220.312L59.7188 220.781C60.2188 219.969 61.0312 219.562 62 219.562C63.5 219.562 64.5 220.562 64.5 222.062C64.5 223.562 63.4375 224.562 61.8438 224.562C60.625 224.562 59.5625 223.906 59.0312 222.969L57.7812 223.969C58.5 225.312 60 226.156 61.875 226.156C64.5312 226.156 66.375 224.469 66.375 222.062C66.375 219.75 64.6562 218.062 62.3438 218.062ZM72.25 218.062C71.3125 218.062 70.5625 218.312 69.9688 218.812L70.2188 215.844H75.4062V214.125H68.75L68.2188 220.312L69.625 220.781C70.125 219.969 70.9375 219.562 71.9062 219.562C73.4062 219.562 74.4062 220.562 74.4062 222.062C74.4062 223.562 73.3438 224.562 71.75 224.562C70.5312 224.562 69.4688 223.906 68.9375 222.969L67.6875 223.969C68.4062 225.312 69.9062 226.156 71.7812 226.156C74.4375 226.156 76.2812 224.469 76.2812 222.062C76.2812 219.75 74.5625 218.062 72.25 218.062Z" fill="#4F4F4F"/>
<rect x="107" y="216" width="156" height="9" fill="#F5F5F5"/>
</g>
<defs>
<filter id="filter0_d_143_941" x="8" y="206" width="36" height="36" filterUnits="userSpaceOnUse" color-interpolation-filters="sRGB">
<feFlood flood-opacity="0" result="BackgroundImageFix"/>
<feColorMatrix in="SourceAlpha" type="matrix" values="0 0 0 0 0 0 0 0 0 0 0 0 0 0 0 0 0 0 127 0" result="hardAlpha"/>
<feOffset dy="4"/>
<feGaussianBlur stdDeviation="3"/>
<feComposite in2="hardAlpha" operator="out"/>
<feColorMatrix type="matrix" values="0 0 0 0 0 0 0 0 0 0 0 0 0 0 0 0 0 0 0.16 0"/>
<feBlend mode="normal" in2="BackgroundImageFix" result="effect1_dropShadow_143_941"/>
<feBlend mode="normal" in="SourceGraphic" in2="effect1_dropShadow_143_941" result="shape"/>
</filter>
<clipPath id="clip0_143_941">
<path d="M0 0H357V224C357 232.837 349.837 240 341 240H0V0Z" fill="white"/>
</clipPath>
<clipPath id="clip1_143_941">
<rect width="24" height="18" fill="white" transform="translate(14 211)"/>
</clipPath>
</defs>
</svg>
