<svg width="358" height="240" viewBox="0 0 358 240" fill="none" xmlns="http://www.w3.org/2000/svg">
<rect x="163.5" y="0.5" width="194" height="239" rx="15.5" fill="white" stroke="#E1E2E3"/>
<path d="M102.083 25.8169H13.9167C6.50685 25.8169 0.5 31.6229 0.5 38.785V101.773C0.5 108.935 6.50685 114.741 13.9167 114.741H102.083C109.493 114.741 115.5 108.935 115.5 101.773V38.785C115.5 31.6229 109.493 25.8169 102.083 25.8169Z" fill="#F9FAFB" stroke="#DADADA" stroke-dasharray="6 6"/>
<path d="M71.3125 86.6172C72.2444 86.6172 72.9999 87.3099 73 88.1641C73 89.0183 72.2445 89.7109 71.3125 89.7109H43.1875C42.2555 89.7109 41.5 89.0183 41.5 88.1641C41.5001 87.3099 42.2556 86.6172 43.1875 86.6172H71.3125ZM57.2734 52.5908C57.2933 52.5912 57.3132 52.5914 57.333 52.5928C57.3523 52.5941 57.3716 52.5955 57.3906 52.5977C57.4047 52.5993 57.4186 52.6014 57.4326 52.6035C57.453 52.6066 57.4732 52.6102 57.4932 52.6143C57.5069 52.617 57.5205 52.6208 57.5342 52.624C57.5874 52.6367 57.6396 52.6515 57.6895 52.6709C57.7078 52.678 57.7252 52.6873 57.7432 52.6953C57.7597 52.7027 57.7769 52.7087 57.793 52.7168C57.8513 52.7463 57.9069 52.7816 57.96 52.8213C57.9931 52.8461 58.0248 52.8724 58.0547 52.9004L69.2949 63.2031C69.7343 63.6058 69.7343 64.2584 69.2949 64.6611C68.8556 65.0637 68.1434 65.0638 67.7041 64.6611L58.375 56.1094V84.5557C58.3747 85.125 57.8712 85.5859 57.25 85.5859C56.6288 85.5859 56.1253 85.125 56.125 84.5557V56.1094L46.7949 64.6611C46.3556 65.0637 45.6434 65.0638 45.2041 64.6611C44.7651 64.2585 44.7651 63.6057 45.2041 63.2031L56.4541 52.8916C56.5478 52.8057 56.6584 52.736 56.7803 52.6846C56.7898 52.6806 56.799 52.6756 56.8086 52.6719C56.8691 52.6482 56.9326 52.6299 56.998 52.6162C57 52.6158 57.0019 52.6147 57.0039 52.6143C57.0264 52.6097 57.0493 52.6059 57.0723 52.6025C57.0859 52.6005 57.0996 52.5992 57.1133 52.5977C57.1333 52.5954 57.1535 52.594 57.1738 52.5928C57.1914 52.5917 57.209 52.5912 57.2266 52.5908C57.2344 52.5907 57.2422 52.5898 57.25 52.5898C57.2578 52.5898 57.2656 52.5907 57.2734 52.5908Z" fill="#9CA3AF"/>
<path d="M144.853 64.1154C145.152 63.8723 145.575 63.9383 145.8 64.2628L149.864 70.1486C149.866 70.1513 149.867 70.1546 149.869 70.1574C149.882 70.1763 149.892 70.1966 149.903 70.2169C149.915 70.2375 149.925 70.258 149.935 70.2794C149.941 70.2951 149.947 70.311 149.953 70.3273C149.962 70.3524 149.969 70.3777 149.976 70.4035C149.98 70.4218 149.984 70.4402 149.987 70.4591C150.002 70.5455 150.002 70.6335 149.987 70.7199C149.984 70.7371 149.981 70.7539 149.977 70.7706C149.97 70.7988 149.962 70.8263 149.952 70.8537C149.947 70.8672 149.942 70.8805 149.937 70.8937C149.926 70.9188 149.914 70.9429 149.9 70.9669C149.891 70.9835 149.882 71.0001 149.872 71.0158C149.869 71.0204 149.867 71.0259 149.864 71.0304L145.8 76.9162C145.575 77.2407 145.152 77.3067 144.853 77.0636C144.553 76.8199 144.492 76.3584 144.717 76.0333L147.969 71.3244H129.678C129.304 71.3244 129 70.9953 129 70.589C129 70.1827 129.304 69.8537 129.678 69.8537H147.967L144.717 65.1456C144.492 64.8206 144.553 64.3591 144.853 64.1154Z" fill="#9CA3AF"/>
<path d="M198 30.1416C202.142 30.1416 205.5 33.4995 205.5 37.6416C205.5 41.7837 202.142 45.1416 198 45.1416C193.858 45.1416 190.5 41.7837 190.5 37.6416C190.5 33.4995 193.858 30.1416 198 30.1416Z" fill="#E5E7EB" stroke="#DADADA"/>
<path d="M222.812 33.6416H304.188C307.248 33.6416 309.5 35.544 309.5 37.6416C309.5 39.7393 307.248 41.6416 304.188 41.6416H222.812C219.752 41.6416 217.5 39.7393 217.5 37.6416C217.5 35.544 219.752 33.6416 222.812 33.6416Z" fill="#E5E7EB" stroke="#DADADA"/>
<path d="M198 62.1416C202.142 62.1416 205.5 65.4995 205.5 69.6416C205.5 73.7837 202.142 77.1416 198 77.1416C193.858 77.1416 190.5 73.7837 190.5 69.6416C190.5 65.4995 193.858 62.1416 198 62.1416Z" fill="#E5E7EB" stroke="#DADADA"/>
<path d="M222.77 65.1416H286.23C289.21 65.1416 291.5 67.2211 291.5 69.6416C291.5 72.0621 289.21 74.1416 286.23 74.1416H222.77C219.79 74.1416 217.5 72.0621 217.5 69.6416C217.5 67.2211 219.79 65.1416 222.77 65.1416Z" fill="#E5E7EB" stroke="#DADADA"/>
<path d="M198 94.1416C202.142 94.1416 205.5 97.4995 205.5 101.642C205.5 105.784 202.142 109.142 198 109.142C193.858 109.142 190.5 105.784 190.5 101.642C190.5 97.4995 193.858 94.1416 198 94.1416Z" fill="#E5E7EB" stroke="#DADADA"/>
<path d="M222.862 97.1416H296.138C299.177 97.1416 301.5 99.228 301.5 101.642C301.5 104.055 299.177 106.142 296.138 106.142H222.862C219.823 106.142 217.5 104.055 217.5 101.642C217.5 99.228 219.823 97.1416 222.862 97.1416Z" fill="#E5E7EB" stroke="#DADADA"/>
<path d="M198 126.142C202.142 126.142 205.5 129.499 205.5 133.642C205.5 137.784 202.142 141.142 198 141.142C193.858 141.142 190.5 137.784 190.5 133.642C190.5 129.499 193.858 126.142 198 126.142Z" fill="#E5E7EB" stroke="#DADADA"/>
<path d="M222.812 128.642H304.188C307.148 128.642 309.5 130.906 309.5 133.642C309.5 136.377 307.148 138.642 304.188 138.642H222.812C219.852 138.642 217.5 136.377 217.5 133.642C217.5 130.906 219.852 128.642 222.812 128.642Z" fill="#E5E7EB" stroke="#DADADA"/>
<path d="M198 158.142C202.142 158.142 205.5 161.499 205.5 165.642C205.5 169.784 202.142 173.142 198 173.142C193.858 173.142 190.5 169.784 190.5 165.642C190.5 161.499 193.858 158.142 198 158.142Z" fill="#E5E7EB" stroke="#DADADA"/>
<path d="M222.77 160.642H286.23C289.163 160.642 291.5 162.902 291.5 165.642C291.5 168.381 289.163 170.642 286.23 170.642H222.77C219.837 170.642 217.5 168.381 217.5 165.642C217.5 162.902 219.837 160.642 222.77 160.642Z" fill="#E5E7EB" stroke="#DADADA"/>
<path d="M198 190.142C202.142 190.142 205.5 193.499 205.5 197.642C205.5 201.784 202.142 205.142 198 205.142C193.858 205.142 190.5 201.784 190.5 197.642C190.5 193.499 193.858 190.142 198 190.142Z" fill="#E5E7EB" stroke="#DADADA"/>
<path d="M222.862 193.142H296.138C299.177 193.142 301.5 195.228 301.5 197.642C301.5 200.055 299.177 202.142 296.138 202.142H222.862C219.823 202.142 217.5 200.055 217.5 197.642C217.5 195.228 219.823 193.142 222.862 193.142Z" fill="#E5E7EB" stroke="#DADADA"/>
</svg>
