<svg width="357" height="240" viewBox="0 0 357 240" fill="none" xmlns="http://www.w3.org/2000/svg">
<mask id="mask0_208_7495" style="mask-type:alpha" maskUnits="userSpaceOnUse" x="0" y="0" width="357" height="240">
<rect width="357" height="240" rx="8" fill="white"/>
</mask>
<g mask="url(#mask0_208_7495)">
<rect x="-75" y="-55" width="460" height="326" fill="white"/>
<path d="M20.1186 31V20.8182H26.5021V22.1406H21.6548V25.2429H26.169V26.5604H21.6548V29.6776H26.5618V31H20.1186ZM28.4348 31V23.3636H29.8617V24.6065H29.9561C30.1152 24.1856 30.3754 23.8575 30.7367 23.6222C31.098 23.3835 31.5305 23.2642 32.0343 23.2642C32.5447 23.2642 32.9722 23.3835 33.3169 23.6222C33.665 23.8608 33.9218 24.1889 34.0875 24.6065H34.1671C34.3494 24.1989 34.6394 23.8741 35.0371 23.6321C35.4348 23.3868 35.9088 23.2642 36.459 23.2642C37.1517 23.2642 37.7168 23.4813 38.1543 23.9155C38.5951 24.3497 38.8155 25.0043 38.8155 25.8793V31H37.329V26.0185C37.329 25.5014 37.1882 25.1269 36.9064 24.8949C36.6247 24.6629 36.2883 24.5469 35.8972 24.5469C35.4133 24.5469 35.0371 24.696 34.7686 24.9943C34.5002 25.2893 34.3659 25.6688 34.3659 26.1328V31H32.8844V25.924C32.8844 25.5097 32.7551 25.1766 32.4966 24.9247C32.2381 24.6728 31.9017 24.5469 31.4874 24.5469C31.2057 24.5469 30.9455 24.6214 30.7069 24.7706C30.4715 24.9164 30.281 25.1203 30.1351 25.3821C29.9926 25.6439 29.9213 25.9472 29.9213 26.2919V31H28.4348ZM43.0302 31.169C42.5463 31.169 42.1088 31.0795 41.7177 30.9006C41.3266 30.7183 41.0167 30.4548 40.788 30.1101C40.5626 29.7654 40.4499 29.3428 40.4499 28.8423C40.4499 28.4115 40.5328 28.0568 40.6985 27.7784C40.8642 27.5 41.0879 27.2796 41.3697 27.1172C41.6514 26.9548 41.9663 26.8321 42.3143 26.7493C42.6623 26.6664 43.0169 26.6035 43.3782 26.5604C43.8356 26.5073 44.2068 26.4643 44.4918 26.4311C44.7769 26.3946 44.984 26.3366 45.1133 26.2571C45.2425 26.1776 45.3072 26.0483 45.3072 25.8693V25.8345C45.3072 25.4003 45.1845 25.0639 44.9393 24.8253C44.6973 24.5866 44.3361 24.4673 43.8555 24.4673C43.355 24.4673 42.9606 24.5784 42.6722 24.8004C42.3872 25.0192 42.19 25.2628 42.0806 25.5312L40.6836 25.2131C40.8493 24.7491 41.0913 24.3745 41.4094 24.0895C41.7309 23.8011 42.1005 23.5923 42.5181 23.4631C42.9357 23.3305 43.3749 23.2642 43.8356 23.2642C44.1405 23.2642 44.4637 23.3007 44.805 23.3736C45.1497 23.4432 45.4712 23.5724 45.7695 23.7614C46.0711 23.9503 46.3181 24.2204 46.5103 24.5717C46.7025 24.9197 46.7987 25.3722 46.7987 25.929V31H45.3469V29.956H45.2873C45.1912 30.1482 45.047 30.3371 44.8548 30.5227C44.6625 30.7083 44.4156 30.8625 44.114 30.9851C43.8124 31.1077 43.4511 31.169 43.0302 31.169ZM43.3533 29.9759C43.7643 29.9759 44.1156 29.8946 44.4073 29.7322C44.7023 29.5698 44.926 29.3577 45.0785 29.0959C45.2343 28.8307 45.3121 28.5473 45.3121 28.2457V27.2614C45.2591 27.3144 45.1564 27.3641 45.0039 27.4105C44.8548 27.4536 44.6841 27.4917 44.4918 27.5249C44.2996 27.5547 44.1123 27.5829 43.93 27.6094C43.7478 27.6326 43.5953 27.6525 43.4727 27.669C43.1843 27.7055 42.9208 27.7668 42.6822 27.853C42.4469 27.9392 42.2579 28.0634 42.1154 28.2259C41.9762 28.3849 41.9066 28.5971 41.9066 28.8622C41.9066 29.2301 42.0425 29.5085 42.3143 29.6974C42.5861 29.883 42.9324 29.9759 43.3533 29.9759ZM48.7786 31V23.3636H50.2651V31H48.7786ZM49.5293 22.1854C49.2708 22.1854 49.0487 22.0992 48.8631 21.9268C48.6808 21.7512 48.5897 21.5424 48.5897 21.3004C48.5897 21.0552 48.6808 20.8464 48.8631 20.674C49.0487 20.4983 49.2708 20.4105 49.5293 20.4105C49.7878 20.4105 50.0082 20.4983 50.1905 20.674C50.3761 20.8464 50.4689 21.0552 50.4689 21.3004C50.4689 21.5424 50.3761 21.7512 50.1905 21.9268C50.0082 22.0992 49.7878 22.1854 49.5293 22.1854ZM53.7514 20.8182V31H52.2649V20.8182H53.7514Z" fill="#414651"/>
<g filter="url(#filter0_d_208_7495)">
<path d="M19 50C19 45.5817 22.5817 42 27 42H343C347.418 42 351 45.5817 351 50V78C351 82.4183 347.418 86 343 86H27C22.5817 86 19 82.4183 19 78V50Z" fill="white"/>
<path d="M27 42.5H343C347.142 42.5 350.5 45.8579 350.5 50V78C350.5 82.1421 347.142 85.5 343 85.5H27C22.8579 85.5 19.5 82.1421 19.5 78V50C19.5 45.8579 22.8579 42.5 27 42.5Z" stroke="#D5D7DA"/>
<path d="M38.1136 61.2727V62.4091H33.4091V61.2727H38.1136ZM34.8182 70V60.0682C34.8182 59.5682 34.9356 59.1515 35.1705 58.8182C35.4053 58.4848 35.7102 58.2348 36.0852 58.0682C36.4602 57.9015 36.8561 57.8182 37.2727 57.8182C37.6023 57.8182 37.8712 57.8447 38.0795 57.8977C38.2879 57.9508 38.4432 58 38.5455 58.0455L38.1591 59.2045C38.0909 59.1818 37.9962 59.1534 37.875 59.1193C37.7576 59.0852 37.6023 59.0682 37.4091 59.0682C36.9659 59.0682 36.6458 59.1799 36.4489 59.4034C36.2557 59.6269 36.1591 59.9545 36.1591 60.3864V70H34.8182ZM43.2926 70.1818C42.4517 70.1818 41.7263 69.9962 41.1165 69.625C40.5104 69.25 40.0426 68.7273 39.7131 68.0568C39.3873 67.3826 39.2244 66.5985 39.2244 65.7045C39.2244 64.8106 39.3873 64.0227 39.7131 63.3409C40.0426 62.6553 40.5009 62.1212 41.0881 61.7386C41.679 61.3523 42.3684 61.1591 43.1562 61.1591C43.6108 61.1591 44.0597 61.2348 44.5028 61.3864C44.946 61.5379 45.3494 61.7841 45.7131 62.125C46.0767 62.4621 46.3665 62.9091 46.5824 63.4659C46.7983 64.0227 46.9062 64.7083 46.9062 65.5227V66.0909H40.179V64.9318H45.5426C45.5426 64.4394 45.4441 64 45.2472 63.6136C45.054 63.2273 44.7775 62.9223 44.4176 62.6989C44.0616 62.4754 43.6411 62.3636 43.1562 62.3636C42.6222 62.3636 42.16 62.4962 41.7699 62.7614C41.3835 63.0227 41.0862 63.3636 40.8778 63.7841C40.6695 64.2045 40.5653 64.6553 40.5653 65.1364V65.9091C40.5653 66.5682 40.679 67.1269 40.9062 67.5852C41.1373 68.0398 41.4574 68.3864 41.8665 68.625C42.2756 68.8598 42.7509 68.9773 43.2926 68.9773C43.6449 68.9773 43.9631 68.928 44.2472 68.8295C44.535 68.7273 44.7831 68.5758 44.9915 68.375C45.1998 68.1705 45.3608 67.9167 45.4744 67.6136L46.7699 67.9773C46.6335 68.4167 46.4044 68.803 46.0824 69.1364C45.7604 69.4659 45.3627 69.7235 44.8892 69.9091C44.4157 70.0909 43.8835 70.1818 43.2926 70.1818ZM50.2869 58.3636V70H48.946V58.3636H50.2869ZM52.7429 70V61.2727H54.0838V70H52.7429ZM53.4247 59.8182C53.1634 59.8182 52.938 59.7292 52.7486 59.5511C52.563 59.3731 52.4702 59.1591 52.4702 58.9091C52.4702 58.6591 52.563 58.4451 52.7486 58.267C52.938 58.089 53.1634 58 53.4247 58C53.6861 58 53.9096 58.089 54.0952 58.267C54.2846 58.4451 54.3793 58.6591 54.3793 58.9091C54.3793 59.1591 54.2846 59.3731 54.0952 59.5511C53.9096 59.7292 53.6861 59.8182 53.4247 59.8182ZM56.5398 73.2727V61.2727H57.8352V62.6591H57.9943C58.0928 62.5076 58.2292 62.3144 58.4034 62.0795C58.5814 61.8409 58.8352 61.6288 59.1648 61.4432C59.4981 61.2538 59.9489 61.1591 60.517 61.1591C61.2519 61.1591 61.8996 61.3428 62.4602 61.7102C63.0208 62.0777 63.4583 62.5985 63.7727 63.2727C64.0871 63.947 64.2443 64.7424 64.2443 65.6591C64.2443 66.5833 64.0871 67.3845 63.7727 68.0625C63.4583 68.7367 63.0227 69.2595 62.4659 69.6307C61.9091 69.9981 61.267 70.1818 60.5398 70.1818C59.9792 70.1818 59.5303 70.089 59.1932 69.9034C58.8561 69.714 58.5966 69.5 58.4148 69.2614C58.233 69.0189 58.0928 68.8182 57.9943 68.6591H57.8807V73.2727H56.5398ZM57.858 65.6364C57.858 66.2955 57.9545 66.8769 58.1477 67.3807C58.3409 67.8807 58.6231 68.2727 58.9943 68.5568C59.3655 68.8371 59.8201 68.9773 60.358 68.9773C60.9186 68.9773 61.3864 68.8295 61.7614 68.5341C62.1402 68.2348 62.4242 67.8333 62.6136 67.3295C62.8068 66.822 62.9034 66.2576 62.9034 65.6364C62.9034 65.0227 62.8087 64.4697 62.6193 63.9773C62.4337 63.4811 62.1515 63.089 61.7727 62.8011C61.3977 62.5095 60.9261 62.3636 60.358 62.3636C59.8125 62.3636 59.3542 62.5019 58.983 62.7784C58.6117 63.0511 58.3314 63.4337 58.142 63.9261C57.9527 64.4148 57.858 64.9848 57.858 65.6364ZM69.9489 70.1818C69.108 70.1818 68.3826 69.9962 67.7727 69.625C67.1667 69.25 66.6989 68.7273 66.3693 68.0568C66.0436 67.3826 65.8807 66.5985 65.8807 65.7045C65.8807 64.8106 66.0436 64.0227 66.3693 63.3409C66.6989 62.6553 67.1572 62.1212 67.7443 61.7386C68.3352 61.3523 69.0246 61.1591 69.8125 61.1591C70.267 61.1591 70.7159 61.2348 71.1591 61.3864C71.6023 61.5379 72.0057 61.7841 72.3693 62.125C72.733 62.4621 73.0227 62.9091 73.2386 63.4659C73.4545 64.0227 73.5625 64.7083 73.5625 65.5227V66.0909H66.8352V64.9318H72.1989C72.1989 64.4394 72.1004 64 71.9034 63.6136C71.7102 63.2273 71.4337 62.9223 71.0739 62.6989C70.7178 62.4754 70.2973 62.3636 69.8125 62.3636C69.2784 62.3636 68.8163 62.4962 68.4261 62.7614C68.0398 63.0227 67.7424 63.3636 67.5341 63.7841C67.3258 64.2045 67.2216 64.6553 67.2216 65.1364V65.9091C67.2216 66.5682 67.3352 67.1269 67.5625 67.5852C67.7936 68.0398 68.1136 68.3864 68.5227 68.625C68.9318 68.8598 69.4072 68.9773 69.9489 68.9773C70.3011 68.9773 70.6193 68.928 70.9034 68.8295C71.1913 68.7273 71.4394 68.5758 71.6477 68.375C71.8561 68.1705 72.017 67.9167 72.1307 67.6136L73.4261 67.9773C73.2898 68.4167 73.0606 68.803 72.7386 69.1364C72.4167 69.4659 72.0189 69.7235 71.5455 69.9091C71.072 70.0909 70.5398 70.1818 69.9489 70.1818ZM76.5795 70.0909C76.2992 70.0909 76.0587 69.9905 75.858 69.7898C75.6572 69.589 75.5568 69.3485 75.5568 69.0682C75.5568 68.7879 75.6572 68.5473 75.858 68.3466C76.0587 68.1458 76.2992 68.0455 76.5795 68.0455C76.8598 68.0455 77.1004 68.1458 77.3011 68.3466C77.5019 68.5473 77.6023 68.7879 77.6023 69.0682C77.6023 69.2538 77.5549 69.4242 77.4602 69.5795C77.3693 69.7348 77.2462 69.8598 77.0909 69.9545C76.9394 70.0455 76.7689 70.0909 76.5795 70.0909ZM82.5767 70.2045C82.0237 70.2045 81.5218 70.1004 81.071 69.892C80.6203 69.6799 80.2623 69.375 79.9972 68.9773C79.732 68.5758 79.5994 68.0909 79.5994 67.5227C79.5994 67.0227 79.6979 66.6174 79.8949 66.3068C80.0919 65.9924 80.3551 65.7462 80.6847 65.5682C81.0142 65.3902 81.3778 65.2576 81.7756 65.1705C82.1771 65.0795 82.5805 65.0076 82.9858 64.9545C83.5161 64.8864 83.946 64.8352 84.2756 64.8011C84.6089 64.7633 84.8513 64.7008 85.0028 64.6136C85.1581 64.5265 85.2358 64.375 85.2358 64.1591V64.1136C85.2358 63.553 85.0824 63.1174 84.7756 62.8068C84.4725 62.4962 84.0123 62.3409 83.3949 62.3409C82.7547 62.3409 82.2528 62.4811 81.8892 62.7614C81.5256 63.0417 81.2699 63.3409 81.1222 63.6591L79.8494 63.2045C80.0767 62.6742 80.3797 62.2614 80.7585 61.9659C81.1411 61.6667 81.5578 61.4583 82.0085 61.3409C82.4631 61.2197 82.91 61.1591 83.3494 61.1591C83.6297 61.1591 83.9517 61.1932 84.3153 61.2614C84.6828 61.3258 85.0369 61.4602 85.3778 61.6648C85.7225 61.8693 86.0085 62.178 86.2358 62.5909C86.4631 63.0038 86.5767 63.5568 86.5767 64.25V70H85.2358V68.8182H85.1676C85.0767 69.0076 84.9252 69.2102 84.7131 69.4261C84.5009 69.642 84.2188 69.8258 83.8665 69.9773C83.5142 70.1288 83.0843 70.2045 82.5767 70.2045ZM82.7812 69C83.3116 69 83.7585 68.8958 84.1222 68.6875C84.4896 68.4792 84.7661 68.2102 84.9517 67.8807C85.1411 67.5511 85.2358 67.2045 85.2358 66.8409V65.6136C85.179 65.6818 85.054 65.7443 84.8608 65.8011C84.6714 65.8542 84.4517 65.9015 84.2017 65.9432C83.9555 65.9811 83.715 66.0152 83.4801 66.0455C83.2491 66.072 83.0616 66.0947 82.9176 66.1136C82.5691 66.1591 82.2434 66.233 81.9403 66.3352C81.6411 66.4337 81.3987 66.5833 81.2131 66.7841C81.0313 66.9811 80.9403 67.25 80.9403 67.5909C80.9403 68.0568 81.1127 68.4091 81.4574 68.6477C81.8059 68.8826 82.2472 69 82.7812 69ZM95.7287 73.0682C94.5696 73.0682 93.545 72.9091 92.6548 72.5909C91.7647 72.2765 91.0166 71.8125 90.4105 71.1989C89.8045 70.5852 89.3461 69.8333 89.0355 68.9432C88.7249 68.053 88.5696 67.0341 88.5696 65.8864C88.5696 64.7765 88.7268 63.7841 89.0412 62.9091C89.3594 62.0341 89.8196 61.2917 90.4219 60.6818C91.0279 60.0682 91.7628 59.6004 92.6264 59.2784C93.4938 58.9564 94.4749 58.7955 95.5696 58.7955C96.634 58.7955 97.5658 58.9697 98.3651 59.3182C99.1681 59.6629 99.8385 60.1307 100.376 60.7216C100.918 61.3087 101.323 61.9697 101.592 62.7045C101.865 63.4394 102.001 64.197 102.001 64.9773C102.001 65.5265 101.975 66.0833 101.922 66.6477C101.869 67.2121 101.757 67.7311 101.587 68.2045C101.416 68.6742 101.153 69.053 100.797 69.3409C100.445 69.6288 99.9673 69.7727 99.3651 69.7727C99.0999 69.7727 98.8082 69.7311 98.4901 69.6477C98.1719 69.5644 97.8897 69.4261 97.6435 69.233C97.3973 69.0398 97.2514 68.7803 97.206 68.4545H97.1378C97.0469 68.6742 96.9067 68.8826 96.7173 69.0795C96.5317 69.2765 96.2874 69.4337 95.9844 69.5511C95.6851 69.6686 95.3196 69.7197 94.8878 69.7045C94.3954 69.6856 93.9616 69.5758 93.5866 69.375C93.2116 69.1705 92.8973 68.8939 92.6435 68.5455C92.3935 68.1932 92.2041 67.786 92.0753 67.3239C91.9503 66.858 91.8878 66.3561 91.8878 65.8182C91.8878 65.3068 91.9635 64.839 92.1151 64.4148C92.2666 63.9905 92.4768 63.6193 92.7457 63.3011C93.0185 62.983 93.3366 62.7292 93.7003 62.5398C94.0677 62.3466 94.4635 62.2273 94.8878 62.1818C95.2666 62.1439 95.6113 62.161 95.9219 62.233C96.2325 62.3011 96.4882 62.4053 96.6889 62.5455C96.8897 62.6818 97.0166 62.8333 97.0696 63H97.1378V62.3636H98.3423V67.5C98.3423 67.8182 98.4313 68.0985 98.6094 68.3409C98.7874 68.5833 99.0469 68.7045 99.3878 68.7045C99.7741 68.7045 100.07 68.572 100.274 68.3068C100.482 68.0417 100.625 67.6326 100.7 67.0795C100.78 66.5265 100.82 65.8182 100.82 64.9545C100.82 64.447 100.75 63.947 100.609 63.4545C100.473 62.9583 100.265 62.4943 99.9844 62.0625C99.7079 61.6307 99.3575 61.25 98.9332 60.9205C98.509 60.5909 98.0109 60.3333 97.4389 60.1477C96.8707 59.9583 96.2249 59.8636 95.5014 59.8636C94.6113 59.8636 93.8139 60.0019 93.1094 60.2784C92.4086 60.5511 91.812 60.9508 91.3196 61.4773C90.831 62 90.4579 62.6364 90.2003 63.3864C89.9465 64.1326 89.8196 64.9811 89.8196 65.9318C89.8196 66.8977 89.9465 67.7557 90.2003 68.5057C90.4579 69.2557 90.8366 69.8883 91.3366 70.4034C91.8404 70.9186 92.4635 71.3087 93.206 71.5739C93.9484 71.8428 94.8045 71.9773 95.7741 71.9773C96.1908 71.9773 96.6018 71.9375 97.0071 71.858C97.4124 71.7784 97.7704 71.6913 98.081 71.5966C98.3916 71.5019 98.6151 71.4318 98.7514 71.3864L99.0696 72.4318C98.8348 72.5303 98.5279 72.6288 98.1491 72.7273C97.7741 72.8258 97.3726 72.9072 96.9446 72.9716C96.5204 73.036 96.1151 73.0682 95.7287 73.0682ZM95.0696 68.5455C95.5772 68.5455 95.9882 68.4432 96.3026 68.2386C96.617 68.0341 96.8461 67.7254 96.9901 67.3125C97.134 66.8996 97.206 66.3788 97.206 65.75C97.206 65.1136 97.1264 64.6174 96.9673 64.2614C96.8082 63.9053 96.5734 63.6553 96.2628 63.5114C95.9522 63.3674 95.5696 63.2955 95.1151 63.2955C94.6832 63.2955 94.3139 63.4091 94.0071 63.6364C93.7041 63.8598 93.4711 64.1591 93.3082 64.5341C93.1491 64.9053 93.0696 65.3106 93.0696 65.75C93.0696 66.2348 93.134 66.6913 93.2628 67.1193C93.3916 67.5436 93.6018 67.8883 93.8935 68.1534C94.1851 68.4148 94.5772 68.5455 95.0696 68.5455ZM106.577 70.2045C106.024 70.2045 105.522 70.1004 105.071 69.892C104.62 69.6799 104.262 69.375 103.997 68.9773C103.732 68.5758 103.599 68.0909 103.599 67.5227C103.599 67.0227 103.698 66.6174 103.895 66.3068C104.092 65.9924 104.355 65.7462 104.685 65.5682C105.014 65.3902 105.378 65.2576 105.776 65.1705C106.177 65.0795 106.58 65.0076 106.986 64.9545C107.516 64.8864 107.946 64.8352 108.276 64.8011C108.609 64.7633 108.851 64.7008 109.003 64.6136C109.158 64.5265 109.236 64.375 109.236 64.1591V64.1136C109.236 63.553 109.082 63.1174 108.776 62.8068C108.473 62.4962 108.012 62.3409 107.395 62.3409C106.755 62.3409 106.253 62.4811 105.889 62.7614C105.526 63.0417 105.27 63.3409 105.122 63.6591L103.849 63.2045C104.077 62.6742 104.38 62.2614 104.759 61.9659C105.141 61.6667 105.558 61.4583 106.009 61.3409C106.463 61.2197 106.91 61.1591 107.349 61.1591C107.63 61.1591 107.952 61.1932 108.315 61.2614C108.683 61.3258 109.037 61.4602 109.378 61.6648C109.723 61.8693 110.009 62.178 110.236 62.5909C110.463 63.0038 110.577 63.5568 110.577 64.25V70H109.236V68.8182H109.168C109.077 69.0076 108.925 69.2102 108.713 69.4261C108.501 69.642 108.219 69.8258 107.866 69.9773C107.514 70.1288 107.084 70.2045 106.577 70.2045ZM106.781 69C107.312 69 107.759 68.8958 108.122 68.6875C108.49 68.4792 108.766 68.2102 108.952 67.8807C109.141 67.5511 109.236 67.2045 109.236 66.8409V65.6136C109.179 65.6818 109.054 65.7443 108.861 65.8011C108.671 65.8542 108.452 65.9015 108.202 65.9432C107.955 65.9811 107.715 66.0152 107.48 66.0455C107.249 66.072 107.062 66.0947 106.918 66.1136C106.569 66.1591 106.243 66.233 105.94 66.3352C105.641 66.4337 105.399 66.5833 105.213 66.7841C105.031 66.9811 104.94 67.25 104.94 67.5909C104.94 68.0568 105.113 68.4091 105.457 68.6477C105.806 68.8826 106.247 69 106.781 69ZM116.82 61.2727V62.4091H112.297V61.2727H116.82ZM113.615 59.1818H114.956V67.5C114.956 67.8788 115.011 68.1629 115.121 68.3523C115.234 68.5379 115.378 68.6629 115.553 68.7273C115.731 68.7879 115.918 68.8182 116.115 68.8182C116.263 68.8182 116.384 68.8106 116.479 68.7955C116.573 68.7765 116.649 68.7614 116.706 68.75L116.979 69.9545C116.888 69.9886 116.761 70.0227 116.598 70.0568C116.435 70.0947 116.229 70.1136 115.979 70.1136C115.6 70.1136 115.229 70.0322 114.865 69.8693C114.505 69.7064 114.206 69.4583 113.967 69.125C113.732 68.7917 113.615 68.3712 113.615 67.8636V59.1818ZM118.837 70V61.2727H120.178V70H118.837ZM119.518 59.8182C119.257 59.8182 119.032 59.7292 118.842 59.5511C118.657 59.3731 118.564 59.1591 118.564 58.9091C118.564 58.6591 118.657 58.4451 118.842 58.267C119.032 58.089 119.257 58 119.518 58C119.78 58 120.003 58.089 120.189 58.267C120.378 58.4451 120.473 58.6591 120.473 58.9091C120.473 59.1591 120.378 59.3731 120.189 59.5511C120.003 59.7292 119.78 59.8182 119.518 59.8182ZM129.77 61.2727L126.543 70H125.179L121.952 61.2727H123.406L125.815 68.2273H125.906L128.315 61.2727H129.77ZM134.773 70.1818C133.985 70.1818 133.294 69.9943 132.699 69.6193C132.108 69.2443 131.646 68.7197 131.312 68.0455C130.983 67.3712 130.818 66.5833 130.818 65.6818C130.818 64.7727 130.983 63.9792 131.312 63.3011C131.646 62.6231 132.108 62.0966 132.699 61.7216C133.294 61.3466 133.985 61.1591 134.773 61.1591C135.561 61.1591 136.25 61.3466 136.841 61.7216C137.436 62.0966 137.898 62.6231 138.227 63.3011C138.561 63.9792 138.727 64.7727 138.727 65.6818C138.727 66.5833 138.561 67.3712 138.227 68.0455C137.898 68.7197 137.436 69.2443 136.841 69.6193C136.25 69.9943 135.561 70.1818 134.773 70.1818ZM134.773 68.9773C135.371 68.9773 135.864 68.8239 136.25 68.517C136.636 68.2102 136.922 67.8068 137.108 67.3068C137.294 66.8068 137.386 66.2652 137.386 65.6818C137.386 65.0985 137.294 64.5549 137.108 64.0511C136.922 63.5473 136.636 63.1402 136.25 62.8295C135.864 62.5189 135.371 62.3636 134.773 62.3636C134.174 62.3636 133.682 62.5189 133.295 62.8295C132.909 63.1402 132.623 63.5473 132.438 64.0511C132.252 64.5549 132.159 65.0985 132.159 65.6818C132.159 66.2652 132.252 66.8068 132.438 67.3068C132.623 67.8068 132.909 68.2102 133.295 68.517C133.682 68.8239 134.174 68.9773 134.773 68.9773ZM146.956 63.2273L145.751 63.5682C145.676 63.3674 145.564 63.1723 145.416 62.983C145.272 62.7898 145.075 62.6307 144.825 62.5057C144.575 62.3807 144.255 62.3182 143.865 62.3182C143.331 62.3182 142.886 62.4413 142.53 62.6875C142.178 62.9299 142.001 63.2386 142.001 63.6136C142.001 63.947 142.123 64.2102 142.365 64.4034C142.607 64.5966 142.986 64.7576 143.501 64.8864L144.797 65.2045C145.577 65.3939 146.159 65.6837 146.541 66.0739C146.924 66.4602 147.115 66.9583 147.115 67.5682C147.115 68.0682 146.971 68.5152 146.683 68.9091C146.399 69.303 146.001 69.6136 145.49 69.8409C144.979 70.0682 144.384 70.1818 143.706 70.1818C142.816 70.1818 142.079 69.9886 141.496 69.6023C140.912 69.2159 140.543 68.6515 140.388 67.9091L141.661 67.5909C141.782 68.0606 142.011 68.4129 142.348 68.6477C142.689 68.8826 143.134 69 143.683 69C144.308 69 144.804 68.8674 145.172 68.6023C145.543 68.3333 145.729 68.0114 145.729 67.6364C145.729 67.3333 145.623 67.0795 145.411 66.875C145.198 66.6667 144.873 66.5114 144.433 66.4091L142.979 66.0682C142.179 65.8788 141.592 65.5852 141.217 65.1875C140.846 64.786 140.661 64.2841 140.661 63.6818C140.661 63.1894 140.799 62.7538 141.075 62.375C141.356 61.9962 141.736 61.6989 142.217 61.483C142.702 61.267 143.251 61.1591 143.865 61.1591C144.729 61.1591 145.407 61.3485 145.899 61.7273C146.395 62.1061 146.748 62.6061 146.956 63.2273ZM150.111 70.0909C149.83 70.0909 149.59 69.9905 149.389 69.7898C149.188 69.589 149.088 69.3485 149.088 69.0682C149.088 68.7879 149.188 68.5473 149.389 68.3466C149.59 68.1458 149.83 68.0455 150.111 68.0455C150.391 68.0455 150.632 68.1458 150.832 68.3466C151.033 68.5473 151.134 68.7879 151.134 69.0682C151.134 69.2538 151.086 69.4242 150.991 69.5795C150.901 69.7348 150.777 69.8598 150.622 69.9545C150.471 70.0455 150.3 70.0909 150.111 70.0909ZM157.085 70.1818C156.267 70.1818 155.563 69.9886 154.972 69.6023C154.381 69.2159 153.926 68.6837 153.608 68.0057C153.29 67.3277 153.131 66.553 153.131 65.6818C153.131 64.7955 153.294 64.0133 153.619 63.3352C153.949 62.6534 154.407 62.1212 154.994 61.7386C155.585 61.3523 156.275 61.1591 157.062 61.1591C157.676 61.1591 158.229 61.2727 158.722 61.5C159.214 61.7273 159.617 62.0455 159.932 62.4545C160.246 62.8636 160.441 63.3409 160.517 63.8864H159.176C159.074 63.4886 158.847 63.1364 158.494 62.8295C158.146 62.5189 157.676 62.3636 157.085 62.3636C156.563 62.3636 156.104 62.5 155.71 62.7727C155.32 63.0417 155.015 63.4223 154.795 63.9148C154.58 64.4034 154.472 64.9773 154.472 65.6364C154.472 66.3106 154.578 66.8977 154.79 67.3977C155.006 67.8977 155.309 68.286 155.699 68.5625C156.093 68.839 156.555 68.9773 157.085 68.9773C157.434 68.9773 157.75 68.9167 158.034 68.7955C158.318 68.6742 158.559 68.5 158.756 68.2727C158.953 68.0455 159.093 67.7727 159.176 67.4545H160.517C160.441 67.9697 160.254 68.4337 159.955 68.8466C159.659 69.2557 159.267 69.5814 158.778 69.8239C158.294 70.0625 157.729 70.1818 157.085 70.1818ZM165.045 70.2045C164.492 70.2045 163.991 70.1004 163.54 69.892C163.089 69.6799 162.731 69.375 162.466 68.9773C162.201 68.5758 162.068 68.0909 162.068 67.5227C162.068 67.0227 162.167 66.6174 162.364 66.3068C162.561 65.9924 162.824 65.7462 163.153 65.5682C163.483 65.3902 163.847 65.2576 164.244 65.1705C164.646 65.0795 165.049 65.0076 165.455 64.9545C165.985 64.8864 166.415 64.8352 166.744 64.8011C167.078 64.7633 167.32 64.7008 167.472 64.6136C167.627 64.5265 167.705 64.375 167.705 64.1591V64.1136C167.705 63.553 167.551 63.1174 167.244 62.8068C166.941 62.4962 166.481 62.3409 165.864 62.3409C165.223 62.3409 164.722 62.4811 164.358 62.7614C163.994 63.0417 163.739 63.3409 163.591 63.6591L162.318 63.2045C162.545 62.6742 162.848 62.2614 163.227 61.9659C163.61 61.6667 164.027 61.4583 164.477 61.3409C164.932 61.2197 165.379 61.1591 165.818 61.1591C166.098 61.1591 166.42 61.1932 166.784 61.2614C167.152 61.3258 167.506 61.4602 167.847 61.6648C168.191 61.8693 168.477 62.178 168.705 62.5909C168.932 63.0038 169.045 63.5568 169.045 64.25V70H167.705V68.8182H167.636C167.545 69.0076 167.394 69.2102 167.182 69.4261C166.97 69.642 166.688 69.8258 166.335 69.9773C165.983 70.1288 165.553 70.2045 165.045 70.2045ZM165.25 69C165.78 69 166.227 68.8958 166.591 68.6875C166.958 68.4792 167.235 68.2102 167.42 67.8807C167.61 67.5511 167.705 67.2045 167.705 66.8409V65.6136C167.648 65.6818 167.523 65.7443 167.33 65.8011C167.14 65.8542 166.92 65.9015 166.67 65.9432C166.424 65.9811 166.184 66.0152 165.949 66.0455C165.718 66.072 165.53 66.0947 165.386 66.1136C165.038 66.1591 164.712 66.233 164.409 66.3352C164.11 66.4337 163.867 66.5833 163.682 66.7841C163.5 66.9811 163.409 67.25 163.409 67.5909C163.409 68.0568 163.581 68.4091 163.926 68.6477C164.275 68.8826 164.716 69 165.25 69ZM171.493 73.2727V61.2727H172.788V62.6591H172.947C173.046 62.5076 173.182 62.3144 173.357 62.0795C173.535 61.8409 173.788 61.6288 174.118 61.4432C174.451 61.2538 174.902 61.1591 175.47 61.1591C176.205 61.1591 176.853 61.3428 177.413 61.7102C177.974 62.0777 178.411 62.5985 178.726 63.2727C179.04 63.947 179.197 64.7424 179.197 65.6591C179.197 66.5833 179.04 67.3845 178.726 68.0625C178.411 68.7367 177.976 69.2595 177.419 69.6307C176.862 69.9981 176.22 70.1818 175.493 70.1818C174.932 70.1818 174.483 70.089 174.146 69.9034C173.809 69.714 173.55 69.5 173.368 69.2614C173.186 69.0189 173.046 68.8182 172.947 68.6591H172.834V73.2727H171.493ZM172.811 65.6364C172.811 66.2955 172.908 66.8769 173.101 67.3807C173.294 67.8807 173.576 68.2727 173.947 68.5568C174.319 68.8371 174.773 68.9773 175.311 68.9773C175.872 68.9773 176.339 68.8295 176.714 68.5341C177.093 68.2348 177.377 67.8333 177.567 67.3295C177.76 66.822 177.857 66.2576 177.857 65.6364C177.857 65.0227 177.762 64.4697 177.572 63.9773C177.387 63.4811 177.105 63.089 176.726 62.8011C176.351 62.5095 175.879 62.3636 175.311 62.3636C174.766 62.3636 174.307 62.5019 173.936 62.7784C173.565 63.0511 173.285 63.4337 173.095 63.9261C172.906 64.4148 172.811 64.9848 172.811 65.6364ZM181.243 70V61.2727H182.584V70H181.243ZM181.925 59.8182C181.663 59.8182 181.438 59.7292 181.249 59.5511C181.063 59.3731 180.97 59.1591 180.97 58.9091C180.97 58.6591 181.063 58.4451 181.249 58.267C181.438 58.089 181.663 58 181.925 58C182.186 58 182.41 58.089 182.595 58.267C182.785 58.4451 182.879 58.6591 182.879 58.9091C182.879 59.1591 182.785 59.3731 182.595 59.5511C182.41 59.7292 182.186 59.8182 181.925 59.8182ZM188.835 61.2727V62.4091H184.312V61.2727H188.835ZM185.631 59.1818H186.972V67.5C186.972 67.8788 187.027 68.1629 187.136 68.3523C187.25 68.5379 187.394 68.6629 187.568 68.7273C187.746 68.7879 187.934 68.8182 188.131 68.8182C188.278 68.8182 188.4 68.8106 188.494 68.7955C188.589 68.7765 188.665 68.7614 188.722 68.75L188.994 69.9545C188.903 69.9886 188.777 70.0227 188.614 70.0568C188.451 70.0947 188.244 70.1136 187.994 70.1136C187.616 70.1136 187.244 70.0322 186.881 69.8693C186.521 69.7064 186.222 69.4583 185.983 69.125C185.748 68.7917 185.631 68.3712 185.631 67.8636V59.1818ZM193.42 70.2045C192.867 70.2045 192.366 70.1004 191.915 69.892C191.464 69.6799 191.106 69.375 190.841 68.9773C190.576 68.5758 190.443 68.0909 190.443 67.5227C190.443 67.0227 190.542 66.6174 190.739 66.3068C190.936 65.9924 191.199 65.7462 191.528 65.5682C191.858 65.3902 192.222 65.2576 192.619 65.1705C193.021 65.0795 193.424 65.0076 193.83 64.9545C194.36 64.8864 194.79 64.8352 195.119 64.8011C195.453 64.7633 195.695 64.7008 195.847 64.6136C196.002 64.5265 196.08 64.375 196.08 64.1591V64.1136C196.08 63.553 195.926 63.1174 195.619 62.8068C195.316 62.4962 194.856 62.3409 194.239 62.3409C193.598 62.3409 193.097 62.4811 192.733 62.7614C192.369 63.0417 192.114 63.3409 191.966 63.6591L190.693 63.2045C190.92 62.6742 191.223 62.2614 191.602 61.9659C191.985 61.6667 192.402 61.4583 192.852 61.3409C193.307 61.2197 193.754 61.1591 194.193 61.1591C194.473 61.1591 194.795 61.1932 195.159 61.2614C195.527 61.3258 195.881 61.4602 196.222 61.6648C196.566 61.8693 196.852 62.178 197.08 62.5909C197.307 63.0038 197.42 63.5568 197.42 64.25V70H196.08V68.8182H196.011C195.92 69.0076 195.769 69.2102 195.557 69.4261C195.345 69.642 195.063 69.8258 194.71 69.9773C194.358 70.1288 193.928 70.2045 193.42 70.2045ZM193.625 69C194.155 69 194.602 68.8958 194.966 68.6875C195.333 68.4792 195.61 68.2102 195.795 67.8807C195.985 67.5511 196.08 67.2045 196.08 66.8409V65.6136C196.023 65.6818 195.898 65.7443 195.705 65.8011C195.515 65.8542 195.295 65.9015 195.045 65.9432C194.799 65.9811 194.559 66.0152 194.324 66.0455C194.093 66.072 193.905 66.0947 193.761 66.1136C193.413 66.1591 193.087 66.233 192.784 66.3352C192.485 66.4337 192.242 66.5833 192.057 66.7841C191.875 66.9811 191.784 67.25 191.784 67.5909C191.784 68.0568 191.956 68.4091 192.301 68.6477C192.65 68.8826 193.091 69 193.625 69ZM201.209 58.3636V70H199.868V58.3636H201.209Z" fill="#181D27"/>
</g>
<path d="M25.6719 113.493C25.6188 113.022 25.4001 112.658 25.0156 112.399C24.6312 112.137 24.1473 112.006 23.5639 112.006C23.1463 112.006 22.785 112.073 22.4801 112.205C22.1752 112.335 21.9382 112.513 21.7692 112.742C21.6035 112.968 21.5206 113.224 21.5206 113.513C21.5206 113.755 21.5769 113.964 21.6896 114.139C21.8056 114.315 21.9564 114.462 22.142 114.582C22.331 114.698 22.5331 114.795 22.7486 114.875C22.964 114.951 23.1712 115.014 23.37 115.064L24.3643 115.322C24.6892 115.402 25.0223 115.51 25.3636 115.646C25.705 115.781 26.0215 115.96 26.3132 116.183C26.6049 116.405 26.8402 116.68 27.0192 117.008C27.2015 117.336 27.2926 117.729 27.2926 118.186C27.2926 118.763 27.1435 119.275 26.8452 119.722C26.5502 120.17 26.121 120.523 25.5575 120.781C24.9974 121.04 24.3196 121.169 23.5241 121.169C22.7618 121.169 22.1023 121.048 21.5455 120.806C20.9886 120.564 20.5528 120.221 20.2379 119.777C19.9231 119.33 19.7491 118.799 19.7159 118.186H21.2571C21.2869 118.554 21.4063 118.861 21.6151 119.106C21.8272 119.348 22.0973 119.528 22.4254 119.648C22.7569 119.764 23.1198 119.822 23.5142 119.822C23.9484 119.822 24.3345 119.754 24.6726 119.618C25.014 119.479 25.2824 119.286 25.478 119.041C25.6735 118.793 25.7713 118.503 25.7713 118.171C25.7713 117.87 25.6851 117.623 25.5128 117.43C25.3438 117.238 25.1134 117.079 24.8217 116.953C24.5334 116.827 24.2069 116.716 23.8423 116.62L22.6392 116.292C21.8239 116.07 21.1776 115.743 20.7003 115.312C20.2263 114.882 19.9893 114.312 19.9893 113.602C19.9893 113.016 20.1484 112.504 20.4666 112.066C20.7848 111.629 21.2157 111.289 21.7592 111.047C22.3028 110.802 22.916 110.679 23.5987 110.679C24.2881 110.679 24.8963 110.8 25.4233 111.042C25.9536 111.284 26.3712 111.617 26.6761 112.041C26.9811 112.462 27.1402 112.946 27.1534 113.493H25.6719ZM32.3002 121.154C31.5479 121.154 30.8999 120.993 30.3564 120.672C29.8161 120.347 29.3985 119.891 29.1035 119.305C28.8118 118.715 28.666 118.024 28.666 117.232C28.666 116.449 28.8118 115.76 29.1035 115.163C29.3985 114.567 29.8095 114.101 30.3365 113.766C30.8668 113.432 31.4866 113.264 32.1958 113.264C32.6267 113.264 33.0443 113.335 33.4487 113.478C33.853 113.621 34.216 113.844 34.5375 114.149C34.859 114.454 35.1125 114.85 35.2981 115.337C35.4837 115.821 35.5765 116.41 35.5765 117.102V117.629H29.5062V116.516H34.1199C34.1199 116.125 34.0403 115.778 33.8812 115.477C33.7221 115.172 33.4984 114.931 33.21 114.756C32.925 114.58 32.5903 114.492 32.2058 114.492C31.7882 114.492 31.4236 114.595 31.112 114.8C30.8038 115.003 30.5652 115.268 30.3961 115.596C30.2304 115.921 30.1475 116.274 30.1475 116.655V117.525C30.1475 118.035 30.237 118.469 30.416 118.827C30.5983 119.185 30.8519 119.459 31.1767 119.648C31.5015 119.833 31.881 119.926 32.3152 119.926C32.5969 119.926 32.8538 119.886 33.0858 119.807C33.3178 119.724 33.5183 119.601 33.6873 119.439C33.8564 119.277 33.9856 119.076 34.0751 118.837L35.4821 119.091C35.3694 119.505 35.1672 119.868 34.8755 120.18C34.5872 120.488 34.2243 120.728 33.7868 120.901C33.3526 121.07 32.8571 121.154 32.3002 121.154ZM38.7124 116.466V121H37.2259V113.364H38.6527V114.607H38.7472C38.9228 114.202 39.1979 113.877 39.5724 113.632C39.9503 113.387 40.4259 113.264 40.9993 113.264C41.5196 113.264 41.9754 113.374 42.3665 113.592C42.7576 113.808 43.0608 114.129 43.2763 114.557C43.4917 114.984 43.5994 115.513 43.5994 116.143V121H42.1129V116.322C42.1129 115.768 41.9688 115.336 41.6804 115.024C41.392 114.709 40.996 114.552 40.4922 114.552C40.1475 114.552 39.8409 114.626 39.5724 114.776C39.3073 114.925 39.0968 115.143 38.9411 115.432C38.7886 115.717 38.7124 116.062 38.7124 116.466ZM47.0795 116.466V121H45.593V110.818H47.0597V114.607H47.1541C47.3331 114.196 47.6065 113.869 47.9744 113.627C48.3423 113.385 48.8229 113.264 49.4162 113.264C49.9399 113.264 50.3973 113.372 50.7884 113.587C51.1828 113.803 51.4877 114.124 51.7031 114.552C51.9219 114.976 52.0312 115.506 52.0312 116.143V121H50.5447V116.322C50.5447 115.762 50.4006 115.327 50.1122 115.019C49.8239 114.708 49.4228 114.552 48.9091 114.552C48.5578 114.552 48.2429 114.626 47.9645 114.776C47.6894 114.925 47.4723 115.143 47.3132 115.432C47.1574 115.717 47.0795 116.062 47.0795 116.466ZM56.2372 121.169C55.7533 121.169 55.3158 121.08 54.9247 120.901C54.5336 120.718 54.2237 120.455 53.995 120.11C53.7696 119.765 53.657 119.343 53.657 118.842C53.657 118.411 53.7398 118.057 53.9055 117.778C54.0713 117.5 54.295 117.28 54.5767 117.117C54.8584 116.955 55.1733 116.832 55.5213 116.749C55.8693 116.666 56.224 116.603 56.5852 116.56C57.0426 116.507 57.4138 116.464 57.6989 116.431C57.9839 116.395 58.1911 116.337 58.3203 116.257C58.4496 116.178 58.5142 116.048 58.5142 115.869V115.835C58.5142 115.4 58.3916 115.064 58.1463 114.825C57.9044 114.587 57.5431 114.467 57.0625 114.467C56.562 114.467 56.1676 114.578 55.8793 114.8C55.5942 115.019 55.397 115.263 55.2876 115.531L53.8906 115.213C54.0563 114.749 54.2983 114.375 54.6165 114.089C54.938 113.801 55.3075 113.592 55.7251 113.463C56.1428 113.33 56.5819 113.264 57.0426 113.264C57.3475 113.264 57.6707 113.301 58.0121 113.374C58.3568 113.443 58.6783 113.572 58.9766 113.761C59.2782 113.95 59.5251 114.22 59.7173 114.572C59.9096 114.92 60.0057 115.372 60.0057 115.929V121H58.554V119.956H58.4943C58.3982 120.148 58.254 120.337 58.0618 120.523C57.8696 120.708 57.6226 120.862 57.321 120.985C57.0194 121.108 56.6581 121.169 56.2372 121.169ZM56.5604 119.976C56.9714 119.976 57.3227 119.895 57.6143 119.732C57.9093 119.57 58.133 119.358 58.2855 119.096C58.4413 118.831 58.5192 118.547 58.5192 118.246V117.261C58.4661 117.314 58.3634 117.364 58.2109 117.411C58.0618 117.454 57.8911 117.492 57.6989 117.525C57.5066 117.555 57.3194 117.583 57.1371 117.609C56.9548 117.633 56.8023 117.652 56.6797 117.669C56.3913 117.705 56.1278 117.767 55.8892 117.853C55.6539 117.939 55.465 118.063 55.3224 118.226C55.1832 118.385 55.1136 118.597 55.1136 118.862C55.1136 119.23 55.2495 119.509 55.5213 119.697C55.7931 119.883 56.1394 119.976 56.5604 119.976Z" fill="#414651"/>
<g filter="url(#filter1_d_208_7495)">
<path d="M19 140C19 135.582 22.5817 132 27 132H343C347.418 132 351 135.582 351 140V168C351 172.418 347.418 176 343 176H27C22.5817 176 19 172.418 19 168V140Z" fill="white"/>
<path d="M27 132.5H343C347.142 132.5 350.5 135.858 350.5 140V168C350.5 172.142 347.142 175.5 343 175.5H27C22.8579 175.5 19.5 172.142 19.5 168V140C19.5 135.858 22.8579 132.5 27 132.5Z" stroke="#D5D7DA"/>
<path d="M37.5 157.864C37.0417 157.864 36.6231 157.752 36.2443 157.528C35.8655 157.301 35.5625 156.998 35.3352 156.619C35.1117 156.241 35 155.822 35 155.364C35 154.902 35.1117 154.483 35.3352 154.108C35.5625 153.729 35.8655 153.428 36.2443 153.205C36.6231 152.977 37.0417 152.864 37.5 152.864C37.9621 152.864 38.3807 152.977 38.7557 153.205C39.1345 153.428 39.4356 153.729 39.6591 154.108C39.8864 154.483 40 154.902 40 155.364C40 155.822 39.8864 156.241 39.6591 156.619C39.4356 156.998 39.1345 157.301 38.7557 157.528C38.3807 157.752 37.9621 157.864 37.5 157.864ZM46.5 157.864C46.0417 157.864 45.6231 157.752 45.2443 157.528C44.8655 157.301 44.5625 156.998 44.3352 156.619C44.1117 156.241 44 155.822 44 155.364C44 154.902 44.1117 154.483 44.3352 154.108C44.5625 153.729 44.8655 153.428 45.2443 153.205C45.6231 152.977 46.0417 152.864 46.5 152.864C46.9621 152.864 47.3807 152.977 47.7557 153.205C48.1345 153.428 48.4356 153.729 48.6591 154.108C48.8864 154.483 49 154.902 49 155.364C49 155.822 48.8864 156.241 48.6591 156.619C48.4356 156.998 48.1345 157.301 47.7557 157.528C47.3807 157.752 46.9621 157.864 46.5 157.864ZM55.5 157.864C55.0417 157.864 54.6231 157.752 54.2443 157.528C53.8655 157.301 53.5625 156.998 53.3352 156.619C53.1117 156.241 53 155.822 53 155.364C53 154.902 53.1117 154.483 53.3352 154.108C53.5625 153.729 53.8655 153.428 54.2443 153.205C54.6231 152.977 55.0417 152.864 55.5 152.864C55.9621 152.864 56.3807 152.977 56.7557 153.205C57.1345 153.428 57.4356 153.729 57.6591 154.108C57.8864 154.483 58 154.902 58 155.364C58 155.822 57.8864 156.241 57.6591 156.619C57.4356 156.998 57.1345 157.301 56.7557 157.528C56.3807 157.752 55.9621 157.864 55.5 157.864ZM64.5 157.864C64.0417 157.864 63.6231 157.752 63.2443 157.528C62.8655 157.301 62.5625 156.998 62.3352 156.619C62.1117 156.241 62 155.822 62 155.364C62 154.902 62.1117 154.483 62.3352 154.108C62.5625 153.729 62.8655 153.428 63.2443 153.205C63.6231 152.977 64.0417 152.864 64.5 152.864C64.9621 152.864 65.3807 152.977 65.7557 153.205C66.1345 153.428 66.4356 153.729 66.6591 154.108C66.8864 154.483 67 154.902 67 155.364C67 155.822 66.8864 156.241 66.6591 156.619C66.4356 156.998 66.1345 157.301 65.7557 157.528C65.3807 157.752 64.9621 157.864 64.5 157.864ZM73.5 157.864C73.0417 157.864 72.6231 157.752 72.2443 157.528C71.8655 157.301 71.5625 156.998 71.3352 156.619C71.1117 156.241 71 155.822 71 155.364C71 154.902 71.1117 154.483 71.3352 154.108C71.5625 153.729 71.8655 153.428 72.2443 153.205C72.6231 152.977 73.0417 152.864 73.5 152.864C73.9621 152.864 74.3807 152.977 74.7557 153.205C75.1345 153.428 75.4356 153.729 75.6591 154.108C75.8864 154.483 76 154.902 76 155.364C76 155.822 75.8864 156.241 75.6591 156.619C75.4356 156.998 75.1345 157.301 74.7557 157.528C74.3807 157.752 73.9621 157.864 73.5 157.864ZM82.5 157.864C82.0417 157.864 81.6231 157.752 81.2443 157.528C80.8655 157.301 80.5625 156.998 80.3352 156.619C80.1117 156.241 80 155.822 80 155.364C80 154.902 80.1117 154.483 80.3352 154.108C80.5625 153.729 80.8655 153.428 81.2443 153.205C81.6231 152.977 82.0417 152.864 82.5 152.864C82.9621 152.864 83.3807 152.977 83.7557 153.205C84.1345 153.428 84.4356 153.729 84.6591 154.108C84.8864 154.483 85 154.902 85 155.364C85 155.822 84.8864 156.241 84.6591 156.619C84.4356 156.998 84.1345 157.301 83.7557 157.528C83.3807 157.752 82.9621 157.864 82.5 157.864ZM91.5 157.864C91.0417 157.864 90.6231 157.752 90.2443 157.528C89.8655 157.301 89.5625 156.998 89.3352 156.619C89.1117 156.241 89 155.822 89 155.364C89 154.902 89.1117 154.483 89.3352 154.108C89.5625 153.729 89.8655 153.428 90.2443 153.205C90.6231 152.977 91.0417 152.864 91.5 152.864C91.9621 152.864 92.3807 152.977 92.7557 153.205C93.1345 153.428 93.4356 153.729 93.6591 154.108C93.8864 154.483 94 154.902 94 155.364C94 155.822 93.8864 156.241 93.6591 156.619C93.4356 156.998 93.1345 157.301 92.7557 157.528C92.3807 157.752 91.9621 157.864 91.5 157.864ZM100.5 157.864C100.042 157.864 99.6231 157.752 99.2443 157.528C98.8655 157.301 98.5625 156.998 98.3352 156.619C98.1117 156.241 98 155.822 98 155.364C98 154.902 98.1117 154.483 98.3352 154.108C98.5625 153.729 98.8655 153.428 99.2443 153.205C99.6231 152.977 100.042 152.864 100.5 152.864C100.962 152.864 101.381 152.977 101.756 153.205C102.134 153.428 102.436 153.729 102.659 154.108C102.886 154.483 103 154.902 103 155.364C103 155.822 102.886 156.241 102.659 156.619C102.436 156.998 102.134 157.301 101.756 157.528C101.381 157.752 100.962 157.864 100.5 157.864ZM109.5 157.864C109.042 157.864 108.623 157.752 108.244 157.528C107.866 157.301 107.563 156.998 107.335 156.619C107.112 156.241 107 155.822 107 155.364C107 154.902 107.112 154.483 107.335 154.108C107.563 153.729 107.866 153.428 108.244 153.205C108.623 152.977 109.042 152.864 109.5 152.864C109.962 152.864 110.381 152.977 110.756 153.205C111.134 153.428 111.436 153.729 111.659 154.108C111.886 154.483 112 154.902 112 155.364C112 155.822 111.886 156.241 111.659 156.619C111.436 156.998 111.134 157.301 110.756 157.528C110.381 157.752 109.962 157.864 109.5 157.864ZM118.5 157.864C118.042 157.864 117.623 157.752 117.244 157.528C116.866 157.301 116.563 156.998 116.335 156.619C116.112 156.241 116 155.822 116 155.364C116 154.902 116.112 154.483 116.335 154.108C116.563 153.729 116.866 153.428 117.244 153.205C117.623 152.977 118.042 152.864 118.5 152.864C118.962 152.864 119.381 152.977 119.756 153.205C120.134 153.428 120.436 153.729 120.659 154.108C120.886 154.483 121 154.902 121 155.364C121 155.822 120.886 156.241 120.659 156.619C120.436 156.998 120.134 157.301 119.756 157.528C119.381 157.752 118.962 157.864 118.5 157.864ZM127.5 157.864C127.042 157.864 126.623 157.752 126.244 157.528C125.866 157.301 125.563 156.998 125.335 156.619C125.112 156.241 125 155.822 125 155.364C125 154.902 125.112 154.483 125.335 154.108C125.563 153.729 125.866 153.428 126.244 153.205C126.623 152.977 127.042 152.864 127.5 152.864C127.962 152.864 128.381 152.977 128.756 153.205C129.134 153.428 129.436 153.729 129.659 154.108C129.886 154.483 130 154.902 130 155.364C130 155.822 129.886 156.241 129.659 156.619C129.436 156.998 129.134 157.301 128.756 157.528C128.381 157.752 127.962 157.864 127.5 157.864ZM136.5 157.864C136.042 157.864 135.623 157.752 135.244 157.528C134.866 157.301 134.563 156.998 134.335 156.619C134.112 156.241 134 155.822 134 155.364C134 154.902 134.112 154.483 134.335 154.108C134.563 153.729 134.866 153.428 135.244 153.205C135.623 152.977 136.042 152.864 136.5 152.864C136.962 152.864 137.381 152.977 137.756 153.205C138.134 153.428 138.436 153.729 138.659 154.108C138.886 154.483 139 154.902 139 155.364C139 155.822 138.886 156.241 138.659 156.619C138.436 156.998 138.134 157.301 137.756 157.528C137.381 157.752 136.962 157.864 136.5 157.864ZM145.5 157.864C145.042 157.864 144.623 157.752 144.244 157.528C143.866 157.301 143.563 156.998 143.335 156.619C143.112 156.241 143 155.822 143 155.364C143 154.902 143.112 154.483 143.335 154.108C143.563 153.729 143.866 153.428 144.244 153.205C144.623 152.977 145.042 152.864 145.5 152.864C145.962 152.864 146.381 152.977 146.756 153.205C147.134 153.428 147.436 153.729 147.659 154.108C147.886 154.483 148 154.902 148 155.364C148 155.822 147.886 156.241 147.659 156.619C147.436 156.998 147.134 157.301 146.756 157.528C146.381 157.752 145.962 157.864 145.5 157.864ZM154.5 157.864C154.042 157.864 153.623 157.752 153.244 157.528C152.866 157.301 152.563 156.998 152.335 156.619C152.112 156.241 152 155.822 152 155.364C152 154.902 152.112 154.483 152.335 154.108C152.563 153.729 152.866 153.428 153.244 153.205C153.623 152.977 154.042 152.864 154.5 152.864C154.962 152.864 155.381 152.977 155.756 153.205C156.134 153.428 156.436 153.729 156.659 154.108C156.886 154.483 157 154.902 157 155.364C157 155.822 156.886 156.241 156.659 156.619C156.436 156.998 156.134 157.301 155.756 157.528C155.381 157.752 154.962 157.864 154.5 157.864ZM163.5 157.864C163.042 157.864 162.623 157.752 162.244 157.528C161.866 157.301 161.563 156.998 161.335 156.619C161.112 156.241 161 155.822 161 155.364C161 154.902 161.112 154.483 161.335 154.108C161.563 153.729 161.866 153.428 162.244 153.205C162.623 152.977 163.042 152.864 163.5 152.864C163.962 152.864 164.381 152.977 164.756 153.205C165.134 153.428 165.436 153.729 165.659 154.108C165.886 154.483 166 154.902 166 155.364C166 155.822 165.886 156.241 165.659 156.619C165.436 156.998 165.134 157.301 164.756 157.528C164.381 157.752 163.962 157.864 163.5 157.864ZM172.5 157.864C172.042 157.864 171.623 157.752 171.244 157.528C170.866 157.301 170.563 156.998 170.335 156.619C170.112 156.241 170 155.822 170 155.364C170 154.902 170.112 154.483 170.335 154.108C170.563 153.729 170.866 153.428 171.244 153.205C171.623 152.977 172.042 152.864 172.5 152.864C172.962 152.864 173.381 152.977 173.756 153.205C174.134 153.428 174.436 153.729 174.659 154.108C174.886 154.483 175 154.902 175 155.364C175 155.822 174.886 156.241 174.659 156.619C174.436 156.998 174.134 157.301 173.756 157.528C173.381 157.752 172.962 157.864 172.5 157.864Z" fill="#181D27"/>
</g>
<path d="M19 206C19 203.791 20.7909 202 23 202H31C33.2091 202 35 203.791 35 206V214C35 216.209 33.2091 218 31 218H23C20.7909 218 19 216.209 19 214V206Z" fill="#D9428D"/>
<path d="M31 207L25.5 212.5L23 210" stroke="white" stroke-width="1.6666" stroke-linecap="round" stroke-linejoin="round"/>
<path d="M44.1186 215V204.818H45.6548V213.678H50.2685V215H44.1186ZM55.1928 215.154C54.4405 215.154 53.7925 214.993 53.2489 214.672C52.7087 214.347 52.2911 213.891 51.9961 213.305C51.7044 212.715 51.5586 212.024 51.5586 211.232C51.5586 210.449 51.7044 209.76 51.9961 209.163C52.2911 208.567 52.7021 208.101 53.229 207.766C53.7594 207.432 54.3791 207.264 55.0884 207.264C55.5193 207.264 55.9369 207.335 56.3413 207.478C56.7456 207.621 57.1085 207.844 57.43 208.149C57.7515 208.454 58.0051 208.85 58.1907 209.337C58.3763 209.821 58.4691 210.41 58.4691 211.102V211.629H52.3988V210.516H57.0124C57.0124 210.125 56.9329 209.778 56.7738 209.477C56.6147 209.172 56.391 208.931 56.1026 208.756C55.8176 208.58 55.4828 208.492 55.0984 208.492C54.6808 208.492 54.3162 208.595 54.0046 208.8C53.6964 209.003 53.4577 209.268 53.2887 209.596C53.123 209.921 53.0401 210.274 53.0401 210.655V211.525C53.0401 212.035 53.1296 212.469 53.3086 212.827C53.4909 213.185 53.7444 213.459 54.0692 213.648C54.3941 213.833 54.7736 213.926 55.2077 213.926C55.4895 213.926 55.7463 213.886 55.9783 213.807C56.2103 213.724 56.4109 213.601 56.5799 213.439C56.7489 213.277 56.8782 213.076 56.9677 212.837L58.3746 213.091C58.262 213.505 58.0598 213.868 57.7681 214.18C57.4798 214.488 57.1168 214.728 56.6793 214.901C56.2451 215.07 55.7496 215.154 55.1928 215.154ZM60.1184 215V207.364H61.5453V208.607H61.6397C61.7988 208.186 62.059 207.857 62.4203 207.622C62.7815 207.384 63.2141 207.264 63.7179 207.264C64.2283 207.264 64.6558 207.384 65.0005 207.622C65.3485 207.861 65.6054 208.189 65.7711 208.607H65.8507C66.033 208.199 66.323 207.874 66.7207 207.632C67.1184 207.387 67.5924 207.264 68.1426 207.264C68.8353 207.264 69.4004 207.481 69.8379 207.915C70.2787 208.35 70.4991 209.004 70.4991 209.879V215H69.0126V210.018C69.0126 209.501 68.8717 209.127 68.59 208.895C68.3083 208.663 67.9719 208.547 67.5808 208.547C67.0969 208.547 66.7207 208.696 66.4522 208.994C66.1838 209.289 66.0495 209.669 66.0495 210.133V215H64.568V209.924C64.568 209.51 64.4387 209.177 64.1802 208.925C63.9217 208.673 63.5853 208.547 63.171 208.547C62.8893 208.547 62.6291 208.621 62.3904 208.771C62.1551 208.916 61.9645 209.12 61.8187 209.382C61.6762 209.644 61.6049 209.947 61.6049 210.292V215H60.1184ZM72.6108 215V204.818H74.0973V208.602H74.1868C74.273 208.442 74.3973 208.259 74.5597 208.05C74.7221 207.841 74.9474 207.659 75.2358 207.503C75.5241 207.344 75.9053 207.264 76.3793 207.264C76.9957 207.264 77.5459 207.42 78.0298 207.732C78.5137 208.043 78.8932 208.492 79.1683 209.079C79.4467 209.665 79.5859 210.371 79.5859 211.197C79.5859 212.022 79.4484 212.73 79.1733 213.32C78.8982 213.906 78.5204 214.359 78.0398 214.677C77.5592 214.992 77.0107 215.149 76.3942 215.149C75.9302 215.149 75.5507 215.071 75.2557 214.915C74.964 214.76 74.7353 214.577 74.5696 214.369C74.4039 214.16 74.2763 213.974 74.1868 213.812H74.0625V215H72.6108ZM74.0675 211.182C74.0675 211.719 74.1454 212.189 74.3011 212.594C74.4569 212.998 74.6823 213.315 74.9773 213.543C75.2723 213.769 75.6335 213.881 76.0611 213.881C76.5052 213.881 76.8764 213.764 77.1747 213.528C77.473 213.29 77.6984 212.967 77.8509 212.559C78.0066 212.151 78.0845 211.692 78.0845 211.182C78.0845 210.678 78.0083 210.226 77.8558 209.825C77.7067 209.424 77.4813 209.107 77.1797 208.875C76.8814 208.643 76.5085 208.527 76.0611 208.527C75.6302 208.527 75.2656 208.638 74.9673 208.86C74.6723 209.082 74.4486 209.392 74.2962 209.79C74.1437 210.187 74.0675 210.652 74.0675 211.182ZM81.2551 215V207.364H82.6919V208.577H82.7715C82.9107 208.166 83.156 207.843 83.5073 207.607C83.8619 207.369 84.263 207.249 84.7104 207.249C84.8032 207.249 84.9126 207.253 85.0385 207.259C85.1678 207.266 85.2689 207.274 85.3418 207.284V208.706C85.2821 208.689 85.1761 208.671 85.0236 208.651C84.8712 208.628 84.7187 208.616 84.5662 208.616C84.2149 208.616 83.9017 208.691 83.6266 208.84C83.3548 208.986 83.1394 209.19 82.9803 209.452C82.8212 209.71 82.7417 210.005 82.7417 210.337V215H81.2551ZM88.7821 215.169C88.2982 215.169 87.8607 215.08 87.4696 214.901C87.0785 214.718 86.7686 214.455 86.54 214.11C86.3146 213.765 86.2019 213.343 86.2019 212.842C86.2019 212.411 86.2847 212.057 86.4505 211.778C86.6162 211.5 86.8399 211.28 87.1216 211.117C87.4033 210.955 87.7182 210.832 88.0662 210.749C88.4142 210.666 88.7689 210.603 89.1301 210.56C89.5875 210.507 89.9587 210.464 90.2438 210.431C90.5288 210.395 90.736 210.337 90.8652 210.257C90.9945 210.178 91.0591 210.048 91.0591 209.869V209.835C91.0591 209.4 90.9365 209.064 90.6912 208.825C90.4493 208.587 90.088 208.467 89.6074 208.467C89.1069 208.467 88.7125 208.578 88.4242 208.8C88.1391 209.019 87.9419 209.263 87.8326 209.531L86.4355 209.213C86.6013 208.749 86.8432 208.375 87.1614 208.089C87.4829 207.801 87.8525 207.592 88.2701 207.463C88.6877 207.33 89.1268 207.264 89.5875 207.264C89.8925 207.264 90.2156 207.301 90.557 207.374C90.9017 207.443 91.2232 207.572 91.5215 207.761C91.8231 207.95 92.07 208.22 92.2623 208.572C92.4545 208.92 92.5506 209.372 92.5506 209.929V215H91.0989V213.956H91.0392C90.9431 214.148 90.7989 214.337 90.6067 214.523C90.4145 214.708 90.1676 214.862 89.8659 214.985C89.5643 215.108 89.2031 215.169 88.7821 215.169ZM89.1053 213.976C89.5163 213.976 89.8676 213.895 90.1593 213.732C90.4542 213.57 90.678 213.358 90.8304 213.096C90.9862 212.831 91.0641 212.547 91.0641 212.246V211.261C91.0111 211.314 90.9083 211.364 90.7559 211.411C90.6067 211.454 90.436 211.492 90.2438 211.525C90.0516 211.555 89.8643 211.583 89.682 211.609C89.4997 211.633 89.3472 211.652 89.2246 211.669C88.9363 211.705 88.6728 211.767 88.4341 211.853C88.1988 211.939 88.0099 212.063 87.8674 212.226C87.7282 212.385 87.6586 212.597 87.6586 212.862C87.6586 213.23 87.7944 213.509 88.0662 213.697C88.338 213.883 88.6844 213.976 89.1053 213.976ZM94.5305 215V207.364H95.9673V208.577H96.0469C96.1861 208.166 96.4313 207.843 96.7827 207.607C97.1373 207.369 97.5384 207.249 97.9858 207.249C98.0786 207.249 98.188 207.253 98.3139 207.259C98.4432 207.266 98.5443 207.274 98.6172 207.284V208.706C98.5575 208.689 98.4515 208.671 98.299 208.651C98.1465 208.628 97.9941 208.616 97.8416 208.616C97.4903 208.616 97.1771 208.691 96.902 208.84C96.6302 208.986 96.4148 209.19 96.2557 209.452C96.0966 209.71 96.017 210.005 96.017 210.337V215H94.5305ZM103.609 217.864V207.364H105.06V208.602H105.185C105.271 208.442 105.395 208.259 105.558 208.05C105.72 207.841 105.945 207.659 106.234 207.503C106.522 207.344 106.903 207.264 107.377 207.264C107.994 207.264 108.544 207.42 109.028 207.732C109.512 208.043 109.891 208.492 110.166 209.079C110.445 209.665 110.584 210.371 110.584 211.197C110.584 212.022 110.446 212.73 110.171 213.32C109.896 213.906 109.518 214.359 109.038 214.677C108.557 214.992 108.009 215.149 107.392 215.149C106.928 215.149 106.549 215.071 106.254 214.915C105.962 214.76 105.733 214.577 105.567 214.369C105.402 214.16 105.274 213.974 105.185 213.812H105.095V217.864H103.609ZM105.065 211.182C105.065 211.719 105.143 212.189 105.299 212.594C105.455 212.998 105.68 213.315 105.975 213.543C106.27 213.769 106.631 213.881 107.059 213.881C107.503 213.881 107.874 213.764 108.173 213.528C108.471 213.29 108.696 212.967 108.849 212.559C109.004 212.151 109.082 211.692 109.082 211.182C109.082 210.678 109.006 210.226 108.854 209.825C108.705 209.424 108.479 209.107 108.178 208.875C107.879 208.643 107.506 208.527 107.059 208.527C106.628 208.527 106.263 208.638 105.965 208.86C105.67 209.082 105.446 209.392 105.294 209.79C105.142 210.187 105.065 210.652 105.065 211.182ZM115.466 215.154C114.75 215.154 114.125 214.99 113.592 214.662C113.058 214.334 112.644 213.875 112.349 213.285C112.054 212.695 111.906 212.005 111.906 211.217C111.906 210.424 112.054 209.732 112.349 209.138C112.644 208.545 113.058 208.085 113.592 207.756C114.125 207.428 114.75 207.264 115.466 207.264C116.182 207.264 116.807 207.428 117.34 207.756C117.874 208.085 118.288 208.545 118.583 209.138C118.878 209.732 119.026 210.424 119.026 211.217C119.026 212.005 118.878 212.695 118.583 213.285C118.288 213.875 117.874 214.334 117.34 214.662C116.807 214.99 116.182 215.154 115.466 215.154ZM115.471 213.906C115.935 213.906 116.319 213.784 116.624 213.538C116.929 213.293 117.155 212.967 117.3 212.559C117.45 212.151 117.524 211.702 117.524 211.212C117.524 210.724 117.45 210.277 117.3 209.869C117.155 209.458 116.929 209.129 116.624 208.88C116.319 208.631 115.935 208.507 115.471 208.507C115.004 208.507 114.616 208.631 114.308 208.88C114.003 209.129 113.776 209.458 113.626 209.869C113.481 210.277 113.408 210.724 113.408 211.212C113.408 211.702 113.481 212.151 113.626 212.559C113.776 212.967 114.003 213.293 114.308 213.538C114.616 213.784 115.004 213.906 115.471 213.906ZM120.685 215V207.364H122.122V208.577H122.201C122.34 208.166 122.586 207.843 122.937 207.607C123.292 207.369 123.693 207.249 124.14 207.249C124.233 207.249 124.342 207.253 124.468 207.259C124.597 207.266 124.699 207.274 124.771 207.284V208.706C124.712 208.689 124.606 208.671 124.453 208.651C124.301 208.628 124.148 208.616 123.996 208.616C123.645 208.616 123.331 208.691 123.056 208.84C122.785 208.986 122.569 209.19 122.41 209.452C122.251 209.71 122.171 210.005 122.171 210.337V215H120.685ZM133.288 215.139C132.605 215.139 131.995 215.022 131.458 214.786C130.925 214.551 130.502 214.224 130.191 213.807C129.882 213.386 129.717 212.899 129.693 212.345H131.254C131.274 212.647 131.375 212.909 131.558 213.131C131.743 213.349 131.985 213.518 132.284 213.638C132.582 213.757 132.913 213.817 133.278 213.817C133.679 213.817 134.034 213.747 134.342 213.608C134.653 213.469 134.897 213.275 135.073 213.026C135.248 212.774 135.336 212.484 135.336 212.156C135.336 211.815 135.248 211.515 135.073 211.256C134.9 210.995 134.647 210.789 134.312 210.64C133.981 210.491 133.579 210.416 133.109 210.416H132.249V209.163H133.109C133.487 209.163 133.818 209.095 134.103 208.96C134.392 208.824 134.617 208.635 134.779 208.393C134.942 208.147 135.023 207.861 135.023 207.533C135.023 207.218 134.952 206.944 134.809 206.712C134.67 206.477 134.471 206.293 134.213 206.161C133.957 206.028 133.656 205.962 133.308 205.962C132.976 205.962 132.666 206.023 132.378 206.146C132.093 206.265 131.861 206.437 131.682 206.663C131.503 206.885 131.407 207.152 131.394 207.463H129.907C129.924 206.913 130.086 206.429 130.394 206.011C130.706 205.594 131.117 205.267 131.627 205.032C132.138 204.797 132.704 204.679 133.328 204.679C133.981 204.679 134.544 204.807 135.018 205.062C135.495 205.314 135.863 205.65 136.122 206.071C136.383 206.492 136.513 206.953 136.509 207.453C136.513 208.023 136.354 208.507 136.032 208.905C135.714 209.303 135.29 209.569 134.759 209.705V209.785C135.436 209.888 135.959 210.156 136.33 210.59C136.705 211.024 136.891 211.563 136.887 212.206C136.891 212.766 136.735 213.268 136.42 213.712C136.108 214.156 135.682 214.506 135.142 214.761C134.602 215.013 133.984 215.139 133.288 215.139ZM142.311 215.169C141.526 215.166 140.855 214.959 140.298 214.548C139.741 214.137 139.315 213.538 139.02 212.753C138.725 211.967 138.578 211.021 138.578 209.914C138.578 208.81 138.725 207.867 139.02 207.085C139.318 206.303 139.746 205.706 140.303 205.295C140.863 204.884 141.532 204.679 142.311 204.679C143.09 204.679 143.758 204.886 144.315 205.3C144.872 205.711 145.298 206.308 145.593 207.09C145.891 207.869 146.04 208.81 146.04 209.914C146.04 211.024 145.892 211.972 145.597 212.758C145.302 213.54 144.877 214.138 144.32 214.553C143.763 214.964 143.093 215.169 142.311 215.169ZM142.311 213.842C143.001 213.842 143.539 213.505 143.927 212.832C144.318 212.16 144.514 211.187 144.514 209.914C144.514 209.069 144.424 208.355 144.245 207.771C144.07 207.185 143.816 206.741 143.485 206.439C143.156 206.134 142.765 205.982 142.311 205.982C141.625 205.982 141.087 206.32 140.695 206.996C140.304 207.672 140.107 208.645 140.104 209.914C140.104 210.763 140.192 211.48 140.367 212.067C140.546 212.65 140.8 213.093 141.128 213.394C141.456 213.692 141.851 213.842 142.311 213.842ZM154.387 215.149C153.771 215.149 153.221 214.992 152.737 214.677C152.256 214.359 151.878 213.906 151.603 213.32C151.331 212.73 151.195 212.022 151.195 211.197C151.195 210.371 151.333 209.665 151.608 209.079C151.887 208.492 152.268 208.043 152.752 207.732C153.235 207.42 153.784 207.264 154.397 207.264C154.871 207.264 155.252 207.344 155.541 207.503C155.832 207.659 156.058 207.841 156.217 208.05C156.379 208.259 156.505 208.442 156.595 208.602H156.684V204.818H158.171V215H156.719V213.812H156.595C156.505 213.974 156.376 214.16 156.207 214.369C156.041 214.577 155.812 214.76 155.521 214.915C155.229 215.071 154.851 215.149 154.387 215.149ZM154.715 213.881C155.143 213.881 155.504 213.769 155.799 213.543C156.097 213.315 156.323 212.998 156.475 212.594C156.631 212.189 156.709 211.719 156.709 211.182C156.709 210.652 156.633 210.187 156.48 209.79C156.328 209.392 156.104 209.082 155.809 208.86C155.514 208.638 155.15 208.527 154.715 208.527C154.268 208.527 153.895 208.643 153.597 208.875C153.298 209.107 153.073 209.424 152.921 209.825C152.771 210.226 152.697 210.678 152.697 211.182C152.697 211.692 152.773 212.151 152.926 212.559C153.078 212.967 153.303 213.29 153.602 213.528C153.903 213.764 154.275 213.881 154.715 213.881ZM160.292 215V207.364H161.779V215H160.292ZM161.043 206.185C160.784 206.185 160.562 206.099 160.377 205.927C160.194 205.751 160.103 205.542 160.103 205.3C160.103 205.055 160.194 204.846 160.377 204.674C160.562 204.498 160.784 204.411 161.043 204.411C161.301 204.411 161.522 204.498 161.704 204.674C161.89 204.846 161.983 205.055 161.983 205.3C161.983 205.542 161.89 205.751 161.704 205.927C161.522 206.099 161.301 206.185 161.043 206.185ZM166.001 215.169C165.517 215.169 165.079 215.08 164.688 214.901C164.297 214.718 163.987 214.455 163.759 214.11C163.533 213.765 163.421 213.343 163.421 212.842C163.421 212.411 163.503 212.057 163.669 211.778C163.835 211.5 164.059 211.28 164.34 211.117C164.622 210.955 164.937 210.832 165.285 210.749C165.633 210.666 165.988 210.603 166.349 210.56C166.806 210.507 167.177 210.464 167.463 210.431C167.748 210.395 167.955 210.337 168.084 210.257C168.213 210.178 168.278 210.048 168.278 209.869V209.835C168.278 209.4 168.155 209.064 167.91 208.825C167.668 208.587 167.307 208.467 166.826 208.467C166.326 208.467 165.931 208.578 165.643 208.8C165.358 209.019 165.161 209.263 165.051 209.531L163.654 209.213C163.82 208.749 164.062 208.375 164.38 208.089C164.702 207.801 165.071 207.592 165.489 207.463C165.906 207.33 166.346 207.264 166.806 207.264C167.111 207.264 167.434 207.301 167.776 207.374C168.12 207.443 168.442 207.572 168.74 207.761C169.042 207.95 169.289 208.22 169.481 208.572C169.673 208.92 169.769 209.372 169.769 209.929V215H168.318V213.956H168.258C168.162 214.148 168.018 214.337 167.825 214.523C167.633 214.708 167.386 214.862 167.085 214.985C166.783 215.108 166.422 215.169 166.001 215.169ZM166.324 213.976C166.735 213.976 167.086 213.895 167.378 213.732C167.673 213.57 167.897 213.358 168.049 213.096C168.205 212.831 168.283 212.547 168.283 212.246V211.261C168.23 211.314 168.127 211.364 167.975 211.411C167.825 211.454 167.655 211.492 167.463 211.525C167.27 211.555 167.083 211.583 166.901 211.609C166.718 211.633 166.566 211.652 166.443 211.669C166.155 211.705 165.892 211.767 165.653 211.853C165.418 211.939 165.229 212.063 165.086 212.226C164.947 212.385 164.877 212.597 164.877 212.862C164.877 213.23 165.013 213.509 165.285 213.697C165.557 213.883 165.903 213.976 166.324 213.976ZM177.472 209.228L176.124 209.467C176.068 209.294 175.978 209.13 175.856 208.974C175.737 208.819 175.574 208.691 175.369 208.592C175.163 208.492 174.906 208.442 174.598 208.442C174.177 208.442 173.826 208.537 173.544 208.726C173.262 208.911 173.121 209.152 173.121 209.447C173.121 209.702 173.216 209.907 173.405 210.063C173.594 210.219 173.899 210.347 174.32 210.446L175.533 210.724C176.235 210.887 176.759 211.137 177.104 211.475C177.448 211.813 177.621 212.252 177.621 212.793C177.621 213.25 177.488 213.658 177.223 214.016C176.961 214.37 176.595 214.649 176.124 214.851C175.657 215.053 175.115 215.154 174.499 215.154C173.643 215.154 172.946 214.972 172.406 214.607C171.865 214.239 171.534 213.717 171.411 213.041L172.848 212.822C172.938 213.197 173.121 213.48 173.4 213.673C173.678 213.862 174.041 213.956 174.489 213.956C174.976 213.956 175.365 213.855 175.657 213.653C175.949 213.447 176.094 213.197 176.094 212.902C176.094 212.663 176.005 212.463 175.826 212.3C175.65 212.138 175.38 212.015 175.016 211.933L173.723 211.649C173.01 211.487 172.483 211.228 172.142 210.874C171.804 210.519 171.635 210.07 171.635 209.526C171.635 209.076 171.761 208.681 172.013 208.343C172.265 208.005 172.613 207.741 173.057 207.553C173.501 207.36 174.01 207.264 174.583 207.264C175.408 207.264 176.058 207.443 176.532 207.801C177.006 208.156 177.319 208.631 177.472 209.228Z" fill="#414651"/>
<g clip-path="url(#clip0_208_7495)">
<path d="M221.004 215V204.818H227.626V206.364H222.849V209.129H227.283V210.675H222.849V213.454H227.666V215H221.004ZM235.464 209.382L233.824 209.561C233.777 209.395 233.696 209.24 233.58 209.094C233.467 208.948 233.315 208.83 233.123 208.741C232.93 208.651 232.695 208.607 232.417 208.607C232.042 208.607 231.727 208.688 231.472 208.85C231.22 209.013 231.096 209.223 231.099 209.482C231.096 209.704 231.177 209.884 231.343 210.023C231.512 210.163 231.79 210.277 232.178 210.366L233.48 210.645C234.203 210.801 234.74 211.048 235.091 211.386C235.446 211.724 235.625 212.166 235.628 212.713C235.625 213.194 235.484 213.618 235.206 213.986C234.931 214.35 234.548 214.635 234.057 214.841C233.567 215.046 233.003 215.149 232.367 215.149C231.432 215.149 230.68 214.954 230.11 214.562C229.54 214.168 229.2 213.62 229.091 212.917L230.846 212.748C230.925 213.093 231.094 213.353 231.353 213.528C231.611 213.704 231.948 213.792 232.362 213.792C232.789 213.792 233.132 213.704 233.391 213.528C233.653 213.353 233.784 213.136 233.784 212.877C233.784 212.658 233.699 212.478 233.53 212.335C233.364 212.193 233.106 212.083 232.755 212.007L231.452 211.734C230.72 211.581 230.178 211.324 229.826 210.963C229.475 210.598 229.301 210.138 229.304 209.581C229.301 209.11 229.429 208.703 229.687 208.358C229.949 208.01 230.312 207.741 230.776 207.553C231.243 207.36 231.782 207.264 232.392 207.264C233.287 207.264 233.991 207.455 234.505 207.836C235.022 208.217 235.342 208.732 235.464 209.382ZM242.208 217.864V213.797H242.134C242.041 213.982 241.906 214.18 241.731 214.388C241.555 214.594 241.323 214.77 241.035 214.915C240.746 215.061 240.384 215.134 239.946 215.134C239.346 215.134 238.809 214.98 238.335 214.672C237.861 214.364 237.487 213.916 237.212 213.33C236.937 212.743 236.799 212.03 236.799 211.192C236.799 210.343 236.938 209.627 237.217 209.044C237.498 208.457 237.878 208.015 238.355 207.717C238.832 207.415 239.364 207.264 239.951 207.264C240.398 207.264 240.766 207.34 241.055 207.493C241.343 207.642 241.572 207.823 241.741 208.035C241.91 208.244 242.041 208.441 242.134 208.626H242.243V207.364H244.013V217.864H242.208ZM240.448 213.658C240.829 213.658 241.154 213.555 241.423 213.349C241.691 213.141 241.895 212.851 242.034 212.479C242.173 212.108 242.243 211.676 242.243 211.182C242.243 210.688 242.173 210.259 242.034 209.894C241.898 209.53 241.696 209.246 241.428 209.044C241.162 208.842 240.836 208.741 240.448 208.741C240.047 208.741 239.712 208.845 239.444 209.054C239.175 209.263 238.973 209.551 238.837 209.919C238.701 210.287 238.634 210.708 238.634 211.182C238.634 211.659 238.701 212.085 238.837 212.46C238.977 212.831 239.18 213.124 239.449 213.339C239.721 213.552 240.054 213.658 240.448 213.658ZM250.729 211.788V207.364H252.529V215H250.784V213.643H250.705C250.532 214.07 250.249 214.42 249.854 214.692C249.463 214.964 248.981 215.099 248.408 215.099C247.907 215.099 247.465 214.988 247.08 214.766C246.699 214.541 246.401 214.214 246.185 213.787C245.97 213.356 245.862 212.836 245.862 212.226V207.364H247.662V211.947C247.662 212.431 247.795 212.816 248.06 213.101C248.325 213.386 248.673 213.528 249.104 213.528C249.369 213.528 249.626 213.464 249.874 213.335C250.123 213.205 250.327 213.013 250.486 212.758C250.648 212.499 250.729 212.176 250.729 211.788ZM257.76 215.149C256.995 215.149 256.334 214.99 255.777 214.672C255.223 214.35 254.797 213.896 254.499 213.31C254.201 212.72 254.052 212.025 254.052 211.227C254.052 210.441 254.201 209.752 254.499 209.158C254.801 208.562 255.222 208.098 255.762 207.766C256.302 207.432 256.937 207.264 257.666 207.264C258.137 207.264 258.581 207.34 258.998 207.493C259.419 207.642 259.791 207.874 260.112 208.189C260.437 208.504 260.692 208.905 260.878 209.392C261.063 209.876 261.156 210.453 261.156 211.122V211.674H254.897V210.461H259.431C259.428 210.116 259.353 209.81 259.207 209.541C259.061 209.269 258.858 209.056 258.596 208.9C258.337 208.744 258.036 208.666 257.691 208.666C257.323 208.666 257 208.756 256.721 208.935C256.443 209.11 256.226 209.342 256.07 209.631C255.918 209.916 255.84 210.229 255.836 210.57V211.629C255.836 212.073 255.918 212.455 256.08 212.773C256.242 213.088 256.47 213.33 256.761 213.499C257.053 213.664 257.394 213.747 257.785 213.747C258.047 213.747 258.284 213.711 258.496 213.638C258.708 213.562 258.892 213.451 259.048 213.305C259.204 213.159 259.322 212.978 259.401 212.763L261.081 212.952C260.975 213.396 260.773 213.784 260.475 214.115C260.18 214.443 259.802 214.698 259.341 214.881C258.881 215.06 258.354 215.149 257.76 215.149ZM266.01 215.149C265.247 215.149 264.593 214.982 264.046 214.647C263.502 214.312 263.083 213.85 262.788 213.26C262.496 212.667 262.35 211.984 262.35 211.212C262.35 210.436 262.5 209.752 262.798 209.158C263.096 208.562 263.517 208.098 264.061 207.766C264.608 207.432 265.254 207.264 266 207.264C266.619 207.264 267.168 207.379 267.645 207.607C268.126 207.833 268.509 208.152 268.794 208.567C269.079 208.978 269.241 209.458 269.281 210.009H267.561C267.491 209.641 267.325 209.334 267.064 209.089C266.805 208.84 266.459 208.716 266.025 208.716C265.657 208.716 265.333 208.815 265.055 209.014C264.777 209.21 264.56 209.491 264.404 209.859C264.251 210.227 264.175 210.668 264.175 211.182C264.175 211.702 264.251 212.15 264.404 212.524C264.556 212.895 264.77 213.182 265.045 213.384C265.324 213.583 265.65 213.683 266.025 213.683C266.29 213.683 266.527 213.633 266.735 213.533C266.948 213.431 267.125 213.283 267.267 213.091C267.41 212.899 267.508 212.665 267.561 212.39H269.281C269.238 212.93 269.079 213.409 268.804 213.827C268.529 214.241 268.154 214.566 267.68 214.801C267.206 215.033 266.649 215.149 266.01 215.149ZM274.139 215.149C273.374 215.149 272.713 214.99 272.156 214.672C271.602 214.35 271.176 213.896 270.878 213.31C270.58 212.72 270.431 212.025 270.431 211.227C270.431 210.441 270.58 209.752 270.878 209.158C271.18 208.562 271.601 208.098 272.141 207.766C272.681 207.432 273.316 207.264 274.045 207.264C274.516 207.264 274.96 207.34 275.377 207.493C275.798 207.642 276.169 207.874 276.491 208.189C276.816 208.504 277.071 208.905 277.257 209.392C277.442 209.876 277.535 210.453 277.535 211.122V211.674H271.276V210.461H275.81C275.807 210.116 275.732 209.81 275.586 209.541C275.44 209.269 275.236 209.056 274.975 208.9C274.716 208.744 274.414 208.666 274.07 208.666C273.702 208.666 273.379 208.756 273.1 208.935C272.822 209.11 272.605 209.342 272.449 209.631C272.297 209.916 272.219 210.229 272.215 210.57V211.629C272.215 212.073 272.297 212.455 272.459 212.773C272.621 213.088 272.848 213.33 273.14 213.499C273.432 213.664 273.773 213.747 274.164 213.747C274.426 213.747 274.663 213.711 274.875 213.638C275.087 213.562 275.271 213.451 275.427 213.305C275.583 213.159 275.7 212.978 275.78 212.763L277.46 212.952C277.354 213.396 277.152 213.784 276.854 214.115C276.559 214.443 276.181 214.698 275.72 214.881C275.26 215.06 274.733 215.149 274.139 215.149ZM283.925 211.788V207.364H285.724V215H283.979V213.643H283.9C283.728 214.07 283.444 214.42 283.05 214.692C282.659 214.964 282.176 215.099 281.603 215.099C281.103 215.099 280.66 214.988 280.276 214.766C279.894 214.541 279.596 214.214 279.381 213.787C279.165 213.356 279.058 212.836 279.058 212.226V207.364H280.857V211.947C280.857 212.431 280.99 212.816 281.255 213.101C281.52 213.386 281.868 213.528 282.299 213.528C282.564 213.528 282.821 213.464 283.07 213.335C283.318 213.205 283.522 213.013 283.681 212.758C283.844 212.499 283.925 212.176 283.925 211.788ZM293.245 215.154C292.761 215.154 292.325 215.068 291.938 214.896C291.553 214.72 291.248 214.461 291.023 214.12C290.801 213.779 290.69 213.358 290.69 212.857C290.69 212.426 290.769 212.07 290.928 211.788C291.088 211.507 291.305 211.281 291.58 211.112C291.855 210.943 292.165 210.816 292.509 210.729C292.857 210.64 293.217 210.575 293.588 210.536C294.036 210.489 294.399 210.448 294.677 210.411C294.955 210.371 295.158 210.312 295.284 210.232C295.413 210.149 295.477 210.022 295.477 209.849V209.82C295.477 209.445 295.366 209.155 295.144 208.95C294.922 208.744 294.602 208.641 294.185 208.641C293.744 208.641 293.394 208.737 293.136 208.93C292.881 209.122 292.708 209.349 292.619 209.611L290.938 209.372C291.071 208.908 291.29 208.52 291.595 208.209C291.9 207.894 292.272 207.659 292.713 207.503C293.154 207.344 293.641 207.264 294.175 207.264C294.543 207.264 294.909 207.307 295.274 207.393C295.638 207.48 295.971 207.622 296.273 207.821C296.575 208.017 296.816 208.283 296.999 208.621C297.184 208.96 297.277 209.382 297.277 209.889V215H295.547V213.951H295.487C295.378 214.163 295.224 214.362 295.025 214.548C294.829 214.73 294.583 214.877 294.284 214.99C293.989 215.099 293.643 215.154 293.245 215.154ZM293.713 213.832C294.074 213.832 294.387 213.76 294.652 213.618C294.917 213.472 295.121 213.28 295.264 213.041C295.41 212.803 295.482 212.542 295.482 212.261V211.361C295.426 211.407 295.33 211.45 295.194 211.49C295.061 211.53 294.912 211.565 294.747 211.594C294.581 211.624 294.417 211.651 294.254 211.674C294.092 211.697 293.951 211.717 293.832 211.734C293.563 211.77 293.323 211.83 293.111 211.913C292.899 211.996 292.731 212.112 292.609 212.261C292.486 212.406 292.425 212.595 292.425 212.827C292.425 213.159 292.546 213.409 292.788 213.578C293.03 213.747 293.338 213.832 293.713 213.832ZM308.595 209.382L306.954 209.561C306.908 209.395 306.827 209.24 306.711 209.094C306.598 208.948 306.446 208.83 306.253 208.741C306.061 208.651 305.826 208.607 305.547 208.607C305.173 208.607 304.858 208.688 304.603 208.85C304.351 209.013 304.227 209.223 304.23 209.482C304.227 209.704 304.308 209.884 304.474 210.023C304.643 210.163 304.921 210.277 305.309 210.366L306.611 210.645C307.334 210.801 307.871 211.048 308.222 211.386C308.577 211.724 308.756 212.166 308.759 212.713C308.756 213.194 308.615 213.618 308.336 213.986C308.061 214.35 307.679 214.635 307.188 214.841C306.698 215.046 306.134 215.149 305.498 215.149C304.563 215.149 303.811 214.954 303.241 214.562C302.671 214.168 302.331 213.62 302.221 212.917L303.976 212.748C304.056 213.093 304.225 213.353 304.483 213.528C304.742 213.704 305.078 213.792 305.493 213.792C305.92 213.792 306.263 213.704 306.522 213.528C306.784 213.353 306.915 213.136 306.915 212.877C306.915 212.658 306.83 212.478 306.661 212.335C306.495 212.193 306.237 212.083 305.885 212.007L304.583 211.734C303.85 211.581 303.309 211.324 302.957 210.963C302.606 210.598 302.432 210.138 302.435 209.581C302.432 209.11 302.559 208.703 302.818 208.358C303.08 208.01 303.443 207.741 303.907 207.553C304.374 207.36 304.913 207.264 305.523 207.264C306.417 207.264 307.122 207.455 307.635 207.836C308.153 208.217 308.472 208.732 308.595 209.382ZM313.624 215.149C312.858 215.149 312.197 214.99 311.64 214.672C311.087 214.35 310.661 213.896 310.362 213.31C310.064 212.72 309.915 212.025 309.915 211.227C309.915 210.441 310.064 209.752 310.362 209.158C310.664 208.562 311.085 208.098 311.625 207.766C312.165 207.432 312.8 207.264 313.529 207.264C314 207.264 314.444 207.34 314.862 207.493C315.283 207.642 315.654 207.874 315.975 208.189C316.3 208.504 316.555 208.905 316.741 209.392C316.927 209.876 317.019 210.453 317.019 211.122V211.674H310.76V210.461H315.294C315.291 210.116 315.216 209.81 315.07 209.541C314.925 209.269 314.721 209.056 314.459 208.9C314.2 208.744 313.899 208.666 313.554 208.666C313.186 208.666 312.863 208.756 312.585 208.935C312.306 209.11 312.089 209.342 311.933 209.631C311.781 209.916 311.703 210.229 311.7 210.57V211.629C311.7 212.073 311.781 212.455 311.943 212.773C312.106 213.088 312.333 213.33 312.624 213.499C312.916 213.664 313.258 213.747 313.649 213.747C313.91 213.747 314.147 213.711 314.36 213.638C314.572 213.562 314.756 213.451 314.911 213.305C315.067 213.159 315.185 212.978 315.264 212.763L316.945 212.952C316.839 213.396 316.637 213.784 316.338 214.115C316.043 214.443 315.665 214.698 315.205 214.881C314.744 215.06 314.217 215.149 313.624 215.149ZM320.342 210.526V215H318.542V207.364H320.262V208.661H320.352C320.527 208.234 320.807 207.894 321.192 207.642C321.58 207.39 322.058 207.264 322.629 207.264C323.156 207.264 323.615 207.377 324.006 207.602C324.4 207.828 324.705 208.154 324.92 208.582C325.139 209.009 325.247 209.528 325.244 210.138V215H323.444V210.416C323.444 209.906 323.311 209.506 323.046 209.218C322.784 208.93 322.421 208.786 321.957 208.786C321.643 208.786 321.362 208.855 321.117 208.994C320.875 209.13 320.685 209.327 320.545 209.586C320.41 209.844 320.342 210.158 320.342 210.526ZM328.873 210.526V215H327.073V204.818H328.833V208.661H328.923C329.102 208.23 329.378 207.891 329.753 207.642C330.131 207.39 330.611 207.264 331.195 207.264C331.725 207.264 332.187 207.375 332.582 207.597C332.976 207.819 333.281 208.144 333.496 208.572C333.715 208.999 333.825 209.521 333.825 210.138V215H332.025V210.416C332.025 209.902 331.892 209.503 331.627 209.218C331.365 208.93 330.997 208.786 330.523 208.786C330.205 208.786 329.92 208.855 329.668 208.994C329.42 209.13 329.224 209.327 329.082 209.586C328.942 209.844 328.873 210.158 328.873 210.526ZM337.857 215.154C337.373 215.154 336.937 215.068 336.549 214.896C336.165 214.72 335.86 214.461 335.634 214.12C335.412 213.779 335.301 213.358 335.301 212.857C335.301 212.426 335.381 212.07 335.54 211.788C335.699 211.507 335.916 211.281 336.191 211.112C336.466 210.943 336.776 210.816 337.121 210.729C337.469 210.64 337.828 210.575 338.2 210.536C338.647 210.489 339.01 210.448 339.288 210.411C339.567 210.371 339.769 210.312 339.895 210.232C340.024 210.149 340.089 210.022 340.089 209.849V209.82C340.089 209.445 339.978 209.155 339.756 208.95C339.534 208.744 339.214 208.641 338.796 208.641C338.355 208.641 338.006 208.737 337.747 208.93C337.492 209.122 337.32 209.349 337.23 209.611L335.55 209.372C335.682 208.908 335.901 208.52 336.206 208.209C336.511 207.894 336.884 207.659 337.325 207.503C337.765 207.344 338.253 207.264 338.786 207.264C339.154 207.264 339.52 207.307 339.885 207.393C340.25 207.48 340.583 207.622 340.884 207.821C341.186 208.017 341.428 208.283 341.61 208.621C341.796 208.96 341.888 209.382 341.888 209.889V215H340.158V213.951H340.099C339.989 214.163 339.835 214.362 339.636 214.548C339.441 214.73 339.194 214.877 338.896 214.99C338.601 215.099 338.254 215.154 337.857 215.154ZM338.324 213.832C338.685 213.832 338.998 213.76 339.263 213.618C339.529 213.472 339.732 213.28 339.875 213.041C340.021 212.803 340.094 212.542 340.094 212.261V211.361C340.037 211.407 339.941 211.45 339.805 211.49C339.673 211.53 339.524 211.565 339.358 211.594C339.192 211.624 339.028 211.651 338.866 211.674C338.703 211.697 338.563 211.717 338.443 211.734C338.175 211.77 337.934 211.83 337.722 211.913C337.51 211.996 337.343 212.112 337.22 212.261C337.098 212.406 337.036 212.595 337.036 212.827C337.036 213.159 337.157 213.409 337.399 213.578C337.641 213.747 337.949 213.832 338.324 213.832ZM345.418 212.007V211.878C345.422 211.278 345.478 210.801 345.587 210.446C345.7 210.091 345.859 209.806 346.065 209.591C346.27 209.372 346.52 209.172 346.815 208.989C347.018 208.863 347.198 208.726 347.357 208.577C347.52 208.424 347.647 208.255 347.74 208.07C347.833 207.881 347.879 207.67 347.879 207.438C347.879 207.176 347.818 206.949 347.695 206.757C347.573 206.565 347.407 206.416 347.198 206.31C346.993 206.204 346.762 206.151 346.507 206.151C346.272 206.151 346.048 206.202 345.836 206.305C345.627 206.404 345.453 206.557 345.314 206.762C345.178 206.964 345.102 207.221 345.085 207.533H343.315C343.332 206.903 343.484 206.376 343.773 205.952C344.064 205.527 344.449 205.209 344.926 204.997C345.407 204.785 345.937 204.679 346.517 204.679C347.15 204.679 347.707 204.79 348.188 205.012C348.671 205.234 349.048 205.551 349.316 205.962C349.588 206.369 349.724 206.853 349.724 207.413C349.724 207.791 349.662 208.129 349.54 208.428C349.42 208.726 349.25 208.991 349.028 209.223C348.806 209.455 348.542 209.662 348.237 209.844C347.969 210.01 347.748 210.183 347.576 210.362C347.407 210.54 347.281 210.751 347.198 210.993C347.119 211.232 347.077 211.527 347.074 211.878V212.007H345.418ZM346.283 215.109C345.985 215.109 345.728 215.003 345.513 214.791C345.297 214.579 345.19 214.321 345.19 214.016C345.19 213.717 345.297 213.462 345.513 213.25C345.728 213.038 345.985 212.932 346.283 212.932C346.578 212.932 346.834 213.038 347.049 213.25C347.268 213.462 347.377 213.717 347.377 214.016C347.377 214.218 347.326 214.402 347.223 214.567C347.124 214.733 346.991 214.866 346.825 214.965C346.663 215.061 346.482 215.109 346.283 215.109Z" fill="#C63D81"/>
</g>
</g>
<defs>
<filter id="filter0_d_208_7495" x="17" y="41" width="336" height="48" filterUnits="userSpaceOnUse" color-interpolation-filters="sRGB">
<feFlood flood-opacity="0" result="BackgroundImageFix"/>
<feColorMatrix in="SourceAlpha" type="matrix" values="0 0 0 0 0 0 0 0 0 0 0 0 0 0 0 0 0 0 127 0" result="hardAlpha"/>
<feOffset dy="1"/>
<feGaussianBlur stdDeviation="1"/>
<feColorMatrix type="matrix" values="0 0 0 0 0.0392157 0 0 0 0 0.0496732 0 0 0 0 0.0705882 0 0 0 0.05 0"/>
<feBlend mode="normal" in2="BackgroundImageFix" result="effect1_dropShadow_208_7495"/>
<feBlend mode="normal" in="SourceGraphic" in2="effect1_dropShadow_208_7495" result="shape"/>
</filter>
<filter id="filter1_d_208_7495" x="17" y="131" width="336" height="48" filterUnits="userSpaceOnUse" color-interpolation-filters="sRGB">
<feFlood flood-opacity="0" result="BackgroundImageFix"/>
<feColorMatrix in="SourceAlpha" type="matrix" values="0 0 0 0 0 0 0 0 0 0 0 0 0 0 0 0 0 0 127 0" result="hardAlpha"/>
<feOffset dy="1"/>
<feGaussianBlur stdDeviation="1"/>
<feColorMatrix type="matrix" values="0 0 0 0 0.0392157 0 0 0 0 0.0496732 0 0 0 0 0.0705882 0 0 0 0.05 0"/>
<feBlend mode="normal" in2="BackgroundImageFix" result="effect1_dropShadow_208_7495"/>
<feBlend mode="normal" in="SourceGraphic" in2="effect1_dropShadow_208_7495" result="shape"/>
</filter>
<clipPath id="clip0_208_7495">
<rect width="131" height="20" fill="white" transform="translate(220 200)"/>
</clipPath>
</defs>
</svg>
