<svg width="348" height="241" viewBox="0 0 348 241" fill="none" xmlns="http://www.w3.org/2000/svg">
<rect x="0.5" y="0.5" width="339" height="141" rx="16" fill="white"/>
<rect x="0.5" y="0.5" width="339" height="141" rx="16" stroke="#DADADA"/>
<path d="M22.5 32.5C28.0228 32.5 32.5 28.0228 32.5 22.5C32.5 16.9772 28.0228 12.5 22.5 12.5C16.9772 12.5 12.5 16.9772 12.5 22.5C12.5 28.0228 16.9772 32.5 22.5 32.5Z" fill="#E5E7EB"/>
<path d="M115.5 17.5H45.5C42.7386 17.5 40.5 19.7386 40.5 22.5C40.5 25.2614 42.7386 27.5 45.5 27.5H115.5C118.261 27.5 120.5 25.2614 120.5 22.5C120.5 19.7386 118.261 17.5 115.5 17.5Z" fill="#E5E7EB"/>
<path d="M22.3239 55.4091C22.3239 56.483 22.13 57.411 21.7422 58.1932C21.3544 58.9754 20.8224 59.5786 20.1463 60.0028C19.4702 60.4271 18.6979 60.6392 17.8295 60.6392C16.9612 60.6392 16.1889 60.4271 15.5128 60.0028C14.8366 59.5786 14.3047 58.9754 13.9169 58.1932C13.5291 57.411 13.3352 56.483 13.3352 55.4091C13.3352 54.3352 13.5291 53.4072 13.9169 52.625C14.3047 51.8428 14.8366 51.2396 15.5128 50.8153C16.1889 50.3911 16.9612 50.179 17.8295 50.179C18.6979 50.179 19.4702 50.3911 20.1463 50.8153C20.8224 51.2396 21.3544 51.8428 21.7422 52.625C22.13 53.4072 22.3239 54.3352 22.3239 55.4091ZM21.1307 55.4091C21.1307 54.5275 20.9832 53.7834 20.6882 53.1768C20.3965 52.5703 20.0005 52.1113 19.5 51.7997C19.0028 51.4882 18.446 51.3324 17.8295 51.3324C17.2131 51.3324 16.6546 51.4882 16.1541 51.7997C15.657 52.1113 15.2609 52.5703 14.9659 53.1768C14.6742 53.7834 14.5284 54.5275 14.5284 55.4091C14.5284 56.2907 14.6742 57.0348 14.9659 57.6413C15.2609 58.2479 15.657 58.7069 16.1541 59.0185C16.6546 59.33 17.2131 59.4858 17.8295 59.4858C18.446 59.4858 19.0028 59.33 19.5 59.0185C20.0005 58.7069 20.3965 58.2479 20.6882 57.6413C20.9832 57.0348 21.1307 56.2907 21.1307 55.4091ZM25.4112 50.3182V60.5H24.2379V50.3182H25.4112ZM29.8074 60.679C29.3234 60.679 28.8843 60.5878 28.4899 60.4055C28.0955 60.2199 27.7823 59.9531 27.5502 59.6051C27.3182 59.2538 27.2022 58.8295 27.2022 58.3324C27.2022 57.8949 27.2884 57.5402 27.4608 57.2685C27.6331 56.9934 27.8635 56.7779 28.1518 56.6222C28.4402 56.4664 28.7583 56.3504 29.1064 56.2741C29.4577 56.1946 29.8107 56.1316 30.1653 56.0852C30.6293 56.0256 31.0055 55.9808 31.2939 55.951C31.5855 55.9179 31.7976 55.8632 31.9302 55.7869C32.0661 55.7107 32.1341 55.5781 32.1341 55.3892V55.3494C32.1341 54.8589 31.9998 54.4777 31.7314 54.206C31.4662 53.9342 31.0635 53.7983 30.5233 53.7983C29.9631 53.7983 29.524 53.9209 29.2058 54.1662C28.8876 54.4115 28.6639 54.6733 28.5346 54.9517L27.421 54.554C27.6199 54.09 27.885 53.7287 28.2164 53.4702C28.5512 53.2083 28.9158 53.026 29.3102 52.9233C29.7079 52.8172 30.099 52.7642 30.4835 52.7642C30.7288 52.7642 31.0105 52.794 31.3287 52.8537C31.6502 52.91 31.96 53.0277 32.2583 53.2067C32.56 53.3857 32.8102 53.6558 33.0091 54.017C33.2079 54.3783 33.3074 54.8622 33.3074 55.4688V60.5H32.1341V59.4659H32.0744C31.9949 59.6316 31.8623 59.8089 31.6767 59.9979C31.4911 60.1868 31.2441 60.3475 30.9359 60.4801C30.6277 60.6127 30.2515 60.679 29.8074 60.679ZM29.9863 59.625C30.4503 59.625 30.8414 59.5339 31.1596 59.3516C31.4811 59.1693 31.7231 58.9339 31.8855 58.6456C32.0512 58.3572 32.1341 58.054 32.1341 57.7358V56.6619C32.0843 56.7216 31.975 56.7763 31.8059 56.826C31.6402 56.8724 31.448 56.9138 31.2292 56.9503C31.0138 56.9834 30.8033 57.0133 30.5978 57.0398C30.3957 57.063 30.2316 57.0829 30.1056 57.0994C29.8007 57.1392 29.5157 57.2038 29.2505 57.2933C28.9887 57.3795 28.7766 57.5104 28.6142 57.6861C28.4551 57.8584 28.3755 58.0937 28.3755 58.392C28.3755 58.7997 28.5263 59.108 28.8279 59.3168C29.1329 59.5223 29.519 59.625 29.9863 59.625ZM30.0261 51.8295L31.2392 49.5227H32.6113L31.0602 51.8295H30.0261ZM37 50.3182L36.9006 57.6364H35.7472L35.6477 50.3182H37ZM36.3239 60.5795C36.0786 60.5795 35.8681 60.4917 35.6925 60.3161C35.5168 60.1404 35.429 59.9299 35.429 59.6847C35.429 59.4394 35.5168 59.2289 35.6925 59.0533C35.8681 58.8776 36.0786 58.7898 36.3239 58.7898C36.5691 58.7898 36.7796 58.8776 36.9553 59.0533C37.1309 59.2289 37.2188 59.4394 37.2188 59.6847C37.2188 59.8471 37.1773 59.9962 37.0945 60.1321C37.0149 60.268 36.9072 60.3774 36.7713 60.4602C36.6387 60.5398 36.4896 60.5795 36.3239 60.5795ZM42.209 61.48H56.209V47.48H42.209V61.48Z" fill="#111827"/>
<path d="M14.1506 75.3182L17.1733 83.8892H17.2926L20.3153 75.3182H21.608L17.8693 85.5H16.5966L12.858 75.3182H14.1506ZM25.4261 85.6591C24.7367 85.6591 24.1319 85.495 23.6115 85.1669C23.0945 84.8388 22.6901 84.3797 22.3984 83.7898C22.1101 83.1998 21.9659 82.5104 21.9659 81.7216C21.9659 80.9261 22.1101 80.2318 22.3984 79.6385C22.6901 79.0452 23.0945 78.5845 23.6115 78.2564C24.1319 77.9283 24.7367 77.7642 25.4261 77.7642C26.1155 77.7642 26.7188 77.9283 27.2358 78.2564C27.7562 78.5845 28.1605 79.0452 28.4489 79.6385C28.7405 80.2318 28.8864 80.9261 28.8864 81.7216C28.8864 82.5104 28.7405 83.1998 28.4489 83.7898C28.1605 84.3797 27.7562 84.8388 27.2358 85.1669C26.7188 85.495 26.1155 85.6591 25.4261 85.6591ZM25.4261 84.6051C25.9498 84.6051 26.3807 84.4709 26.7188 84.2024C27.0568 83.9339 27.3071 83.581 27.4695 83.1435C27.6319 82.706 27.7131 82.232 27.7131 81.7216C27.7131 81.2112 27.6319 80.7356 27.4695 80.2947C27.3071 79.8539 27.0568 79.4976 26.7188 79.2259C26.3807 78.9541 25.9498 78.8182 25.4261 78.8182C24.9025 78.8182 24.4716 78.9541 24.1335 79.2259C23.7955 79.4976 23.5452 79.8539 23.3828 80.2947C23.2204 80.7356 23.1392 81.2112 23.1392 81.7216C23.1392 82.232 23.2204 82.706 23.3828 83.1435C23.5452 83.581 23.7955 83.9339 24.1335 84.2024C24.4716 84.4709 24.9025 84.6051 25.4261 84.6051ZM33.7797 85.6591C33.0637 85.6591 32.4473 85.4901 31.9302 85.152C31.4132 84.8139 31.0154 84.3482 30.737 83.755C30.4586 83.1617 30.3194 82.4839 30.3194 81.7216C30.3194 80.946 30.4619 80.2616 30.747 79.6683C31.0353 79.0717 31.4364 78.6061 31.9501 78.2713C32.4672 77.9332 33.0704 77.7642 33.7598 77.7642C34.2967 77.7642 34.7806 77.8636 35.2115 78.0625C35.6423 78.2614 35.9953 78.5398 36.2704 78.8977C36.5455 79.2557 36.7162 79.6733 36.7825 80.1506H35.6092C35.5197 79.8026 35.3208 79.4943 35.0126 79.2259C34.7077 78.9541 34.2967 78.8182 33.7797 78.8182C33.3223 78.8182 32.9212 78.9375 32.5765 79.1761C32.2351 79.4115 31.9683 79.7446 31.7761 80.1754C31.5872 80.603 31.4927 81.1051 31.4927 81.6818C31.4927 82.2718 31.5855 82.7855 31.7711 83.223C31.96 83.6605 32.2252 84.0002 32.5666 84.2422C32.9113 84.4841 33.3156 84.6051 33.7797 84.6051C34.0846 84.6051 34.3613 84.5521 34.6099 84.446C34.8585 84.34 35.069 84.1875 35.2413 83.9886C35.4136 83.7898 35.5363 83.5511 35.6092 83.2727H36.7825C36.7162 83.7235 36.5521 84.1295 36.2903 84.4908C36.0318 84.8487 35.6887 85.1338 35.2612 85.3459C34.8369 85.5547 34.3431 85.6591 33.7797 85.6591ZM41.6994 85.6591C40.9636 85.6591 40.3289 85.4967 39.7953 85.1719C39.265 84.8438 38.8556 84.3864 38.5673 83.7997C38.2823 83.2098 38.1397 82.5237 38.1397 81.7415C38.1397 80.9593 38.2823 80.2699 38.5673 79.6733C38.8556 79.0734 39.2567 78.6061 39.7704 78.2713C40.2875 77.9332 40.8907 77.7642 41.5801 77.7642C41.9778 77.7642 42.3706 77.8305 42.7583 77.9631C43.1461 78.0956 43.4991 78.3111 43.8173 78.6094C44.1355 78.9044 44.389 79.2955 44.5779 79.7827C44.7669 80.2699 44.8613 80.8698 44.8613 81.5824V82.0795H38.975V81.0653H43.6681C43.6681 80.6345 43.582 80.25 43.4096 79.9119C43.2406 79.5739 42.9986 79.3071 42.6838 79.1115C42.3722 78.916 42.0043 78.8182 41.5801 78.8182C41.1127 78.8182 40.7084 78.9342 40.367 79.1662C40.0289 79.3949 39.7688 79.6932 39.5865 80.0611C39.4042 80.429 39.313 80.8234 39.313 81.2443V81.9205C39.313 82.4972 39.4125 82.986 39.6113 83.3871C39.8135 83.7848 40.0936 84.0881 40.4515 84.2969C40.8095 84.5024 41.2254 84.6051 41.6994 84.6051C42.0076 84.6051 42.286 84.562 42.5346 84.4759C42.7865 84.3864 43.0036 84.2538 43.1859 84.0781C43.3682 83.8991 43.5091 83.6771 43.6085 83.4119L44.742 83.7301C44.6227 84.1146 44.4222 84.4527 44.1404 84.7443C43.8587 85.0327 43.5107 85.258 43.0964 85.4205C42.6821 85.5795 42.2164 85.6591 41.6994 85.6591ZM42.5545 76.9489L41.5204 75.5568L40.4863 76.9489H39.3727V76.8693L40.9835 74.8011H42.0574L43.6681 76.8693V76.9489H42.5545ZM53.7853 85.6591C53.0495 85.6591 52.4148 85.4967 51.8812 85.1719C51.3509 84.8438 50.9416 84.3864 50.6532 83.7997C50.3682 83.2098 50.2257 82.5237 50.2257 81.7415C50.2257 80.9593 50.3682 80.2699 50.6532 79.6733C50.9416 79.0734 51.3426 78.6061 51.8564 78.2713C52.3734 77.9332 52.9766 77.7642 53.666 77.7642C54.0637 77.7642 54.4565 77.8305 54.8443 77.9631C55.2321 78.0956 55.5851 78.3111 55.9032 78.6094C56.2214 78.9044 56.475 79.2955 56.6639 79.7827C56.8528 80.2699 56.9473 80.8698 56.9473 81.5824V82.0795H51.0609V81.0653H55.7541C55.7541 80.6345 55.6679 80.25 55.4956 79.9119C55.3265 79.5739 55.0846 79.3071 54.7697 79.1115C54.4582 78.916 54.0903 78.8182 53.666 78.8182C53.1987 78.8182 52.7943 78.9342 52.4529 79.1662C52.1149 79.3949 51.8547 79.6932 51.6724 80.0611C51.4901 80.429 51.399 80.8234 51.399 81.2443V81.9205C51.399 82.4972 51.4984 82.986 51.6973 83.3871C51.8994 83.7848 52.1795 84.0881 52.5375 84.2969C52.8954 84.5024 53.3114 84.6051 53.7853 84.6051C54.0936 84.6051 54.372 84.562 54.6206 84.4759C54.8725 84.3864 55.0895 84.2538 55.2718 84.0781C55.4541 83.8991 55.595 83.6771 55.6944 83.4119L56.8279 83.7301C56.7086 84.1146 56.5081 84.4527 56.2264 84.7443C55.9447 85.0327 55.5967 85.258 55.1824 85.4205C54.7681 85.5795 54.3024 85.6591 53.7853 85.6591ZM64.1412 79.5739L63.0872 79.8722C63.0209 79.6965 62.9231 79.5258 62.7939 79.3601C62.6679 79.1911 62.4956 79.0518 62.2768 78.9425C62.0581 78.8331 61.778 78.7784 61.4366 78.7784C60.9693 78.7784 60.5798 78.8861 60.2683 79.1016C59.96 79.3137 59.8059 79.5838 59.8059 79.9119C59.8059 80.2036 59.912 80.4339 60.1241 80.603C60.3362 80.772 60.6677 80.9129 61.1184 81.0256L62.252 81.304C62.9347 81.4697 63.4435 81.7232 63.7782 82.0646C64.113 82.4027 64.2804 82.8385 64.2804 83.3722C64.2804 83.8097 64.1544 84.2008 63.9025 84.5455C63.6539 84.8902 63.3059 85.1619 62.8585 85.3608C62.411 85.5597 61.8907 85.6591 61.2974 85.6591C60.5185 85.6591 59.8739 85.4901 59.3635 85.152C58.853 84.8139 58.5299 84.3201 58.394 83.6705L59.5076 83.392C59.6137 83.803 59.8142 84.1113 60.1092 84.3168C60.4075 84.5223 60.7969 84.625 61.2775 84.625C61.8244 84.625 62.2586 84.509 62.5801 84.277C62.9049 84.0417 63.0673 83.7599 63.0673 83.4318C63.0673 83.1667 62.9745 82.9446 62.7889 82.7656C62.6033 82.5833 62.3182 82.4474 61.9338 82.358L60.661 82.0597C59.9617 81.8939 59.448 81.6371 59.1199 81.2891C58.795 80.9377 58.6326 80.4986 58.6326 79.9716C58.6326 79.5407 58.7536 79.1596 58.9956 78.8281C59.2408 78.4967 59.5739 78.2365 59.9949 78.0476C60.4191 77.8587 60.8997 77.7642 61.4366 77.7642C62.1923 77.7642 62.7856 77.9299 63.2164 78.2614C63.6506 78.5928 63.9589 79.0303 64.1412 79.5739ZM71.2567 88.3636V84.3267H71.1573C71.0711 84.4659 70.9485 84.6416 70.7894 84.8537C70.6303 85.0625 70.4033 85.2498 70.1083 85.4155C69.8133 85.5779 69.4206 85.6591 68.93 85.6591C68.2937 85.6591 67.7319 85.4983 67.2447 85.1768C66.7575 84.852 66.3763 84.3946 66.1012 83.8047C65.8261 83.2114 65.6886 82.5104 65.6886 81.7017C65.6886 80.8996 65.8261 80.2036 66.1012 79.6136C66.3763 79.0237 66.7591 78.5679 67.2496 78.2464C67.7402 77.925 68.3069 77.7642 68.9499 77.7642C69.4471 77.7642 69.8398 77.8471 70.1282 78.0128C70.4199 78.1752 70.6419 78.3608 70.7944 78.5696C70.9502 78.7751 71.0711 78.9441 71.1573 79.0767H71.2965V77.8636H72.43V88.3636H71.2567ZM69.0891 84.6051C69.5598 84.6051 69.9575 84.4825 70.2823 84.2372C70.6071 83.9886 70.854 83.6456 71.0231 83.2081C71.1921 82.7673 71.2766 82.2585 71.2766 81.6818C71.2766 81.1117 71.1938 80.6129 71.0281 80.1854C70.8623 79.7545 70.6171 79.4197 70.2923 79.1811C69.9674 78.9392 69.5664 78.8182 69.0891 78.8182C68.592 78.8182 68.1777 78.9458 67.8462 79.201C67.5181 79.4529 67.2712 79.7959 67.1055 80.2301C66.9431 80.661 66.8619 81.1449 66.8619 81.6818C66.8619 82.2254 66.9447 82.7192 67.1104 83.1634C67.2795 83.6042 67.5281 83.9555 67.8562 84.2173C68.1876 84.4759 68.5986 84.6051 69.0891 84.6051ZM79.3903 82.3778V77.8636H80.5636V85.5H79.3903V84.2074H79.3107C79.1317 84.5952 78.8533 84.925 78.4755 85.1967C78.0977 85.4652 77.6204 85.5994 77.0437 85.5994C76.5664 85.5994 76.1422 85.495 75.771 85.2862C75.3997 85.0741 75.1081 84.7559 74.896 84.3317C74.6838 83.9041 74.5778 83.3655 74.5778 82.7159V77.8636H75.7511V82.6364C75.7511 83.1932 75.9068 83.6373 76.2184 83.9688C76.5333 84.3002 76.9343 84.4659 77.4215 84.4659C77.7132 84.4659 78.0098 84.3913 78.3114 84.2422C78.6164 84.093 78.8716 83.8643 79.0771 83.5561C79.2859 83.2479 79.3903 82.8551 79.3903 82.3778ZM85.9142 85.6591C85.1784 85.6591 84.5437 85.4967 84.0101 85.1719C83.4798 84.8438 83.0705 84.3864 82.7821 83.7997C82.4971 83.2098 82.3546 82.5237 82.3546 81.7415C82.3546 80.9593 82.4971 80.2699 82.7821 79.6733C83.0705 79.0734 83.4715 78.6061 83.9853 78.2713C84.5023 77.9332 85.1055 77.7642 85.7949 77.7642C86.1926 77.7642 86.5854 77.8305 86.9732 77.9631C87.361 78.0956 87.714 78.3111 88.0321 78.6094C88.3503 78.9044 88.6039 79.2955 88.7928 79.7827C88.9817 80.2699 89.0762 80.8698 89.0762 81.5824V82.0795H83.1898V81.0653H87.883C87.883 80.6345 87.7968 80.25 87.6245 79.9119C87.4554 79.5739 87.2135 79.3071 86.8986 79.1115C86.5871 78.916 86.2192 78.8182 85.7949 78.8182C85.3276 78.8182 84.9232 78.9342 84.5819 79.1662C84.2438 79.3949 83.9836 79.6932 83.8013 80.0611C83.619 80.429 83.5279 80.8234 83.5279 81.2443V81.9205C83.5279 82.4972 83.6273 82.986 83.8262 83.3871C84.0283 83.7848 84.3084 84.0881 84.6664 84.2969C85.0243 84.5024 85.4403 84.6051 85.9142 84.6051C86.2225 84.6051 86.5009 84.562 86.7495 84.4759C87.0014 84.3864 87.2185 84.2538 87.4007 84.0781C87.583 83.8991 87.7239 83.6771 87.8233 83.4119L88.9569 83.7301C88.8375 84.1146 88.637 84.4527 88.3553 84.7443C88.0736 85.0327 87.7256 85.258 87.3113 85.4205C86.897 85.5795 86.4313 85.6591 85.9142 85.6591ZM93.9632 85.6591C93.2473 85.6591 92.6309 85.4901 92.1138 85.152C91.5968 84.8139 91.199 84.3482 90.9206 83.755C90.6422 83.1617 90.503 82.4839 90.503 81.7216C90.503 80.946 90.6455 80.2616 90.9306 79.6683C91.2189 79.0717 91.62 78.6061 92.1337 78.2713C92.6507 77.9332 93.254 77.7642 93.9434 77.7642C94.4803 77.7642 94.9642 77.8636 95.3951 78.0625C95.8259 78.2614 96.1789 78.5398 96.454 78.8977C96.7291 79.2557 96.8998 79.6733 96.9661 80.1506H95.7928C95.7033 79.8026 95.5044 79.4943 95.1962 79.2259C94.8913 78.9541 94.4803 78.8182 93.9632 78.8182C93.5059 78.8182 93.1048 78.9375 92.7601 79.1761C92.4187 79.4115 92.1519 79.7446 91.9597 80.1754C91.7708 80.603 91.6763 81.1051 91.6763 81.6818C91.6763 82.2718 91.7691 82.7855 91.9547 83.223C92.1436 83.6605 92.4088 84.0002 92.7502 84.2422C93.0949 84.4841 93.4992 84.6051 93.9632 84.6051C94.2682 84.6051 94.5449 84.5521 94.7935 84.446C95.0421 84.34 95.2525 84.1875 95.4249 83.9886C95.5972 83.7898 95.7199 83.5511 95.7928 83.2727H96.9661C96.8998 83.7235 96.7357 84.1295 96.4739 84.4908C96.2154 84.8487 95.8723 85.1338 95.4448 85.3459C95.0205 85.5547 94.5267 85.6591 93.9632 85.6591ZM101.883 85.6591C101.147 85.6591 100.512 85.4967 99.9789 85.1719C99.4486 84.8438 99.0392 84.3864 98.7509 83.7997C98.4658 83.2098 98.3233 82.5237 98.3233 81.7415C98.3233 80.9593 98.4658 80.2699 98.7509 79.6733C99.0392 79.0734 99.4403 78.6061 99.954 78.2713C100.471 77.9332 101.074 77.7642 101.764 77.7642C102.161 77.7642 102.554 77.8305 102.942 77.9631C103.33 78.0956 103.683 78.3111 104.001 78.6094C104.319 78.9044 104.573 79.2955 104.762 79.7827C104.95 80.2699 105.045 80.8698 105.045 81.5824V82.0795H99.1586V81.0653H103.852C103.852 80.6345 103.766 80.25 103.593 79.9119C103.424 79.5739 103.182 79.3071 102.867 79.1115C102.556 78.916 102.188 78.8182 101.764 78.8182C101.296 78.8182 100.892 78.9342 100.551 79.1662C100.213 79.3949 99.9524 79.6932 99.7701 80.0611C99.5878 80.429 99.4966 80.8234 99.4966 81.2443V81.9205C99.4966 82.4972 99.5961 82.986 99.7949 83.3871C99.9971 83.7848 100.277 84.0881 100.635 84.2969C100.993 84.5024 101.409 84.6051 101.883 84.6051C102.191 84.6051 102.47 84.562 102.718 84.4759C102.97 84.3864 103.187 84.2538 103.369 84.0781C103.552 83.8991 103.693 83.6771 103.792 83.4119L104.926 83.7301C104.806 84.1146 104.606 84.4527 104.324 84.7443C104.042 85.0327 103.694 85.258 103.28 85.4205C102.866 85.5795 102.4 85.6591 101.883 85.6591ZM111.642 82.3778V77.8636H112.816V85.5H111.642V84.2074H111.563C111.384 84.5952 111.105 84.925 110.727 85.1967C110.35 85.4652 109.872 85.5994 109.296 85.5994C108.818 85.5994 108.394 85.495 108.023 85.2862C107.652 85.0741 107.36 84.7559 107.148 84.3317C106.936 83.9041 106.83 83.3655 106.83 82.7159V77.8636H108.003V82.6364C108.003 83.1932 108.159 83.6373 108.47 83.9688C108.785 84.3002 109.186 84.4659 109.673 84.4659C109.965 84.4659 110.262 84.3913 110.563 84.2422C110.868 84.093 111.124 83.8643 111.329 83.5561C111.538 83.2479 111.642 82.8551 111.642 82.3778ZM118.902 85.5V77.8636H120.075V85.5H118.902ZM119.499 76.5909C119.27 76.5909 119.073 76.513 118.907 76.3572C118.745 76.2015 118.663 76.0142 118.663 75.7955C118.663 75.5767 118.745 75.3894 118.907 75.2337C119.073 75.0779 119.27 75 119.499 75C119.727 75 119.923 75.0779 120.085 75.2337C120.251 75.3894 120.334 75.5767 120.334 75.7955C120.334 76.0142 120.251 76.2015 120.085 76.3572C119.923 76.513 119.727 76.5909 119.499 76.5909ZM125.545 77.8636V78.858H121.588V77.8636H125.545ZM122.741 76.0341H123.915V83.3125C123.915 83.6439 123.963 83.8925 124.059 84.0582C124.158 84.2206 124.284 84.33 124.437 84.3864C124.592 84.4394 124.756 84.4659 124.929 84.4659C125.058 84.4659 125.164 84.4593 125.247 84.446C125.33 84.4295 125.396 84.4162 125.446 84.4062L125.684 85.4602C125.605 85.4901 125.494 85.5199 125.351 85.5497C125.209 85.5829 125.028 85.5994 124.809 85.5994C124.478 85.5994 124.153 85.5282 123.835 85.3857C123.52 85.2431 123.258 85.026 123.05 84.7344C122.844 84.4427 122.741 84.0748 122.741 83.6307V76.0341ZM130.43 85.6591C129.694 85.6591 129.059 85.4967 128.526 85.1719C127.995 84.8438 127.586 84.3864 127.298 83.7997C127.013 83.2098 126.87 82.5237 126.87 81.7415C126.87 80.9593 127.013 80.2699 127.298 79.6733C127.586 79.0734 127.987 78.6061 128.501 78.2713C129.018 77.9332 129.621 77.7642 130.311 77.7642C130.708 77.7642 131.101 77.8305 131.489 77.9631C131.877 78.0956 132.23 78.3111 132.548 78.6094C132.866 78.9044 133.119 79.2955 133.308 79.7827C133.497 80.2699 133.592 80.8698 133.592 81.5824V82.0795H127.705V81.0653H132.399C132.399 80.6345 132.312 80.25 132.14 79.9119C131.971 79.5739 131.729 79.3071 131.414 79.1115C131.103 78.916 130.735 78.8182 130.311 78.8182C129.843 78.8182 129.439 78.9342 129.097 79.1662C128.759 79.3949 128.499 79.6932 128.317 80.0611C128.135 80.429 128.044 80.8234 128.044 81.2443V81.9205C128.044 82.4972 128.143 82.986 128.342 83.3871C128.544 83.7848 128.824 84.0881 129.182 84.2969C129.54 84.5024 129.956 84.6051 130.43 84.6051C130.738 84.6051 131.017 84.562 131.265 84.4759C131.517 84.3864 131.734 84.2538 131.916 84.0781C132.099 83.8991 132.24 83.6771 132.339 83.4119L133.472 83.7301C133.353 84.1146 133.153 84.4527 132.871 84.7443C132.589 85.0327 132.241 85.258 131.827 85.4205C131.413 85.5795 130.947 85.6591 130.43 85.6591ZM136.55 80.9062V85.5H135.377V77.8636H136.51V79.0568H136.61C136.789 78.669 137.06 78.3575 137.425 78.1222C137.789 77.8835 138.26 77.7642 138.837 77.7642C139.354 77.7642 139.806 77.8703 140.194 78.0824C140.582 78.2912 140.883 78.6094 141.099 79.0369C141.314 79.4612 141.422 79.9981 141.422 80.6477V85.5H140.249V80.7273C140.249 80.1274 140.093 79.66 139.781 79.3253C139.47 78.9872 139.042 78.8182 138.499 78.8182C138.124 78.8182 137.789 78.8994 137.494 79.0618C137.203 79.2242 136.972 79.4612 136.803 79.7727C136.634 80.0843 136.55 80.4621 136.55 80.9062ZM148.975 79.5739L147.921 79.8722C147.855 79.6965 147.757 79.5258 147.628 79.3601C147.502 79.1911 147.33 79.0518 147.111 78.9425C146.892 78.8331 146.612 78.7784 146.271 78.7784C145.803 78.7784 145.414 78.8861 145.102 79.1016C144.794 79.3137 144.64 79.5838 144.64 79.9119C144.64 80.2036 144.746 80.4339 144.958 80.603C145.17 80.772 145.502 80.9129 145.952 81.0256L147.086 81.304C147.769 81.4697 148.277 81.7232 148.612 82.0646C148.947 82.4027 149.114 82.8385 149.114 83.3722C149.114 83.8097 148.988 84.2008 148.737 84.5455C148.488 84.8902 148.14 85.1619 147.692 85.3608C147.245 85.5597 146.725 85.6591 146.131 85.6591C145.353 85.6591 144.708 85.4901 144.197 85.152C143.687 84.8139 143.364 84.3201 143.228 83.6705L144.342 83.392C144.448 83.803 144.648 84.1113 144.943 84.3168C145.241 84.5223 145.631 84.625 146.112 84.625C146.658 84.625 147.093 84.509 147.414 84.277C147.739 84.0417 147.901 83.7599 147.901 83.4318C147.901 83.1667 147.808 82.9446 147.623 82.7656C147.437 82.5833 147.152 82.4474 146.768 82.358L145.495 82.0597C144.796 81.8939 144.282 81.6371 143.954 81.2891C143.629 80.9377 143.467 80.4986 143.467 79.9716C143.467 79.5407 143.588 79.1596 143.83 78.8281C144.075 78.4967 144.408 78.2365 144.829 78.0476C145.253 77.8587 145.734 77.7642 146.271 77.7642C147.026 77.7642 147.62 77.9299 148.05 78.2614C148.485 78.5928 148.793 79.0303 148.975 79.5739ZM155.991 80.9062V85.5H154.818V77.8636H155.952V79.0568H156.051C156.23 78.669 156.502 78.3575 156.866 78.1222C157.231 77.8835 157.702 77.7642 158.278 77.7642C158.795 77.7642 159.248 77.8703 159.635 78.0824C160.023 78.2912 160.325 78.6094 160.54 79.0369C160.756 79.4612 160.863 79.9981 160.863 80.6477V85.5H159.69V80.7273C159.69 80.1274 159.534 79.66 159.223 79.3253C158.911 78.9872 158.484 78.8182 157.94 78.8182C157.566 78.8182 157.231 78.8994 156.936 79.0618C156.644 79.2242 156.414 79.4612 156.245 79.7727C156.076 80.0843 155.991 80.4621 155.991 80.9062ZM166.11 85.6591C165.42 85.6591 164.815 85.495 164.295 85.1669C163.778 84.8388 163.374 84.3797 163.082 83.7898C162.794 83.1998 162.65 82.5104 162.65 81.7216C162.65 80.9261 162.794 80.2318 163.082 79.6385C163.374 79.0452 163.778 78.5845 164.295 78.2564C164.815 77.9283 165.42 77.7642 166.11 77.7642C166.799 77.7642 167.402 77.9283 167.919 78.2564C168.44 78.5845 168.844 79.0452 169.132 79.6385C169.424 80.2318 169.57 80.9261 169.57 81.7216C169.57 82.5104 169.424 83.1998 169.132 83.7898C168.844 84.3797 168.44 84.8388 167.919 85.1669C167.402 85.495 166.799 85.6591 166.11 85.6591ZM166.11 84.6051C166.633 84.6051 167.064 84.4709 167.402 84.2024C167.74 83.9339 167.991 83.581 168.153 83.1435C168.315 82.706 168.397 82.232 168.397 81.7216C168.397 81.2112 168.315 80.7356 168.153 80.2947C167.991 79.8539 167.74 79.4976 167.402 79.2259C167.064 78.9541 166.633 78.8182 166.11 78.8182C165.586 78.8182 165.155 78.9541 164.817 79.2259C164.479 79.4976 164.229 79.8539 164.066 80.2947C163.904 80.7356 163.823 81.2112 163.823 81.7216C163.823 82.232 163.904 82.706 164.066 83.1435C164.229 83.581 164.479 83.9339 164.817 84.2024C165.155 84.4709 165.586 84.6051 166.11 84.6051ZM180.708 79.5739L179.654 79.8722C179.587 79.6965 179.49 79.5258 179.36 79.3601C179.234 79.1911 179.062 79.0518 178.843 78.9425C178.624 78.8331 178.344 78.7784 178.003 78.7784C177.536 78.7784 177.146 78.8861 176.835 79.1016C176.526 79.3137 176.372 79.5838 176.372 79.9119C176.372 80.2036 176.478 80.4339 176.691 80.603C176.903 80.772 177.234 80.9129 177.685 81.0256L178.818 81.304C179.501 81.4697 180.01 81.7232 180.345 82.0646C180.679 82.4027 180.847 82.8385 180.847 83.3722C180.847 83.8097 180.721 84.2008 180.469 84.5455C180.22 84.8902 179.872 85.1619 179.425 85.3608C178.977 85.5597 178.457 85.6591 177.864 85.6591C177.085 85.6591 176.44 85.4901 175.93 85.152C175.419 84.8139 175.096 84.3201 174.96 83.6705L176.074 83.392C176.18 83.803 176.381 84.1113 176.676 84.3168C176.974 84.5223 177.363 84.625 177.844 84.625C178.391 84.625 178.825 84.509 179.146 84.277C179.471 84.0417 179.634 83.7599 179.634 83.4318C179.634 83.1667 179.541 82.9446 179.355 82.7656C179.17 82.5833 178.885 82.4474 178.5 82.358L177.227 82.0597C176.528 81.8939 176.014 81.6371 175.686 81.2891C175.361 80.9377 175.199 80.4986 175.199 79.9716C175.199 79.5407 175.32 79.1596 175.562 78.8281C175.807 78.4967 176.14 78.2365 176.561 78.0476C176.985 77.8587 177.466 77.7642 178.003 77.7642C178.759 77.7642 179.352 77.9299 179.783 78.2614C180.217 78.5928 180.525 79.0303 180.708 79.5739ZM185.815 85.6591C185.079 85.6591 184.444 85.4967 183.911 85.1719C183.38 84.8438 182.971 84.3864 182.683 83.7997C182.397 83.2098 182.255 82.5237 182.255 81.7415C182.255 80.9593 182.397 80.2699 182.683 79.6733C182.971 79.0734 183.372 78.6061 183.886 78.2713C184.403 77.9332 185.006 77.7642 185.695 77.7642C186.093 77.7642 186.486 77.8305 186.874 77.9631C187.261 78.0956 187.614 78.3111 187.933 78.6094C188.251 78.9044 188.504 79.2955 188.693 79.7827C188.882 80.2699 188.977 80.8698 188.977 81.5824V82.0795H183.09V81.0653H187.783C187.783 80.6345 187.697 80.25 187.525 79.9119C187.356 79.5739 187.114 79.3071 186.799 79.1115C186.487 78.916 186.12 78.8182 185.695 78.8182C185.228 78.8182 184.824 78.9342 184.482 79.1662C184.144 79.3949 183.884 79.6932 183.702 80.0611C183.519 80.429 183.428 80.8234 183.428 81.2443V81.9205C183.428 82.4972 183.528 82.986 183.727 83.3871C183.929 83.7848 184.209 84.0881 184.567 84.2969C184.925 84.5024 185.341 84.6051 185.815 84.6051C186.123 84.6051 186.401 84.562 186.65 84.4759C186.902 84.3864 187.119 84.2538 187.301 84.0781C187.483 83.8991 187.624 83.6771 187.724 83.4119L188.857 83.7301C188.738 84.1146 188.537 84.4527 188.256 84.7443C187.974 85.0327 187.626 85.258 187.212 85.4205C186.797 85.5795 186.332 85.6591 185.815 85.6591ZM195.574 82.3778V77.8636H196.747V85.5H195.574V84.2074H195.494C195.315 84.5952 195.037 84.925 194.659 85.1967C194.281 85.4652 193.804 85.5994 193.227 85.5994C192.75 85.5994 192.326 85.495 191.955 85.2862C191.583 85.0741 191.292 84.7559 191.08 84.3317C190.867 83.9041 190.761 83.3655 190.761 82.7159V77.8636H191.935V82.6364C191.935 83.1932 192.09 83.6373 192.402 83.9688C192.717 84.3002 193.118 84.4659 193.605 84.4659C193.897 84.4659 194.193 84.3913 194.495 84.2422C194.8 84.093 195.055 83.8643 195.261 83.5561C195.469 83.2479 195.574 82.8551 195.574 82.3778ZM205.936 85.6591C205.22 85.6591 204.604 85.4901 204.086 85.152C203.569 84.8139 203.172 84.3482 202.893 83.755C202.615 83.1617 202.476 82.4839 202.476 81.7216C202.476 80.946 202.618 80.2616 202.903 79.6683C203.192 79.0717 203.593 78.6061 204.106 78.2713C204.623 77.9332 205.227 77.7642 205.916 77.7642C206.453 77.7642 206.937 77.8636 207.368 78.0625C207.799 78.2614 208.152 78.5398 208.427 78.8977C208.702 79.2557 208.872 79.6733 208.939 80.1506H207.765C207.676 79.8026 207.477 79.4943 207.169 79.2259C206.864 78.9541 206.453 78.8182 205.936 78.8182C205.479 78.8182 205.077 78.9375 204.733 79.1761C204.391 79.4115 204.125 79.7446 203.932 80.1754C203.743 80.603 203.649 81.1051 203.649 81.6818C203.649 82.2718 203.742 82.7855 203.927 83.223C204.116 83.6605 204.381 84.0002 204.723 84.2422C205.068 84.4841 205.472 84.6051 205.936 84.6051C206.241 84.6051 206.518 84.5521 206.766 84.446C207.015 84.34 207.225 84.1875 207.398 83.9886C207.57 83.7898 207.693 83.5511 207.765 83.2727H208.939C208.872 83.7235 208.708 84.1295 208.447 84.4908C208.188 84.8487 207.845 85.1338 207.417 85.3459C206.993 85.5547 206.499 85.6591 205.936 85.6591ZM212.901 85.679C212.417 85.679 211.978 85.5878 211.584 85.4055C211.189 85.2199 210.876 84.9531 210.644 84.6051C210.412 84.2538 210.296 83.8295 210.296 83.3324C210.296 82.8949 210.382 82.5402 210.555 82.2685C210.727 81.9934 210.957 81.7779 211.246 81.6222C211.534 81.4664 211.852 81.3504 212.2 81.2741C212.551 81.1946 212.904 81.1316 213.259 81.0852C213.723 81.0256 214.099 80.9808 214.388 80.951C214.679 80.9179 214.891 80.8632 215.024 80.7869C215.16 80.7107 215.228 80.5781 215.228 80.3892V80.3494C215.228 79.8589 215.094 79.4777 214.825 79.206C214.56 78.9342 214.157 78.7983 213.617 78.7983C213.057 78.7983 212.618 78.9209 212.3 79.1662C211.981 79.4115 211.758 79.6733 211.628 79.9517L210.515 79.554C210.714 79.09 210.979 78.7287 211.31 78.4702C211.645 78.2083 212.01 78.026 212.404 77.9233C212.802 77.8172 213.193 77.7642 213.577 77.7642C213.823 77.7642 214.104 77.794 214.422 77.8537C214.744 77.91 215.054 78.0277 215.352 78.2067C215.654 78.3857 215.904 78.6558 216.103 79.017C216.302 79.3783 216.401 79.8622 216.401 80.4688V85.5H215.228V84.4659H215.168C215.089 84.6316 214.956 84.8089 214.77 84.9979C214.585 85.1868 214.338 85.3475 214.03 85.4801C213.721 85.6127 213.345 85.679 212.901 85.679ZM213.08 84.625C213.544 84.625 213.935 84.5339 214.253 84.3516C214.575 84.1693 214.817 83.9339 214.979 83.6456C215.145 83.3572 215.228 83.054 215.228 82.7358V81.6619C215.178 81.7216 215.069 81.7763 214.9 81.826C214.734 81.8724 214.542 81.9138 214.323 81.9503C214.108 81.9834 213.897 82.0133 213.692 82.0398C213.489 82.063 213.325 82.0829 213.199 82.0994C212.894 82.1392 212.609 82.2038 212.344 82.2933C212.082 82.3795 211.87 82.5104 211.708 82.6861C211.549 82.8584 211.469 83.0937 211.469 83.392C211.469 83.7997 211.62 84.108 211.922 84.3168C212.227 84.5223 212.613 84.625 213.08 84.625ZM218.543 85.5V77.8636H219.676V79.017H219.756C219.895 78.6392 220.147 78.3326 220.511 78.0973C220.876 77.862 221.287 77.7443 221.744 77.7443C221.83 77.7443 221.938 77.746 222.067 77.7493C222.197 77.7526 222.295 77.7576 222.361 77.7642V78.9574C222.321 78.9474 222.23 78.9325 222.087 78.9126C221.948 78.8894 221.801 78.8778 221.645 78.8778C221.274 78.8778 220.942 78.9557 220.651 79.1115C220.362 79.264 220.134 79.4761 219.964 79.7479C219.799 80.0163 219.716 80.3229 219.716 80.6676V85.5H218.543ZM223.752 85.5V77.8636H224.885V79.017H224.965C225.104 78.6392 225.356 78.3326 225.72 78.0973C226.085 77.862 226.496 77.7443 226.953 77.7443C227.039 77.7443 227.147 77.746 227.276 77.7493C227.406 77.7526 227.503 77.7576 227.57 77.7642V78.9574C227.53 78.9474 227.439 78.9325 227.296 78.9126C227.157 78.8894 227.01 78.8778 226.854 78.8778C226.483 78.8778 226.151 78.9557 225.86 79.1115C225.571 79.264 225.343 79.4761 225.173 79.7479C225.008 80.0163 224.925 80.3229 224.925 80.6676V85.5H223.752ZM228.961 85.5V77.8636H230.134V85.5H228.961ZM229.557 76.5909C229.328 76.5909 229.131 76.513 228.966 76.3572C228.803 76.2015 228.722 76.0142 228.722 75.7955C228.722 75.5767 228.803 75.3894 228.966 75.2337C229.131 75.0779 229.328 75 229.557 75C229.786 75 229.981 75.0779 230.144 75.2337C230.31 75.3894 230.392 75.5767 230.392 75.7955C230.392 76.0142 230.31 76.2015 230.144 76.3572C229.981 76.513 229.786 76.5909 229.557 76.5909ZM233.456 80.9062V85.5H232.283V77.8636H233.416V79.0568H233.516C233.695 78.669 233.967 78.3575 234.331 78.1222C234.696 77.8835 235.166 77.7642 235.743 77.7642C236.26 77.7642 236.713 77.8703 237.1 78.0824C237.488 78.2912 237.79 78.6094 238.005 79.0369C238.221 79.4612 238.328 79.9981 238.328 80.6477V85.5H237.155V80.7273C237.155 80.1274 236.999 79.66 236.688 79.3253C236.376 78.9872 235.949 78.8182 235.405 78.8182C235.03 78.8182 234.696 78.8994 234.401 79.0618C234.109 79.2242 233.879 79.4612 233.71 79.7727C233.541 80.0843 233.456 80.4621 233.456 80.9062ZM241.646 80.9062V85.5H240.472V75.3182H241.646V79.0568H241.745C241.924 78.6624 242.192 78.3492 242.55 78.1172C242.912 77.8819 243.392 77.7642 243.992 77.7642C244.513 77.7642 244.968 77.8686 245.359 78.0774C245.75 78.2829 246.054 78.5994 246.269 79.027C246.488 79.4512 246.597 79.9915 246.597 80.6477V85.5H245.424V80.7273C245.424 80.1207 245.267 79.6518 244.952 79.3203C244.64 78.9856 244.208 78.8182 243.654 78.8182C243.27 78.8182 242.925 78.8994 242.62 79.0618C242.318 79.2242 242.08 79.4612 241.904 79.7727C241.732 80.0843 241.646 80.4621 241.646 80.9062ZM251.846 85.6591C251.157 85.6591 250.552 85.495 250.031 85.1669C249.514 84.8388 249.11 84.3797 248.818 83.7898C248.53 83.1998 248.386 82.5104 248.386 81.7216C248.386 80.9261 248.53 80.2318 248.818 79.6385C249.11 79.0452 249.514 78.5845 250.031 78.2564C250.552 77.9283 251.157 77.7642 251.846 77.7642C252.535 77.7642 253.139 77.9283 253.656 78.2564C254.176 78.5845 254.58 79.0452 254.869 79.6385C255.16 80.2318 255.306 80.9261 255.306 81.7216C255.306 82.5104 255.16 83.1998 254.869 83.7898C254.58 84.3797 254.176 84.8388 253.656 85.1669C253.139 85.495 252.535 85.6591 251.846 85.6591ZM251.846 84.6051C252.37 84.6051 252.801 84.4709 253.139 84.2024C253.477 83.9339 253.727 83.581 253.889 83.1435C254.052 82.706 254.133 82.232 254.133 81.7216C254.133 81.2112 254.052 80.7356 253.889 80.2947C253.727 79.8539 253.477 79.4976 253.139 79.2259C252.801 78.9541 252.37 78.8182 251.846 78.8182C251.322 78.8182 250.892 78.9541 250.553 79.2259C250.215 79.4976 249.965 79.8539 249.803 80.2947C249.64 80.7356 249.559 81.2112 249.559 81.7216C249.559 82.232 249.64 82.706 249.803 83.1435C249.965 83.581 250.215 83.9339 250.553 84.2024C250.892 84.4709 251.322 84.6051 251.846 84.6051ZM257.952 85.5795C257.707 85.5795 257.497 85.4917 257.321 85.3161C257.145 85.1404 257.058 84.9299 257.058 84.6847C257.058 84.4394 257.145 84.2289 257.321 84.0533C257.497 83.8776 257.707 83.7898 257.952 83.7898C258.198 83.7898 258.408 83.8776 258.584 84.0533C258.759 84.2289 258.847 84.4394 258.847 84.6847C258.847 84.8471 258.806 84.9962 258.723 85.1321C258.643 85.268 258.536 85.3774 258.4 85.4602C258.267 85.5398 258.118 85.5795 257.952 85.5795Z" fill="#111827"/>
<path d="M13.733 110.5V100.318H19.8381V101.412H14.9659V104.852H19.3807V105.946H14.9659V110.5H13.733ZM21.7907 110.5V102.864H22.964V110.5H21.7907ZM22.3873 101.591C22.1586 101.591 21.9614 101.513 21.7956 101.357C21.6332 101.201 21.552 101.014 21.552 100.795C21.552 100.577 21.6332 100.389 21.7956 100.234C21.9614 100.078 22.1586 100 22.3873 100C22.6159 100 22.8115 100.078 22.9739 100.234C23.1396 100.389 23.2225 100.577 23.2225 100.795C23.2225 101.014 23.1396 101.201 22.9739 101.357C22.8115 101.513 22.6159 101.591 22.3873 101.591ZM26.2862 105.906V110.5H25.1129V102.864H26.2464V104.057H26.3459C26.5249 103.669 26.7966 103.357 27.1612 103.122C27.5258 102.884 27.9964 102.764 28.5732 102.764C29.0902 102.764 29.5426 102.87 29.9304 103.082C30.3182 103.291 30.6198 103.609 30.8352 104.037C31.0507 104.461 31.1584 104.998 31.1584 105.648V110.5H29.9851V105.727C29.9851 105.127 29.8293 104.66 29.5178 104.325C29.2062 103.987 28.7786 103.818 28.2351 103.818C27.8606 103.818 27.5258 103.899 27.2308 104.062C26.9392 104.224 26.7088 104.461 26.5398 104.773C26.3707 105.084 26.2862 105.462 26.2862 105.906ZM35.5495 110.679C35.0656 110.679 34.6265 110.588 34.2321 110.406C33.8377 110.22 33.5244 109.953 33.2924 109.605C33.0604 109.254 32.9444 108.83 32.9444 108.332C32.9444 107.895 33.0306 107.54 33.2029 107.268C33.3753 106.993 33.6056 106.778 33.894 106.622C34.1824 106.466 34.5005 106.35 34.8485 106.274C35.1999 106.195 35.5529 106.132 35.9075 106.085C36.3715 106.026 36.7477 105.981 37.036 105.951C37.3277 105.918 37.5398 105.863 37.6724 105.787C37.8083 105.711 37.8762 105.578 37.8762 105.389V105.349C37.8762 104.859 37.742 104.478 37.4735 104.206C37.2084 103.934 36.8057 103.798 36.2654 103.798C35.7053 103.798 35.2662 103.921 34.948 104.166C34.6298 104.411 34.4061 104.673 34.2768 104.952L33.1632 104.554C33.362 104.09 33.6272 103.729 33.9586 103.47C34.2934 103.208 34.658 103.026 35.0524 102.923C35.4501 102.817 35.8412 102.764 36.2257 102.764C36.4709 102.764 36.7527 102.794 37.0708 102.854C37.3923 102.91 37.7022 103.028 38.0005 103.207C38.3021 103.386 38.5524 103.656 38.7512 104.017C38.9501 104.378 39.0495 104.862 39.0495 105.469V110.5H37.8762V109.466H37.8166C37.737 109.632 37.6045 109.809 37.4189 109.998C37.2333 110.187 36.9863 110.348 36.6781 110.48C36.3699 110.613 35.9937 110.679 35.5495 110.679ZM35.7285 109.625C36.1925 109.625 36.5836 109.534 36.9018 109.352C37.2233 109.169 37.4653 108.934 37.6277 108.646C37.7934 108.357 37.8762 108.054 37.8762 107.736V106.662C37.8265 106.722 37.7172 106.776 37.5481 106.826C37.3824 106.872 37.1902 106.914 36.9714 106.95C36.756 106.983 36.5455 107.013 36.34 107.04C36.1378 107.063 35.9738 107.083 35.8478 107.099C35.5429 107.139 35.2579 107.204 34.9927 107.293C34.7309 107.379 34.5188 107.51 34.3564 107.686C34.1973 107.858 34.1177 108.094 34.1177 108.392C34.1177 108.8 34.2685 109.108 34.5701 109.317C34.8751 109.522 35.2612 109.625 35.7285 109.625ZM42.3643 100.318V110.5H41.1911V100.318H42.3643ZM44.5133 110.5V102.864H45.6866V110.5H44.5133ZM45.1099 101.591C44.8812 101.591 44.684 101.513 44.5183 101.357C44.3559 101.201 44.2747 101.014 44.2747 100.795C44.2747 100.577 44.3559 100.389 44.5183 100.234C44.684 100.078 44.8812 100 45.1099 100C45.3386 100 45.5342 100.078 45.6966 100.234C45.8623 100.389 45.9451 100.577 45.9451 100.795C45.9451 101.014 45.8623 101.201 45.6966 101.357C45.5342 101.513 45.3386 101.591 45.1099 101.591ZM47.6168 110.5V109.605L51.9521 104.037V103.957H47.756V102.864H53.4634V103.798L49.2475 109.327V109.406H53.6026V110.5H47.6168ZM58.3928 110.659C57.657 110.659 57.0223 110.497 56.4886 110.172C55.9583 109.844 55.549 109.386 55.2607 108.8C54.9756 108.21 54.8331 107.524 54.8331 106.741C54.8331 105.959 54.9756 105.27 55.2607 104.673C55.549 104.073 55.95 103.606 56.4638 103.271C56.9808 102.933 57.584 102.764 58.2734 102.764C58.6712 102.764 59.0639 102.83 59.4517 102.963C59.8395 103.096 60.1925 103.311 60.5107 103.609C60.8288 103.904 61.0824 104.295 61.2713 104.783C61.4602 105.27 61.5547 105.87 61.5547 106.582V107.08H55.6683V106.065H60.3615C60.3615 105.634 60.2753 105.25 60.103 104.912C59.9339 104.574 59.692 104.307 59.3771 104.112C59.0656 103.916 58.6977 103.818 58.2734 103.818C57.8061 103.818 57.4018 103.934 57.0604 104.166C56.7223 104.395 56.4621 104.693 56.2798 105.061C56.0975 105.429 56.0064 105.823 56.0064 106.244V106.92C56.0064 107.497 56.1058 107.986 56.3047 108.387C56.5069 108.785 56.7869 109.088 57.1449 109.297C57.5028 109.502 57.9188 109.605 58.3928 109.605C58.701 109.605 58.9794 109.562 59.228 109.476C59.4799 109.386 59.697 109.254 59.8793 109.078C60.0616 108.899 60.2024 108.677 60.3018 108.412L61.4354 108.73C61.3161 109.115 61.1155 109.453 60.8338 109.744C60.5521 110.033 60.2041 110.258 59.7898 110.42C59.3755 110.58 58.9098 110.659 58.3928 110.659ZM72.6861 104.574L71.6321 104.872C71.5658 104.696 71.468 104.526 71.3388 104.36C71.2128 104.191 71.0405 104.052 70.8217 103.942C70.603 103.833 70.3229 103.778 69.9815 103.778C69.5142 103.778 69.1248 103.886 68.8132 104.102C68.505 104.314 68.3509 104.584 68.3509 104.912C68.3509 105.204 68.4569 105.434 68.669 105.603C68.8812 105.772 69.2126 105.913 69.6634 106.026L70.7969 106.304C71.4796 106.47 71.9884 106.723 72.3232 107.065C72.6579 107.403 72.8253 107.839 72.8253 108.372C72.8253 108.81 72.6993 109.201 72.4474 109.545C72.1989 109.89 71.8509 110.162 71.4034 110.361C70.956 110.56 70.4356 110.659 69.8423 110.659C69.0634 110.659 68.4188 110.49 67.9084 110.152C67.398 109.814 67.0748 109.32 66.9389 108.67L68.0526 108.392C68.1586 108.803 68.3591 109.111 68.6541 109.317C68.9524 109.522 69.3419 109.625 69.8224 109.625C70.3693 109.625 70.8035 109.509 71.125 109.277C71.4498 109.042 71.6122 108.76 71.6122 108.432C71.6122 108.167 71.5194 107.945 71.3338 107.766C71.1482 107.583 70.8632 107.447 70.4787 107.358L69.206 107.06C68.5066 106.894 67.9929 106.637 67.6648 106.289C67.34 105.938 67.1776 105.499 67.1776 104.972C67.1776 104.541 67.2985 104.16 67.5405 103.828C67.7857 103.497 68.1188 103.237 68.5398 103.048C68.964 102.859 69.4446 102.764 69.9815 102.764C70.7372 102.764 71.3305 102.93 71.7614 103.261C72.1955 103.593 72.5038 104.03 72.6861 104.574ZM79.4039 107.378V102.864H80.5772V110.5H79.4039V109.207H79.3244C79.1454 109.595 78.867 109.925 78.4892 110.197C78.1113 110.465 77.6341 110.599 77.0574 110.599C76.5801 110.599 76.1558 110.495 75.7846 110.286C75.4134 110.074 75.1217 109.756 74.9096 109.332C74.6975 108.904 74.5914 108.366 74.5914 107.716V102.864H75.7647V107.636C75.7647 108.193 75.9205 108.637 76.2321 108.969C76.5469 109.3 76.948 109.466 77.4352 109.466C77.7269 109.466 78.0235 109.391 78.3251 109.242C78.63 109.093 78.8852 108.864 79.0907 108.556C79.2995 108.248 79.4039 107.855 79.4039 107.378ZM84.9734 110.679C84.4895 110.679 84.0503 110.588 83.6559 110.406C83.2615 110.22 82.9483 109.953 82.7163 109.605C82.4843 109.254 82.3683 108.83 82.3683 108.332C82.3683 107.895 82.4544 107.54 82.6268 107.268C82.7991 106.993 83.0295 106.778 83.3178 106.622C83.6062 106.466 83.9244 106.35 84.2724 106.274C84.6237 106.195 84.9767 106.132 85.3313 106.085C85.7953 106.026 86.1715 105.981 86.4599 105.951C86.7515 105.918 86.9637 105.863 87.0962 105.787C87.2321 105.711 87.3001 105.578 87.3001 105.389V105.349C87.3001 104.859 87.1658 104.478 86.8974 104.206C86.6322 103.934 86.2295 103.798 85.6893 103.798C85.1291 103.798 84.69 103.921 84.3718 104.166C84.0536 104.411 83.8299 104.673 83.7006 104.952L82.587 104.554C82.7859 104.09 83.051 103.729 83.3825 103.47C83.7172 103.208 84.0818 103.026 84.4762 102.923C84.8739 102.817 85.265 102.764 85.6495 102.764C85.8948 102.764 86.1765 102.794 86.4947 102.854C86.8162 102.91 87.1261 103.028 87.4244 103.207C87.726 103.386 87.9762 103.656 88.1751 104.017C88.3739 104.378 88.4734 104.862 88.4734 105.469V110.5H87.3001V109.466H87.2404C87.1609 109.632 87.0283 109.809 86.8427 109.998C86.6571 110.187 86.4102 110.348 86.1019 110.48C85.7937 110.613 85.4175 110.679 84.9734 110.679ZM85.1523 109.625C85.6164 109.625 86.0075 109.534 86.3256 109.352C86.6471 109.169 86.8891 108.934 87.0515 108.646C87.2172 108.357 87.3001 108.054 87.3001 107.736V106.662C87.2504 106.722 87.141 106.776 86.9719 106.826C86.8062 106.872 86.614 106.914 86.3952 106.95C86.1798 106.983 85.9693 107.013 85.7638 107.04C85.5617 107.063 85.3976 107.083 85.2717 107.099C84.9667 107.139 84.6817 107.204 84.4165 107.293C84.1547 107.379 83.9426 107.51 83.7802 107.686C83.6211 107.858 83.5415 108.094 83.5415 108.392C83.5415 108.8 83.6924 109.108 83.994 109.317C84.2989 109.522 84.685 109.625 85.1523 109.625ZM97.6547 110.659C96.9387 110.659 96.3223 110.49 95.8052 110.152C95.2882 109.814 94.8904 109.348 94.612 108.755C94.3336 108.162 94.1944 107.484 94.1944 106.722C94.1944 105.946 94.3369 105.262 94.622 104.668C94.9103 104.072 95.3114 103.606 95.8251 103.271C96.3422 102.933 96.9454 102.764 97.6348 102.764C98.1717 102.764 98.6556 102.864 99.0865 103.062C99.5173 103.261 99.8703 103.54 100.145 103.898C100.421 104.256 100.591 104.673 100.657 105.151H99.4842C99.3947 104.803 99.1958 104.494 98.8876 104.226C98.5827 103.954 98.1717 103.818 97.6547 103.818C97.1973 103.818 96.7962 103.937 96.4515 104.176C96.1101 104.411 95.8433 104.745 95.6511 105.175C95.4622 105.603 95.3677 106.105 95.3677 106.682C95.3677 107.272 95.4605 107.786 95.6461 108.223C95.835 108.661 96.1002 109 96.4416 109.242C96.7863 109.484 97.1906 109.605 97.6547 109.605C97.9596 109.605 98.2363 109.552 98.4849 109.446C98.7335 109.34 98.944 109.188 99.1163 108.989C99.2886 108.79 99.4113 108.551 99.4842 108.273H100.657C100.591 108.723 100.427 109.129 100.165 109.491C99.9068 109.849 99.5637 110.134 99.1362 110.346C98.7119 110.555 98.2181 110.659 97.6547 110.659ZM105.475 110.659C104.786 110.659 104.181 110.495 103.66 110.167C103.143 109.839 102.739 109.38 102.447 108.79C102.159 108.2 102.015 107.51 102.015 106.722C102.015 105.926 102.159 105.232 102.447 104.638C102.739 104.045 103.143 103.585 103.66 103.256C104.181 102.928 104.786 102.764 105.475 102.764C106.164 102.764 106.768 102.928 107.285 103.256C107.805 103.585 108.209 104.045 108.498 104.638C108.789 105.232 108.935 105.926 108.935 106.722C108.935 107.51 108.789 108.2 108.498 108.79C108.209 109.38 107.805 109.839 107.285 110.167C106.768 110.495 106.164 110.659 105.475 110.659ZM105.475 109.605C105.999 109.605 106.43 109.471 106.768 109.202C107.106 108.934 107.356 108.581 107.518 108.143C107.681 107.706 107.762 107.232 107.762 106.722C107.762 106.211 107.681 105.736 107.518 105.295C107.356 104.854 107.106 104.498 106.768 104.226C106.43 103.954 105.999 103.818 105.475 103.818C104.951 103.818 104.52 103.954 104.182 104.226C103.844 104.498 103.594 104.854 103.432 105.295C103.269 105.736 103.188 106.211 103.188 106.722C103.188 107.232 103.269 107.706 103.432 108.143C103.594 108.581 103.844 108.934 104.182 109.202C104.52 109.471 104.951 109.605 105.475 109.605ZM110.726 110.5V102.864H111.86V104.057H111.959C112.118 103.649 112.375 103.333 112.73 103.107C113.084 102.879 113.51 102.764 114.007 102.764C114.511 102.764 114.931 102.879 115.265 103.107C115.603 103.333 115.867 103.649 116.056 104.057H116.135C116.331 103.662 116.624 103.349 117.015 103.117C117.406 102.882 117.875 102.764 118.422 102.764C119.105 102.764 119.663 102.978 120.098 103.406C120.532 103.83 120.749 104.491 120.749 105.389V110.5H119.576V105.389C119.576 104.826 119.422 104.423 119.113 104.181C118.805 103.939 118.442 103.818 118.025 103.818C117.488 103.818 117.072 103.981 116.777 104.305C116.482 104.627 116.334 105.035 116.334 105.528V110.5H115.141V105.27C115.141 104.836 115 104.486 114.718 104.221C114.437 103.952 114.074 103.818 113.63 103.818C113.325 103.818 113.04 103.899 112.775 104.062C112.513 104.224 112.301 104.45 112.138 104.738C111.979 105.023 111.9 105.353 111.9 105.727V110.5H110.726ZM122.894 113.364V102.864H124.028V104.077H124.167C124.253 103.944 124.372 103.775 124.525 103.57C124.681 103.361 124.903 103.175 125.191 103.013C125.483 102.847 125.877 102.764 126.374 102.764C127.017 102.764 127.584 102.925 128.075 103.246C128.565 103.568 128.948 104.024 129.223 104.614C129.498 105.204 129.636 105.9 129.636 106.702C129.636 107.51 129.498 108.211 129.223 108.805C128.948 109.395 128.567 109.852 128.08 110.177C127.592 110.498 127.031 110.659 126.394 110.659C125.904 110.659 125.511 110.578 125.216 110.415C124.921 110.25 124.694 110.062 124.535 109.854C124.376 109.642 124.253 109.466 124.167 109.327H124.067V113.364H122.894ZM124.048 106.682C124.048 107.259 124.132 107.767 124.301 108.208C124.47 108.646 124.717 108.989 125.042 109.237C125.367 109.482 125.764 109.605 126.235 109.605C126.726 109.605 127.135 109.476 127.463 109.217C127.795 108.955 128.043 108.604 128.209 108.163C128.378 107.719 128.462 107.225 128.462 106.682C128.462 106.145 128.379 105.661 128.214 105.23C128.051 104.796 127.804 104.453 127.473 104.201C127.145 103.946 126.732 103.818 126.235 103.818C125.758 103.818 125.357 103.939 125.032 104.181C124.707 104.42 124.462 104.754 124.296 105.185C124.13 105.613 124.048 106.112 124.048 106.682ZM131.425 110.5V102.864H132.559V104.017H132.638C132.778 103.639 133.03 103.333 133.394 103.097C133.759 102.862 134.17 102.744 134.627 102.744C134.713 102.744 134.821 102.746 134.95 102.749C135.08 102.753 135.177 102.758 135.244 102.764V103.957C135.204 103.947 135.113 103.933 134.97 103.913C134.831 103.889 134.683 103.878 134.528 103.878C134.156 103.878 133.825 103.956 133.533 104.112C133.245 104.264 133.016 104.476 132.847 104.748C132.682 105.016 132.599 105.323 132.599 105.668V110.5H131.425ZM138.882 110.679C138.398 110.679 137.959 110.588 137.564 110.406C137.17 110.22 136.856 109.953 136.624 109.605C136.392 109.254 136.276 108.83 136.276 108.332C136.276 107.895 136.363 107.54 136.535 107.268C136.707 106.993 136.938 106.778 137.226 106.622C137.514 106.466 137.833 106.35 138.181 106.274C138.532 106.195 138.885 106.132 139.24 106.085C139.704 106.026 140.08 105.981 140.368 105.951C140.66 105.918 140.872 105.863 141.004 105.787C141.14 105.711 141.208 105.578 141.208 105.389V105.349C141.208 104.859 141.074 104.478 140.806 104.206C140.54 103.934 140.138 103.798 139.597 103.798C139.037 103.798 138.598 103.921 138.28 104.166C137.962 104.411 137.738 104.673 137.609 104.952L136.495 104.554C136.694 104.09 136.959 103.729 137.291 103.47C137.625 103.208 137.99 103.026 138.384 102.923C138.782 102.817 139.173 102.764 139.558 102.764C139.803 102.764 140.085 102.794 140.403 102.854C140.724 102.91 141.034 103.028 141.333 103.207C141.634 103.386 141.884 103.656 142.083 104.017C142.282 104.378 142.382 104.862 142.382 105.469V110.5H141.208V109.466H141.149C141.069 109.632 140.936 109.809 140.751 109.998C140.565 110.187 140.318 110.348 140.01 110.48C139.702 110.613 139.326 110.679 138.882 110.679ZM139.061 109.625C139.525 109.625 139.916 109.534 140.234 109.352C140.555 109.169 140.797 108.934 140.96 108.646C141.125 108.357 141.208 108.054 141.208 107.736V106.662C141.159 106.722 141.049 106.776 140.88 106.826C140.714 106.872 140.522 106.914 140.303 106.95C140.088 106.983 139.878 107.013 139.672 107.04C139.47 107.063 139.306 107.083 139.18 107.099C138.875 107.139 138.59 107.204 138.325 107.293C138.063 107.379 137.851 107.51 137.688 107.686C137.529 107.858 137.45 108.094 137.45 108.392C137.45 108.8 137.601 109.108 137.902 109.317C138.207 109.522 138.593 109.625 139.061 109.625ZM150.708 110.679C150.224 110.679 149.785 110.588 149.39 110.406C148.996 110.22 148.683 109.953 148.451 109.605C148.219 109.254 148.103 108.83 148.103 108.332C148.103 107.895 148.189 107.54 148.361 107.268C148.533 106.993 148.764 106.778 149.052 106.622C149.341 106.466 149.659 106.35 150.007 106.274C150.358 106.195 150.711 106.132 151.066 106.085C151.53 106.026 151.906 105.981 152.194 105.951C152.486 105.918 152.698 105.863 152.831 105.787C152.967 105.711 153.034 105.578 153.034 105.389V105.349C153.034 104.859 152.9 104.478 152.632 104.206C152.367 103.934 151.964 103.798 151.424 103.798C150.864 103.798 150.424 103.921 150.106 104.166C149.788 104.411 149.564 104.673 149.435 104.952L148.321 104.554C148.52 104.09 148.785 103.729 149.117 103.47C149.452 103.208 149.816 103.026 150.211 102.923C150.608 102.817 150.999 102.764 151.384 102.764C151.629 102.764 151.911 102.794 152.229 102.854C152.551 102.91 152.86 103.028 153.159 103.207C153.46 103.386 153.711 103.656 153.909 104.017C154.108 104.378 154.208 104.862 154.208 105.469V110.5H153.034V109.466H152.975C152.895 109.632 152.763 109.809 152.577 109.998C152.391 110.187 152.145 110.348 151.836 110.48C151.528 110.613 151.152 110.679 150.708 110.679ZM150.887 109.625C151.351 109.625 151.742 109.534 152.06 109.352C152.382 109.169 152.623 108.934 152.786 108.646C152.952 108.357 153.034 108.054 153.034 107.736V106.662C152.985 106.722 152.875 106.776 152.706 106.826C152.541 106.872 152.348 106.914 152.13 106.95C151.914 106.983 151.704 107.013 151.498 107.04C151.296 107.063 151.132 107.083 151.006 107.099C150.701 107.139 150.416 107.204 150.151 107.293C149.889 107.379 149.677 107.51 149.515 107.686C149.355 107.858 149.276 108.094 149.276 108.392C149.276 108.8 149.427 109.108 149.728 109.317C150.033 109.522 150.419 109.625 150.887 109.625ZM159.432 113.523C158.865 113.523 158.378 113.45 157.97 113.304C157.562 113.161 157.223 112.973 156.951 112.737C156.682 112.505 156.469 112.257 156.309 111.991L157.244 111.335C157.35 111.474 157.484 111.634 157.647 111.812C157.809 111.995 158.031 112.152 158.313 112.285C158.598 112.421 158.971 112.489 159.432 112.489C160.048 112.489 160.557 112.339 160.958 112.041C161.359 111.743 161.559 111.276 161.559 110.639V109.088H161.46C161.374 109.227 161.251 109.4 161.092 109.605C160.936 109.807 160.711 109.988 160.416 110.147C160.124 110.303 159.73 110.381 159.233 110.381C158.616 110.381 158.063 110.235 157.572 109.943C157.085 109.652 156.699 109.227 156.414 108.67C156.132 108.114 155.991 107.437 155.991 106.642C155.991 105.86 156.129 105.179 156.404 104.599C156.679 104.015 157.062 103.565 157.552 103.246C158.043 102.925 158.61 102.764 159.253 102.764C159.75 102.764 160.144 102.847 160.436 103.013C160.731 103.175 160.956 103.361 161.112 103.57C161.271 103.775 161.394 103.944 161.48 104.077H161.599V102.864H162.733V110.719C162.733 111.375 162.584 111.909 162.285 112.32C161.99 112.734 161.593 113.037 161.092 113.229C160.595 113.425 160.041 113.523 159.432 113.523ZM159.392 109.327C159.863 109.327 160.26 109.219 160.585 109.004C160.91 108.788 161.157 108.478 161.326 108.074C161.495 107.67 161.579 107.186 161.579 106.622C161.579 106.072 161.497 105.586 161.331 105.165C161.165 104.745 160.92 104.415 160.595 104.176C160.27 103.937 159.869 103.818 159.392 103.818C158.895 103.818 158.48 103.944 158.149 104.196C157.821 104.448 157.574 104.786 157.408 105.21C157.246 105.634 157.165 106.105 157.165 106.622C157.165 107.152 157.247 107.621 157.413 108.029C157.582 108.433 157.831 108.752 158.159 108.984C158.49 109.212 158.901 109.327 159.392 109.327ZM167.983 110.659C167.293 110.659 166.689 110.495 166.168 110.167C165.651 109.839 165.247 109.38 164.955 108.79C164.667 108.2 164.523 107.51 164.523 106.722C164.523 105.926 164.667 105.232 164.955 104.638C165.247 104.045 165.651 103.585 166.168 103.256C166.689 102.928 167.293 102.764 167.983 102.764C168.672 102.764 169.275 102.928 169.792 103.256C170.313 103.585 170.717 104.045 171.006 104.638C171.297 105.232 171.443 105.926 171.443 106.722C171.443 107.51 171.297 108.2 171.006 108.79C170.717 109.38 170.313 109.839 169.792 110.167C169.275 110.495 168.672 110.659 167.983 110.659ZM167.983 109.605C168.506 109.605 168.937 109.471 169.275 109.202C169.613 108.934 169.864 108.581 170.026 108.143C170.189 107.706 170.27 107.232 170.27 106.722C170.27 106.211 170.189 105.736 170.026 105.295C169.864 104.854 169.613 104.498 169.275 104.226C168.937 103.954 168.506 103.818 167.983 103.818C167.459 103.818 167.028 103.954 166.69 104.226C166.352 104.498 166.102 104.854 165.939 105.295C165.777 105.736 165.696 106.211 165.696 106.722C165.696 107.232 165.777 107.706 165.939 108.143C166.102 108.581 166.352 108.934 166.69 109.202C167.028 109.471 167.459 109.605 167.983 109.605ZM173.234 110.5V102.864H174.368V104.017H174.447C174.586 103.639 174.838 103.333 175.203 103.097C175.567 102.862 175.978 102.744 176.436 102.744C176.522 102.744 176.63 102.746 176.759 102.749C176.888 102.753 176.986 102.758 177.052 102.764V103.957C177.012 103.947 176.921 103.933 176.779 103.913C176.64 103.889 176.492 103.878 176.336 103.878C175.965 103.878 175.634 103.956 175.342 104.112C175.054 104.264 174.825 104.476 174.656 104.748C174.49 105.016 174.407 105.323 174.407 105.668V110.5H173.234ZM180.69 110.679C180.206 110.679 179.767 110.588 179.373 110.406C178.978 110.22 178.665 109.953 178.433 109.605C178.201 109.254 178.085 108.83 178.085 108.332C178.085 107.895 178.171 107.54 178.344 107.268C178.516 106.993 178.746 106.778 179.035 106.622C179.323 106.466 179.641 106.35 179.989 106.274C180.34 106.195 180.693 106.132 181.048 106.085C181.512 106.026 181.888 105.981 182.177 105.951C182.468 105.918 182.68 105.863 182.813 105.787C182.949 105.711 183.017 105.578 183.017 105.389V105.349C183.017 104.859 182.883 104.478 182.614 104.206C182.349 103.934 181.946 103.798 181.406 103.798C180.846 103.798 180.407 103.921 180.089 104.166C179.77 104.411 179.547 104.673 179.417 104.952L178.304 104.554C178.503 104.09 178.768 103.729 179.099 103.47C179.434 103.208 179.799 103.026 180.193 102.923C180.591 102.817 180.982 102.764 181.366 102.764C181.612 102.764 181.893 102.794 182.211 102.854C182.533 102.91 182.843 103.028 183.141 103.207C183.443 103.386 183.693 103.656 183.892 104.017C184.091 104.378 184.19 104.862 184.19 105.469V110.5H183.017V109.466H182.957C182.878 109.632 182.745 109.809 182.559 109.998C182.374 110.187 182.127 110.348 181.819 110.48C181.51 110.613 181.134 110.679 180.69 110.679ZM180.869 109.625C181.333 109.625 181.724 109.534 182.042 109.352C182.364 109.169 182.606 108.934 182.768 108.646C182.934 108.357 183.017 108.054 183.017 107.736V106.662C182.967 106.722 182.858 106.776 182.689 106.826C182.523 106.872 182.331 106.914 182.112 106.95C181.897 106.983 181.686 107.013 181.481 107.04C181.278 107.063 181.114 107.083 180.988 107.099C180.684 107.139 180.398 107.204 180.133 107.293C179.872 107.379 179.659 107.51 179.497 107.686C179.338 107.858 179.258 108.094 179.258 108.392C179.258 108.8 179.409 109.108 179.711 109.317C180.016 109.522 180.402 109.625 180.869 109.625ZM189.195 111.48H203.195V97.48H189.195V111.48Z" fill="#111827"/>
<rect x="0.5" y="157.5" width="339" height="70" rx="16" fill="white"/>
<rect x="0.5" y="157.5" width="339" height="70" rx="16" stroke="#DADADA"/>
<rect x="30.5" y="176.5" width="96" height="32" rx="4" fill="#F9FAFB"/>
<rect x="30.5" y="176.5" width="96" height="32" rx="4" stroke="#E5E7EB"/>
<path d="M49.4716 188.273V197H48.4148V189.381H48.3636L46.233 190.795V189.722L48.4148 188.273H49.4716ZM54.777 197.119C54.1918 197.119 53.6747 197.016 53.2259 196.808C52.7798 196.598 52.4318 196.31 52.1818 195.943C51.9318 195.574 51.8082 195.153 51.8111 194.682C51.8082 194.312 51.8807 193.972 52.0284 193.659C52.1761 193.344 52.3778 193.081 52.6335 192.871C52.892 192.658 53.1804 192.523 53.4986 192.466V192.415C53.081 192.307 52.7486 192.072 52.5014 191.712C52.2543 191.348 52.1321 190.935 52.1349 190.472C52.1321 190.028 52.2443 189.632 52.4716 189.283C52.6989 188.933 53.0114 188.658 53.4091 188.456C53.8097 188.254 54.2656 188.153 54.777 188.153C55.2827 188.153 55.7344 188.254 56.1321 188.456C56.5298 188.658 56.8423 188.933 57.0696 189.283C57.2997 189.632 57.4162 190.028 57.419 190.472C57.4162 190.935 57.2898 191.348 57.0398 191.712C56.7926 192.072 56.4645 192.307 56.0554 192.415V192.466C56.3707 192.523 56.6548 192.658 56.9077 192.871C57.1605 193.081 57.3622 193.344 57.5128 193.659C57.6634 193.972 57.7401 194.312 57.7429 194.682C57.7401 195.153 57.6122 195.574 57.3594 195.943C57.1094 196.31 56.7614 196.598 56.3153 196.808C55.8722 197.016 55.3594 197.119 54.777 197.119ZM54.777 196.182C55.1719 196.182 55.5128 196.118 55.7997 195.99C56.0866 195.862 56.3082 195.682 56.4645 195.449C56.6207 195.216 56.7003 194.943 56.7031 194.631C56.7003 194.301 56.6151 194.01 56.4474 193.757C56.2798 193.504 56.0511 193.305 55.7614 193.161C55.4744 193.016 55.1463 192.943 54.777 192.943C54.4048 192.943 54.0724 193.016 53.7798 193.161C53.4901 193.305 53.2614 193.504 53.0938 193.757C52.929 194.01 52.848 194.301 52.8509 194.631C52.848 194.943 52.9233 195.216 53.0767 195.449C53.233 195.682 53.456 195.862 53.7457 195.99C54.0355 196.118 54.3793 196.182 54.777 196.182ZM54.777 192.04C55.0895 192.04 55.3665 191.977 55.608 191.852C55.8523 191.727 56.044 191.553 56.1832 191.328C56.3224 191.104 56.3935 190.841 56.3963 190.54C56.3935 190.244 56.3239 189.987 56.1875 189.768C56.0511 189.547 55.8622 189.376 55.6207 189.257C55.3793 189.135 55.098 189.074 54.777 189.074C54.4503 189.074 54.1648 189.135 53.9205 189.257C53.6761 189.376 53.4872 189.547 53.3537 189.768C53.2202 189.987 53.1548 190.244 53.1577 190.54C53.1548 190.841 53.2216 191.104 53.358 191.328C53.4972 191.553 53.6889 191.727 53.9332 191.852C54.1776 191.977 54.4588 192.04 54.777 192.04ZM62.4783 187.864L59.6658 198.312H58.7454L61.5579 187.864H62.4783ZM66.5 197.119C65.858 197.119 65.3111 196.945 64.8594 196.595C64.4077 196.243 64.0625 195.733 63.8239 195.065C63.5852 194.395 63.4659 193.585 63.4659 192.636C63.4659 191.693 63.5852 190.888 63.8239 190.22C64.0653 189.55 64.4119 189.038 64.8636 188.686C65.3182 188.331 65.8636 188.153 66.5 188.153C67.1364 188.153 67.6804 188.331 68.1321 188.686C68.5866 189.038 68.9332 189.55 69.1719 190.22C69.4134 190.888 69.5341 191.693 69.5341 192.636C69.5341 193.585 69.4148 194.395 69.1761 195.065C68.9375 195.733 68.5923 196.243 68.1406 196.595C67.6889 196.945 67.142 197.119 66.5 197.119ZM66.5 196.182C67.1364 196.182 67.6307 195.875 67.983 195.261C68.3352 194.648 68.5114 193.773 68.5114 192.636C68.5114 191.881 68.4304 191.237 68.2685 190.706C68.1094 190.175 67.8793 189.77 67.5781 189.491C67.2798 189.213 66.9205 189.074 66.5 189.074C65.8693 189.074 65.3764 189.385 65.0213 190.007C64.6662 190.626 64.4886 191.503 64.4886 192.636C64.4886 193.392 64.5682 194.034 64.7273 194.562C64.8864 195.091 65.1151 195.493 65.4134 195.768C65.7145 196.044 66.0767 196.182 66.5 196.182ZM71.1534 197V196.233L74.0341 193.08C74.3722 192.71 74.6506 192.389 74.8693 192.116C75.0881 191.841 75.25 191.582 75.3551 191.341C75.4631 191.097 75.517 190.841 75.517 190.574C75.517 190.267 75.4432 190.001 75.2955 189.777C75.1506 189.553 74.9517 189.379 74.6989 189.257C74.446 189.135 74.1619 189.074 73.8466 189.074C73.5114 189.074 73.2188 189.143 72.9688 189.283C72.7216 189.419 72.5298 189.611 72.3935 189.858C72.2599 190.105 72.1932 190.395 72.1932 190.727H71.1875C71.1875 190.216 71.3054 189.767 71.5412 189.381C71.777 188.994 72.098 188.693 72.5043 188.477C72.9134 188.261 73.3722 188.153 73.8807 188.153C74.392 188.153 74.8452 188.261 75.2401 188.477C75.6349 188.693 75.9446 188.984 76.169 189.351C76.3935 189.717 76.5057 190.125 76.5057 190.574C76.5057 190.895 76.4474 191.209 76.331 191.516C76.2173 191.82 76.0185 192.159 75.7344 192.534C75.4531 192.906 75.0625 193.361 74.5625 193.898L72.6023 195.994V196.062H76.6591V197H71.1534ZM81.5213 187.864L78.7088 198.312H77.7884L80.6009 187.864H81.5213ZM82.6964 197V196.233L85.5771 193.08C85.9151 192.71 86.1935 192.389 86.4123 192.116C86.631 191.841 86.793 191.582 86.8981 191.341C87.006 191.097 87.06 190.841 87.06 190.574C87.06 190.267 86.9862 190.001 86.8384 189.777C86.6935 189.553 86.4947 189.379 86.2418 189.257C85.989 189.135 85.7049 189.074 85.3896 189.074C85.0543 189.074 84.7617 189.143 84.5117 189.283C84.2646 189.419 84.0728 189.611 83.9364 189.858C83.8029 190.105 83.7362 190.395 83.7362 190.727H82.7305C82.7305 190.216 82.8484 189.767 83.0842 189.381C83.32 188.994 83.641 188.693 84.0472 188.477C84.4563 188.261 84.9151 188.153 85.4237 188.153C85.935 188.153 86.3881 188.261 86.783 188.477C87.1779 188.693 87.4876 188.984 87.712 189.351C87.9364 189.717 88.0487 190.125 88.0487 190.574C88.0487 190.895 87.9904 191.209 87.8739 191.516C87.7603 191.82 87.5614 192.159 87.2773 192.534C86.9961 192.906 86.6055 193.361 86.1055 193.898L84.1452 195.994V196.062H88.2021V197H82.6964ZM92.8086 197.119C92.1665 197.119 91.6197 196.945 91.168 196.595C90.7163 196.243 90.3711 195.733 90.1325 195.065C89.8938 194.395 89.7745 193.585 89.7745 192.636C89.7745 191.693 89.8938 190.888 90.1325 190.22C90.3739 189.55 90.7205 189.038 91.1722 188.686C91.6268 188.331 92.1722 188.153 92.8086 188.153C93.445 188.153 93.989 188.331 94.4407 188.686C94.8952 189.038 95.2418 189.55 95.4805 190.22C95.7219 190.888 95.8427 191.693 95.8427 192.636C95.8427 193.585 95.7234 194.395 95.4847 195.065C95.2461 195.733 94.9009 196.243 94.4492 196.595C93.9975 196.945 93.4506 197.119 92.8086 197.119ZM92.8086 196.182C93.445 196.182 93.9393 195.875 94.2915 195.261C94.6438 194.648 94.82 193.773 94.82 192.636C94.82 191.881 94.739 191.237 94.5771 190.706C94.418 190.175 94.1879 189.77 93.8867 189.491C93.5884 189.213 93.229 189.074 92.8086 189.074C92.1779 189.074 91.685 189.385 91.3299 190.007C90.9748 190.626 90.7972 191.503 90.7972 192.636C90.7972 193.392 90.8768 194.034 91.0359 194.562C91.195 195.091 91.4237 195.493 91.7219 195.768C92.0231 196.044 92.3853 196.182 92.8086 196.182ZM97.462 197V196.233L100.343 193.08C100.681 192.71 100.959 192.389 101.178 192.116C101.397 191.841 101.559 191.582 101.664 191.341C101.772 191.097 101.826 190.841 101.826 190.574C101.826 190.267 101.752 190.001 101.604 189.777C101.459 189.553 101.26 189.379 101.007 189.257C100.755 189.135 100.471 189.074 100.155 189.074C99.82 189.074 99.5273 189.143 99.2773 189.283C99.0302 189.419 98.8384 189.611 98.7021 189.858C98.5685 190.105 98.5018 190.395 98.5018 190.727H97.4961C97.4961 190.216 97.614 189.767 97.8498 189.381C98.0856 188.994 98.4066 188.693 98.8129 188.477C99.2219 188.261 99.6808 188.153 100.189 188.153C100.701 188.153 101.154 188.261 101.549 188.477C101.944 188.693 102.253 188.984 102.478 189.351C102.702 189.717 102.814 190.125 102.814 190.574C102.814 190.895 102.756 191.209 102.64 191.516C102.526 191.82 102.327 192.159 102.043 192.534C101.762 192.906 101.371 193.361 100.871 193.898L98.9109 195.994V196.062H102.968V197H97.462ZM107.625 197.119C107.267 197.114 106.909 197.045 106.551 196.915C106.194 196.784 105.867 196.564 105.571 196.254C105.276 195.942 105.039 195.52 104.86 194.989C104.681 194.455 104.591 193.784 104.591 192.977C104.591 192.205 104.664 191.52 104.809 190.923C104.953 190.324 105.164 189.82 105.439 189.411C105.715 188.999 106.047 188.686 106.436 188.473C106.828 188.26 107.27 188.153 107.762 188.153C108.25 188.153 108.685 188.251 109.066 188.447C109.449 188.641 109.762 188.911 110.003 189.257C110.245 189.604 110.401 190.003 110.472 190.455H109.432C109.336 190.062 109.148 189.737 108.87 189.479C108.591 189.22 108.222 189.091 107.762 189.091C107.086 189.091 106.553 189.385 106.164 189.973C105.777 190.561 105.583 191.386 105.58 192.449H105.648C105.807 192.207 105.996 192.001 106.215 191.831C106.436 191.658 106.681 191.524 106.948 191.43C107.215 191.337 107.498 191.29 107.796 191.29C108.296 191.29 108.753 191.415 109.168 191.665C109.583 191.912 109.915 192.254 110.165 192.692C110.415 193.126 110.54 193.625 110.54 194.188C110.54 194.727 110.419 195.222 110.178 195.67C109.936 196.116 109.597 196.472 109.159 196.736C108.725 196.997 108.213 197.125 107.625 197.119ZM107.625 196.182C107.983 196.182 108.304 196.092 108.588 195.913C108.875 195.734 109.101 195.494 109.266 195.193C109.434 194.892 109.517 194.557 109.517 194.188C109.517 193.827 109.436 193.499 109.275 193.203C109.115 192.905 108.895 192.668 108.614 192.491C108.336 192.315 108.017 192.227 107.659 192.227C107.39 192.227 107.138 192.281 106.905 192.389C106.672 192.494 106.468 192.639 106.292 192.824C106.118 193.009 105.982 193.22 105.882 193.459C105.783 193.695 105.733 193.943 105.733 194.205C105.733 194.551 105.814 194.875 105.976 195.176C106.141 195.477 106.365 195.72 106.65 195.905C106.936 196.089 107.262 196.182 107.625 196.182Z" fill="#6B7280"/>
<rect x="134.5" y="176.5" width="80" height="32" rx="4" fill="#F9FAFB"/>
<rect x="134.5" y="176.5" width="80" height="32" rx="4" stroke="#E5E7EB"/>
<path d="M162.472 188.273V197H161.415V189.381H161.364L159.233 190.795V189.722L161.415 188.273H162.472ZM167.709 197.119C167.209 197.119 166.759 197.02 166.358 196.821C165.957 196.622 165.636 196.349 165.395 196.003C165.153 195.656 165.021 195.261 164.999 194.818H166.021C166.061 195.213 166.24 195.54 166.558 195.798C166.879 196.054 167.263 196.182 167.709 196.182C168.067 196.182 168.385 196.098 168.663 195.93C168.945 195.763 169.165 195.533 169.324 195.24C169.486 194.945 169.567 194.611 169.567 194.239C169.567 193.858 169.483 193.518 169.315 193.22C169.151 192.919 168.923 192.682 168.634 192.509C168.344 192.335 168.013 192.247 167.641 192.244C167.374 192.241 167.099 192.283 166.818 192.368C166.537 192.45 166.305 192.557 166.124 192.688L165.135 192.568L165.663 188.273H170.197V189.21H166.55L166.243 191.784H166.294C166.473 191.642 166.697 191.524 166.967 191.43C167.237 191.337 167.518 191.29 167.811 191.29C168.345 191.29 168.821 191.418 169.239 191.673C169.659 191.926 169.989 192.273 170.227 192.713C170.469 193.153 170.589 193.656 170.589 194.222C170.589 194.778 170.464 195.276 170.214 195.713C169.967 196.148 169.626 196.491 169.192 196.744C168.757 196.994 168.263 197.119 167.709 197.119ZM173.032 195.884C172.822 195.884 172.642 195.808 172.491 195.658C172.341 195.507 172.265 195.327 172.265 195.116C172.265 194.906 172.341 194.726 172.491 194.575C172.642 194.425 172.822 194.349 173.032 194.349C173.243 194.349 173.423 194.425 173.574 194.575C173.724 194.726 173.799 194.906 173.799 195.116C173.799 195.256 173.764 195.384 173.693 195.5C173.625 195.616 173.532 195.71 173.416 195.781C173.302 195.849 173.174 195.884 173.032 195.884ZM173.032 191.469C172.822 191.469 172.642 191.393 172.491 191.243C172.341 191.092 172.265 190.912 172.265 190.702C172.265 190.491 172.341 190.311 172.491 190.161C172.642 190.01 172.822 189.935 173.032 189.935C173.243 189.935 173.423 190.01 173.574 190.161C173.724 190.311 173.799 190.491 173.799 190.702C173.799 190.841 173.764 190.969 173.693 191.085C173.625 191.202 173.532 191.295 173.416 191.366C173.302 191.435 173.174 191.469 173.032 191.469ZM178.536 197.119C177.973 197.119 177.472 197.023 177.032 196.83C176.594 196.636 176.246 196.368 175.988 196.024C175.732 195.678 175.593 195.276 175.57 194.818H176.644C176.667 195.099 176.763 195.342 176.934 195.547C177.104 195.749 177.327 195.905 177.603 196.016C177.878 196.126 178.184 196.182 178.519 196.182C178.894 196.182 179.226 196.116 179.516 195.986C179.806 195.855 180.033 195.673 180.198 195.44C180.363 195.207 180.445 194.938 180.445 194.631C180.445 194.31 180.365 194.027 180.206 193.783C180.047 193.536 179.814 193.342 179.507 193.203C179.201 193.064 178.826 192.994 178.382 192.994H177.684V192.057H178.382C178.729 192.057 179.033 191.994 179.294 191.869C179.559 191.744 179.765 191.568 179.912 191.341C180.063 191.114 180.138 190.847 180.138 190.54C180.138 190.244 180.073 189.987 179.942 189.768C179.811 189.55 179.627 189.379 179.388 189.257C179.152 189.135 178.874 189.074 178.553 189.074C178.252 189.074 177.968 189.129 177.701 189.24C177.436 189.348 177.221 189.506 177.053 189.713C176.885 189.918 176.794 190.165 176.78 190.455H175.757C175.775 189.997 175.912 189.597 176.171 189.253C176.429 188.906 176.767 188.636 177.185 188.443C177.605 188.25 178.067 188.153 178.57 188.153C179.11 188.153 179.573 188.263 179.959 188.482C180.346 188.697 180.642 188.983 180.85 189.338C181.057 189.693 181.161 190.077 181.161 190.489C181.161 190.98 181.032 191.399 180.773 191.746C180.517 192.092 180.169 192.332 179.729 192.466V192.534C180.28 192.625 180.711 192.859 181.02 193.237C181.33 193.612 181.485 194.077 181.485 194.631C181.485 195.105 181.355 195.531 181.097 195.909C180.841 196.284 180.492 196.58 180.049 196.795C179.605 197.011 179.101 197.119 178.536 197.119ZM186.074 197.119C185.432 197.119 184.885 196.945 184.434 196.595C183.982 196.243 183.637 195.733 183.398 195.065C183.159 194.395 183.04 193.585 183.04 192.636C183.04 191.693 183.159 190.888 183.398 190.22C183.64 189.55 183.986 189.038 184.438 188.686C184.892 188.331 185.438 188.153 186.074 188.153C186.711 188.153 187.255 188.331 187.706 188.686C188.161 189.038 188.507 189.55 188.746 190.22C188.988 190.888 189.108 191.693 189.108 192.636C189.108 193.585 188.989 194.395 188.75 195.065C188.512 195.733 188.167 196.243 187.715 196.595C187.263 196.945 186.716 197.119 186.074 197.119ZM186.074 196.182C186.711 196.182 187.205 195.875 187.557 195.261C187.909 194.648 188.086 193.773 188.086 192.636C188.086 191.881 188.005 191.237 187.843 190.706C187.684 190.175 187.453 189.77 187.152 189.491C186.854 189.213 186.495 189.074 186.074 189.074C185.444 189.074 184.951 189.385 184.596 190.007C184.24 190.626 184.063 191.503 184.063 192.636C184.063 193.392 184.142 194.034 184.301 194.562C184.461 195.091 184.689 195.493 184.988 195.768C185.289 196.044 185.651 196.182 186.074 196.182Z" fill="#6B7280"/>
<rect x="222.5" y="176.5" width="87" height="32" rx="4" fill="#EB4699"/>
<path d="M237.057 197V188.273H240.006C240.69 188.273 241.25 188.396 241.685 188.643C242.122 188.888 242.446 189.219 242.656 189.636C242.866 190.054 242.972 190.52 242.972 191.034C242.972 191.548 242.866 192.016 242.656 192.436C242.449 192.857 242.128 193.192 241.693 193.442C241.259 193.689 240.702 193.812 240.023 193.812H237.909V192.875H239.989C240.457 192.875 240.834 192.794 241.118 192.632C241.402 192.47 241.608 192.251 241.736 191.976C241.866 191.697 241.932 191.384 241.932 191.034C241.932 190.685 241.866 190.372 241.736 190.097C241.608 189.821 241.401 189.605 241.114 189.449C240.827 189.29 240.446 189.21 239.972 189.21H238.114V197H237.057ZM244.538 197V190.455H245.509V191.443H245.577C245.697 191.119 245.913 190.857 246.225 190.655C246.538 190.453 246.89 190.352 247.282 190.352C247.356 190.352 247.448 190.354 247.559 190.357C247.67 190.359 247.754 190.364 247.81 190.369V191.392C247.776 191.384 247.698 191.371 247.576 191.354C247.457 191.334 247.33 191.324 247.197 191.324C246.879 191.324 246.594 191.391 246.344 191.524C246.097 191.655 245.901 191.837 245.756 192.07C245.614 192.3 245.543 192.562 245.543 192.858V197H244.538ZM251.462 197.136C250.871 197.136 250.353 196.996 249.907 196.714C249.464 196.433 249.117 196.04 248.867 195.534C248.62 195.028 248.496 194.437 248.496 193.761C248.496 193.08 248.62 192.484 248.867 191.976C249.117 191.467 249.464 191.072 249.907 190.791C250.353 190.51 250.871 190.369 251.462 190.369C252.053 190.369 252.57 190.51 253.013 190.791C253.46 191.072 253.806 191.467 254.053 191.976C254.303 192.484 254.428 193.08 254.428 193.761C254.428 194.437 254.303 195.028 254.053 195.534C253.806 196.04 253.46 196.433 253.013 196.714C252.57 196.996 252.053 197.136 251.462 197.136ZM251.462 196.233C251.911 196.233 252.281 196.118 252.57 195.888C252.86 195.658 253.075 195.355 253.214 194.98C253.353 194.605 253.423 194.199 253.423 193.761C253.423 193.324 253.353 192.916 253.214 192.538C253.075 192.161 252.86 191.855 252.57 191.622C252.281 191.389 251.911 191.273 251.462 191.273C251.013 191.273 250.644 191.389 250.354 191.622C250.065 191.855 249.85 192.161 249.711 192.538C249.572 192.916 249.502 193.324 249.502 193.761C249.502 194.199 249.572 194.605 249.711 194.98C249.85 195.355 250.065 195.658 250.354 195.888C250.644 196.118 251.013 196.233 251.462 196.233ZM258.605 199.591C258.12 199.591 257.702 199.528 257.353 199.403C257.003 199.281 256.712 199.119 256.479 198.918C256.249 198.719 256.066 198.506 255.929 198.278L256.73 197.716C256.821 197.835 256.936 197.972 257.076 198.125C257.215 198.281 257.405 198.416 257.647 198.53C257.891 198.646 258.211 198.705 258.605 198.705C259.134 198.705 259.57 198.577 259.914 198.321C260.257 198.065 260.429 197.665 260.429 197.119V195.79H260.344C260.27 195.909 260.165 196.057 260.029 196.233C259.895 196.406 259.702 196.561 259.449 196.697C259.199 196.831 258.861 196.898 258.435 196.898C257.907 196.898 257.432 196.773 257.012 196.523C256.594 196.273 256.263 195.909 256.019 195.432C255.777 194.955 255.657 194.375 255.657 193.693C255.657 193.023 255.775 192.439 256.01 191.942C256.246 191.442 256.574 191.055 256.995 190.783C257.415 190.507 257.901 190.369 258.452 190.369C258.878 190.369 259.216 190.44 259.466 190.582C259.719 190.722 259.912 190.881 260.046 191.06C260.182 191.236 260.287 191.381 260.361 191.494H260.463V190.455H261.435V197.188C261.435 197.75 261.307 198.207 261.051 198.56C260.799 198.915 260.458 199.175 260.029 199.339C259.603 199.507 259.128 199.591 258.605 199.591ZM258.571 195.994C258.975 195.994 259.316 195.902 259.594 195.717C259.873 195.533 260.084 195.267 260.229 194.92C260.374 194.574 260.446 194.159 260.446 193.676C260.446 193.205 260.375 192.788 260.233 192.428C260.091 192.067 259.881 191.784 259.603 191.58C259.324 191.375 258.98 191.273 258.571 191.273C258.145 191.273 257.79 191.381 257.506 191.597C257.225 191.812 257.013 192.102 256.871 192.466C256.732 192.83 256.662 193.233 256.662 193.676C256.662 194.131 256.733 194.533 256.875 194.882C257.02 195.229 257.233 195.501 257.515 195.7C257.799 195.896 258.151 195.994 258.571 195.994ZM263.276 197V190.455H264.248V191.443H264.316C264.435 191.119 264.651 190.857 264.963 190.655C265.276 190.453 265.628 190.352 266.02 190.352C266.094 190.352 266.186 190.354 266.297 190.357C266.408 190.359 266.492 190.364 266.549 190.369V191.392C266.515 191.384 266.436 191.371 266.314 191.354C266.195 191.334 266.069 191.324 265.935 191.324C265.617 191.324 265.333 191.391 265.083 191.524C264.836 191.655 264.64 191.837 264.495 192.07C264.353 192.3 264.282 192.562 264.282 192.858V197H263.276ZM269.667 197.153C269.252 197.153 268.876 197.075 268.538 196.919C268.2 196.76 267.931 196.531 267.732 196.233C267.533 195.932 267.434 195.568 267.434 195.142C267.434 194.767 267.508 194.463 267.656 194.23C267.803 193.994 268.001 193.81 268.248 193.676C268.495 193.543 268.768 193.443 269.066 193.378C269.367 193.31 269.67 193.256 269.974 193.216C270.371 193.165 270.694 193.126 270.941 193.101C271.191 193.072 271.373 193.026 271.487 192.96C271.603 192.895 271.661 192.781 271.661 192.619V192.585C271.661 192.165 271.546 191.838 271.316 191.605C271.089 191.372 270.744 191.256 270.281 191.256C269.8 191.256 269.424 191.361 269.151 191.571C268.879 191.781 268.687 192.006 268.576 192.244L267.621 191.903C267.792 191.506 268.019 191.196 268.303 190.974C268.59 190.75 268.903 190.594 269.241 190.506C269.582 190.415 269.917 190.369 270.246 190.369C270.457 190.369 270.698 190.395 270.971 190.446C271.246 190.494 271.512 190.595 271.768 190.749C272.026 190.902 272.241 191.134 272.411 191.443C272.582 191.753 272.667 192.168 272.667 192.688V197H271.661V196.114H271.61C271.542 196.256 271.428 196.408 271.269 196.57C271.11 196.732 270.898 196.869 270.634 196.983C270.37 197.097 270.048 197.153 269.667 197.153ZM269.82 196.25C270.218 196.25 270.553 196.172 270.826 196.016C271.102 195.859 271.309 195.658 271.448 195.411C271.59 195.163 271.661 194.903 271.661 194.631V193.71C271.619 193.761 271.525 193.808 271.38 193.851C271.238 193.891 271.073 193.926 270.886 193.957C270.701 193.986 270.521 194.011 270.344 194.034C270.171 194.054 270.031 194.071 269.923 194.085C269.661 194.119 269.417 194.175 269.19 194.251C268.965 194.325 268.783 194.437 268.644 194.588C268.508 194.736 268.44 194.937 268.44 195.193C268.44 195.543 268.569 195.807 268.827 195.986C269.089 196.162 269.42 196.25 269.82 196.25ZM274.502 197V190.455H275.474V191.477H275.559C275.696 191.128 275.916 190.857 276.22 190.663C276.524 190.467 276.889 190.369 277.315 190.369C277.747 190.369 278.106 190.467 278.393 190.663C278.683 190.857 278.909 191.128 279.071 191.477H279.139C279.306 191.139 279.558 190.871 279.893 190.672C280.228 190.47 280.63 190.369 281.099 190.369C281.684 190.369 282.163 190.553 282.535 190.919C282.907 191.283 283.093 191.849 283.093 192.619V197H282.088V192.619C282.088 192.136 281.956 191.791 281.691 191.584C281.427 191.376 281.116 191.273 280.758 191.273C280.298 191.273 279.941 191.412 279.689 191.69C279.436 191.966 279.309 192.315 279.309 192.739V197H278.287V192.517C278.287 192.145 278.166 191.845 277.924 191.618C277.683 191.388 277.372 191.273 276.991 191.273C276.73 191.273 276.485 191.342 276.258 191.482C276.034 191.621 275.852 191.814 275.713 192.061C275.576 192.305 275.508 192.588 275.508 192.909V197H274.502ZM286.858 197.153C286.444 197.153 286.067 197.075 285.729 196.919C285.391 196.76 285.123 196.531 284.924 196.233C284.725 195.932 284.625 195.568 284.625 195.142C284.625 194.767 284.699 194.463 284.847 194.23C284.995 193.994 285.192 193.81 285.439 193.676C285.686 193.543 285.959 193.443 286.257 193.378C286.559 193.31 286.861 193.256 287.165 193.216C287.563 193.165 287.885 193.126 288.132 193.101C288.382 193.072 288.564 193.026 288.678 192.96C288.794 192.895 288.853 192.781 288.853 192.619V192.585C288.853 192.165 288.738 191.838 288.507 191.605C288.28 191.372 287.935 191.256 287.472 191.256C286.992 191.256 286.615 191.361 286.343 191.571C286.07 191.781 285.878 192.006 285.767 192.244L284.813 191.903C284.983 191.506 285.211 191.196 285.495 190.974C285.782 190.75 286.094 190.594 286.432 190.506C286.773 190.415 287.108 190.369 287.438 190.369C287.648 190.369 287.89 190.395 288.162 190.446C288.438 190.494 288.703 190.595 288.959 190.749C289.218 190.902 289.432 191.134 289.603 191.443C289.773 191.753 289.858 192.168 289.858 192.688V197H288.853V196.114H288.801C288.733 196.256 288.62 196.408 288.461 196.57C288.301 196.732 288.09 196.869 287.826 196.983C287.561 197.097 287.239 197.153 286.858 197.153ZM287.012 196.25C287.409 196.25 287.745 196.172 288.017 196.016C288.293 195.859 288.5 195.658 288.64 195.411C288.782 195.163 288.853 194.903 288.853 194.631V193.71C288.81 193.761 288.716 193.808 288.571 193.851C288.429 193.891 288.265 193.926 288.077 193.957C287.892 193.986 287.712 194.011 287.536 194.034C287.363 194.054 287.222 194.071 287.114 194.085C286.853 194.119 286.608 194.175 286.381 194.251C286.157 194.325 285.975 194.437 285.836 194.588C285.699 194.736 285.631 194.937 285.631 195.193C285.631 195.543 285.76 195.807 286.019 195.986C286.28 196.162 286.611 196.25 287.012 196.25ZM291.694 197V190.455H292.665V191.443H292.734C292.853 191.119 293.069 190.857 293.381 190.655C293.694 190.453 294.046 190.352 294.438 190.352C294.512 190.352 294.604 190.354 294.715 190.357C294.826 190.359 294.91 190.364 294.967 190.369V191.392C294.933 191.384 294.854 191.371 294.732 191.354C294.613 191.334 294.487 191.324 294.353 191.324C294.035 191.324 293.751 191.391 293.501 191.524C293.254 191.655 293.058 191.837 292.913 192.07C292.771 192.3 292.7 192.562 292.7 192.858V197H291.694Z" fill="white"/>
</svg>
