<svg width="154" height="25" viewBox="0 0 154 25" fill="none" xmlns="http://www.w3.org/2000/svg">
<path d="M10.2132 0H9.88883C9.19123 0 8.7078 0.494247 8.7078 1.19987V6.14234C7.88475 5.48024 6.77104 5.13209 5.43702 5.13209C2.08363 5.13209 0 7.17124 0 10.4538V13.5374C0 16.8355 2.09281 18.884 5.4615 18.884C6.89036 18.884 8.06221 18.4923 8.8975 17.7432C8.98623 18.3835 9.43294 18.7845 10.0877 18.7845H10.1611C10.9108 18.7845 11.3942 18.284 11.3942 17.5069V1.19987C11.3942 0.494247 10.9077 0 10.2132 0ZM8.7078 13.6897C8.7078 15.5952 7.69811 16.5588 5.70933 16.5588C3.72055 16.5588 2.71086 15.5921 2.71086 13.6897V10.3015C2.71086 8.41463 3.72055 7.45722 5.70933 7.45722C7.69811 7.45722 8.7078 8.41463 8.7078 10.3015V13.6897Z" fill="#1E1E1E"/>
<path d="M25.7929 16.2572H22.2468V6.51212C22.2468 6.01166 22.054 5.41172 21.1392 5.41172H16.2131C15.745 5.41172 15.4054 5.75676 15.4054 6.23236V6.94109C15.4054 7.41669 15.745 7.76173 16.2131 7.76173H19.5359V16.2572H15.9653C15.4972 16.2572 15.1575 16.6022 15.1575 17.0778V17.7865C15.1575 18.2621 15.4972 18.6072 15.9653 18.6072H25.796C26.2794 18.6072 26.6037 18.2777 26.6037 17.7865V17.0778C26.6037 16.5867 26.2794 16.2572 25.796 16.2572H25.7929Z" fill="#1E1E1E"/>
<path d="M20.2427 0.202177H20.9893C21.6838 0.202177 22.2468 0.774136 22.2468 1.47976V2.64233C22.2468 3.34795 21.6838 3.91991 20.9893 3.91991H20.2427C19.5482 3.91991 18.9852 3.34795 18.9852 2.64233V1.47976C18.9852 0.774136 19.5482 0.202177 20.2427 0.202177Z" fill="#1E1E1E"/>
<path d="M37.4504 10.9232L34.5131 10.5688C33.1179 10.401 32.8456 9.97512 32.8456 9.29126V9.03947C32.8456 8.63537 32.8456 7.40752 35.7186 7.40752C38.1786 7.40752 38.4937 8.21262 38.4937 8.91202V9.18868C38.4937 9.58345 38.7752 9.86011 39.1791 9.86011H40.3999C40.8038 9.86011 41.0853 9.5648 41.0853 9.13894V8.88716C41.0853 7.17439 40.1551 5.13212 35.7217 5.13212C32.2 5.13212 30.2602 6.59 30.2602 9.24152V9.46844C30.2602 12.0733 31.8237 12.7914 34.1674 13.068L37.1047 13.4224C38.3622 13.5716 38.7477 13.8669 38.7477 14.6751V14.9549C38.7477 16.3941 36.8997 16.6117 35.7982 16.6117C33.1332 16.6117 32.8242 15.7382 32.8242 15.0823V14.7031C32.8242 14.3021 32.558 14.0317 32.1664 14.0317H30.9456C30.5264 14.0317 30.2357 14.3177 30.2357 14.728V15.1072C30.2357 17.6157 32.1082 18.8871 35.7982 18.8871C39.4881 18.8871 41.3362 17.3795 41.3362 14.7528V14.4762C41.3362 11.9117 39.7849 11.203 37.4535 10.9263L37.4504 10.9232Z" fill="#1E1E1E"/>
<path d="M51.1025 5.13212C49.6736 5.13212 48.5018 5.52379 47.6665 6.27293C47.5839 5.64502 47.1249 5.2347 46.4732 5.2347H46.3998C45.6502 5.2347 45.1667 5.72584 45.1667 6.48742V22.7447C45.1667 23.4535 45.6532 23.9446 46.3478 23.9446H46.6721C47.3666 23.9446 47.8531 23.4503 47.8531 22.7447V17.88C48.6762 18.5421 49.7899 18.8902 51.127 18.8902C54.4803 18.8902 56.564 16.8417 56.564 13.5436V10.46C56.564 7.1775 54.4712 5.13834 51.1025 5.13834V5.13212ZM53.8531 13.6897C53.8531 15.5952 52.8434 16.5589 50.8546 16.5589C48.8659 16.5589 47.8562 15.5921 47.8562 13.6897V10.3015C47.8562 8.43954 48.8934 7.45726 50.8546 7.45726C52.8159 7.45726 53.8531 8.41467 53.8531 10.3015V13.6897Z" fill="#1E1E1E"/>
<path d="M77.0945 18.6074H84.56C85.0282 18.6074 85.3678 18.2624 85.3678 17.7868V17.0781C85.3678 16.6025 85.0282 16.2574 84.56 16.2574H81.736V9.67059C81.736 8.20339 82.5774 7.45736 84.2388 7.45736C85.9002 7.45736 86.714 8.17541 86.714 9.59288V10.5783C86.714 11.2248 87.1087 11.6289 87.7482 11.6289H88.2959C88.9476 11.6289 89.3545 11.2279 89.3545 10.5783V9.59288C89.3545 6.71443 87.6258 5.12911 84.4897 5.12911C82.4611 5.12911 81.0047 5.81298 80.252 7.11543L78.8109 5.65134C78.3306 5.16331 77.7156 5.15398 77.2505 5.62647L76.9537 5.9311C76.7212 6.16734 76.6049 6.444 76.6141 6.73308C76.6233 7.01285 76.7487 7.28328 76.9782 7.51642L79.0526 9.62396V16.2574H77.1006C76.6263 16.2574 76.2683 16.6118 76.2683 17.0781V17.7868C76.2683 18.2562 76.6263 18.6074 77.1006 18.6074H77.0945Z" fill="#1E1E1E"/>
<path d="M97.6492 5.13212C93.9103 5.13212 91.7624 7.08113 91.7624 10.4787V13.5374C91.7624 16.935 93.9072 18.884 97.6492 18.884C101.391 18.884 103.536 16.935 103.536 13.5374V10.4787C103.536 7.08113 101.391 5.13212 97.6492 5.13212ZM100.822 13.7146C100.822 16.0646 99.0964 16.5589 97.6492 16.5589C96.202 16.5589 94.4763 16.0646 94.4763 13.7146V10.3015C94.4763 7.95151 96.202 7.45726 97.6492 7.45726C99.0964 7.45726 100.822 7.95151 100.822 10.3015V13.7146Z" fill="#1E1E1E"/>
<path d="M118.366 5.71649C116.937 5.71649 115.765 6.10816 114.93 6.8573C114.848 6.22939 114.389 5.81907 113.737 5.81907H113.663C112.914 5.81907 112.43 6.31021 112.43 7.07178V23.3291C112.43 24.0378 112.917 24.529 113.611 24.529H113.936C114.63 24.529 115.117 24.0347 115.117 23.3291V18.4643C115.94 19.1264 117.054 19.4746 118.391 19.4746C121.744 19.4746 123.828 17.4261 123.828 14.128V11.0444C123.828 7.76187 121.735 5.72271 118.366 5.72271V5.71649ZM121.117 14.2741C121.117 16.1796 120.107 17.1432 118.118 17.1432C116.13 17.1432 115.12 16.1765 115.12 14.2741V10.8859C115.12 9.0239 116.157 8.04163 118.118 8.04163C120.08 8.04163 121.117 8.99904 121.117 10.8859V14.2741Z" fill="#EB4699"/>
<path d="M134.644 5.13212C132.612 5.13212 131.159 5.81599 130.406 7.11843L128.965 5.65435C128.735 5.42121 128.469 5.29376 128.194 5.28444C127.906 5.27511 127.637 5.39634 127.404 5.62948L127.105 5.93411C126.64 6.4066 126.649 7.02829 127.129 7.51943L129.204 9.62697V16.2604H127.248C126.774 16.2604 126.416 16.6148 126.416 17.0811V17.7898C126.416 18.2592 126.774 18.6105 127.248 18.6105H134.714C135.182 18.6105 135.522 18.2654 135.522 17.7898V17.0811C135.522 16.6055 135.182 16.2604 134.714 16.2604H131.89V9.6736C131.89 8.2064 132.731 7.46037 134.39 7.46037C136.048 7.46037 136.865 8.17842 136.865 9.59589V10.5813C136.865 11.2278 137.26 11.6319 137.899 11.6319H138.447C139.098 11.6319 139.505 11.2309 139.505 10.5813V9.59589C139.505 6.71744 137.777 5.13212 134.641 5.13212H134.644Z" fill="#EB4699"/>
<path d="M147.806 5.13212C144.067 5.13212 141.919 7.08113 141.919 10.4787V13.5374C141.919 16.935 144.064 18.884 147.806 18.884C151.548 18.884 153.693 16.935 153.693 13.5374V10.4787C153.693 7.08113 151.548 5.13212 147.806 5.13212ZM150.979 13.7146C150.979 16.0646 149.254 16.5589 147.806 16.5589C146.359 16.5589 144.633 16.0646 144.633 13.7146V10.3015C144.633 7.95151 146.359 7.45726 147.806 7.45726C149.254 7.45726 150.979 7.95151 150.979 10.3015V13.7146Z" fill="#EB4699"/>
<path d="M59.7522 5.5332V8.40854H68.0347L59.9266 16.6429L61.9276 18.6758L70.0755 10.398V18.8934H72.9026V5.5332H59.7522Z" fill="#1E1E1E"/>
</svg>
