<svg width="278" height="45" viewBox="0 0 278 45" fill="none" xmlns="http://www.w3.org/2000/svg">
<path d="M18.4688 0H17.8823C16.6208 0 15.7466 0.896971 15.7466 2.17755V11.1473C14.2583 9.94566 12.2443 9.31383 9.83196 9.31383C3.76791 9.31383 0 13.0145 0 18.9718V24.568C0 30.5534 3.78451 34.2711 9.87623 34.2711C12.4601 34.2711 14.5792 33.5602 16.0897 32.2007C16.2501 33.3628 17.0579 34.0905 18.242 34.0905H18.3748C19.7303 34.0905 20.6045 33.1823 20.6045 31.7719V2.17755C20.6045 0.896971 19.7248 0 18.4688 0ZM15.7466 24.8444C15.7466 28.3025 13.9208 30.0513 10.3244 30.0513C6.72801 30.0513 4.90215 28.2969 4.90215 24.8444V18.6954C4.90215 15.2711 6.72801 13.5335 10.3244 13.5335C13.9208 13.5335 15.7466 15.2711 15.7466 18.6954V24.8444Z" fill="white"/>
<path d="M46.6422 29.5044H40.2295V11.8188C40.2295 10.9106 39.881 9.82178 38.2266 9.82178H29.3187C28.4721 9.82178 27.858 10.448 27.858 11.3111V12.5973C27.858 13.4604 28.4721 14.0866 29.3187 14.0866H35.3274V29.5044H28.8705C28.024 29.5044 27.4098 30.1305 27.4098 30.9937V32.2799C27.4098 33.143 28.024 33.7692 28.8705 33.7692H46.6477C47.5219 33.7692 48.1084 33.1712 48.1084 32.2799V30.9937C48.1084 30.1023 47.5219 29.5044 46.6477 29.5044H46.6422Z" fill="white"/>
<path d="M36.6055 0.366699H37.9556C39.2115 0.366699 40.2296 1.4047 40.2296 2.68528V4.79514C40.2296 6.07572 39.2115 7.11372 37.9556 7.11372H36.6055C35.3496 7.11372 34.3315 6.07572 34.3315 4.79514V2.68528C34.3315 1.4047 35.3496 0.366699 36.6055 0.366699Z" fill="white"/>
<path d="M67.7228 19.8238L62.4112 19.1806C59.8882 18.876 59.3957 18.1032 59.3957 16.8621V16.4051C59.3957 15.6717 59.3957 13.4434 64.5911 13.4434C69.0396 13.4434 69.6095 14.9045 69.6095 16.1738V16.6759C69.6095 17.3923 70.1185 17.8944 70.8488 17.8944H73.0565C73.7868 17.8944 74.2958 17.3585 74.2958 16.5856V16.1287C74.2958 13.0203 72.6138 9.31396 64.5967 9.31396C58.2283 9.31396 54.7204 11.9597 54.7204 16.7718V17.1836C54.7204 21.911 57.5477 23.2142 61.7859 23.7163L67.0975 24.3594C69.3716 24.6302 70.0687 25.1661 70.0687 26.6328V27.1406C70.0687 29.7525 66.7268 30.1474 64.735 30.1474C59.9158 30.1474 59.357 28.5622 59.357 27.3718V26.6836C59.357 25.9559 58.8756 25.4651 58.1674 25.4651H55.9598C55.2018 25.4651 54.6762 25.9841 54.6762 26.7287V27.417C54.6762 31.9695 58.0623 34.2768 64.735 34.2768C71.4077 34.2768 74.7495 31.5408 74.7495 26.7739V26.2718C74.7495 21.6177 71.9444 20.3315 67.7283 19.8294L67.7228 19.8238Z" fill="white"/>
<path d="M92.4105 9.31396C89.8267 9.31396 87.7076 10.0248 86.1971 11.3843C86.0477 10.2448 85.2178 9.50013 84.0393 9.50013H83.9065C82.5509 9.50013 81.6767 10.3915 81.6767 11.7736V41.2777C81.6767 42.5639 82.5564 43.4553 83.8124 43.4553H84.3989C85.6549 43.4553 86.5346 42.5583 86.5346 41.2777V32.449C88.023 33.6506 90.0369 34.2825 92.4548 34.2825C98.5189 34.2825 102.287 30.5648 102.287 24.5794V18.9832C102.287 13.026 98.5023 9.32525 92.4105 9.32525V9.31396ZM97.3846 24.8445C97.3846 28.3027 95.5588 30.0515 91.9624 30.0515C88.366 30.0515 86.5401 28.297 86.5401 24.8445V18.6955C86.5401 15.3163 88.4158 13.5337 91.9624 13.5337C95.509 13.5337 97.3846 15.2712 97.3846 18.6955V24.8445Z" fill="white"/>
<path d="M139.412 33.7694H152.913C153.759 33.7694 154.373 33.1432 154.373 32.2801V30.9938C154.373 30.1307 153.759 29.5045 152.913 29.5045H147.806V17.5506C147.806 14.8879 149.327 13.5339 152.332 13.5339C155.336 13.5339 156.808 14.8371 156.808 17.4095V19.1978C156.808 20.3712 157.522 21.1046 158.678 21.1046H159.668C160.847 21.1046 161.583 20.3769 161.583 19.1978V17.4095C161.583 12.1857 158.457 9.30859 152.785 9.30859C149.117 9.30859 146.483 10.5497 145.122 12.9134L142.516 10.2563C141.648 9.37065 140.536 9.35373 139.695 10.2112L139.158 10.7641C138.737 11.1928 138.527 11.6949 138.544 12.2195C138.56 12.7272 138.787 13.218 139.202 13.6411L142.953 17.466V29.5045H139.423C138.566 29.5045 137.919 30.1476 137.919 30.9938V32.2801C137.919 33.1319 138.566 33.7694 139.423 33.7694H139.412Z" fill="white"/>
<path d="M176.582 9.31396C169.821 9.31396 165.937 12.8511 165.937 19.017V24.5681C165.937 30.7341 169.816 34.2712 176.582 34.2712C183.349 34.2712 187.228 30.7341 187.228 24.5681V19.017C187.228 12.8511 183.349 9.31396 176.582 9.31396ZM182.32 24.8897C182.32 29.1545 179.199 30.0515 176.582 30.0515C173.965 30.0515 170.845 29.1545 170.845 24.8897V18.6955C170.845 14.4306 173.965 13.5337 176.582 13.5337C179.199 13.5337 182.32 14.4306 182.32 18.6955V24.8897Z" fill="white"/>
<path d="M214.046 10.374C211.462 10.374 209.343 11.0848 207.833 12.4444C207.683 11.3048 206.853 10.5602 205.675 10.5602H205.542C204.186 10.5602 203.312 11.4515 203.312 12.8336V42.3378C203.312 43.624 204.192 44.5153 205.448 44.5153H206.034C207.29 44.5153 208.17 43.6184 208.17 42.3378V33.5091C209.658 34.7107 211.672 35.3425 214.09 35.3425C220.154 35.3425 223.922 31.6249 223.922 25.6394V20.0433C223.922 14.086 220.138 10.3853 214.046 10.3853V10.374ZM219.02 25.9046C219.02 29.3627 217.194 31.1115 213.598 31.1115C210.001 31.1115 208.176 29.3571 208.176 25.9046V19.7555C208.176 16.3764 210.051 14.5937 213.598 14.5937C217.144 14.5937 219.02 16.3313 219.02 19.7555V25.9046Z" fill="#EB4699"/>
<path d="M243.481 9.31396C239.807 9.31396 237.179 10.5551 235.818 12.9188L233.212 10.2617C232.797 9.83861 232.315 9.60731 231.817 9.59039C231.297 9.57346 230.81 9.79348 230.39 10.2166L229.848 10.7694C229.007 11.6269 229.023 12.7552 229.892 13.6465L233.643 17.4713V29.5099H230.108C229.25 29.5099 228.603 30.153 228.603 30.9992V32.2854C228.603 33.1373 229.25 33.7748 230.108 33.7748H243.608C244.454 33.7748 245.069 33.1486 245.069 32.2854V30.9992C245.069 30.1361 244.454 29.5099 243.608 29.5099H238.501V17.5559C238.501 14.8932 240.023 13.5393 243.021 13.5393C246.02 13.5393 247.498 14.8425 247.498 17.4149V19.2032C247.498 20.3766 248.211 21.11 249.368 21.11H250.358C251.537 21.11 252.272 20.3822 252.272 19.2032V17.4149C252.272 12.191 249.146 9.31396 243.475 9.31396H243.481Z" fill="#EB4699"/>
<path d="M267.283 9.31396C260.522 9.31396 256.638 12.8511 256.638 19.017V24.5681C256.638 30.7341 260.517 34.2712 267.283 34.2712C274.05 34.2712 277.929 30.7341 277.929 24.5681V19.017C277.929 12.8511 274.05 9.31396 267.283 9.31396ZM273.021 24.8897C273.021 29.1545 269.901 30.0515 267.283 30.0515C264.666 30.0515 261.546 29.1545 261.546 24.8897V18.6955C261.546 14.4306 264.666 13.5337 267.283 13.5337C269.901 13.5337 273.021 14.4306 273.021 18.6955V24.8897Z" fill="#EB4699"/>
<path d="M108.052 10.0415V15.2597H123.029L108.367 30.2036L111.986 33.893L126.72 18.8702V34.2879H131.832V10.0415H108.052Z" fill="white"/>
</svg>
