<svg width="52" height="52" viewBox="0 0 52 52" fill="none" xmlns="http://www.w3.org/2000/svg">
<rect width="52" height="52" rx="16" fill="#EB4699"/>
<path opacity="0.4" d="M35.6533 17.44H35.12L30.6133 12.9333C30.2533 12.5733 29.6667 12.5733 29.2933 12.9333C28.9333 13.2933 28.9333 13.88 29.2933 14.2533L32.48 17.44H19.52L22.7067 14.2533C23.0667 13.8933 23.0667 13.3067 22.7067 12.9333C22.3467 12.5733 21.76 12.5733 21.3867 12.9333L16.8933 17.44H16.36C15.16 17.44 12.6667 17.44 12.6667 20.8533C12.6667 22.1467 12.9333 23 13.4933 23.56C13.8133 23.8933 14.2 24.0667 14.6133 24.16C15 24.2533 15.4133 24.2667 15.8133 24.2667H36.1867C36.6 24.2667 36.9867 24.24 37.36 24.16C38.48 23.8933 39.3333 23.0933 39.3333 20.8533C39.3333 17.44 36.84 17.44 35.6533 17.44Z" fill="white"/>
<path d="M36.2133 24.2667H15.8133C15.4267 24.2667 15 24.2533 14.6133 24.1467L16.2933 34.4C16.68 36.6933 17.68 39.3333 22.12 39.3333H29.6C34.0933 39.3333 34.8933 37.08 35.3733 34.56L37.3867 24.1467C37.0133 24.24 36.6133 24.2667 36.2133 24.2667ZM29.84 30.0667L25.5067 34.0667C25.32 34.24 25.0667 34.3333 24.8267 34.3333C24.5733 34.3333 24.32 34.24 24.12 34.04L22.12 32.04C21.7333 31.6533 21.7333 31.0133 22.12 30.6267C22.5067 30.24 23.1467 30.24 23.5333 30.6267L24.8533 31.9467L28.48 28.6C28.88 28.2267 29.52 28.2533 29.8933 28.6533C30.28 29.0667 30.2533 29.6933 29.84 30.0667Z" fill="white"/>
</svg>
