<svg width="52" height="52" viewBox="0 0 52 52" fill="none" xmlns="http://www.w3.org/2000/svg">
<rect width="52" height="52" rx="16" fill="#EB4699"/>
<path opacity="0.4" d="M31.5867 12.6667H20.4134C15.56 12.6667 12.6667 15.56 12.6667 20.4133V31.5733C12.6667 36.44 15.56 39.3333 20.4134 39.3333H31.5734C36.4267 39.3333 39.32 36.44 39.32 31.5867V20.4133C39.3334 15.56 36.44 12.6667 31.5867 12.6667Z" fill="white"/>
<path d="M19.1867 31C18.8133 31 18.4667 30.8 18.2933 30.4533C18.04 29.96 18.24 29.36 18.7467 29.1067C19.9067 28.5333 20.8933 27.6533 21.6 26.5867C21.84 26.2267 21.84 25.7733 21.6 25.4133C20.88 24.3467 19.8933 23.4667 18.7467 22.8933C18.24 22.6533 18.04 22.0533 18.2933 21.5467C18.5333 21.0533 19.1333 20.8533 19.6267 21.1067C21.0933 21.84 22.3467 22.9467 23.2533 24.3067C23.9333 25.3333 23.9333 26.6667 23.2533 27.6933C22.3467 29.0533 21.0933 30.16 19.6267 30.8933C19.4933 30.96 19.3333 31 19.1867 31Z" fill="white"/>
<path d="M32.6666 31H27.3333C26.7866 31 26.3333 30.5467 26.3333 30C26.3333 29.4533 26.7866 29 27.3333 29H32.6666C33.2133 29 33.6666 29.4533 33.6666 30C33.6666 30.5467 33.2133 31 32.6666 31Z" fill="white"/>
</svg>
