<svg width="52" height="52" viewBox="0 0 52 52" fill="none" xmlns="http://www.w3.org/2000/svg">
<rect width="52" height="52" rx="16" fill="#EB4699"/>
<path opacity="0.4" d="M26 39.2C33.3638 39.2 39.3333 33.2305 39.3333 25.8667C39.3333 18.5029 33.3638 12.5333 26 12.5333C18.6362 12.5333 12.6667 18.5029 12.6667 25.8667C12.6667 33.2305 18.6362 39.2 26 39.2Z" fill="white"/>
<path d="M29.0133 26L27 25.2933V20.7733H27.48C28.56 20.7733 29.44 21.72 29.44 22.88C29.44 23.4267 29.8933 23.88 30.44 23.88C30.9867 23.88 31.44 23.4267 31.44 22.88C31.44 20.6133 29.6667 18.7733 27.48 18.7733H27V18C27 17.4533 26.5467 17 26 17C25.4533 17 25 17.4533 25 18V18.7733H24.1333C22.16 18.7733 20.5467 20.44 20.5467 22.48C20.5467 24.8667 21.9333 25.6267 22.9867 26L25 26.7067V31.2133H24.52C23.44 31.2133 22.56 30.2667 22.56 29.1067C22.56 28.56 22.1067 28.1067 21.56 28.1067C21.0133 28.1067 20.56 28.56 20.56 29.1067C20.56 31.3733 22.3333 33.2133 24.52 33.2133H25V34C25 34.5467 25.4533 35 26 35C26.5467 35 27 34.5467 27 34V33.2267H27.8667C29.84 33.2267 31.4533 31.56 31.4533 29.52C31.44 27.12 30.0533 26.36 29.0133 26ZM23.6533 24.12C22.9733 23.88 22.56 23.6533 22.56 22.4933C22.56 21.5467 23.2667 20.7867 24.1467 20.7867H25.0133V24.6L23.6533 24.12ZM27.8667 31.2267H27V27.4133L28.3467 27.88C29.0267 28.12 29.44 28.3467 29.44 29.5067C29.44 30.4533 28.7333 31.2267 27.8667 31.2267Z" fill="white"/>
</svg>
