<svg width="52" height="52" viewBox="0 0 52 52" fill="none" xmlns="http://www.w3.org/2000/svg">
<rect width="52" height="52" rx="16" fill="#EB4699"/>
<path d="M22.4267 27.7067H26.5467V37.3067C26.5467 38.72 28.3067 39.3867 29.24 38.32L39.3333 26.8533C40.2133 25.8533 39.5067 24.2933 38.1733 24.2933H34.0533V14.6933C34.0533 13.28 32.2933 12.6133 31.36 13.68L21.2667 25.1467C20.4 26.1467 21.1067 27.7067 22.4267 27.7067Z" fill="white"/>
<path opacity="0.4" d="M21.3333 16.3333H12C11.4533 16.3333 11 15.88 11 15.3333C11 14.7867 11.4533 14.3333 12 14.3333H21.3333C21.88 14.3333 22.3333 14.7867 22.3333 15.3333C22.3333 15.88 21.88 16.3333 21.3333 16.3333Z" fill="white"/>
<path opacity="0.4" d="M20 37.6667H12C11.4533 37.6667 11 37.2133 11 36.6667C11 36.12 11.4533 35.6667 12 35.6667H20C20.5467 35.6667 21 36.12 21 36.6667C21 37.2133 20.5467 37.6667 20 37.6667Z" fill="white"/>
<path opacity="0.4" d="M16 27H12C11.4533 27 11 26.5467 11 26C11 25.4533 11.4533 25 12 25H16C16.5467 25 17 25.4533 17 26C17 26.5467 16.5467 27 16 27Z" fill="white"/>
</svg>
