<svg width="52" height="52" viewBox="0 0 52 52" fill="none" xmlns="http://www.w3.org/2000/svg">
<rect width="52" height="52" rx="16" fill="#EB4699"/>
<path d="M39.3334 38.3333H12.6667C12.12 38.3333 11.6667 38.7867 11.6667 39.3333C11.6667 39.88 12.12 40.3333 12.6667 40.3333H39.3334C39.88 40.3333 40.3334 39.88 40.3334 39.3333C40.3334 38.7867 39.88 38.3333 39.3334 38.3333Z" fill="white"/>
<path opacity="0.4" d="M32.6667 12.6667H19.3333C15.3333 12.6667 14 15.0533 14 18V39.3333H38V18C38 15.0533 36.6667 12.6667 32.6667 12.6667Z" fill="white"/>
<path d="M28.7467 30H23.24C22.56 30 21.9867 30.56 21.9867 31.2533V39.3333H29.9867V31.2533C30 30.56 29.44 30 28.7467 30Z" fill="white"/>
<path d="M29.3334 20.3333H27V18C27 17.4533 26.5467 17 26 17C25.4534 17 25 17.4533 25 18V20.3333H22.6667C22.12 20.3333 21.6667 20.7867 21.6667 21.3333C21.6667 21.88 22.12 22.3333 22.6667 22.3333H25V24.6667C25 25.2133 25.4534 25.6667 26 25.6667C26.5467 25.6667 27 25.2133 27 24.6667V22.3333H29.3334C29.88 22.3333 30.3334 21.88 30.3334 21.3333C30.3334 20.7867 29.88 20.3333 29.3334 20.3333Z" fill="white"/>
</svg>
