<svg width="52" height="52" viewBox="0 0 52 52" fill="none" xmlns="http://www.w3.org/2000/svg">
<rect width="52" height="52" rx="16" fill="#EB4699"/>
<path opacity="0.4" d="M39.3334 20.4133V28.5333L37.16 26.6667C36.12 25.7733 34.44 25.7733 33.4 26.6667L27.8534 31.4267C26.8134 32.32 25.1334 32.32 24.0934 31.4267L23.64 31.0533C22.6934 30.2267 21.1867 30.1467 20.12 30.8667L13.56 35.2667L13.4134 35.3733C12.92 34.3067 12.6667 33.04 12.6667 31.5867V20.4133C12.6667 15.56 15.56 12.6667 20.4134 12.6667H31.5867C36.44 12.6667 39.3334 15.56 39.3334 20.4133Z" fill="white"/>
<path d="M22 23.84C23.7526 23.84 25.1733 22.4193 25.1733 20.6667C25.1733 18.9141 23.7526 17.4933 22 17.4933C20.2474 17.4933 18.8267 18.9141 18.8267 20.6667C18.8267 22.4193 20.2474 23.84 22 23.84Z" fill="white"/>
<path d="M39.3333 28.5333V31.5867C39.3333 36.44 36.44 39.3333 31.5867 39.3333H20.4133C17.0133 39.3333 14.56 37.9067 13.4133 35.3733L13.56 35.2667L20.12 30.8667C21.1867 30.1467 22.6933 30.2267 23.64 31.0533L24.0933 31.4267C25.1333 32.32 26.8133 32.32 27.8533 31.4267L33.4 26.6667C34.44 25.7733 36.12 25.7733 37.16 26.6667L39.3333 28.5333Z" fill="white"/>
</svg>
