<svg width="52" height="52" viewBox="0 0 52 52" fill="none" xmlns="http://www.w3.org/2000/svg">
<rect width="52" height="52" rx="16" fill="#EB4699"/>
<path opacity="0.4" d="M34.8933 12.6667H32.36C29.4533 12.6667 27.92 14.2 27.92 17.1067V19.64C27.92 22.5467 29.4533 24.08 32.36 24.08H34.8933C37.8 24.08 39.3333 22.5467 39.3333 19.64V17.1067C39.3333 14.2 37.8 12.6667 34.8933 12.6667Z" fill="white"/>
<path opacity="0.4" d="M19.6533 27.9067H17.12C14.2 27.9067 12.6667 29.44 12.6667 32.3467V34.88C12.6667 37.8 14.2 39.3333 17.1067 39.3333H19.64C22.5467 39.3333 24.08 37.8 24.08 34.8933V32.36C24.0933 29.44 22.56 27.9067 19.6533 27.9067Z" fill="white"/>
<path d="M18.3867 24.1067C21.5457 24.1067 24.1067 21.5457 24.1067 18.3867C24.1067 15.2276 21.5457 12.6667 18.3867 12.6667C15.2276 12.6667 12.6667 15.2276 12.6667 18.3867C12.6667 21.5457 15.2276 24.1067 18.3867 24.1067Z" fill="white"/>
<path d="M33.6133 39.3333C36.7724 39.3333 39.3333 36.7724 39.3333 33.6133C39.3333 30.4543 36.7724 27.8933 33.6133 27.8933C30.4543 27.8933 27.8933 30.4543 27.8933 33.6133C27.8933 36.7724 30.4543 39.3333 33.6133 39.3333Z" fill="white"/>
</svg>
