<svg width="52" height="52" viewBox="0 0 52 52" fill="none" xmlns="http://www.w3.org/2000/svg">
<rect width="52" height="52" rx="16" fill="#EB4699"/>
<path opacity="0.4" d="M34.5067 27.12V33.6933C34.5067 35.3867 33.1867 37.2 31.6 37.7333L27.3467 39.1467C26.6 39.4 25.3867 39.4 24.6533 39.1467L20.4 37.7333C18.8 37.2 17.4933 35.3867 17.4933 33.6933L17.5067 27.12L23.4 30.96C24.84 31.9067 27.2133 31.9067 28.6533 30.96L34.5067 27.12Z" fill="white"/>
<path d="M36.64 18.6133L28.6534 13.3733C27.2134 12.4267 24.84 12.4267 23.4 13.3733L15.3734 18.6133C12.8 20.28 12.8 24.0533 15.3734 25.7333L17.5067 27.12L23.4 30.96C24.84 31.9067 27.2134 31.9067 28.6534 30.96L34.5067 27.12L36.3334 25.92V30C36.3334 30.5467 36.7867 31 37.3334 31C37.88 31 38.3334 30.5467 38.3334 30V23.44C38.8667 21.72 38.32 19.72 36.64 18.6133Z" fill="white"/>
</svg>
