<svg width="52" height="52" viewBox="0 0 52 52" fill="none" xmlns="http://www.w3.org/2000/svg">
<rect width="52" height="52" rx="16" fill="#EB4699"/>
<path opacity="0.4" d="M37.2 31.7733C36.8267 32.7733 36.04 33.5333 35.0133 33.88C33.5733 34.36 32.0933 34.72 30.6 34.9733C30.4533 35 30.3067 35.0267 30.16 35.04C29.92 35.08 29.68 35.1067 29.44 35.1333C29.1467 35.1733 28.84 35.2 28.5333 35.2267C27.6933 35.2933 26.8667 35.3333 26.0267 35.3333C25.1733 35.3333 24.32 35.2933 23.48 35.2133C23.12 35.1867 22.7733 35.1467 22.4267 35.0933C22.2267 35.0667 22.0267 35.04 21.84 35.0133C21.6933 34.9867 21.5467 34.9733 21.4 34.9467C19.92 34.7067 18.4533 34.3467 17.0267 33.8667C15.96 33.5067 15.1467 32.7467 14.7867 31.7733C14.4267 30.8133 14.56 29.6933 15.1333 28.7333L16.64 26.2267C16.96 25.68 17.2533 24.6267 17.2533 23.9867V21.5067C17.2533 16.6667 21.1867 12.7333 26.0267 12.7333C30.8533 12.7333 34.7867 16.6667 34.7867 21.5067V23.9867C34.7867 24.6267 35.08 25.68 35.4133 26.2267L36.92 28.7333C37.4667 29.6667 37.5733 30.76 37.2 31.7733Z" fill="white"/>
<path d="M26 24.3467C25.44 24.3467 24.9867 23.8933 24.9867 23.3333V19.2C24.9867 18.64 25.44 18.1867 26 18.1867C26.56 18.1867 27.0133 18.64 27.0133 19.2V23.3333C27 23.8933 26.5467 24.3467 26 24.3467Z" fill="white"/>
<path d="M29.7733 36.68C29.2133 38.2267 27.7333 39.3333 26 39.3333C24.9467 39.3333 23.9067 38.9067 23.1733 38.1467C22.7467 37.7467 22.4267 37.2133 22.24 36.6667C22.4133 36.6933 22.5867 36.7067 22.7733 36.7333C23.08 36.7733 23.4 36.8133 23.72 36.84C24.48 36.9067 25.2533 36.9467 26.0267 36.9467C26.7867 36.9467 27.5467 36.9067 28.2933 36.84C28.5733 36.8133 28.8533 36.8 29.12 36.76C29.3333 36.7333 29.5467 36.7067 29.7733 36.68Z" fill="white"/>
</svg>
