<svg width="52" height="52" viewBox="0 0 52 52" fill="none" xmlns="http://www.w3.org/2000/svg">
<rect width="52" height="52" rx="16" fill="#EB4699"/>
<path d="M39.3333 18V21.2267C39.3333 23.3333 38 24.6667 35.8933 24.6667H31.3333V15.3467C31.3333 13.8667 32.5466 12.6533 34.0266 12.6667C35.48 12.68 36.8133 13.2667 37.7733 14.2267C38.7333 15.2 39.3333 16.5333 39.3333 18Z" fill="white"/>
<path opacity="0.4" d="M12.6667 19.3333V38C12.6667 39.1067 13.92 39.7333 14.8 39.0667L17.08 37.36C17.6134 36.96 18.36 37.0133 18.84 37.4933L21.0534 39.72C21.5734 40.24 22.4267 40.24 22.9467 39.72L25.1867 37.48C25.6534 37.0133 26.4 36.96 26.92 37.36L29.2 39.0667C30.08 39.72 31.3334 39.0933 31.3334 38V15.3333C31.3334 13.8667 32.5334 12.6667 34 12.6667H19.3334H18C14 12.6667 12.6667 15.0533 12.6667 18V19.3333Z" fill="white"/>
<path d="M26 26.3467H22C21.4533 26.3467 21 26.8 21 27.3467C21 27.8933 21.4533 28.3467 22 28.3467H26C26.5467 28.3467 27 27.8933 27 27.3467C27 26.8 26.5467 26.3467 26 26.3467Z" fill="white"/>
<path d="M22 23.0133H26C26.5467 23.0133 27 22.56 27 22.0133C27 21.4667 26.5467 21.0133 26 21.0133H22C21.4533 21.0133 21 21.4667 21 22.0133C21 22.56 21.4533 23.0133 22 23.0133Z" fill="white"/>
<path d="M17.96 20.68C17.2133 20.68 16.6266 21.28 16.6266 22.0133C16.6266 22.7467 17.2266 23.3467 17.96 23.3467C18.6933 23.3467 19.2933 22.7467 19.2933 22.0133C19.2933 21.28 18.6933 20.68 17.96 20.68Z" fill="white"/>
<path d="M17.96 26.0133C17.2133 26.0133 16.6266 26.6133 16.6266 27.3467C16.6266 28.08 17.2266 28.68 17.96 28.68C18.6933 28.68 19.2933 28.08 19.2933 27.3467C19.2933 26.6133 18.6933 26.0133 17.96 26.0133Z" fill="white"/>
</svg>
