<svg width="52" height="52" viewBox="0 0 52 52" fill="none" xmlns="http://www.w3.org/2000/svg">
<rect width="52" height="52" rx="16" fill="#EB4699"/>
<path d="M31.3333 20.6667H20.6667V31.3333H31.3333V20.6667Z" fill="white"/>
<path opacity="0.4" d="M16.6667 39.3333C18.8667 39.3333 20.6667 37.5333 20.6667 35.3333V31.3333H16.6667C14.4667 31.3333 12.6667 33.1333 12.6667 35.3333C12.6667 37.5333 14.4667 39.3333 16.6667 39.3333Z" fill="white"/>
<path opacity="0.4" d="M16.6667 20.6667H20.6667V16.6667C20.6667 14.4667 18.8667 12.6667 16.6667 12.6667C14.4667 12.6667 12.6667 14.4667 12.6667 16.6667C12.6667 18.8667 14.4667 20.6667 16.6667 20.6667Z" fill="white"/>
<path opacity="0.4" d="M31.3333 20.6667H35.3333C37.5333 20.6667 39.3333 18.8667 39.3333 16.6667C39.3333 14.4667 37.5333 12.6667 35.3333 12.6667C33.1333 12.6667 31.3333 14.4667 31.3333 16.6667V20.6667Z" fill="white"/>
<path opacity="0.4" d="M35.3333 39.3333C37.5333 39.3333 39.3333 37.5333 39.3333 35.3333C39.3333 33.1333 37.5333 31.3333 35.3333 31.3333H31.3333V35.3333C31.3333 37.5333 33.1333 39.3333 35.3333 39.3333Z" fill="white"/>
</svg>
