<svg width="52" height="52" viewBox="0 0 52 52" fill="none" xmlns="http://www.w3.org/2000/svg">
<rect width="52" height="52" rx="16" fill="#EB4699"/>
<path opacity="0.4" d="M24.3333 13.2667C25.2533 12.48 26.76 12.48 27.6933 13.2667L29.8 15.08C30.2 15.4267 30.9467 15.7067 31.48 15.7067H33.7467C35.16 15.7067 36.32 16.8667 36.32 18.28V20.5467C36.32 21.0667 36.6 21.8267 36.9467 22.2267L38.76 24.3333C39.5467 25.2533 39.5467 26.76 38.76 27.6933L36.9467 29.8C36.6 30.2 36.32 30.9467 36.32 31.48V33.7467C36.32 35.16 35.16 36.32 33.7467 36.32H31.48C30.96 36.32 30.2 36.6 29.8 36.9467L27.6933 38.76C26.7733 39.5467 25.2667 39.5467 24.3333 38.76L22.2267 36.9467C21.8267 36.6 21.08 36.32 20.5467 36.32H18.24C16.8267 36.32 15.6667 35.16 15.6667 33.7467V31.4667C15.6667 30.9467 15.3867 30.2 15.0533 29.8L13.2533 27.68C12.48 26.76 12.48 25.2667 13.2533 24.3467L15.0533 22.2267C15.3867 21.8267 15.6667 21.08 15.6667 20.56V18.2667C15.6667 16.8533 16.8267 15.6933 18.24 15.6933H20.5467C21.0667 15.6933 21.8267 15.4133 22.2267 15.0667L24.3333 13.2667Z" fill="white"/>
<path d="M24.3867 30.2267C24.12 30.2267 23.8667 30.12 23.68 29.9333L20.4533 26.7067C20.0667 26.32 20.0667 25.68 20.4533 25.2933C20.84 24.9067 21.48 24.9067 21.8667 25.2933L24.3867 27.8133L30.12 22.08C30.5067 21.6933 31.1467 21.6933 31.5333 22.08C31.92 22.4667 31.92 23.1067 31.5333 23.4933L25.0933 29.9333C24.9067 30.12 24.6533 30.2267 24.3867 30.2267Z" fill="white"/>
</svg>
