<svg width="69" height="69" viewBox="0 0 69 69" fill="none" xmlns="http://www.w3.org/2000/svg">
<rect x="1" y="1" width="67" height="67" rx="33.5" fill="black" fill-opacity="0.01"/>
<rect x="0.5" y="0.5" width="68" height="68" rx="34" stroke="white" stroke-opacity="0.08"/>
<rect x="6.5" y="6.5" width="56.4038" height="56.4038" rx="28.2019" stroke="white" stroke-opacity="0.08"/>
<rect x="10.0192" y="10.0192" width="48.9615" height="48.9615" rx="24.4808" fill="white" fill-opacity="0.08"/>
<path opacity="0.4" d="M46.125 28.0417V40.9583C46.125 44.8333 44.1875 47.4167 39.6667 47.4167H29.3333C24.8125 47.4167 22.875 44.8333 22.875 40.9583V28.0417C22.875 24.1667 24.8125 21.5833 29.3333 21.5833H39.6667C44.1875 21.5833 46.125 24.1667 46.125 28.0417Z" fill="white"/>
<path d="M42.8958 30.9479H40.3125C38.3492 30.9479 36.7604 29.3592 36.7604 27.3958V24.8125C36.7604 24.2829 37.1996 23.8438 37.7292 23.8438C38.2587 23.8438 38.6979 24.2829 38.6979 24.8125V27.3958C38.6979 28.2871 39.4212 29.0104 40.3125 29.0104H42.8958C43.4254 29.0104 43.8646 29.4496 43.8646 29.9792C43.8646 30.5088 43.4254 30.9479 42.8958 30.9479Z" fill="white"/>
<path d="M31.9167 41.927C31.6713 41.927 31.4258 41.8367 31.2321 41.6429L28.6488 39.0596C28.2742 38.685 28.2742 38.0649 28.6488 37.6903L31.2321 35.107C31.6067 34.7324 32.2267 34.7324 32.6013 35.107C32.9758 35.4816 32.9758 36.1017 32.6013 36.4763L30.7025 38.375L32.6013 40.2737C32.9758 40.6483 32.9758 41.2683 32.6013 41.6429C32.4075 41.8367 32.1621 41.927 31.9167 41.927Z" fill="white"/>
<path d="M37.0833 41.927C36.8379 41.927 36.5925 41.8367 36.3988 41.6429C36.0242 41.2683 36.0242 40.6483 36.3988 40.2737L38.2975 38.375L36.3988 36.4763C36.0242 36.1017 36.0242 35.4816 36.3988 35.107C36.7733 34.7324 37.3933 34.7324 37.7679 35.107L40.3513 37.6903C40.7258 38.0649 40.7258 38.685 40.3513 39.0596L37.7679 41.6429C37.5742 41.8367 37.3288 41.927 37.0833 41.927Z" fill="white"/>
</svg>
