<svg width="52" height="52" viewBox="0 0 52 52" fill="none" xmlns="http://www.w3.org/2000/svg">
<rect width="52" height="52" rx="16" fill="#EB4699"/>
<path opacity="0.4" d="M39.3333 19.9067V27.9067C39.3333 29.9067 38.6667 31.5733 37.4933 32.7467C36.3333 33.9067 34.6667 34.5733 32.6667 34.5733V37.4133C32.6667 38.48 31.48 39.12 30.6 38.5334L24.6667 34.5733H21.84C21.9467 34.1733 22 33.76 22 33.3333C22 31.9733 21.48 30.72 20.6267 29.7734C19.6667 28.68 18.24 28 16.6667 28C15.1733 28 13.8133 28.6134 12.84 29.6134C12.72 29.08 12.6667 28.5067 12.6667 27.9067V19.9067C12.6667 15.9067 15.3333 13.24 19.3333 13.24H32.6667C36.6667 13.24 39.3333 15.9067 39.3333 19.9067Z" fill="white"/>
<path d="M30.6667 25H21.3333C20.7867 25 20.3333 24.5467 20.3333 24C20.3333 23.4533 20.7867 23 21.3333 23H30.6667C31.2133 23 31.6667 23.4533 31.6667 24C31.6667 24.5467 31.2133 25 30.6667 25Z" fill="white"/>
<path d="M16.6667 28C13.72 28 11.3333 30.3867 11.3333 33.3333C11.3333 34.3333 11.6133 35.28 12.1067 36.08C13.0267 37.6267 14.72 38.6667 16.6667 38.6667C18.6133 38.6667 20.3067 37.6267 21.2267 36.08C21.72 35.28 22 34.3333 22 33.3333C22 30.3867 19.6133 28 16.6667 28ZM19.2933 32.8933L16.4533 35.52C16.2667 35.6934 16.0133 35.7867 15.7733 35.7867C15.52 35.7867 15.2667 35.6933 15.0667 35.4933L13.7467 34.1733C13.36 33.7867 13.36 33.1467 13.7467 32.76C14.1333 32.3733 14.7733 32.3733 15.16 32.76L15.8 33.4L17.9334 31.4267C18.3334 31.0533 18.9733 31.08 19.3467 31.48C19.72 31.88 19.6933 32.52 19.2933 32.8933Z" fill="white"/>
</svg>
