<svg width="52" height="52" viewBox="0 0 52 52" fill="none" xmlns="http://www.w3.org/2000/svg">
<rect width="52" height="52" rx="16" fill="#EB4699"/>
<path opacity="0.4" d="M39.3334 20.4133V30.2133C38.9467 30.0267 38.52 29.8933 38.04 29.8133L37.6267 29.7467L37.28 29.0267C36.5467 27.5333 35.3467 26.6667 34 26.6667C32.6534 26.6667 31.4534 27.5333 30.72 29.0267L30.36 29.7467L29.96 29.8133C28.3734 30.08 27.2267 30.96 26.8133 32.2133C26.4133 33.48 26.8267 34.8667 27.96 36.0133L28.3734 36.4267L28.3334 36.5867C28.0667 37.7733 28.1734 38.68 28.4267 39.3333H20.4133C15.56 39.3333 12.6667 36.44 12.6667 31.5867V20.4133C12.6667 15.56 15.56 12.6667 20.4133 12.6667H31.5867C36.44 12.6667 39.3334 15.56 39.3334 20.4133Z" fill="white"/>
<path d="M35.4933 29.92L35.92 30.7867C36.1334 31.2133 36.68 31.6133 37.1334 31.6933L37.7067 31.7867C39.4533 32.08 39.8533 33.36 38.6133 34.6133L38.08 35.1467C37.72 35.5067 37.5334 36.2 37.64 36.7067L37.7067 37.0267C38.1867 39.1333 37.0667 39.9467 35.24 38.84L34.8534 38.6C34.3867 38.32 33.6133 38.32 33.1467 38.6L32.76 38.84C30.92 39.9467 29.8134 39.1333 30.2934 37.0267L30.36 36.7067C30.4667 36.2133 30.28 35.5067 29.92 35.1467L29.3867 34.6133C28.1467 33.3467 28.5467 32.08 30.2934 31.7867L30.8667 31.6933C31.3333 31.6133 31.8667 31.2133 32.08 30.7867L32.5067 29.92C33.3334 28.2533 34.6667 28.2533 35.4933 29.92Z" fill="white"/>
<path fill-rule="evenodd" clip-rule="evenodd" d="M31.506 20.5563C31.9425 20.8947 32.0221 21.5228 31.6837 21.9593L28.5978 25.9403C27.8046 26.9434 26.3422 27.1263 25.3219 26.338L25.3149 26.3326L22.8795 24.4161C22.7291 24.3019 22.5192 24.3303 22.4049 24.4777C22.4048 24.4778 22.405 24.4776 22.4049 24.4777L19.2322 28.5969C18.8952 29.0344 18.2673 29.1159 17.8298 28.7789C17.3922 28.4419 17.3107 27.814 17.6477 27.3765L20.822 23.2552C21.6139 22.2304 23.0822 22.0452 24.1048 22.8354L24.1117 22.8408L26.5472 24.7572C26.6992 24.8727 26.9135 24.8429 27.0269 24.7023L30.103 20.734C30.4414 20.2975 31.0695 20.218 31.506 20.5563Z" fill="white"/>
</svg>
