<svg width="52" height="52" viewBox="0 0 52 52" fill="none" xmlns="http://www.w3.org/2000/svg">
<rect width="52" height="52" rx="16" fill="#EB4699"/>
<path d="M37.96 11.3333H34.04C32.3467 11.3333 31.3333 12.3467 31.3333 14.04V17.96C31.3333 19.6533 32.3467 20.6667 34.04 20.6667H37.96C39.6533 20.6667 40.6667 19.6533 40.6667 17.96V14.04C40.6667 12.3467 39.6533 11.3333 37.96 11.3333ZM38.8133 16.24C38.32 17.8133 36.6 18.6667 36 18.6667C35.4 18.6667 33.6933 17.84 33.1867 16.24C33.1067 16 33.0667 15.7333 33.0667 15.48C33.0667 14.6133 33.5067 13.72 34.4267 13.4267C34.9733 13.2533 35.56 13.3467 35.9733 13.6933C36.4 13.36 36.9867 13.2533 37.5467 13.4267C38.7733 13.8133 39.16 15.1867 38.8133 16.24Z" fill="white"/>
<path opacity="0.4" d="M37.96 20.6667H34.04C32.3467 20.6667 31.3333 19.6533 31.3333 17.96V14.04C31.3333 13.5067 31.44 13.0533 31.6267 12.6667H19.3333C15.6533 12.6667 12.6667 15.64 12.6667 19.3067V27.28V28.6133C12.6667 32.28 15.6533 35.2533 19.3333 35.2533H21.3333C21.6933 35.2533 22.1733 35.4933 22.4 35.7867L24.4 38.44C25.28 39.6133 26.72 39.6133 27.6 38.44L29.6 35.7867C29.8533 35.4533 30.2533 35.2533 30.6667 35.2533H32.6667C36.3467 35.2533 39.3333 32.28 39.3333 28.6133V20.36C38.9467 20.56 38.4933 20.6667 37.96 20.6667Z" fill="white"/>
<path d="M26 26C25.2533 26 24.6667 25.4 24.6667 24.6667C24.6667 23.9333 25.2667 23.3333 26 23.3333C26.7333 23.3333 27.3333 23.9333 27.3333 24.6667C27.3333 25.4 26.7467 26 26 26Z" fill="white"/>
<path d="M31.3333 26C30.5867 26 30 25.4 30 24.6667C30 23.9333 30.6 23.3333 31.3333 23.3333C32.0667 23.3333 32.6667 23.9333 32.6667 24.6667C32.6667 25.4 32.08 26 31.3333 26Z" fill="white"/>
<path d="M20.6667 26C19.92 26 19.3333 25.4 19.3333 24.6667C19.3333 23.9333 19.9333 23.3333 20.6667 23.3333C21.4 23.3333 22 23.9333 22 24.6667C22 25.4 21.4133 26 20.6667 26Z" fill="white"/>
</svg>
