<svg width="52" height="52" viewBox="0 0 52 52" fill="none" xmlns="http://www.w3.org/2000/svg">
<rect width="52" height="52" rx="16" fill="#EB4699"/>
<path opacity="0.4" d="M15.32 29.5466L13.2933 27.52C12.4667 26.6933 12.4667 25.3333 13.2933 24.5066L15.32 22.4799C15.6667 22.1333 15.9467 21.4533 15.9467 20.9733V18.1067C15.9467 16.9333 16.9067 15.9733 18.08 15.9733H20.9467C21.4267 15.9733 22.1067 15.6933 22.4533 15.3466L24.48 13.32C25.3067 12.4933 26.6667 12.4933 27.4933 13.32L29.52 15.3466C29.8667 15.6933 30.5467 15.9733 31.0267 15.9733H33.8934C35.0667 15.9733 36.0267 16.9333 36.0267 18.1067V20.9733C36.0267 21.4533 36.3067 22.1333 36.6533 22.4799L38.68 24.5066C39.5067 25.3333 39.5067 26.6933 38.68 27.52L36.6533 29.5466C36.3067 29.8933 36.0267 30.5733 36.0267 31.0533V33.92C36.0267 35.0933 35.0667 36.0533 33.8934 36.0533H31.0267C30.5467 36.0533 29.8667 36.3333 29.52 36.68L27.4933 38.7067C26.6667 39.5333 25.3067 39.5333 24.48 38.7067L22.4533 36.68C22.1067 36.3333 21.4267 36.0533 20.9467 36.0533H18.08C16.9067 36.0533 15.9467 35.0933 15.9467 33.92V31.0533C15.9467 30.5599 15.6667 29.8799 15.32 29.5466Z" fill="white"/>
<path d="M29.9998 31.3335C29.2532 31.3335 28.6531 30.7335 28.6531 30.0001C28.6531 29.2668 29.2531 28.6668 29.9865 28.6668C30.7198 28.6668 31.3198 29.2668 31.3198 30.0001C31.3198 30.7335 30.7332 31.3335 29.9998 31.3335Z" fill="white"/>
<path d="M22.0134 23.3333C21.2667 23.3333 20.6667 22.7333 20.6667 22C20.6667 21.2667 21.2667 20.6667 22 20.6667C22.7334 20.6667 23.3334 21.2667 23.3334 22C23.3334 22.7333 22.7467 23.3333 22.0134 23.3333Z" fill="white"/>
<path d="M22 31C21.7467 31 21.4934 30.9067 21.2934 30.7067C20.9067 30.32 20.9067 29.6799 21.2934 29.2933L29.2934 21.2933C29.68 20.9066 30.32 20.9066 30.7067 21.2933C31.0934 21.6799 31.0934 22.32 30.7067 22.7067L22.7067 30.7067C22.5067 30.9067 22.2534 31 22 31Z" fill="white"/>
</svg>
