<svg width="52" height="52" viewBox="0 0 52 52" fill="none" xmlns="http://www.w3.org/2000/svg">
<rect width="52" height="52" rx="16" fill="#EB4699"/>
<path d="M39.0533 37.68L38.0934 36.72C38.5867 35.9733 38.88 35.0666 38.88 34.1066C38.88 31.4666 36.7467 29.3333 34.1067 29.3333C31.4667 29.3333 29.3333 31.4666 29.3333 34.1066C29.3333 36.7466 31.4667 38.88 34.1067 38.88C35.08 38.88 35.9733 38.5867 36.72 38.0933L37.68 39.0533C37.8667 39.24 38.12 39.3333 38.36 39.3333C38.6133 39.3333 38.8533 39.24 39.04 39.0533C39.4267 38.6667 39.4267 38.0533 39.0533 37.68Z" fill="white"/>
<path opacity="0.4" d="M12.7067 29.5067C12.7067 29.5467 12.68 29.6 12.68 29.64C13.9067 32.0933 15.9067 34.1067 18.36 35.32C18.4 35.32 18.4533 35.2933 18.4933 35.2933C18.04 33.7467 17.6933 32.16 17.44 30.5733C15.84 30.3067 14.2533 29.96 12.7067 29.5067Z" fill="white"/>
<path opacity="0.4" d="M35.4267 18.5733C34.1733 15.9467 32.0533 13.8267 29.44 12.5867C29.92 14.1733 30.32 15.8 30.5867 17.4267C32.2133 17.6933 33.84 18.08 35.4267 18.5733Z" fill="white"/>
<path opacity="0.4" d="M12.5733 18.5733C14.1733 18.0933 15.8 17.6933 17.4267 17.4267C17.6933 15.84 18.0267 14.2667 18.48 12.72C18.44 12.72 18.3867 12.6933 18.3467 12.6933C15.84 13.9333 13.8 16.0267 12.5733 18.5733Z" fill="white"/>
<path opacity="0.4" d="M28.4267 17.1466C28.1067 15.4133 27.7067 13.68 27.1334 12C27.1067 11.9067 27.1067 11.8267 27.0934 11.72C26.1067 11.48 25.0667 11.32 24 11.32C22.92 11.32 21.8933 11.4667 20.8933 11.72C20.88 11.8133 20.8933 11.8933 20.8667 12C20.3067 13.68 19.8933 15.4133 19.5733 17.1466C22.52 16.8266 25.48 16.8266 28.4267 17.1466Z" fill="white"/>
<path opacity="0.4" d="M17.1467 19.5733C15.4 19.8933 13.68 20.2933 12 20.8667C11.9067 20.8933 11.8267 20.8933 11.72 20.9067C11.48 21.8933 11.32 22.9333 11.32 24C11.32 25.08 11.4667 26.1066 11.72 27.1066C11.8133 27.12 11.8933 27.1067 12 27.1333C13.68 27.6933 15.4 28.1067 17.1467 28.4267C16.8267 25.48 16.8267 22.52 17.1467 19.5733Z" fill="white"/>
<path opacity="0.4" d="M36.2667 20.9067C36.1733 20.9067 36.0933 20.8933 35.9867 20.8667C34.3067 20.3067 32.5733 19.8933 30.84 19.5733C31.1733 22.52 31.1733 25.48 30.84 28.4133C32.5733 28.0933 34.3067 27.6933 35.9867 27.12C36.08 27.0933 36.16 27.1067 36.2667 27.0933C36.5067 26.0933 36.6667 25.0667 36.6667 23.9867C36.6667 22.9333 36.52 21.9067 36.2667 20.9067Z" fill="white"/>
<path opacity="0.4" d="M19.5733 30.8534C19.8933 32.6 20.2933 34.32 20.8667 36C20.8933 36.0933 20.88 36.1733 20.8933 36.28C21.8933 36.52 22.92 36.68 24 36.68C25.0667 36.68 26.1067 36.5333 27.0934 36.28C27.1067 36.1867 27.1067 36.1067 27.1334 36C27.6934 34.32 28.1067 32.6 28.4267 30.8534C26.96 31.0134 25.48 31.1333 24 31.1333C22.52 31.12 21.04 31.0134 19.5733 30.8534Z" fill="white"/>
<path opacity="0.4" d="M19.2666 19.2667C18.8666 22.4133 18.8666 25.5867 19.2666 28.7467C22.4133 29.1467 25.5866 29.1467 28.7466 28.7467C29.1466 25.6 29.1466 22.4267 28.7466 19.2667C25.5866 18.8667 22.4133 18.8667 19.2666 19.2667Z" fill="white"/>
</svg>
