<svg width="52" height="52" viewBox="0 0 52 52" fill="none" xmlns="http://www.w3.org/2000/svg">
<rect width="52" height="52" rx="16" fill="#EB4699"/>
<path opacity="0.4" d="M33.3733 20.36C33.28 20.3467 33.1867 20.3467 33.0933 20.36C31.0267 20.2933 29.3867 18.6 29.3867 16.52C29.3867 14.4 31.1067 12.6667 33.24 12.6667C35.36 12.6667 37.0933 14.3867 37.0933 16.52C37.08 18.6 35.44 20.2933 33.3733 20.36Z" fill="white"/>
<path opacity="0.4" d="M37.72 29.6C36.2267 30.6 34.1333 30.9733 32.2 30.72C32.7067 29.6267 32.9733 28.4133 32.9867 27.1333C32.9867 25.8 32.6933 24.5333 32.1333 23.4267C34.1067 23.16 36.2 23.5333 37.7067 24.5333C39.8133 25.92 39.8133 28.2 37.72 29.6Z" fill="white"/>
<path opacity="0.4" d="M18.5867 20.36C18.68 20.3467 18.7733 20.3467 18.8667 20.36C20.9333 20.2933 22.5733 18.6 22.5733 16.52C22.5733 14.4 20.8533 12.6667 18.72 12.6667C16.6 12.6667 14.8667 14.3867 14.8667 16.52C14.88 18.6 16.52 20.2933 18.5867 20.36Z" fill="white"/>
<path opacity="0.4" d="M18.7333 27.1333C18.7333 28.4267 19.0133 29.6533 19.52 30.76C17.64 30.96 15.68 30.56 14.24 29.6133C12.1333 28.2133 12.1333 25.9333 14.24 24.5333C15.6667 23.5733 17.68 23.1867 19.5733 23.4C19.0267 24.52 18.7333 25.7867 18.7333 27.1333Z" fill="white"/>
<path d="M26.16 31.16C26.0533 31.1467 25.9333 31.1467 25.8133 31.16C23.36 31.08 21.4 29.0667 21.4 26.5867C21.4 24.0533 23.44 22 25.9867 22C28.52 22 30.5733 24.0533 30.5733 26.5867C30.5733 29.0667 28.6267 31.08 26.16 31.16Z" fill="white"/>
<path d="M21.8267 33.92C19.8133 35.2667 19.8133 37.48 21.8267 38.8133C24.12 40.3467 27.88 40.3467 30.1733 38.8133C32.1867 37.4667 32.1867 35.2533 30.1733 33.92C27.8933 32.3867 24.1333 32.3867 21.8267 33.92Z" fill="white"/>
</svg>
