<svg width="27" height="27" viewBox="0 0 27 27" fill="none" xmlns="http://www.w3.org/2000/svg">
<circle cx="13.5" cy="13.5" r="13.5" fill="#EB4699"/>
<path d="M19.0273 8.15753C18.3337 7.46029 17.5075 6.90754 16.597 6.53152C15.6864 6.1555 14.7098 5.96374 13.7241 5.96743C9.59362 5.96743 6.2274 9.31754 6.22362 13.4303C6.22362 14.7476 6.56979 16.0291 7.22336 17.1637L6.16309 21.0326L10.1394 19.995C11.2389 20.5922 12.4716 20.9046 13.7241 20.9036H13.7279C17.8592 20.9036 21.2245 17.5535 21.2283 13.4369C21.2291 12.4559 21.035 11.4843 20.6571 10.5783C20.2792 9.67219 19.726 8.84949 19.0273 8.15753ZM13.7241 19.64C12.6072 19.6391 11.511 19.34 10.5499 18.7738L10.3229 18.6382L7.96395 19.254L8.59387 16.9631L8.44632 16.7268C7.82189 15.7384 7.49165 14.5941 7.49387 13.4266C7.49387 10.0124 10.2907 7.22725 13.7279 7.22725C14.5467 7.22579 15.3577 7.3857 16.1142 7.69775C16.8707 8.0098 17.5576 8.46783 18.1354 9.04543C18.7151 9.62087 19.1747 10.3048 19.4877 11.0579C19.8007 11.8109 19.9608 12.6182 19.959 13.4332C19.9552 16.8595 17.1584 19.64 13.7241 19.64ZM17.1433 14.9943C16.9569 14.9011 16.0366 14.4501 15.8635 14.386C15.6914 14.3248 15.5656 14.2928 15.4426 14.4792C15.3168 14.6647 14.9574 15.0875 14.8496 15.209C14.7418 15.3342 14.6302 15.3483 14.4429 15.256C14.2566 15.1619 13.6522 14.966 12.9371 14.3286C12.3791 13.8343 12.0055 13.2222 11.8939 13.0368C11.7861 12.8503 11.8835 12.7505 11.9771 12.6573C12.0594 12.5744 12.1634 12.4389 12.2571 12.3315C12.3517 12.2242 12.3829 12.1451 12.4444 12.0208C12.5058 11.8946 12.4765 11.7873 12.4302 11.6941C12.3829 11.6009 12.0093 10.6809 11.8513 10.31C11.7 9.94369 11.5458 9.99454 11.4304 9.98983C11.3226 9.98324 11.1968 9.98324 11.071 9.98324C10.976 9.98564 10.8826 10.0075 10.7965 10.0476C10.7104 10.0876 10.6335 10.1449 10.5707 10.2158C10.3985 10.4022 9.91709 10.8533 9.91709 11.7732C9.91709 12.6931 10.5886 13.5772 10.6832 13.7024C10.7759 13.8277 12.0017 15.7099 13.883 16.5196C14.3275 16.7127 14.6775 16.8266 14.9508 16.9132C15.4001 17.0563 15.8058 17.0347 16.1293 16.9885C16.4887 16.9339 17.2369 16.5366 17.3948 16.1006C17.55 15.6637 17.55 15.2909 17.5027 15.2127C17.4563 15.1336 17.3305 15.0875 17.1433 14.9943Z" fill="white"/>
</svg>
