<svg width="52" height="52" viewBox="0 0 52 52" fill="none" xmlns="http://www.w3.org/2000/svg">
<rect width="52" height="52" rx="16" fill="#EB4699"/>
<path opacity="0.4" d="M35.4533 26.7867C35.24 26.7867 35.0267 26.72 34.84 26.5733C29.4667 22.4266 22.52 22.4266 17.1467 26.5733C16.7067 26.9066 16.08 26.8267 15.7467 26.4C15.4133 25.96 15.4933 25.3333 15.92 25C22.04 20.2667 29.9467 20.2667 36.0533 25C36.4933 25.3333 36.5733 25.96 36.2267 26.4C36.0533 26.6533 35.76 26.7867 35.4533 26.7867Z" fill="white"/>
<path d="M39.3333 22.1467C39.12 22.1467 38.9066 22.08 38.72 21.9333C30.9866 15.96 21 15.96 13.28 21.9333C12.84 22.2667 12.2133 22.1867 11.88 21.76C11.5467 21.32 11.6266 20.6933 12.0533 20.36C20.52 13.8133 31.4667 13.8133 39.9467 20.36C40.3867 20.6933 40.4666 21.32 40.12 21.76C39.9333 22.0133 39.6266 22.1467 39.3333 22.1467Z" fill="white"/>
<path d="M32.9466 31.6533C32.7333 31.6533 32.52 31.5867 32.3333 31.44C28.4933 28.4667 23.52 28.4667 19.6666 31.44C19.2266 31.7733 18.6 31.6933 18.2666 31.2667C17.9333 30.8267 18.0133 30.2 18.44 29.8667C23.0266 26.32 28.96 26.32 33.5466 29.8667C33.9866 30.2 34.0666 30.8267 33.72 31.2667C33.5333 31.52 33.24 31.6533 32.9466 31.6533Z" fill="white"/>
<path opacity="0.4" d="M29.4667 36.5333C29.2533 36.5333 29.04 36.4667 28.8533 36.32C27.12 34.9733 24.8667 34.9733 23.1333 36.32C22.6933 36.6533 22.0667 36.5733 21.7333 36.1467C21.4 35.7067 21.48 35.08 21.9066 34.7467C24.3866 32.8267 27.5866 32.8267 30.0667 34.7467C30.5067 35.08 30.5866 35.7067 30.24 36.1467C30.0666 36.3867 29.7733 36.5333 29.4667 36.5333Z" fill="white"/>
</svg>
