<svg width="346" height="97" viewBox="0 0 346 97" fill="none" xmlns="http://www.w3.org/2000/svg">
<mask id="mask0_295_1051" style="mask-type:luminance" maskUnits="userSpaceOnUse" x="0" y="0" width="346" height="97">
<path d="M345.962 0H0V96.2588H345.962V0Z" fill="white"/>
</mask>
<g mask="url(#mask0_295_1051)">
<mask id="mask1_295_1051" style="mask-type:luminance" maskUnits="userSpaceOnUse" x="0" y="0" width="346" height="97">
<path d="M345.893 0H0.0707397V96.2589H345.893V0Z" fill="white"/>
</mask>
<g mask="url(#mask1_295_1051)">
<path d="M121.494 2.4082H98.0236C92.8792 2.4082 88.8548 4.59238 86.3922 8.72175L75.4848 26.9712L60.7947 2.4082H29.4911L59.2033 47.4636L29.7099 94.3245H60.7835L75.5189 69.9012L90.4616 94.3245H121.282L91.7817 47.4636L121.494 2.4082Z" fill="#009FE3"/>
<path d="M4.0079 6.24783C2.74561 7.45979 1.74648 8.90709 1.07001 10.5035C0.393542 12.0999 0.0535941 13.8127 0.0704196 15.5398V94.3252H26.7767V2.39791H13.5498C11.7764 2.38 10.0175 2.71073 8.37803 3.37031C6.73861 4.02988 5.25232 5.00478 4.0079 6.23679" fill="#009FE3"/>
<path d="M168.063 60.1241C167 64.4447 165.306 67.4967 163.028 69.2251C160.418 71.1995 157.043 72.1666 152.713 72.1666C146.614 72.1666 142.334 70.3281 139.245 66.4304C135.937 62.2348 134.259 56.1677 134.259 48.3868C134.259 40.0545 135.907 33.8622 139.162 29.9755C142.327 26.203 146.916 24.3644 153.2 24.3644C157.914 24.3644 161.324 25.2175 163.334 26.9089C164.465 27.8612 165.496 29.2328 166.468 31.0936C169.033 35.9987 173.347 38.5911 178.944 38.5911H194.555L194.14 33.7447C193.208 23.2024 189.18 14.8885 182.168 9.0383C174.976 3.0373 165.23 0 153.2 0C138.653 0 127.199 4.29853 119.158 12.7779C111.457 20.8932 107.549 32.8732 107.549 48.3758C107.549 63.4518 111.351 75.2409 118.864 83.426C126.663 91.9422 137.721 96.2589 151.736 96.2589C164.005 96.2589 173.989 93.2365 181.384 87.2686C188.928 81.1975 193.22 72.538 194.155 61.5288L194.555 56.7229H168.908L168.063 60.1241Z" fill="#009FE3"/>
<path d="M331.734 94.5717C327.525 94.8027 323.303 94.7438 319.102 94.3949C314.576 94.0568 312.313 91.2363 312.313 85.9596V35.3446H318.673C319.435 35.3451 320.189 35.4981 320.889 35.794C321.589 36.0901 322.218 36.5226 322.741 37.0656C323.311 37.5991 323.758 38.2406 324.063 38.9501C324.367 39.6596 324.518 40.4224 324.507 41.1911V48.935H331.739V51.3435C331.765 52.1319 331.619 52.9158 331.31 53.6452C331.005 54.3744 330.542 55.0324 329.957 55.5759C329.395 56.1063 328.732 56.5236 328.006 56.8039C327.28 57.0839 326.503 57.2216 325.722 57.2086H324.487V82.6982C324.487 84.6546 325.66 85.6398 328.014 85.6398H331.721L331.734 94.5717ZM289.014 94.5717V47.3943C289.014 43.265 290.124 40.1653 292.375 38.0914C294.481 36.1388 297.962 35.1498 302.782 35.1498C303.731 35.1342 304.678 35.1934 305.617 35.3263C306.621 35.3115 307.623 35.3658 308.617 35.4879V44.9638H305.44C303.796 44.9638 302.608 45.1992 301.916 45.6552C301.325 46.1112 301.024 47.0378 301.024 48.402V51.5017H308.622V54.0758C308.643 54.8363 308.507 55.593 308.226 56.3022C307.943 57.0115 307.519 57.6585 306.978 58.2061C306.434 58.7534 305.786 59.19 305.068 59.4904C304.353 59.7909 303.581 59.9487 302.803 59.9554H301.042V94.5717H289.014ZM257.759 60.1318C255.287 62.7745 254.171 66.7064 254.413 71.928C254.639 77.1458 255.65 80.7898 257.412 82.8602C258.121 83.7865 259.358 84.5516 261.118 85.1802C262.845 85.8114 264.734 85.8734 266.5 85.3567C268.324 84.8456 269.952 83.5513 271.367 81.4812C272.78 79.4108 273.536 76.0866 273.659 71.5016C273.659 67.3611 272.98 64.2611 271.622 62.202C270.264 60.1428 268.714 58.8204 266.971 58.2346C265.254 57.6654 263.4 57.6345 261.665 58.1461C259.906 58.6758 258.609 59.3377 257.776 60.1318H257.759ZM249.291 90.4421C246.817 88.3733 245.048 85.586 243.985 82.0805C242.922 78.5307 242.39 74.85 242.405 71.152C242.406 68.0066 242.852 64.8765 243.728 61.849C244.48 58.9911 245.9 56.3417 247.876 54.1089C250.936 50.6769 254.881 48.6386 259.708 47.9936C264.536 47.3492 268.896 47.7167 272.787 49.0969C277.147 50.7269 280.687 53.938 282.672 58.0579C284.685 61.8357 285.689 66.2542 285.689 71.3139C285.689 74.991 285.278 78.1448 284.454 80.775C283.751 83.1631 282.68 85.4327 281.272 87.5041C278.458 91.2804 274.863 93.6303 270.498 94.5569C266.669 95.5816 262.637 95.6724 258.761 94.8216C254.813 93.9537 251.67 92.489 249.333 90.4273L249.291 90.4421ZM198.488 79.3963H210.497C210.602 81.687 211.493 83.4409 213.137 84.5699C214.913 85.7135 217.264 86.2871 220.205 86.2871C222.102 86.3399 223.984 85.9265 225.674 85.0846C227.092 84.2756 227.797 83.1874 227.797 81.8046C227.797 79.7492 225.326 78.1938 220.387 77.1642C218.769 76.9293 217.173 76.5801 215.608 76.1198C209.37 74.649 205.189 72.8719 203.067 70.7883C200.717 68.7141 199.54 65.9676 199.54 62.5146C199.499 60.4468 199.939 58.3968 200.825 56.5187C201.713 54.6404 203.027 52.9829 204.666 51.6708C208.209 49.0258 212.8 47.7032 218.44 47.7032C224.573 47.7032 229.46 49.0209 233.104 51.6562C236.523 54.5366 238.346 58.2688 238.573 62.8531H230.936C228.705 62.8531 227.002 61.8725 225.829 59.9112C225.345 59.4552 224.878 58.9992 224.41 58.5287C222.998 57.5039 221.053 56.9903 218.58 56.988C216.229 56.988 214.465 57.3262 213.274 58.0138C212.756 58.3535 212.339 58.8181 212.062 59.3621C211.785 59.9061 211.657 60.5108 211.693 61.1173C211.693 62.9533 214.751 64.5052 220.869 65.7725C221.578 65.9931 222.196 66.1696 222.724 66.2874C223.219 66.4014 223.724 66.4606 224.233 66.4639C230.233 67.9347 234.416 69.6814 236.759 71.6118C239.004 73.6857 240.123 76.4434 240.119 79.8852C240.119 84.9423 238.233 88.8464 234.461 91.5967C230.941 94.1241 225.647 95.3878 218.58 95.3878C211.858 95.3878 206.855 94.0654 203.569 91.4202C200.15 88.7875 198.441 84.9423 198.447 79.8852L198.488 79.3963Z" fill="#1E1E1E"/>
<path d="M340.637 35.6415C339.6 35.6415 338.585 35.9419 337.719 36.5048C336.855 37.0674 336.182 37.8674 335.786 38.8034C335.388 39.7394 335.284 40.7692 335.487 41.7629C335.69 42.7565 336.189 43.669 336.923 44.3857C337.659 45.102 338.596 45.5897 339.615 45.7873C340.632 45.985 341.688 45.8835 342.648 45.4958C343.611 45.1082 344.43 44.4517 345.008 43.6093C345.585 42.7669 345.895 41.7766 345.895 40.7636C345.889 39.4058 345.335 38.1041 344.352 37.1436C343.366 36.1837 342.032 35.6435 340.637 35.6415ZM340.637 44.7532C339.829 44.7532 339.038 44.5193 338.367 44.0809C337.693 43.6425 337.167 43.0194 336.858 42.2903C336.548 41.5614 336.468 40.7593 336.624 39.9853C336.782 39.2112 337.173 38.5004 337.745 37.9427C338.317 37.3847 339.048 37.0046 339.842 36.8506C340.635 36.6966 341.457 36.7756 342.206 37.0776C342.953 37.3796 343.592 37.8909 344.04 38.5471C344.49 39.2031 344.732 39.9745 344.732 40.7636C344.729 41.821 344.297 42.8348 343.53 43.5825C342.763 44.3303 341.725 44.7511 340.637 44.7532Z" fill="#1E1E1E"/>
<path d="M342.958 40.0362C342.968 39.8089 342.929 39.5824 342.841 39.3718C342.752 39.1609 342.62 38.9706 342.451 38.8138C342.281 38.6567 342.081 38.536 341.863 38.4603C341.642 38.3845 341.408 38.3552 341.176 38.3741H338.627V43.3674H339.946V41.6908H340.625L341.486 43.3674H342.994L341.949 41.5291C342.261 41.4187 342.529 41.2139 342.713 40.9446C342.895 40.6753 342.986 40.3557 342.971 40.0323L342.958 40.0362ZM340.991 40.562H339.943V39.4919H340.991C341.069 39.4809 341.15 39.4866 341.225 39.5082C341.301 39.5302 341.371 39.5677 341.431 39.6184C341.493 39.6692 341.54 39.7319 341.574 39.8023C341.608 39.8727 341.623 39.9494 341.623 40.027C341.623 40.1045 341.608 40.181 341.574 40.2514C341.54 40.3218 341.493 40.3848 341.431 40.4353C341.371 40.4863 341.301 40.5238 341.225 40.5457C341.15 40.5674 341.069 40.573 340.991 40.562Z" fill="#1E1E1E"/>
</g>
</g>
</svg>
