<svg width="1694" height="423" viewBox="0 0 1694 423" fill="none" xmlns="http://www.w3.org/2000/svg">
<g clip-path="url(#clip0_296_1148)">
<path d="M669.74 21.71H496.71C494.68 21.71 492.74 22.52 491.3 23.95L344.16 171.09C342.73 172.52 341.92 174.47 341.92 176.5V244C341.92 248.22 345.34 251.65 349.57 251.65H593.09C597.31 251.65 600.74 255.07 600.74 259.3V295.79C600.74 313.74 586.19 328.3 568.23 328.3H349.57C345.35 328.3 341.92 331.72 341.92 335.95V397.3C341.92 401.52 345.34 404.95 349.57 404.95H522.51C524.54 404.95 526.48 404.14 527.92 402.71L675.15 255.48C676.58 254.05 677.39 252.1 677.39 250.07V182.66C677.39 178.44 673.97 175.01 669.74 175.01H426.22C422 175.01 418.57 171.58 418.57 167.36V130.87C418.57 112.92 433.12 98.36 451.08 98.36H669.74C673.96 98.36 677.39 94.94 677.39 90.71V29.36C677.39 25.14 673.97 21.71 669.74 21.71Z" fill="#002A4B"/>
<path d="M363.67 96.0697C387.64 72.0997 403.25 56.4897 424.94 34.7997C429.76 29.9797 426.37 21.7197 419.56 21.7197H7.39024C3.17024 21.7197 -0.259766 25.1397 -0.259766 29.3697V90.7197C-0.259766 94.9397 3.16024 98.3697 7.39024 98.3697H207.72C214.53 98.3697 217.96 106.59 213.14 111.41C194.71 129.84 175.51 149.04 152.39 172.16C150.96 173.59 150.1 175.59 150.1 177.62V397.31C150.1 401.53 153.52 404.96 157.75 404.96H219.1C223.32 404.96 226.75 401.54 226.75 397.31V106.01C226.75 101.79 230.17 98.3597 234.4 98.3597H358.2C360.23 98.3597 362.23 97.4997 363.66 96.0697H363.67Z" fill="#002A4B"/>
<path d="M1192.43 29.36C1192.43 25.14 1189.01 21.71 1184.78 21.71H1022.99C1020.96 21.71 1019.02 22.52 1017.58 23.95L958.89 82.64C955.22 86.31 952.42 86.31 950.7 84.59C942.14 76.03 900.24 34.12 890.07 23.94C888.64 22.51 886.7 21.71 884.67 21.71H727.68C723.46 21.71 720.03 25.13 720.03 29.36V397.3C720.03 401.52 723.45 404.95 727.68 404.95H787.73C791.95 404.95 795.38 401.53 795.38 397.3V104.98C795.38 102.08 797.04 99.65 799.39 98.36H885.28C903.24 98.36 917.8 112.92 917.8 130.88V397.3C917.8 401.52 921.22 404.95 925.45 404.95H986.81C991.03 404.95 994.46 401.53 994.46 397.31L994.67 130.89C994.67 112.93 1009.23 98.37 1027.19 98.37H1108.28C1112.47 98.37 1115.89 101.67 1115.93 105.86C1116.35 148 1116.95 355.13 1117.07 397.41C1117.08 401.63 1120.5 404.96 1124.72 404.96H1184.79C1189.01 404.96 1192.44 401.54 1192.44 397.31V29.36H1192.43Z" fill="#002A4B"/>
<path d="M1626.9 327.43L1518.16 218.69C1517.75 218.28 1517.48 217.88 1517.22 217.48C1515.33 214.65 1515.6 210.87 1517.89 208.31L1605.72 120.34L1614.08 112.11L1691.25 34.8C1696.11 29.94 1692.73 21.71 1685.85 21.71H1599.1C1597.08 21.71 1595.19 22.52 1593.7 24L1417.63 200.07C1414.93 202.77 1411.42 202.9 1408.59 201.42C1406.3 200.21 1404.54 197.78 1404.54 194.67V108.73C1404.54 106.71 1403.73 104.68 1402.25 103.33L1365.42 65.96L1360.02 60.56L1323.32 24C1321.97 22.52 1319.95 21.71 1317.92 21.71H1231.17C1224.42 21.71 1220.92 29.94 1225.77 34.8L1290.26 99.43H1289.99L1398.73 208.04C1401.56 211.01 1401.7 215.46 1399.14 218.43L1398.73 218.97L1310.9 306.67C1310.9 306.81 1310.76 306.94 1310.76 307.08L1310.22 307.62L1303.47 314.23L1225.76 391.94C1220.9 396.8 1224.28 405.03 1231.16 405.03H1317.91C1319.93 405.03 1321.82 404.22 1323.31 402.74L1357.58 368.47L1500.46 225.73C1503.02 224.11 1506.13 224.25 1508.56 225.6C1510.72 226.81 1512.34 229.24 1512.34 232.21V318.15C1512.34 320.17 1513.15 322.2 1514.63 323.55L1556.45 365.51L1593.69 402.75C1595.17 404.23 1597.06 405.04 1599.09 405.04H1685.84C1692.72 405.04 1696.09 396.81 1691.24 391.95L1626.89 327.46L1626.9 327.43Z" fill="#002A4B"/>
</g>
<defs>
<clipPath id="clip0_296_1148">
<rect width="1694" height="423" fill="white"/>
</clipPath>
</defs>
</svg>
