<svg width="1024" height="255" viewBox="0 0 1024 255" fill="none" xmlns="http://www.w3.org/2000/svg">
<path d="M298.098 48.2449C303.513 47.3959 309.46 46.7029 314.747 45.7549C310.626 54.2269 305.619 64.303 302.22 73.033C294.445 92.597 287.699 112.509 283.66 133.25C283.399 134.588 282.734 136.663 281.74 137.609C278.162 138.718 271.339 139.375 267.371 139.947C259.089 141.145 250.815 142.395 242.548 143.694C220.404 147.231 198.374 151.447 176.489 156.335C165.718 158.737 155.009 161.409 144.373 164.347C141.054 165.273 115.387 173.372 114.244 173.35C111.1 172.017 101.366 176.495 97.5796 177.912C72.1241 187.432 46.9396 199.919 26.7465 218.394C24.6342 220.327 17.5844 229.004 15.5632 228.558C14.4158 224.724 19.8447 214.063 20.2623 209.937C21.93 201.346 39.1106 175.435 44.8438 167.935C92.8436 105.141 172.651 73.891 247.567 57.4124C263.076 54.0009 282.359 50.2319 298.098 48.2449Z" fill="#0074EA"/>
<path d="M298.098 48.2449C303.513 47.3959 309.46 46.7029 314.747 45.7549C310.626 54.2269 305.619 64.303 302.22 73.033C301.444 70.09 302.794 68.184 301.499 62.568C301.312 58.6589 297.597 55.2059 297.912 51.5904C298.038 50.1534 298.336 49.7859 298.098 48.2449Z" fill="#0581E2"/>
<path d="M49.0386 15.1562C75.2967 15.7517 102.062 15.7403 128.358 15.9468C127.192 27.6878 123.72 44.7478 121.852 57.0423C120.164 68.1503 117.712 86.4302 115.28 97.0322C91.5067 109.632 75.2498 122.064 56.1432 141.106C44.4292 152.981 28.8049 170.9 19.0146 184.51C20.6491 171.665 23.7835 156.232 26.0812 143.262L39.0861 69.8682L45.4291 33.6463C46.1291 29.6338 47.8931 18.3258 49.0386 15.1562Z" fill="#4C4C4C"/>
<path d="M596.68 77.5495L612.545 77.5215L612.525 108.956C614.455 108.195 618.585 106.616 620.46 106.534C630.715 106.081 660.83 105.037 669.415 106.706C673.555 107.495 677.47 109.2 680.875 111.695C691.65 119.604 692.81 129.739 692.57 142.076C692.355 153.083 692.535 157.842 685.775 167.016C673.23 179.951 660.925 177.112 644.23 177.051C630.065 176.999 617.345 179.79 605.88 169.361C593.62 158.207 597.44 143.747 596.775 129.027C596.355 111.82 597.28 94.6115 596.68 77.5495ZM664.95 162.012C676.195 159.142 676.415 151.36 676.87 141.594C677.975 117.59 662.73 120.971 644.775 120.952C638.48 120.946 630.905 120.698 624.415 121.102C620.18 122.069 617.325 123.788 615 127.536C611.455 133.237 611.435 144.551 612.975 150.988C613.87 154.72 616.05 158.144 619.355 160.168C625.11 163.692 656.63 162.352 664.95 162.012Z" fill="#4C4C4C"/>
<path d="M264.493 153.219C265.511 155.252 252.158 230.871 250.539 241C223.936 240.711 196.704 240.963 170.058 240.956L169.788 240.762C168.872 238.344 180.451 175.017 181.725 166.133C187.932 164.661 201.985 162.909 208.843 161.848L264.493 153.219Z" fill="#4C4C4C"/>
<path d="M831.275 106.118C839.245 105.692 848.31 105.795 856.31 105.88C867.375 105.998 880.735 104.319 890.12 111.11C896.37 115.673 900.545 122.539 901.72 130.19C904.855 150.08 900.965 172.886 877.44 176.56C871.43 177.367 864.045 176.67 857.735 176.845C836 177.446 810.33 179.121 806.29 151.044C803.5 131.633 807.79 109.14 831.275 106.118ZM874.485 161.454C878.845 160.451 880.86 158.913 883.34 155.113C886.265 150.739 886.115 145.998 886.34 141.098C886.745 132.38 884.12 121.937 873.675 121.248C862.205 120.491 850.32 121.217 838.8 121.009C837.57 120.987 836.02 120.96 834.82 121.089C823.57 123.05 822.67 130.755 822.2 140.313C821.03 164.09 833.83 161.842 852.43 161.639C859.22 161.564 867.375 161.849 874.485 161.454Z" fill="#0581E2"/>
<path d="M463.529 77.5428L479.409 77.5108L479.367 177.201L473.881 177.095C470.178 177.064 467.256 177.05 463.543 177.353L463.562 132.364C456.219 131.777 444.283 132.137 436.705 132.141L387.232 132.181C387.484 146.868 386.804 162.619 387.364 177.127L371.42 177.113C370.981 144.106 371.655 110.667 371.314 77.5678L387.376 77.5088C387.098 80.4328 387.284 87.5648 387.283 90.7958L387.296 117.16C412.254 116.776 438.508 117.175 463.517 117.2C463.675 104.126 463.529 90.6448 463.529 77.5428Z" fill="#4C4C4C"/>
<path d="M721.125 105.69C742.77 105.121 765.606 105.961 787.591 105.542L787.595 121.042C772.115 120.867 756.631 120.825 741.151 120.915C734.456 120.92 727.685 120.74 721.015 120.847C714.35 120.954 712.346 132.463 720.336 133.302C726.091 133.907 731.806 133.641 737.591 133.616L769.716 133.443C776.886 133.408 784.665 134.385 789.515 139.978C803.865 156.528 792.305 177.181 771.375 176.875C751.265 176.736 725.356 176.236 705.406 177.043C705.096 172.575 705.24 166.114 705.2 161.496L750.065 161.585C757.885 161.598 766.08 161.841 773.845 161.495C781.97 161.134 782.51 153.121 776.11 148.551C758.11 148.184 735.996 149.398 718.521 148.158C696.131 146.57 690.19 109.209 721.125 105.69Z" fill="#0055F8"/>
<path d="M490.066 106.005L505.96 105.983C505.9 120.786 505.25 137.152 506.42 151.582C507.265 162.045 521.9 162.988 529.33 162.417C535.72 161.925 544.545 162.245 550.86 162.455C572.43 163.172 570.195 148.022 570.12 132.388L570.075 106.016L586.01 106.014L585.98 120.75C586.03 135.927 588.755 158.476 577.76 168.698C567.14 178.576 555.825 177.146 542.755 177.097C536.16 177.08 529.57 177.1 522.975 177.156C513.41 177.164 505.705 176.078 498.533 168.843C494.879 165.15 492.289 160.539 491.038 155.496C489.295 148.538 490.029 115.323 490.066 106.005Z" fill="#4C4C4C"/>
<path d="M280.979 13.2443L290.207 13.1523C288.967 20.4598 287.546 34.4608 286.91 41.8963C257.53 45.3933 240.106 47.3538 210.866 57.0378L203.023 59.9077C204.647 44.7133 206.951 28.7683 208.204 13.6538L280.979 13.2443Z" fill="#4C4C4C"/>
<path d="M980.495 85.251L981.29 85.992C981.76 89.632 981.4 98.729 981.335 102.782L1005.84 102.497C1005.47 105.497 1005.67 114.493 1005.59 118.222C997.56 117.843 989.45 117.934 981.4 117.945C981.475 127.638 981.075 137.359 981.24 147.034C981.5 162.584 994.63 161.77 1005.85 161.47C1005.53 164.143 1005.7 170.646 1005.71 173.625C1005.72 174.835 1005.81 175.252 1005.19 176.305C1003.87 177.084 1001.24 177.276 999.715 177.231C989.765 176.944 980.76 175.447 973.42 168.156C963.95 158.754 964.92 147.911 965 135.929C965.055 129.995 965.035 124.06 964.94 118.127L957.845 117.909C957.98 113.18 956.735 106.264 959.175 103.288C960.68 102.156 962.92 102.56 964.885 102.663C965.06 97.261 964.765 90.505 965.44 85.289C970.275 85.448 975.615 85.296 980.495 85.251Z" fill="#0581E2"/>
<path d="M945.675 77.6794C946.79 77.4144 950.65 77.4564 952.005 77.4424C952.165 82.2184 952.035 87.4634 952.005 92.2764C930.775 95.2844 936.165 108.52 935.675 125.541C935.605 127.963 935.82 130.532 935.9 132.964C941.255 132.89 946.605 132.872 951.96 132.91C952.03 138.214 952.075 143.213 951.91 148.512C946.38 148.1 941.45 148.057 935.895 148.024C935.83 156.113 936.195 168.869 935.83 176.376C934.635 177.363 922.51 176.939 919.505 177.047C919.3 167.694 919.5 157.577 919.505 148.161L912.52 148.174C912.4 143.118 912.51 137.833 912.545 132.758C914.77 132.749 917.295 132.882 919.545 132.946C919.375 110.147 914.76 81.2744 945.675 77.6794Z" fill="#0581E2"/>
<path d="M334.991 13.8262C335.626 14.3327 335.898 15.2117 335.913 15.9962C336.18 29.7492 336.075 43.7327 336.077 57.4652L336.101 187.009C336.102 193.669 337.108 236.677 335.265 239.911C335.084 239.623 334.936 239.334 334.816 239.017C333.02 234.283 334.119 120.972 334.118 106.558L334.114 48.4252C334.116 43.6572 333.56 16.9772 334.991 13.8262Z" fill="#838386"/>
<path d="M20.2616 209.937C19.8439 214.063 14.4151 224.724 15.5625 228.558C17.5836 229.004 24.6334 220.327 26.7457 218.394C46.9388 199.92 72.1234 187.432 97.5789 177.912C101.366 176.495 111.1 172.017 114.244 173.35C71.2644 189.559 32.5622 204.226 7.77051 245.39C9.23766 238.512 16.4826 215.491 20.2616 209.937Z" fill="#0581E2" fill-opacity="0.988235"/>
</svg>
