<svg width="526" height="205" viewBox="0 0 526 205" fill="none" xmlns="http://www.w3.org/2000/svg">
<path d="M171.774 155.455C159.042 148.075 146.309 140.694 133.594 133.289C132.803 132.825 132.251 132.867 131.477 133.322C120.277 139.866 109.052 146.368 97.835 152.895C94.96 154.568 92.004 154.8 89.105 153.152C82.92 149.64 76.785 146.045 70.649 142.45C68.483 141.183 68.525 138.524 70.699 137.232C72.338 136.255 74.001 135.31 75.648 134.358C94.442 123.449 113.227 112.532 132.029 101.64C132.721 101.242 132.951 100.795 132.943 100.008C132.91 94.442 132.943 88.884 132.918 83.3179C132.91 79.7806 131.395 77.1052 128.315 75.3326C123.497 72.5578 118.671 69.7747 113.894 66.9336C112.931 66.3538 112.239 66.3538 111.259 66.9336C91.238 78.6127 71.168 90.217 51.164 101.921C48.578 103.437 46.083 101.963 46.132 99.064C46.255 92.412 46.181 85.7529 46.165 79.1014C46.157 75.4238 47.738 72.7235 50.909 70.8929C62.307 64.2913 73.688 57.6649 85.078 51.0633C85.63 50.7485 85.951 50.4586 85.951 49.7214C85.926 34.7871 85.926 19.861 85.926 4.92673C85.926 4.65343 85.885 4.38002 85.852 4.01562C85.424 4.24753 85.111 4.41312 84.798 4.59542C60.141 18.9168 35.492 33.2382 10.8178 47.543C7.573 49.4233 6.0082 52.1649 6.0082 55.9172C6.0247 85.8769 6.0329 115.845 6 145.805C6 149.723 7.573 152.531 10.966 154.494C36.719 169.412 62.463 184.354 88.183 199.338C91.559 201.301 94.771 201.351 98.139 199.388C120.301 186.483 142.488 173.611 164.667 160.723C167.31 159.19 169.954 157.65 172.688 156.059C172.309 155.827 172.029 155.654 171.749 155.488L171.774 155.455Z" fill="#2478B1"/>
<path d="M95.0179 47.1567C108.577 54.9887 122.094 62.8949 135.661 70.7103C139.11 72.7013 140.777 75.5516 140.728 79.5171C140.662 85.094 140.638 90.67 140.63 96.255C140.613 106.656 140.63 117.057 140.605 127.459C140.605 128.293 140.868 128.747 141.59 129.161C153.252 135.885 164.889 142.643 176.534 149.393C177.725 150.079 178.908 150.764 180.41 151.632C180.41 145.568 180.41 139.793 180.41 134.018C180.41 128.937 180.435 123.848 180.46 118.768C180.509 107.243 180.566 95.726 180.607 84.201C180.64 74.6263 180.657 65.0512 180.673 55.4761C180.673 52.0806 179.187 49.5113 176.271 47.8259C149.162 32.0795 122.053 16.333 94.9439 0.5866C94.6399 0.4131 94.3279 0.2479 93.8609 0V1.4045C93.8609 15.9613 93.8689 30.5263 93.8359 45.0914C93.8359 46.1158 94.1479 46.6528 95.0259 47.165L95.0179 47.1567Z" fill="#2478B1"/>
<path d="M486.691 54.6842C496.715 54.6842 506.74 54.6842 516.764 54.6842C517.182 54.6842 517.6 54.7157 518.008 54.7366V42.1758C517.464 42.1863 516.921 42.2072 516.377 42.2072C501.377 42.2072 486.377 42.2072 471.388 42.2072C469.13 42.2072 467.332 43.4748 466.799 45.5386C466.6 46.2929 466.621 47.11 466.621 47.9062C466.621 74.4107 466.621 100.926 466.621 127.43C466.621 127.765 466.621 128.101 466.621 128.436C466.705 131.296 468.545 133.129 471.388 133.129C486.931 133.129 502.464 133.129 518.008 133.129V120.568C517.59 120.589 517.172 120.621 516.764 120.621C506.781 120.621 496.799 120.621 486.816 120.621C483.283 120.621 481.37 118.735 481.36 115.236C481.349 109.244 481.349 103.262 481.36 97.269C481.36 93.865 483.336 91.885 486.733 91.885C495.795 91.874 504.858 91.885 513.921 91.885H515.52V79.5963H513.816C504.879 79.5963 495.942 79.5963 487.005 79.5963C483.262 79.5963 481.36 77.7106 481.349 73.9916C481.349 69.3403 481.349 64.6994 481.349 60.048C481.349 56.5804 483.262 54.6738 486.68 54.6738L486.691 54.6842Z" fill="#2478B1"/>
<path d="M235.84 120.628C232.234 120.628 230.394 118.784 230.394 115.128C230.394 109.314 230.509 103.489 230.352 97.675C230.248 93.506 233.091 91.83 236.112 91.861C245.091 91.955 254.07 91.892 263.049 91.892H264.502V79.6039H262.788C253.767 79.6039 244.746 79.6039 235.725 79.6039C232.38 79.6039 230.415 77.6449 230.404 74.3135C230.384 69.5364 230.394 64.7698 230.404 59.9927C230.404 56.5251 232.296 54.6813 235.777 54.6813C245.634 54.6813 255.492 54.6813 265.349 54.6813H266.917V42.2148H265.474C250.568 42.2148 235.652 42.2148 220.746 42.2148C217.495 42.2148 215.614 44.0586 215.614 47.3376C215.614 74.2611 215.603 101.174 215.614 128.098C215.614 131.303 217.506 133.147 220.694 133.147C235.641 133.147 250.6 133.147 265.547 133.147C265.986 133.147 266.425 133.105 266.927 133.074V120.639C266.289 120.639 265.798 120.639 265.296 120.639C255.481 120.639 245.666 120.639 235.85 120.639L235.84 120.628Z" fill="#2478B1"/>
<path d="M384.468 54.8721C385.095 54.8721 385.597 54.8721 386.089 54.8721C392.601 54.8721 399.113 54.8721 405.636 54.8721C409.221 54.8721 411.05 56.6845 411.05 60.2463C411.05 83.985 411.05 107.713 411.05 131.452V133.076H425.831C425.862 132.447 425.914 131.871 425.914 131.295C425.914 107.64 425.956 83.996 425.872 60.3406C425.862 57.0406 428.078 54.7569 431.35 54.8302C437.904 54.9664 444.458 54.8721 451.022 54.8721C451.513 54.8721 452.005 54.8197 452.475 54.7883V42.3008H384.479V54.8721H384.468Z" fill="#2478B1"/>
<path d="M339.942 131.986C339.91 128.55 339.931 125.124 339.921 121.688C339.921 121.364 339.858 121.039 339.806 120.567H338.154C327.837 120.567 317.52 120.567 307.214 120.567C303.263 120.567 301.402 118.692 301.402 114.711C301.402 91.098 301.402 67.485 301.402 43.8824V42.332H286.684V102.465C286.684 111.086 286.684 119.708 286.684 128.341C286.684 131.148 288.524 133.149 291.2 133.149C307.067 133.17 322.935 133.149 338.813 133.181C339.722 133.181 339.942 132.845 339.931 132.007L339.942 131.986Z" fill="#2478B1"/>
<path d="M355.747 133.073H370.391V42.2773H355.747V133.073Z" fill="#2478B1"/>
<path d="M332.583 154.293C329.165 154.597 326.615 156.168 325.36 159.405C324.764 160.935 324.597 162.621 324.242 164.235C324.304 169.462 326.886 174.313 333.085 174.69C336.994 174.931 340.695 173.558 342.242 169.253C342.785 167.755 342.963 166.078 343.036 164.476C343.287 158.934 340.151 153.622 332.594 154.282L332.583 154.293ZM338.301 168.331C337.684 170.269 336.148 171.337 334.172 171.411C331.757 171.505 330.127 170.635 329.343 168.614C328.266 165.827 328.297 162.977 329.374 160.18C330.116 158.263 331.716 157.54 333.649 157.498C335.594 157.457 337.266 158.158 338.029 160.023C338.604 161.417 338.782 162.977 339.095 164.329C338.813 165.816 338.677 167.116 338.301 168.341V168.331Z" fill="#2478B1"/>
<path d="M262.63 164.046C261.595 163.522 260.498 163.103 259.442 162.621C258.386 162.139 257.236 161.773 256.316 161.092C255.742 160.673 255.24 159.782 255.208 159.07C255.146 158.054 256.107 157.53 257.006 157.509C258.491 157.478 260.017 157.488 261.449 157.813C264.177 158.441 264.156 158.536 265.066 155.875C265.086 155.801 265.055 155.718 265.024 155.487C261.428 154.125 257.748 153.622 254.038 155.141C252.02 155.959 251.059 157.572 251.132 159.803C251.194 161.574 251.895 163.019 253.431 163.847C255.261 164.832 257.194 165.618 259.066 166.529C260.33 167.157 261.783 167.734 261.564 169.546C261.397 170.908 260.027 171.788 257.895 171.62C255.689 171.442 253.505 170.908 251.142 170.499C251.142 171.159 251.059 171.997 251.174 172.815C251.226 173.202 251.602 173.736 251.947 173.852C255.271 174.952 258.658 175.14 261.992 173.967C264.041 173.244 265.295 171.746 265.525 169.525C265.776 167.063 264.877 165.178 262.64 164.046H262.63Z" fill="#2478B1"/>
<path d="M404.362 151.807C404.31 152.258 404.247 152.74 404.31 153.18C404.477 154.217 404.007 154.73 403.056 154.971C402.773 155.044 402.522 155.223 402.24 155.285C401.007 155.558 400.777 156.312 401.184 157.464C402.188 157.527 403.171 157.59 404.331 157.653V174.237H408.449V157.538C409.327 157.538 410.069 157.538 410.812 157.538C412.54 157.538 413.31 156.651 413.122 154.877C413.122 154.803 413.038 154.741 412.923 154.563H408.585C407.78 150.728 409.296 149.084 412.913 149.67C413.122 149.702 413.341 149.869 413.509 149.817C413.812 149.723 414.24 149.586 414.355 149.356C414.69 148.612 414.899 147.816 415.202 146.915C414.251 146.705 413.456 146.444 412.641 146.36C408.418 145.93 404.937 146.768 404.362 151.797V151.807Z" fill="#2478B1"/>
<path d="M479.424 171.407C477.658 171.407 476.612 170.401 476.591 168.62C476.56 165.278 476.591 161.926 476.57 158.584C476.57 157.809 476.874 157.537 477.595 157.547C478.807 157.568 480.02 157.589 481.222 157.516C481.546 157.495 482.037 157.201 482.121 156.929C482.654 155.242 482.142 154.572 480.407 154.572C480.198 154.572 479.989 154.572 479.779 154.572C477.682 154.572 476.612 153.503 476.57 151.366C476.57 151.199 476.623 150.989 476.55 150.874C476.393 150.633 476.205 150.308 475.964 150.245C474.616 149.889 474.03 150.224 473.591 151.618C473.09 153.231 472.64 154.823 470.727 155.358C469.671 155.651 469.473 156.416 469.87 157.453C470.685 157.516 471.511 157.578 472.462 157.652V159.087C472.462 162.303 472.442 165.53 472.462 168.746C472.483 171.732 473.696 173.628 475.985 174.351C477.877 174.948 479.779 174.749 481.64 174.235C481.922 174.162 482.278 173.785 482.32 173.513C482.414 172.758 482.351 171.973 482.351 171.176C481.222 171.26 480.313 171.375 479.414 171.386L479.424 171.407Z" fill="#2478B1"/>
</svg>
