<svg width="415" height="90" viewBox="0 0 415 90" fill="none" xmlns="http://www.w3.org/2000/svg">
<path fill-rule="evenodd" clip-rule="evenodd" d="M69.4004 16.1481C64.9558 16.1481 61.3523 12.5446 61.3523 8.10347C61.3523 3.65885 64.9558 0.0588462 69.4004 0.0588462C73.8485 0.0588462 77.452 3.65885 77.452 8.10347C77.452 12.5446 73.8485 16.1481 69.4004 16.1481ZM76.6316 20.1739V69.7258H62.1762V20.1739H76.6316ZM301.981 16.1481C297.537 16.1481 293.933 12.5446 293.933 8.10347C293.933 3.65885 297.537 0.0588462 301.981 0.0588462C306.429 0.0588462 310.033 3.65885 310.033 8.10347C310.033 12.5446 306.429 16.1481 301.981 16.1481ZM309.212 20.1739V69.7258H294.761V20.1739H309.212ZM414.312 43.3177L414.211 48.2643H377.692C378.976 55.7827 383.331 59.2443 389.171 59.3446C393.522 59.3446 398.174 57.0704 399.759 53.0135H413.716C412.034 62.3112 403.027 70.7158 389.468 70.7158C373.535 70.7158 363.14 59.9366 363.14 44.9031C363.14 29.6689 374.227 19.0869 389.468 19.0869C403.027 19.0869 414.312 29.1739 414.312 43.3177ZM377.986 39.2608H400.054C399.365 32.4416 394.02 30.1639 389.465 30.1639C385.013 30.1639 379.572 31.9466 377.986 39.2608ZM352.451 20.1739H367.297L347.102 69.7258H331.865L311.67 20.1739H327.212L339.781 53.01L352.451 20.1739ZM272.977 28.0869C276.342 22.8427 281.686 19.4781 287.82 19.4781C288.911 19.4781 290.295 19.5785 291.188 19.8762V33.4281C290.001 33.2308 288.713 33.1339 287.526 33.1339C278.221 33.1339 273.372 39.96 273.372 49.7458V69.7258H259.024V33.2308C259.024 32.4416 258.726 32.2408 257.836 32.2408H252.883V20.1773H265.355C270.405 20.1773 272.977 22.5485 272.977 27.0035V28.0869ZM250.307 57.6589V57.6658H255.455V69.7327H242.685C237.344 69.7327 235.855 65.6758 235.658 63.4985C233.581 66.7593 228.039 70.7158 220.22 70.7158C206.266 70.7158 196.467 60.4281 196.467 44.9031C196.467 29.6689 206.661 19.0869 220.618 19.0869C227.645 19.0869 232.892 22.2542 234.772 24.7258V13.0535C234.772 12.2608 234.471 11.9665 233.581 11.9665H228.932V0H241.498C246.745 0 249.317 2.27423 249.317 7.21731V56.6689C249.317 57.4616 249.518 57.6589 250.307 57.6589ZM223.19 58.8462C228.735 58.8462 235.066 55.2843 235.066 44.7993C235.066 38.0769 231.106 31.1504 223.287 31.1504C216.364 31.1504 211.216 36.6889 211.216 44.8962C211.216 53.505 216.26 58.8462 223.19 58.8462ZM193.296 43.3177L193.199 48.2643H156.68C157.964 55.7827 162.319 59.2443 168.158 59.3446C172.509 59.3446 177.162 57.0704 178.747 53.0135H192.704C191.022 62.3112 182.015 70.7158 168.456 70.7158C152.522 70.7158 142.127 59.9366 142.127 44.9031C142.127 29.6689 153.215 19.0869 168.456 19.0869C182.015 19.0869 193.296 29.1739 193.296 43.3177ZM156.977 39.2608H179.048C178.356 32.4416 173.011 30.1639 168.456 30.1639C164.004 30.1639 158.563 31.9466 156.977 39.2608ZM115.609 19.0869C129.559 19.0869 138.964 29.4681 138.97 44.9031C138.97 60.2308 129.074 70.7158 114.92 70.7158C108.19 70.7158 102.645 67.9466 100.572 64.485L100.669 68.0435V90H86.2166V33.2308C86.2166 32.4346 86.0158 32.2408 85.1262 32.2408H80.1797V20.1704H92.2535C97.792 20.1704 99.1766 24.9196 99.5747 26.9965C101.749 23.3377 107.491 19.0869 115.609 19.0869ZM111.943 58.8427C117.682 58.8427 124.214 54.6923 124.21 44.9966C124.21 36.7892 118.866 31.1504 112.137 31.1504C106.598 31.1504 100.36 34.8127 100.36 45.0969C100.36 51.8227 104.123 58.8427 111.943 58.8427ZM58.7943 44.9031C58.7943 60.2308 48.8943 70.7158 34.7435 70.7158C28.0142 70.7158 22.4689 67.9466 20.3919 64.485L20.4889 68.0435V90H6.04385V33.2308C6.04385 32.4416 5.84654 32.2408 4.95346 32.2408H0V20.1739H12.0773C17.6192 20.1739 19.0073 24.9231 19.4019 27.0035C21.5792 23.3446 27.3185 19.0904 35.4323 19.0904C49.3893 19.0869 58.7943 29.4681 58.7943 44.9031ZM44.0446 45C44.0446 36.7892 38.7035 31.1539 31.9673 31.1539C26.4289 31.1539 20.1912 34.8127 20.1912 45.1039C20.1912 51.8262 23.9504 58.8496 31.7735 58.8496C37.5127 58.8462 44.0446 54.6923 44.0446 45Z" fill="#017737"/>
</svg>
