<svg xmlns="http://www.w3.org/2000/svg" width="500" height="71" version="1.1" viewBox="0 0 500 71">
<path d="m92.746 16.408c-16.839 0-27.772 12.578-27.772 27.127 0 15.206 10.496 27.24 27.772 27.24 16.619 0 27.553-12.796 27.553-27.24 0-15.093-10.496-27.127-27.553-27.127zm-0.10585 41.57c-8.6384 0-12.686-7.0024-12.686-14.443 0-7.3276 4.0471-14.33 12.791-14.33 8.638 0 12.572 6.8894 12.572 14.33 0 7.4407-3.9342 14.443-12.678 14.443zm-34.489-4.5011-7.4093-5.6741c-3.4963 5.3632-9.0759 8.967-16.732 8.967-11.81 0-18.59-9.299-18.59-21.333 0-11.595 6.1237-21.219 18.915-21.219 7.4374 0 12.466 3.2787 15.857 8.6418l7.487-5.7518c1.7234-1.3284 2.112-3.7945 0.8335-5.561-5.7141-7.9069-14.614-11.327-24.283-11.327-23.4 0-34.228 17.503-34.228 35.224 0 21 12.466 35.337 34.009 35.337 10.277 0 19.346-3.6954 25.003-11.772 1.2432-1.7736 0.84761-4.2184-0.86173-5.5326zm101.27-37.069c-7.4305 0-13.335 3.1727-17.269 8.3097-0.11291-1.4203-0.33167-2.8406-0.65668-4.3739-0.65708-1.8584-2.0767-2.7346-4.3721-2.7346h-8.7584v51.964h14.981v-24.724c0-10.5 5.0288-15.644 12.466-15.644 5.9047 0 9.1822 3.4977 9.1822 10.719v29.649h14.981v-29.098c7e-3 -15.976-7.4305-24.067-20.554-24.067zm58.328 41.167c-0.86173 0.24738-1.7658 0.41008-2.6769 0.41008-6.0109 0-9.4013-3.4979-9.4013-10.938v-16.952h13.399c2.2319 0 4.0471-1.816 4.0471-4.0488v-8.4157h-17.439v-7.4547c0-2.2329-1.8156-4.0488-4.0475-4.0488h-10.926v40.369c0 15.023 6.6111 24.279 19.826 24.279 7.7344 0 13.152-3.3493 15.638-5.2923l-3.8989-6.183c-0.96052-1.5051-2.7969-2.2257-4.5203-1.7242zm38.155-41.167c-8.2499 0-14.508 1.5404-20.695 5.773-2.0202 1.385-2.4013 4.2184-0.86173 6.1263l4.1671 5.1653c5.4671-4.2679 10.058-5.1441 15.419-5.1441 6.9996 0 11.591 3.7167 11.591 11.815v0.65707c-4.153-1.5334-8.8572-2.2966-14.105-2.2966-15.087 0-21.324 8.0977-21.324 16.408 0 8.0974 5.3613 15.863 18.915 15.863 8.6384 0 14.437-3.7307 17.934-8.5428 0.11291 1.4204 0.22582 2.8404 0.55083 4.3737 0.43791 2.0775 2.0763 2.9537 4.3721 2.9537h7.7622v-28.646c7e-3 -17.064-10.496-24.505-23.725-24.505zm9.0759 33.585c-0.87584 5.5824-5.3609 9.8432-13.448 9.8432-4.485 0-7.5434-1.7525-7.5434-5.6882 0-4.1549 2.9521-6.2324 9.9518-6.2324 4.1534 0 7.5434 0.54417 11.153 1.4204zm147.68 7.1086h-23.619l24.482-26.901c1.4192-1.5333 1.9681-2.9536 1.9681-5.031v-3.4977l0.0157-4.063h-40.352c-2.5142 0-4.0401 1.4203-4.0401 4.0418v8.4228h25.809l-24.374 26.9c-1.42 1.4204-2.0767 2.8408-2.0767 4.9253v7.6736h46.242v-8.4228c-0.0157-2.6283-1.5408-4.0487-4.0538-4.0487zm58.27-39.492h-11.456v24.83c0 10.5-4.7046 15.531-12.134 15.531-5.6847 0-8.8564-3.4979-8.8564-10.613v-26.229c0-1.9502-1.576-3.526-3.5245-3.526h-11.46v29.211c0 15.75 7.3274 23.961 20.23 23.961 7.2137 0 12.898-3.1725 16.944-8.2036 0.1137 1.3142 0.3254 2.8404 0.6586 4.1549 0.541 1.9712 2.0739 2.8404 4.3713 2.8404h8.7584v-48.438c-0.01-1.9432-1.5839-3.5189-3.5323-3.5189zm25.017-16.273h-10.926v64.188c0 2.2327 1.8152 4.0487 4.0499 4.0487h10.926v-64.188c-0.01-2.2329-1.8152-4.0488-4.0499-4.0488zm-158.48-0.0283h-14.034l-26.572 68.265h15.306l5.7988-16.301h27.772l5.9047 16.301h15.744l-25.23-65.093c-0.75588-2.1834-2.3942-3.1726-4.6901-3.1726zm-15.348 39.167 9.733-26.258 9.733 26.258z" fill="#2687e9"/>
</svg>