<svg width="56" height="60" viewBox="0 0 56 60" fill="none" xmlns="http://www.w3.org/2000/svg">
<g clip-path="url(#clip0_1_20784)">
<path d="M28 10.1705C12.5607 10.1705 0 22.2628 0 37.1264C0 45.5542 3.99559 53.3464 10.9614 58.503L12.9361 59.9654C12.9361 59.9654 12.7273 55.5712 12.6748 54.4415C12.6913 54.4385 12.7108 54.4356 12.7293 54.4316C16.8494 57.8059 22.1809 59.8495 28.001 59.8495C33.8211 59.8495 38.9182 57.9 42.9992 54.6593C42.995 55.9168 42.9837 60 42.9837 60L44.8453 58.6475C51.9355 53.492 56.0021 45.6483 56.0021 37.1264C56.0021 22.2628 43.4414 10.1705 28.0021 10.1705H28Z" fill="#1E1E1E"/>
<path d="M20.2523 0L19.8296 3.14857L16.5879 3.75848L19.5756 5.14365L19.2023 8.30014L21.4669 5.98921L24.4711 7.31002L22.8883 4.52087L25.1159 2.15449L21.8763 2.76341L20.2523 0Z" fill="#1E1E1E"/>
<path d="M35.7475 0L36.1702 3.14857L39.4119 3.75848L36.4242 5.14365L36.7975 8.30014L34.5329 5.98921L31.5297 7.31002L33.1115 4.52087L30.8849 2.15449L34.1235 2.76341L35.7475 0Z" fill="#1E1E1E"/>
<path d="M28 11.0061C13.0389 11.0061 0.868042 22.7231 0.868042 37.1264C0.868042 45.2928 4.74022 52.8434 11.49 57.8406L11.9837 58.2059C11.9837 58.2059 11.7934 54.1811 11.7729 53.7534C11.9045 53.7296 12.3797 53.6435 12.9772 53.5365C17.1343 57.0683 22.4628 59.0138 28.001 59.0138C33.5393 59.0138 38.731 57.1168 42.8624 53.6732C43.3632 53.7682 43.7551 53.8425 43.8692 53.8633C43.8692 54.2732 43.8559 58.3178 43.8559 58.3178L44.3218 57.9802C51.193 52.984 55.134 45.3829 55.134 37.1254C55.134 22.7222 42.9632 11.0051 28.0021 11.0051L28 11.0061Z" fill="white"/>
<path d="M28 58.4574C22.7558 58.4574 17.7061 56.6643 13.7074 53.4058C14.9889 53.1761 16.4226 52.9187 16.4226 52.9187L15.9011 52.5385C10.8328 48.8414 7.92639 43.2245 7.92639 37.1273C7.92639 26.4707 16.9316 17.8013 28.001 17.8013C39.0704 17.8013 48.0757 26.4707 48.0757 37.1273C48.0757 43.2057 45.0376 49.0087 39.9487 52.6484L39.4242 53.0236C39.4242 53.0236 40.8805 53.2999 42.1332 53.5375C38.1613 56.7118 33.1691 58.4584 28.001 58.4584L28 58.4574Z" fill="#1E1E1E"/>
<path d="M44.4369 57.1564C44.44 56.2762 44.4482 53.4068 44.4482 53.4068C44.4482 53.4068 41.6313 52.8731 40.7684 52.7108C45.704 48.9493 48.6526 43.1809 48.6526 37.1273C48.6526 26.1638 39.3882 17.2448 28 17.2448C16.6118 17.2448 7.34733 26.1638 7.34733 37.1273C7.34733 43.1997 10.1694 48.7919 15.0773 52.5949C14.1959 52.7533 11.1722 53.2959 11.1722 53.2959C11.1722 53.2959 11.3038 56.0732 11.347 56.988C5.06002 52.0979 1.44702 44.9077 1.44702 37.1273C1.44702 23.0311 13.3587 11.5635 28.001 11.5635C42.6433 11.5635 54.555 23.0311 54.555 37.1273C54.555 45.0116 50.8628 52.2662 44.438 57.1574L44.4369 57.1564Z" fill="#1E1E1E"/>
<path d="M41.1313 49.7681C48.3833 42.7865 48.3833 31.4671 41.1313 24.4854C33.8793 17.5038 22.1214 17.5038 14.8694 24.4855C7.61734 31.4671 7.61734 42.7865 14.8694 49.7681C22.1214 56.7497 33.8793 56.7497 41.1313 49.7681Z" fill="white"/>
<path d="M45.7641 39.8777C47.3425 30.433 40.6691 21.5447 30.8585 20.0252C21.048 18.5056 11.8154 24.9302 10.237 34.3749C8.65859 43.8196 15.332 52.7079 25.1426 54.2275C34.9531 55.747 44.1857 49.3224 45.7641 39.8777Z" fill="#1E1E1E"/>
<path d="M9.39807 52.1147L9.39088 52.1068L10.2301 50.8454L10.8451 51.5523L9.39807 52.1157V52.1147ZM11.4766 51.3048L10.587 50.282L11.0261 49.6256L10.479 48.9968L8.44983 52.2949L9.03091 52.9622L12.7694 51.6295L12.2387 51.0196L11.4776 51.3048H11.4766Z" fill="white"/>
<path d="M9.14096 48.979C9.31682 48.8701 9.60274 48.5859 9.24792 48.0216C9.05559 47.7156 8.76557 47.4206 8.42514 47.6186C8.17523 47.7641 8.25442 48.0364 8.37989 48.4107L8.50845 48.7889C8.7018 49.3582 8.88898 49.9087 8.18243 50.3206C7.82452 50.5295 7.07785 50.7127 6.44638 49.7097C5.84986 48.7622 6.33427 48.1324 6.72509 47.8988L7.11488 48.5186C6.98221 48.6196 6.67572 48.8691 7.03054 49.4335C7.18481 49.679 7.46353 49.9176 7.75356 49.7473C8.00347 49.6008 7.93251 49.3711 7.88314 49.2245L7.60134 48.3582C7.44296 47.873 7.37817 47.3819 7.95514 47.0453C8.92087 46.4809 9.60274 47.379 9.77346 47.6503C10.4841 48.779 9.93082 49.3661 9.5328 49.5988L9.14301 48.979H9.14096Z" fill="white"/>
<path d="M7.53766 46.1978C7.72896 46.1156 8.05498 45.874 7.78861 45.2661C7.64462 44.9364 7.40293 44.6027 7.0368 44.7513C6.76734 44.8612 6.80436 45.1414 6.87121 45.5285L6.94012 45.9206C7.04503 46.5127 7.14684 47.082 6.38475 47.3899C5.99907 47.5463 5.23184 47.6216 4.75977 46.5404C4.31445 45.5186 4.88833 44.9641 5.31103 44.7879L5.60311 45.4562C5.45707 45.5374 5.11459 45.7414 5.37994 46.3493C5.49513 46.6137 5.73476 46.8889 6.04844 46.7622C6.31893 46.6533 6.28293 46.4166 6.25619 46.2632L6.10912 45.3671C6.02684 44.8661 6.03713 44.3701 6.65832 44.1186C7.70016 43.6978 8.23702 44.681 8.36455 44.973C8.89524 46.1899 8.25862 46.6929 7.82974 46.8661L7.53766 46.1978Z" fill="white"/>
<path d="M5.64833 43.3284C4.62603 43.565 4.23213 43.066 4.1334 42.671C4.03363 42.2739 4.14882 41.6571 5.17009 41.4195C6.19239 41.1818 6.58629 41.6818 6.68502 42.0769C6.78478 42.4739 6.67062 43.0908 5.64833 43.3284ZM5.83242 44.0621C7.54585 43.6641 7.44711 42.3918 7.3309 41.9274C7.21468 41.463 6.69942 40.2868 4.98599 40.6858C3.27257 41.0838 3.3713 42.3561 3.48752 42.8205C3.60374 43.2848 4.119 44.4611 5.83242 44.0621Z" fill="white"/>
<path d="M4.11075 37.8808C3.89066 37.9561 3.47722 38.1006 3.52247 38.7234C3.54818 39.0858 3.83821 39.6007 4.8965 39.5294C5.56912 39.4838 6.15637 39.1868 6.11009 38.5482C6.07924 38.1313 5.81286 37.8571 5.348 37.7977L5.29349 37.0452C6.11832 37.1412 6.72408 37.6145 6.78991 38.5185C6.85984 39.4779 6.23659 40.2106 4.94278 40.2987C3.63354 40.3868 2.91259 39.7036 2.84471 38.7749C2.76655 37.6947 3.50601 37.2056 4.05624 37.1283L4.11075 37.8808Z" fill="white"/>
<path d="M6.67169 35.958L6.64186 36.7125L2.89001 36.5758L2.91984 35.8204L6.67169 35.958Z" fill="white"/>
<path d="M3.9904 33.7243L3.99245 33.7134L5.53001 33.4778L5.39117 34.3897L3.99142 33.7243H3.9904ZM6.00105 34.6798L6.20263 33.3599L7.00277 33.2391L7.12619 32.4272L3.21905 33.1629L3.0874 34.0243L6.60784 35.8243L6.72817 35.0372L6.00002 34.6798H6.00105Z" fill="white"/>
<path d="M5.42306 29.5678C5.1896 29.5619 4.74942 29.5529 4.55915 30.15C4.4491 30.4965 4.52624 31.0777 5.54133 31.3777C6.18618 31.5678 6.8444 31.4936 7.03878 30.8827C7.16631 30.4837 7.02027 30.1351 6.60785 29.9183L6.8372 29.1965C7.57153 29.5708 7.96029 30.2223 7.68466 31.0896C7.39155 32.0094 6.53689 32.4777 5.29656 32.1124C4.04183 31.7421 3.62324 30.8559 3.9071 29.9648C4.23621 28.9302 5.10938 28.7292 5.65241 28.847L5.42306 29.5688V29.5678Z" fill="white"/>
<path d="M6.21915 26.8312L6.22326 26.8223L7.76082 27.053L7.33812 27.8787L6.21812 26.8312H6.21915ZM7.82767 28.3352L8.44064 27.1391L9.24078 27.2609L9.6172 26.5242L5.6648 26.0678L5.26473 26.849L8.04056 29.6035L8.40567 28.8896L7.82767 28.3342V28.3352ZM4.77518 25.4717C4.84615 25.5282 4.93048 25.6242 4.85437 25.7727C4.82146 25.8361 4.77107 25.8906 4.6312 26.0143C4.49132 26.1391 4.42859 26.1935 4.37511 26.2975C4.27123 26.5005 4.30517 26.6737 4.38334 26.8183C4.46356 26.9569 4.588 27.0559 4.67233 27.1183L4.82043 26.8292C4.77312 26.7955 4.64662 26.6797 4.72684 26.5213C4.76592 26.445 4.86363 26.3678 4.98499 26.245C5.05492 26.1767 5.18451 26.0361 5.23593 25.9371C5.42826 25.5628 5.0539 25.2668 4.92534 25.1777L4.77518 25.4707V25.4717Z" fill="white"/>
<path d="M8.53734 24.8776C7.68474 24.2865 7.82049 23.6736 8.06835 23.342C8.31621 23.0113 8.87673 22.6924 9.72933 23.2845C10.5819 23.8756 10.4462 24.4885 10.1983 24.8192C9.95045 25.1499 9.38993 25.4687 8.53734 24.8776ZM8.07864 25.4905C9.50924 26.4816 10.4472 25.5816 10.7372 25.1935C11.0273 24.8053 11.6176 23.6628 10.187 22.6716C8.75743 21.6805 7.81844 22.5816 7.52841 22.9697C7.23838 23.3578 6.64804 24.4994 8.07864 25.4915V25.4905Z" fill="white"/>
<path d="M12.827 19.3578C12.6306 19.236 12.2593 19.0082 11.7749 19.4231C11.4931 19.6637 11.2452 20.1984 11.9508 20.9627C12.3992 21.4479 13.0008 21.7142 13.4976 21.2895C13.8226 21.0122 13.8853 20.6409 13.6498 20.2498L14.236 19.7479C14.6608 20.435 14.6402 21.1865 13.9367 21.7885C13.1901 22.4271 12.2069 22.3994 11.345 21.4667C10.4729 20.5221 10.5952 19.5548 11.3183 18.937C12.1585 18.2181 13.0132 18.4845 13.4122 18.8558L12.826 19.3578H12.827Z" fill="white"/>
<path d="M15.0238 18.7884L15.9288 20.1558L15.2675 20.5617L13.2487 17.5142L13.91 17.1082L14.6751 18.2627L15.9103 17.5043L15.1451 16.3498L15.8065 15.9438L17.8253 18.9914L17.164 19.3974L16.259 18.03L15.0238 18.7884Z" fill="white"/>
<path d="M18.3962 15.6725L18.4054 15.6686L19.4215 16.8032L18.5432 17.1686L18.3962 15.6725ZM18.609 17.8221L19.8813 17.2924L20.4089 17.8845L21.1915 17.5587L18.4877 14.7458L17.6577 15.0913L17.9179 18.9211L18.6769 18.6053L18.6101 17.8211L18.609 17.8221Z" fill="white"/>
<path d="M21.5978 15.4874L21.3211 14.4586L21.9238 14.3081C22.3948 14.1913 22.6303 14.2834 22.7219 14.624C22.764 14.7804 22.8689 15.1695 22.3023 15.3111L21.5988 15.4864L21.5978 15.4874ZM21.7602 16.0913L22.6314 15.8745C23.6084 15.6309 23.5755 14.7864 23.4901 14.4695C23.305 13.7824 22.763 13.4546 22.0595 13.6299L20.3986 14.0438L21.3406 17.5428L22.0996 17.3537L21.7602 16.0913Z" fill="white"/>
<path d="M26.8039 13.5774L24.8221 13.7804L24.9054 14.5368L26.7257 14.3507L26.7957 14.9864L24.9753 15.1725L25.0781 16.1032L27.1474 15.8913L27.2184 16.527L24.3839 16.8171L23.9869 13.223L26.7329 12.9418L26.8039 13.5774Z" fill="white"/>
<path d="M30.06 14.2002C30.0085 13.9814 29.9078 13.5685 29.2609 13.5378C28.8844 13.521 28.3188 13.7368 28.2684 14.7577C28.2355 15.4062 28.4741 16.0022 29.1364 16.0329C29.5704 16.0527 29.8851 15.8309 30.0013 15.3923L30.785 15.429C30.5886 16.2062 30.0291 16.73 29.0891 16.6864C28.0915 16.6409 27.4076 15.9587 27.4703 14.7111C27.533 13.4487 28.3229 12.8398 29.2886 12.8844C30.4117 12.9368 30.8293 13.7012 30.8447 14.2369L30.061 14.2002H30.06Z" fill="white"/>
<path d="M31.9565 15.0587C32.1797 14.0705 32.8184 13.9468 33.2329 14.0329C33.6473 14.12 34.1739 14.4884 33.9497 15.4765C33.7255 16.4656 33.0878 16.5884 32.6734 16.5022C32.2589 16.4151 31.7333 16.0468 31.9565 15.0587ZM31.1903 14.8983C30.8149 16.5557 32.047 17.026 32.5325 17.128C33.0179 17.23 34.3415 17.2963 34.7159 15.6389C35.0913 13.9814 33.8592 13.5111 33.3738 13.4091C32.8883 13.3071 31.5657 13.2408 31.1903 14.8983Z" fill="white"/>
<path d="M38.2631 15.72L36.4098 15.0161L36.1198 15.723L37.8219 16.3696L37.5781 16.9646L35.875 16.3181L35.5181 17.1894L37.4547 17.924L37.211 18.5191L34.5596 17.5122L35.9367 14.1497L38.5058 15.125L38.262 15.72H38.2631Z" fill="white"/>
<path d="M41.3412 16.6339L41.9727 16.9894L40.0762 20.1092L39.3995 19.728L39.4293 16.7577L39.4201 16.7527L38.0676 18.9775L37.4362 18.6211L39.3327 15.5012L40.0454 15.9032L40.0114 18.8003L40.0207 18.8052L41.3412 16.6329V16.6339Z" fill="white"/>
<path d="M41.5593 19.8162C41.4317 19.9756 41.262 20.336 41.7938 20.7518C42.0817 20.9776 42.4592 21.1617 42.7091 20.8647C42.8932 20.6459 42.7235 20.4162 42.4746 20.1043L42.2216 19.7894C41.84 19.3161 41.4708 18.8587 41.9912 18.2409C42.2545 17.928 42.8942 17.5132 43.8404 18.2528C44.7331 18.9508 44.4986 19.7003 44.2127 20.0478L43.6285 19.5914C43.718 19.4538 43.9196 19.1181 43.3879 18.7023C43.1565 18.5211 42.8109 18.3874 42.597 18.6419C42.4119 18.8607 42.56 19.0538 42.6577 19.1765L43.2264 19.9003C43.5452 20.3053 43.7787 20.7469 43.3529 21.2508C42.6402 22.0954 41.6847 21.4706 41.4297 21.2716C40.3662 20.4399 40.681 19.7072 40.9741 19.3597L41.5593 19.8162Z" fill="white"/>
<path d="M46.9578 22.2142L45.6095 20.8023L45.0284 21.3172L46.2666 22.6142L45.7781 23.0469L44.5399 21.7498L43.823 22.3835L45.231 23.8588L44.7425 24.2915L42.8141 22.2716L45.5786 19.826L47.4473 21.7835L46.9588 22.2162L46.9578 22.2142Z" fill="white"/>
<path d="M48.6887 24.546L49.0733 25.1698C49.2441 25.447 49.4374 25.9282 48.483 26.4727C47.9523 26.7757 47.2889 26.9143 46.9639 26.3856L46.5752 25.7539L48.6887 24.547V24.546ZM45.6249 25.4351L46.4538 26.7817C47.0863 27.8084 48.2475 27.5015 48.9396 27.1064C49.5516 26.7579 50.3445 26.0113 49.6997 24.9638L48.8543 23.5905L45.6249 25.4341V25.4351Z" fill="white"/>
<path d="M51.2269 29.646L50.4843 27.8658L49.7521 28.1489L50.4339 29.7846L49.8179 30.0222L49.136 28.3866L48.233 28.7351L49.0085 30.5945L48.3924 30.8322L47.3311 28.2856L50.8155 26.939L51.844 29.4064L51.2279 29.645L51.2269 29.646Z" fill="white"/>
<path d="M48.9221 32.958L48.7781 32.2154L52.4692 31.554L52.9588 34.0828L52.3057 34.2006L51.9602 32.4134L51.1271 32.5629L51.4295 34.1273L50.7764 34.2451L50.474 32.6808L48.921 32.959L48.9221 32.958Z" fill="white"/>
<path d="M50.7126 37.7581C49.7253 37.7937 49.28 37.2353 49.244 36.3244C49.2316 35.9917 49.2954 35.4957 49.6543 35.161C49.8765 34.956 50.1768 34.8699 50.5532 34.8461L53.0411 34.756L53.0709 35.5264L50.6355 35.6145C50.113 35.6333 49.8939 35.9333 49.9073 36.2858C49.9279 36.8046 50.1973 37.0066 50.6519 36.9897L53.1244 36.8996L53.1542 37.67L50.7136 37.7581H50.7126Z" fill="white"/>
<path d="M49.1915 39.7383L49.2759 38.9878L52.3489 39.3086L52.4713 38.2224L53.1316 38.2907L52.8025 41.2135L52.1422 41.1452L52.2646 40.0581L49.1926 39.7383H49.1915Z" fill="white"/>
<path d="M51.3483 44.2512L51.8399 42.3928L51.0737 42.2056L50.6222 43.9126L49.9783 43.7552L50.4298 42.0472L49.4878 41.8165L48.9735 43.7581L48.3297 43.6007L49.0332 40.9423L52.6719 41.8334L51.9911 44.4096L51.3472 44.2512H51.3483Z" fill="white"/>
<path d="M49.461 45.1512L49.0692 46.0364C48.9581 46.2859 48.7319 46.4889 48.4285 46.3631C48.0777 46.2186 48.0099 45.9611 48.16 45.6235L48.5375 44.772L49.461 45.1512ZM48.2372 43.8601L47.6129 45.2671C47.3105 45.9473 47.3506 46.178 47.4586 46.4473C47.5584 46.6958 47.7692 46.9146 48.0428 47.0265C48.3842 47.1671 48.7678 47.1988 49.1072 46.8572C49.1175 47.0265 49.1381 47.3513 49.6338 47.5552C49.9897 47.7027 50.6119 47.7107 50.9729 46.8968L51.6897 45.2809L48.2372 43.8611V43.8601ZM50.798 45.7017L50.4442 46.4988C50.3044 46.8126 50.1316 46.972 49.8477 46.8552C49.5731 46.7423 49.5598 46.479 49.6811 46.2057L50.0431 45.3908L50.798 45.7007V45.7017Z" fill="white"/>
<path d="M48.123 48.3473C49.0075 48.8939 48.9057 49.5127 48.6773 49.8563C48.449 50.1989 47.907 50.5464 47.0215 49.9998C46.137 49.4533 46.2388 48.8345 46.4672 48.4919C46.6955 48.1483 47.2375 47.8008 48.123 48.3473ZM48.5467 47.7117C47.0637 46.7958 46.1771 47.7434 45.9087 48.1463C45.6403 48.5493 45.1147 49.7196 46.5988 50.6365C48.0829 51.5523 48.9684 50.6038 49.2368 50.2018C49.5053 49.7998 50.0308 48.6285 48.5467 47.7127V47.7117Z" fill="white"/>
<path d="M44.8082 50.8414L43.573 52.189L43.0629 51.7563L44.8164 49.8414L47.6334 52.2316L47.115 52.7979L44.8082 50.8395V50.8414Z" fill="white"/>
<path d="M18.6368 54.1524C18.6728 54.0177 18.7396 53.7622 18.391 53.5692C18.1894 53.4573 17.814 53.4216 17.4849 53.9702C17.2761 54.3187 17.2319 54.7118 17.5888 54.9088C17.8212 55.0385 18.0608 55.0019 18.2532 54.791L18.6738 55.0246C18.3375 55.3999 17.8747 55.5355 17.3697 55.2544C16.8339 54.9573 16.658 54.3959 17.0591 53.7256C17.4654 53.0464 18.0794 52.9266 18.5987 53.2147C19.2024 53.5494 19.2076 54.086 19.0574 54.384L18.6368 54.1504V54.1524Z" fill="white"/>
<path d="M19.5728 55.1583L19.1603 56.0811L18.714 55.8959L19.6345 53.8395L20.0808 54.0236L19.7322 54.8029L20.5652 55.1484L20.9139 54.3692L21.3602 54.5533L20.4398 56.6108L19.9934 56.4257L20.4058 55.5029L19.5728 55.1573V55.1583Z" fill="white"/>
<path d="M22.4093 55.4029L22.4155 55.4049L22.4278 56.3326L21.8601 56.1702L22.4093 55.4039V55.4029ZM21.6215 56.5049L22.4443 56.7406L22.4504 57.2247L22.9564 57.3703L22.8371 54.9989L22.3003 54.8445L20.8398 56.7623L21.3304 56.9029L21.6225 56.5049H21.6215Z" fill="white"/>
<path d="M24.0836 56.3603L24.2049 55.7118L24.5844 55.7781C24.8806 55.8296 24.9886 55.9395 24.9485 56.1554C24.93 56.2534 24.8837 56.4989 24.5269 56.4375L24.0836 56.3613V56.3603ZM24.0126 56.7405L24.5608 56.8356C25.1758 56.9425 25.3846 56.4583 25.4226 56.2593C25.5039 55.8257 25.2869 55.5068 24.8436 55.4296L23.7977 55.2484L23.3853 57.4514L23.8635 57.5336L24.0126 56.7395V56.7405Z" fill="white"/>
<path d="M27.4765 56.088L26.2454 56.0039L26.2105 56.4742L27.3418 56.5514L27.313 56.9465L26.1817 56.8692L26.1395 57.4475L27.4251 57.5356L27.3963 57.9307L25.6345 57.8108L25.8001 55.5771L27.5063 55.694L27.4765 56.089V56.088Z" fill="white"/>
<path d="M29.3432 56.3781C29.299 56.2455 29.2147 55.996 28.8125 56.0108C28.5801 56.0197 28.2428 56.1821 28.2685 56.8148C28.2849 57.2168 28.4649 57.5722 28.8753 57.5564C29.1437 57.5465 29.3257 57.393 29.373 57.1168L29.8585 57.099C29.7803 57.5881 29.4646 57.9405 28.8814 57.9623C28.2633 57.9861 27.8036 57.6 27.7717 56.8277C27.7398 56.0455 28.1934 55.6286 28.792 55.6068C29.4882 55.5801 29.7885 56.0306 29.8276 56.3603L29.3422 56.3781H29.3432Z" fill="white"/>
<path d="M30.5866 56.6514C30.4838 56.0326 30.8222 55.8217 31.0824 55.7821C31.3415 55.7425 31.7313 55.8395 31.8352 56.4593C31.938 57.0782 31.5997 57.2891 31.3395 57.3287C31.0803 57.3683 30.6905 57.2702 30.5866 56.6514ZM30.1074 56.7257C30.2802 57.7643 31.1009 57.7663 31.4053 57.7198C31.7087 57.6732 32.4872 57.4227 32.3145 56.3861C32.1417 55.3474 31.321 55.3455 31.0165 55.392C30.7131 55.4385 29.9336 55.689 30.1074 56.7257Z" fill="white"/>
<path d="M35.6858 55.8079C35.7403 55.9217 35.8966 56.1148 36.2864 55.9534C36.4982 55.8653 36.7111 55.7198 36.6145 55.5019C36.5425 55.3415 36.3625 55.3653 36.1136 55.4069L35.8616 55.4504C35.4821 55.5168 35.115 55.5802 34.9134 55.1277C34.8116 54.898 34.7581 54.4415 35.4523 54.1544C36.1064 53.8831 36.4674 54.2227 36.5826 54.4742L36.1537 54.6514C36.1013 54.5643 35.9676 54.3613 35.5778 54.5237C35.4081 54.594 35.2332 54.7376 35.3165 54.9237C35.3885 55.0841 35.5407 55.0623 35.6384 55.0445L36.2144 54.9524C36.5363 54.8999 36.8561 54.9039 37.0207 55.2732C37.2974 55.892 36.6669 56.2178 36.4797 56.296C35.7002 56.6188 35.3731 56.2415 35.2589 55.9861L35.6878 55.8089L35.6858 55.8079Z" fill="white"/>
<path d="M38.2518 53.6623C38.1489 53.5652 37.9546 53.3801 37.6049 53.5722C37.4023 53.6831 37.1812 53.9771 37.5061 54.5276C37.7129 54.8762 38.043 55.1128 38.3999 54.9168C38.6333 54.788 38.7218 54.5712 38.6313 54.3049L39.053 54.0732C39.2185 54.5425 39.1064 54.996 38.5994 55.2732C38.0615 55.5682 37.4691 55.4296 37.0711 54.7583C36.669 54.0781 36.8716 53.5068 37.392 53.2217C37.9967 52.89 38.4791 53.1563 38.6724 53.4316L38.2508 53.6633L38.2518 53.6623Z" fill="white"/>
<path d="M27.5927 42.6076C27.2266 42.6076 26.3009 40.1947 25.8381 39.7492C25.3753 39.3036 25.5491 38.8581 25.5491 38.6729C25.5491 38.4878 26.0315 38.3194 25.9153 37.763C25.8001 37.2065 25.0668 37.3927 24.7582 36.8164C24.4497 36.2412 23.8326 35.8699 23.4757 35.3035C23.1189 34.7382 23.1189 33.754 22.8299 33.2342C22.5409 32.7144 22.0585 32.1025 22.0585 31.5451C22.0585 30.9876 22.2323 30.746 22.5789 30.5609C22.9255 30.3757 23.2063 30.45 23.2063 30.1064C23.2063 29.7629 22.6561 29.5035 22.3095 29.5035C21.9629 29.5035 21.8662 29.7639 21.5186 29.7639C21.171 29.7639 21.2296 29.3183 20.2649 29.3183C19.7825 29.3183 19.0503 30.154 18.6841 30.154C18.318 30.154 17.5456 29.95 17.45 30.2649C17.3533 30.5807 17.9519 30.3757 17.9519 30.8213C17.9519 31.2668 17.6433 31.9164 17.2772 32.5659C16.911 33.2164 17.1332 34.2827 16.911 34.4966C16.6889 34.7095 16.4102 34.9788 16.3135 35.2946C16.2168 35.6105 16.188 36.1758 16.005 36.3531C15.8219 36.5293 15.5236 36.6689 15.4455 36.9838C15.3683 37.2996 15.5998 37.5967 15.4835 37.9858C15.3673 38.3749 15.3488 38.8026 15.1945 38.9521C15.0403 39.0996 14.6937 39.4155 14.6937 39.6383C14.6937 39.861 14.6741 40.567 14.5589 40.8819C14.4438 41.1977 13.9419 41.9215 13.6333 42.3858C13.3248 42.8502 13.0738 43.073 12.862 43.073C12.6501 43.073 11.994 43.7413 12.6882 43.7413H16.5058C16.872 43.7413 17.3348 43.0542 16.8339 43.0542C16.3331 43.0542 15.8888 42.7948 15.6964 42.4611C15.5041 42.1274 15.9474 41.9046 15.9474 41.7373C15.9474 41.57 16.005 40.9007 16.294 40.8086H22.041C22.4648 40.8086 22.8124 41.0314 22.8895 41.3096C22.9667 41.5878 22.9667 41.9225 22.9667 42.2185C22.9667 42.5146 22.6962 42.4789 22.4843 42.6829C22.2724 42.8868 21.462 43.4987 22.4843 43.4987H25.4154C25.6273 43.4987 25.9163 43.2017 26.2835 43.2017C26.6506 43.2017 26.8039 43.4799 27.3243 43.4799C27.8447 43.4799 28.4618 43.4799 28.578 42.9047C28.6479 42.5581 27.9609 42.6066 27.5948 42.6066L27.5927 42.6076ZM16.403 37.567C16.0996 37.567 16.0996 37.2184 16.0996 37.1491C16.0996 37.0798 16.2004 36.8362 16.403 36.8362C16.6056 36.8362 16.6632 36.5234 16.8082 36.5234C16.982 36.5234 16.8247 36.7857 16.982 36.8996C17.1013 36.9858 17.0612 37.2264 16.8812 37.2481C16.7002 37.2689 16.7074 37.5679 16.404 37.5679L16.403 37.567ZM21.7109 39.4521H16.9676C16.7362 39.4521 17.0828 38.6531 17.0828 38.4501C17.0828 38.2472 17.3235 37.7353 17.6227 37.4481C17.921 37.16 17.7575 36.6491 17.8542 36.2966C17.9508 35.9432 18.1144 35.6382 18.2789 35.4798C18.4435 35.3224 18.5011 34.4124 18.7798 33.8283C19.0595 33.2441 19.763 33.1966 19.763 33.6233C19.763 34.0501 20.5919 35.6283 20.7277 36.0362C20.8624 36.4451 20.7277 37.3363 20.9015 37.8006C21.0753 38.265 21.3355 38.4036 21.7109 38.766C22.0873 39.1284 21.7109 39.4531 21.7109 39.4531V39.4521ZM23.3019 37.7066C23.1868 37.7066 23.0417 37.867 22.7527 37.8036C22.4637 37.7402 22.5501 37.4838 22.5501 37.3095C22.5501 37.1353 22.3691 37.0244 22.5285 36.7105C22.6879 36.3966 22.907 36.6501 23.0489 36.7867C23.2186 36.9501 23.2659 36.8075 23.4182 36.8976C23.5117 36.9531 23.4716 37.0244 23.5045 37.165C23.5251 37.2541 23.6598 37.4323 23.6598 37.5066C23.6598 37.7016 23.4171 37.7046 23.3019 37.7046V37.7066Z" fill="white"/>
<path d="M43.502 31.2648C43.502 30.6341 43.6172 30.4292 43.7149 30.0767C43.8116 29.7242 43.3869 29.5945 43.2737 29.8935C43.1606 30.1925 42.8469 30.3044 42.6299 30.3044C42.4129 30.3044 42.4612 30.1421 41.9501 30.1421C41.4389 30.1421 41.44 29.65 39.9734 29.65C38.5068 29.65 38.7587 30.151 38.0841 30.151C37.4094 30.151 37.3127 29.6866 36.6956 29.6866C36.0786 29.6866 35.9634 30.1321 35.3843 30.1321C34.8053 30.1321 34.8064 29.6777 34.4875 29.6777C34.1687 29.6777 34.2849 29.8727 33.8221 30.0024C33.3593 30.1321 33.2431 30.4292 33.4364 30.6153C33.6298 30.8015 34.0731 30.9866 34.0731 31.6361C34.0731 32.2857 34.3621 33.455 34.3621 33.9946C34.3621 34.5342 34.2078 34.8669 34.2078 35.4609C34.2078 36.055 33.8026 36.3897 33.8026 36.7233C33.8026 37.057 34.1687 37.3362 34.1687 37.6511C34.1687 37.9659 34.1111 40.9561 34.1111 41.3462C34.1111 41.8472 34.034 41.9957 33.8797 42.2363C33.7481 42.4413 33.8992 42.4779 33.5712 42.7937C33.2431 43.1086 33.0405 42.8957 32.8091 43.1185C32.5777 43.3423 33.1371 43.4343 33.2246 43.5175C33.311 43.6007 33.2246 43.8146 33.6678 43.8146C34.1111 43.8146 34.7673 43.2581 35.1715 43.2581C35.5756 43.2581 35.6343 43.666 36.1166 43.666C36.599 43.666 36.5023 43.4809 37.3703 43.4809C38.2383 43.4809 38.5469 43.871 38.9716 43.871C39.3964 43.871 39.6268 43.8334 39.9939 43.2027C40.3601 42.571 39.7913 42.5621 39.7049 42.8314C39.6185 43.1007 39.2802 43.0541 39.0488 43.0541C38.8174 43.0541 38.4512 42.9799 38.3546 42.9799C38.2579 42.9799 37.9113 42.7571 37.9113 42.6086C37.9113 42.4601 37.7087 42.1908 37.5256 42.0155C37.3426 41.8393 37.3713 41.4591 37.3713 40.9016C37.3713 40.3442 37.1975 40.1779 37.1975 39.8432C37.1975 39.5085 37.3713 39.2868 37.3713 38.8214C37.3713 38.356 37.2562 38.06 37.4865 37.8382C37.7179 37.6154 37.7755 37.3372 38.0265 37.3372C38.2774 37.3372 38.48 37.5323 38.624 37.6709C38.769 37.8105 39.0961 37.8838 39.2792 38.061C39.4622 38.2372 39.0673 38.3392 39.3943 38.9521C39.7224 39.565 40.0886 39.0996 40.0886 38.8036C40.0886 38.5075 40.2819 38.3402 40.2819 38.1353C40.2819 37.9303 40.1276 37.9679 40.1276 37.4669C40.1276 36.9659 40.4362 36.9105 40.4362 36.6134C40.4362 36.3164 40.1081 36.2422 40.1081 35.9629C40.1081 35.6837 40.1276 35.8144 40.1276 35.3501C40.1276 34.8857 40.0978 34.4867 39.8767 34.2738C39.6556 34.0599 39.1825 34.0322 39.1825 34.4035C39.1825 34.7748 39.3172 35.054 39.3172 35.2768C39.3172 35.4996 39.1825 35.7223 38.7968 35.9263C38.4111 36.1313 38.5654 36.3352 38.0635 36.3352C37.5616 36.3352 37.5236 36.2045 37.4084 35.8897C37.2932 35.5738 37.3312 34.7005 37.3312 33.6431C37.3312 32.5857 37.505 32.1391 37.505 31.7866C37.505 31.4342 37.8136 31.248 38.2188 31.1559C38.624 31.0629 38.7197 30.7282 39.2216 30.7282C39.7234 30.7282 40.07 30.8579 40.4557 31.0064C40.8414 31.1549 41.2754 31.4054 41.2754 31.4054L41.3813 31.5074C41.4873 31.6094 41.8637 31.9718 41.8637 32.2866C41.8637 32.6015 42.0756 32.955 42.2103 33.4936C42.345 34.0322 42.0653 34.0966 41.6703 34.4768C41.2754 34.857 41.5737 35.053 41.8246 35.053C42.0756 35.053 41.8246 35.2936 42.6731 34.8481C43.5216 34.4025 43.8877 33.5302 43.8877 32.8985C43.8877 32.2668 43.502 31.8965 43.502 31.2648ZM35.8945 36.9085C35.7495 36.9085 35.5962 36.8907 35.5479 36.7412C35.4995 36.5927 35.3556 36.5738 35.3556 36.2025C35.3556 36.055 35.4306 35.959 35.4728 35.8392C35.5355 35.66 35.587 35.4877 35.7032 35.4877C35.807 35.4877 35.8749 35.6382 35.9695 35.7441C36.0498 35.8342 36.1783 35.8679 36.1783 36.0501C36.1783 36.4303 36.3275 36.3986 36.4457 36.5828C36.6195 36.8521 36.0405 36.9075 35.8965 36.9075L35.8945 36.9085Z" fill="white"/>
<path d="M32.3659 43.675C32.2836 43.5908 32.2178 43.4859 32.189 43.3512C32.1797 43.3076 32.1756 43.2651 32.1756 43.2225C32.1386 43.0443 32.1468 42.8304 32.2353 42.5145C32.3186 42.2185 31.8362 42.0888 31.8362 41.9215C31.8362 41.7541 31.6151 41.1323 31.1616 40.6967C30.708 40.2601 30.9055 40.2185 30.708 40.0284C30.5105 39.8383 29.696 39.8432 30.2164 40.3442C30.7368 40.8452 30.3511 40.9561 30.6021 41.1977C30.853 41.4383 30.9106 41.7353 30.9106 42.0888C30.9106 42.4423 31.0844 42.4967 31.0844 43.0542C31.0844 43.6859 30.8911 44.0205 30.7378 44.3542C30.5836 44.6879 30.3717 45.3007 30.1012 45.3007C29.8307 45.3007 29.7731 45.6908 29.0789 45.6908C28.3847 45.6908 28.0371 45.5423 27.6514 44.9849C27.3439 44.5403 26.6137 44.2809 26.3288 43.771C26.3103 43.7651 26.2938 43.7601 26.2825 43.7601C26.2218 43.7601 26.1036 43.8215 26.0089 43.871L25.4145 44.0571H23.699C23.6476 44.1076 23.5941 44.1591 23.5447 44.2057C23.3617 44.3819 23.1395 44.5393 23.1395 44.8364C23.1395 45.1334 23.5252 45.1898 23.6404 45.5047C23.7556 45.8205 24.9897 47.38 25.5307 47.5285C26.0707 47.676 25.8197 47.9364 27.3048 47.9364C28.7899 47.9364 29.117 47.4354 29.7927 47.4354C30.4684 47.4354 30.8335 47.4176 30.9116 47.6958C30.9888 47.974 31.3354 48.1028 31.3354 48.3077C31.3354 48.5127 31.4506 49.0137 31.8373 48.6424C32.2229 48.2711 32.261 47.9364 32.5315 47.676C32.802 47.4156 32.6765 45.0334 32.802 44.5393C32.9274 44.0443 32.5449 43.9987 32.3669 43.675H32.3659Z" fill="white"/>
<path d="M32.2404 27.1807C32.2404 26.7351 31.9123 26.3638 31.7776 26.0302C31.6429 25.6965 31.9031 24.6093 31.72 24.4331C31.5359 24.2569 31.2377 24.0252 31.2377 23.8024C31.2377 23.5796 30.6401 23.0964 30.4663 24.0064C30.2925 24.9163 30.562 24.6569 30.1958 24.8044C29.8297 24.9529 29.733 25.3797 29.4049 25.3797C29.0769 25.3797 28.7488 25.2321 28.286 25.3618C27.8232 25.4915 27.3213 25.6777 26.8399 25.6777C26.3586 25.6777 25.3939 25.9747 24.9887 26.3648C24.5835 26.7549 24.5835 27.2559 24.2749 27.553C23.9664 27.85 23.9284 28.0351 23.8317 28.1282C23.735 28.2213 23.5036 28.3144 23.5036 28.6847C23.5036 28.8144 23.4954 29.0827 23.4481 29.3956C23.6476 29.5827 23.7844 29.8213 23.7844 30.1045C23.7844 30.7421 23.2609 30.9065 23.0644 30.9679L22.8598 31.0461C22.7209 31.1203 22.6366 31.1649 22.6366 31.5431C22.6366 31.8174 22.8845 32.2184 23.1025 32.5728L23.339 32.9689C23.5139 33.2828 23.5972 33.6778 23.6774 34.06C23.7535 34.4204 23.8317 34.7937 23.9705 35.0125C24.1042 35.2244 24.2996 35.4184 24.5074 35.6244C24.7645 35.8798 25.0278 36.1452 25.2263 36.4858C25.6572 36.4056 26.0737 36.2353 26.1653 36.0353C26.3195 35.7016 26.5509 35.4788 26.5509 35.2372C26.5509 34.9957 26.1262 34.5689 25.9915 34.1788C25.8567 33.7887 25.7405 32.5263 25.7405 31.357C25.7405 30.1877 26.0295 28.9064 26.1838 28.554C26.338 28.2015 27.4755 26.6232 28.5554 26.6232C29.6353 26.6232 29.481 27.3094 29.8667 27.4955C30.2524 27.6817 30.8119 28.1272 30.8119 28.8698C30.8119 29.6124 30.3871 30.7817 29.6734 31.0233C28.9606 31.2649 28.7673 31.7847 29.6549 31.8778C30.5414 31.9708 30.9075 31.2837 31.467 30.8936C32.0265 30.5035 31.8043 30.049 32.007 29.854C32.2096 29.6589 32.2384 29.2599 32.2384 28.9441C32.2384 28.6282 31.9689 28.3876 31.9689 28.1084C31.9689 27.8292 32.2384 27.6262 32.2384 27.1807H32.2404Z" fill="white"/>
</g>
<defs>
<clipPath id="clip0_1_20784">
<rect width="56" height="60" fill="white"/>
</clipPath>
</defs>
</svg>
