<svg width="43" height="59" viewBox="0 0 43 59" fill="none" xmlns="http://www.w3.org/2000/svg">
<path d="M36.0638 10.7292C36.9239 11.506 37.1569 12.4624 36.7558 13.4045C36.4369 14.1535 35.6876 14.5955 34.7426 14.5198C34.5204 14.502 34.3145 14.2804 34.1012 14.1525C34.3018 14.0133 34.4888 13.7829 34.7055 13.7503C35.804 13.5853 36.3217 13.1014 36.0617 12.2397C35.9409 11.839 35.5447 11.3736 35.1634 11.2309C34.4165 10.9511 33.6345 11.0708 33.0391 11.7092C31.8847 12.9467 32.3292 15.479 33.9289 16.2063C34.7445 16.5772 35.6989 16.7173 36.605 16.7957C37.7536 16.8952 38.9173 16.8118 40.0733 16.8462C40.2336 16.8509 40.3873 17.0781 40.5441 17.2023C40.3975 17.3418 40.2456 17.6076 40.105 17.6018C38.2124 17.5237 36.2802 17.6146 34.4402 17.2489C32.1322 16.7902 31.0375 14.54 31.7591 12.3616C32.3605 10.5466 34.1477 9.8471 36.0638 10.7292Z" fill="#1E1E1E"/>
<path d="M17.4653 25.423C11.9839 25.4223 6.57976 25.4218 1.1756 25.4199C0.996054 25.4199 0.797131 25.4505 0.642829 25.3841C0.508856 25.3265 0.343865 25.1527 0.34198 25.028C0.34 24.8971 0.490983 24.6916 0.619422 24.6474C0.829115 24.5752 1.07474 24.5971 1.30521 24.597C5.21684 24.5948 9.12848 24.5967 13.0401 24.5929C13.3623 24.5926 13.6846 24.5573 14.0518 24.5356C13.9792 23.7784 13.6797 23.478 12.9628 23.4824C9.07705 23.5062 5.19108 23.4937 1.30518 23.4937C1.12505 23.4936 0.921404 23.5456 0.770936 23.4786C0.596379 23.4008 0.46851 23.2183 0.320374 23.0812C0.477706 22.9541 0.631564 22.7224 0.792933 22.717C1.8212 22.6829 2.85227 22.669 3.88005 22.7091C4.49966 22.7333 4.72195 22.5073 4.80944 21.8924C5.33716 18.1832 8.7427 15.6676 12.43 16.2629C12.8975 16.3384 13.1871 16.2675 13.5097 15.93C14.9192 14.4553 16.6334 13.7002 18.6987 13.8819C19.1815 13.9243 19.4996 13.7786 19.8193 13.3993C20.7566 12.2871 22.0632 11.9081 23.4451 11.7446C24.1344 11.663 24.8343 11.6672 25.5216 11.5748C26.834 11.3983 27.5119 10.5129 27.3319 9.27274C27.1439 7.97739 25.5343 7.29947 24.4756 8.08203C23.9789 8.44914 23.8529 8.95657 24.0958 9.52064C24.3224 10.0467 24.7192 10.116 25.2446 9.93776C25.4304 9.87474 25.6869 10.0203 25.9111 10.0706C25.7601 10.2698 25.6507 10.5638 25.4508 10.6516C24.6549 11.0011 23.7563 10.6808 23.3808 9.97479C22.9083 9.08644 23.217 7.95256 24.0829 7.39582C25.3342 6.59133 27.2063 7.01303 27.8712 8.24916C28.6072 9.61731 28.0554 11.4867 26.6415 12.0508C25.9217 12.338 25.1002 12.4367 24.3167 12.4817C23.1661 12.5479 22.0608 12.723 21.0876 13.3594C20.8485 13.5157 20.7322 13.8597 20.5594 14.1174C20.9902 14.2529 21.449 14.5544 21.8455 14.4874C22.5363 14.3707 23.1702 13.9131 23.8609 13.8001C25.737 13.4931 27.2558 14.119 28.2663 15.7895C28.5453 16.2508 28.843 16.7088 29.0543 17.2018C30.0973 19.635 32.0622 20.6092 34.569 20.687C36.2403 20.7388 37.9141 20.7103 39.5868 20.7179C39.7669 20.7187 39.9763 20.6638 40.1196 20.7372C40.2913 20.8253 40.4066 21.0234 40.5463 21.1739C40.4061 21.2942 40.2642 21.5211 40.1259 21.5189C37.459 21.4767 34.7682 21.807 32.1409 21.0873C30.4982 20.6374 29.3957 19.5365 28.6094 18.0701C28.2576 17.4141 27.93 16.7387 27.5123 16.1261C26.461 14.5842 24.919 14.1037 23.1927 14.7624C22.9476 14.8559 22.7727 15.1331 22.5652 15.3254C22.8857 15.5741 23.2806 16.0932 23.5151 16.0288C25.4449 15.4988 26.4117 16.5369 27.133 18.0738C27.2529 18.3293 27.4133 18.566 27.5313 18.8223C28.6687 21.2921 30.7393 22.3704 33.3139 22.5429C35.4156 22.6837 37.5289 22.6526 39.637 22.6979C39.8427 22.7024 40.0586 22.6717 40.2503 22.7259C40.3657 22.7586 40.5265 22.9307 40.5187 23.0283C40.5071 23.173 40.3937 23.3765 40.27 23.4294C40.0928 23.5052 39.8672 23.4772 39.6623 23.4772C35.3904 23.4786 31.1185 23.4812 26.8466 23.4722C26.3861 23.4712 25.9236 23.4163 25.4656 23.3585C24.105 23.1866 23.1415 22.4578 22.5549 21.2271C22.1352 20.3467 21.7628 19.4418 21.3069 18.5809C20.1934 16.4785 18.013 16.5507 16.4951 17.175C16.1332 17.3239 15.6618 17.5418 15.9469 18.0739C16.1902 18.5278 16.5089 18.7772 17.1291 18.4679C18.605 17.7317 19.5382 18.1025 20.245 19.6033C20.5403 20.2304 20.8186 20.8665 21.0788 21.5091C21.9258 23.6007 23.5525 24.5386 25.7252 24.5657C29.1216 24.608 32.5187 24.5893 35.9156 24.5951C37.2023 24.5973 38.4897 24.5733 39.7751 24.6152C40.0358 24.6237 40.2885 24.8753 40.5449 25.0148C40.2889 25.15 40.0334 25.4019 39.7768 25.4032C34.7072 25.4277 29.6375 25.4234 24.5678 25.4243C22.2261 25.4247 19.8843 25.4234 17.4653 25.423ZM6.73076 19.3236C6.35449 20.2125 5.94902 21.0911 5.62802 21.9995C5.56803 22.1693 5.79918 22.6036 5.9788 22.6623C6.33849 22.7798 6.77222 22.756 6.82853 22.1884C6.84108 22.0619 6.88697 21.9385 6.91928 21.8141C7.58503 19.2512 10.1149 17.8035 12.6624 18.5153C14.3266 18.9803 15.2603 20.1842 15.905 21.6827C17.1387 24.55 18.9527 24.9187 22.1584 24.4432C22.1036 24.2998 22.0703 24.1534 21.9972 24.0308C21.5831 23.3364 20.8905 23.4643 20.2646 23.5005C18.7895 23.5857 17.8246 22.9296 17.2294 21.6035C16.9468 20.9737 16.6154 20.3542 16.224 19.7867C13.7819 16.2458 9.64716 16.0134 6.73076 19.3236ZM16.7906 16.2045C19.1981 15.5438 20.9835 16.2879 22.1462 18.4817C22.5417 19.2278 22.8515 20.0194 23.2012 20.7899C23.5952 21.6582 24.2144 22.3734 25.17 22.4588C26.6678 22.5925 28.1817 22.5462 29.6888 22.5706C29.7071 22.5709 29.7266 22.4981 29.7452 22.4588C29.0135 21.6687 28.075 21.5294 27.0703 21.6239C25.7925 21.7441 25.0101 21.1718 24.497 20.0062C24.0548 19.0018 23.5109 18.0281 22.9017 17.1143C21.667 15.2621 19.8925 14.4509 17.6731 14.6987C16.2349 14.8592 14.9376 15.3257 14.0455 16.5683C14.8339 17.3468 14.8462 17.3358 15.6546 16.7718C15.9665 16.5541 16.3306 16.4113 16.7906 16.2045ZM15.0781 21.7853C14.7797 21.3082 14.5339 20.7862 14.1727 20.3628C13.2344 19.263 12.006 18.9399 10.6233 19.2623C9.20327 19.5934 8.16991 20.4172 7.7321 21.8438C7.66027 22.0778 7.7955 22.5804 7.95261 22.638C8.30121 22.7657 8.78167 22.8566 8.95926 22.2833C9.33601 21.0672 10.2001 20.5282 11.4404 20.4894C12.7296 20.4491 13.4739 21.16 13.9818 22.2467C14.2419 22.8029 14.5125 23.3585 14.8324 23.8813C15.3252 24.6869 15.8683 24.8209 16.6545 24.4988C16.1528 23.6406 15.6407 22.7646 15.0781 21.7853ZM20.4047 22.0272C20.0507 21.231 19.7329 20.4161 19.3326 19.644C18.9232 18.8543 18.1854 18.6627 17.4643 19.1413C17.3099 19.2437 17.1847 19.6264 17.2551 19.79C17.5482 20.4716 17.913 21.1232 18.2671 21.7774C18.6741 22.5294 19.3553 22.7302 20.1562 22.7009C20.6184 22.6839 20.5846 22.451 20.4047 22.0272ZM26.8815 19.254C26.5388 18.6512 26.2048 18.0433 25.8511 17.447C25.5181 16.8855 25.0119 16.5962 24.3656 16.7223C24.2198 16.7508 23.99 17.1515 24.0436 17.2727C24.479 18.2573 24.9488 19.2288 25.4564 20.1786C25.8451 20.9061 26.7139 21.068 27.5324 20.5886C27.3332 20.1819 27.1316 19.7701 26.8815 19.254ZM12.2396 22.7026C12.5267 22.67 12.8139 22.6373 13.1312 22.6012C12.9987 21.8212 12.5686 21.45 11.9359 21.3481C11.238 21.2357 10.5276 21.2371 10.0348 21.8705C9.91109 22.0296 9.83714 22.3017 9.88154 22.4883C9.9067 22.594 10.2163 22.6817 10.4019 22.6904C10.9659 22.7167 11.5318 22.7006 12.2396 22.7026Z" fill="#1E1E1E"/>
<path d="M29.3744 32.443C29.3749 31.2332 29.3813 30.1005 29.3722 28.968C29.3674 28.3691 29.6068 28.0911 30.2437 28.0736C32.2346 28.0188 32.2345 28.0009 32.2347 30.0056C32.235 34.3815 32.2353 38.7575 32.2348 43.1334C32.2347 44.4075 32.1565 44.4916 30.8856 44.4838C29.0545 44.4726 29.192 44.7358 28.7038 42.8C28.1639 40.6587 27.5874 38.5266 27.0237 36.3912C26.9797 36.2243 26.9119 36.0638 26.7438 35.913C26.7438 38.1823 26.744 40.4517 26.7438 42.7211C26.7436 44.527 26.7435 44.5047 24.9059 44.497C24.1707 44.494 23.9129 44.2047 23.9165 43.481C23.9363 39.4913 23.925 35.5014 23.9247 31.5116C23.9246 30.6621 23.9434 29.8122 23.921 28.9634C23.9047 28.3506 24.1393 28.0636 24.7776 28.0777C27.6634 28.1411 27.0374 27.6483 27.7362 30.3242C28.2034 32.1136 28.6181 33.9166 29.0585 35.713C29.1112 35.9275 29.1782 36.1385 29.374 36.3318C29.374 35.0613 29.374 33.7908 29.3744 32.443Z" fill="#1E1E1E"/>
<path d="M16.2086 44.485C13.9726 44.5073 14.2232 44.5185 14.2184 42.5637C14.2146 40.9731 14.2177 39.3825 14.2177 37.7442C13.6581 37.7442 13.1548 37.7442 12.5332 37.7442C12.5332 38.0039 12.5333 38.2747 12.5332 38.5456C12.533 40.2439 12.5222 41.9423 12.5382 43.6404C12.5437 44.2272 12.2993 44.499 11.7137 44.4857C11.2508 44.4752 10.7874 44.4874 10.3243 44.4843C9.35532 44.4779 9.24846 44.3802 9.24736 43.4305C9.24349 40.0853 9.24604 36.7402 9.24594 33.395C9.24589 31.9283 9.26201 30.4613 9.23735 28.995C9.22639 28.3435 9.46228 28.0364 10.1387 28.0776C10.6515 28.1088 11.1685 28.1034 11.682 28.08C12.3181 28.051 12.548 28.3428 12.5401 28.9613C12.5191 30.6079 12.5331 32.2549 12.5332 33.9017C12.5332 34.1543 12.5332 34.4069 12.5332 34.7077C13.0912 34.7077 13.5947 34.7077 14.2177 34.7077C14.2177 34.4814 14.2177 34.2369 14.2177 33.9923C14.2181 32.3197 14.2304 30.647 14.2125 28.9747C14.206 28.3633 14.4328 28.0583 15.0692 28.0817C15.6089 28.1014 16.1505 28.102 16.69 28.0809C17.2866 28.0577 17.5235 28.3391 17.5229 28.9152C17.5173 33.8299 17.5169 38.7446 17.5211 43.6594C17.5219 44.5775 16.8771 44.4854 16.2086 44.485Z" fill="#1E1E1E"/>
<path d="M3.31887 32.0031C3.3192 34.9584 3.31775 37.8398 3.32212 40.7212C3.32274 41.1338 3.28636 41.5694 3.90842 41.6001C4.43941 41.6262 4.73952 41.4809 4.72647 40.8818C4.7052 39.9047 4.74072 38.9264 4.71845 37.9493C4.70282 37.2637 4.99683 36.9945 5.68197 36.9736C7.83305 36.9079 7.84206 36.8908 7.82861 38.9987C7.82157 40.1034 7.83967 41.2145 7.7286 42.3107C7.58982 43.6804 6.76137 44.4473 5.39847 44.5303C4.47675 44.5865 3.54537 44.5805 2.62371 44.52C1.02212 44.415 0.0684444 43.5186 0.0437354 41.9154C-0.0141385 38.1603 -0.013335 34.4033 0.0388016 30.6482C0.0608051 29.0633 1.01755 28.1309 2.60188 28.004C3.52205 27.9304 4.45577 27.936 5.37767 27.9952C6.73185 28.0821 7.59486 28.8628 7.72329 30.2151C7.84202 31.4651 7.80208 32.7307 7.82113 33.9896C7.82826 34.4604 7.55497 34.687 7.10307 34.7231C7.05189 34.7272 7.00014 34.7237 6.94879 34.7264C4.72195 34.8459 4.72198 34.8459 4.72254 32.6336C4.7226 32.4021 4.72273 32.1705 4.72162 31.939C4.71925 31.4439 4.78007 30.9281 4.02524 30.9213C3.2645 30.9145 3.32972 31.437 3.31887 32.0031Z" fill="#1E1E1E"/>
<path d="M40.4456 32.0115C40.9536 35.7717 41.4451 39.465 41.9564 43.1555C42.1151 44.3005 41.9863 44.4961 40.8388 44.4826C38.7522 44.4582 38.804 44.8285 38.6029 42.5075C38.5965 42.4341 38.5643 42.363 38.5296 42.2388C37.8015 42.2388 37.0676 42.2388 36.2565 42.2388C36.1885 42.7441 36.1919 43.2974 36.0182 43.7881C35.9178 44.0716 35.5393 44.4423 35.2731 44.4529C32.6189 44.5591 32.982 44.4757 33.2568 42.3904C33.8445 37.9323 34.4759 33.48 35.0695 29.0227C35.1554 28.3779 35.4023 28.0491 36.0975 28.0737C37.0738 28.1081 38.0528 28.1008 39.0298 28.0759C39.6694 28.0596 39.9589 28.3302 40.0264 28.9659C40.1322 29.9617 40.297 30.9513 40.4456 32.0115ZM37.6021 32.4697C37.5696 32.1709 37.5372 31.8721 37.5048 31.5733C37.4461 31.5693 37.3874 31.5652 37.3287 31.5612C37.0549 34.1923 36.781 36.8234 36.503 39.4948C37.127 39.4948 37.6994 39.4948 38.2948 39.4948C38.0677 37.16 37.8462 34.8823 37.6021 32.4697Z" fill="#1E1E1E"/>
<path d="M7.9357 55.3015C7.93558 52.8062 7.93349 50.388 7.93633 47.9699C7.93742 47.0425 8.0149 46.9601 8.95349 46.967C10.9225 46.9814 10.5551 46.7348 11.0444 48.612C11.3446 49.7639 11.6282 50.9202 12.0544 52.0494C12.0544 50.6414 12.0768 49.2329 12.0443 47.8257C12.0297 47.1949 12.2508 46.9577 12.8896 46.9538C14.4388 46.9444 14.4393 46.9212 14.4394 48.4285C14.4396 51.5669 14.4395 54.7053 14.4387 57.8437C14.4384 58.8145 14.4017 58.8578 13.4536 58.8532C11.5944 58.8443 11.9592 59.0502 11.5059 57.3325C11.1489 55.9794 10.8288 54.6165 10.3507 53.2782C10.3507 54.8095 10.323 56.3414 10.3629 57.8716C10.3817 58.5916 10.1752 58.8919 9.40371 58.8703C7.93594 58.8293 7.93499 58.8672 7.93563 57.3852C7.93592 56.7164 7.93569 56.0475 7.9357 55.3015Z" fill="#1E1E1E"/>
<path d="M24.8586 56.6502C24.8557 54.1857 24.8475 51.7933 24.8577 49.4011C24.8652 47.6478 25.5359 46.9857 27.2917 46.9673C27.9347 46.9605 28.5785 46.9517 29.2208 46.9744C30.646 47.0248 31.3568 47.7243 31.3676 49.1437C31.3869 51.6644 31.3871 54.1856 31.3647 56.7063C31.3522 58.1209 30.618 58.8258 29.2029 58.8514C28.5086 58.864 27.8138 58.8601 27.1193 58.8524C25.6256 58.8359 24.9689 58.2131 24.8586 56.6502ZM28.7354 50.0107C28.7452 49.536 28.8042 49.0687 28.0634 49.0967C27.3261 49.1245 27.5114 49.6345 27.5092 50.0325C27.498 52.0141 27.51 53.9958 27.5002 55.9774C27.498 56.4056 27.52 56.7272 28.0906 56.7366C28.6936 56.7465 28.7432 56.4159 28.7403 55.9486C28.7286 54.0185 28.7356 52.0883 28.7354 50.0107Z" fill="#1E1E1E"/>
<path d="M17.5449 58.5784C17.4975 54.8937 17.4858 51.27 17.4682 47.6463C17.4658 47.1499 17.7137 46.9589 18.1854 46.963C19.4193 46.9739 20.6549 46.9371 21.8869 46.9883C23.1015 47.0388 23.5978 47.5622 23.6679 48.7653C23.7037 49.3804 23.6844 49.9986 23.7006 50.6152C23.7227 51.456 23.4387 52.0766 22.2541 52.2992C23.6381 52.5389 23.8704 53.3279 23.8305 54.3196C23.7944 55.2181 23.8441 56.1204 23.7962 57.0178C23.7413 58.0466 23.2038 58.7256 22.2106 58.7937C20.7781 58.892 19.3347 58.8349 17.8961 58.8289C17.7901 58.8285 17.6845 58.7055 17.5449 58.5784ZM20.2434 56.8695C21.3897 56.9739 21.4129 56.9533 21.4158 55.8181C21.4168 55.4094 21.42 55.0006 21.4165 54.5919C21.4077 53.5705 21.2098 53.4362 20.1421 53.7376C20.1421 54.7503 20.1421 55.7683 20.2434 56.8695ZM21.3106 49.3068C21.0516 48.6734 20.5744 48.9796 20.1781 48.9902C20.1781 49.9706 20.1781 50.9018 20.1781 51.8241C21.2767 51.9141 21.3222 51.8763 21.325 50.9026C21.3265 50.4159 21.3224 49.9292 21.3106 49.3068Z" fill="#1E1E1E"/>
<path d="M38.0297 49.6189C37.1964 51.4697 37.2024 53.2649 37.8775 55.1086C38.2021 55.9954 38.3741 56.9391 38.5982 57.8612C38.7918 58.6575 38.6457 58.8598 37.8476 58.851C35.7451 58.8276 36.1644 59.1442 35.8165 57.1838C35.66 56.3017 35.5093 55.4186 35.2513 54.5289C35.0446 55.6723 34.7959 56.8102 34.6472 57.9611C34.5597 58.6378 34.2898 58.8783 33.6079 58.8679C31.9677 58.843 31.9776 58.8731 32.3993 57.307C32.8059 55.7972 33.493 54.2811 33.4942 52.7673C33.4954 51.2805 32.7949 49.7915 32.3911 48.3065C32.0437 47.0292 32.09 46.9635 33.4482 46.9648C34.731 46.9661 34.7295 46.9663 34.9515 48.2093C35.1071 49.081 35.2675 49.9518 35.5346 50.8305C35.7273 49.828 35.9626 48.8313 36.0982 47.8212C36.1916 47.1248 36.5251 46.9433 37.1796 46.9523C38.8235 46.975 38.8403 46.9719 38.3597 48.5279C38.2536 48.8712 38.1493 49.215 38.0297 49.6189Z" fill="#1E1E1E"/>
<path d="M22.2838 32.7455C22.3399 33.0612 22.3883 33.315 22.3887 33.5689C22.3939 36.8361 22.3942 40.1034 22.3913 43.3707C22.3904 44.3746 22.2804 44.4804 21.2853 44.4864C20.848 44.489 20.4098 44.4687 19.9735 44.4903C19.3054 44.5233 19.0497 44.1941 19.0509 43.5589C19.0575 40.163 19.0586 36.7671 19.0507 33.3712C19.0491 32.6972 19.3139 32.3485 20.0227 32.4305C20.7662 32.5165 21.5101 32.5994 22.2838 32.7455Z" fill="#1E1E1E"/>
<path d="M33.9339 1.79681C34.6473 3.40707 34.412 4.87472 33.439 6.21648C32.821 7.06872 32.0927 7.84009 31.4397 8.66805C29.6931 10.8825 29.4519 13.2946 30.6172 15.8318C31.4279 17.597 32.8731 18.5591 34.7971 18.6763C36.439 18.7762 38.0897 18.7247 39.735 18.782C40.0086 18.7915 40.4879 18.9902 40.5058 19.1439C40.5689 19.6879 40.0855 19.6052 39.7416 19.6003C38.1215 19.5772 36.4985 19.5919 34.8821 19.4982C30.7386 19.258 28.9591 15.6428 29.0891 12.6996C29.1717 10.8283 29.8127 9.19273 31.0669 7.79706C31.5657 7.24204 32.0852 6.70035 32.5299 6.10388C32.8631 5.65701 33.174 5.15995 33.3506 4.63658C33.7869 3.34396 33.4409 2.136 32.5251 1.42079C31.5787 0.681628 30.0231 0.601369 28.9514 1.2364C28.1094 1.73533 27.6737 2.66138 27.8325 3.67713C27.9546 4.45882 28.3738 5.03621 29.1777 5.17059C29.5533 5.23339 29.9623 5.07683 30.3583 5.04552C30.6164 5.0251 30.8782 5.05115 31.1384 5.05639C31.0044 5.30419 30.9329 5.64457 30.726 5.78416C29.6939 6.4803 27.9804 5.93952 27.3296 4.75387C26.6196 3.46026 27.0267 1.60055 28.1987 0.708292C29.6164 -0.370962 32.791 -0.371084 33.9339 1.79681Z" fill="#1E1E1E"/>
<path d="M6.78306 58.0185C6.80778 58.6374 6.57094 58.8721 5.999 58.8618C3.86166 58.8233 4.13012 59.1102 4.12364 57.0371C4.11414 53.9997 4.1405 50.9621 4.10707 47.9251C4.09885 47.1783 4.34598 46.9319 5.08711 46.9517C6.87546 46.9996 6.78755 46.7654 6.78466 48.6812C6.78 51.7701 6.78349 54.8589 6.78306 58.0185Z" fill="#1E1E1E"/>
<path d="M19.317 31.2288C19.1919 30.2799 19.1065 29.361 19.0945 28.4412C19.0931 28.3357 19.4964 28.1453 19.7206 28.1314C20.3867 28.09 21.0572 28.1213 21.726 28.116C22.2023 28.1122 22.4462 28.3475 22.4544 28.8152C22.4647 29.4065 22.4642 29.9982 22.4586 30.5896C22.4543 31.0465 22.2297 31.3345 21.7584 31.3307C20.965 31.3244 20.1718 31.2844 19.317 31.2288Z" fill="#1E1E1E"/>
</svg>
