<svg width="62" height="61" viewBox="0 0 62 61" fill="none" xmlns="http://www.w3.org/2000/svg">
<path d="M30.3938 36.2177C29.7468 36.8647 28.6969 36.8647 28.0478 36.2177L11.3546 19.5245C10.7076 18.8774 10.7076 17.8255 11.3546 17.1785L28.0478 0.485268C28.6948 -0.161756 29.7447 -0.161756 30.3938 0.485268L47.087 17.1785C47.734 17.8255 47.734 18.8774 47.087 19.5245L30.3938 36.2177Z" fill="#1E1E1E"/>
<path d="M23.6579 6.69884C23.6579 6.68631 23.6579 6.68214 23.6871 6.66753C23.852 6.56108 24.2611 6.41081 24.6973 6.6717C24.7057 6.67588 24.7328 6.69884 24.737 6.70927C24.7307 6.7698 24.1922 11.324 24.1901 11.3324C24.1901 11.3324 24.3008 11.8938 24.0753 12.4156C23.7414 13.3006 22.8377 13.4654 22.773 12.9186C22.7416 12.975 23.1215 11.2718 23.1215 11.2718C23.1215 11.2823 23.6475 6.76563 23.6579 6.69884Z" fill="#DADADA"/>
<path d="M21.2137 15.1894C21.197 15.1936 21.1929 15.1957 21.1636 15.179C20.9612 15.0809 19.5419 14.7344 19.6964 14.1667C19.6984 14.1562 19.7151 14.1166 19.7256 14.1062C19.832 14.3003 25.4695 11.3907 25.2921 11.2321C25.2941 11.2321 26.0998 10.7458 26.6049 10.32C27.325 9.50394 27.4377 9.88798 27.0975 10.6999C27.2394 10.727 25.9579 12.2068 25.9245 12.163C25.9975 12.3842 21.4517 15.3334 21.2158 15.1894" fill="#DADADA"/>
<path d="M28.78 7.29359C28.78 7.29359 28.7779 7.28315 28.803 7.26646C28.947 7.1621 29.3206 6.94295 29.8299 7.03896C29.8382 7.04104 29.8737 7.05148 29.88 7.05983C30.0344 7.1454 30.1889 10.6936 30.1805 10.6414C30.1805 10.6435 30.1012 11.1924 29.9906 11.5953C29.8507 12.2798 29.571 12.0857 29.3728 11.6683C29.3394 11.7205 29.0472 10.6623 29.0618 10.6644C29.066 10.6143 28.9094 7.26855 28.7821 7.2915" fill="#DADADA"/>
<path d="M29.9298 7.02237C29.8985 7.02446 29.6188 6.91801 29.3892 6.75313C29.0365 6.5465 28.8841 6.17707 29.4644 5.61771C29.4748 5.60727 29.5249 5.5697 29.552 5.55926C29.5896 5.55718 30.3097 5.47578 31.3867 5.28167C31.9252 5.18357 32.5576 5.07295 33.2463 4.96651C33.5156 4.96442 33.8015 4.73692 34.5237 4.85589C34.7741 4.86215 35.3231 5.34011 35.2458 5.5864C35.2396 5.76589 35.2104 5.88486 35.1832 5.98922C35.129 6.20003 35.0664 6.38161 35.0058 6.55276C34.5988 7.74662 34.7762 9.19929 34.8305 10.27C34.8764 11.395 34.9349 12.0086 34.9474 12.0399C34.9474 12.0399 34.9495 12.1714 34.9516 12.3927C34.9599 12.4929 34.9307 12.6619 34.9077 12.8289L34.8869 12.9604V12.9771L34.8827 12.9854V12.9896V12.9917C33.2818 13.5761 34.2565 13.1524 33.8996 13.2839L33.8788 13.263L33.837 13.2213L33.6659 13.046C33.1795 12.5722 32.6661 11.9168 32.3447 11.3136C31.299 9.264 32.0233 9.9799 32.8686 10.9755C32.8289 10.917 33.3486 11.5307 33.9622 12.0462C34.1209 12.1673 34.2753 12.2904 34.4235 12.4052L34.4778 12.449L34.5049 12.4699C34.5049 12.4699 33.5344 12.8435 33.7118 12.7767V12.7663V12.6682C33.7055 12.6014 33.716 12.5513 33.7076 12.4824C33.6742 12.2132 33.6387 12.0024 33.6366 11.9961C33.6199 12.0086 33.5782 11.2113 33.526 10.2032C33.4905 9.15546 33.2568 7.64852 33.7953 6.1061C33.8474 5.94957 33.9059 5.7805 33.9288 5.66154C33.956 5.62397 33.9268 5.49247 33.9581 5.67615C34.0102 5.83686 34.2586 5.98296 34.2315 5.93287C34.1209 5.912 33.7514 6.02679 33.3632 6.08314C32.7141 6.18333 32.0963 6.29395 31.562 6.39205C30.5956 6.56528 29.9737 7.0182 29.934 7.02028" fill="#DADADA"/>
<path d="M29.596 8.99046C29.596 8.99046 29.5855 8.99046 29.5688 8.9675C29.4624 8.82974 29.2411 8.4624 29.2975 7.95104C29.2975 7.94269 29.3058 7.90721 29.3142 7.90095C29.3768 7.77155 32.6203 7.41464 32.5848 7.44177C32.5848 7.44177 33.1003 7.50439 33.4781 7.6171C34.1147 7.76111 33.9289 8.04079 33.5595 8.2349C33.6054 8.25994 32.6578 8.56676 32.6599 8.5605C32.6182 8.53963 29.5834 8.88192 29.596 8.99046Z" fill="#DADADA"/>
<path d="M29.9468 10.2991C29.9468 10.2991 29.9385 10.2991 29.9239 10.2741C29.8404 10.128 29.6692 9.74187 29.7256 9.24094C29.7256 9.2326 29.7318 9.1992 29.7381 9.19294C29.7861 9.1512 32.3888 8.83395 32.3742 8.85273C32.3763 8.85273 32.7979 8.91952 33.111 9.0531C33.6369 9.23051 33.4762 9.49975 33.1819 9.6709C33.2195 9.68969 32.4598 9.97354 32.4619 9.96937C32.4452 9.95476 29.9614 10.2637 29.9468 10.2971" fill="#DADADA"/>
<path d="M27.4669 13.048C27.4335 13.0501 27.421 13.0522 27.3771 13.0313C27.0495 12.9082 26.6654 12.5429 27.2561 11.9856C27.2665 11.9752 27.3166 11.9376 27.3437 11.9293C27.3813 11.9293 28.0868 11.8562 29.1742 11.5682C29.7023 11.4305 30.4119 11.2739 30.9984 11.0923C31.3198 10.9901 31.6642 10.8607 32.0608 10.7584L32.3676 10.6874L32.4448 10.6707L32.4636 10.6665H32.4678C31.9147 10.0216 33.2296 11.5411 33.0918 11.3866L33.0876 11.3971L33.0709 11.4367L33.0021 11.5995C32.9186 11.827 32.7975 12.0065 32.6806 12.1902C30.6081 14.7491 27.8071 15.9387 27.8405 15.9888C27.8134 15.968 27.1789 16.3875 25.8431 16.878C24.6847 17.2432 24.2464 16.8279 24.3654 16.7298C24.6617 16.3583 24.8057 16.3123 25.3881 15.9429C25.2336 16.0556 27.4272 14.9077 27.4439 14.9265C27.3855 14.9348 30.1552 13.6115 31.7873 11.5014C31.8792 11.372 31.9376 11.2468 31.9835 11.1257L32.0044 11.0798L32.0148 11.0568C31.4555 10.4077 32.7767 11.9314 32.6389 11.7748H32.6326L32.6201 11.7811L32.5032 11.8082L32.2757 11.8625C31.9585 11.9522 31.6287 12.0691 31.2864 12.1818C30.535 12.4031 29.984 12.522 29.4142 12.6681C28.3247 12.9583 27.5065 13.0543 27.4627 13.0501" fill="#DADADA"/>
<path d="M30.9237 13.4425C30.9237 13.4174 30.9237 13.407 30.9508 13.3736C31.1094 13.1398 31.8796 12.8142 32.3638 13.3548C32.3722 13.3652 32.4056 13.4112 32.4097 13.4341C32.4264 13.4613 32.3596 14.1187 32.5475 14.8618C32.6644 15.2646 32.9294 15.5338 33.2279 15.6298C33.5744 15.7509 34.0544 15.7279 34.6952 15.7071C35.9537 15.7258 36.9368 15.4733 37.4795 15.0767C37.9846 14.7824 38.0221 14.3441 37.9971 14.054C38.018 14.0624 37.8447 13.0125 37.6381 11.9293C37.4565 11.3156 38.2392 11.7978 38.8048 12.8915C39.1784 13.4717 39.7002 14.9369 39.5959 15.0016C39.5875 15.0058 39.6293 15.1665 39.5771 15.5422C39.5541 15.9492 39.2744 15.9784 38.8048 16.2497C37.7967 16.8633 35.7805 16.8091 34.6576 16.83C34.0941 16.8279 33.4512 16.9781 32.6873 16.711C31.8629 16.3916 31.4621 15.7551 31.339 15.2959C31.0927 14.2523 30.9466 13.4717 30.9216 13.4404" fill="#DADADA"/>
<path d="M24.2279 18.9964C24.23 18.9839 24.23 18.9797 24.2613 18.9672C24.4325 18.9109 25.9165 19.5913 26.3297 20.0859C26.336 20.0943 26.361 20.1402 26.3631 20.1611C26.4278 20.3155 24.8624 22.0896 23.7938 23.415C22.7648 24.8155 21.331 25.8361 21.3351 25.8361C21.3372 25.8361 20.3145 26.3913 19.513 26.5082C18.1668 26.6793 18.6782 26.2577 19.3127 25.9217C19.2688 25.9822 20.7883 24.9261 20.7507 24.8718C20.7445 24.876 21.523 23.8742 22.4539 22.6072C23.4473 21.3445 24.3177 18.9902 24.2259 18.9964" fill="#DADADA"/>
<path d="M24.4408 29.1985C24.399 29.2987 24.3197 29.4824 24.2947 29.4949C24.1423 29.5909 23.7437 29.7349 23.2448 29.5638C23.2365 29.5596 22.7043 29.5178 22.6625 28.6913C22.6187 27.8648 22.9192 25.9112 22.9213 25.9008C22.9171 25.9008 23.0695 24.3354 23.2177 23.9159C23.4181 23.2041 23.681 23.4797 23.8397 23.8992C23.8626 23.8553 24.4178 24.9511 24.4429 25.7171C24.4679 26.4831 24.4867 29.0983 24.4429 29.1985" fill="#DADADA"/>
<path d="M26.3753 24.2143C26.3565 24.2226 26.3524 24.2268 26.3169 24.2143C26.0915 24.1496 25.6928 23.895 25.8368 23.2792C25.8389 23.2688 25.8556 23.2229 25.8702 23.2104C25.9266 23.2104 27.5003 22.3087 29.2577 21.6032C31.0401 20.9207 32.8393 20.6327 32.8309 20.6118C32.833 20.6014 34.006 20.4887 34.8367 20.4532C36.2435 20.3489 35.7843 20.7183 34.9578 21.0627C35.0538 21.0856 32.9583 21.7264 32.9687 21.7285C32.9749 21.7452 31.2134 22.0416 29.6167 22.6635C28.02 23.3106 26.4233 24.2143 26.3711 24.2164" fill="#DADADA"/>
<path d="M28.6902 18.604C28.6714 18.5727 28.1663 17.9695 28.1663 17.9173C28.1496 17.5687 28.7194 17.3266 29.5522 17.8004C29.5689 17.8088 30.2034 17.9862 30.2284 18.0154C30.2597 18.0551 30.1888 18.7918 30.7127 20.0775C31.2219 21.3883 32.1424 22.7199 33.2444 24.1329C34.3172 25.523 35.4902 26.4664 36.492 27.2177C37.5043 28.0046 37.688 27.4369 37.6734 27.0278C37.7297 26.4643 37.6984 25.9759 37.6734 25.6858C37.3812 24.4063 37.0723 24.0703 37.2998 24.0912C37.4605 24.1287 38.0679 24.6651 38.3601 25.571C38.4269 25.8256 38.7253 26.7293 38.9236 27.4181C39.0551 27.7583 39.2889 28.4408 39.245 28.948L39.2325 29.1275L39.2283 29.1692V29.1839C39.1949 29.2527 38.1576 29.8121 38.1576 29.8121C38.0658 29.7933 37.9865 29.7787 37.9197 29.7662C37.7861 29.739 37.711 29.7244 37.711 29.7244C37.713 29.7432 36.6903 29.474 35.5695 28.5869C34.4404 27.7061 33.2402 26.3745 32.1132 24.9177C30.9882 23.4817 30.0865 21.9372 29.6065 20.6974C29.093 19.4451 28.7194 18.6436 28.6902 18.6019" fill="#DADADA"/>
<path d="M26.2484 5.50494C26.2609 5.50285 26.2651 5.50285 26.2839 5.52581C26.4196 5.66356 27.052 6.10187 26.9121 6.62157C26.9101 6.63201 26.8975 6.66749 26.8892 6.67375C26.8558 6.65079 25.5137 6.83655 24.4138 7.13293C23.3389 7.34791 22.3225 7.44183 22.3287 7.45436C22.3308 7.46062 21.6546 7.41679 21.1808 7.35417C20.3626 7.27903 20.588 6.97848 21.0701 6.74263C21.0117 6.70924 22.2348 6.3252 22.2327 6.33563C22.2369 6.3252 23.2533 6.22084 24.203 6.0309C25.0921 5.78044 26.2109 5.4778 26.2484 5.50494Z" fill="#DADADA"/>
<path d="M25.9851 8.50837C25.9956 8.50628 25.9998 8.50628 26.0185 8.52924C26.1479 8.6649 26.1375 9.14704 25.8349 9.61457C25.8328 9.625 25.8203 9.66048 25.8119 9.66466C25.7848 9.625 21.8985 10.6728 21.8525 10.6248C21.8546 10.6268 21.1638 10.6456 20.6754 10.5225C19.8593 10.3701 20.1765 10.0863 20.6169 9.9026C20.571 9.90051 21.6877 9.53108 21.6856 9.51438C21.6647 9.57282 25.8829 8.48332 25.9831 8.50628" fill="#DADADA"/>
<path d="M37.3542 19.0862C37.3542 19.0862 37.3647 19.0925 37.3563 19.1196C37.3313 19.297 37.1393 19.656 36.7218 19.9586C36.7135 19.9649 36.6863 19.9837 36.678 19.9837C36.8074 19.8292 34.2757 18.9318 34.2005 18.9902C34.2026 18.9902 33.7789 18.7564 33.5076 18.4955C33.04 18.1011 33.3448 17.9341 33.6996 17.9049C33.6683 17.8756 34.5303 17.9216 34.5366 17.9216C34.5094 17.8256 37.348 18.8191 37.3521 19.0862" fill="#DADADA"/>
<path d="M44.3234 32.0287C44.3234 32.3919 44.1814 32.7363 43.9226 32.993C43.6659 33.2518 43.3236 33.3917 42.9584 33.3917H36.916L35.7827 34.525H42.9584C43.6242 34.525 44.2524 34.2662 44.7241 33.7945C45.1958 33.3228 45.4546 32.6945 45.4546 32.0287V24.853L44.3213 25.9864V32.0287H44.3234Z" fill="#1E1E1E"/>
<path d="M15.4805 33.3916C14.7291 33.3916 14.1176 32.778 14.1176 32.0266V25.9842L12.9822 24.8509V32.0266C12.9822 33.4041 14.103 34.5249 15.4805 34.5249H22.6562L21.5229 33.3916H15.4826H15.4805Z" fill="#1E1E1E"/>
<path d="M14.1176 4.64708C14.1176 4.28182 14.2595 3.93953 14.5162 3.6828C14.7751 3.42399 15.1153 3.28415 15.4805 3.28415H21.5229L22.6562 2.15082H15.4805C14.8126 2.15082 14.1865 2.41171 13.7148 2.88342C13.2431 3.35512 12.9822 3.98336 12.9822 4.64916V11.8249L14.1155 10.6915V4.65125L14.1176 4.64708Z" fill="#1E1E1E"/>
<path d="M42.9584 3.28208C43.7097 3.28208 44.3213 3.89362 44.3213 4.64709V10.6874L45.4546 11.8228V4.64709C45.4546 3.26955 44.3338 2.14874 42.9584 2.14874H35.7827L36.916 3.28208H42.9584Z" fill="#1E1E1E"/>
<path d="M14.1677 46.9667C14.1677 48.9307 13.4769 50.6025 12.0952 51.9863C10.7135 53.3701 9.04372 54.061 7.08386 54.061C5.12401 54.061 3.45218 53.3701 2.07256 51.9884C0.690855 50.6067 0 48.9328 0 46.9729C0 45.0131 0.690855 43.3392 2.07256 41.9574C3.45427 40.5757 5.12401 39.8849 7.08386 39.8849C9.19608 39.8849 10.9618 40.6759 12.379 42.2559C12.5919 42.4918 12.6984 42.7527 12.6984 43.0344C12.6984 43.3538 12.5752 43.6376 12.3268 43.8839C12.0785 44.1302 11.7967 44.2554 11.4774 44.2554C11.158 44.2554 10.8575 44.1135 10.6091 43.8296C9.6657 42.7819 8.49062 42.258 7.08595 42.258C5.78773 42.258 4.67944 42.7193 3.759 43.6397C2.83855 44.5602 2.37729 45.6705 2.37729 46.9708C2.37729 48.2711 2.83855 49.3794 3.759 50.302C4.67944 51.2224 5.78773 51.6837 7.08595 51.6837C8.17128 51.6837 9.13764 51.3539 9.98086 50.6902C10.8262 50.0285 11.3834 49.1832 11.6527 48.1522H9.19191C8.82665 48.1522 8.53654 48.0311 8.32364 47.789C8.11075 47.5469 8.00431 47.2714 8.00431 46.9646C8.00431 46.6578 8.11075 46.3823 8.32364 46.1401C8.53654 45.898 8.82665 45.777 9.19191 45.777H12.9822C13.2995 45.777 13.5771 45.8959 13.8129 46.1318C14.0488 46.3676 14.1677 46.6452 14.1677 46.9646" fill="#1E1E1E"/>
<path d="M17.0065 48.9223C17.0065 49.6904 17.2716 50.3416 17.8038 50.8801C18.3339 51.4186 18.9747 51.6857 19.7177 51.6857H20.7989C21.1642 51.6857 21.448 51.8047 21.6505 52.0405C21.8508 52.2764 21.951 52.554 21.951 52.8733C21.951 53.1927 21.8508 53.4723 21.6505 53.7082C21.448 53.944 21.1662 54.0609 20.7989 54.0609H19.7177C18.3235 54.0609 17.1338 53.56 16.1487 52.5561C15.1635 51.5521 14.671 50.3395 14.671 48.9223V45.0235C14.671 43.6063 15.1635 42.3936 16.1487 41.3897C17.1338 40.3858 18.3235 39.8828 19.7177 39.8828H20.7989C21.1662 39.8828 21.448 39.9996 21.6505 40.2376C21.8508 40.4755 21.951 40.7531 21.951 41.0724C21.951 41.3918 21.8508 41.6694 21.6505 41.9073C21.448 42.1452 21.1662 42.2621 20.7989 42.2621H19.7177C18.9747 42.2621 18.3339 42.5293 17.8038 43.0678C17.2716 43.6063 17.0065 44.2575 17.0065 45.0255V45.779H20.5964C20.9617 45.779 21.2476 45.898 21.4543 46.1359C21.6609 46.3718 21.7653 46.6494 21.7653 46.9687C21.7653 47.288 21.6609 47.5656 21.4543 47.8036C21.2476 48.0394 20.9617 48.1584 20.5964 48.1584H17.0065V48.9265V48.9223Z" fill="#1E1E1E"/>
<path d="M32.7689 52.8754C32.7689 53.2428 32.6541 53.5308 32.4246 53.7437C32.195 53.9566 31.9195 54.063 31.6001 54.063C31.2808 54.063 31.0157 53.9628 30.8049 53.7625C30.5565 53.5392 30.4313 53.2428 30.4313 52.8775V45.0798C30.4313 44.2283 30.1537 43.5374 29.5985 43.0052C29.0559 42.5084 28.3692 42.2622 27.5427 42.2622C26.7746 42.2622 26.1255 42.5377 25.5932 43.0866C25.061 43.6355 24.7959 44.3013 24.7959 45.0798V52.8775C24.7959 53.2449 24.6811 53.5329 24.4515 53.7458C24.222 53.9587 23.9465 54.0651 23.6292 54.0651C23.312 54.0651 23.0448 53.9649 22.8319 53.7646C22.5835 53.5412 22.4604 53.2449 22.4604 52.8796V45.0819C22.4604 43.6397 22.9655 42.4145 23.9757 41.4043C24.9838 40.3941 26.1985 39.889 27.6157 39.889C29.0329 39.889 30.2455 40.3941 31.2557 41.4043C32.2638 42.4145 32.7689 43.6397 32.7689 45.0819V52.8796V52.8754Z" fill="#1E1E1E"/>
<path d="M45.5879 46.9729C45.5879 48.9328 44.9033 50.6067 43.5341 51.9884C42.1649 53.3701 40.5056 54.0631 38.5562 54.0631H37.5815C37.2037 54.0631 36.9115 53.9441 36.7049 53.7082C36.4982 53.4724 36.3939 53.1948 36.3939 52.8734C36.3939 52.5519 36.4982 52.2764 36.7049 52.0406C36.9115 51.8026 37.2037 51.6858 37.5815 51.6858H38.5562C39.8565 51.6858 40.9606 51.2245 41.8727 50.3041C42.7827 49.3836 43.2377 48.2732 43.2377 46.975C43.2377 45.6768 42.7827 44.5643 41.8727 43.6439C40.9627 42.7214 39.8565 42.2622 38.5562 42.2622H35.7719V52.8755C35.7719 53.2407 35.655 53.5308 35.4192 53.7437C35.1833 53.9566 34.9057 54.0631 34.5885 54.0631C34.2712 54.0631 34.0062 53.9629 33.7933 53.7625C33.5449 53.5392 33.4218 53.2428 33.4218 52.8755V41.0746C33.4218 40.7552 33.5407 40.4776 33.7766 40.2397C34.0124 40.0039 34.2838 39.8849 34.5927 39.8849H38.5583C40.5077 39.8849 42.1649 40.5757 43.5362 41.9595C44.9075 43.3412 45.59 45.0131 45.59 46.975" fill="#1E1E1E"/>
<path d="M53.3649 45.0924C53.3649 44.3243 53.0957 43.6627 52.5593 43.1075C52.0208 42.5523 51.3759 42.2747 50.6182 42.2747H50.6203C49.8522 42.2747 49.1948 42.5523 48.6521 43.1075C48.1094 43.6606 47.836 44.3201 47.836 45.0882V46.7851H53.3608V45.0924H53.3649ZM53.3649 49.1603H47.8381V52.8838C47.8381 53.2616 47.7233 53.5579 47.4937 53.7708C47.262 53.9837 46.9886 54.0902 46.6693 54.0902C46.35 54.0902 46.0765 53.9837 45.8469 53.7708C45.6174 53.5579 45.5026 53.2637 45.5026 52.8838V45.0882C45.5026 43.6585 46.0014 42.4354 46.9991 41.421C47.9967 40.4046 49.2031 39.8974 50.6203 39.8974H50.6349C52.0396 39.8974 53.2355 40.4088 54.2207 41.4315C55.2058 42.4542 55.7005 43.6731 55.7005 45.0903V52.8859C55.7005 53.2637 55.5857 53.5579 55.3561 53.7729C55.1244 53.9858 54.851 54.0923 54.5317 54.0923C54.2123 54.0923 53.9473 53.9921 53.7344 53.7917C53.4881 53.5663 53.3629 53.2657 53.3629 52.888V49.1624L53.3649 49.1603Z" fill="#1E1E1E"/>
<path d="M58.3722 53.009C58.3722 53.3388 58.2637 53.5934 58.0445 53.7708C57.8254 53.9482 57.5749 54.0359 57.2911 54.0359C57.0072 54.0359 56.7421 53.9482 56.5292 53.7708C56.3184 53.5934 56.2099 53.3388 56.2099 53.009V40.8971C56.2099 40.5778 56.3163 40.3273 56.5292 40.1437C56.7421 39.9621 56.9947 39.8702 57.2911 39.8702C57.5874 39.8702 57.8254 39.9621 58.0445 40.1437C58.2616 40.3273 58.3722 40.5778 58.3722 40.8971V53.009Z" fill="#1E1E1E"/>
<path d="M60.67 40.0163C60.67 40.104 60.6408 40.1812 60.5844 40.2459C60.526 40.3106 60.455 40.3503 60.3694 40.3586L60.647 40.6905C60.6637 40.7114 60.67 40.7322 60.67 40.7531C60.67 40.7802 60.6595 40.8032 60.6408 40.8241C60.622 40.8449 60.5969 40.8533 60.5698 40.8533C60.5427 40.8533 60.5197 40.8408 60.4988 40.8178L60.0877 40.3252C60.0689 40.3044 60.0605 40.2835 60.0605 40.2605C60.0605 40.2313 60.073 40.2063 60.0981 40.1854C60.1231 40.1645 60.1503 40.1562 60.1774 40.1624H60.3339C60.3715 40.1624 60.407 40.1478 60.4341 40.1186C60.4613 40.0915 60.478 40.056 60.478 40.0142C60.478 39.9725 60.4633 39.9391 60.4341 39.9099C60.407 39.8807 60.3715 39.8661 60.3339 39.8661H60.0167V40.7531C60.0167 40.7844 60.0063 40.8095 59.9875 40.8262C59.9687 40.8429 59.9457 40.8512 59.9165 40.8512C59.8894 40.8512 59.8685 40.8429 59.8497 40.8262C59.8288 40.8095 59.8205 40.7844 59.8205 40.7531V39.768C59.8205 39.7429 59.8309 39.7179 59.8497 39.6991C59.8685 39.6803 59.8915 39.6699 59.9165 39.6699H60.3319C60.4258 39.6699 60.503 39.7033 60.5698 39.7721C60.6345 39.8389 60.6679 39.9203 60.6679 40.0163" fill="#1E1E1E"/>
<path d="M60.2462 39.2921C59.7119 39.2921 59.2756 39.7262 59.2756 40.2627C59.2756 40.7991 59.7098 41.2332 60.2462 41.2332C60.7826 41.2332 61.2167 40.7991 61.2167 40.2627C61.2167 39.7262 60.7805 39.2921 60.2462 39.2921ZM61.0685 40.2627C61.0685 40.7156 60.6991 41.085 60.2462 41.085C59.7933 41.085 59.4217 40.7156 59.4217 40.2627C59.4217 39.8097 59.7912 39.4403 60.2462 39.4403C60.7012 39.4403 61.0685 39.8097 61.0685 40.2627Z" fill="#1E1E1E"/>
<path d="M3.24324 58.3626C3.10966 58.5964 2.92181 58.7821 2.6797 58.9241C2.43968 59.066 2.17878 59.137 1.8991 59.137C1.46914 59.137 1.10388 58.9867 0.801245 58.684C0.500692 58.3814 0.348328 58.0162 0.348328 57.5862C0.348328 57.1562 0.498604 56.7952 0.801245 56.4946C1.10388 56.1941 1.46914 56.0417 1.8991 56.0417C2.17878 56.0417 2.44176 56.1127 2.68596 56.2546C2.91972 56.3902 3.1034 56.576 3.23697 56.8119C3.2662 56.8599 3.28081 56.9058 3.28081 56.9538C3.28081 57.031 3.25159 57.0936 3.19314 57.1479C3.1347 57.2001 3.06791 57.2272 2.99695 57.2272C2.89885 57.2272 2.82163 57.1792 2.76736 57.0853C2.57534 56.7555 2.28522 56.5906 1.8991 56.5906C1.6215 56.5906 1.38565 56.6887 1.18946 56.8828C0.993264 57.0769 0.895167 57.3128 0.895167 57.5904C0.895167 57.868 0.993264 58.1038 1.18946 58.3C1.38565 58.4962 1.6215 58.5943 1.8991 58.5943C2.28522 58.5943 2.57325 58.4252 2.76736 58.0913C2.82163 57.9974 2.89885 57.9494 2.99695 57.9494C3.06791 57.9494 3.1347 57.9744 3.19314 58.0266C3.25159 58.0788 3.28081 58.1414 3.28081 58.2144C3.28081 58.2645 3.26828 58.3146 3.24115 58.3626" fill="#1E1E1E"/>
<path d="M6.988 57.6092C6.988 58.0308 6.83773 58.3898 6.53718 58.6882C6.23662 58.9867 5.87554 59.137 5.45393 59.137C5.03232 59.137 4.67124 58.9888 4.37069 58.6903C4.07014 58.3918 3.91986 58.0308 3.91986 57.6029V56.3151C3.91986 56.2274 3.94699 56.1607 4.00126 56.1127C4.05553 56.0667 4.12023 56.0417 4.19328 56.0417C4.26633 56.0417 4.32895 56.0667 4.3853 56.1127C4.43957 56.1607 4.4667 56.2274 4.4667 56.3151V57.6029C4.4667 57.8763 4.56271 58.108 4.75473 58.3021C4.94884 58.4941 5.18051 58.5901 5.45393 58.5901C5.72735 58.5901 5.95903 58.4941 6.15105 58.3021C6.34307 58.1101 6.44117 57.8784 6.44117 57.605V56.313C6.44117 56.2295 6.4683 56.1627 6.52465 56.1147C6.57892 56.0667 6.64362 56.0417 6.71459 56.0417C6.78555 56.0417 6.85234 56.0667 6.90661 56.1147C6.96087 56.1648 6.988 56.2295 6.988 56.3151V57.6092Z" fill="#1E1E1E"/>
<path d="M9.32757 59.1452C8.90387 59.1452 8.54488 58.9949 8.24641 58.6944C7.94795 58.3917 7.79767 58.0327 7.79767 57.609V55.0481C7.79767 54.9604 7.8248 54.8936 7.88116 54.8456C7.93542 54.7976 7.99804 54.7747 8.07318 54.7747C8.14831 54.7747 8.21093 54.7976 8.26519 54.8456C8.31946 54.8936 8.34659 54.9604 8.34659 55.0481V57.609C8.34659 57.8825 8.4426 58.1141 8.63671 58.3082C8.82873 58.5024 9.06041 58.5984 9.32965 58.5984C9.41731 58.5984 9.48619 58.6255 9.53211 58.6777C9.58011 58.7319 9.60099 58.7966 9.60099 58.8718C9.60099 58.9469 9.57803 59.0095 9.53002 59.0638C9.4841 59.1181 9.41731 59.1452 9.32757 59.1452Z" fill="#1E1E1E"/>
<path d="M10.6695 58.8656C10.6695 58.9533 10.6423 59.0201 10.5881 59.0681C10.5338 59.1161 10.4691 59.139 10.3961 59.139C10.323 59.139 10.2583 59.1161 10.204 59.0681C10.1498 59.0201 10.1205 58.9533 10.1205 58.8656V56.3255C10.1205 56.2379 10.1477 56.1711 10.204 56.1231C10.2583 56.0751 10.323 56.0521 10.3961 56.0521C10.4691 56.0521 10.5317 56.0751 10.5881 56.1231C10.6423 56.1711 10.6695 56.2379 10.6695 56.3255V58.8656ZM10.6695 55.044C10.6695 55.1358 10.6423 55.2068 10.5881 55.2569C10.5338 55.307 10.4691 55.3341 10.3961 55.3341C10.323 55.3341 10.2583 55.3091 10.204 55.2569C10.1498 55.2047 10.1205 55.1358 10.1205 55.044C10.1205 54.9522 10.1477 54.8895 10.204 54.8415C10.2583 54.7935 10.323 54.7706 10.3961 54.7706C10.4691 54.7706 10.5317 54.7935 10.5881 54.8415C10.6423 54.8895 10.6695 54.9563 10.6695 55.044Z" fill="#1E1E1E"/>
<path d="M14.5187 58.8593C14.5187 58.9469 14.4916 59.0137 14.4373 59.0617C14.381 59.1097 14.3183 59.1327 14.2453 59.1327C14.1722 59.1327 14.1096 59.1097 14.0533 59.0617C13.999 59.0137 13.9719 58.9469 13.9719 58.8593V57.5715C13.9719 57.2981 13.8759 57.0664 13.6838 56.8744C13.4897 56.6803 13.2581 56.5843 12.9846 56.5843C12.7112 56.5843 12.4795 56.6803 12.2875 56.8723C12.0955 57.0643 11.9974 57.296 11.9974 57.5673V58.8593C11.9974 58.9428 11.9703 59.0095 11.916 59.0576C11.8617 59.1076 11.797 59.1306 11.724 59.1306C11.6509 59.1306 11.5862 59.1056 11.532 59.0576C11.4777 59.0095 11.4506 58.9428 11.4506 58.8593V57.5652C11.4506 57.1436 11.6008 56.7846 11.9014 56.4862C12.2019 56.1877 12.563 56.0374 12.9846 56.0374C13.4062 56.0374 13.7673 56.1856 14.0679 56.4862C14.3684 56.7846 14.5187 57.1457 14.5187 57.5715V58.8593Z" fill="#1E1E1E"/>
<path d="M17.7449 59.043L16.7096 59.137C16.2797 59.137 15.9144 58.9867 15.6118 58.684C15.3092 58.3814 15.1589 58.0162 15.1589 57.5862C15.1589 57.1562 15.3092 56.7952 15.6118 56.4946C15.9144 56.1941 16.2797 56.0417 16.7096 56.0417C17.1396 56.0417 17.5007 56.1941 17.8033 56.4946C18.108 56.7972 18.2604 57.1604 18.2604 57.5862V58.8635C18.2604 58.9512 18.2333 59.018 18.179 59.066C18.1247 59.114 18.06 59.137 17.987 59.137C17.9098 59.137 17.8451 59.114 17.7929 59.066C17.7825 59.0577 17.772 59.0472 17.7658 59.0368L17.7449 59.041V59.043ZM17.7136 58.4962V57.5883C17.7136 57.3128 17.6155 57.0769 17.4193 56.8828C17.2231 56.6887 16.9852 56.5906 16.7096 56.5906C16.4341 56.5906 16.1962 56.6887 16 56.8828C15.8038 57.0769 15.7057 57.3128 15.7057 57.5883C15.7057 57.8638 15.8038 58.1017 16 58.2979C16.1962 58.4941 16.4341 58.5922 16.7096 58.5922L17.699 58.5004H17.7136V58.4962Z" fill="#1E1E1E"/>
<path d="M21.909 56.8118C21.9382 56.8578 21.9528 56.9058 21.9528 56.9538C21.9528 57.031 21.9236 57.0957 21.8673 57.1479C21.8088 57.2021 21.742 57.2272 21.6648 57.2272C21.5646 57.2272 21.4916 57.1792 21.4415 57.0853C21.2453 56.7513 20.9531 56.5823 20.567 56.5823C20.2852 56.5823 20.0493 56.6804 19.8532 56.8765C19.657 57.0727 19.5589 57.3107 19.5589 57.5904V58.8552C19.5589 58.9428 19.5317 59.0096 19.4754 59.0576C19.4232 59.1056 19.3585 59.1286 19.2854 59.1286C19.2124 59.1286 19.1477 59.1056 19.0934 59.0576C19.0392 59.0096 19.012 58.9428 19.012 58.8552V57.5883C19.012 57.1583 19.1644 56.791 19.467 56.4883C19.7718 56.1857 20.1391 56.0333 20.567 56.0333C20.8487 56.0333 21.1096 56.1043 21.3538 56.2462C21.5876 56.384 21.7713 56.5718 21.9111 56.8098" fill="#1E1E1E"/>
<path d="M22.9821 58.8656C22.9821 58.9533 22.955 59.0201 22.9007 59.0681C22.8465 59.1161 22.7818 59.139 22.7108 59.139C22.6398 59.139 22.573 59.1161 22.5188 59.0681C22.4645 59.0201 22.4374 58.9533 22.4374 58.8656V56.3255C22.4374 56.2379 22.4645 56.1711 22.5188 56.1231C22.573 56.0751 22.6377 56.0521 22.7108 56.0521C22.7838 56.0521 22.8465 56.0751 22.9007 56.1231C22.955 56.1711 22.9821 56.2379 22.9821 56.3255V58.8656ZM22.9821 55.044C22.9821 55.1358 22.955 55.2068 22.9007 55.2569C22.8465 55.307 22.7818 55.3341 22.7108 55.3341C22.6398 55.3341 22.573 55.3091 22.5188 55.2569C22.4645 55.2047 22.4374 55.1358 22.4374 55.044C22.4374 54.9522 22.4645 54.8895 22.5188 54.8415C22.573 54.7935 22.6377 54.7706 22.7108 54.7706C22.7838 54.7706 22.8465 54.7935 22.9007 54.8415C22.955 54.8895 22.9821 54.9563 22.9821 55.044Z" fill="#1E1E1E"/>
<path d="M31.8712 55.0398C31.8712 55.1317 31.8462 55.2005 31.7919 55.2506C31.7397 55.2986 31.675 55.3237 31.5978 55.3237C31.5248 55.3237 31.46 55.2986 31.4058 55.2506C31.3515 55.2005 31.3244 55.1317 31.3244 55.0398C31.3244 54.948 31.3515 54.8854 31.4058 54.8374C31.46 54.7894 31.5248 54.7664 31.5978 54.7664C31.675 54.7664 31.7397 54.7894 31.7919 54.8374C31.8462 54.8854 31.8712 54.9522 31.8712 55.0398ZM31.8712 59.1787C31.8712 59.5189 31.7523 59.8069 31.5143 60.047C31.2764 60.287 30.9863 60.408 30.644 60.408C30.5563 60.408 30.4895 60.3809 30.4415 60.3266C30.3935 60.2724 30.3705 60.2077 30.3705 60.1346C30.3705 60.0616 30.3935 59.9969 30.4415 59.9426C30.4895 59.8883 30.5563 59.8612 30.644 59.8612C30.8339 59.8612 30.9946 59.7944 31.1261 59.6608C31.2597 59.5293 31.3265 59.3665 31.3265 59.1787V56.3297C31.3265 56.2462 31.3536 56.1794 31.4079 56.1314C31.4621 56.0813 31.5268 56.0563 31.5999 56.0563C31.6771 56.0563 31.7418 56.0813 31.794 56.1314C31.8483 56.1794 31.8733 56.2462 31.8733 56.3297V59.1808L31.8712 59.1787Z" fill="#1E1E1E"/>
<path d="M37.9612 58.5921C38.2388 58.5921 38.4747 58.494 38.6667 58.2999C38.8629 58.1058 38.9589 57.8699 38.9589 57.5923C38.9589 57.3147 38.8629 57.081 38.6688 56.8827C38.4747 56.6865 38.2388 56.5884 37.9612 56.5884C37.6836 56.5884 37.4499 56.6865 37.2537 56.8827C37.0575 57.0789 36.9594 57.3168 36.9594 57.5923V58.59H37.9612V58.5921ZM36.9594 59.1389V60.1366C36.9594 60.2242 36.9322 60.291 36.878 60.339C36.8216 60.387 36.759 60.41 36.686 60.41C36.6129 60.41 36.5482 60.387 36.4939 60.339C36.4397 60.291 36.4125 60.2242 36.4125 60.1366V57.5944C36.4125 57.1645 36.5649 56.7992 36.8655 56.4966C37.1681 56.196 37.5334 56.0436 37.9612 56.0436C38.3891 56.0436 38.7502 56.196 39.0549 56.4966C39.3575 56.7992 39.5078 57.1645 39.5078 57.5944C39.5078 58.0244 39.3575 58.3854 39.0549 58.686C38.7523 58.9886 38.3891 59.1389 37.9633 59.1389H36.9594Z" fill="#1E1E1E"/>
<path d="M42.7304 57.5881C42.7304 57.3126 42.6323 57.0768 42.4361 56.8806C42.2399 56.6865 42.002 56.5884 41.7265 56.5884C41.451 56.5884 41.213 56.6844 41.0169 56.8806C40.8186 57.0747 40.7226 57.3106 40.7226 57.5881C40.7226 57.8657 40.8207 58.1016 41.0169 58.2978C41.213 58.494 41.4489 58.5921 41.7265 58.5921C42.0041 58.5921 42.2399 58.494 42.4361 58.2978C42.6323 58.1016 42.7304 57.8657 42.7304 57.5881ZM43.2773 57.5881C43.2773 58.0181 43.1249 58.3834 42.8243 58.686C42.5217 58.9886 42.1564 59.1389 41.7265 59.1389C41.2965 59.1389 40.9313 58.9886 40.6286 58.686C40.326 58.3834 40.1757 58.0181 40.1757 57.5881C40.1757 57.1582 40.326 56.7971 40.6286 56.4966C40.9313 56.196 41.2965 56.0436 41.7265 56.0436C42.1564 56.0436 42.5217 56.196 42.8243 56.4966C43.127 56.7992 43.2773 57.1624 43.2773 57.5881Z" fill="#1E1E1E"/>
<path d="M47.082 58.8593C47.082 58.9469 47.0549 59.0137 46.9985 59.0617C46.9422 59.1097 46.8795 59.1327 46.8065 59.1327C46.7334 59.1327 46.6708 59.1097 46.6166 59.0617C46.5623 59.0137 46.5331 58.9469 46.5331 58.8593V57.5715C46.5331 57.2981 46.4371 57.0664 46.245 56.8744C46.0509 56.6803 45.8193 56.5843 45.5458 56.5843C45.2724 56.5843 45.0407 56.6803 44.8487 56.8723C44.6567 57.0643 44.5607 57.296 44.5607 57.5673V58.8593C44.5607 58.9428 44.5336 59.0095 44.4793 59.0576C44.425 59.1076 44.3603 59.1306 44.2873 59.1306C44.2142 59.1306 44.1516 59.1056 44.0953 59.0576C44.041 59.0095 44.0139 58.9428 44.0139 58.8593V57.5652C44.0139 57.1436 44.1641 56.7846 44.4668 56.4862C44.7673 56.1877 45.1263 56.0374 45.5479 56.0374C45.9695 56.0374 46.3306 56.1856 46.6312 56.4862C46.9317 56.7846 47.0841 57.1457 47.0841 57.5715V58.8593H47.082Z" fill="#1E1E1E"/>
<path d="M48.3575 57.3147H50.2903C50.2277 57.1039 50.1087 56.9307 49.9292 56.795C49.7518 56.6594 49.5514 56.5905 49.3239 56.5905C49.0484 56.5905 48.8105 56.6886 48.6143 56.8806C48.487 57.0079 48.4014 57.1498 48.3575 57.3085V57.3126V57.3147ZM48.3575 57.8657C48.4014 58.0265 48.489 58.1705 48.6143 58.2978C48.8126 58.494 49.0484 58.5921 49.3239 58.5921H50.2569C50.3404 58.5921 50.4071 58.6192 50.4572 58.6756C50.5073 58.7298 50.5303 58.7945 50.5303 58.8655C50.5303 58.9365 50.5073 59.0012 50.4572 59.0554C50.4071 59.1118 50.3404 59.1368 50.2569 59.1368H49.3239C48.8939 59.1368 48.5287 58.9866 48.2261 58.6839C47.9255 58.3813 47.7731 58.016 47.7731 57.5881C47.7731 57.1603 47.9255 56.7992 48.2261 56.4966C48.5287 56.1939 48.8939 56.0436 49.3239 56.0436C49.7539 56.0436 50.1129 56.1939 50.4155 56.4966C50.7181 56.7992 50.8684 57.1624 50.8684 57.5881C50.8684 57.6612 50.8413 57.7259 50.787 57.7802C50.7327 57.8344 50.666 57.8616 50.595 57.8616H48.3555V57.8657H48.3575Z" fill="#1E1E1E"/>
<path d="M54.5276 58.2332C54.5276 58.4858 54.44 58.6987 54.2605 58.8782C54.0852 59.0556 53.8681 59.1453 53.6135 59.1453L51.7079 59.1391C51.6202 59.1391 51.5534 59.1119 51.5054 59.0577C51.4574 59.0034 51.4344 58.9408 51.4344 58.8677C51.4344 58.7947 51.4574 58.7321 51.5054 58.6778C51.5534 58.6235 51.6181 58.5985 51.7079 58.5985H53.6135C53.7157 58.5985 53.8013 58.563 53.8723 58.4879C53.9432 58.4169 53.9787 58.3292 53.9787 58.2311C53.9787 58.133 53.9432 58.0433 53.8723 57.9723C53.8013 57.9014 53.7157 57.8659 53.6135 57.8659H52.3465C52.0919 57.8659 51.8748 57.7761 51.6995 57.5987C51.5242 57.4192 51.4365 57.2063 51.4365 56.9538C51.4365 56.7012 51.5242 56.4883 51.6995 56.3088C51.8769 56.1314 52.0919 56.0417 52.3465 56.0417H54.0893C54.1749 56.0417 54.2438 56.0688 54.2918 56.1252C54.3398 56.1794 54.3628 56.2421 54.3628 56.3172C54.3628 56.3923 54.3398 56.455 54.2918 56.5092C54.2438 56.5635 54.177 56.5906 54.0893 56.5906H52.3486C52.2464 56.5906 52.1587 56.6261 52.0898 56.6971C52.0189 56.768 51.9834 56.8536 51.9834 56.9559C51.9834 57.0581 52.0189 57.1437 52.0898 57.2147C52.1608 57.2856 52.2484 57.3211 52.3486 57.3211H53.6155C53.8702 57.3211 54.0852 57.4109 54.2626 57.5904C54.44 57.7678 54.5276 57.9828 54.5276 58.2353" fill="#1E1E1E"/>
<path d="M17.476 55.309L16.8207 55.762C16.7685 55.7995 16.7163 55.8183 16.662 55.8183C16.589 55.8183 16.5243 55.7891 16.47 55.7306C16.4157 55.6722 16.3886 55.6054 16.3886 55.5324C16.3886 55.4447 16.4304 55.3717 16.5076 55.3132L17.1588 54.8624C17.213 54.8248 17.2673 54.806 17.3216 54.806C17.3946 54.806 17.4572 54.8352 17.5115 54.8937C17.5658 54.9521 17.5929 55.0168 17.5929 55.0899C17.5929 55.1775 17.5533 55.2506 17.4719 55.309" fill="#1E1E1E"/>
<path d="M26.2358 59.043L25.2006 59.137C24.7707 59.137 24.4054 58.9867 24.1048 58.684C23.8022 58.3814 23.6498 58.0162 23.6498 57.5862C23.6498 57.1562 23.8022 56.7952 24.1048 56.4946C24.4054 56.1941 24.7727 56.0417 25.2027 56.0417C25.6327 56.0417 25.9937 56.1941 26.2985 56.4946C26.6032 56.7972 26.7535 57.1604 26.7535 57.5862V58.8635C26.7535 58.9512 26.7263 59.018 26.6721 59.066C26.6178 59.114 26.5531 59.137 26.4821 59.137C26.4049 59.137 26.3402 59.114 26.288 59.066C26.2776 59.0577 26.2672 59.0472 26.2609 59.0368L26.24 59.041L26.2358 59.043ZM26.2045 58.4962V57.5883C26.2045 57.3128 26.1064 57.0769 25.9102 56.8828C25.7141 56.6887 25.4782 56.5906 25.2006 56.5906C24.923 56.5906 24.6872 56.6887 24.491 56.8828C24.2948 57.0769 24.1967 57.3128 24.1967 57.5883C24.1967 57.8638 24.2948 58.1017 24.491 58.2979C24.6872 58.4941 24.923 58.5922 25.2006 58.5922L26.1899 58.5004H26.2045V58.4962Z" fill="#1E1E1E"/>
<path d="M35.0834 59.043L34.0481 59.137C33.6182 59.137 33.2529 58.9867 32.9503 58.684C32.6477 58.3814 32.4974 58.0162 32.4974 57.5862C32.4974 57.1562 32.6477 56.7952 32.9503 56.4946C33.2529 56.1941 33.6182 56.0417 34.0481 56.0417C34.4781 56.0417 34.8392 56.1941 35.1418 56.4946C35.4466 56.7972 35.5989 57.1604 35.5989 57.5862V58.8635C35.5989 58.9512 35.5718 59.018 35.5175 59.066C35.4632 59.114 35.3985 59.137 35.3255 59.137C35.2524 59.137 35.1836 59.114 35.1314 59.066C35.121 59.0577 35.1126 59.0472 35.1043 59.0368L35.0834 59.041V59.043ZM35.0521 58.4962V57.5883C35.0521 57.3128 34.954 57.0769 34.7578 56.8828C34.5616 56.6887 34.3257 56.5906 34.0481 56.5906C33.7706 56.5906 33.5347 56.6887 33.3385 56.8828C33.1423 57.0769 33.0442 57.3128 33.0442 57.5883C33.0442 57.8638 33.1423 58.1017 33.3385 58.2979C33.5347 58.4941 33.7706 58.5922 34.0481 58.5922L35.0375 58.5004H35.0521V58.4962Z" fill="#1E1E1E"/>
<path d="M57.5893 59.043L56.554 59.137C56.1241 59.137 55.7588 58.9867 55.4562 58.684C55.1556 58.3814 55.0054 58.0162 55.0054 57.5862C55.0054 57.1562 55.1556 56.7952 55.4583 56.4946C55.7609 56.1941 56.1262 56.0417 56.554 56.0417C56.9819 56.0417 57.3451 56.1941 57.6498 56.4946C57.9545 56.7972 58.1048 57.1604 58.1048 57.5862V58.8635C58.1048 58.9512 58.0777 59.018 58.0234 59.066C57.9692 59.114 57.9045 59.137 57.8335 59.137C57.7563 59.137 57.6916 59.114 57.6394 59.066C57.6289 59.0577 57.6206 59.0472 57.6122 59.0368L57.5914 59.041L57.5893 59.043ZM57.558 58.4962V57.5883C57.558 57.3128 57.4599 57.0769 57.2637 56.8828C57.0675 56.6887 56.8316 56.5906 56.554 56.5906C56.2765 56.5906 56.0427 56.6887 55.8444 56.8828C55.6482 57.0769 55.5501 57.3128 55.5501 57.5883C55.5501 57.8638 55.6482 58.1017 55.8444 58.2979C56.0427 58.4941 56.2785 58.5922 56.554 58.5922L57.5455 58.5004H57.558V58.4962Z" fill="#1E1E1E"/>
</svg>
