<svg width="23" height="23" viewBox="0 0 23 23" fill="none" xmlns="http://www.w3.org/2000/svg">
<path d="M6.46426 0C2.89961 0 0 2.90229 0 6.46786V15.7051C0 19.2697 2.90229 22.1693 6.46786 22.1693H15.7051C19.2697 22.1693 22.1693 19.2671 22.1693 15.7015V6.46426C22.1693 2.89961 19.2671 0 15.7015 0H6.46426ZM17.5507 3.69489C18.0606 3.69489 18.4745 4.10872 18.4745 4.61861C18.4745 5.12851 18.0606 5.54234 17.5507 5.54234C17.0408 5.54234 16.627 5.12851 16.627 4.61861C16.627 4.10872 17.0408 3.69489 17.5507 3.69489ZM11.0847 5.54234C14.1413 5.54234 16.627 8.02808 16.627 11.0847C16.627 14.1413 14.1413 16.627 11.0847 16.627C8.02808 16.627 5.54234 14.1413 5.54234 11.0847C5.54234 8.02808 8.02808 5.54234 11.0847 5.54234ZM11.0847 7.38978C10.1047 7.38978 9.16492 7.77907 8.47199 8.47199C7.77907 9.16492 7.38978 10.1047 7.38978 11.0847C7.38978 12.0646 7.77907 13.0044 8.47199 13.6974C9.16492 14.3903 10.1047 14.7796 11.0847 14.7796C12.0646 14.7796 13.0044 14.3903 13.6974 13.6974C14.3903 13.0044 14.7796 12.0646 14.7796 11.0847C14.7796 10.1047 14.3903 9.16492 13.6974 8.47199C13.0044 7.77907 12.0646 7.38978 11.0847 7.38978Z" fill="white"/>
</svg>
