<svg width="21" height="21" viewBox="0 0 21 21" fill="none" xmlns="http://www.w3.org/2000/svg">
<path d="M18.7798 0H1.87798C0.840397 0 0 0.840397 0 1.87798V18.7798C0 19.8174 0.840397 20.6578 1.87798 20.6578H18.7798C19.8174 20.6578 20.6578 19.8174 20.6578 18.7798V1.87798C20.6578 0.840397 19.8174 0 18.7798 0ZM6.52974 16.9018H3.75972V7.98894H6.52974V16.9018ZM5.11656 6.71472C4.22358 6.71472 3.5015 5.99076 3.5015 5.09966C3.5015 4.20856 4.22452 3.48553 5.11656 3.48553C6.00673 3.48553 6.73069 4.2095 6.73069 5.09966C6.73069 5.99076 6.00673 6.71472 5.11656 6.71472ZM16.9056 16.9018H14.1374V12.5675C14.1374 11.5336 14.1187 10.204 12.698 10.204C11.2566 10.204 11.035 11.3299 11.035 12.4923V16.9018H8.26688V7.98894H10.9242V9.20681H10.9618C11.3317 8.50632 12.2351 7.76733 13.5825 7.76733C16.3873 7.76733 16.9056 9.61339 16.9056 12.0135V16.9018Z" fill="white"/>
</svg>
