<svg width="29" height="20" viewBox="0 0 29 20" fill="none" xmlns="http://www.w3.org/2000/svg">
<path d="M28.0227 3.08479C27.6827 1.87791 26.7415 0.931362 25.5293 0.596762C23.2971 2.85291e-05 14.3237 2.86734e-05 14.3237 2.86734e-05C14.3237 2.86734e-05 5.36735 -0.0142859 3.11193 0.596762C1.90594 0.932257 0.960293 1.87791 0.623903 3.08479C0.200732 5.37242 -0.00951107 7.68778 0.00033012 10.0139C-0.00414315 12.3248 0.205206 14.6366 0.623903 16.9099C0.960293 18.1168 1.90594 19.0633 3.11193 19.4033C5.34409 20 14.3237 20 14.3237 20C14.3237 20 23.2747 20 25.5293 19.4033C26.7415 19.0633 27.6827 18.1177 28.0227 16.9099C28.4333 14.6366 28.6337 12.3248 28.6194 10.0139C28.6337 7.68778 28.4378 5.37242 28.0227 3.08479ZM11.4573 14.2966V5.71239L18.9267 10.0139L11.4573 14.2966Z" fill="white"/>
</svg>
